<svg width="347" height="86" viewBox="0 0 347 86" fill="none" xmlns="http://www.w3.org/2000/svg">
<g filter="url(#filter0_d_469_11081)">
<rect x="1.32812" y="1.32812" width="162.672" height="82" rx="5" fill="#C493DD" shape-rendering="crispEdges"/>
<rect x="0.828125" y="0.828125" width="163.672" height="83" rx="5.5" stroke="black" shape-rendering="crispEdges"/>
<rect x="0.828125" y="0.828125" width="163.672" height="83" rx="5.5" stroke="black" stroke-opacity="0.2" shape-rendering="crispEdges"/>
<path fill-rule="evenodd" clip-rule="evenodd" d="M74.9424 62.3831C74.9424 70.0641 68.6413 76.2911 60.8687 76.2911C53.0956 76.2911 46.7944 70.0641 46.7944 62.3831C46.7944 54.702 53.0956 48.4751 60.8687 48.4751C68.6413 48.4751 74.9424 54.702 74.9424 62.3831Z" fill="#0D0D0C"/>
<path fill-rule="evenodd" clip-rule="evenodd" d="M116.227 37.3707C116.227 53.3893 101.79 66.3756 83.9816 66.3756C66.1733 66.3756 51.7371 53.3893 51.7371 37.3707C51.7371 21.352 66.1733 8.36572 83.9816 8.36572C101.79 8.36572 116.227 21.352 116.227 37.3707Z" fill="#0D0D0C"/>
<path fill-rule="evenodd" clip-rule="evenodd" d="M117.468 42.3896C117.468 46.8156 113.838 50.4036 109.359 50.4036C104.88 50.4036 101.249 46.8156 101.249 42.3896C101.249 37.9635 104.88 34.3755 109.359 34.3755C113.838 34.3755 117.468 37.9635 117.468 42.3896Z" fill="#D6B3E7"/>
<path fill-rule="evenodd" clip-rule="evenodd" d="M109.359 35.4276C105.474 35.4276 102.314 38.5506 102.314 42.3895C102.314 46.2285 105.474 49.3514 109.359 49.3514C113.244 49.3514 116.404 46.2285 116.404 42.3895C116.404 38.5506 113.244 35.4276 109.359 35.4276ZM109.359 51.4558C104.301 51.4558 100.185 47.3885 100.185 42.3895C100.185 37.3905 104.301 33.3232 109.359 33.3232C114.418 33.3232 118.533 37.3905 118.533 42.3895C118.533 47.3885 114.418 51.4558 109.359 51.4558Z" fill="#0D0D0C"/>
<path fill-rule="evenodd" clip-rule="evenodd" d="M88.3282 67.3408C79.0293 67.3408 70.6381 61.8904 66.9504 53.456L66.6038 52.6642C61.5138 41.0211 66.9578 27.4561 78.7397 22.4255C81.68 21.1703 84.7826 20.5337 87.9603 20.5337C97.2592 20.5337 105.651 25.9841 109.338 34.4185L109.685 35.2103C112.151 40.8506 112.246 47.1023 109.954 52.8131C107.662 58.5244 103.256 63.0121 97.5488 65.4489C94.6086 66.7042 91.5059 67.3408 88.3282 67.3408Z" fill="#D6B3E7"/>
<path fill-rule="evenodd" clip-rule="evenodd" d="M87.961 19.4814C84.6369 19.4814 81.3921 20.1475 78.3171 21.4601C72.3487 24.008 67.7422 28.7008 65.3449 34.6731C62.9476 40.6459 63.0477 47.1832 65.6265 53.0813L65.9726 53.8731C69.829 62.6937 78.6041 68.3929 88.3283 68.3929C91.6519 68.3929 94.8962 67.7274 97.9711 66.4143C103.94 63.8664 108.547 59.1736 110.943 53.2013C113.341 47.2285 113.241 40.6912 110.662 34.7931L110.316 34.0013C106.46 25.1807 97.6847 19.4814 87.961 19.4814ZM87.9605 21.5858C96.5545 21.5858 104.736 26.5438 108.361 34.8362L108.707 35.6275C113.572 46.756 108.387 59.6749 97.1268 64.483C94.2563 65.7083 91.2681 66.2886 88.3283 66.2886C79.7343 66.2886 71.5529 61.3306 67.9274 53.0387L67.5814 52.2469C62.7161 41.1184 67.9008 28.1994 79.162 23.3919C82.032 22.1661 85.0207 21.5858 87.9605 21.5858Z" fill="#0D0D0C"/>
<path fill-rule="evenodd" clip-rule="evenodd" d="M66.5268 50.4036C62.048 50.4036 58.4172 46.8156 58.4172 42.3896C58.4172 37.9635 62.048 34.3755 66.5268 34.3755C67.0869 34.3755 67.6331 34.4318 68.1612 34.5386" fill="#D6B3E7"/>
<path fill-rule="evenodd" clip-rule="evenodd" d="M66.5269 51.4558C61.4683 51.4558 57.3525 47.3885 57.3525 42.3895C57.3525 37.3905 61.4683 33.3232 66.5269 33.3232C67.1481 33.3232 67.7699 33.3853 68.3747 33.5074C68.9507 33.6242 69.3223 34.1797 69.2041 34.7495C69.0865 35.3182 68.5232 35.6854 67.9477 35.5692C67.483 35.4755 67.0049 35.4276 66.5269 35.4276C62.6422 35.4276 59.482 38.5506 59.482 42.3895C59.482 46.2285 62.6422 49.3514 66.5269 49.3514C67.1146 49.3514 67.5916 49.8228 67.5916 50.4036C67.5916 50.9844 67.1146 51.4558 66.5269 51.4558Z" fill="#0D0D0C"/>
<path fill-rule="evenodd" clip-rule="evenodd" d="M117.398 30.0311H90.034C80.0627 30.0311 71.9792 22.0428 71.9792 12.1884C71.9792 10.0772 79.9504 8.36523 82.0873 8.36523H99.3425C109.314 8.36523 117.398 16.3535 117.398 26.2079V30.0311Z" fill="#0D0D0C"/>
<path d="M71.816 36.774C75.9322 36.774 79.2691 33.4764 79.2691 29.4086C79.2691 25.3408 75.9322 22.0432 71.816 22.0432C67.6997 22.0432 64.3628 25.3408 64.3628 29.4086C64.3628 33.4764 67.6997 36.774 71.816 36.774Z" fill="#0D0D0C"/>
<path fill-rule="evenodd" clip-rule="evenodd" d="M91.5921 51.5011H95.6174C96.7274 51.5011 97.5493 49.9065 97.3012 48.234L95.6062 36.7971C95.2128 34.1429 92.8038 33.9946 92.2746 36.5914L89.9444 48.0283C89.5941 49.7492 90.4252 51.5011 91.5921 51.5011Z" fill="#8957A2"/>
<path fill-rule="evenodd" clip-rule="evenodd" d="M88.2811 39.1701C87.6931 39.1701 87.2169 38.698 87.2169 38.1152C87.2169 37.3583 86.307 36.1911 85.098 36.1911C83.889 36.1911 82.9791 37.3583 82.9791 38.1152C82.9791 38.698 82.5023 39.1701 81.9148 39.1701C81.3268 39.1701 80.8506 38.698 80.8506 38.1152C80.8506 36.2496 82.7056 34.0813 85.098 34.0813C87.4899 34.0813 89.3454 36.2496 89.3454 38.1152C89.3454 38.698 88.8691 39.1701 88.2811 39.1701Z" fill="#0D0D0C"/>
<path fill-rule="evenodd" clip-rule="evenodd" d="M103.663 39.1701C103.075 39.1701 102.599 38.698 102.599 38.1152C102.599 37.3583 101.689 36.1911 100.48 36.1911C99.2705 36.1911 98.3612 37.3583 98.3612 38.1152C98.3612 38.698 97.8844 39.1701 97.2969 39.1701C96.7089 39.1701 96.2327 38.698 96.2327 38.1152C96.2327 36.2496 98.0876 34.0813 100.48 34.0813C102.872 34.0813 104.727 36.2496 104.727 38.1152C104.727 38.698 104.251 39.1701 103.663 39.1701Z" fill="#0D0D0C"/>
<path fill-rule="evenodd" clip-rule="evenodd" d="M92.5667 57.4913C89.7853 57.4913 87.0044 56.4423 84.8871 54.343C84.4715 53.9311 84.4715 53.2634 84.8871 52.8514C85.3027 52.4395 85.9764 52.4395 86.392 52.8514C89.7965 56.226 95.3369 56.226 98.7414 52.8514C99.157 52.4395 99.8307 52.4395 100.246 52.8514C100.662 53.2634 100.662 53.9311 100.246 54.343C98.1295 56.4417 95.3476 57.4913 92.5667 57.4913Z" fill="#0D0D0C"/>
<path fill-rule="evenodd" clip-rule="evenodd" d="M91.1903 29.8936C91.7782 29.8936 92.2545 30.3647 92.2545 30.9464L92.254 33.8863C92.5808 33.7242 92.948 33.6034 93.3564 33.5528C94.1111 33.4592 94.7183 33.6213 95.3309 34.0362L95.331 30.9464C95.331 30.3647 95.8072 29.8936 96.3952 29.8936H109.494C110.082 29.8936 110.559 30.3647 110.559 30.9464V36.5569C110.559 39.6196 108.04 42.1116 104.943 42.1116H99.5267C97.2131 42.1116 95.331 40.2497 95.331 37.9609L95.331 36.4186C94.805 35.9463 94.1967 35.5739 93.6283 35.6411C92.9699 35.7184 92.4669 36.3723 92.2539 36.6993L92.2545 37.9609C92.2545 40.2497 90.3724 42.1116 88.0587 42.1116H82.0825C78.9861 42.1116 76.467 39.6196 76.467 36.5569L76.4665 34.9113L69.4113 36.4835C69.3326 36.5008 69.2544 36.5093 69.1767 36.5093C68.6898 36.5093 68.2508 36.1771 68.1396 35.6875C68.0103 35.1201 68.3705 34.5568 68.9436 34.4289L76.4665 32.7525L76.467 30.9464C76.467 30.3647 76.9432 29.8936 77.5312 29.8936H91.1903ZM90.126 31.9992H78.5955V36.5569C78.5955 38.4588 80.1594 40.006 82.0825 40.006H88.0587C89.1985 40.006 90.126 39.0884 90.126 37.9609V31.9992ZM108.43 31.9992H97.4594V37.9609C97.4594 39.0884 98.3869 40.006 99.5267 40.006H104.943C106.866 40.006 108.43 38.4588 108.43 36.5569V31.9992Z" fill="#0D0D0C"/>
</g>
<path d="M188.02 32.0281H192.1C192.7 32.0281 193.2 31.8615 193.6 31.5281C194 31.1815 194.2 30.6881 194.2 30.0481C194.2 29.3281 194.02 28.8215 193.66 28.5281C193.3 28.2348 192.78 28.0881 192.1 28.0881H188.02V32.0281ZM185.52 26.0481H192.46C193.74 26.0481 194.767 26.3415 195.54 26.9281C196.313 27.5148 196.7 28.4015 196.7 29.5881C196.7 30.3081 196.52 30.9281 196.16 31.4481C195.813 31.9548 195.313 32.3481 194.66 32.6281V32.6681C195.54 32.8548 196.207 33.2748 196.66 33.9281C197.113 34.5681 197.34 35.3748 197.34 36.3481C197.34 36.9081 197.24 37.4348 197.04 37.9281C196.84 38.4081 196.527 38.8281 196.1 39.1881C195.673 39.5348 195.127 39.8148 194.46 40.0281C193.793 40.2281 193 40.3281 192.08 40.3281H185.52V26.0481ZM188.02 38.2881H192.44C193.2 38.2881 193.787 38.0948 194.2 37.7081C194.627 37.3081 194.84 36.7481 194.84 36.0281C194.84 35.3215 194.627 34.7815 194.2 34.4081C193.787 34.0215 193.2 33.8281 192.44 33.8281H188.02V38.2881ZM208.362 40.3281H206.122V38.8881H206.082C205.802 39.4081 205.382 39.8281 204.822 40.1481C204.275 40.4548 203.715 40.6081 203.142 40.6081C201.782 40.6081 200.795 40.2748 200.182 39.6081C199.582 38.9281 199.282 37.9081 199.282 36.5481V29.9881H201.562V36.3281C201.562 37.2348 201.735 37.8748 202.082 38.2481C202.429 38.6215 202.915 38.8081 203.542 38.8081C204.022 38.8081 204.422 38.7348 204.742 38.5881C205.062 38.4415 205.322 38.2481 205.522 38.0081C205.722 37.7548 205.862 37.4548 205.942 37.1081C206.035 36.7615 206.082 36.3881 206.082 35.9881V29.9881H208.362V40.3281ZM210.826 26.0481H213.106V28.2081H210.826V26.0481ZM210.826 29.9881H213.106V40.3281H210.826V29.9881ZM215.651 26.0481H217.931V40.3281H215.651V26.0481ZM230.155 40.3281H227.995V38.9281H227.955C227.648 39.5281 227.202 39.9615 226.615 40.2281C226.028 40.4815 225.408 40.6081 224.755 40.6081C223.942 40.6081 223.228 40.4681 222.615 40.1881C222.015 39.8948 221.515 39.5015 221.115 39.0081C220.715 38.5148 220.415 37.9348 220.215 37.2681C220.015 36.5881 219.915 35.8615 219.915 35.0881C219.915 34.1548 220.042 33.3481 220.295 32.6681C220.548 31.9881 220.882 31.4281 221.295 30.9881C221.722 30.5481 222.202 30.2281 222.735 30.0281C223.282 29.8148 223.835 29.7081 224.395 29.7081C224.715 29.7081 225.042 29.7415 225.375 29.8081C225.708 29.8615 226.028 29.9548 226.335 30.0881C226.642 30.2215 226.922 30.3948 227.175 30.6081C227.442 30.8081 227.662 31.0481 227.835 31.3281H227.875V26.0481H230.155V40.3281ZM222.195 35.2681C222.195 35.7081 222.248 36.1415 222.355 36.5681C222.475 36.9948 222.648 37.3748 222.875 37.7081C223.115 38.0415 223.415 38.3081 223.775 38.5081C224.135 38.7081 224.562 38.8081 225.055 38.8081C225.562 38.8081 225.995 38.7015 226.355 38.4881C226.728 38.2748 227.028 37.9948 227.255 37.6481C227.495 37.3015 227.668 36.9148 227.775 36.4881C227.895 36.0481 227.955 35.6015 227.955 35.1481C227.955 34.0015 227.695 33.1081 227.175 32.4681C226.668 31.8281 225.975 31.5081 225.095 31.5081C224.562 31.5081 224.108 31.6215 223.735 31.8481C223.375 32.0615 223.075 32.3481 222.835 32.7081C222.608 33.0548 222.442 33.4548 222.335 33.9081C222.242 34.3481 222.195 34.8015 222.195 35.2681ZM232.701 26.0481H234.981V28.2081H232.701V26.0481ZM232.701 29.9881H234.981V40.3281H232.701V29.9881ZM237.466 29.9881H239.626V31.5081L239.666 31.5481C240.012 30.9748 240.466 30.5281 241.026 30.2081C241.586 29.8748 242.206 29.7081 242.886 29.7081C244.019 29.7081 244.912 30.0015 245.566 30.5881C246.219 31.1748 246.546 32.0548 246.546 33.2281V40.3281H244.266V33.8281C244.239 33.0148 244.066 32.4281 243.746 32.0681C243.426 31.6948 242.926 31.5081 242.246 31.5081C241.859 31.5081 241.512 31.5815 241.206 31.7281C240.899 31.8615 240.639 32.0548 240.426 32.3081C240.212 32.5481 240.046 32.8348 239.926 33.1681C239.806 33.5015 239.746 33.8548 239.746 34.2281V40.3281H237.466V29.9881ZM258.51 39.7881C258.51 41.3481 258.07 42.5081 257.19 43.2681C256.323 44.0415 255.07 44.4281 253.43 44.4281C252.91 44.4281 252.383 44.3748 251.85 44.2681C251.33 44.1615 250.85 43.9815 250.41 43.7281C249.983 43.4748 249.623 43.1415 249.33 42.7281C249.037 42.3148 248.863 41.8081 248.81 41.2081H251.09C251.157 41.5281 251.27 41.7881 251.43 41.9881C251.59 42.1881 251.777 42.3415 251.99 42.4481C252.217 42.5681 252.463 42.6415 252.73 42.6681C252.997 42.7081 253.277 42.7281 253.57 42.7281C254.49 42.7281 255.163 42.5015 255.59 42.0481C256.017 41.5948 256.23 40.9415 256.23 40.0881V38.5081H256.19C255.87 39.0815 255.43 39.5281 254.87 39.8481C254.323 40.1681 253.73 40.3281 253.09 40.3281C252.263 40.3281 251.557 40.1881 250.97 39.9081C250.397 39.6148 249.917 39.2215 249.53 38.7281C249.157 38.2215 248.883 37.6415 248.71 36.9881C248.537 36.3348 248.45 35.6348 248.45 34.8881C248.45 34.1948 248.557 33.5348 248.77 32.9081C248.983 32.2815 249.29 31.7348 249.69 31.2681C250.09 30.7881 250.577 30.4081 251.15 30.1281C251.737 29.8481 252.397 29.7081 253.13 29.7081C253.783 29.7081 254.383 29.8481 254.93 30.1281C255.477 30.3948 255.897 30.8215 256.19 31.4081H256.23V29.9881H258.51V39.7881ZM253.45 38.5281C253.957 38.5281 254.383 38.4281 254.73 38.2281C255.09 38.0148 255.377 37.7415 255.59 37.4081C255.817 37.0615 255.977 36.6748 256.07 36.2481C256.177 35.8081 256.23 35.3681 256.23 34.9281C256.23 34.4881 256.177 34.0615 256.07 33.6481C255.963 33.2348 255.797 32.8681 255.57 32.5481C255.357 32.2281 255.07 31.9748 254.71 31.7881C254.363 31.6015 253.943 31.5081 253.45 31.5081C252.943 31.5081 252.517 31.6148 252.17 31.8281C251.823 32.0415 251.543 32.3215 251.33 32.6681C251.117 33.0015 250.963 33.3881 250.87 33.8281C250.777 34.2548 250.73 34.6815 250.73 35.1081C250.73 35.5348 250.783 35.9548 250.89 36.3681C250.997 36.7681 251.157 37.1281 251.37 37.4481C251.597 37.7681 251.877 38.0281 252.21 38.2281C252.557 38.4281 252.97 38.5281 253.45 38.5281ZM185.52 46.0481H188.02V60.3281H185.52V46.0481ZM190.766 49.9881H192.926V51.5081L192.966 51.5481C193.313 50.9748 193.766 50.5281 194.326 50.2081C194.886 49.8748 195.506 49.7081 196.186 49.7081C197.32 49.7081 198.213 50.0015 198.866 50.5881C199.52 51.1748 199.846 52.0548 199.846 53.2281V60.3281H197.566V53.8281C197.54 53.0148 197.366 52.4281 197.046 52.0681C196.726 51.6948 196.226 51.5081 195.546 51.5081C195.16 51.5081 194.813 51.5815 194.506 51.7281C194.2 51.8615 193.94 52.0548 193.726 52.3081C193.513 52.5481 193.346 52.8348 193.226 53.1681C193.106 53.5015 193.046 53.8548 193.046 54.2281V60.3281H190.766V49.9881ZM202.251 49.9881H204.411V51.5081L204.451 51.5481C204.797 50.9748 205.251 50.5281 205.811 50.2081C206.371 49.8748 206.991 49.7081 207.671 49.7081C208.804 49.7081 209.697 50.0015 210.351 50.5881C211.004 51.1748 211.331 52.0548 211.331 53.2281V60.3281H209.051V53.8281C209.024 53.0148 208.851 52.4281 208.531 52.0681C208.211 51.6948 207.711 51.5081 207.031 51.5081C206.644 51.5081 206.297 51.5815 205.991 51.7281C205.684 51.8615 205.424 52.0548 205.211 52.3081C204.997 52.5481 204.831 52.8348 204.711 53.1681C204.591 53.5015 204.531 53.8548 204.531 54.2281V60.3281H202.251V49.9881ZM218.475 60.6081C217.648 60.6081 216.908 60.4748 216.255 60.2081C215.615 59.9281 215.068 59.5481 214.615 59.0681C214.175 58.5881 213.835 58.0148 213.595 57.3481C213.368 56.6815 213.255 55.9481 213.255 55.1481C213.255 54.3615 213.368 53.6348 213.595 52.9681C213.835 52.3015 214.175 51.7281 214.615 51.2481C215.068 50.7681 215.615 50.3948 216.255 50.1281C216.908 49.8481 217.648 49.7081 218.475 49.7081C219.302 49.7081 220.035 49.8481 220.675 50.1281C221.328 50.3948 221.875 50.7681 222.315 51.2481C222.768 51.7281 223.108 52.3015 223.335 52.9681C223.575 53.6348 223.695 54.3615 223.695 55.1481C223.695 55.9481 223.575 56.6815 223.335 57.3481C223.108 58.0148 222.768 58.5881 222.315 59.0681C221.875 59.5481 221.328 59.9281 220.675 60.2081C220.035 60.4748 219.302 60.6081 218.475 60.6081ZM218.475 58.8081C218.982 58.8081 219.422 58.7015 219.795 58.4881C220.168 58.2748 220.475 57.9948 220.715 57.6481C220.955 57.3015 221.128 56.9148 221.235 56.4881C221.355 56.0481 221.415 55.6015 221.415 55.1481C221.415 54.7081 221.355 54.2681 221.235 53.8281C221.128 53.3881 220.955 53.0015 220.715 52.6681C220.475 52.3215 220.168 52.0415 219.795 51.8281C219.422 51.6148 218.982 51.5081 218.475 51.5081C217.968 51.5081 217.528 51.6148 217.155 51.8281C216.782 52.0415 216.475 52.3215 216.235 52.6681C215.995 53.0015 215.815 53.3881 215.695 53.8281C215.588 54.2681 215.535 54.7081 215.535 55.1481C215.535 55.6015 215.588 56.0481 215.695 56.4881C215.815 56.9148 215.995 57.3015 216.235 57.6481C216.475 57.9948 216.782 58.2748 217.155 58.4881C217.528 58.7015 217.968 58.8081 218.475 58.8081ZM224.571 49.9881H227.051L229.671 57.9281H229.711L232.231 49.9881H234.591L230.891 60.3281H228.331L224.571 49.9881ZM244.622 58.0281C244.622 58.3081 244.655 58.5081 244.722 58.6281C244.802 58.7481 244.948 58.8081 245.162 58.8081C245.228 58.8081 245.308 58.8081 245.402 58.8081C245.495 58.8081 245.602 58.7948 245.722 58.7681V60.3481C245.642 60.3748 245.535 60.4015 245.402 60.4281C245.282 60.4681 245.155 60.5015 245.022 60.5281C244.888 60.5548 244.755 60.5748 244.622 60.5881C244.488 60.6015 244.375 60.6081 244.282 60.6081C243.815 60.6081 243.428 60.5148 243.122 60.3281C242.815 60.1415 242.615 59.8148 242.522 59.3481C242.068 59.7881 241.508 60.1081 240.842 60.3081C240.188 60.5081 239.555 60.6081 238.942 60.6081C238.475 60.6081 238.028 60.5415 237.602 60.4081C237.175 60.2881 236.795 60.1081 236.462 59.8681C236.142 59.6148 235.882 59.3015 235.682 58.9281C235.495 58.5415 235.402 58.0948 235.402 57.5881C235.402 56.9481 235.515 56.4281 235.742 56.0281C235.982 55.6281 236.288 55.3148 236.662 55.0881C237.048 54.8615 237.475 54.7015 237.942 54.6081C238.422 54.5015 238.902 54.4215 239.382 54.3681C239.795 54.2881 240.188 54.2348 240.562 54.2081C240.935 54.1681 241.262 54.1081 241.542 54.0281C241.835 53.9481 242.062 53.8281 242.222 53.6681C242.395 53.4948 242.482 53.2415 242.482 52.9081C242.482 52.6148 242.408 52.3748 242.262 52.1881C242.128 52.0015 241.955 51.8615 241.742 51.7681C241.542 51.6615 241.315 51.5948 241.062 51.5681C240.808 51.5281 240.568 51.5081 240.342 51.5081C239.702 51.5081 239.175 51.6415 238.762 51.9081C238.348 52.1748 238.115 52.5881 238.062 53.1481H235.782C235.822 52.4815 235.982 51.9281 236.262 51.4881C236.542 51.0481 236.895 50.6948 237.322 50.4281C237.762 50.1615 238.255 49.9748 238.802 49.8681C239.348 49.7615 239.908 49.7081 240.482 49.7081C240.988 49.7081 241.488 49.7615 241.982 49.8681C242.475 49.9748 242.915 50.1481 243.302 50.3881C243.702 50.6281 244.022 50.9415 244.262 51.3281C244.502 51.7015 244.622 52.1615 244.622 52.7081V58.0281ZM242.342 55.1481C241.995 55.3748 241.568 55.5148 241.062 55.5681C240.555 55.6081 240.048 55.6748 239.542 55.7681C239.302 55.8081 239.068 55.8681 238.842 55.9481C238.615 56.0148 238.415 56.1148 238.242 56.2481C238.068 56.3681 237.928 56.5348 237.822 56.7481C237.728 56.9481 237.682 57.1948 237.682 57.4881C237.682 57.7415 237.755 57.9548 237.902 58.1281C238.048 58.3015 238.222 58.4415 238.422 58.5481C238.635 58.6415 238.862 58.7081 239.102 58.7481C239.355 58.7881 239.582 58.8081 239.782 58.8081C240.035 58.8081 240.308 58.7748 240.602 58.7081C240.895 58.6415 241.168 58.5281 241.422 58.3681C241.688 58.2081 241.908 58.0081 242.082 57.7681C242.255 57.5148 242.342 57.2081 242.342 56.8481V55.1481ZM246.035 49.9881H247.755V46.8881H250.035V49.9881H252.095V51.6881H250.035V57.2081C250.035 57.4481 250.042 57.6548 250.055 57.8281C250.082 58.0015 250.128 58.1481 250.195 58.2681C250.275 58.3881 250.388 58.4815 250.535 58.5481C250.682 58.6015 250.882 58.6281 251.135 58.6281C251.295 58.6281 251.455 58.6281 251.615 58.6281C251.775 58.6148 251.935 58.5881 252.095 58.5481V60.3081C251.842 60.3348 251.595 60.3615 251.355 60.3881C251.115 60.4148 250.868 60.4281 250.615 60.4281C250.015 60.4281 249.528 60.3748 249.155 60.2681C248.795 60.1481 248.508 59.9815 248.295 59.7681C248.095 59.5415 247.955 59.2615 247.875 58.9281C247.808 58.5948 247.768 58.2148 247.755 57.7881V51.6881H246.035V49.9881ZM253.795 46.0481H256.075V48.2081H253.795V46.0481ZM253.795 49.9881H256.075V60.3281H253.795V49.9881ZM263.299 60.6081C262.473 60.6081 261.733 60.4748 261.079 60.2081C260.439 59.9281 259.893 59.5481 259.439 59.0681C258.999 58.5881 258.659 58.0148 258.419 57.3481C258.193 56.6815 258.079 55.9481 258.079 55.1481C258.079 54.3615 258.193 53.6348 258.419 52.9681C258.659 52.3015 258.999 51.7281 259.439 51.2481C259.893 50.7681 260.439 50.3948 261.079 50.1281C261.733 49.8481 262.473 49.7081 263.299 49.7081C264.126 49.7081 264.859 49.8481 265.499 50.1281C266.153 50.3948 266.699 50.7681 267.139 51.2481C267.593 51.7281 267.933 52.3015 268.159 52.9681C268.399 53.6348 268.519 54.3615 268.519 55.1481C268.519 55.9481 268.399 56.6815 268.159 57.3481C267.933 58.0148 267.593 58.5881 267.139 59.0681C266.699 59.5481 266.153 59.9281 265.499 60.2081C264.859 60.4748 264.126 60.6081 263.299 60.6081ZM263.299 58.8081C263.806 58.8081 264.246 58.7015 264.619 58.4881C264.993 58.2748 265.299 57.9948 265.539 57.6481C265.779 57.3015 265.953 56.9148 266.059 56.4881C266.179 56.0481 266.239 55.6015 266.239 55.1481C266.239 54.7081 266.179 54.2681 266.059 53.8281C265.953 53.3881 265.779 53.0015 265.539 52.6681C265.299 52.3215 264.993 52.0415 264.619 51.8281C264.246 51.6148 263.806 51.5081 263.299 51.5081C262.793 51.5081 262.353 51.6148 261.979 51.8281C261.606 52.0415 261.299 52.3215 261.059 52.6681C260.819 53.0015 260.639 53.3881 260.519 53.8281C260.413 54.2681 260.359 54.7081 260.359 55.1481C260.359 55.6015 260.413 56.0481 260.519 56.4881C260.639 56.9148 260.819 57.3015 261.059 57.6481C261.299 57.9948 261.606 58.2748 261.979 58.4881C262.353 58.7015 262.793 58.8081 263.299 58.8081ZM270.415 49.9881H272.575V51.5081L272.615 51.5481C272.962 50.9748 273.415 50.5281 273.975 50.2081C274.535 49.8748 275.155 49.7081 275.835 49.7081C276.968 49.7081 277.862 50.0015 278.515 50.5881C279.168 51.1748 279.495 52.0548 279.495 53.2281V60.3281H277.215V53.8281C277.188 53.0148 277.015 52.4281 276.695 52.0681C276.375 51.6948 275.875 51.5081 275.195 51.5081C274.808 51.5081 274.462 51.5815 274.155 51.7281C273.848 51.8615 273.588 52.0548 273.375 52.3081C273.162 52.5481 272.995 52.8348 272.875 53.1681C272.755 53.5015 272.695 53.8548 272.695 54.2281V60.3281H270.415V49.9881ZM287.786 46.0481H298.066V48.2081H290.286V51.9481H297.486V53.9881H290.286V58.1681H298.206V60.3281H287.786V46.0481ZM302.843 54.8881L299.263 49.9881H302.023L304.183 53.1681L306.443 49.9881H309.083L305.563 54.7681L309.523 60.3281H306.783L304.163 56.5081L301.623 60.3281H298.943L302.843 54.8881ZM310.865 49.9881H313.025V51.3881H313.065C313.385 50.7881 313.832 50.3615 314.405 50.1081C314.979 49.8415 315.599 49.7081 316.265 49.7081C317.079 49.7081 317.785 49.8548 318.385 50.1481C318.999 50.4281 319.505 50.8215 319.905 51.3281C320.305 51.8215 320.605 52.4015 320.805 53.0681C321.005 53.7348 321.105 54.4481 321.105 55.2081C321.105 55.9015 321.012 56.5748 320.825 57.2281C320.652 57.8815 320.379 58.4615 320.005 58.9681C319.645 59.4615 319.185 59.8615 318.625 60.1681C318.065 60.4615 317.405 60.6081 316.645 60.6081C316.312 60.6081 315.979 60.5748 315.645 60.5081C315.312 60.4548 314.992 60.3615 314.685 60.2281C314.379 60.0948 314.092 59.9281 313.825 59.7281C313.572 59.5148 313.359 59.2681 313.185 58.9881H313.145V64.1481H310.865V49.9881ZM318.825 55.1681C318.825 54.7015 318.765 54.2481 318.645 53.8081C318.525 53.3681 318.345 52.9815 318.105 52.6481C317.865 52.3015 317.565 52.0281 317.205 51.8281C316.845 51.6148 316.432 51.5081 315.965 51.5081C315.005 51.5081 314.279 51.8415 313.785 52.5081C313.305 53.1748 313.065 54.0615 313.065 55.1681C313.065 55.6881 313.125 56.1748 313.245 56.6281C313.379 57.0681 313.572 57.4481 313.825 57.7681C314.079 58.0881 314.379 58.3415 314.725 58.5281C315.085 58.7148 315.499 58.8081 315.965 58.8081C316.485 58.8081 316.925 58.7015 317.285 58.4881C317.645 58.2748 317.939 58.0015 318.165 57.6681C318.405 57.3215 318.572 56.9348 318.665 56.5081C318.772 56.0681 318.825 55.6215 318.825 55.1681ZM330.132 54.2481C330.105 53.8881 330.025 53.5415 329.892 53.2081C329.772 52.8748 329.599 52.5881 329.372 52.3481C329.159 52.0948 328.892 51.8948 328.572 51.7481C328.265 51.5881 327.919 51.5081 327.532 51.5081C327.132 51.5081 326.765 51.5815 326.432 51.7281C326.112 51.8615 325.832 52.0548 325.592 52.3081C325.365 52.5481 325.179 52.8348 325.032 53.1681C324.899 53.5015 324.825 53.8615 324.812 54.2481H330.132ZM324.812 55.7481C324.812 56.1481 324.865 56.5348 324.972 56.9081C325.092 57.2815 325.265 57.6081 325.492 57.8881C325.719 58.1681 326.005 58.3948 326.352 58.5681C326.699 58.7281 327.112 58.8081 327.592 58.8081C328.259 58.8081 328.792 58.6681 329.192 58.3881C329.605 58.0948 329.912 57.6615 330.112 57.0881H332.272C332.152 57.6481 331.945 58.1481 331.652 58.5881C331.359 59.0281 331.005 59.4015 330.592 59.7081C330.179 60.0015 329.712 60.2215 329.192 60.3681C328.685 60.5281 328.152 60.6081 327.592 60.6081C326.779 60.6081 326.059 60.4748 325.432 60.2081C324.805 59.9415 324.272 59.5681 323.832 59.0881C323.405 58.6081 323.079 58.0348 322.852 57.3681C322.639 56.7015 322.532 55.9681 322.532 55.1681C322.532 54.4348 322.645 53.7415 322.872 53.0881C323.112 52.4215 323.445 51.8415 323.872 51.3481C324.312 50.8415 324.839 50.4415 325.452 50.1481C326.065 49.8548 326.759 49.7081 327.532 49.7081C328.345 49.7081 329.072 49.8815 329.712 50.2281C330.365 50.5615 330.905 51.0081 331.332 51.5681C331.759 52.1281 332.065 52.7748 332.252 53.5081C332.452 54.2281 332.505 54.9748 332.412 55.7481H324.812ZM334.145 49.9881H336.285V51.9881H336.325C336.392 51.7081 336.519 51.4348 336.705 51.1681C336.905 50.9015 337.139 50.6615 337.405 50.4481C337.685 50.2215 337.992 50.0415 338.325 49.9081C338.659 49.7748 338.999 49.7081 339.345 49.7081C339.612 49.7081 339.792 49.7148 339.885 49.7281C339.992 49.7415 340.099 49.7548 340.205 49.7681V51.9681C340.045 51.9415 339.879 51.9215 339.705 51.9081C339.545 51.8815 339.385 51.8681 339.225 51.8681C338.839 51.8681 338.472 51.9481 338.125 52.1081C337.792 52.2548 337.499 52.4815 337.245 52.7881C336.992 53.0815 336.792 53.4481 336.645 53.8881C336.499 54.3281 336.425 54.8348 336.425 55.4081V60.3281H334.145V49.9881ZM340.137 49.9881H341.857V46.8881H344.137V49.9881H346.197V51.6881H344.137V57.2081C344.137 57.4481 344.143 57.6548 344.157 57.8281C344.183 58.0015 344.23 58.1481 344.297 58.2681C344.377 58.3881 344.49 58.4815 344.637 58.5481C344.783 58.6015 344.983 58.6281 345.237 58.6281C345.397 58.6281 345.557 58.6281 345.717 58.6281C345.877 58.6148 346.037 58.5881 346.197 58.5481V60.3081C345.943 60.3348 345.697 60.3615 345.457 60.3881C345.217 60.4148 344.97 60.4281 344.717 60.4281C344.117 60.4281 343.63 60.3748 343.257 60.2681C342.897 60.1481 342.61 59.9815 342.397 59.7681C342.197 59.5415 342.057 59.2615 341.977 58.9281C341.91 58.5948 341.87 58.2148 341.857 57.7881V51.6881H340.137V49.9881Z" fill="#1A0803"/>
<defs>
<filter id="filter0_d_469_11081" x="0.328125" y="0.328125" width="165.672" height="85" filterUnits="userSpaceOnUse" color-interpolation-filters="sRGB">
<feFlood flood-opacity="0" result="BackgroundImageFix"/>
<feColorMatrix in="SourceAlpha" type="matrix" values="0 0 0 0 0 0 0 0 0 0 0 0 0 0 0 0 0 0 127 0" result="hardAlpha"/>
<feOffset dx="1" dy="1"/>
<feComposite in2="hardAlpha" operator="out"/>
<feColorMatrix type="matrix" values="0 0 0 0 0 0 0 0 0 0 0 0 0 0 0 0 0 0 1 0"/>
<feBlend mode="normal" in2="BackgroundImageFix" result="effect1_dropShadow_469_11081"/>
<feBlend mode="normal" in="SourceGraphic" in2="effect1_dropShadow_469_11081" result="shape"/>
</filter>
</defs>
</svg>
