<svg width="347" height="86" viewBox="0 0 347 86" fill="none" xmlns="http://www.w3.org/2000/svg">
<g filter="url(#filter0_d_469_11045)">
<rect x="1.32812" y="1.32812" width="162.672" height="82" rx="5" fill="#C493DD" shape-rendering="crispEdges"/>
<rect x="0.828125" y="0.828125" width="163.672" height="83" rx="5.5" stroke="black" shape-rendering="crispEdges"/>
<rect x="0.828125" y="0.828125" width="163.672" height="83" rx="5.5" stroke="black" stroke-opacity="0.2" shape-rendering="crispEdges"/>
<path d="M103.82 39.1673C107.945 39.1673 111.29 35.8264 111.29 31.7051C111.29 27.5839 107.945 24.2429 103.82 24.2429C99.6941 24.2429 96.3496 27.5839 96.3496 31.7051C96.3496 35.8264 99.6941 39.1673 103.82 39.1673Z" fill="#0D0D0C"/>
<path fill-rule="evenodd" clip-rule="evenodd" d="M108.454 36.1576C108.454 52.4833 95.2057 65.7175 78.8626 65.7175C62.5196 65.7175 49.2712 52.4833 49.2712 36.1576C49.2712 19.8319 62.5196 6.59766 78.8626 6.59766C95.2057 6.59766 108.454 19.8319 108.454 36.1576Z" fill="#0D0D0C"/>
<path fill-rule="evenodd" clip-rule="evenodd" d="M114.989 45.0371C114.989 49.5214 111.35 53.1565 106.861 53.1565C102.372 53.1565 98.7332 49.5214 98.7332 45.0371C98.7332 40.5529 102.372 36.9177 106.861 36.9177C111.35 36.9177 114.989 40.5529 114.989 45.0371Z" fill="#D6B3E7"/>
<path fill-rule="evenodd" clip-rule="evenodd" d="M106.861 37.9836C102.968 37.9836 99.8003 41.1476 99.8003 45.037C99.8003 48.9264 102.968 52.0904 106.861 52.0904C110.755 52.0904 113.922 48.9264 113.922 45.037C113.922 41.1476 110.755 37.9836 106.861 37.9836ZM106.861 54.2224C101.791 54.2224 97.666 50.1017 97.666 45.037C97.666 39.9723 101.791 35.8516 106.861 35.8516C111.931 35.8516 116.056 39.9723 116.056 45.037C116.056 50.1017 111.931 54.2224 106.861 54.2224Z" fill="#0D0D0C"/>
<path fill-rule="evenodd" clip-rule="evenodd" d="M85.7827 70.3163C76.4626 70.3163 68.0523 64.7943 64.3562 56.249L64.0088 55.4468C58.9072 43.6507 64.3636 29.9074 76.1723 24.8108C79.1198 23.539 82.229 22.894 85.414 22.894C94.7341 22.894 103.145 28.4161 106.841 36.9614L107.188 37.7635C112.289 49.5597 106.833 63.3029 95.0243 68.3996C92.0774 69.6714 88.9676 70.3163 85.7827 70.3163Z" fill="#D6B3E7"/>
<path fill-rule="evenodd" clip-rule="evenodd" d="M85.4149 21.8281C82.0832 21.8281 78.831 22.5029 75.7491 23.8328C69.7671 26.4142 65.15 31.1687 62.7473 37.2194C60.3446 43.2708 60.4449 49.894 63.0295 55.8696L63.3764 56.6718C67.2411 65.6083 76.0361 71.3825 85.7831 71.3825C89.1142 71.3825 92.3659 70.7082 95.4478 69.3778C101.43 66.7964 106.047 62.0419 108.45 55.9911C110.852 49.9398 110.752 43.3166 108.167 37.341L107.821 36.5388C103.956 27.6023 95.1608 21.8281 85.4149 21.8281ZM85.4144 23.9602C94.028 23.9602 102.228 28.9833 105.861 37.3847L106.208 38.1863C111.084 49.4612 105.888 62.5499 94.6016 67.4211C91.725 68.6625 88.7295 69.2504 85.7831 69.2504C77.1695 69.2504 68.9688 64.2273 65.3357 55.8264L64.9888 55.0243C60.1124 43.7494 65.309 30.6607 76.5959 25.79C79.4724 24.5481 82.4679 23.9602 85.4144 23.9602Z" fill="#0D0D0C"/>
<path fill-rule="evenodd" clip-rule="evenodd" d="M63.8019 53.1563C59.3129 53.1563 55.6738 49.5211 55.6738 45.0369C55.6738 40.5526 59.3129 36.9175 63.8019 36.9175C64.3632 36.9175 64.9107 36.9745 65.44 37.0827" fill="#D6B3E7"/>
<path fill-rule="evenodd" clip-rule="evenodd" d="M63.8019 54.2224C58.7318 54.2224 54.6067 50.1017 54.6067 45.037C54.6067 39.9723 58.7318 35.8516 63.8019 35.8516C64.4246 35.8516 65.0478 35.9145 65.654 36.0381C66.2313 36.1564 66.6037 36.7193 66.4853 37.2966C66.3674 37.8733 65.8034 38.2448 65.226 38.127C64.7608 38.0321 64.2816 37.9836 63.8019 37.9836C59.9084 37.9836 56.741 41.1476 56.741 45.037C56.741 48.9264 59.9084 52.0904 63.8019 52.0904C64.3915 52.0904 64.8691 52.568 64.8691 53.1564C64.8691 53.7449 64.3915 54.2224 63.8019 54.2224Z" fill="#0D0D0C"/>
<path d="M69.1369 38.6344C73.2625 38.6344 76.607 35.2934 76.607 31.1722C76.607 27.0509 73.2625 23.71 69.1369 23.71C65.0112 23.71 61.6667 27.0509 61.6667 31.1722C61.6667 35.2934 65.0112 38.6344 69.1369 38.6344Z" fill="#0D0D0C"/>
<path fill-rule="evenodd" clip-rule="evenodd" d="M114.822 32.3349H87.396C77.402 32.3349 69.3 24.2416 69.3 14.2577C69.3 12.1187 77.2894 10.3843 79.4312 10.3843H96.7256C106.72 10.3843 114.822 18.4776 114.822 28.4615V32.3349Z" fill="#0D0D0C"/>
<path fill-rule="evenodd" clip-rule="evenodd" d="M88.9579 54.0873H92.9923C94.1048 54.0873 94.9287 52.4718 94.68 50.7773L92.9811 39.1901C92.5868 36.501 90.1723 36.3507 89.6419 38.9817L87.3064 50.5689C86.9553 52.3124 87.7883 54.0873 88.9579 54.0873Z" fill="#8957A2"/>
<path fill-rule="evenodd" clip-rule="evenodd" d="M107.539 35.3647C109.172 35.3647 110.503 36.6587 110.564 38.2784L110.566 38.3946V51.793C110.566 52.0276 110.54 52.2562 110.491 52.4761L110.436 52.8931C109.747 57.8698 105.803 78.0587 87.1911 78.0587C67.6604 78.0587 64.282 56.6527 63.8665 53.229C63.8336 53.0815 63.8167 52.9275 63.8167 52.7695V38.3946C63.8167 36.721 65.1715 35.3647 66.8434 35.3647C68.5148 35.3647 69.8702 36.721 69.8702 38.3946L69.8702 50.4171C69.8702 53.1709 71.7611 57.0396 74.7274 60.4863C74.3077 57.2413 74.3644 53.7318 75.9144 51.5681C76.9272 50.1537 78.4622 49.4065 80.3525 49.4065C83.6366 49.4065 85.6054 50.18 87.1445 50.9119L88.2483 51.4477C89.8664 52.216 91.0397 52.5129 94.2692 51.0304L94.4655 50.9393C98.1705 49.2017 100.419 48.9393 101.986 50.0635C104.012 51.517 103.8 54.465 103.353 58.5364C104.48 55.9662 104.599 53.7035 104.568 52.5679C104.541 52.4297 104.523 52.2879 104.516 52.1433L104.513 51.9978V38.3946C104.513 36.721 105.868 35.3647 107.539 35.3647ZM96 53.7541L95.822 53.8369C91.0796 56.0619 88.989 55.3771 86.3405 54.0779L86.0793 53.9502C84.6806 53.2693 83.1636 52.6065 80.3525 52.6065C79.2464 52.6065 78.7882 53.0475 78.5122 53.4321C77.1022 55.3993 77.7286 60.3464 78.7173 64.2955C80.2253 65.4676 81.8588 66.4676 83.5621 67.1906L87.1098 63.6391C88.194 62.5538 89.9527 62.5538 91.0369 63.6391L94.5718 67.1777C96.6686 66.1285 98.3303 64.9444 99.6461 63.7104C99.7308 62.3297 99.8641 61.0094 99.9981 59.7829L100.226 57.7016C100.439 55.6575 100.629 53.1621 100.161 52.6959L100.117 52.6599C100.035 52.6161 99.2198 52.2697 96 53.7541Z" fill="#0D0D0C"/>
<path fill-rule="evenodd" clip-rule="evenodd" d="M83.853 56.1168C83.9826 56.2937 84.0589 56.5122 84.0589 56.7484C84.0589 56.4925 83.9746 56.2803 83.853 56.1168ZM86.9581 57.9428C82.6802 57.9428 82.5175 57.7824 82.2487 57.5179C82.0445 57.317 81.9255 57.0354 81.9255 56.7484C81.9255 56.1579 82.4034 55.6797 82.9922 55.6797C83.1138 55.6797 83.2301 55.7 83.3389 55.7374C84.3991 55.8427 90.9965 55.7882 96.8589 55.6797C97.4482 55.6674 97.9341 56.1387 97.9447 56.7287C97.9559 57.3186 97.4871 57.806 96.8978 57.8166C92.2247 57.9032 89.0834 57.9428 86.9581 57.9428Z" fill="#0D0D0C"/>
<path fill-rule="evenodd" clip-rule="evenodd" d="M85.5594 40.1343H78.1919C77.6031 40.1343 77.1252 39.6561 77.1252 39.0656C77.1252 38.4751 77.6031 37.9968 78.1919 37.9968H85.5594C86.1487 37.9968 86.626 38.4751 86.626 39.0656C86.626 39.6561 86.1487 40.1343 85.5594 40.1343Z" fill="#0D0D0C"/>
<path fill-rule="evenodd" clip-rule="evenodd" d="M102.544 40.1346H95.1763C94.5875 40.1346 94.1096 39.6563 94.1096 39.0658C94.1096 38.4753 94.5875 37.9971 95.1763 37.9971H102.544C103.133 37.9971 103.61 38.4753 103.61 39.0658C103.61 39.6563 103.133 40.1346 102.544 40.1346Z" fill="#0D0D0C"/>
<path fill-rule="evenodd" clip-rule="evenodd" d="M101.266 29.5305C106.254 29.5305 110.312 33.5887 110.312 38.5769C110.312 43.5657 106.254 47.6239 101.266 47.6239C96.2773 47.6239 92.2191 43.5657 92.2191 38.5769C92.2191 38.2751 92.234 37.9766 92.263 37.6823C91.6216 37.2213 91.0142 37.3942 90.6117 37.6268C90.6452 37.9391 90.662 38.2561 90.662 38.5769C90.662 43.5657 86.6039 47.6239 81.6156 47.6239C76.6352 47.6239 72.582 43.5785 72.5692 38.6005L66.4922 38.6005C65.9029 38.6005 65.4255 38.1232 65.4255 37.5339C65.4255 36.9445 65.9029 36.4672 66.4922 36.4672L72.8175 36.4673C73.7704 32.4932 77.3535 29.5305 81.6156 29.5305C85.5284 29.5305 88.8689 32.0274 90.1275 35.5116C90.9074 35.2161 91.8329 35.1364 92.7511 35.5184C94.0075 32.031 97.3499 29.5305 101.266 29.5305ZM81.6156 31.6639C77.8039 31.6639 74.7026 34.7652 74.7026 38.5769C74.7026 42.3892 77.8039 45.4905 81.6156 45.4905C85.4279 45.4905 88.5287 42.3892 88.5287 38.5769C88.5287 34.7652 85.4279 31.6639 81.6156 31.6639ZM101.266 31.6639C97.4538 31.6639 94.3525 34.7652 94.3525 38.5769C94.3525 42.3892 97.4538 45.4905 101.266 45.4905C105.077 45.4905 108.179 42.3892 108.179 38.5769C108.179 34.7652 105.077 31.6639 101.266 31.6639Z" fill="#8957A2"/>
</g>
<path d="M185.52 26.0481H195.8V28.2081H188.02V31.9481H195.22V33.9881H188.02V38.1681H195.94V40.3281H185.52V26.0481ZM197.858 26.0481H200.138V40.3281H197.858V26.0481ZM209.722 34.2481C209.695 33.8881 209.615 33.5415 209.482 33.2081C209.362 32.8748 209.189 32.5881 208.962 32.3481C208.749 32.0948 208.482 31.8948 208.162 31.7481C207.855 31.5881 207.509 31.5081 207.122 31.5081C206.722 31.5081 206.355 31.5815 206.022 31.7281C205.702 31.8615 205.422 32.0548 205.182 32.3081C204.955 32.5481 204.769 32.8348 204.622 33.1681C204.489 33.5015 204.415 33.8615 204.402 34.2481H209.722ZM204.402 35.7481C204.402 36.1481 204.455 36.5348 204.562 36.9081C204.682 37.2815 204.855 37.6081 205.082 37.8881C205.309 38.1681 205.595 38.3948 205.942 38.5681C206.289 38.7281 206.702 38.8081 207.182 38.8081C207.849 38.8081 208.382 38.6681 208.782 38.3881C209.195 38.0948 209.502 37.6615 209.702 37.0881H211.862C211.742 37.6481 211.535 38.1481 211.242 38.5881C210.949 39.0281 210.595 39.4015 210.182 39.7081C209.769 40.0015 209.302 40.2215 208.782 40.3681C208.275 40.5281 207.742 40.6081 207.182 40.6081C206.369 40.6081 205.649 40.4748 205.022 40.2081C204.395 39.9415 203.862 39.5681 203.422 39.0881C202.995 38.6081 202.669 38.0348 202.442 37.3681C202.229 36.7015 202.122 35.9681 202.122 35.1681C202.122 34.4348 202.235 33.7415 202.462 33.0881C202.702 32.4215 203.035 31.8415 203.462 31.3481C203.902 30.8415 204.429 30.4415 205.042 30.1481C205.655 29.8548 206.349 29.7081 207.122 29.7081C207.935 29.7081 208.662 29.8815 209.302 30.2281C209.955 30.5615 210.495 31.0081 210.922 31.5681C211.349 32.1281 211.655 32.7748 211.842 33.5081C212.042 34.2281 212.095 34.9748 212.002 35.7481H204.402ZM220.715 33.4481C220.622 32.8081 220.362 32.3281 219.935 32.0081C219.522 31.6748 218.995 31.5081 218.355 31.5081C218.062 31.5081 217.748 31.5615 217.415 31.6681C217.082 31.7615 216.775 31.9481 216.495 32.2281C216.215 32.4948 215.982 32.8748 215.795 33.3681C215.608 33.8481 215.515 34.4815 215.515 35.2681C215.515 35.6948 215.562 36.1215 215.655 36.5481C215.762 36.9748 215.922 37.3548 216.135 37.6881C216.362 38.0215 216.648 38.2948 216.995 38.5081C217.342 38.7081 217.762 38.8081 218.255 38.8081C218.922 38.8081 219.468 38.6015 219.895 38.1881C220.335 37.7748 220.608 37.1948 220.715 36.4481H222.995C222.782 37.7948 222.268 38.8281 221.455 39.5481C220.655 40.2548 219.588 40.6081 218.255 40.6081C217.442 40.6081 216.722 40.4748 216.095 40.2081C215.482 39.9281 214.962 39.5548 214.535 39.0881C214.108 38.6081 213.782 38.0415 213.555 37.3881C213.342 36.7348 213.235 36.0281 213.235 35.2681C213.235 34.4948 213.342 33.7681 213.555 33.0881C213.768 32.4081 214.088 31.8215 214.515 31.3281C214.942 30.8215 215.468 30.4281 216.095 30.1481C216.735 29.8548 217.482 29.7081 218.335 29.7081C218.935 29.7081 219.502 29.7881 220.035 29.9481C220.582 30.0948 221.062 30.3215 221.475 30.6281C221.902 30.9348 222.248 31.3215 222.515 31.7881C222.782 32.2548 222.942 32.8081 222.995 33.4481H220.715ZM223.808 29.9881H225.528V26.8881H227.808V29.9881H229.868V31.6881H227.808V37.2081C227.808 37.4481 227.815 37.6548 227.828 37.8281C227.855 38.0015 227.902 38.1481 227.968 38.2681C228.048 38.3881 228.162 38.4815 228.308 38.5481C228.455 38.6015 228.655 38.6281 228.908 38.6281C229.068 38.6281 229.228 38.6281 229.388 38.6281C229.548 38.6148 229.708 38.5881 229.868 38.5481V40.3081C229.615 40.3348 229.368 40.3615 229.128 40.3881C228.888 40.4148 228.642 40.4281 228.388 40.4281C227.788 40.4281 227.302 40.3748 226.928 40.2681C226.568 40.1481 226.282 39.9815 226.068 39.7681C225.868 39.5415 225.728 39.2615 225.648 38.9281C225.582 38.5948 225.542 38.2148 225.528 37.7881V31.6881H223.808V29.9881ZM231.509 29.9881H233.649V31.9881H233.689C233.755 31.7081 233.882 31.4348 234.069 31.1681C234.269 30.9015 234.502 30.6615 234.769 30.4481C235.049 30.2215 235.355 30.0415 235.689 29.9081C236.022 29.7748 236.362 29.7081 236.709 29.7081C236.975 29.7081 237.155 29.7148 237.249 29.7281C237.355 29.7415 237.462 29.7548 237.569 29.7681V31.9681C237.409 31.9415 237.242 31.9215 237.069 31.9081C236.909 31.8815 236.749 31.8681 236.589 31.8681C236.202 31.8681 235.835 31.9481 235.489 32.1081C235.155 32.2548 234.862 32.4815 234.609 32.7881C234.355 33.0815 234.155 33.4481 234.009 33.8881C233.862 34.3281 233.789 34.8348 233.789 35.4081V40.3281H231.509V29.9881ZM238.6 26.0481H240.88V28.2081H238.6V26.0481ZM238.6 29.9881H240.88V40.3281H238.6V29.9881ZM249.724 26.0481H252.004V28.2081H249.724V26.0481ZM242.344 29.9881H244.044V29.1281C244.044 28.4748 244.124 27.9481 244.284 27.5481C244.444 27.1348 244.657 26.8215 244.924 26.6081C245.191 26.3815 245.491 26.2348 245.824 26.1681C246.171 26.0881 246.531 26.0481 246.904 26.0481C247.637 26.0481 248.171 26.0948 248.504 26.1881V27.9681C248.357 27.9281 248.197 27.9015 248.024 27.8881C247.864 27.8615 247.671 27.8481 247.444 27.8481C247.137 27.8481 246.871 27.9215 246.644 28.0681C246.431 28.2148 246.324 28.5015 246.324 28.9281V29.9881H248.264V31.6881H246.324V40.3281H244.044V31.6881H242.344V29.9881ZM249.724 29.9881H252.004V40.3281H249.724V29.9881ZM261.457 33.4481C261.364 32.8081 261.104 32.3281 260.677 32.0081C260.264 31.6748 259.737 31.5081 259.097 31.5081C258.804 31.5081 258.491 31.5615 258.157 31.6681C257.824 31.7615 257.517 31.9481 257.237 32.2281C256.957 32.4948 256.724 32.8748 256.537 33.3681C256.351 33.8481 256.257 34.4815 256.257 35.2681C256.257 35.6948 256.304 36.1215 256.397 36.5481C256.504 36.9748 256.664 37.3548 256.877 37.6881C257.104 38.0215 257.391 38.2948 257.737 38.5081C258.084 38.7081 258.504 38.8081 258.997 38.8081C259.664 38.8081 260.211 38.6015 260.637 38.1881C261.077 37.7748 261.351 37.1948 261.457 36.4481H263.737C263.524 37.7948 263.011 38.8281 262.197 39.5481C261.397 40.2548 260.331 40.6081 258.997 40.6081C258.184 40.6081 257.464 40.4748 256.837 40.2081C256.224 39.9281 255.704 39.5548 255.277 39.0881C254.851 38.6081 254.524 38.0415 254.297 37.3881C254.084 36.7348 253.977 36.0281 253.977 35.2681C253.977 34.4948 254.084 33.7681 254.297 33.0881C254.511 32.4081 254.831 31.8215 255.257 31.3281C255.684 30.8215 256.211 30.4281 256.837 30.1481C257.477 29.8548 258.224 29.7081 259.077 29.7081C259.677 29.7081 260.244 29.7881 260.777 29.9481C261.324 30.0948 261.804 30.3215 262.217 30.6281C262.644 30.9348 262.991 31.3215 263.257 31.7881C263.524 32.2548 263.684 32.8081 263.737 33.4481H261.457ZM274.251 38.0281C274.251 38.3081 274.284 38.5081 274.351 38.6281C274.431 38.7481 274.577 38.8081 274.791 38.8081C274.857 38.8081 274.937 38.8081 275.031 38.8081C275.124 38.8081 275.231 38.7948 275.351 38.7681V40.3481C275.271 40.3748 275.164 40.4015 275.031 40.4281C274.911 40.4681 274.784 40.5015 274.651 40.5281C274.517 40.5548 274.384 40.5748 274.251 40.5881C274.117 40.6015 274.004 40.6081 273.911 40.6081C273.444 40.6081 273.057 40.5148 272.751 40.3281C272.444 40.1415 272.244 39.8148 272.151 39.3481C271.697 39.7881 271.137 40.1081 270.471 40.3081C269.817 40.5081 269.184 40.6081 268.571 40.6081C268.104 40.6081 267.657 40.5415 267.231 40.4081C266.804 40.2881 266.424 40.1081 266.091 39.8681C265.771 39.6148 265.511 39.3015 265.311 38.9281C265.124 38.5415 265.031 38.0948 265.031 37.5881C265.031 36.9481 265.144 36.4281 265.371 36.0281C265.611 35.6281 265.917 35.3148 266.291 35.0881C266.677 34.8615 267.104 34.7015 267.571 34.6081C268.051 34.5015 268.531 34.4215 269.011 34.3681C269.424 34.2881 269.817 34.2348 270.191 34.2081C270.564 34.1681 270.891 34.1081 271.171 34.0281C271.464 33.9481 271.691 33.8281 271.851 33.6681C272.024 33.4948 272.111 33.2415 272.111 32.9081C272.111 32.6148 272.037 32.3748 271.891 32.1881C271.757 32.0015 271.584 31.8615 271.371 31.7681C271.171 31.6615 270.944 31.5948 270.691 31.5681C270.437 31.5281 270.197 31.5081 269.971 31.5081C269.331 31.5081 268.804 31.6415 268.391 31.9081C267.977 32.1748 267.744 32.5881 267.691 33.1481H265.411C265.451 32.4815 265.611 31.9281 265.891 31.4881C266.171 31.0481 266.524 30.6948 266.951 30.4281C267.391 30.1615 267.884 29.9748 268.431 29.8681C268.977 29.7615 269.537 29.7081 270.111 29.7081C270.617 29.7081 271.117 29.7615 271.611 29.8681C272.104 29.9748 272.544 30.1481 272.931 30.3881C273.331 30.6281 273.651 30.9415 273.891 31.3281C274.131 31.7015 274.251 32.1615 274.251 32.7081V38.0281ZM271.971 35.1481C271.624 35.3748 271.197 35.5148 270.691 35.5681C270.184 35.6081 269.677 35.6748 269.171 35.7681C268.931 35.8081 268.697 35.8681 268.471 35.9481C268.244 36.0148 268.044 36.1148 267.871 36.2481C267.697 36.3681 267.557 36.5348 267.451 36.7481C267.357 36.9481 267.311 37.1948 267.311 37.4881C267.311 37.7415 267.384 37.9548 267.531 38.1281C267.677 38.3015 267.851 38.4415 268.051 38.5481C268.264 38.6415 268.491 38.7081 268.731 38.7481C268.984 38.7881 269.211 38.8081 269.411 38.8081C269.664 38.8081 269.937 38.7748 270.231 38.7081C270.524 38.6415 270.797 38.5281 271.051 38.3681C271.317 38.2081 271.537 38.0081 271.711 37.7681C271.884 37.5148 271.971 37.2081 271.971 36.8481V35.1481ZM275.664 29.9881H277.384V26.8881H279.664V29.9881H281.724V31.6881H279.664V37.2081C279.664 37.4481 279.671 37.6548 279.684 37.8281C279.711 38.0015 279.757 38.1481 279.824 38.2681C279.904 38.3881 280.017 38.4815 280.164 38.5481C280.311 38.6015 280.511 38.6281 280.764 38.6281C280.924 38.6281 281.084 38.6281 281.244 38.6281C281.404 38.6148 281.564 38.5881 281.724 38.5481V40.3081C281.471 40.3348 281.224 40.3615 280.984 40.3881C280.744 40.4148 280.497 40.4281 280.244 40.4281C279.644 40.4281 279.157 40.3748 278.784 40.2681C278.424 40.1481 278.137 39.9815 277.924 39.7681C277.724 39.5415 277.584 39.2615 277.504 38.9281C277.437 38.5948 277.397 38.2148 277.384 37.7881V31.6881H275.664V29.9881ZM283.424 26.0481H285.704V28.2081H283.424V26.0481ZM283.424 29.9881H285.704V40.3281H283.424V29.9881ZM292.928 40.6081C292.102 40.6081 291.362 40.4748 290.708 40.2081C290.068 39.9281 289.522 39.5481 289.068 39.0681C288.628 38.5881 288.288 38.0148 288.048 37.3481C287.822 36.6815 287.708 35.9481 287.708 35.1481C287.708 34.3615 287.822 33.6348 288.048 32.9681C288.288 32.3015 288.628 31.7281 289.068 31.2481C289.522 30.7681 290.068 30.3948 290.708 30.1281C291.362 29.8481 292.102 29.7081 292.928 29.7081C293.755 29.7081 294.488 29.8481 295.128 30.1281C295.782 30.3948 296.328 30.7681 296.768 31.2481C297.222 31.7281 297.562 32.3015 297.788 32.9681C298.028 33.6348 298.148 34.3615 298.148 35.1481C298.148 35.9481 298.028 36.6815 297.788 37.3481C297.562 38.0148 297.222 38.5881 296.768 39.0681C296.328 39.5481 295.782 39.9281 295.128 40.2081C294.488 40.4748 293.755 40.6081 292.928 40.6081ZM292.928 38.8081C293.435 38.8081 293.875 38.7015 294.248 38.4881C294.622 38.2748 294.928 37.9948 295.168 37.6481C295.408 37.3015 295.582 36.9148 295.688 36.4881C295.808 36.0481 295.868 35.6015 295.868 35.1481C295.868 34.7081 295.808 34.2681 295.688 33.8281C295.582 33.3881 295.408 33.0015 295.168 32.6681C294.928 32.3215 294.622 32.0415 294.248 31.8281C293.875 31.6148 293.435 31.5081 292.928 31.5081C292.422 31.5081 291.982 31.6148 291.608 31.8281C291.235 32.0415 290.928 32.3215 290.688 32.6681C290.448 33.0015 290.268 33.3881 290.148 33.8281C290.042 34.2681 289.988 34.7081 289.988 35.1481C289.988 35.6015 290.042 36.0481 290.148 36.4881C290.268 36.9148 290.448 37.3015 290.688 37.6481C290.928 37.9948 291.235 38.2748 291.608 38.4881C291.982 38.7015 292.422 38.8081 292.928 38.8081ZM300.044 29.9881H302.204V31.5081L302.244 31.5481C302.59 30.9748 303.044 30.5281 303.604 30.2081C304.164 29.8748 304.784 29.7081 305.464 29.7081C306.597 29.7081 307.49 30.0015 308.144 30.5881C308.797 31.1748 309.124 32.0548 309.124 33.2281V40.3281H306.844V33.8281C306.817 33.0148 306.644 32.4281 306.324 32.0681C306.004 31.6948 305.504 31.5081 304.824 31.5081C304.437 31.5081 304.09 31.5815 303.784 31.7281C303.477 31.8615 303.217 32.0548 303.004 32.3081C302.79 32.5481 302.624 32.8348 302.504 33.1681C302.384 33.5015 302.324 33.8548 302.324 34.2281V40.3281H300.044V29.9881ZM185.52 46.0481H195.8V48.2081H188.02V51.9481H195.22V53.9881H188.02V58.1681H195.94V60.3281H185.52V46.0481ZM200.578 54.8881L196.998 49.9881H199.758L201.918 53.1681L204.178 49.9881H206.818L203.298 54.7681L207.258 60.3281H204.518L201.898 56.5081L199.358 60.3281H196.678L200.578 54.8881ZM208.6 49.9881H210.76V51.3881H210.8C211.12 50.7881 211.567 50.3615 212.14 50.1081C212.713 49.8415 213.333 49.7081 214 49.7081C214.813 49.7081 215.52 49.8548 216.12 50.1481C216.733 50.4281 217.24 50.8215 217.64 51.3281C218.04 51.8215 218.34 52.4015 218.54 53.0681C218.74 53.7348 218.84 54.4481 218.84 55.2081C218.84 55.9015 218.747 56.5748 218.56 57.2281C218.387 57.8815 218.113 58.4615 217.74 58.9681C217.38 59.4615 216.92 59.8615 216.36 60.1681C215.8 60.4615 215.14 60.6081 214.38 60.6081C214.047 60.6081 213.713 60.5748 213.38 60.5081C213.047 60.4548 212.727 60.3615 212.42 60.2281C212.113 60.0948 211.827 59.9281 211.56 59.7281C211.307 59.5148 211.093 59.2681 210.92 58.9881H210.88V64.1481H208.6V49.9881ZM216.56 55.1681C216.56 54.7015 216.5 54.2481 216.38 53.8081C216.26 53.3681 216.08 52.9815 215.84 52.6481C215.6 52.3015 215.3 52.0281 214.94 51.8281C214.58 51.6148 214.167 51.5081 213.7 51.5081C212.74 51.5081 212.013 51.8415 211.52 52.5081C211.04 53.1748 210.8 54.0615 210.8 55.1681C210.8 55.6881 210.86 56.1748 210.98 56.6281C211.113 57.0681 211.307 57.4481 211.56 57.7681C211.813 58.0881 212.113 58.3415 212.46 58.5281C212.82 58.7148 213.233 58.8081 213.7 58.8081C214.22 58.8081 214.66 58.7015 215.02 58.4881C215.38 58.2748 215.673 58.0015 215.9 57.6681C216.14 57.3215 216.307 56.9348 216.4 56.5081C216.507 56.0681 216.56 55.6215 216.56 55.1681ZM227.866 54.2481C227.84 53.8881 227.76 53.5415 227.626 53.2081C227.506 52.8748 227.333 52.5881 227.106 52.3481C226.893 52.0948 226.626 51.8948 226.306 51.7481C226 51.5881 225.653 51.5081 225.266 51.5081C224.866 51.5081 224.5 51.5815 224.166 51.7281C223.846 51.8615 223.566 52.0548 223.326 52.3081C223.1 52.5481 222.913 52.8348 222.766 53.1681C222.633 53.5015 222.56 53.8615 222.546 54.2481H227.866ZM222.546 55.7481C222.546 56.1481 222.6 56.5348 222.706 56.9081C222.826 57.2815 223 57.6081 223.226 57.8881C223.453 58.1681 223.74 58.3948 224.086 58.5681C224.433 58.7281 224.846 58.8081 225.326 58.8081C225.993 58.8081 226.526 58.6681 226.926 58.3881C227.34 58.0948 227.646 57.6615 227.846 57.0881H230.006C229.886 57.6481 229.68 58.1481 229.386 58.5881C229.093 59.0281 228.74 59.4015 228.326 59.7081C227.913 60.0015 227.446 60.2215 226.926 60.3681C226.42 60.5281 225.886 60.6081 225.326 60.6081C224.513 60.6081 223.793 60.4748 223.166 60.2081C222.54 59.9415 222.006 59.5681 221.566 59.0881C221.14 58.6081 220.813 58.0348 220.586 57.3681C220.373 56.7015 220.266 55.9681 220.266 55.1681C220.266 54.4348 220.38 53.7415 220.606 53.0881C220.846 52.4215 221.18 51.8415 221.606 51.3481C222.046 50.8415 222.573 50.4415 223.186 50.1481C223.8 49.8548 224.493 49.7081 225.266 49.7081C226.08 49.7081 226.806 49.8815 227.446 50.2281C228.1 50.5615 228.64 51.0081 229.066 51.5681C229.493 52.1281 229.8 52.7748 229.986 53.5081C230.186 54.2281 230.24 54.9748 230.146 55.7481H222.546ZM231.88 49.9881H234.02V51.9881H234.06C234.126 51.7081 234.253 51.4348 234.44 51.1681C234.64 50.9015 234.873 50.6615 235.14 50.4481C235.42 50.2215 235.726 50.0415 236.06 49.9081C236.393 49.7748 236.733 49.7081 237.08 49.7081C237.346 49.7081 237.526 49.7148 237.62 49.7281C237.726 49.7415 237.833 49.7548 237.94 49.7681V51.9681C237.78 51.9415 237.613 51.9215 237.44 51.9081C237.28 51.8815 237.12 51.8681 236.96 51.8681C236.573 51.8681 236.206 51.9481 235.86 52.1081C235.526 52.2548 235.233 52.4815 234.98 52.7881C234.726 53.0815 234.526 53.4481 234.38 53.8881C234.233 54.3281 234.16 54.8348 234.16 55.4081V60.3281H231.88V49.9881ZM237.871 49.9881H239.591V46.8881H241.871V49.9881H243.931V51.6881H241.871V57.2081C241.871 57.4481 241.878 57.6548 241.891 57.8281C241.918 58.0015 241.964 58.1481 242.031 58.2681C242.111 58.3881 242.224 58.4815 242.371 58.5481C242.518 58.6015 242.718 58.6281 242.971 58.6281C243.131 58.6281 243.291 58.6281 243.451 58.6281C243.611 58.6148 243.771 58.5881 243.931 58.5481V60.3081C243.678 60.3348 243.431 60.3615 243.191 60.3881C242.951 60.4148 242.704 60.4281 242.451 60.4281C241.851 60.4281 241.364 60.3748 240.991 60.2681C240.631 60.1481 240.344 59.9815 240.131 59.7681C239.931 59.5415 239.791 59.2615 239.711 58.9281C239.644 58.5948 239.604 58.2148 239.591 57.7881V51.6881H237.871V49.9881Z" fill="#1A0803"/>
<defs>
<filter id="filter0_d_469_11045" x="0.328125" y="0.328125" width="165.672" height="85" filterUnits="userSpaceOnUse" color-interpolation-filters="sRGB">
<feFlood flood-opacity="0" result="BackgroundImageFix"/>
<feColorMatrix in="SourceAlpha" type="matrix" values="0 0 0 0 0 0 0 0 0 0 0 0 0 0 0 0 0 0 127 0" result="hardAlpha"/>
<feOffset dx="1" dy="1"/>
<feComposite in2="hardAlpha" operator="out"/>
<feColorMatrix type="matrix" values="0 0 0 0 0 0 0 0 0 0 0 0 0 0 0 0 0 0 1 0"/>
<feBlend mode="normal" in2="BackgroundImageFix" result="effect1_dropShadow_469_11045"/>
<feBlend mode="normal" in="SourceGraphic" in2="effect1_dropShadow_469_11045" result="shape"/>
</filter>
</defs>
</svg>
