<svg width="347" height="86" viewBox="0 0 347 86" fill="none" xmlns="http://www.w3.org/2000/svg">
<g filter="url(#filter0_d_469_11184)">
<rect x="1.32812" y="1.32812" width="162.672" height="82" rx="5" fill="#C493DD" shape-rendering="crispEdges"/>
<rect x="0.828125" y="0.828125" width="163.672" height="83" rx="5.5" stroke="black" shape-rendering="crispEdges"/>
<rect x="0.828125" y="0.828125" width="163.672" height="83" rx="5.5" stroke="black" stroke-opacity="0.2" shape-rendering="crispEdges"/>
<path fill-rule="evenodd" clip-rule="evenodd" d="M116.305 36.7508C116.305 53.6661 100.66 67.379 81.3611 67.379C62.0621 67.379 46.4175 53.6661 46.4175 36.7508C46.4175 19.8354 62.0621 6.12256 81.3611 6.12256C100.66 6.12256 116.305 19.8354 116.305 36.7508Z" fill="#0D0D0C"/>
<path fill-rule="evenodd" clip-rule="evenodd" d="M116.305 78.5338H67.5315C55.8706 78.5338 46.4175 69.0857 46.4175 57.4305V36.7507H116.305V78.5338Z" fill="#0D0D0C"/>
<path fill-rule="evenodd" clip-rule="evenodd" d="M117.873 47.9466C117.873 52.3082 114.335 55.844 109.971 55.844C105.607 55.844 102.069 52.3082 102.069 47.9466C102.069 43.5849 105.607 40.0491 109.971 40.0491C114.335 40.0491 117.873 43.5849 117.873 47.9466Z" fill="#D6B3E7"/>
<path fill-rule="evenodd" clip-rule="evenodd" d="M109.971 41.0867C106.186 41.0867 103.107 44.1642 103.107 47.9473C103.107 51.7304 106.186 54.8079 109.971 54.8079C113.756 54.8079 116.835 51.7304 116.835 47.9473C116.835 44.1642 113.756 41.0867 109.971 41.0867ZM109.971 56.8817C105.042 56.8817 101.032 52.8736 101.032 47.9473C101.032 43.021 105.042 39.0129 109.971 39.0129C114.9 39.0129 118.91 43.021 118.91 47.9473C118.91 52.8736 114.9 56.8817 109.971 56.8817Z" fill="#0D0D0C"/>
<path fill-rule="evenodd" clip-rule="evenodd" d="M89.4797 72.5355C80.4187 72.5355 72.2426 67.1649 68.6494 58.8527L68.3123 58.0724C63.3523 46.5987 68.6567 33.2311 80.1365 28.2738C83.0024 27.0367 86.025 26.4094 89.1213 26.4094C98.1817 26.4094 106.358 31.7805 109.951 40.0922L110.288 40.8725C112.691 46.4307 112.784 52.5914 110.551 58.2192C108.318 63.8474 104.025 68.2697 98.4639 70.6712C95.5985 71.9082 92.5759 72.5355 89.4797 72.5355Z" fill="#D6B3E7"/>
<path fill-rule="evenodd" clip-rule="evenodd" d="M89.1216 25.3723C85.8827 25.3723 82.7211 26.0287 79.725 27.3222C73.9096 29.833 69.4211 34.4576 67.0853 40.3429C64.75 46.2289 64.847 52.6711 67.3597 58.4834L67.6969 59.2636C71.4545 67.9559 80.0046 73.5722 89.4795 73.5722C92.7179 73.5722 95.879 72.9164 98.8751 71.6223C104.69 69.1115 109.179 64.4869 111.515 58.6016C113.851 52.7156 113.753 46.2734 111.24 40.4612L110.903 39.6809C107.146 30.9886 98.596 25.3723 89.1216 25.3723ZM89.1211 27.4461C97.4948 27.4461 105.466 32.3319 108.998 40.5037L109.336 41.2834C114.076 52.2501 109.024 64.981 98.0524 69.7191C95.256 70.9266 92.3439 71.4984 89.4795 71.4984C81.1058 71.4984 73.1341 66.6126 69.6016 58.4414L69.2645 57.6611C64.5239 46.6944 69.5757 33.9635 80.5482 29.2259C83.3446 28.0179 86.2567 27.4461 89.1211 27.4461Z" fill="#0D0D0C"/>
<path fill-rule="evenodd" clip-rule="evenodd" d="M68.2369 55.844C63.8729 55.844 60.3352 52.3082 60.3352 47.9466C60.3352 43.5849 63.8729 40.0491 68.2369 40.0491C68.7826 40.0491 69.3148 40.1045 69.8293 40.2098" fill="#D6B3E7"/>
<path fill-rule="evenodd" clip-rule="evenodd" d="M68.237 56.8817C63.3081 56.8817 59.2979 52.8736 59.2979 47.9473C59.2979 43.021 63.3081 39.0129 68.237 39.0129C68.8423 39.0129 69.4482 39.0741 70.0374 39.1944C70.5987 39.3095 70.9608 39.857 70.8456 40.4184C70.731 40.9794 70.1827 41.3408 69.6214 41.2262C69.1691 41.1339 68.7033 41.0867 68.237 41.0867C64.4519 41.0867 61.3727 44.1642 61.3727 47.9473C61.3727 51.7304 64.4519 54.8079 68.237 54.8079C68.8101 54.8079 69.2744 55.2724 69.2744 55.8448C69.2744 56.4172 68.8101 56.8817 68.237 56.8817Z" fill="#0D0D0C"/>
<path d="M76.5029 42.6727C85.3839 42.6727 92.5833 35.4771 92.5833 26.6009C92.5833 17.7246 85.3839 10.5291 76.5029 10.5291C67.622 10.5291 60.4226 17.7246 60.4226 26.6009C60.4226 35.4771 67.622 42.6727 76.5029 42.6727Z" fill="#0D0D0C"/>
<path fill-rule="evenodd" clip-rule="evenodd" d="M91.4231 25.3721C96.0863 35.8482 102.651 41.0862 111.117 41.0862C119.582 41.0862 113.018 35.8482 91.4231 25.3721Z" fill="#0D0D0C"/>
<path fill-rule="evenodd" clip-rule="evenodd" d="M92.6596 56.9249H96.5817C97.6632 56.9249 98.4641 55.3535 98.2224 53.7054L96.5708 42.4349C96.1874 39.8193 93.8402 39.6731 93.3246 42.2322L91.0542 53.5027C90.7129 55.1985 91.5226 56.9249 92.6596 56.9249Z" fill="#8957A2"/>
<path fill-rule="evenodd" clip-rule="evenodd" d="M93.6096 62.8305C90.8995 62.8305 88.19 61.7967 86.1269 59.728C85.722 59.322 85.722 58.664 86.1269 58.2581C86.5319 57.8521 87.1883 57.8521 87.5932 58.2581C90.9104 61.5835 96.3088 61.5835 99.6261 58.2581C100.031 57.8521 100.687 57.8521 101.092 58.2581C101.498 58.664 101.498 59.322 101.092 59.728C99.0298 61.7961 96.3192 62.8305 93.6096 62.8305Z" fill="#0D0D0C"/>
<path fill-rule="evenodd" clip-rule="evenodd" d="M87.4464 44.6176C86.1124 44.7465 84.9261 43.7667 84.7975 42.4294C84.6689 41.0915 85.6462 39.9028 86.9803 39.7734C88.3149 39.6445 89.5006 40.6242 89.6292 41.9621C89.7583 43.2995 88.781 44.4887 87.4464 44.6176Z" fill="#0D0D0C"/>
<path fill-rule="evenodd" clip-rule="evenodd" d="M100.626 44.6176C99.2914 44.7465 98.1056 43.7667 97.977 42.4294C97.8479 41.0915 98.8258 39.9028 100.16 39.7734C101.494 39.6445 102.68 40.6242 102.809 41.9621C102.938 43.2995 101.96 44.4887 100.626 44.6176Z" fill="#0D0D0C"/>
<path fill-rule="evenodd" clip-rule="evenodd" d="M104.624 33.0405C109.474 33.0405 113.419 36.9877 113.419 41.8397C113.419 46.6921 109.474 50.6393 104.624 50.6393C99.7752 50.6393 95.83 46.6921 95.83 41.8397C95.83 41.5461 95.8445 41.2558 95.8727 40.9695C95.2492 40.5211 94.6587 40.6893 94.2674 40.9155C94.3 41.2193 94.3163 41.5276 94.3163 41.8397C94.3163 46.6921 90.3712 50.6393 85.5219 50.6393C80.6802 50.6393 76.7399 46.7045 76.7275 41.8626L70.8197 41.8626C70.2468 41.8626 69.7827 41.3984 69.7827 40.8251C69.7827 40.2519 70.2468 39.7876 70.8197 39.7876L76.9688 39.7877C77.8952 35.9222 81.3784 33.0405 85.5219 33.0405C89.3257 33.0405 92.5732 35.4692 93.7966 38.8581C94.5548 38.5707 95.4546 38.4932 96.3472 38.8648C97.5686 35.4727 100.818 33.0405 104.624 33.0405ZM85.5219 35.1156C81.8163 35.1156 78.8013 38.1321 78.8013 41.8397C78.8013 45.5477 81.8163 48.5643 85.5219 48.5643C89.2279 48.5643 92.2424 45.5477 92.2424 41.8397C92.2424 38.1321 89.2279 35.1156 85.5219 35.1156ZM104.624 35.1156C100.919 35.1156 97.904 38.1321 97.904 41.8397C97.904 45.5477 100.919 48.5643 104.624 48.5643C108.33 48.5643 111.345 45.5477 111.345 41.8397C111.345 38.1321 108.33 35.1156 104.624 35.1156Z" fill="#8957A2"/>
</g>
<path d="M187.16 35.5681C187.16 36.1148 187.253 36.5815 187.44 36.9681C187.627 37.3548 187.887 37.6748 188.22 37.9281C188.553 38.1681 188.933 38.3481 189.36 38.4681C189.8 38.5748 190.273 38.6281 190.78 38.6281C191.327 38.6281 191.793 38.5681 192.18 38.4481C192.567 38.3148 192.88 38.1481 193.12 37.9481C193.36 37.7481 193.533 37.5215 193.64 37.2681C193.747 37.0015 193.8 36.7348 193.8 36.4681C193.8 35.9215 193.673 35.5215 193.42 35.2681C193.18 35.0015 192.913 34.8148 192.62 34.7081C192.113 34.5215 191.52 34.3481 190.84 34.1881C190.173 34.0148 189.347 33.7948 188.36 33.5281C187.747 33.3681 187.233 33.1615 186.82 32.9081C186.42 32.6415 186.1 32.3481 185.86 32.0281C185.62 31.7081 185.447 31.3681 185.34 31.0081C185.247 30.6481 185.2 30.2815 185.2 29.9081C185.2 29.1881 185.347 28.5681 185.64 28.0481C185.947 27.5148 186.347 27.0748 186.84 26.7281C187.333 26.3815 187.893 26.1281 188.52 25.9681C189.147 25.7948 189.78 25.7081 190.42 25.7081C191.167 25.7081 191.867 25.8081 192.52 26.0081C193.187 26.1948 193.767 26.4815 194.26 26.8681C194.767 27.2548 195.167 27.7348 195.46 28.3081C195.753 28.8681 195.9 29.5215 195.9 30.2681H193.4C193.333 29.3481 193.02 28.7015 192.46 28.3281C191.9 27.9415 191.187 27.7481 190.32 27.7481C190.027 27.7481 189.727 27.7815 189.42 27.8481C189.113 27.9015 188.833 28.0015 188.58 28.1481C188.327 28.2815 188.113 28.4681 187.94 28.7081C187.78 28.9481 187.7 29.2481 187.7 29.6081C187.7 30.1148 187.853 30.5148 188.16 30.8081C188.48 31.0881 188.893 31.3015 189.4 31.4481C189.453 31.4615 189.66 31.5215 190.02 31.6281C190.393 31.7215 190.807 31.8281 191.26 31.9481C191.713 32.0681 192.153 32.1881 192.58 32.3081C193.02 32.4148 193.333 32.4948 193.52 32.5481C193.987 32.6948 194.393 32.8948 194.74 33.1481C195.087 33.4015 195.373 33.6948 195.6 34.0281C195.84 34.3481 196.013 34.6948 196.12 35.0681C196.24 35.4415 196.3 35.8148 196.3 36.1881C196.3 36.9881 196.133 37.6748 195.8 38.2481C195.48 38.8081 195.053 39.2681 194.52 39.6281C193.987 39.9881 193.38 40.2481 192.7 40.4081C192.02 40.5815 191.327 40.6681 190.62 40.6681C189.807 40.6681 189.04 40.5681 188.32 40.3681C187.6 40.1681 186.973 39.8615 186.44 39.4481C185.907 39.0348 185.48 38.5081 185.16 37.8681C184.84 37.2148 184.673 36.4481 184.66 35.5681H187.16ZM198.169 29.9881H200.329V31.4281H200.389C200.562 31.1748 200.749 30.9415 200.949 30.7281C201.149 30.5148 201.369 30.3348 201.609 30.1881C201.862 30.0415 202.149 29.9281 202.469 29.8481C202.789 29.7548 203.155 29.7081 203.569 29.7081C204.195 29.7081 204.775 29.8481 205.309 30.1281C205.855 30.4081 206.242 30.8415 206.469 31.4281C206.855 30.8948 207.302 30.4748 207.809 30.1681C208.315 29.8615 208.949 29.7081 209.709 29.7081C210.802 29.7081 211.649 29.9748 212.249 30.5081C212.862 31.0415 213.169 31.9348 213.169 33.1881V40.3281H210.889V34.2881C210.889 33.8748 210.875 33.5015 210.849 33.1681C210.822 32.8215 210.742 32.5281 210.609 32.2881C210.489 32.0348 210.302 31.8415 210.049 31.7081C209.795 31.5748 209.449 31.5081 209.009 31.5081C208.235 31.5081 207.675 31.7481 207.329 32.2281C206.982 32.7081 206.809 33.3881 206.809 34.2681V40.3281H204.529V33.6881C204.529 32.9681 204.395 32.4281 204.129 32.0681C203.875 31.6948 203.402 31.5081 202.709 31.5081C202.415 31.5081 202.129 31.5681 201.849 31.6881C201.582 31.8081 201.342 31.9815 201.129 32.2081C200.929 32.4348 200.762 32.7148 200.629 33.0481C200.509 33.3815 200.449 33.7615 200.449 34.1881V40.3281H198.169V29.9881ZM224.231 38.0281C224.231 38.3081 224.264 38.5081 224.331 38.6281C224.411 38.7481 224.558 38.8081 224.771 38.8081C224.838 38.8081 224.918 38.8081 225.011 38.8081C225.104 38.8081 225.211 38.7948 225.331 38.7681V40.3481C225.251 40.3748 225.144 40.4015 225.011 40.4281C224.891 40.4681 224.764 40.5015 224.631 40.5281C224.498 40.5548 224.364 40.5748 224.231 40.5881C224.098 40.6015 223.984 40.6081 223.891 40.6081C223.424 40.6081 223.038 40.5148 222.731 40.3281C222.424 40.1415 222.224 39.8148 222.131 39.3481C221.678 39.7881 221.118 40.1081 220.451 40.3081C219.798 40.5081 219.164 40.6081 218.551 40.6081C218.084 40.6081 217.638 40.5415 217.211 40.4081C216.784 40.2881 216.404 40.1081 216.071 39.8681C215.751 39.6148 215.491 39.3015 215.291 38.9281C215.104 38.5415 215.011 38.0948 215.011 37.5881C215.011 36.9481 215.124 36.4281 215.351 36.0281C215.591 35.6281 215.898 35.3148 216.271 35.0881C216.658 34.8615 217.084 34.7015 217.551 34.6081C218.031 34.5015 218.511 34.4215 218.991 34.3681C219.404 34.2881 219.798 34.2348 220.171 34.2081C220.544 34.1681 220.871 34.1081 221.151 34.0281C221.444 33.9481 221.671 33.8281 221.831 33.6681C222.004 33.4948 222.091 33.2415 222.091 32.9081C222.091 32.6148 222.018 32.3748 221.871 32.1881C221.738 32.0015 221.564 31.8615 221.351 31.7681C221.151 31.6615 220.924 31.5948 220.671 31.5681C220.418 31.5281 220.178 31.5081 219.951 31.5081C219.311 31.5081 218.784 31.6415 218.371 31.9081C217.958 32.1748 217.724 32.5881 217.671 33.1481H215.391C215.431 32.4815 215.591 31.9281 215.871 31.4881C216.151 31.0481 216.504 30.6948 216.931 30.4281C217.371 30.1615 217.864 29.9748 218.411 29.8681C218.958 29.7615 219.518 29.7081 220.091 29.7081C220.598 29.7081 221.098 29.7615 221.591 29.8681C222.084 29.9748 222.524 30.1481 222.911 30.3881C223.311 30.6281 223.631 30.9415 223.871 31.3281C224.111 31.7015 224.231 32.1615 224.231 32.7081V38.0281ZM221.951 35.1481C221.604 35.3748 221.178 35.5148 220.671 35.5681C220.164 35.6081 219.658 35.6748 219.151 35.7681C218.911 35.8081 218.678 35.8681 218.451 35.9481C218.224 36.0148 218.024 36.1148 217.851 36.2481C217.678 36.3681 217.538 36.5348 217.431 36.7481C217.338 36.9481 217.291 37.1948 217.291 37.4881C217.291 37.7415 217.364 37.9548 217.511 38.1281C217.658 38.3015 217.831 38.4415 218.031 38.5481C218.244 38.6415 218.471 38.7081 218.711 38.7481C218.964 38.7881 219.191 38.8081 219.391 38.8081C219.644 38.8081 219.918 38.7748 220.211 38.7081C220.504 38.6415 220.778 38.5281 221.031 38.3681C221.298 38.2081 221.518 38.0081 221.691 37.7681C221.864 37.5148 221.951 37.2081 221.951 36.8481V35.1481ZM226.684 29.9881H228.824V31.9881H228.864C228.931 31.7081 229.058 31.4348 229.244 31.1681C229.444 30.9015 229.678 30.6615 229.944 30.4481C230.224 30.2215 230.531 30.0415 230.864 29.9081C231.198 29.7748 231.538 29.7081 231.884 29.7081C232.151 29.7081 232.331 29.7148 232.424 29.7281C232.531 29.7415 232.638 29.7548 232.744 29.7681V31.9681C232.584 31.9415 232.418 31.9215 232.244 31.9081C232.084 31.8815 231.924 31.8681 231.764 31.8681C231.378 31.8681 231.011 31.9481 230.664 32.1081C230.331 32.2548 230.038 32.4815 229.784 32.7881C229.531 33.0815 229.331 33.4481 229.184 33.8881C229.038 34.3281 228.964 34.8348 228.964 35.4081V40.3281H226.684V29.9881ZM232.676 29.9881H234.396V26.8881H236.676V29.9881H238.736V31.6881H236.676V37.2081C236.676 37.4481 236.682 37.6548 236.696 37.8281C236.722 38.0015 236.769 38.1481 236.836 38.2681C236.916 38.3881 237.029 38.4815 237.176 38.5481C237.322 38.6015 237.522 38.6281 237.776 38.6281C237.936 38.6281 238.096 38.6281 238.256 38.6281C238.416 38.6148 238.576 38.5881 238.736 38.5481V40.3081C238.482 40.3348 238.236 40.3615 237.996 40.3881C237.756 40.4148 237.509 40.4281 237.256 40.4281C236.656 40.4281 236.169 40.3748 235.796 40.2681C235.436 40.1481 235.149 39.9815 234.936 39.7681C234.736 39.5415 234.596 39.2615 234.516 38.9281C234.449 38.5948 234.409 38.2148 234.396 37.7881V31.6881H232.676V29.9881ZM258.722 40.3281H257.122L256.742 38.6481C256.076 39.4081 255.409 39.9348 254.742 40.2281C254.076 40.5215 253.309 40.6681 252.442 40.6681C251.376 40.6681 250.416 40.4748 249.562 40.0881C248.722 39.6881 248.009 39.1481 247.422 38.4681C246.836 37.7881 246.382 36.9948 246.062 36.0881C245.756 35.1815 245.602 34.2148 245.602 33.1881C245.602 32.1748 245.756 31.2148 246.062 30.3081C246.382 29.4015 246.836 28.6081 247.422 27.9281C248.009 27.2481 248.722 26.7081 249.562 26.3081C250.416 25.9081 251.376 25.7081 252.442 25.7081C253.216 25.7081 253.949 25.8148 254.642 26.0281C255.349 26.2281 255.976 26.5348 256.522 26.9481C257.069 27.3481 257.522 27.8548 257.882 28.4681C258.242 29.0815 258.469 29.7881 258.562 30.5881H256.122C256.056 30.1215 255.909 29.7148 255.682 29.3681C255.469 29.0081 255.196 28.7081 254.862 28.4681C254.529 28.2281 254.156 28.0481 253.742 27.9281C253.329 27.8081 252.896 27.7481 252.442 27.7481C251.682 27.7481 251.022 27.9015 250.462 28.2081C249.916 28.5148 249.469 28.9281 249.122 29.4481C248.776 29.9548 248.516 30.5348 248.342 31.1881C248.182 31.8415 248.102 32.5081 248.102 33.1881C248.102 33.8681 248.182 34.5348 248.342 35.1881C248.516 35.8415 248.776 36.4281 249.122 36.9481C249.469 37.4548 249.916 37.8615 250.462 38.1681C251.022 38.4748 251.682 38.6281 252.442 38.6281C253.082 38.6415 253.649 38.5615 254.142 38.3881C254.636 38.2015 255.049 37.9415 255.382 37.6081C255.729 37.2615 255.989 36.8415 256.162 36.3481C256.336 35.8548 256.429 35.3081 256.442 34.7081H252.642V32.8081H258.722V40.3281ZM261.118 29.9881H263.258V31.9881H263.298C263.365 31.7081 263.491 31.4348 263.678 31.1681C263.878 30.9015 264.111 30.6615 264.378 30.4481C264.658 30.2215 264.965 30.0415 265.298 29.9081C265.631 29.7748 265.971 29.7081 266.318 29.7081C266.585 29.7081 266.765 29.7148 266.858 29.7281C266.965 29.7415 267.071 29.7548 267.178 29.7681V31.9681C267.018 31.9415 266.851 31.9215 266.678 31.9081C266.518 31.8815 266.358 31.8681 266.198 31.8681C265.811 31.8681 265.445 31.9481 265.098 32.1081C264.765 32.2548 264.471 32.4815 264.218 32.7881C263.965 33.0815 263.765 33.4481 263.618 33.8881C263.471 34.3281 263.398 34.8348 263.398 35.4081V40.3281H261.118V29.9881ZM268.209 26.0481H270.489V28.2081H268.209V26.0481ZM268.209 29.9881H270.489V40.3281H268.209V29.9881ZM282.713 40.3281H280.553V38.9281H280.513C280.207 39.5281 279.76 39.9615 279.173 40.2281C278.587 40.4815 277.967 40.6081 277.313 40.6081C276.5 40.6081 275.787 40.4681 275.173 40.1881C274.573 39.8948 274.073 39.5015 273.673 39.0081C273.273 38.5148 272.973 37.9348 272.773 37.2681C272.573 36.5881 272.473 35.8615 272.473 35.0881C272.473 34.1548 272.6 33.3481 272.853 32.6681C273.107 31.9881 273.44 31.4281 273.853 30.9881C274.28 30.5481 274.76 30.2281 275.293 30.0281C275.84 29.8148 276.393 29.7081 276.953 29.7081C277.273 29.7081 277.6 29.7415 277.933 29.8081C278.267 29.8615 278.587 29.9548 278.893 30.0881C279.2 30.2215 279.48 30.3948 279.733 30.6081C280 30.8081 280.22 31.0481 280.393 31.3281H280.433V26.0481H282.713V40.3281ZM274.753 35.2681C274.753 35.7081 274.807 36.1415 274.913 36.5681C275.033 36.9948 275.207 37.3748 275.433 37.7081C275.673 38.0415 275.973 38.3081 276.333 38.5081C276.693 38.7081 277.12 38.8081 277.613 38.8081C278.12 38.8081 278.553 38.7015 278.913 38.4881C279.287 38.2748 279.587 37.9948 279.813 37.6481C280.053 37.3015 280.227 36.9148 280.333 36.4881C280.453 36.0481 280.513 35.6015 280.513 35.1481C280.513 34.0015 280.253 33.1081 279.733 32.4681C279.227 31.8281 278.533 31.5081 277.653 31.5081C277.12 31.5081 276.667 31.6215 276.293 31.8481C275.933 32.0615 275.633 32.3481 275.393 32.7081C275.167 33.0548 275 33.4548 274.893 33.9081C274.8 34.3481 274.753 34.8015 274.753 35.2681ZM185.52 46.0481H195.8V48.2081H188.02V51.9481H195.22V53.9881H188.02V58.1681H195.94V60.3281H185.52V46.0481ZM200.578 54.8881L196.998 49.9881H199.758L201.918 53.1681L204.178 49.9881H206.818L203.298 54.7681L207.258 60.3281H204.518L201.898 56.5081L199.358 60.3281H196.678L200.578 54.8881ZM208.6 49.9881H210.76V51.3881H210.8C211.12 50.7881 211.567 50.3615 212.14 50.1081C212.713 49.8415 213.333 49.7081 214 49.7081C214.813 49.7081 215.52 49.8548 216.12 50.1481C216.733 50.4281 217.24 50.8215 217.64 51.3281C218.04 51.8215 218.34 52.4015 218.54 53.0681C218.74 53.7348 218.84 54.4481 218.84 55.2081C218.84 55.9015 218.747 56.5748 218.56 57.2281C218.387 57.8815 218.113 58.4615 217.74 58.9681C217.38 59.4615 216.92 59.8615 216.36 60.1681C215.8 60.4615 215.14 60.6081 214.38 60.6081C214.047 60.6081 213.713 60.5748 213.38 60.5081C213.047 60.4548 212.727 60.3615 212.42 60.2281C212.113 60.0948 211.827 59.9281 211.56 59.7281C211.307 59.5148 211.093 59.2681 210.92 58.9881H210.88V64.1481H208.6V49.9881ZM216.56 55.1681C216.56 54.7015 216.5 54.2481 216.38 53.8081C216.26 53.3681 216.08 52.9815 215.84 52.6481C215.6 52.3015 215.3 52.0281 214.94 51.8281C214.58 51.6148 214.167 51.5081 213.7 51.5081C212.74 51.5081 212.013 51.8415 211.52 52.5081C211.04 53.1748 210.8 54.0615 210.8 55.1681C210.8 55.6881 210.86 56.1748 210.98 56.6281C211.113 57.0681 211.307 57.4481 211.56 57.7681C211.813 58.0881 212.113 58.3415 212.46 58.5281C212.82 58.7148 213.233 58.8081 213.7 58.8081C214.22 58.8081 214.66 58.7015 215.02 58.4881C215.38 58.2748 215.673 58.0015 215.9 57.6681C216.14 57.3215 216.307 56.9348 216.4 56.5081C216.507 56.0681 216.56 55.6215 216.56 55.1681ZM227.866 54.2481C227.84 53.8881 227.76 53.5415 227.626 53.2081C227.506 52.8748 227.333 52.5881 227.106 52.3481C226.893 52.0948 226.626 51.8948 226.306 51.7481C226 51.5881 225.653 51.5081 225.266 51.5081C224.866 51.5081 224.5 51.5815 224.166 51.7281C223.846 51.8615 223.566 52.0548 223.326 52.3081C223.1 52.5481 222.913 52.8348 222.766 53.1681C222.633 53.5015 222.56 53.8615 222.546 54.2481H227.866ZM222.546 55.7481C222.546 56.1481 222.6 56.5348 222.706 56.9081C222.826 57.2815 223 57.6081 223.226 57.8881C223.453 58.1681 223.74 58.3948 224.086 58.5681C224.433 58.7281 224.846 58.8081 225.326 58.8081C225.993 58.8081 226.526 58.6681 226.926 58.3881C227.34 58.0948 227.646 57.6615 227.846 57.0881H230.006C229.886 57.6481 229.68 58.1481 229.386 58.5881C229.093 59.0281 228.74 59.4015 228.326 59.7081C227.913 60.0015 227.446 60.2215 226.926 60.3681C226.42 60.5281 225.886 60.6081 225.326 60.6081C224.513 60.6081 223.793 60.4748 223.166 60.2081C222.54 59.9415 222.006 59.5681 221.566 59.0881C221.14 58.6081 220.813 58.0348 220.586 57.3681C220.373 56.7015 220.266 55.9681 220.266 55.1681C220.266 54.4348 220.38 53.7415 220.606 53.0881C220.846 52.4215 221.18 51.8415 221.606 51.3481C222.046 50.8415 222.573 50.4415 223.186 50.1481C223.8 49.8548 224.493 49.7081 225.266 49.7081C226.08 49.7081 226.806 49.8815 227.446 50.2281C228.1 50.5615 228.64 51.0081 229.066 51.5681C229.493 52.1281 229.8 52.7748 229.986 53.5081C230.186 54.2281 230.24 54.9748 230.146 55.7481H222.546ZM231.88 49.9881H234.02V51.9881H234.06C234.126 51.7081 234.253 51.4348 234.44 51.1681C234.64 50.9015 234.873 50.6615 235.14 50.4481C235.42 50.2215 235.726 50.0415 236.06 49.9081C236.393 49.7748 236.733 49.7081 237.08 49.7081C237.346 49.7081 237.526 49.7148 237.62 49.7281C237.726 49.7415 237.833 49.7548 237.94 49.7681V51.9681C237.78 51.9415 237.613 51.9215 237.44 51.9081C237.28 51.8815 237.12 51.8681 236.96 51.8681C236.573 51.8681 236.206 51.9481 235.86 52.1081C235.526 52.2548 235.233 52.4815 234.98 52.7881C234.726 53.0815 234.526 53.4481 234.38 53.8881C234.233 54.3281 234.16 54.8348 234.16 55.4081V60.3281H231.88V49.9881ZM237.871 49.9881H239.591V46.8881H241.871V49.9881H243.931V51.6881H241.871V57.2081C241.871 57.4481 241.878 57.6548 241.891 57.8281C241.918 58.0015 241.964 58.1481 242.031 58.2681C242.111 58.3881 242.224 58.4815 242.371 58.5481C242.518 58.6015 242.718 58.6281 242.971 58.6281C243.131 58.6281 243.291 58.6281 243.451 58.6281C243.611 58.6148 243.771 58.5881 243.931 58.5481V60.3081C243.678 60.3348 243.431 60.3615 243.191 60.3881C242.951 60.4148 242.704 60.4281 242.451 60.4281C241.851 60.4281 241.364 60.3748 240.991 60.2681C240.631 60.1481 240.344 59.9815 240.131 59.7681C239.931 59.5415 239.791 59.2615 239.711 58.9281C239.644 58.5948 239.604 58.2148 239.591 57.7881V51.6881H237.871V49.9881Z" fill="#1A0803"/>
<defs>
<filter id="filter0_d_469_11184" x="0.328125" y="0.328125" width="165.672" height="85" filterUnits="userSpaceOnUse" color-interpolation-filters="sRGB">
<feFlood flood-opacity="0" result="BackgroundImageFix"/>
<feColorMatrix in="SourceAlpha" type="matrix" values="0 0 0 0 0 0 0 0 0 0 0 0 0 0 0 0 0 0 127 0" result="hardAlpha"/>
<feOffset dx="1" dy="1"/>
<feComposite in2="hardAlpha" operator="out"/>
<feColorMatrix type="matrix" values="0 0 0 0 0 0 0 0 0 0 0 0 0 0 0 0 0 0 1 0"/>
<feBlend mode="normal" in2="BackgroundImageFix" result="effect1_dropShadow_469_11184"/>
<feBlend mode="normal" in="SourceGraphic" in2="effect1_dropShadow_469_11184" result="shape"/>
</filter>
</defs>
</svg>
