<svg width="347" height="86" viewBox="0 0 347 86" fill="none" xmlns="http://www.w3.org/2000/svg">
<g filter="url(#filter0_d_469_11112)">
<rect x="1.32812" y="1.32812" width="162.672" height="82" rx="5" fill="#C493DD" shape-rendering="crispEdges"/>
<rect x="0.828125" y="0.828125" width="163.672" height="83" rx="5.5" stroke="black" shape-rendering="crispEdges"/>
<rect x="0.828125" y="0.828125" width="163.672" height="83" rx="5.5" stroke="black" stroke-opacity="0.2" shape-rendering="crispEdges"/>
<path fill-rule="evenodd" clip-rule="evenodd" d="M112.156 45.7653C112.156 50.2342 108.529 53.857 104.056 53.857C99.5816 53.857 95.9556 50.2342 95.9556 45.7653C95.9556 41.2963 99.5816 37.6736 104.056 37.6736C108.529 37.6736 112.156 41.2963 112.156 45.7653Z" fill="#D6B3E7"/>
<path fill-rule="evenodd" clip-rule="evenodd" d="M104.056 38.7356C100.175 38.7356 97.0189 41.8888 97.0189 45.7649C97.0189 49.6405 100.175 52.7942 104.056 52.7942C107.935 52.7942 111.092 49.6405 111.092 45.7649C111.092 41.8888 107.935 38.7356 104.056 38.7356ZM104.056 54.919C99.0029 54.919 94.8918 50.8123 94.8918 45.7649C94.8918 40.717 99.0029 36.6108 104.056 36.6108C109.108 36.6108 113.219 40.717 113.219 45.7649C113.219 50.8123 109.108 54.919 104.056 54.919Z" fill="#0D0D0C"/>
<path fill-rule="evenodd" clip-rule="evenodd" d="M83.0491 70.9587C73.7603 70.9587 65.3792 65.4555 61.6957 56.9389L61.3495 56.1399C58.8869 50.445 58.7912 44.1333 61.0804 38.3667C63.3702 32.6 67.7711 28.0689 73.4715 25.6084C76.409 24.341 79.5076 23.6982 82.6816 23.6982C91.9699 23.6982 100.352 29.2014 104.036 37.7175L104.381 38.5175C106.844 44.2119 106.94 50.5236 104.65 56.2903C102.361 62.0569 97.9602 66.5875 92.2587 69.048C89.3217 70.3159 86.2232 70.9587 83.0491 70.9587Z" fill="#D6B3E7"/>
<path fill-rule="evenodd" clip-rule="evenodd" d="M82.6822 22.6355H82.6817C79.3614 22.6355 76.1208 23.3075 73.0499 24.6328C67.0883 27.2059 62.4865 31.9442 60.0925 37.9743C57.698 44.005 57.7979 50.6056 60.3733 56.5608L60.7194 57.3603C64.571 66.2663 73.336 72.0207 83.0492 72.0207C86.3695 72.0207 89.61 71.3488 92.6809 70.0229C104.988 64.7115 110.675 50.3889 105.358 38.0954L105.012 37.296C101.16 28.3899 92.3954 22.6355 82.6822 22.6355ZM82.6817 24.7603C91.2659 24.7603 99.438 29.7663 103.059 38.1384L103.405 38.9379C108.265 50.1743 103.086 63.2183 91.8376 68.0724C88.9708 69.3095 85.9855 69.8959 83.0492 69.8959C74.4649 69.8959 66.2928 64.89 62.6721 56.5178L62.3259 55.7183C57.4667 44.482 62.6455 31.4379 73.8933 26.5833C76.76 25.3462 79.7453 24.7603 82.6817 24.7603Z" fill="#0D0D0C"/>
<path fill-rule="evenodd" clip-rule="evenodd" d="M61.2727 53.857C56.799 53.857 53.1724 50.2342 53.1724 45.7653C53.1724 41.2963 56.799 37.6736 61.2727 37.6736C61.8316 37.6736 62.3777 37.7304 62.9052 37.8383" fill="#D6B3E7"/>
<path fill-rule="evenodd" clip-rule="evenodd" d="M61.2725 54.919C56.2197 54.919 52.1086 50.8123 52.1086 45.7649C52.1086 40.7175 56.2197 36.6108 61.2725 36.6108C61.8936 36.6108 62.5147 36.6735 63.1182 36.7968C63.6936 36.9147 64.0642 37.4756 63.9467 38.0509C63.8292 38.6257 63.2671 38.9959 62.6918 38.8785C62.2281 38.784 61.7505 38.7356 61.2725 38.7356C57.3922 38.7356 54.2357 41.8888 54.2357 45.7649C54.2357 49.6411 57.3922 52.7942 61.2725 52.7942C61.8595 52.7942 62.336 53.2702 62.336 53.8566C62.336 54.4431 61.8595 54.919 61.2725 54.919Z" fill="#0D0D0C"/>
<path fill-rule="evenodd" clip-rule="evenodd" d="M86.1941 54.9663H90.2148C91.3235 54.9663 92.1446 53.3563 91.8968 51.6676L90.2036 40.1199C89.8107 37.4401 87.4044 37.2903 86.8759 39.9122L84.5483 51.4599C84.1984 53.1974 85.0285 54.9663 86.1941 54.9663Z" fill="#8957A2"/>
<path d="M73.4685 52.8179C71.9186 54.9816 74.1086 66.1355 76.2714 65.5453C75.2827 61.5962 74.6564 56.6491 76.0664 54.6819C76.3424 54.2973 76.8006 53.8563 77.9066 53.8563C80.7177 53.8563 82.2348 54.5191 83.6335 55.2L83.8946 55.3277C86.5431 56.6269 88.6338 57.3117 93.3761 55.0867L93.5541 55.0039C96.7739 53.5195 97.5887 53.8659 97.6707 53.9098L97.7151 53.9457C98.1831 54.4119 97.9931 56.9073 97.7805 58.9514L97.5523 61.0327C97.4182 62.2593 97.2849 63.5795 97.2002 64.9603C99.1086 64.1355 101.566 52.7668 99.5399 51.3133C97.9735 50.1891 95.7246 50.4515 92.0196 52.1891L91.8234 52.2802C88.5938 53.7628 87.4205 53.4658 85.8024 52.6975L84.6986 52.1617C83.1596 51.4299 81.1907 50.6563 77.9066 50.6563C76.0163 50.6563 74.4813 51.4035 73.4685 52.8179Z" fill="#0D0D0C"/>
<path fill-rule="evenodd" clip-rule="evenodd" d="M62.1482 34.1357C63.8477 34.1357 65.226 35.7282 65.226 37.6934V53.666C65.226 55.5647 63.8943 57.1034 62.2522 57.1034H61.2602C60.0509 57.1034 59.0703 55.9699 59.0703 54.5721V37.6934C59.0703 35.7282 60.4481 34.1357 62.1482 34.1357ZM105.238 34.1357C106.9 34.1357 108.253 35.6567 108.314 37.56L108.316 37.6934V53.4255C108.316 55.4119 106.954 57.03 105.251 57.1009L105.134 57.1034L105.02 57.1009C103.47 57.0333 102.223 55.5934 102.163 53.8011L102.16 53.666V37.6934C102.16 35.7282 103.539 34.1357 105.238 34.1357Z" fill="#0D0D0C"/>
<path fill-rule="evenodd" clip-rule="evenodd" d="M80.671 57.2282C80.8071 57.414 80.8872 57.6435 80.8872 57.8916C80.8872 57.6228 80.7987 57.3999 80.671 57.2282ZM83.9324 59.1461C79.4391 59.1461 79.2683 58.9777 78.986 58.6999C78.7714 58.4888 78.6465 58.193 78.6465 57.8916C78.6465 57.2714 79.1484 56.769 79.7669 56.769C79.8946 56.769 80.0167 56.7904 80.131 56.8297C81.2446 56.9402 88.1741 56.883 94.3317 56.769C94.9507 56.7561 95.461 57.2512 95.4722 57.8708C95.484 58.4905 94.9916 59.0024 94.3726 59.0136C89.4642 59.1045 86.1647 59.1461 83.9324 59.1461Z" fill="#0D0D0C"/>
<path fill-rule="evenodd" clip-rule="evenodd" d="M82.463 40.4412H74.7246C74.1062 40.4412 73.6042 39.9388 73.6042 39.3186C73.6042 38.6984 74.1062 38.196 74.7246 38.196H82.463C83.082 38.196 83.5834 38.6984 83.5834 39.3186C83.5834 39.9388 83.082 40.4412 82.463 40.4412Z" fill="#0D0D0C"/>
<path fill-rule="evenodd" clip-rule="evenodd" d="M100.303 40.4412H92.5642C91.9458 40.4412 91.4438 39.9388 91.4438 39.3186C91.4438 38.6984 91.9458 38.196 92.5642 38.196H100.303C100.922 38.196 101.423 38.6984 101.423 39.3186C101.423 39.9388 100.922 40.4412 100.303 40.4412Z" fill="#0D0D0C"/>
<path d="M85.1964 35.7568H71.752V45.28H85.1964V35.7568Z" fill="#D6B3E7"/>
<path d="M104.243 35.7568H90.7983V45.28H104.243V35.7568Z" fill="#D6B3E7"/>
<path fill-rule="evenodd" clip-rule="evenodd" d="M85.4027 34.6365C86.0217 34.6365 86.5231 35.1378 86.5231 35.7568L86.5226 38.8853C86.8666 38.7129 87.2532 38.5843 87.6831 38.5304C88.3756 38.4437 89.0699 38.5636 89.7619 38.8882L89.7618 35.7568C89.7618 35.1378 90.2632 34.6365 90.8822 34.6365H104.672C105.291 34.6365 105.793 35.1378 105.793 35.7568V41.7273C105.793 44.9865 103.141 47.6384 99.881 47.6384H94.1789C91.7432 47.6384 89.7618 45.657 89.7618 43.2213L89.7619 41.5801C89.2081 41.0775 88.5677 40.6812 87.9693 40.7527C87.2763 40.835 86.7467 41.5308 86.5225 41.8788L86.5231 43.2213C86.5231 45.657 84.5417 47.6384 82.106 47.6384H75.8146C72.5549 47.6384 69.9029 44.9865 69.9029 41.7273L69.9024 39.9762L62.4752 41.6492C62.3923 41.6676 62.3099 41.6766 62.2281 41.6766C61.7156 41.6766 61.2534 41.3231 61.1363 40.8022C61.0002 40.1983 61.3794 39.5989 61.9828 39.4628L69.9024 37.6788L69.9029 35.7568C69.9029 35.1378 70.4043 34.6365 71.0233 34.6365H85.4027ZM71.9501 36.4834C71.6116 36.9645 71.7044 37.619 72.1487 37.9887L72.2218 38.0446L82.299 45.1349C82.495 45.2733 82.7197 45.3394 82.9426 45.3394C83.295 45.3394 83.6417 45.1736 83.8596 44.8638C84.1981 44.3827 84.1053 43.7282 83.6615 43.3585L83.5885 43.3025L73.5108 36.2117C73.0049 35.856 72.3058 35.9776 71.9501 36.4834ZM92.0322 36.6614C91.6938 37.1419 91.7866 37.7969 92.2309 38.1662L92.3039 38.2221L101.876 44.9572C102.072 45.0955 102.297 45.1616 102.519 45.1616C102.872 45.1616 103.219 44.9958 103.437 44.686C103.775 44.205 103.682 43.5505 103.238 43.1807L103.165 43.1248L93.5929 36.3897C93.0871 36.034 92.388 36.1555 92.0322 36.6614Z" fill="#0D0D0C"/>
<path d="M62.6453 39.6365C67.892 39.6365 77.1453 31.3832 77.1453 26.1365C77.1453 20.8898 72.892 18.6365 67.6453 18.6365C62.3986 18.6365 58.1453 22.8898 58.1453 28.1365C58.1453 33.3832 57.3986 39.6365 62.6453 39.6365Z" fill="#0D0D0C"/>
<path fill-rule="evenodd" clip-rule="evenodd" d="M111.131 33.6007H83.7046C73.7106 33.6007 67.1084 26.6375 67.1086 18.1365C67.6086 13.1364 73.598 12.6355 75.7398 12.6355H93.0343C103.029 12.6355 111.131 19.7434 111.131 29.7273V33.6007Z" fill="#0D0D0C"/>
</g>
<path d="M185.52 26.0481H195.8V28.2081H188.02V31.9481H195.22V33.9881H188.02V38.1681H195.94V40.3281H185.52V26.0481ZM197.798 29.9881H199.958V31.5081L199.998 31.5481C200.344 30.9748 200.798 30.5281 201.358 30.2081C201.918 29.8748 202.538 29.7081 203.218 29.7081C204.351 29.7081 205.244 30.0015 205.898 30.5881C206.551 31.1748 206.878 32.0548 206.878 33.2281V40.3281H204.598V33.8281C204.571 33.0148 204.398 32.4281 204.078 32.0681C203.758 31.6948 203.258 31.5081 202.578 31.5081C202.191 31.5081 201.844 31.5815 201.538 31.7281C201.231 31.8615 200.971 32.0548 200.758 32.3081C200.544 32.5481 200.378 32.8348 200.258 33.1681C200.138 33.5015 200.078 33.8548 200.078 34.2281V40.3281H197.798V29.9881ZM216.382 34.2481C216.355 33.8881 216.275 33.5415 216.142 33.2081C216.022 32.8748 215.849 32.5881 215.622 32.3481C215.409 32.0948 215.142 31.8948 214.822 31.7481C214.515 31.5881 214.169 31.5081 213.782 31.5081C213.382 31.5081 213.015 31.5815 212.682 31.7281C212.362 31.8615 212.082 32.0548 211.842 32.3081C211.615 32.5481 211.429 32.8348 211.282 33.1681C211.149 33.5015 211.075 33.8615 211.062 34.2481H216.382ZM211.062 35.7481C211.062 36.1481 211.115 36.5348 211.222 36.9081C211.342 37.2815 211.515 37.6081 211.742 37.8881C211.969 38.1681 212.255 38.3948 212.602 38.5681C212.949 38.7281 213.362 38.8081 213.842 38.8081C214.509 38.8081 215.042 38.6681 215.442 38.3881C215.855 38.0948 216.162 37.6615 216.362 37.0881H218.522C218.402 37.6481 218.195 38.1481 217.902 38.5881C217.609 39.0281 217.255 39.4015 216.842 39.7081C216.429 40.0015 215.962 40.2215 215.442 40.3681C214.935 40.5281 214.402 40.6081 213.842 40.6081C213.029 40.6081 212.309 40.4748 211.682 40.2081C211.055 39.9415 210.522 39.5681 210.082 39.0881C209.655 38.6081 209.329 38.0348 209.102 37.3681C208.889 36.7015 208.782 35.9681 208.782 35.1681C208.782 34.4348 208.895 33.7415 209.122 33.0881C209.362 32.4215 209.695 31.8415 210.122 31.3481C210.562 30.8415 211.089 30.4415 211.702 30.1481C212.315 29.8548 213.009 29.7081 213.782 29.7081C214.595 29.7081 215.322 29.8815 215.962 30.2281C216.615 30.5615 217.155 31.0081 217.582 31.5681C218.009 32.1281 218.315 32.7748 218.502 33.5081C218.702 34.2281 218.755 34.9748 218.662 35.7481H211.062ZM220.395 29.9881H222.535V31.9881H222.575C222.642 31.7081 222.769 31.4348 222.955 31.1681C223.155 30.9015 223.389 30.6615 223.655 30.4481C223.935 30.2215 224.242 30.0415 224.575 29.9081C224.909 29.7748 225.249 29.7081 225.595 29.7081C225.862 29.7081 226.042 29.7148 226.135 29.7281C226.242 29.7415 226.349 29.7548 226.455 29.7681V31.9681C226.295 31.9415 226.129 31.9215 225.955 31.9081C225.795 31.8815 225.635 31.8681 225.475 31.8681C225.089 31.8681 224.722 31.9481 224.375 32.1081C224.042 32.2548 223.749 32.4815 223.495 32.7881C223.242 33.0815 223.042 33.4481 222.895 33.8881C222.749 34.3281 222.675 34.8348 222.675 35.4081V40.3281H220.395V29.9881ZM236.987 39.7881C236.987 41.3481 236.547 42.5081 235.667 43.2681C234.8 44.0415 233.547 44.4281 231.907 44.4281C231.387 44.4281 230.86 44.3748 230.327 44.2681C229.807 44.1615 229.327 43.9815 228.887 43.7281C228.46 43.4748 228.1 43.1415 227.807 42.7281C227.513 42.3148 227.34 41.8081 227.287 41.2081H229.567C229.633 41.5281 229.747 41.7881 229.907 41.9881C230.067 42.1881 230.253 42.3415 230.467 42.4481C230.693 42.5681 230.94 42.6415 231.207 42.6681C231.473 42.7081 231.753 42.7281 232.047 42.7281C232.967 42.7281 233.64 42.5015 234.067 42.0481C234.493 41.5948 234.707 40.9415 234.707 40.0881V38.5081H234.667C234.347 39.0815 233.907 39.5281 233.347 39.8481C232.8 40.1681 232.207 40.3281 231.567 40.3281C230.74 40.3281 230.033 40.1881 229.447 39.9081C228.873 39.6148 228.393 39.2215 228.007 38.7281C227.633 38.2215 227.36 37.6415 227.187 36.9881C227.013 36.3348 226.927 35.6348 226.927 34.8881C226.927 34.1948 227.033 33.5348 227.247 32.9081C227.46 32.2815 227.767 31.7348 228.167 31.2681C228.567 30.7881 229.053 30.4081 229.627 30.1281C230.213 29.8481 230.873 29.7081 231.607 29.7081C232.26 29.7081 232.86 29.8481 233.407 30.1281C233.953 30.3948 234.373 30.8215 234.667 31.4081H234.707V29.9881H236.987V39.7881ZM231.927 38.5281C232.433 38.5281 232.86 38.4281 233.207 38.2281C233.567 38.0148 233.853 37.7415 234.067 37.4081C234.293 37.0615 234.453 36.6748 234.547 36.2481C234.653 35.8081 234.707 35.3681 234.707 34.9281C234.707 34.4881 234.653 34.0615 234.547 33.6481C234.44 33.2348 234.273 32.8681 234.047 32.5481C233.833 32.2281 233.547 31.9748 233.187 31.7881C232.84 31.6015 232.42 31.5081 231.927 31.5081C231.42 31.5081 230.993 31.6148 230.647 31.8281C230.3 32.0415 230.02 32.3215 229.807 32.6681C229.593 33.0015 229.44 33.3881 229.347 33.8281C229.253 34.2548 229.207 34.6815 229.207 35.1081C229.207 35.5348 229.26 35.9548 229.367 36.3681C229.473 36.7681 229.633 37.1281 229.847 37.4481C230.073 37.7681 230.353 38.0281 230.687 38.2281C231.033 38.4281 231.447 38.5281 231.927 38.5281ZM238.142 29.9881H240.642L243.342 37.7081H243.382L246.002 29.9881H248.382L244.362 40.8881C244.175 41.3548 243.989 41.8015 243.802 42.2281C243.629 42.6548 243.409 43.0281 243.142 43.3481C242.889 43.6815 242.569 43.9415 242.182 44.1281C241.795 44.3281 241.302 44.4281 240.702 44.4281C240.169 44.4281 239.642 44.3881 239.122 44.3081V42.3881C239.309 42.4148 239.489 42.4415 239.662 42.4681C239.835 42.5081 240.015 42.5281 240.202 42.5281C240.469 42.5281 240.689 42.4948 240.862 42.4281C241.035 42.3615 241.175 42.2615 241.282 42.1281C241.402 42.0081 241.502 41.8615 241.582 41.6881C241.662 41.5148 241.735 41.3148 241.802 41.0881L242.062 40.2881L238.142 29.9881ZM257.18 35.5681C257.18 36.1148 257.273 36.5815 257.46 36.9681C257.646 37.3548 257.906 37.6748 258.24 37.9281C258.573 38.1681 258.953 38.3481 259.38 38.4681C259.82 38.5748 260.293 38.6281 260.8 38.6281C261.346 38.6281 261.813 38.5681 262.2 38.4481C262.586 38.3148 262.9 38.1481 263.14 37.9481C263.38 37.7481 263.553 37.5215 263.66 37.2681C263.766 37.0015 263.82 36.7348 263.82 36.4681C263.82 35.9215 263.693 35.5215 263.44 35.2681C263.2 35.0015 262.933 34.8148 262.64 34.7081C262.133 34.5215 261.54 34.3481 260.86 34.1881C260.193 34.0148 259.366 33.7948 258.38 33.5281C257.766 33.3681 257.253 33.1615 256.84 32.9081C256.44 32.6415 256.12 32.3481 255.88 32.0281C255.64 31.7081 255.466 31.3681 255.36 31.0081C255.266 30.6481 255.22 30.2815 255.22 29.9081C255.22 29.1881 255.366 28.5681 255.66 28.0481C255.966 27.5148 256.366 27.0748 256.86 26.7281C257.353 26.3815 257.913 26.1281 258.54 25.9681C259.166 25.7948 259.8 25.7081 260.44 25.7081C261.186 25.7081 261.886 25.8081 262.54 26.0081C263.206 26.1948 263.786 26.4815 264.28 26.8681C264.786 27.2548 265.186 27.7348 265.48 28.3081C265.773 28.8681 265.92 29.5215 265.92 30.2681H263.42C263.353 29.3481 263.04 28.7015 262.48 28.3281C261.92 27.9415 261.206 27.7481 260.34 27.7481C260.046 27.7481 259.746 27.7815 259.44 27.8481C259.133 27.9015 258.853 28.0015 258.6 28.1481C258.346 28.2815 258.133 28.4681 257.96 28.7081C257.8 28.9481 257.72 29.2481 257.72 29.6081C257.72 30.1148 257.873 30.5148 258.18 30.8081C258.5 31.0881 258.913 31.3015 259.42 31.4481C259.473 31.4615 259.68 31.5215 260.04 31.6281C260.413 31.7215 260.826 31.8281 261.28 31.9481C261.733 32.0681 262.173 32.1881 262.6 32.3081C263.04 32.4148 263.353 32.4948 263.54 32.5481C264.006 32.6948 264.413 32.8948 264.76 33.1481C265.106 33.4015 265.393 33.6948 265.62 34.0281C265.86 34.3481 266.033 34.6948 266.14 35.0681C266.26 35.4415 266.32 35.8148 266.32 36.1881C266.32 36.9881 266.153 37.6748 265.82 38.2481C265.5 38.8081 265.073 39.2681 264.54 39.6281C264.006 39.9881 263.4 40.2481 262.72 40.4081C262.04 40.5815 261.346 40.6681 260.64 40.6681C259.826 40.6681 259.06 40.5681 258.34 40.3681C257.62 40.1681 256.993 39.8615 256.46 39.4481C255.926 39.0348 255.5 38.5081 255.18 37.8681C254.86 37.2148 254.693 36.4481 254.68 35.5681H257.18ZM267.148 29.9881H268.868V26.8881H271.148V29.9881H273.208V31.6881H271.148V37.2081C271.148 37.4481 271.155 37.6548 271.168 37.8281C271.195 38.0015 271.242 38.1481 271.308 38.2681C271.388 38.3881 271.502 38.4815 271.648 38.5481C271.795 38.6015 271.995 38.6281 272.248 38.6281C272.408 38.6281 272.568 38.6281 272.728 38.6281C272.888 38.6148 273.048 38.5881 273.208 38.5481V40.3081C272.955 40.3348 272.708 40.3615 272.468 40.3881C272.228 40.4148 271.982 40.4281 271.728 40.4281C271.128 40.4281 270.642 40.3748 270.268 40.2681C269.908 40.1481 269.622 39.9815 269.408 39.7681C269.208 39.5415 269.068 39.2615 268.988 38.9281C268.922 38.5948 268.882 38.2148 268.868 37.7881V31.6881H267.148V29.9881ZM279.588 40.6081C278.762 40.6081 278.022 40.4748 277.368 40.2081C276.728 39.9281 276.182 39.5481 275.728 39.0681C275.288 38.5881 274.948 38.0148 274.708 37.3481C274.482 36.6815 274.368 35.9481 274.368 35.1481C274.368 34.3615 274.482 33.6348 274.708 32.9681C274.948 32.3015 275.288 31.7281 275.728 31.2481C276.182 30.7681 276.728 30.3948 277.368 30.1281C278.022 29.8481 278.762 29.7081 279.588 29.7081C280.415 29.7081 281.148 29.8481 281.788 30.1281C282.442 30.3948 282.988 30.7681 283.428 31.2481C283.882 31.7281 284.222 32.3015 284.448 32.9681C284.688 33.6348 284.808 34.3615 284.808 35.1481C284.808 35.9481 284.688 36.6815 284.448 37.3481C284.222 38.0148 283.882 38.5881 283.428 39.0681C282.988 39.5481 282.442 39.9281 281.788 40.2081C281.148 40.4748 280.415 40.6081 279.588 40.6081ZM279.588 38.8081C280.095 38.8081 280.535 38.7015 280.908 38.4881C281.282 38.2748 281.588 37.9948 281.828 37.6481C282.068 37.3015 282.242 36.9148 282.348 36.4881C282.468 36.0481 282.528 35.6015 282.528 35.1481C282.528 34.7081 282.468 34.2681 282.348 33.8281C282.242 33.3881 282.068 33.0015 281.828 32.6681C281.588 32.3215 281.282 32.0415 280.908 31.8281C280.535 31.6148 280.095 31.5081 279.588 31.5081C279.082 31.5081 278.642 31.6148 278.268 31.8281C277.895 32.0415 277.588 32.3215 277.348 32.6681C277.108 33.0015 276.928 33.3881 276.808 33.8281C276.702 34.2681 276.648 34.7081 276.648 35.1481C276.648 35.6015 276.702 36.0481 276.808 36.4881C276.928 36.9148 277.108 37.3015 277.348 37.6481C277.588 37.9948 277.895 38.2748 278.268 38.4881C278.642 38.7015 279.082 38.8081 279.588 38.8081ZM286.704 29.9881H288.844V31.9881H288.884C288.951 31.7081 289.077 31.4348 289.264 31.1681C289.464 30.9015 289.697 30.6615 289.964 30.4481C290.244 30.2215 290.551 30.0415 290.884 29.9081C291.217 29.7748 291.557 29.7081 291.904 29.7081C292.171 29.7081 292.351 29.7148 292.444 29.7281C292.551 29.7415 292.657 29.7548 292.764 29.7681V31.9681C292.604 31.9415 292.437 31.9215 292.264 31.9081C292.104 31.8815 291.944 31.8681 291.784 31.8681C291.397 31.8681 291.031 31.9481 290.684 32.1081C290.351 32.2548 290.057 32.4815 289.804 32.7881C289.551 33.0815 289.351 33.4481 289.204 33.8881C289.057 34.3281 288.984 34.8348 288.984 35.4081V40.3281H286.704V29.9881ZM302.395 38.0281C302.395 38.3081 302.428 38.5081 302.495 38.6281C302.575 38.7481 302.722 38.8081 302.935 38.8081C303.002 38.8081 303.082 38.8081 303.175 38.8081C303.268 38.8081 303.375 38.7948 303.495 38.7681V40.3481C303.415 40.3748 303.308 40.4015 303.175 40.4281C303.055 40.4681 302.928 40.5015 302.795 40.5281C302.662 40.5548 302.528 40.5748 302.395 40.5881C302.262 40.6015 302.148 40.6081 302.055 40.6081C301.588 40.6081 301.202 40.5148 300.895 40.3281C300.588 40.1415 300.388 39.8148 300.295 39.3481C299.842 39.7881 299.282 40.1081 298.615 40.3081C297.962 40.5081 297.328 40.6081 296.715 40.6081C296.248 40.6081 295.802 40.5415 295.375 40.4081C294.948 40.2881 294.568 40.1081 294.235 39.8681C293.915 39.6148 293.655 39.3015 293.455 38.9281C293.268 38.5415 293.175 38.0948 293.175 37.5881C293.175 36.9481 293.288 36.4281 293.515 36.0281C293.755 35.6281 294.062 35.3148 294.435 35.0881C294.822 34.8615 295.248 34.7015 295.715 34.6081C296.195 34.5015 296.675 34.4215 297.155 34.3681C297.568 34.2881 297.962 34.2348 298.335 34.2081C298.708 34.1681 299.035 34.1081 299.315 34.0281C299.608 33.9481 299.835 33.8281 299.995 33.6681C300.168 33.4948 300.255 33.2415 300.255 32.9081C300.255 32.6148 300.182 32.3748 300.035 32.1881C299.902 32.0015 299.728 31.8615 299.515 31.7681C299.315 31.6615 299.088 31.5948 298.835 31.5681C298.582 31.5281 298.342 31.5081 298.115 31.5081C297.475 31.5081 296.948 31.6415 296.535 31.9081C296.122 32.1748 295.888 32.5881 295.835 33.1481H293.555C293.595 32.4815 293.755 31.9281 294.035 31.4881C294.315 31.0481 294.668 30.6948 295.095 30.4281C295.535 30.1615 296.028 29.9748 296.575 29.8681C297.122 29.7615 297.682 29.7081 298.255 29.7081C298.762 29.7081 299.262 29.7615 299.755 29.8681C300.248 29.9748 300.688 30.1481 301.075 30.3881C301.475 30.6281 301.795 30.9415 302.035 31.3281C302.275 31.7015 302.395 32.1615 302.395 32.7081V38.0281ZM300.115 35.1481C299.768 35.3748 299.342 35.5148 298.835 35.5681C298.328 35.6081 297.822 35.6748 297.315 35.7681C297.075 35.8081 296.842 35.8681 296.615 35.9481C296.388 36.0148 296.188 36.1148 296.015 36.2481C295.842 36.3681 295.702 36.5348 295.595 36.7481C295.502 36.9481 295.455 37.1948 295.455 37.4881C295.455 37.7415 295.528 37.9548 295.675 38.1281C295.822 38.3015 295.995 38.4415 296.195 38.5481C296.408 38.6415 296.635 38.7081 296.875 38.7481C297.128 38.7881 297.355 38.8081 297.555 38.8081C297.808 38.8081 298.082 38.7748 298.375 38.7081C298.668 38.6415 298.942 38.5281 299.195 38.3681C299.462 38.2081 299.682 38.0081 299.855 37.7681C300.028 37.5148 300.115 37.2081 300.115 36.8481V35.1481ZM314.408 39.7881C314.408 41.3481 313.968 42.5081 313.088 43.2681C312.222 44.0415 310.968 44.4281 309.328 44.4281C308.808 44.4281 308.282 44.3748 307.748 44.2681C307.228 44.1615 306.748 43.9815 306.308 43.7281C305.882 43.4748 305.522 43.1415 305.228 42.7281C304.935 42.3148 304.762 41.8081 304.708 41.2081H306.988C307.055 41.5281 307.168 41.7881 307.328 41.9881C307.488 42.1881 307.675 42.3415 307.888 42.4481C308.115 42.5681 308.362 42.6415 308.628 42.6681C308.895 42.7081 309.175 42.7281 309.468 42.7281C310.388 42.7281 311.062 42.5015 311.488 42.0481C311.915 41.5948 312.128 40.9415 312.128 40.0881V38.5081H312.088C311.768 39.0815 311.328 39.5281 310.768 39.8481C310.222 40.1681 309.628 40.3281 308.988 40.3281C308.162 40.3281 307.455 40.1881 306.868 39.9081C306.295 39.6148 305.815 39.2215 305.428 38.7281C305.055 38.2215 304.782 37.6415 304.608 36.9881C304.435 36.3348 304.348 35.6348 304.348 34.8881C304.348 34.1948 304.455 33.5348 304.668 32.9081C304.882 32.2815 305.188 31.7348 305.588 31.2681C305.988 30.7881 306.475 30.4081 307.048 30.1281C307.635 29.8481 308.295 29.7081 309.028 29.7081C309.682 29.7081 310.282 29.8481 310.828 30.1281C311.375 30.3948 311.795 30.8215 312.088 31.4081H312.128V29.9881H314.408V39.7881ZM309.348 38.5281C309.855 38.5281 310.282 38.4281 310.628 38.2281C310.988 38.0148 311.275 37.7415 311.488 37.4081C311.715 37.0615 311.875 36.6748 311.968 36.2481C312.075 35.8081 312.128 35.3681 312.128 34.9281C312.128 34.4881 312.075 34.0615 311.968 33.6481C311.862 33.2348 311.695 32.8681 311.468 32.5481C311.255 32.2281 310.968 31.9748 310.608 31.7881C310.262 31.6015 309.842 31.5081 309.348 31.5081C308.842 31.5081 308.415 31.6148 308.068 31.8281C307.722 32.0415 307.442 32.3215 307.228 32.6681C307.015 33.0015 306.862 33.3881 306.768 33.8281C306.675 34.2548 306.628 34.6815 306.628 35.1081C306.628 35.5348 306.682 35.9548 306.788 36.3681C306.895 36.7681 307.055 37.1281 307.268 37.4481C307.495 37.7681 307.775 38.0281 308.108 38.2281C308.455 38.4281 308.868 38.5281 309.348 38.5281ZM323.804 34.2481C323.777 33.8881 323.697 33.5415 323.564 33.2081C323.444 32.8748 323.271 32.5881 323.044 32.3481C322.831 32.0948 322.564 31.8948 322.244 31.7481C321.937 31.5881 321.591 31.5081 321.204 31.5081C320.804 31.5081 320.437 31.5815 320.104 31.7281C319.784 31.8615 319.504 32.0548 319.264 32.3081C319.037 32.5481 318.851 32.8348 318.704 33.1681C318.571 33.5015 318.497 33.8615 318.484 34.2481H323.804ZM318.484 35.7481C318.484 36.1481 318.537 36.5348 318.644 36.9081C318.764 37.2815 318.937 37.6081 319.164 37.8881C319.391 38.1681 319.677 38.3948 320.024 38.5681C320.371 38.7281 320.784 38.8081 321.264 38.8081C321.931 38.8081 322.464 38.6681 322.864 38.3881C323.277 38.0948 323.584 37.6615 323.784 37.0881H325.944C325.824 37.6481 325.617 38.1481 325.324 38.5881C325.031 39.0281 324.677 39.4015 324.264 39.7081C323.851 40.0015 323.384 40.2215 322.864 40.3681C322.357 40.5281 321.824 40.6081 321.264 40.6081C320.451 40.6081 319.731 40.4748 319.104 40.2081C318.477 39.9415 317.944 39.5681 317.504 39.0881C317.077 38.6081 316.751 38.0348 316.524 37.3681C316.311 36.7015 316.204 35.9681 316.204 35.1681C316.204 34.4348 316.317 33.7415 316.544 33.0881C316.784 32.4215 317.117 31.8415 317.544 31.3481C317.984 30.8415 318.511 30.4415 319.124 30.1481C319.737 29.8548 320.431 29.7081 321.204 29.7081C322.017 29.7081 322.744 29.8815 323.384 30.2281C324.037 30.5615 324.577 31.0081 325.004 31.5681C325.431 32.1281 325.737 32.7748 325.924 33.5081C326.124 34.2281 326.177 34.9748 326.084 35.7481H318.484ZM185.52 46.0481H195.8V48.2081H188.02V51.9481H195.22V53.9881H188.02V58.1681H195.94V60.3281H185.52V46.0481ZM200.578 54.8881L196.998 49.9881H199.758L201.918 53.1681L204.178 49.9881H206.818L203.298 54.7681L207.258 60.3281H204.518L201.898 56.5081L199.358 60.3281H196.678L200.578 54.8881ZM208.6 49.9881H210.76V51.3881H210.8C211.12 50.7881 211.567 50.3615 212.14 50.1081C212.713 49.8415 213.333 49.7081 214 49.7081C214.813 49.7081 215.52 49.8548 216.12 50.1481C216.733 50.4281 217.24 50.8215 217.64 51.3281C218.04 51.8215 218.34 52.4015 218.54 53.0681C218.74 53.7348 218.84 54.4481 218.84 55.2081C218.84 55.9015 218.747 56.5748 218.56 57.2281C218.387 57.8815 218.113 58.4615 217.74 58.9681C217.38 59.4615 216.92 59.8615 216.36 60.1681C215.8 60.4615 215.14 60.6081 214.38 60.6081C214.047 60.6081 213.713 60.5748 213.38 60.5081C213.047 60.4548 212.727 60.3615 212.42 60.2281C212.113 60.0948 211.827 59.9281 211.56 59.7281C211.307 59.5148 211.093 59.2681 210.92 58.9881H210.88V64.1481H208.6V49.9881ZM216.56 55.1681C216.56 54.7015 216.5 54.2481 216.38 53.8081C216.26 53.3681 216.08 52.9815 215.84 52.6481C215.6 52.3015 215.3 52.0281 214.94 51.8281C214.58 51.6148 214.167 51.5081 213.7 51.5081C212.74 51.5081 212.013 51.8415 211.52 52.5081C211.04 53.1748 210.8 54.0615 210.8 55.1681C210.8 55.6881 210.86 56.1748 210.98 56.6281C211.113 57.0681 211.307 57.4481 211.56 57.7681C211.813 58.0881 212.113 58.3415 212.46 58.5281C212.82 58.7148 213.233 58.8081 213.7 58.8081C214.22 58.8081 214.66 58.7015 215.02 58.4881C215.38 58.2748 215.673 58.0015 215.9 57.6681C216.14 57.3215 216.307 56.9348 216.4 56.5081C216.507 56.0681 216.56 55.6215 216.56 55.1681ZM227.866 54.2481C227.84 53.8881 227.76 53.5415 227.626 53.2081C227.506 52.8748 227.333 52.5881 227.106 52.3481C226.893 52.0948 226.626 51.8948 226.306 51.7481C226 51.5881 225.653 51.5081 225.266 51.5081C224.866 51.5081 224.5 51.5815 224.166 51.7281C223.846 51.8615 223.566 52.0548 223.326 52.3081C223.1 52.5481 222.913 52.8348 222.766 53.1681C222.633 53.5015 222.56 53.8615 222.546 54.2481H227.866ZM222.546 55.7481C222.546 56.1481 222.6 56.5348 222.706 56.9081C222.826 57.2815 223 57.6081 223.226 57.8881C223.453 58.1681 223.74 58.3948 224.086 58.5681C224.433 58.7281 224.846 58.8081 225.326 58.8081C225.993 58.8081 226.526 58.6681 226.926 58.3881C227.34 58.0948 227.646 57.6615 227.846 57.0881H230.006C229.886 57.6481 229.68 58.1481 229.386 58.5881C229.093 59.0281 228.74 59.4015 228.326 59.7081C227.913 60.0015 227.446 60.2215 226.926 60.3681C226.42 60.5281 225.886 60.6081 225.326 60.6081C224.513 60.6081 223.793 60.4748 223.166 60.2081C222.54 59.9415 222.006 59.5681 221.566 59.0881C221.14 58.6081 220.813 58.0348 220.586 57.3681C220.373 56.7015 220.266 55.9681 220.266 55.1681C220.266 54.4348 220.38 53.7415 220.606 53.0881C220.846 52.4215 221.18 51.8415 221.606 51.3481C222.046 50.8415 222.573 50.4415 223.186 50.1481C223.8 49.8548 224.493 49.7081 225.266 49.7081C226.08 49.7081 226.806 49.8815 227.446 50.2281C228.1 50.5615 228.64 51.0081 229.066 51.5681C229.493 52.1281 229.8 52.7748 229.986 53.5081C230.186 54.2281 230.24 54.9748 230.146 55.7481H222.546ZM231.88 49.9881H234.02V51.9881H234.06C234.126 51.7081 234.253 51.4348 234.44 51.1681C234.64 50.9015 234.873 50.6615 235.14 50.4481C235.42 50.2215 235.726 50.0415 236.06 49.9081C236.393 49.7748 236.733 49.7081 237.08 49.7081C237.346 49.7081 237.526 49.7148 237.62 49.7281C237.726 49.7415 237.833 49.7548 237.94 49.7681V51.9681C237.78 51.9415 237.613 51.9215 237.44 51.9081C237.28 51.8815 237.12 51.8681 236.96 51.8681C236.573 51.8681 236.206 51.9481 235.86 52.1081C235.526 52.2548 235.233 52.4815 234.98 52.7881C234.726 53.0815 234.526 53.4481 234.38 53.8881C234.233 54.3281 234.16 54.8348 234.16 55.4081V60.3281H231.88V49.9881ZM237.871 49.9881H239.591V46.8881H241.871V49.9881H243.931V51.6881H241.871V57.2081C241.871 57.4481 241.878 57.6548 241.891 57.8281C241.918 58.0015 241.964 58.1481 242.031 58.2681C242.111 58.3881 242.224 58.4815 242.371 58.5481C242.518 58.6015 242.718 58.6281 242.971 58.6281C243.131 58.6281 243.291 58.6281 243.451 58.6281C243.611 58.6148 243.771 58.5881 243.931 58.5481V60.3081C243.678 60.3348 243.431 60.3615 243.191 60.3881C242.951 60.4148 242.704 60.4281 242.451 60.4281C241.851 60.4281 241.364 60.3748 240.991 60.2681C240.631 60.1481 240.344 59.9815 240.131 59.7681C239.931 59.5415 239.791 59.2615 239.711 58.9281C239.644 58.5948 239.604 58.2148 239.591 57.7881V51.6881H237.871V49.9881Z" fill="#1A0803"/>
<defs>
<filter id="filter0_d_469_11112" x="0.328125" y="0.328125" width="165.672" height="85" filterUnits="userSpaceOnUse" color-interpolation-filters="sRGB">
<feFlood flood-opacity="0" result="BackgroundImageFix"/>
<feColorMatrix in="SourceAlpha" type="matrix" values="0 0 0 0 0 0 0 0 0 0 0 0 0 0 0 0 0 0 127 0" result="hardAlpha"/>
<feOffset dx="1" dy="1"/>
<feComposite in2="hardAlpha" operator="out"/>
<feColorMatrix type="matrix" values="0 0 0 0 0 0 0 0 0 0 0 0 0 0 0 0 0 0 1 0"/>
<feBlend mode="normal" in2="BackgroundImageFix" result="effect1_dropShadow_469_11112"/>
<feBlend mode="normal" in="SourceGraphic" in2="effect1_dropShadow_469_11112" result="shape"/>
</filter>
</defs>
</svg>
