<svg width="347" height="86" viewBox="0 0 347 86" fill="none" xmlns="http://www.w3.org/2000/svg">
<g filter="url(#filter0_d_469_11149)">
<rect x="1.32812" y="1.32812" width="162.672" height="82" rx="5" fill="#C493DD" shape-rendering="crispEdges"/>
<rect x="0.828125" y="0.828125" width="163.672" height="83" rx="5.5" stroke="black" shape-rendering="crispEdges"/>
<rect x="0.828125" y="0.828125" width="163.672" height="83" rx="5.5" stroke="black" stroke-opacity="0.2" shape-rendering="crispEdges"/>
<path fill-rule="evenodd" clip-rule="evenodd" d="M112.154 49.1696C112.154 53.5759 108.578 57.1479 104.167 57.1479C99.7562 57.1479 96.1804 53.5759 96.1804 49.1696C96.1804 44.7634 99.7562 41.1914 104.167 41.1914C108.578 41.1914 112.154 44.7634 112.154 49.1696Z" fill="#D6B3E7"/>
<path fill-rule="evenodd" clip-rule="evenodd" d="M104.167 42.2373C100.341 42.2373 97.2291 45.3463 97.2291 49.1681C97.2291 52.9899 100.341 56.0988 104.167 56.0988C107.993 56.0988 111.105 52.9899 111.105 49.1681C111.105 45.3463 107.993 42.2373 104.167 42.2373ZM104.167 58.1938C99.1852 58.1938 95.1318 54.1447 95.1318 49.1681C95.1318 44.1914 99.1852 40.1423 104.167 40.1423C109.149 40.1423 113.203 44.1914 113.203 49.1681C113.203 54.1447 109.149 58.1938 104.167 58.1938Z" fill="#0D0D0C"/>
<path fill-rule="evenodd" clip-rule="evenodd" d="M83.4549 74.0087C74.2969 74.0087 66.0323 68.5827 62.4004 60.1859L62.0596 59.3977C59.6316 53.7826 59.5367 47.5594 61.7943 41.8736C64.052 36.1878 68.3906 31.7203 74.0117 29.2943C76.9074 28.0446 79.9631 27.4109 83.0926 27.4109C92.2507 27.4109 100.515 32.8369 104.147 41.2336L104.488 42.0219C109.501 53.6129 104.139 67.1172 92.5359 72.1253C89.6396 73.3749 86.5845 74.0087 83.4549 74.0087Z" fill="#D6B3E7"/>
<path fill-rule="evenodd" clip-rule="evenodd" d="M83.0935 26.363C79.8197 26.363 76.6241 27.0261 73.5957 28.3328C67.7177 30.8694 63.1809 35.5412 60.82 41.4868C58.4596 47.4329 58.5576 53.9409 61.0973 59.8127L61.4387 60.6014C65.2362 69.382 73.8783 75.0558 83.4553 75.0558C86.7285 75.0558 89.9242 74.3933 92.952 73.086C98.83 70.5495 103.367 65.8777 105.728 59.9321C108.089 53.986 107.99 47.4779 105.45 41.6062L105.11 40.8179C101.312 32.0368 92.6699 26.363 83.0935 26.363ZM83.093 28.458C91.5568 28.458 99.6144 33.3938 103.184 41.6491L103.525 42.4368C108.317 53.5157 103.211 66.3768 92.1205 71.1633C89.2934 72.3831 86.3505 72.9608 83.4553 72.9608C74.9914 72.9608 66.9339 68.025 63.3634 59.7702L63.0226 58.982C58.231 47.9032 63.3372 35.042 74.4278 30.256C77.2543 29.0357 80.1978 28.458 83.093 28.458Z" fill="#0D0D0C"/>
<path fill-rule="evenodd" clip-rule="evenodd" d="M61.9836 57.1479C57.5726 57.1479 53.9968 53.5759 53.9968 49.1696C53.9968 44.7634 57.5726 41.1914 61.9836 41.1914C62.5351 41.1914 63.0731 41.2474 63.5932 41.3538" fill="#D6B3E7"/>
<path fill-rule="evenodd" clip-rule="evenodd" d="M61.9836 58.1938C57.0016 58.1938 52.9482 54.1447 52.9482 49.1681C52.9482 44.1914 57.0016 40.1423 61.9836 40.1423C62.5955 40.1423 63.2078 40.2041 63.8035 40.3256C64.3708 40.4419 64.7367 40.9955 64.6203 41.5622C64.5044 42.1284 63.9503 42.494 63.383 42.3782C62.9258 42.285 62.4549 42.2373 61.9836 42.2373C58.1577 42.2373 55.0455 45.3463 55.0455 49.1681C55.0455 52.9899 58.1577 56.0988 61.9836 56.0988C62.5629 56.0988 63.0322 56.5681 63.0322 57.1463C63.0322 57.7245 62.5629 58.1938 61.9836 58.1938Z" fill="#0D0D0C"/>
<path d="M68.0395 43.2653C72.0934 43.2653 75.3798 39.9824 75.3798 35.9328C75.3798 31.8832 72.0934 28.6003 68.0395 28.6003C63.9856 28.6003 60.6992 31.8832 60.6992 35.9328C60.6992 39.9824 63.9856 43.2653 68.0395 43.2653Z" fill="#0D0D0C"/>
<path d="M77.0395 36.2653C81.0934 36.2653 84.3798 32.9824 84.3798 28.9328C84.3798 24.8832 81.0934 21.6003 77.0395 21.6003C72.9856 21.6003 69.6992 24.8832 69.6992 28.9328C69.6992 32.9824 72.9856 36.2653 77.0395 36.2653Z" fill="#0D0D0C"/>
<path d="M81.9482 29.6003C87.4711 29.6003 91.9482 25.1232 91.9482 19.6003C91.9482 14.0775 87.4711 9.60034 81.9482 9.60034C76.4254 9.60034 71.9482 14.0775 71.9482 19.6003C71.9482 25.1232 76.4254 29.6003 81.9482 29.6003Z" fill="#0D0D0C"/>
<path d="M94.4482 28.6003C99.1427 28.6003 102.948 24.7948 102.948 20.1003C102.948 15.4059 99.1427 11.6003 94.4482 11.6003C89.7538 11.6003 85.9482 15.4059 85.9482 20.1003C85.9482 24.7948 89.7538 28.6003 94.4482 28.6003Z" fill="#0D0D0C"/>
<path d="M102.289 33.2653C106.342 33.2653 109.629 29.9824 109.629 25.9328C109.629 21.8832 106.342 18.6003 102.289 18.6003C98.2346 18.6003 94.9482 21.8832 94.9482 25.9328C94.9482 29.9824 98.2346 33.2653 102.289 33.2653Z" fill="#0D0D0C"/>
<path d="M68.9482 34.6003C73.9188 34.6003 77.9482 30.347 77.9482 25.1003C77.9482 19.8536 73.9188 15.6003 68.9482 15.6003C63.9777 15.6003 59.9482 19.8536 59.9482 25.1003C59.9482 30.347 63.9777 34.6003 68.9482 34.6003Z" fill="#0D0D0C"/>
<path d="M60.9482 45.6003C65.9188 45.6003 69.9482 41.347 69.9482 36.1003C69.9482 30.8536 65.9188 26.6003 60.9482 26.6003C55.9777 26.6003 51.9482 30.8536 51.9482 36.1003C51.9482 41.347 55.9777 45.6003 60.9482 45.6003Z" fill="#0D0D0C"/>
<path d="M87.0395 35.2653C91.0934 35.2653 94.3798 31.9824 94.3798 27.9328C94.3798 23.8832 91.0934 20.6003 87.0395 20.6003C82.9856 20.6003 79.6992 23.8832 79.6992 27.9328C79.6992 31.9824 82.9856 35.2653 87.0395 35.2653Z" fill="#0D0D0C"/>
<path d="M96.3176 36.9254C100.371 36.9254 103.658 33.6426 103.658 29.593C103.658 25.5434 100.371 22.2605 96.3176 22.2605C92.2636 22.2605 88.9773 25.5434 88.9773 29.593C88.9773 33.6426 92.2636 36.9254 96.3176 36.9254Z" fill="#0D0D0C"/>
<path d="M106.039 42.2653C110.093 42.2653 113.38 38.9824 113.38 34.9328C113.38 30.8832 110.093 27.6003 106.039 27.6003C101.986 27.6003 98.6992 30.8832 98.6992 34.9328C98.6992 38.9824 101.986 42.2653 106.039 42.2653Z" fill="#0D0D0C"/>
<path fill-rule="evenodd" clip-rule="evenodd" d="M86.5786 58.3953H90.5429C91.6361 58.3953 92.4456 56.8078 92.2013 55.1428L90.5319 43.7571C90.1444 41.1148 87.7719 40.9671 87.2508 43.5523L84.9559 54.938C84.6109 56.6512 85.4294 58.3953 86.5786 58.3953Z" fill="#8957A2"/>
<path fill-rule="evenodd" clip-rule="evenodd" d="M88.6647 60.47C87.1203 60.47 85.8932 59.9627 84.5121 59.2851C83.0619 58.574 81.5631 57.8387 78.6277 57.8387C77.7602 57.8387 77.0571 57.1349 77.0571 56.2665C77.0571 55.3982 77.7602 54.6944 78.6277 54.6944C82.2913 54.6944 84.2886 55.6743 85.8942 56.4615C87.7998 57.3964 88.85 57.911 92.4958 56.201C96.0228 54.546 98.186 54.2573 99.7299 55.2352C100.463 55.6995 100.681 56.6706 100.217 57.4043C99.7529 58.138 98.7828 58.3565 98.0499 57.8922C98.0195 57.8728 97.2625 57.4373 93.8287 59.0482C91.6425 60.0738 90.0295 60.47 88.6647 60.47Z" fill="#0D0D0C"/>
<path fill-rule="evenodd" clip-rule="evenodd" d="M88.3661 68.702C86.1068 68.9204 84.0986 67.2622 83.8806 64.9985C83.6626 62.7349 85.3176 60.7228 87.5768 60.5044C89.836 60.2864 91.8442 61.9441 92.0623 64.2078C92.2803 66.4714 90.6253 68.4835 88.3661 68.702Z" fill="#0D0D0C"/>
<path fill-rule="evenodd" clip-rule="evenodd" d="M84.3666 45.0736C83.788 45.0736 83.3185 44.6036 83.3185 44.0234C83.3185 43.2699 82.4223 42.1079 81.2317 42.1079C80.0405 42.1079 79.1443 43.2699 79.1443 44.0234C79.1443 44.6036 78.6753 45.0736 78.0962 45.0736C77.5177 45.0736 77.0481 44.6036 77.0481 44.0234C77.0481 42.1662 78.8755 40.0076 81.2317 40.0076C83.5873 40.0076 85.4147 42.1662 85.4147 44.0234C85.4147 44.6036 84.9452 45.0736 84.3666 45.0736Z" fill="#0D0D0C"/>
<path fill-rule="evenodd" clip-rule="evenodd" d="M97.9435 45.0736C97.3649 45.0736 96.8953 44.6036 96.8953 44.0234C96.8953 43.2699 95.9992 42.1079 94.8085 42.1079C93.6179 42.1079 92.7217 43.2699 92.7217 44.0234C92.7217 44.6036 92.2522 45.0736 91.6736 45.0736C91.0945 45.0736 90.6255 44.6036 90.6255 44.0234C90.6255 42.1662 92.4524 40.0076 94.8085 40.0076C97.1642 40.0076 98.9916 42.1662 98.9916 44.0234C98.9916 44.6036 98.522 45.0736 97.9435 45.0736Z" fill="#0D0D0C"/>
<path fill-rule="evenodd" clip-rule="evenodd" d="M98.6724 34.2661C103.574 34.2661 107.562 38.2537 107.562 43.1552C107.562 48.0573 103.574 52.0449 98.6724 52.0449C93.7709 52.0449 89.7833 48.0573 89.7833 43.1552C89.7833 42.8586 89.7979 42.5654 89.8264 42.2762C89.1962 41.8232 88.5994 41.9931 88.2038 42.2216C88.2368 42.5285 88.2533 42.84 88.2533 43.1552C88.2533 48.0573 84.2657 52.0449 79.3642 52.0449C74.4703 52.0449 70.4876 48.0698 70.4751 43.1784L64.5037 43.1784C63.9246 43.1784 63.4556 42.7094 63.4556 42.1303C63.4556 41.5512 63.9246 41.0822 64.5037 41.0822L70.7191 41.0823C71.6553 37.1773 75.1761 34.2661 79.3642 34.2661C83.2089 34.2661 86.4914 36.7196 87.728 40.1432C88.4943 39.8529 89.4038 39.7746 90.306 40.1499C91.5405 36.7231 94.8249 34.2661 98.6724 34.2661ZM79.3642 36.3624C75.6187 36.3624 72.5713 39.4098 72.5713 43.1552C72.5713 46.9012 75.6187 49.9486 79.3642 49.9486C83.1101 49.9486 86.157 46.9012 86.157 43.1552C86.157 39.4098 83.1101 36.3624 79.3642 36.3624ZM98.6724 36.3624C94.927 36.3624 91.8796 39.4098 91.8796 43.1552C91.8796 46.9012 94.927 49.9486 98.6724 49.9486C102.418 49.9486 105.465 46.9012 105.465 43.1552C105.465 39.4098 102.418 36.3624 98.6724 36.3624Z" fill="#8957A2"/>
</g>
<path d="M185.36 26.0481H187.86V34.3681C187.86 34.8481 187.88 35.3348 187.92 35.8281C187.973 36.3215 188.107 36.7681 188.32 37.1681C188.547 37.5548 188.88 37.8748 189.32 38.1281C189.773 38.3815 190.407 38.5081 191.22 38.5081C192.033 38.5081 192.66 38.3815 193.1 38.1281C193.553 37.8748 193.887 37.5548 194.1 37.1681C194.327 36.7681 194.46 36.3215 194.5 35.8281C194.553 35.3348 194.58 34.8481 194.58 34.3681V26.0481H197.08V35.1881C197.08 36.1081 196.94 36.9081 196.66 37.5881C196.38 38.2681 195.98 38.8415 195.46 39.3081C194.953 39.7615 194.34 40.1015 193.62 40.3281C192.9 40.5548 192.1 40.6681 191.22 40.6681C190.34 40.6681 189.54 40.5548 188.82 40.3281C188.1 40.1015 187.48 39.7615 186.96 39.3081C186.453 38.8415 186.06 38.2681 185.78 37.5881C185.5 36.9081 185.36 36.1081 185.36 35.1881V26.0481ZM199.634 29.9881H201.774V31.9881H201.814C201.88 31.7081 202.007 31.4348 202.194 31.1681C202.394 30.9015 202.627 30.6615 202.894 30.4481C203.174 30.2215 203.48 30.0415 203.814 29.9081C204.147 29.7748 204.487 29.7081 204.834 29.7081C205.1 29.7081 205.28 29.7148 205.374 29.7281C205.48 29.7415 205.587 29.7548 205.694 29.7681V31.9681C205.534 31.9415 205.367 31.9215 205.194 31.9081C205.034 31.8815 204.874 31.8681 204.714 31.8681C204.327 31.8681 203.96 31.9481 203.614 32.1081C203.28 32.2548 202.987 32.4815 202.734 32.7881C202.48 33.0815 202.28 33.4481 202.134 33.8881C201.987 34.3281 201.914 34.8348 201.914 35.4081V40.3281H199.634V29.9881ZM206.725 26.0481H209.005V31.3281H209.045C209.205 31.0748 209.398 30.8481 209.625 30.6481C209.852 30.4481 210.098 30.2815 210.365 30.1481C210.645 30.0015 210.932 29.8948 211.225 29.8281C211.532 29.7481 211.832 29.7081 212.125 29.7081C212.938 29.7081 213.645 29.8548 214.245 30.1481C214.858 30.4281 215.365 30.8215 215.765 31.3281C216.165 31.8215 216.465 32.4015 216.665 33.0681C216.865 33.7348 216.965 34.4481 216.965 35.2081C216.965 35.9015 216.872 36.5748 216.685 37.2281C216.512 37.8815 216.238 38.4615 215.865 38.9681C215.505 39.4615 215.045 39.8615 214.485 40.1681C213.925 40.4615 213.265 40.6081 212.505 40.6081C212.158 40.6081 211.805 40.5815 211.445 40.5281C211.098 40.4881 210.765 40.4015 210.445 40.2681C210.125 40.1348 209.832 39.9615 209.565 39.7481C209.312 39.5348 209.098 39.2548 208.925 38.9081H208.885V40.3281H206.725V26.0481ZM214.685 35.1681C214.685 34.7015 214.625 34.2481 214.505 33.8081C214.385 33.3681 214.205 32.9815 213.965 32.6481C213.725 32.3015 213.425 32.0281 213.065 31.8281C212.705 31.6148 212.292 31.5081 211.825 31.5081C210.865 31.5081 210.138 31.8415 209.645 32.5081C209.165 33.1748 208.925 34.0615 208.925 35.1681C208.925 35.6881 208.985 36.1748 209.105 36.6281C209.238 37.0681 209.432 37.4481 209.685 37.7681C209.938 38.0881 210.238 38.3415 210.585 38.5281C210.945 38.7148 211.358 38.8081 211.825 38.8081C212.345 38.8081 212.785 38.7015 213.145 38.4881C213.505 38.2748 213.798 38.0015 214.025 37.6681C214.265 37.3215 214.432 36.9348 214.525 36.5081C214.632 36.0681 214.685 35.6215 214.685 35.1681ZM227.551 38.0281C227.551 38.3081 227.585 38.5081 227.651 38.6281C227.731 38.7481 227.878 38.8081 228.091 38.8081C228.158 38.8081 228.238 38.8081 228.331 38.8081C228.425 38.8081 228.531 38.7948 228.651 38.7681V40.3481C228.571 40.3748 228.465 40.4015 228.331 40.4281C228.211 40.4681 228.085 40.5015 227.951 40.5281C227.818 40.5548 227.685 40.5748 227.551 40.5881C227.418 40.6015 227.305 40.6081 227.211 40.6081C226.745 40.6081 226.358 40.5148 226.051 40.3281C225.745 40.1415 225.545 39.8148 225.451 39.3481C224.998 39.7881 224.438 40.1081 223.771 40.3081C223.118 40.5081 222.485 40.6081 221.871 40.6081C221.405 40.6081 220.958 40.5415 220.531 40.4081C220.105 40.2881 219.725 40.1081 219.391 39.8681C219.071 39.6148 218.811 39.3015 218.611 38.9281C218.425 38.5415 218.331 38.0948 218.331 37.5881C218.331 36.9481 218.445 36.4281 218.671 36.0281C218.911 35.6281 219.218 35.3148 219.591 35.0881C219.978 34.8615 220.405 34.7015 220.871 34.6081C221.351 34.5015 221.831 34.4215 222.311 34.3681C222.725 34.2881 223.118 34.2348 223.491 34.2081C223.865 34.1681 224.191 34.1081 224.471 34.0281C224.765 33.9481 224.991 33.8281 225.151 33.6681C225.325 33.4948 225.411 33.2415 225.411 32.9081C225.411 32.6148 225.338 32.3748 225.191 32.1881C225.058 32.0015 224.885 31.8615 224.671 31.7681C224.471 31.6615 224.245 31.5948 223.991 31.5681C223.738 31.5281 223.498 31.5081 223.271 31.5081C222.631 31.5081 222.105 31.6415 221.691 31.9081C221.278 32.1748 221.045 32.5881 220.991 33.1481H218.711C218.751 32.4815 218.911 31.9281 219.191 31.4881C219.471 31.0481 219.825 30.6948 220.251 30.4281C220.691 30.1615 221.185 29.9748 221.731 29.8681C222.278 29.7615 222.838 29.7081 223.411 29.7081C223.918 29.7081 224.418 29.7615 224.911 29.8681C225.405 29.9748 225.845 30.1481 226.231 30.3881C226.631 30.6281 226.951 30.9415 227.191 31.3281C227.431 31.7015 227.551 32.1615 227.551 32.7081V38.0281ZM225.271 35.1481C224.925 35.3748 224.498 35.5148 223.991 35.5681C223.485 35.6081 222.978 35.6748 222.471 35.7681C222.231 35.8081 221.998 35.8681 221.771 35.9481C221.545 36.0148 221.345 36.1148 221.171 36.2481C220.998 36.3681 220.858 36.5348 220.751 36.7481C220.658 36.9481 220.611 37.1948 220.611 37.4881C220.611 37.7415 220.685 37.9548 220.831 38.1281C220.978 38.3015 221.151 38.4415 221.351 38.5481C221.565 38.6415 221.791 38.7081 222.031 38.7481C222.285 38.7881 222.511 38.8081 222.711 38.8081C222.965 38.8081 223.238 38.7748 223.531 38.7081C223.825 38.6415 224.098 38.5281 224.351 38.3681C224.618 38.2081 224.838 38.0081 225.011 37.7681C225.185 37.5148 225.271 37.2081 225.271 36.8481V35.1481ZM230.005 29.9881H232.165V31.5081L232.205 31.5481C232.551 30.9748 233.005 30.5281 233.565 30.2081C234.125 29.8748 234.745 29.7081 235.425 29.7081C236.558 29.7081 237.451 30.0015 238.105 30.5881C238.758 31.1748 239.085 32.0548 239.085 33.2281V40.3281H236.805V33.8281C236.778 33.0148 236.605 32.4281 236.285 32.0681C235.965 31.6948 235.465 31.5081 234.785 31.5081C234.398 31.5081 234.051 31.5815 233.745 31.7281C233.438 31.8615 233.178 32.0548 232.965 32.3081C232.751 32.5481 232.585 32.8348 232.465 33.1681C232.345 33.5015 232.285 33.8548 232.285 34.2281V40.3281H230.005V29.9881ZM251.195 26.0481H253.855L259.355 40.3281H256.675L255.335 36.5481H249.635L248.295 40.3281H245.715L251.195 26.0481ZM250.315 34.6481H254.675L252.535 28.5081H252.475L250.315 34.6481ZM260.395 29.9881H262.555V31.5081L262.595 31.5481C262.942 30.9748 263.395 30.5281 263.955 30.2081C264.515 29.8748 265.135 29.7081 265.815 29.7081C266.949 29.7081 267.842 30.0015 268.495 30.5881C269.149 31.1748 269.475 32.0548 269.475 33.2281V40.3281H267.195V33.8281C267.169 33.0148 266.995 32.4281 266.675 32.0681C266.355 31.6948 265.855 31.5081 265.175 31.5081C264.789 31.5081 264.442 31.5815 264.135 31.7281C263.829 31.8615 263.569 32.0548 263.355 32.3081C263.142 32.5481 262.975 32.8348 262.855 33.1681C262.735 33.5015 262.675 33.8548 262.675 34.2281V40.3281H260.395V29.9881ZM281.62 40.3281H279.46V38.9281H279.42C279.113 39.5281 278.666 39.9615 278.08 40.2281C277.493 40.4815 276.873 40.6081 276.22 40.6081C275.406 40.6081 274.693 40.4681 274.08 40.1881C273.48 39.8948 272.98 39.5015 272.58 39.0081C272.18 38.5148 271.88 37.9348 271.68 37.2681C271.48 36.5881 271.38 35.8615 271.38 35.0881C271.38 34.1548 271.506 33.3481 271.76 32.6681C272.013 31.9881 272.346 31.4281 272.76 30.9881C273.186 30.5481 273.666 30.2281 274.2 30.0281C274.746 29.8148 275.3 29.7081 275.86 29.7081C276.18 29.7081 276.506 29.7415 276.84 29.8081C277.173 29.8615 277.493 29.9548 277.8 30.0881C278.106 30.2215 278.386 30.3948 278.64 30.6081C278.906 30.8081 279.126 31.0481 279.3 31.3281H279.34V26.0481H281.62V40.3281ZM273.66 35.2681C273.66 35.7081 273.713 36.1415 273.82 36.5681C273.94 36.9948 274.113 37.3748 274.34 37.7081C274.58 38.0415 274.88 38.3081 275.24 38.5081C275.6 38.7081 276.026 38.8081 276.52 38.8081C277.026 38.8081 277.46 38.7015 277.82 38.4881C278.193 38.2748 278.493 37.9948 278.72 37.6481C278.96 37.3015 279.133 36.9148 279.24 36.4881C279.36 36.0481 279.42 35.6015 279.42 35.1481C279.42 34.0015 279.16 33.1081 278.64 32.4681C278.133 31.8281 277.44 31.5081 276.56 31.5081C276.026 31.5081 275.573 31.6215 275.2 31.8481C274.84 32.0615 274.54 32.3481 274.3 32.7081C274.073 33.0548 273.906 33.4548 273.8 33.9081C273.706 34.3481 273.66 34.8015 273.66 35.2681ZM184.16 46.0481H195.72V48.2081H191.18V60.3281H188.68V48.2081H184.16V46.0481ZM195.22 49.9881H197.36V51.9881H197.4C197.466 51.7081 197.593 51.4348 197.78 51.1681C197.98 50.9015 198.213 50.6615 198.48 50.4481C198.76 50.2215 199.066 50.0415 199.4 49.9081C199.733 49.7748 200.073 49.7081 200.42 49.7081C200.686 49.7081 200.866 49.7148 200.96 49.7281C201.066 49.7415 201.173 49.7548 201.28 49.7681V51.9681C201.12 51.9415 200.953 51.9215 200.78 51.9081C200.62 51.8815 200.46 51.8681 200.3 51.8681C199.913 51.8681 199.546 51.9481 199.2 52.1081C198.866 52.2548 198.573 52.4815 198.32 52.7881C198.066 53.0815 197.866 53.4481 197.72 53.8881C197.573 54.3281 197.5 54.8348 197.5 55.4081V60.3281H195.22V49.9881ZM210.911 58.0281C210.911 58.3081 210.944 58.5081 211.011 58.6281C211.091 58.7481 211.237 58.8081 211.451 58.8081C211.517 58.8081 211.597 58.8081 211.691 58.8081C211.784 58.8081 211.891 58.7948 212.011 58.7681V60.3481C211.931 60.3748 211.824 60.4015 211.691 60.4281C211.571 60.4681 211.444 60.5015 211.311 60.5281C211.177 60.5548 211.044 60.5748 210.911 60.5881C210.777 60.6015 210.664 60.6081 210.571 60.6081C210.104 60.6081 209.717 60.5148 209.411 60.3281C209.104 60.1415 208.904 59.8148 208.811 59.3481C208.357 59.7881 207.797 60.1081 207.131 60.3081C206.477 60.5081 205.844 60.6081 205.231 60.6081C204.764 60.6081 204.317 60.5415 203.891 60.4081C203.464 60.2881 203.084 60.1081 202.751 59.8681C202.431 59.6148 202.171 59.3015 201.971 58.9281C201.784 58.5415 201.691 58.0948 201.691 57.5881C201.691 56.9481 201.804 56.4281 202.031 56.0281C202.271 55.6281 202.577 55.3148 202.951 55.0881C203.337 54.8615 203.764 54.7015 204.231 54.6081C204.711 54.5015 205.191 54.4215 205.671 54.3681C206.084 54.2881 206.477 54.2348 206.851 54.2081C207.224 54.1681 207.551 54.1081 207.831 54.0281C208.124 53.9481 208.351 53.8281 208.511 53.6681C208.684 53.4948 208.771 53.2415 208.771 52.9081C208.771 52.6148 208.697 52.3748 208.551 52.1881C208.417 52.0015 208.244 51.8615 208.031 51.7681C207.831 51.6615 207.604 51.5948 207.351 51.5681C207.097 51.5281 206.857 51.5081 206.631 51.5081C205.991 51.5081 205.464 51.6415 205.051 51.9081C204.637 52.1748 204.404 52.5881 204.351 53.1481H202.071C202.111 52.4815 202.271 51.9281 202.551 51.4881C202.831 51.0481 203.184 50.6948 203.611 50.4281C204.051 50.1615 204.544 49.9748 205.091 49.8681C205.637 49.7615 206.197 49.7081 206.771 49.7081C207.277 49.7081 207.777 49.7615 208.271 49.8681C208.764 49.9748 209.204 50.1481 209.591 50.3881C209.991 50.6281 210.311 50.9415 210.551 51.3281C210.791 51.7015 210.911 52.1615 210.911 52.7081V58.0281ZM208.631 55.1481C208.284 55.3748 207.857 55.5148 207.351 55.5681C206.844 55.6081 206.337 55.6748 205.831 55.7681C205.591 55.8081 205.357 55.8681 205.131 55.9481C204.904 56.0148 204.704 56.1148 204.531 56.2481C204.357 56.3681 204.217 56.5348 204.111 56.7481C204.017 56.9481 203.971 57.1948 203.971 57.4881C203.971 57.7415 204.044 57.9548 204.191 58.1281C204.337 58.3015 204.511 58.4415 204.711 58.5481C204.924 58.6415 205.151 58.7081 205.391 58.7481C205.644 58.7881 205.871 58.8081 206.071 58.8081C206.324 58.8081 206.597 58.7748 206.891 58.7081C207.184 58.6415 207.457 58.5281 207.711 58.3681C207.977 58.2081 208.197 58.0081 208.371 57.7681C208.544 57.5148 208.631 57.2081 208.631 56.8481V55.1481ZM213.364 49.9881H215.524V51.5081L215.564 51.5481C215.911 50.9748 216.364 50.5281 216.924 50.2081C217.484 49.8748 218.104 49.7081 218.784 49.7081C219.917 49.7081 220.811 50.0015 221.464 50.5881C222.117 51.1748 222.444 52.0548 222.444 53.2281V60.3281H220.164V53.8281C220.137 53.0148 219.964 52.4281 219.644 52.0681C219.324 51.6948 218.824 51.5081 218.144 51.5081C217.757 51.5081 217.411 51.5815 217.104 51.7281C216.797 51.8615 216.537 52.0548 216.324 52.3081C216.111 52.5481 215.944 52.8348 215.824 53.1681C215.704 53.5015 215.644 53.8548 215.644 54.2281V60.3281H213.364V49.9881ZM226.568 57.0081C226.635 57.6748 226.888 58.1415 227.328 58.4081C227.768 58.6748 228.295 58.8081 228.908 58.8081C229.122 58.8081 229.362 58.7948 229.628 58.7681C229.908 58.7281 230.168 58.6615 230.408 58.5681C230.648 58.4748 230.842 58.3415 230.988 58.1681C231.148 57.9815 231.222 57.7415 231.208 57.4481C231.195 57.1548 231.088 56.9148 230.888 56.7281C230.688 56.5415 230.428 56.3948 230.108 56.2881C229.802 56.1681 229.448 56.0681 229.048 55.9881C228.648 55.9081 228.242 55.8215 227.828 55.7281C227.402 55.6348 226.988 55.5215 226.588 55.3881C226.202 55.2548 225.848 55.0748 225.528 54.8481C225.222 54.6215 224.975 54.3348 224.788 53.9881C224.602 53.6281 224.508 53.1881 224.508 52.6681C224.508 52.1081 224.642 51.6415 224.908 51.2681C225.188 50.8815 225.535 50.5748 225.948 50.3481C226.375 50.1081 226.842 49.9415 227.348 49.8481C227.868 49.7548 228.362 49.7081 228.828 49.7081C229.362 49.7081 229.868 49.7681 230.348 49.8881C230.842 49.9948 231.282 50.1748 231.668 50.4281C232.068 50.6815 232.395 51.0148 232.648 51.4281C232.915 51.8281 233.082 52.3148 233.148 52.8881H230.768C230.662 52.3415 230.408 51.9748 230.008 51.7881C229.622 51.6015 229.175 51.5081 228.668 51.5081C228.508 51.5081 228.315 51.5215 228.088 51.5481C227.875 51.5748 227.668 51.6281 227.468 51.7081C227.282 51.7748 227.122 51.8815 226.988 52.0281C226.855 52.1615 226.788 52.3415 226.788 52.5681C226.788 52.8481 226.882 53.0748 227.068 53.2481C227.268 53.4215 227.522 53.5681 227.828 53.6881C228.148 53.7948 228.508 53.8881 228.908 53.9681C229.308 54.0481 229.722 54.1348 230.148 54.2281C230.562 54.3215 230.968 54.4348 231.368 54.5681C231.768 54.7015 232.122 54.8815 232.428 55.1081C232.748 55.3348 233.002 55.6215 233.188 55.9681C233.388 56.3148 233.488 56.7415 233.488 57.2481C233.488 57.8615 233.348 58.3815 233.068 58.8081C232.788 59.2348 232.422 59.5815 231.968 59.8481C231.528 60.1148 231.035 60.3081 230.488 60.4281C229.942 60.5481 229.402 60.6081 228.868 60.6081C228.215 60.6081 227.608 60.5348 227.048 60.3881C226.502 60.2415 226.022 60.0215 225.608 59.7281C225.208 59.4215 224.888 59.0481 224.648 58.6081C224.422 58.1548 224.302 57.6215 224.288 57.0081H226.568ZM235.28 49.9881H237.44V51.3881H237.48C237.8 50.7881 238.246 50.3615 238.82 50.1081C239.393 49.8415 240.013 49.7081 240.68 49.7081C241.493 49.7081 242.2 49.8548 242.8 50.1481C243.413 50.4281 243.92 50.8215 244.32 51.3281C244.72 51.8215 245.02 52.4015 245.22 53.0681C245.42 53.7348 245.52 54.4481 245.52 55.2081C245.52 55.9015 245.426 56.5748 245.24 57.2281C245.066 57.8815 244.793 58.4615 244.42 58.9681C244.06 59.4615 243.6 59.8615 243.04 60.1681C242.48 60.4615 241.82 60.6081 241.06 60.6081C240.726 60.6081 240.393 60.5748 240.06 60.5081C239.726 60.4548 239.406 60.3615 239.1 60.2281C238.793 60.0948 238.506 59.9281 238.24 59.7281C237.986 59.5148 237.773 59.2681 237.6 58.9881H237.56V64.1481H235.28V49.9881ZM243.24 55.1681C243.24 54.7015 243.18 54.2481 243.06 53.8081C242.94 53.3681 242.76 52.9815 242.52 52.6481C242.28 52.3015 241.98 52.0281 241.62 51.8281C241.26 51.6148 240.846 51.5081 240.38 51.5081C239.42 51.5081 238.693 51.8415 238.2 52.5081C237.72 53.1748 237.48 54.0615 237.48 55.1681C237.48 55.6881 237.54 56.1748 237.66 56.6281C237.793 57.0681 237.986 57.4481 238.24 57.7681C238.493 58.0881 238.793 58.3415 239.14 58.5281C239.5 58.7148 239.913 58.8081 240.38 58.8081C240.9 58.8081 241.34 58.7015 241.7 58.4881C242.06 58.2748 242.353 58.0015 242.58 57.6681C242.82 57.3215 242.986 56.9348 243.08 56.5081C243.186 56.0681 243.24 55.6215 243.24 55.1681ZM252.186 60.6081C251.359 60.6081 250.619 60.4748 249.966 60.2081C249.326 59.9281 248.779 59.5481 248.326 59.0681C247.886 58.5881 247.546 58.0148 247.306 57.3481C247.079 56.6815 246.966 55.9481 246.966 55.1481C246.966 54.3615 247.079 53.6348 247.306 52.9681C247.546 52.3015 247.886 51.7281 248.326 51.2481C248.779 50.7681 249.326 50.3948 249.966 50.1281C250.619 49.8481 251.359 49.7081 252.186 49.7081C253.013 49.7081 253.746 49.8481 254.386 50.1281C255.039 50.3948 255.586 50.7681 256.026 51.2481C256.479 51.7281 256.819 52.3015 257.046 52.9681C257.286 53.6348 257.406 54.3615 257.406 55.1481C257.406 55.9481 257.286 56.6815 257.046 57.3481C256.819 58.0148 256.479 58.5881 256.026 59.0681C255.586 59.5481 255.039 59.9281 254.386 60.2081C253.746 60.4748 253.013 60.6081 252.186 60.6081ZM252.186 58.8081C252.693 58.8081 253.133 58.7015 253.506 58.4881C253.879 58.2748 254.186 57.9948 254.426 57.6481C254.666 57.3015 254.839 56.9148 254.946 56.4881C255.066 56.0481 255.126 55.6015 255.126 55.1481C255.126 54.7081 255.066 54.2681 254.946 53.8281C254.839 53.3881 254.666 53.0015 254.426 52.6681C254.186 52.3215 253.879 52.0415 253.506 51.8281C253.133 51.6148 252.693 51.5081 252.186 51.5081C251.679 51.5081 251.239 51.6148 250.866 51.8281C250.493 52.0415 250.186 52.3215 249.946 52.6681C249.706 53.0015 249.526 53.3881 249.406 53.8281C249.299 54.2681 249.246 54.7081 249.246 55.1481C249.246 55.6015 249.299 56.0481 249.406 56.4881C249.526 56.9148 249.706 57.3015 249.946 57.6481C250.186 57.9948 250.493 58.2748 250.866 58.4881C251.239 58.7015 251.679 58.8081 252.186 58.8081ZM259.302 49.9881H261.442V51.9881H261.482C261.548 51.7081 261.675 51.4348 261.862 51.1681C262.062 50.9015 262.295 50.6615 262.562 50.4481C262.842 50.2215 263.148 50.0415 263.482 49.9081C263.815 49.7748 264.155 49.7081 264.502 49.7081C264.768 49.7081 264.948 49.7148 265.042 49.7281C265.148 49.7415 265.255 49.7548 265.362 49.7681V51.9681C265.202 51.9415 265.035 51.9215 264.862 51.9081C264.702 51.8815 264.542 51.8681 264.382 51.8681C263.995 51.8681 263.628 51.9481 263.282 52.1081C262.948 52.2548 262.655 52.4815 262.402 52.7881C262.148 53.0815 261.948 53.4481 261.802 53.8881C261.655 54.3281 261.582 54.8348 261.582 55.4081V60.3281H259.302V49.9881ZM265.293 49.9881H267.013V46.8881H269.293V49.9881H271.353V51.6881H269.293V57.2081C269.293 57.4481 269.299 57.6548 269.313 57.8281C269.339 58.0015 269.386 58.1481 269.453 58.2681C269.533 58.3881 269.646 58.4815 269.793 58.5481C269.939 58.6015 270.139 58.6281 270.393 58.6281C270.553 58.6281 270.713 58.6281 270.873 58.6281C271.033 58.6148 271.193 58.5881 271.353 58.5481V60.3081C271.099 60.3348 270.853 60.3615 270.613 60.3881C270.373 60.4148 270.126 60.4281 269.873 60.4281C269.273 60.4281 268.786 60.3748 268.413 60.2681C268.053 60.1481 267.766 59.9815 267.553 59.7681C267.353 59.5415 267.213 59.2615 267.133 58.9281C267.066 58.5948 267.026 58.2148 267.013 57.7881V51.6881H265.293V49.9881ZM278.879 46.0481H289.159V48.2081H281.379V51.9481H288.579V53.9881H281.379V58.1681H289.299V60.3281H278.879V46.0481ZM293.937 54.8881L290.357 49.9881H293.117L295.277 53.1681L297.537 49.9881H300.177L296.657 54.7681L300.617 60.3281H297.877L295.257 56.5081L292.717 60.3281H290.037L293.937 54.8881ZM301.959 49.9881H304.119V51.3881H304.159C304.479 50.7881 304.926 50.3615 305.499 50.1081C306.073 49.8415 306.693 49.7081 307.359 49.7081C308.173 49.7081 308.879 49.8548 309.479 50.1481C310.093 50.4281 310.599 50.8215 310.999 51.3281C311.399 51.8215 311.699 52.4015 311.899 53.0681C312.099 53.7348 312.199 54.4481 312.199 55.2081C312.199 55.9015 312.106 56.5748 311.919 57.2281C311.746 57.8815 311.473 58.4615 311.099 58.9681C310.739 59.4615 310.279 59.8615 309.719 60.1681C309.159 60.4615 308.499 60.6081 307.739 60.6081C307.406 60.6081 307.073 60.5748 306.739 60.5081C306.406 60.4548 306.086 60.3615 305.779 60.2281C305.473 60.0948 305.186 59.9281 304.919 59.7281C304.666 59.5148 304.453 59.2681 304.279 58.9881H304.239V64.1481H301.959V49.9881ZM309.919 55.1681C309.919 54.7015 309.859 54.2481 309.739 53.8081C309.619 53.3681 309.439 52.9815 309.199 52.6481C308.959 52.3015 308.659 52.0281 308.299 51.8281C307.939 51.6148 307.526 51.5081 307.059 51.5081C306.099 51.5081 305.373 51.8415 304.879 52.5081C304.399 53.1748 304.159 54.0615 304.159 55.1681C304.159 55.6881 304.219 56.1748 304.339 56.6281C304.473 57.0681 304.666 57.4481 304.919 57.7681C305.173 58.0881 305.473 58.3415 305.819 58.5281C306.179 58.7148 306.593 58.8081 307.059 58.8081C307.579 58.8081 308.019 58.7015 308.379 58.4881C308.739 58.2748 309.033 58.0015 309.259 57.6681C309.499 57.3215 309.666 56.9348 309.759 56.5081C309.866 56.0681 309.919 55.6215 309.919 55.1681ZM321.226 54.2481C321.199 53.8881 321.119 53.5415 320.986 53.2081C320.866 52.8748 320.692 52.5881 320.466 52.3481C320.252 52.0948 319.986 51.8948 319.666 51.7481C319.359 51.5881 319.012 51.5081 318.626 51.5081C318.226 51.5081 317.859 51.5815 317.526 51.7281C317.206 51.8615 316.926 52.0548 316.686 52.3081C316.459 52.5481 316.272 52.8348 316.126 53.1681C315.992 53.5015 315.919 53.8615 315.906 54.2481H321.226ZM315.906 55.7481C315.906 56.1481 315.959 56.5348 316.066 56.9081C316.186 57.2815 316.359 57.6081 316.586 57.8881C316.812 58.1681 317.099 58.3948 317.446 58.5681C317.792 58.7281 318.206 58.8081 318.686 58.8081C319.352 58.8081 319.886 58.6681 320.286 58.3881C320.699 58.0948 321.006 57.6615 321.206 57.0881H323.366C323.246 57.6481 323.039 58.1481 322.746 58.5881C322.452 59.0281 322.099 59.4015 321.686 59.7081C321.272 60.0015 320.806 60.2215 320.286 60.3681C319.779 60.5281 319.246 60.6081 318.686 60.6081C317.872 60.6081 317.152 60.4748 316.526 60.2081C315.899 59.9415 315.366 59.5681 314.926 59.0881C314.499 58.6081 314.172 58.0348 313.946 57.3681C313.732 56.7015 313.626 55.9681 313.626 55.1681C313.626 54.4348 313.739 53.7415 313.966 53.0881C314.206 52.4215 314.539 51.8415 314.966 51.3481C315.406 50.8415 315.932 50.4415 316.546 50.1481C317.159 49.8548 317.852 49.7081 318.626 49.7081C319.439 49.7081 320.166 49.8815 320.806 50.2281C321.459 50.5615 321.999 51.0081 322.426 51.5681C322.852 52.1281 323.159 52.7748 323.346 53.5081C323.546 54.2281 323.599 54.9748 323.506 55.7481H315.906ZM325.239 49.9881H327.379V51.9881H327.419C327.486 51.7081 327.612 51.4348 327.799 51.1681C327.999 50.9015 328.232 50.6615 328.499 50.4481C328.779 50.2215 329.086 50.0415 329.419 49.9081C329.752 49.7748 330.092 49.7081 330.439 49.7081C330.706 49.7081 330.886 49.7148 330.979 49.7281C331.086 49.7415 331.192 49.7548 331.299 49.7681V51.9681C331.139 51.9415 330.972 51.9215 330.799 51.9081C330.639 51.8815 330.479 51.8681 330.319 51.8681C329.932 51.8681 329.566 51.9481 329.219 52.1081C328.886 52.2548 328.592 52.4815 328.339 52.7881C328.086 53.0815 327.886 53.4481 327.739 53.8881C327.592 54.3281 327.519 54.8348 327.519 55.4081V60.3281H325.239V49.9881ZM331.23 49.9881H332.95V46.8881H335.23V49.9881H337.29V51.6881H335.23V57.2081C335.23 57.4481 335.237 57.6548 335.25 57.8281C335.277 58.0015 335.324 58.1481 335.39 58.2681C335.47 58.3881 335.584 58.4815 335.73 58.5481C335.877 58.6015 336.077 58.6281 336.33 58.6281C336.49 58.6281 336.65 58.6281 336.81 58.6281C336.97 58.6148 337.13 58.5881 337.29 58.5481V60.3081C337.037 60.3348 336.79 60.3615 336.55 60.3881C336.31 60.4148 336.064 60.4281 335.81 60.4281C335.21 60.4281 334.724 60.3748 334.35 60.2681C333.99 60.1481 333.704 59.9815 333.49 59.7681C333.29 59.5415 333.15 59.2615 333.07 58.9281C333.004 58.5948 332.964 58.2148 332.95 57.7881V51.6881H331.23V49.9881Z" fill="#1A0803"/>
<defs>
<filter id="filter0_d_469_11149" x="0.328125" y="0.328125" width="165.672" height="85" filterUnits="userSpaceOnUse" color-interpolation-filters="sRGB">
<feFlood flood-opacity="0" result="BackgroundImageFix"/>
<feColorMatrix in="SourceAlpha" type="matrix" values="0 0 0 0 0 0 0 0 0 0 0 0 0 0 0 0 0 0 127 0" result="hardAlpha"/>
<feOffset dx="1" dy="1"/>
<feComposite in2="hardAlpha" operator="out"/>
<feColorMatrix type="matrix" values="0 0 0 0 0 0 0 0 0 0 0 0 0 0 0 0 0 0 1 0"/>
<feBlend mode="normal" in2="BackgroundImageFix" result="effect1_dropShadow_469_11149"/>
<feBlend mode="normal" in="SourceGraphic" in2="effect1_dropShadow_469_11149" result="shape"/>
</filter>
</defs>
</svg>
