<svg width="350" height="355" viewBox="0 0 350 355" fill="none" xmlns="http://www.w3.org/2000/svg">
<path d="M152.187 2.33212H153.937V12.3281H152.187V2.33212ZM155.86 5.09012H157.372V6.15412L157.4 6.18212C157.642 5.78079 157.96 5.46812 158.352 5.24412C158.744 5.01079 159.178 4.89412 159.654 4.89412C160.447 4.89412 161.072 5.09946 161.53 5.51012C161.987 5.92079 162.216 6.53679 162.216 7.35812V12.3281H160.62V7.77812C160.601 7.20879 160.48 6.79812 160.256 6.54612C160.032 6.28479 159.682 6.15412 159.206 6.15412C158.935 6.15412 158.692 6.20546 158.478 6.30812C158.263 6.40146 158.081 6.53679 157.932 6.71412C157.782 6.88212 157.666 7.08279 157.582 7.31612C157.498 7.54946 157.456 7.79679 157.456 8.05812V12.3281H155.86V5.09012ZM163.171 5.09012H164.375V2.92012H165.971V5.09012H167.413V6.28012H165.971V10.1441C165.971 10.3121 165.975 10.4568 165.985 10.5781C166.003 10.6995 166.036 10.8021 166.083 10.8861C166.139 10.9701 166.218 11.0355 166.321 11.0821C166.423 11.1195 166.563 11.1381 166.741 11.1381C166.853 11.1381 166.965 11.1381 167.077 11.1381C167.189 11.1288 167.301 11.1101 167.413 11.0821V12.3141C167.235 12.3328 167.063 12.3515 166.895 12.3701C166.727 12.3888 166.554 12.3981 166.377 12.3981C165.957 12.3981 165.616 12.3608 165.355 12.2861C165.103 12.2021 164.902 12.0855 164.753 11.9361C164.613 11.7775 164.515 11.5815 164.459 11.3481C164.412 11.1148 164.384 10.8488 164.375 10.5501V6.28012H163.171V5.09012ZM173.531 8.07212C173.512 7.82012 173.456 7.57746 173.363 7.34412C173.279 7.11079 173.157 6.91012 172.999 6.74212C172.849 6.56479 172.663 6.42479 172.439 6.32212C172.224 6.21012 171.981 6.15412 171.711 6.15412C171.431 6.15412 171.174 6.20546 170.941 6.30812C170.717 6.40146 170.521 6.53679 170.353 6.71412C170.194 6.88212 170.063 7.08279 169.961 7.31612C169.867 7.54946 169.816 7.80146 169.807 8.07212H173.531ZM169.807 9.12212C169.807 9.40212 169.844 9.67279 169.919 9.93412C170.003 10.1955 170.124 10.4241 170.283 10.6201C170.441 10.8161 170.642 10.9748 170.885 11.0961C171.127 11.2081 171.417 11.2641 171.753 11.2641C172.219 11.2641 172.593 11.1661 172.873 10.9701C173.162 10.7648 173.377 10.4615 173.517 10.0601H175.029C174.945 10.4521 174.8 10.8021 174.595 11.1101C174.389 11.4181 174.142 11.6795 173.853 11.8941C173.563 12.0995 173.237 12.2535 172.873 12.3561C172.518 12.4681 172.145 12.5241 171.753 12.5241C171.183 12.5241 170.679 12.4308 170.241 12.2441C169.802 12.0575 169.429 11.7961 169.121 11.4601C168.822 11.1241 168.593 10.7228 168.435 10.2561C168.285 9.78946 168.211 9.27612 168.211 8.71612C168.211 8.20279 168.29 7.71746 168.449 7.26012C168.617 6.79346 168.85 6.38746 169.149 6.04212C169.457 5.68746 169.825 5.40746 170.255 5.20212C170.684 4.99679 171.169 4.89412 171.711 4.89412C172.28 4.89412 172.789 5.01546 173.237 5.25813C173.694 5.49146 174.072 5.80412 174.371 6.19612C174.669 6.58812 174.884 7.04079 175.015 7.55412C175.155 8.05812 175.192 8.58079 175.127 9.12212H169.807ZM176.34 5.09012H177.838V6.49012H177.866C177.913 6.29412 178.001 6.10279 178.132 5.91612C178.272 5.72946 178.435 5.56146 178.622 5.41212C178.818 5.25346 179.033 5.12746 179.266 5.03412C179.499 4.94079 179.737 4.89412 179.98 4.89412C180.167 4.89412 180.293 4.89879 180.358 4.90812C180.433 4.91746 180.507 4.92679 180.582 4.93613V6.47612C180.47 6.45746 180.353 6.44346 180.232 6.43412C180.12 6.41546 180.008 6.40612 179.896 6.40612C179.625 6.40612 179.369 6.46212 179.126 6.57412C178.893 6.67679 178.687 6.83546 178.51 7.05012C178.333 7.25546 178.193 7.51212 178.09 7.82012C177.987 8.12812 177.936 8.48279 177.936 8.88412V12.3281H176.34V5.09012ZM185.986 8.07212C185.967 7.82012 185.911 7.57746 185.818 7.34412C185.734 7.11079 185.612 6.91012 185.454 6.74212C185.304 6.56479 185.118 6.42479 184.894 6.32212C184.679 6.21012 184.436 6.15412 184.166 6.15412C183.886 6.15412 183.629 6.20546 183.396 6.30812C183.172 6.40146 182.976 6.53679 182.808 6.71412C182.649 6.88212 182.518 7.08279 182.416 7.31612C182.322 7.54946 182.271 7.80146 182.262 8.07212H185.986ZM182.262 9.12212C182.262 9.40212 182.299 9.67279 182.374 9.93412C182.458 10.1955 182.579 10.4241 182.738 10.6201C182.896 10.8161 183.097 10.9748 183.34 11.0961C183.582 11.2081 183.872 11.2641 184.208 11.2641C184.674 11.2641 185.048 11.1661 185.328 10.9701C185.617 10.7648 185.832 10.4615 185.972 10.0601H187.484C187.4 10.4521 187.255 10.8021 187.05 11.1101C186.844 11.4181 186.597 11.6795 186.308 11.8941C186.018 12.0995 185.692 12.2535 185.328 12.3561C184.973 12.4681 184.6 12.5241 184.208 12.5241C183.638 12.5241 183.134 12.4308 182.696 12.2441C182.257 12.0575 181.884 11.7961 181.576 11.4601C181.277 11.1241 181.048 10.7228 180.89 10.2561C180.74 9.78946 180.666 9.27612 180.666 8.71612C180.666 8.20279 180.745 7.71746 180.904 7.26012C181.072 6.79346 181.305 6.38746 181.604 6.04212C181.912 5.68746 182.28 5.40746 182.71 5.20212C183.139 4.99679 183.624 4.89412 184.166 4.89412C184.735 4.89412 185.244 5.01546 185.692 5.25813C186.149 5.49146 186.527 5.80412 186.826 6.19612C187.124 6.58812 187.339 7.04079 187.47 7.55412C187.61 8.05812 187.647 8.58079 187.582 9.12212H182.262ZM189.999 10.0041C190.046 10.4708 190.223 10.7975 190.531 10.9841C190.839 11.1708 191.208 11.2641 191.637 11.2641C191.786 11.2641 191.954 11.2548 192.141 11.2361C192.337 11.2081 192.519 11.1615 192.687 11.0961C192.855 11.0308 192.99 10.9375 193.093 10.8161C193.205 10.6855 193.256 10.5175 193.247 10.3121C193.238 10.1068 193.163 9.93879 193.023 9.80812C192.883 9.67746 192.701 9.57479 192.477 9.50012C192.262 9.41612 192.015 9.34612 191.735 9.29012C191.455 9.23412 191.17 9.17346 190.881 9.10812C190.582 9.04279 190.293 8.96346 190.013 8.87012C189.742 8.77679 189.495 8.65079 189.271 8.49212C189.056 8.33346 188.884 8.13279 188.753 7.89012C188.622 7.63812 188.557 7.33012 188.557 6.96612C188.557 6.57412 188.65 6.24746 188.837 5.98612C189.033 5.71546 189.276 5.50079 189.565 5.34212C189.864 5.17412 190.19 5.05746 190.545 4.99212C190.909 4.92679 191.254 4.89412 191.581 4.89412C191.954 4.89412 192.309 4.93612 192.645 5.02012C192.99 5.09479 193.298 5.22079 193.569 5.39812C193.849 5.57546 194.078 5.80879 194.255 6.09812C194.442 6.37812 194.558 6.71879 194.605 7.12012H192.939C192.864 6.73746 192.687 6.48079 192.407 6.35012C192.136 6.21946 191.824 6.15412 191.469 6.15412C191.357 6.15412 191.222 6.16346 191.063 6.18212C190.914 6.20079 190.769 6.23812 190.629 6.29412C190.498 6.34079 190.386 6.41546 190.293 6.51812C190.2 6.61146 190.153 6.73746 190.153 6.89612C190.153 7.09212 190.218 7.25079 190.349 7.37212C190.489 7.49346 190.666 7.59612 190.881 7.68012C191.105 7.75479 191.357 7.82012 191.637 7.87612C191.917 7.93212 192.206 7.99279 192.505 8.05812C192.794 8.12346 193.079 8.20279 193.359 8.29612C193.639 8.38946 193.886 8.51546 194.101 8.67412C194.325 8.83279 194.502 9.03346 194.633 9.27612C194.773 9.51879 194.843 9.81746 194.843 10.1721C194.843 10.6015 194.745 10.9655 194.549 11.2641C194.353 11.5628 194.096 11.8055 193.779 11.9921C193.471 12.1788 193.126 12.3141 192.743 12.3981C192.36 12.4821 191.982 12.5241 191.609 12.5241C191.152 12.5241 190.727 12.4728 190.335 12.3701C189.952 12.2675 189.616 12.1135 189.327 11.9081C189.047 11.6935 188.823 11.4321 188.655 11.1241C188.496 10.8068 188.412 10.4335 188.403 10.0041H189.999ZM195.327 5.09012H196.531V2.92012H198.127V5.09012H199.569V6.28012H198.127V10.1441C198.127 10.3121 198.132 10.4568 198.141 10.5781C198.16 10.6995 198.192 10.8021 198.239 10.8861C198.295 10.9701 198.374 11.0355 198.477 11.0821C198.58 11.1195 198.72 11.1381 198.897 11.1381C199.009 11.1381 199.121 11.1381 199.233 11.1381C199.345 11.1288 199.457 11.1101 199.569 11.0821V12.3141C199.392 12.3328 199.219 12.3515 199.051 12.3701C198.883 12.3888 198.71 12.3981 198.533 12.3981C198.113 12.3981 197.772 12.3608 197.511 12.2861C197.259 12.2021 197.058 12.0855 196.909 11.9361C196.769 11.7775 196.671 11.5815 196.615 11.3481C196.568 11.1148 196.54 10.8488 196.531 10.5501V6.28012H195.327V5.09012Z" fill="#591B2C"/>
<path d="M278.426 71.9961C278.426 72.3788 278.491 72.7055 278.622 72.9761C278.753 73.2468 278.935 73.4708 279.168 73.6481C279.401 73.8161 279.667 73.9421 279.966 74.0261C280.274 74.1008 280.605 74.1381 280.96 74.1381C281.343 74.1381 281.669 74.0961 281.94 74.0121C282.211 73.9188 282.43 73.8021 282.598 73.6621C282.766 73.5221 282.887 73.3635 282.962 73.1861C283.037 72.9995 283.074 72.8128 283.074 72.6261C283.074 72.2435 282.985 71.9635 282.808 71.7861C282.64 71.5995 282.453 71.4688 282.248 71.3941C281.893 71.2635 281.478 71.1421 281.002 71.0301C280.535 70.9088 279.957 70.7548 279.266 70.5681C278.837 70.4561 278.477 70.3115 278.188 70.1341C277.908 69.9475 277.684 69.7421 277.516 69.5181C277.348 69.2941 277.227 69.0561 277.152 68.8041C277.087 68.5521 277.054 68.2955 277.054 68.0341C277.054 67.5301 277.157 67.0961 277.362 66.7321C277.577 66.3588 277.857 66.0508 278.202 65.8081C278.547 65.5655 278.939 65.3881 279.378 65.2761C279.817 65.1548 280.26 65.0941 280.708 65.0941C281.231 65.0941 281.721 65.1641 282.178 65.3041C282.645 65.4348 283.051 65.6355 283.396 65.9061C283.751 66.1768 284.031 66.5128 284.236 66.9141C284.441 67.3061 284.544 67.7635 284.544 68.2861H282.794C282.747 67.6421 282.528 67.1895 282.136 66.9281C281.744 66.6575 281.245 66.5221 280.638 66.5221C280.433 66.5221 280.223 66.5455 280.008 66.5921C279.793 66.6295 279.597 66.6995 279.42 66.8021C279.243 66.8955 279.093 67.0261 278.972 67.1941C278.86 67.3621 278.804 67.5721 278.804 67.8241C278.804 68.1788 278.911 68.4588 279.126 68.6641C279.35 68.8601 279.639 69.0095 279.994 69.1121C280.031 69.1215 280.176 69.1635 280.428 69.2381C280.689 69.3035 280.979 69.3781 281.296 69.4621C281.613 69.5461 281.921 69.6301 282.22 69.7141C282.528 69.7888 282.747 69.8448 282.878 69.8821C283.205 69.9848 283.489 70.1248 283.732 70.3021C283.975 70.4795 284.175 70.6848 284.334 70.9181C284.502 71.1421 284.623 71.3848 284.698 71.6461C284.782 71.9075 284.824 72.1688 284.824 72.4301C284.824 72.9901 284.707 73.4708 284.474 73.8721C284.25 74.2641 283.951 74.5861 283.578 74.8381C283.205 75.0901 282.78 75.2721 282.304 75.3841C281.828 75.5055 281.343 75.5661 280.848 75.5661C280.279 75.5661 279.742 75.4961 279.238 75.3561C278.734 75.2161 278.295 75.0015 277.922 74.7121C277.549 74.4228 277.25 74.0541 277.026 73.6061C276.802 73.1488 276.685 72.6121 276.676 71.9961H278.426ZM286.174 65.3321H287.77V71.0161L290.654 68.0901H292.614L289.842 70.7501L292.88 75.3281H290.934L288.722 71.8141L287.77 72.7381V75.3281H286.174V65.3321ZM298.622 71.0721C298.603 70.8201 298.547 70.5775 298.454 70.3441C298.37 70.1108 298.248 69.9101 298.09 69.7421C297.94 69.5648 297.754 69.4248 297.53 69.3221C297.315 69.2101 297.072 69.1541 296.802 69.1541C296.522 69.1541 296.265 69.2055 296.032 69.3081C295.808 69.4015 295.612 69.5368 295.444 69.7141C295.285 69.8821 295.154 70.0828 295.052 70.3161C294.958 70.5495 294.907 70.8015 294.898 71.0721H298.622ZM294.898 72.1221C294.898 72.4021 294.935 72.6728 295.01 72.9341C295.094 73.1955 295.215 73.4241 295.374 73.6201C295.532 73.8161 295.733 73.9748 295.976 74.0961C296.218 74.2081 296.508 74.2641 296.844 74.2641C297.31 74.2641 297.684 74.1661 297.964 73.9701C298.253 73.7648 298.468 73.4615 298.608 73.0601H300.12C300.036 73.4521 299.891 73.8021 299.686 74.1101C299.48 74.4181 299.233 74.6795 298.944 74.8941C298.654 75.0995 298.328 75.2535 297.964 75.3561C297.609 75.4681 297.236 75.5241 296.844 75.5241C296.274 75.5241 295.77 75.4308 295.332 75.2441C294.893 75.0575 294.52 74.7961 294.212 74.4601C293.913 74.1241 293.684 73.7228 293.526 73.2561C293.376 72.7895 293.302 72.2761 293.302 71.7161C293.302 71.2028 293.381 70.7175 293.54 70.2601C293.708 69.7935 293.941 69.3875 294.24 69.0421C294.548 68.6875 294.916 68.4075 295.346 68.2021C295.775 67.9968 296.26 67.8941 296.802 67.8941C297.371 67.8941 297.88 68.0155 298.328 68.2581C298.785 68.4915 299.163 68.8041 299.462 69.1961C299.76 69.5881 299.975 70.0408 300.106 70.5541C300.246 71.0581 300.283 71.5808 300.218 72.1221H294.898ZM301.473 68.0901H302.985V69.0701H303.013C303.237 68.6501 303.549 68.3515 303.951 68.1741C304.352 67.9875 304.786 67.8941 305.253 67.8941C305.822 67.8941 306.317 67.9968 306.737 68.2021C307.166 68.3981 307.521 68.6735 307.801 69.0281C308.081 69.3735 308.291 69.7795 308.431 70.2461C308.571 70.7128 308.641 71.2121 308.641 71.7441C308.641 72.2295 308.575 72.7008 308.445 73.1581C308.323 73.6155 308.132 74.0215 307.871 74.3761C307.619 74.7215 307.297 75.0015 306.905 75.2161C306.513 75.4215 306.051 75.5241 305.519 75.5241C305.285 75.5241 305.052 75.5008 304.819 75.4541C304.585 75.4168 304.361 75.3515 304.147 75.2581C303.932 75.1648 303.731 75.0481 303.545 74.9081C303.367 74.7588 303.218 74.5861 303.097 74.3901H303.069V78.0021H301.473V68.0901ZM307.045 71.7161C307.045 71.3895 307.003 71.0721 306.919 70.7641C306.835 70.4561 306.709 70.1855 306.541 69.9521C306.373 69.7095 306.163 69.5181 305.911 69.3781C305.659 69.2288 305.369 69.1541 305.043 69.1541C304.371 69.1541 303.862 69.3875 303.517 69.8541C303.181 70.3208 303.013 70.9415 303.013 71.7161C303.013 72.0801 303.055 72.4208 303.139 72.7381C303.232 73.0461 303.367 73.3121 303.545 73.5361C303.722 73.7601 303.932 73.9375 304.175 74.0681C304.427 74.1988 304.716 74.2641 305.043 74.2641C305.407 74.2641 305.715 74.1895 305.967 74.0401C306.219 73.8908 306.424 73.6995 306.583 73.4661C306.751 73.2235 306.867 72.9528 306.933 72.6541C307.007 72.3461 307.045 72.0335 307.045 71.7161ZM309.261 68.0901H310.465V65.9201H312.061V68.0901H313.503V69.2801H312.061V73.1441C312.061 73.3121 312.066 73.4568 312.075 73.5781C312.094 73.6995 312.127 73.8021 312.173 73.8861C312.229 73.9701 312.309 74.0355 312.411 74.0821C312.514 74.1195 312.654 74.1381 312.831 74.1381C312.943 74.1381 313.055 74.1381 313.167 74.1381C313.279 74.1288 313.391 74.1101 313.503 74.0821V75.3141C313.326 75.3328 313.153 75.3515 312.985 75.3701C312.817 75.3888 312.645 75.3981 312.467 75.3981C312.047 75.3981 311.707 75.3608 311.445 75.2861C311.193 75.2021 310.993 75.0855 310.843 74.9361C310.703 74.7775 310.605 74.5815 310.549 74.3481C310.503 74.1148 310.475 73.8488 310.465 73.5501V69.2801H309.261V68.0901ZM314.694 65.3321H316.29V66.8441H314.694V65.3321ZM314.694 68.0901H316.29V75.3281H314.694V68.0901ZM322.914 70.5121C322.849 70.0641 322.667 69.7281 322.368 69.5041C322.079 69.2708 321.71 69.1541 321.262 69.1541C321.057 69.1541 320.838 69.1915 320.604 69.2661C320.371 69.3315 320.156 69.4621 319.96 69.6581C319.764 69.8448 319.601 70.1108 319.47 70.4561C319.34 70.7921 319.274 71.2355 319.274 71.7861C319.274 72.0848 319.307 72.3835 319.372 72.6821C319.447 72.9808 319.559 73.2468 319.708 73.4801C319.867 73.7135 320.068 73.9048 320.31 74.0541C320.553 74.1941 320.847 74.2641 321.192 74.2641C321.659 74.2641 322.042 74.1195 322.34 73.8301C322.648 73.5408 322.84 73.1348 322.914 72.6121H324.51C324.361 73.5548 324.002 74.2781 323.432 74.7821C322.872 75.2768 322.126 75.5241 321.192 75.5241C320.623 75.5241 320.119 75.4308 319.68 75.2441C319.251 75.0481 318.887 74.7868 318.588 74.4601C318.29 74.1241 318.061 73.7275 317.902 73.2701C317.753 72.8128 317.678 72.3181 317.678 71.7861C317.678 71.2448 317.753 70.7361 317.902 70.2601C318.052 69.7841 318.276 69.3735 318.574 69.0281C318.873 68.6735 319.242 68.3981 319.68 68.2021C320.128 67.9968 320.651 67.8941 321.248 67.8941C321.668 67.8941 322.065 67.9501 322.438 68.0621C322.821 68.1648 323.157 68.3235 323.446 68.5381C323.745 68.7528 323.988 69.0235 324.174 69.3501C324.361 69.6768 324.473 70.0641 324.51 70.5121H322.914ZM325.85 65.3321H327.446V66.8441H325.85V65.3321ZM325.85 68.0901H327.446V75.3281H325.85V68.0901ZM330.389 73.0041C330.435 73.4708 330.613 73.7975 330.921 73.9841C331.229 74.1708 331.597 74.2641 332.027 74.2641C332.176 74.2641 332.344 74.2548 332.531 74.2361C332.727 74.2081 332.909 74.1615 333.077 74.0961C333.245 74.0308 333.38 73.9375 333.483 73.8161C333.595 73.6855 333.646 73.5175 333.637 73.3121C333.627 73.1068 333.553 72.9388 333.413 72.8081C333.273 72.6775 333.091 72.5748 332.867 72.5001C332.652 72.4161 332.405 72.3461 332.125 72.2901C331.845 72.2341 331.56 72.1735 331.271 72.1081C330.972 72.0428 330.683 71.9635 330.403 71.8701C330.132 71.7768 329.885 71.6508 329.661 71.4921C329.446 71.3335 329.273 71.1328 329.143 70.8901C329.012 70.6381 328.947 70.3301 328.947 69.9661C328.947 69.5741 329.04 69.2475 329.227 68.9861C329.423 68.7155 329.665 68.5008 329.955 68.3421C330.253 68.1741 330.58 68.0575 330.935 67.9921C331.299 67.9268 331.644 67.8941 331.971 67.8941C332.344 67.8941 332.699 67.9361 333.035 68.0201C333.38 68.0948 333.688 68.2208 333.959 68.3981C334.239 68.5755 334.467 68.8088 334.645 69.0981C334.831 69.3781 334.948 69.7188 334.995 70.1201H333.329C333.254 69.7375 333.077 69.4808 332.797 69.3501C332.526 69.2195 332.213 69.1541 331.859 69.1541C331.747 69.1541 331.611 69.1635 331.453 69.1821C331.303 69.2008 331.159 69.2381 331.019 69.2941C330.888 69.3408 330.776 69.4155 330.683 69.5181C330.589 69.6115 330.543 69.7375 330.543 69.8961C330.543 70.0921 330.608 70.2508 330.739 70.3721C330.879 70.4935 331.056 70.5961 331.271 70.6801C331.495 70.7548 331.747 70.8201 332.027 70.8761C332.307 70.9321 332.596 70.9928 332.895 71.0581C333.184 71.1235 333.469 71.2028 333.749 71.2961C334.029 71.3895 334.276 71.5155 334.491 71.6741C334.715 71.8328 334.892 72.0335 335.023 72.2761C335.163 72.5188 335.233 72.8175 335.233 73.1721C335.233 73.6015 335.135 73.9655 334.939 74.2641C334.743 74.5628 334.486 74.8055 334.169 74.9921C333.861 75.1788 333.515 75.3141 333.133 75.3981C332.75 75.4821 332.372 75.5241 331.999 75.5241C331.541 75.5241 331.117 75.4728 330.725 75.3701C330.342 75.2675 330.006 75.1135 329.717 74.9081C329.437 74.6935 329.213 74.4321 329.045 74.1241C328.886 73.8068 328.802 73.4335 328.793 73.0041H330.389ZM336.444 68.0901H337.956V69.0981H337.998C338.12 68.9208 338.25 68.7575 338.39 68.6081C338.53 68.4588 338.684 68.3328 338.852 68.2301C339.03 68.1275 339.23 68.0481 339.454 67.9921C339.678 67.9268 339.935 67.8941 340.224 67.8941C340.663 67.8941 341.069 67.9921 341.442 68.1881C341.825 68.3841 342.096 68.6875 342.254 69.0981C342.525 68.7248 342.838 68.4308 343.192 68.2161C343.547 68.0015 343.99 67.8941 344.522 67.8941C345.288 67.8941 345.88 68.0808 346.3 68.4541C346.73 68.8275 346.944 69.4528 346.944 70.3301V75.3281H345.348V71.1001C345.348 70.8108 345.339 70.5495 345.32 70.3161C345.302 70.0735 345.246 69.8681 345.152 69.7001C345.068 69.5228 344.938 69.3875 344.76 69.2941C344.583 69.2008 344.34 69.1541 344.032 69.1541C343.491 69.1541 343.099 69.3221 342.856 69.6581C342.614 69.9941 342.492 70.4701 342.492 71.0861V75.3281H340.896V70.6801C340.896 70.1761 340.803 69.7981 340.616 69.5461C340.439 69.2848 340.108 69.1541 339.622 69.1541C339.417 69.1541 339.216 69.1961 339.02 69.2801C338.834 69.3641 338.666 69.4855 338.516 69.6441C338.376 69.8028 338.26 69.9988 338.166 70.2321C338.082 70.4655 338.04 70.7315 338.04 71.0301V75.3281H336.444V68.0901Z" fill="#591B2C"/>
<path d="M9.71163 65.3321H11.5736L15.4236 75.3281H13.5476L12.6096 72.6821H8.61963L7.68163 75.3281H5.87563L9.71163 65.3321ZM9.09563 71.3521H12.1476L10.6496 67.0541H10.6076L9.09563 71.3521ZM22.9695 75.3281H21.4575V74.3481H21.4295C21.2149 74.7681 20.9022 75.0715 20.4915 75.2581C20.0809 75.4355 19.6469 75.5241 19.1895 75.5241C18.6202 75.5241 18.1209 75.4261 17.6915 75.2301C17.2715 75.0248 16.9215 74.7495 16.6415 74.4041C16.3615 74.0588 16.1515 73.6528 16.0115 73.1861C15.8715 72.7101 15.8015 72.2015 15.8015 71.6601C15.8015 71.0068 15.8902 70.4421 16.0675 69.9661C16.2449 69.4901 16.4782 69.0981 16.7675 68.7901C17.0662 68.4821 17.4022 68.2581 17.7755 68.1181C18.1582 67.9688 18.5455 67.8941 18.9375 67.8941C19.1615 67.8941 19.3902 67.9175 19.6235 67.9641C19.8569 68.0015 20.0809 68.0668 20.2955 68.1601C20.5102 68.2535 20.7062 68.3748 20.8835 68.5241C21.0702 68.6641 21.2242 68.8321 21.3455 69.0281H21.3735V65.3321H22.9695V75.3281ZM17.3975 71.7861C17.3975 72.0941 17.4349 72.3975 17.5095 72.6961C17.5935 72.9948 17.7149 73.2608 17.8735 73.4941C18.0415 73.7275 18.2515 73.9141 18.5035 74.0541C18.7555 74.1941 19.0542 74.2641 19.3995 74.2641C19.7542 74.2641 20.0575 74.1895 20.3095 74.0401C20.5709 73.8908 20.7809 73.6948 20.9395 73.4521C21.1075 73.2095 21.2289 72.9388 21.3035 72.6401C21.3875 72.3321 21.4295 72.0195 21.4295 71.7021C21.4295 70.8995 21.2475 70.2741 20.8835 69.8261C20.5289 69.3781 20.0435 69.1541 19.4275 69.1541C19.0542 69.1541 18.7369 69.2335 18.4755 69.3921C18.2235 69.5415 18.0135 69.7421 17.8455 69.9941C17.6869 70.2368 17.5702 70.5168 17.4955 70.8341C17.4302 71.1421 17.3975 71.4595 17.3975 71.7861ZM23.9961 68.0901H25.7321L27.5661 73.6481H27.5941L29.3581 68.0901H31.0101L28.4201 75.3281H26.6281L23.9961 68.0901ZM35.2879 75.5241C34.7092 75.5241 34.1912 75.4308 33.7339 75.2441C33.2859 75.0481 32.9032 74.7821 32.5859 74.4461C32.2779 74.1101 32.0399 73.7088 31.8719 73.2421C31.7132 72.7755 31.6339 72.2621 31.6339 71.7021C31.6339 71.1515 31.7132 70.6428 31.8719 70.1761C32.0399 69.7095 32.2779 69.3081 32.5859 68.9721C32.9032 68.6361 33.2859 68.3748 33.7339 68.1881C34.1912 67.9921 34.7092 67.8941 35.2879 67.8941C35.8665 67.8941 36.3799 67.9921 36.8279 68.1881C37.2852 68.3748 37.6679 68.6361 37.9759 68.9721C38.2932 69.3081 38.5312 69.7095 38.6899 70.1761C38.8579 70.6428 38.9419 71.1515 38.9419 71.7021C38.9419 72.2621 38.8579 72.7755 38.6899 73.2421C38.5312 73.7088 38.2932 74.1101 37.9759 74.4461C37.6679 74.7821 37.2852 75.0481 36.8279 75.2441C36.3799 75.4308 35.8665 75.5241 35.2879 75.5241ZM35.2879 74.2641C35.6425 74.2641 35.9505 74.1895 36.2119 74.0401C36.4732 73.8908 36.6879 73.6948 36.8559 73.4521C37.0239 73.2095 37.1452 72.9388 37.2199 72.6401C37.3039 72.3321 37.3459 72.0195 37.3459 71.7021C37.3459 71.3941 37.3039 71.0861 37.2199 70.7781C37.1452 70.4701 37.0239 70.1995 36.8559 69.9661C36.6879 69.7235 36.4732 69.5275 36.2119 69.3781C35.9505 69.2288 35.6425 69.1541 35.2879 69.1541C34.9332 69.1541 34.6252 69.2288 34.3639 69.3781C34.1025 69.5275 33.8879 69.7235 33.7199 69.9661C33.5519 70.1995 33.4259 70.4701 33.3419 70.7781C33.2672 71.0861 33.2299 71.3941 33.2299 71.7021C33.2299 72.0195 33.2672 72.3321 33.3419 72.6401C33.4259 72.9388 33.5519 73.2095 33.7199 73.4521C33.8879 73.6948 34.1025 73.8908 34.3639 74.0401C34.6252 74.1895 34.9332 74.2641 35.2879 74.2641ZM45.1547 70.5121C45.0894 70.0641 44.9074 69.7281 44.6087 69.5041C44.3194 69.2708 43.9507 69.1541 43.5027 69.1541C43.2974 69.1541 43.078 69.1915 42.8447 69.2661C42.6114 69.3315 42.3967 69.4621 42.2007 69.6581C42.0047 69.8448 41.8414 70.1108 41.7107 70.4561C41.58 70.7921 41.5147 71.2355 41.5147 71.7861C41.5147 72.0848 41.5474 72.3835 41.6127 72.6821C41.6874 72.9808 41.7994 73.2468 41.9487 73.4801C42.1074 73.7135 42.308 73.9048 42.5507 74.0541C42.7934 74.1941 43.0874 74.2641 43.4327 74.2641C43.8994 74.2641 44.282 74.1195 44.5807 73.8301C44.8887 73.5408 45.08 73.1348 45.1547 72.6121H46.7507C46.6014 73.5548 46.242 74.2781 45.6727 74.7821C45.1127 75.2768 44.366 75.5241 43.4327 75.5241C42.8634 75.5241 42.3594 75.4308 41.9207 75.2441C41.4914 75.0481 41.1274 74.7868 40.8287 74.4601C40.53 74.1241 40.3014 73.7275 40.1427 73.2701C39.9934 72.8128 39.9187 72.3181 39.9187 71.7861C39.9187 71.2448 39.9934 70.7361 40.1427 70.2601C40.292 69.7841 40.516 69.3735 40.8147 69.0281C41.1134 68.6735 41.482 68.3981 41.9207 68.2021C42.3687 67.9968 42.8914 67.8941 43.4887 67.8941C43.9087 67.8941 44.3054 67.9501 44.6787 68.0621C45.0614 68.1648 45.3974 68.3235 45.6867 68.5381C45.9854 68.7528 46.228 69.0235 46.4147 69.3501C46.6014 69.6768 46.7134 70.0641 46.7507 70.5121H45.1547ZM54.11 73.7181C54.11 73.9141 54.1333 74.0541 54.18 74.1381C54.236 74.2221 54.3387 74.2641 54.488 74.2641C54.5347 74.2641 54.5907 74.2641 54.656 74.2641C54.7213 74.2641 54.796 74.2548 54.88 74.2361V75.3421C54.824 75.3608 54.7493 75.3795 54.656 75.3981C54.572 75.4261 54.4833 75.4495 54.39 75.4681C54.2967 75.4868 54.2033 75.5008 54.11 75.5101C54.0167 75.5195 53.9373 75.5241 53.872 75.5241C53.5453 75.5241 53.2747 75.4588 53.06 75.3281C52.8453 75.1975 52.7053 74.9688 52.64 74.6421C52.3227 74.9501 51.9307 75.1741 51.464 75.3141C51.0067 75.4541 50.5633 75.5241 50.134 75.5241C49.8073 75.5241 49.4947 75.4775 49.196 75.3841C48.8973 75.3001 48.6313 75.1741 48.398 75.0061C48.174 74.8288 47.992 74.6095 47.852 74.3481C47.7213 74.0775 47.656 73.7648 47.656 73.4101C47.656 72.9621 47.7353 72.5981 47.894 72.3181C48.062 72.0381 48.2767 71.8188 48.538 71.6601C48.8087 71.5015 49.1073 71.3895 49.434 71.3241C49.77 71.2495 50.106 71.1935 50.442 71.1561C50.7313 71.1001 51.0067 71.0628 51.268 71.0441C51.5293 71.0161 51.758 70.9741 51.954 70.9181C52.1593 70.8621 52.318 70.7781 52.43 70.6661C52.5513 70.5448 52.612 70.3675 52.612 70.1341C52.612 69.9288 52.5607 69.7608 52.458 69.6301C52.3647 69.4995 52.2433 69.4015 52.094 69.3361C51.954 69.2615 51.7953 69.2148 51.618 69.1961C51.4407 69.1681 51.2727 69.1541 51.114 69.1541C50.666 69.1541 50.2973 69.2475 50.008 69.4341C49.7187 69.6208 49.5553 69.9101 49.518 70.3021H47.922C47.95 69.8355 48.062 69.4481 48.258 69.1401C48.454 68.8321 48.7013 68.5848 49 68.3981C49.308 68.2115 49.6533 68.0808 50.036 68.0061C50.4187 67.9315 50.8107 67.8941 51.212 67.8941C51.5667 67.8941 51.9167 67.9315 52.262 68.0061C52.6073 68.0808 52.9153 68.2021 53.186 68.3701C53.466 68.5381 53.69 68.7575 53.858 69.0281C54.026 69.2895 54.11 69.6115 54.11 69.9941V73.7181ZM52.514 71.7021C52.2713 71.8608 51.9727 71.9588 51.618 71.9961C51.2633 72.0241 50.9087 72.0708 50.554 72.1361C50.386 72.1641 50.2227 72.2061 50.064 72.2621C49.9053 72.3088 49.7653 72.3788 49.644 72.4721C49.5227 72.5561 49.4247 72.6728 49.35 72.8221C49.2847 72.9621 49.252 73.1348 49.252 73.3401C49.252 73.5175 49.3033 73.6668 49.406 73.7881C49.5087 73.9095 49.63 74.0075 49.77 74.0821C49.9193 74.1475 50.078 74.1941 50.246 74.2221C50.4233 74.2501 50.582 74.2641 50.722 74.2641C50.8993 74.2641 51.0907 74.2408 51.296 74.1941C51.5013 74.1475 51.6927 74.0681 51.87 73.9561C52.0567 73.8441 52.2107 73.7041 52.332 73.5361C52.4533 73.3588 52.514 73.1441 52.514 72.8921V71.7021ZM60.7133 70.5121C60.648 70.0641 60.466 69.7281 60.1673 69.5041C59.878 69.2708 59.5093 69.1541 59.0613 69.1541C58.856 69.1541 58.6366 69.1915 58.4033 69.2661C58.17 69.3315 57.9553 69.4621 57.7593 69.6581C57.5633 69.8448 57.4 70.1108 57.2693 70.4561C57.1386 70.7921 57.0733 71.2355 57.0733 71.7861C57.0733 72.0848 57.106 72.3835 57.1713 72.6821C57.246 72.9808 57.358 73.2468 57.5073 73.4801C57.666 73.7135 57.8666 73.9048 58.1093 74.0541C58.352 74.1941 58.646 74.2641 58.9913 74.2641C59.458 74.2641 59.8406 74.1195 60.1393 73.8301C60.4473 73.5408 60.6386 73.1348 60.7133 72.6121H62.3093C62.16 73.5548 61.8006 74.2781 61.2313 74.7821C60.6713 75.2768 59.9246 75.5241 58.9913 75.5241C58.422 75.5241 57.918 75.4308 57.4793 75.2441C57.05 75.0481 56.686 74.7868 56.3873 74.4601C56.0886 74.1241 55.86 73.7275 55.7013 73.2701C55.552 72.8128 55.4773 72.3181 55.4773 71.7861C55.4773 71.2448 55.552 70.7361 55.7013 70.2601C55.8506 69.7841 56.0746 69.3735 56.3733 69.0281C56.672 68.6735 57.0406 68.3981 57.4793 68.2021C57.9273 67.9968 58.45 67.8941 59.0473 67.8941C59.4673 67.8941 59.864 67.9501 60.2373 68.0621C60.62 68.1648 60.956 68.3235 61.2453 68.5381C61.544 68.7528 61.7866 69.0235 61.9733 69.3501C62.16 69.6768 62.272 70.0641 62.3093 70.5121H60.7133ZM62.8086 68.0901H64.5586L66.4486 73.4941H66.4766L68.3106 68.0901H69.9766L67.1626 75.7201C67.0319 76.0468 66.9013 76.3595 66.7706 76.6581C66.6493 76.9568 66.4953 77.2181 66.3086 77.4421C66.1313 77.6755 65.9073 77.8575 65.6366 77.9881C65.3659 78.1281 65.0206 78.1981 64.6006 78.1981C64.2273 78.1981 63.8586 78.1701 63.4946 78.1141V76.7701C63.6253 76.7888 63.7513 76.8075 63.8726 76.8261C63.9939 76.8541 64.1199 76.8681 64.2506 76.8681C64.4373 76.8681 64.5913 76.8448 64.7126 76.7981C64.8339 76.7515 64.9319 76.6815 65.0066 76.5881C65.0906 76.5041 65.1606 76.4015 65.2166 76.2801C65.2726 76.1588 65.3239 76.0188 65.3706 75.8601L65.5526 75.3001L62.8086 68.0901Z" fill="#591B2C"/>
<path d="M29.03 276.332H30.892L34.742 286.328H32.866L31.928 283.682H27.938L27 286.328H25.194L29.03 276.332ZM28.414 282.352H31.466L29.968 278.054H29.926L28.414 282.352ZM42.1619 285.95C42.1619 287.042 41.8539 287.854 41.2379 288.386C40.6312 288.927 39.7539 289.198 38.6059 289.198C38.2419 289.198 37.8732 289.161 37.4999 289.086C37.1359 289.011 36.7999 288.885 36.4919 288.708C36.1932 288.531 35.9412 288.297 35.7359 288.008C35.5305 287.719 35.4092 287.364 35.3719 286.944H36.9679C37.0145 287.168 37.0939 287.35 37.2059 287.49C37.3179 287.63 37.4485 287.737 37.5979 287.812C37.7565 287.896 37.9292 287.947 38.1159 287.966C38.3025 287.994 38.4985 288.008 38.7039 288.008C39.3479 288.008 39.8192 287.849 40.1179 287.532C40.4165 287.215 40.5659 286.757 40.5659 286.16V285.054H40.5379C40.3139 285.455 40.0059 285.768 39.6139 285.992C39.2312 286.216 38.8159 286.328 38.3679 286.328C37.7892 286.328 37.2945 286.23 36.8839 286.034C36.4825 285.829 36.1465 285.553 35.8759 285.208C35.6145 284.853 35.4232 284.447 35.3019 283.99C35.1805 283.533 35.1199 283.043 35.1199 282.52C35.1199 282.035 35.1945 281.573 35.3439 281.134C35.4932 280.695 35.7079 280.313 35.9879 279.986C36.2679 279.65 36.6085 279.384 37.0099 279.188C37.4205 278.992 37.8825 278.894 38.3959 278.894C38.8532 278.894 39.2732 278.992 39.6559 279.188C40.0385 279.375 40.3325 279.673 40.5379 280.084H40.5659V279.09H42.1619V285.95ZM38.6199 285.068C38.9745 285.068 39.2732 284.998 39.5159 284.858C39.7679 284.709 39.9685 284.517 40.1179 284.284C40.2765 284.041 40.3885 283.771 40.4539 283.472C40.5285 283.164 40.5659 282.856 40.5659 282.548C40.5659 282.24 40.5285 281.941 40.4539 281.652C40.3792 281.363 40.2625 281.106 40.1039 280.882C39.9545 280.658 39.7539 280.481 39.5019 280.35C39.2592 280.219 38.9652 280.154 38.6199 280.154C38.2652 280.154 37.9665 280.229 37.7239 280.378C37.4812 280.527 37.2852 280.723 37.1359 280.966C36.9865 281.199 36.8792 281.47 36.8139 281.778C36.7485 282.077 36.7159 282.375 36.7159 282.674C36.7159 282.973 36.7532 283.267 36.8279 283.556C36.9025 283.836 37.0145 284.088 37.1639 284.312C37.3225 284.536 37.5185 284.718 37.7519 284.858C37.9945 284.998 38.2839 285.068 38.6199 285.068ZM48.7387 282.072C48.72 281.82 48.664 281.577 48.5707 281.344C48.4867 281.111 48.3654 280.91 48.2067 280.742C48.0574 280.565 47.8707 280.425 47.6467 280.322C47.432 280.21 47.1894 280.154 46.9187 280.154C46.6387 280.154 46.382 280.205 46.1487 280.308C45.9247 280.401 45.7287 280.537 45.5607 280.714C45.402 280.882 45.2714 281.083 45.1687 281.316C45.0754 281.549 45.024 281.801 45.0147 282.072H48.7387ZM45.0147 283.122C45.0147 283.402 45.052 283.673 45.1267 283.934C45.2107 284.195 45.332 284.424 45.4907 284.62C45.6494 284.816 45.85 284.975 46.0927 285.096C46.3354 285.208 46.6247 285.264 46.9607 285.264C47.4274 285.264 47.8007 285.166 48.0807 284.97C48.37 284.765 48.5847 284.461 48.7247 284.06H50.2367C50.1527 284.452 50.008 284.802 49.8027 285.11C49.5974 285.418 49.35 285.679 49.0607 285.894C48.7714 286.099 48.4447 286.253 48.0807 286.356C47.726 286.468 47.3527 286.524 46.9607 286.524C46.3914 286.524 45.8874 286.431 45.4487 286.244C45.01 286.057 44.6367 285.796 44.3287 285.46C44.03 285.124 43.8014 284.723 43.6427 284.256C43.4934 283.789 43.4187 283.276 43.4187 282.716C43.4187 282.203 43.498 281.717 43.6567 281.26C43.8247 280.793 44.058 280.387 44.3567 280.042C44.6647 279.687 45.0334 279.407 45.4627 279.202C45.892 278.997 46.3774 278.894 46.9187 278.894C47.488 278.894 47.9967 279.015 48.4447 279.258C48.902 279.491 49.28 279.804 49.5787 280.196C49.8774 280.588 50.092 281.041 50.2227 281.554C50.3627 282.058 50.4 282.581 50.3347 283.122H45.0147Z" fill="#591B2C"/>
<path d="M140.258 341.332H142.008V345.882L146.46 341.332H148.616L144.626 345.322L148.896 351.328H146.712L143.436 346.554L142.008 347.968V351.328H140.258V341.332ZM149.618 344.09H151.13V345.154L151.158 345.182C151.401 344.781 151.718 344.468 152.11 344.244C152.502 344.011 152.936 343.894 153.412 343.894C154.206 343.894 154.831 344.099 155.288 344.51C155.746 344.921 155.974 345.537 155.974 346.358V351.328H154.378V346.778C154.36 346.209 154.238 345.798 154.014 345.546C153.79 345.285 153.44 345.154 152.964 345.154C152.694 345.154 152.451 345.205 152.236 345.308C152.022 345.401 151.84 345.537 151.69 345.714C151.541 345.882 151.424 346.083 151.34 346.316C151.256 346.549 151.214 346.797 151.214 347.058V351.328H149.618V344.09ZM160.975 351.524C160.397 351.524 159.879 351.431 159.421 351.244C158.973 351.048 158.591 350.782 158.273 350.446C157.965 350.11 157.727 349.709 157.559 349.242C157.401 348.775 157.321 348.262 157.321 347.702C157.321 347.151 157.401 346.643 157.559 346.176C157.727 345.709 157.965 345.308 158.273 344.972C158.591 344.636 158.973 344.375 159.421 344.188C159.879 343.992 160.397 343.894 160.975 343.894C161.554 343.894 162.067 343.992 162.515 344.188C162.973 344.375 163.355 344.636 163.663 344.972C163.981 345.308 164.219 345.709 164.377 346.176C164.545 346.643 164.629 347.151 164.629 347.702C164.629 348.262 164.545 348.775 164.377 349.242C164.219 349.709 163.981 350.11 163.663 350.446C163.355 350.782 162.973 351.048 162.515 351.244C162.067 351.431 161.554 351.524 160.975 351.524ZM160.975 350.264C161.33 350.264 161.638 350.189 161.899 350.04C162.161 349.891 162.375 349.695 162.543 349.452C162.711 349.209 162.833 348.939 162.907 348.64C162.991 348.332 163.033 348.019 163.033 347.702C163.033 347.394 162.991 347.086 162.907 346.778C162.833 346.47 162.711 346.199 162.543 345.966C162.375 345.723 162.161 345.527 161.899 345.378C161.638 345.229 161.33 345.154 160.975 345.154C160.621 345.154 160.313 345.229 160.051 345.378C159.79 345.527 159.575 345.723 159.407 345.966C159.239 346.199 159.113 346.47 159.029 346.778C158.955 347.086 158.917 347.394 158.917 347.702C158.917 348.019 158.955 348.332 159.029 348.64C159.113 348.939 159.239 349.209 159.407 349.452C159.575 349.695 159.79 349.891 160.051 350.04C160.313 350.189 160.621 350.264 160.975 350.264ZM165.298 344.09H166.992L168.406 349.494H168.434L169.792 344.09H171.402L172.704 349.494H172.732L174.202 344.09H175.826L173.558 351.328H171.92L170.576 345.952H170.548L169.218 351.328H167.538L165.298 344.09ZM176.895 341.332H178.491V351.328H176.895V341.332ZM185.2 347.072C185.181 346.82 185.125 346.577 185.032 346.344C184.948 346.111 184.826 345.91 184.668 345.742C184.518 345.565 184.332 345.425 184.108 345.322C183.893 345.21 183.65 345.154 183.38 345.154C183.1 345.154 182.843 345.205 182.61 345.308C182.386 345.401 182.19 345.537 182.022 345.714C181.863 345.882 181.732 346.083 181.63 346.316C181.536 346.549 181.485 346.801 181.476 347.072H185.2ZM181.476 348.122C181.476 348.402 181.513 348.673 181.588 348.934C181.672 349.195 181.793 349.424 181.952 349.62C182.11 349.816 182.311 349.975 182.554 350.096C182.796 350.208 183.086 350.264 183.422 350.264C183.888 350.264 184.262 350.166 184.542 349.97C184.831 349.765 185.046 349.461 185.186 349.06H186.698C186.614 349.452 186.469 349.802 186.264 350.11C186.058 350.418 185.811 350.679 185.522 350.894C185.232 351.099 184.906 351.253 184.542 351.356C184.187 351.468 183.814 351.524 183.422 351.524C182.852 351.524 182.348 351.431 181.91 351.244C181.471 351.057 181.098 350.796 180.79 350.46C180.491 350.124 180.262 349.723 180.104 349.256C179.954 348.789 179.88 348.276 179.88 347.716C179.88 347.203 179.959 346.717 180.118 346.26C180.286 345.793 180.519 345.387 180.818 345.042C181.126 344.687 181.494 344.407 181.924 344.202C182.353 343.997 182.838 343.894 183.38 343.894C183.949 343.894 184.458 344.015 184.906 344.258C185.363 344.491 185.741 344.804 186.04 345.196C186.338 345.588 186.553 346.041 186.684 346.554C186.824 347.058 186.861 347.581 186.796 348.122H181.476ZM194.827 351.328H193.315V350.348H193.287C193.072 350.768 192.76 351.071 192.349 351.258C191.938 351.435 191.504 351.524 191.047 351.524C190.478 351.524 189.978 351.426 189.549 351.23C189.129 351.025 188.779 350.749 188.499 350.404C188.219 350.059 188.009 349.653 187.869 349.186C187.729 348.71 187.659 348.201 187.659 347.66C187.659 347.007 187.748 346.442 187.925 345.966C188.102 345.49 188.336 345.098 188.625 344.79C188.924 344.482 189.26 344.258 189.633 344.118C190.016 343.969 190.403 343.894 190.795 343.894C191.019 343.894 191.248 343.917 191.481 343.964C191.714 344.001 191.938 344.067 192.153 344.16C192.368 344.253 192.564 344.375 192.741 344.524C192.928 344.664 193.082 344.832 193.203 345.028H193.231V341.332H194.827V351.328ZM189.255 347.786C189.255 348.094 189.292 348.397 189.367 348.696C189.451 348.995 189.572 349.261 189.731 349.494C189.899 349.727 190.109 349.914 190.361 350.054C190.613 350.194 190.912 350.264 191.257 350.264C191.612 350.264 191.915 350.189 192.167 350.04C192.428 349.891 192.638 349.695 192.797 349.452C192.965 349.209 193.086 348.939 193.161 348.64C193.245 348.332 193.287 348.019 193.287 347.702C193.287 346.899 193.105 346.274 192.741 345.826C192.386 345.378 191.901 345.154 191.285 345.154C190.912 345.154 190.594 345.233 190.333 345.392C190.081 345.541 189.871 345.742 189.703 345.994C189.544 346.237 189.428 346.517 189.353 346.834C189.288 347.142 189.255 347.459 189.255 347.786ZM203.26 350.95C203.26 352.042 202.952 352.854 202.336 353.386C201.729 353.927 200.852 354.198 199.704 354.198C199.34 354.198 198.971 354.161 198.598 354.086C198.234 354.011 197.898 353.885 197.59 353.708C197.291 353.531 197.039 353.297 196.834 353.008C196.628 352.719 196.507 352.364 196.47 351.944H198.066C198.112 352.168 198.192 352.35 198.304 352.49C198.416 352.63 198.546 352.737 198.696 352.812C198.854 352.896 199.027 352.947 199.214 352.966C199.4 352.994 199.596 353.008 199.802 353.008C200.446 353.008 200.917 352.849 201.216 352.532C201.514 352.215 201.664 351.757 201.664 351.16V350.054H201.636C201.412 350.455 201.104 350.768 200.712 350.992C200.329 351.216 199.914 351.328 199.466 351.328C198.887 351.328 198.392 351.23 197.982 351.034C197.58 350.829 197.244 350.553 196.974 350.208C196.712 349.853 196.521 349.447 196.4 348.99C196.278 348.533 196.218 348.043 196.218 347.52C196.218 347.035 196.292 346.573 196.442 346.134C196.591 345.695 196.806 345.313 197.086 344.986C197.366 344.65 197.706 344.384 198.108 344.188C198.518 343.992 198.98 343.894 199.494 343.894C199.951 343.894 200.371 343.992 200.754 344.188C201.136 344.375 201.43 344.673 201.636 345.084H201.664V344.09H203.26V350.95ZM199.718 350.068C200.072 350.068 200.371 349.998 200.614 349.858C200.866 349.709 201.066 349.517 201.216 349.284C201.374 349.041 201.486 348.771 201.552 348.472C201.626 348.164 201.664 347.856 201.664 347.548C201.664 347.24 201.626 346.941 201.552 346.652C201.477 346.363 201.36 346.106 201.202 345.882C201.052 345.658 200.852 345.481 200.6 345.35C200.357 345.219 200.063 345.154 199.718 345.154C199.363 345.154 199.064 345.229 198.822 345.378C198.579 345.527 198.383 345.723 198.234 345.966C198.084 346.199 197.977 346.47 197.912 346.778C197.846 347.077 197.814 347.375 197.814 347.674C197.814 347.973 197.851 348.267 197.926 348.556C198 348.836 198.112 349.088 198.262 349.312C198.42 349.536 198.616 349.718 198.85 349.858C199.092 349.998 199.382 350.068 199.718 350.068ZM209.836 347.072C209.818 346.82 209.762 346.577 209.668 346.344C209.584 346.111 209.463 345.91 209.304 345.742C209.155 345.565 208.968 345.425 208.744 345.322C208.53 345.21 208.287 345.154 208.016 345.154C207.736 345.154 207.48 345.205 207.246 345.308C207.022 345.401 206.826 345.537 206.658 345.714C206.5 345.882 206.369 346.083 206.266 346.316C206.173 346.549 206.122 346.801 206.112 347.072H209.836ZM206.112 348.122C206.112 348.402 206.15 348.673 206.224 348.934C206.308 349.195 206.43 349.424 206.588 349.62C206.747 349.816 206.948 349.975 207.19 350.096C207.433 350.208 207.722 350.264 208.058 350.264C208.525 350.264 208.898 350.166 209.178 349.97C209.468 349.765 209.682 349.461 209.822 349.06H211.334C211.25 349.452 211.106 349.802 210.9 350.11C210.695 350.418 210.448 350.679 210.158 350.894C209.869 351.099 209.542 351.253 209.178 351.356C208.824 351.468 208.45 351.524 208.058 351.524C207.489 351.524 206.985 351.431 206.546 351.244C206.108 351.057 205.734 350.796 205.426 350.46C205.128 350.124 204.899 349.723 204.74 349.256C204.591 348.789 204.516 348.276 204.516 347.716C204.516 347.203 204.596 346.717 204.754 346.26C204.922 345.793 205.156 345.387 205.454 345.042C205.762 344.687 206.131 344.407 206.56 344.202C206.99 343.997 207.475 343.894 208.016 343.894C208.586 343.894 209.094 344.015 209.542 344.258C210 344.491 210.378 344.804 210.676 345.196C210.975 345.588 211.19 346.041 211.32 346.554C211.46 347.058 211.498 347.581 211.432 348.122H206.112Z" fill="#591B2C"/>
<path d="M296.696 277.522C296.164 277.522 295.702 277.629 295.31 277.844C294.927 278.059 294.615 278.348 294.372 278.712C294.129 279.067 293.947 279.473 293.826 279.93C293.714 280.387 293.658 280.854 293.658 281.33C293.658 281.806 293.714 282.273 293.826 282.73C293.947 283.187 294.129 283.598 294.372 283.962C294.615 284.317 294.927 284.601 295.31 284.816C295.702 285.031 296.164 285.138 296.696 285.138C297.228 285.138 297.685 285.031 298.068 284.816C298.46 284.601 298.777 284.317 299.02 283.962C299.263 283.598 299.44 283.187 299.552 282.73C299.673 282.273 299.734 281.806 299.734 281.33C299.734 280.854 299.673 280.387 299.552 279.93C299.44 279.473 299.263 279.067 299.02 278.712C298.777 278.348 298.46 278.059 298.068 277.844C297.685 277.629 297.228 277.522 296.696 277.522ZM296.696 276.094C297.443 276.094 298.11 276.234 298.698 276.514C299.295 276.794 299.799 277.172 300.21 277.648C300.621 278.124 300.933 278.679 301.148 279.314C301.372 279.949 301.484 280.621 301.484 281.33C301.484 282.049 301.372 282.725 301.148 283.36C300.933 283.995 300.621 284.55 300.21 285.026C299.799 285.502 299.295 285.88 298.698 286.16C298.11 286.431 297.443 286.566 296.696 286.566C295.949 286.566 295.277 286.431 294.68 286.16C294.092 285.88 293.593 285.502 293.182 285.026C292.771 284.55 292.454 283.995 292.23 283.36C292.015 282.725 291.908 282.049 291.908 281.33C291.908 280.621 292.015 279.949 292.23 279.314C292.454 278.679 292.771 278.124 293.182 277.648C293.593 277.172 294.092 276.794 294.68 276.514C295.277 276.234 295.949 276.094 296.696 276.094ZM302.853 279.09H304.365V280.154L304.393 280.182C304.635 279.781 304.953 279.468 305.345 279.244C305.737 279.011 306.171 278.894 306.647 278.894C307.44 278.894 308.065 279.099 308.523 279.51C308.98 279.921 309.209 280.537 309.209 281.358V286.328H307.613V281.778C307.594 281.209 307.473 280.798 307.249 280.546C307.025 280.285 306.675 280.154 306.199 280.154C305.928 280.154 305.685 280.205 305.471 280.308C305.256 280.401 305.074 280.537 304.925 280.714C304.775 280.882 304.659 281.083 304.575 281.316C304.491 281.549 304.449 281.797 304.449 282.058V286.328H302.853V279.09ZM310.934 276.332H312.53V286.328H310.934V276.332ZM314.311 276.332H315.907V277.844H314.311V276.332ZM314.311 279.09H315.907V286.328H314.311V279.09ZM317.646 279.09H319.158V280.154L319.186 280.182C319.428 279.781 319.746 279.468 320.138 279.244C320.53 279.011 320.964 278.894 321.44 278.894C322.233 278.894 322.858 279.099 323.316 279.51C323.773 279.921 324.002 280.537 324.002 281.358V286.328H322.406V281.778C322.387 281.209 322.266 280.798 322.042 280.546C321.818 280.285 321.468 280.154 320.992 280.154C320.721 280.154 320.478 280.205 320.264 280.308C320.049 280.401 319.867 280.537 319.718 280.714C319.568 280.882 319.452 281.083 319.368 281.316C319.284 281.549 319.242 281.797 319.242 282.058V286.328H317.646V279.09ZM330.655 282.072C330.636 281.82 330.58 281.577 330.487 281.344C330.403 281.111 330.281 280.91 330.123 280.742C329.973 280.565 329.787 280.425 329.563 280.322C329.348 280.21 329.105 280.154 328.835 280.154C328.555 280.154 328.298 280.205 328.065 280.308C327.841 280.401 327.645 280.537 327.477 280.714C327.318 280.882 327.187 281.083 327.085 281.316C326.991 281.549 326.94 281.801 326.931 282.072H330.655ZM326.931 283.122C326.931 283.402 326.968 283.673 327.043 283.934C327.127 284.195 327.248 284.424 327.407 284.62C327.565 284.816 327.766 284.975 328.009 285.096C328.251 285.208 328.541 285.264 328.877 285.264C329.343 285.264 329.717 285.166 329.997 284.97C330.286 284.765 330.501 284.461 330.641 284.06H332.153C332.069 284.452 331.924 284.802 331.719 285.11C331.513 285.418 331.266 285.679 330.977 285.894C330.687 286.099 330.361 286.253 329.997 286.356C329.642 286.468 329.269 286.524 328.877 286.524C328.307 286.524 327.803 286.431 327.365 286.244C326.926 286.057 326.553 285.796 326.245 285.46C325.946 285.124 325.717 284.723 325.559 284.256C325.409 283.789 325.335 283.276 325.335 282.716C325.335 282.203 325.414 281.717 325.573 281.26C325.741 280.793 325.974 280.387 326.273 280.042C326.581 279.687 326.949 279.407 327.379 279.202C327.808 278.997 328.293 278.894 328.835 278.894C329.404 278.894 329.913 279.015 330.361 279.258C330.818 279.491 331.196 279.804 331.495 280.196C331.793 280.588 332.008 281.041 332.139 281.554C332.279 282.058 332.316 282.581 332.251 283.122H326.931Z" fill="#591B2C"/>
<path d="M41 98.8281L307.5 252.828M41.5 252.828L308 98.8281M174.5 21.8281V329.828" stroke="black" stroke-width="2"/>
<path d="M41 98.8281L307.5 252.828M41.5 252.828L308 98.8281M174.5 21.8281V329.828" stroke="black" stroke-width="2" stroke-dasharray="2 2"/>
<path d="M41.6991 99.1555L174.5 22.4828L307.301 99.1555V252.501L174.5 329.173L41.6991 252.501V99.1555Z" stroke="black" stroke-width="2"/>
</svg>
