<svg width="346" height="203" viewBox="0 0 346 203" fill="none" xmlns="http://www.w3.org/2000/svg">
<g clip-path="url(#clip0_447_4947)">
<g clip-path="url(#clip1_447_4947)">
<mask id="path-3-inside-1_447_4947" fill="white">
<path d="M0.328125 0.328125H120.328V34.3281H0.328125V0.328125Z"/>
</mask>
<path d="M0.328125 0.328125H120.328V34.3281H0.328125V0.328125Z" fill="#378997"/>
<path d="M0.328125 0.328125V-0.671875H-0.671875V0.328125H0.328125ZM0.328125 1.32812H120.328V-0.671875H0.328125V1.32812ZM1.32812 34.3281V0.328125H-0.671875V34.3281H1.32812Z" fill="#0D0D0C" mask="url(#path-3-inside-1_447_4947)"/>
<path d="M20.1401 15.5101C20.0655 15.2208 19.9628 14.9548 19.8321 14.7121C19.7015 14.4695 19.5335 14.2595 19.3281 14.0821C19.1228 13.9048 18.8801 13.7695 18.6001 13.6761C18.3295 13.5735 18.0121 13.5221 17.6481 13.5221C17.1161 13.5221 16.6541 13.6295 16.2621 13.8441C15.8795 14.0588 15.5668 14.3481 15.3241 14.7121C15.0815 15.0668 14.8995 15.4728 14.7781 15.9301C14.6661 16.3875 14.6101 16.8541 14.6101 17.3301C14.6101 17.8061 14.6661 18.2728 14.7781 18.7301C14.8995 19.1875 15.0815 19.5981 15.3241 19.9621C15.5668 20.3168 15.8795 20.6015 16.2621 20.8161C16.6541 21.0308 17.1161 21.1381 17.6481 21.1381C18.0401 21.1381 18.3855 21.0728 18.6841 20.9421C18.9828 20.8021 19.2395 20.6155 19.4541 20.3821C19.6688 20.1395 19.8368 19.8595 19.9581 19.5421C20.0795 19.2248 20.1588 18.8841 20.1961 18.5201H21.9041C21.8668 19.1175 21.7361 19.6635 21.5121 20.1581C21.2975 20.6528 21.0035 21.0821 20.6301 21.4461C20.2568 21.8008 19.8181 22.0761 19.3141 22.2721C18.8101 22.4681 18.2548 22.5661 17.6481 22.5661C16.9015 22.5661 16.2295 22.4308 15.6321 22.1601C15.0441 21.8801 14.5448 21.5021 14.1341 21.0261C13.7235 20.5501 13.4061 19.9948 13.1821 19.3601C12.9675 18.7255 12.8601 18.0488 12.8601 17.3301C12.8601 16.6208 12.9675 15.9488 13.1821 15.3141C13.4061 14.6795 13.7235 14.1241 14.1341 13.6481C14.5448 13.1721 15.0441 12.7941 15.6321 12.5141C16.2295 12.2341 16.9015 12.0941 17.6481 12.0941C18.2081 12.0941 18.7355 12.1735 19.2301 12.3321C19.7248 12.4815 20.1588 12.7055 20.5321 13.0041C20.9148 13.2935 21.2228 13.6481 21.4561 14.0681C21.6895 14.4881 21.8341 14.9688 21.8901 15.5101H20.1401ZM27.7516 13.5221C27.2196 13.5221 26.7576 13.6295 26.3656 13.8441C25.983 14.0588 25.6703 14.3481 25.4276 14.7121C25.185 15.0668 25.003 15.4728 24.8816 15.9301C24.7696 16.3875 24.7136 16.8541 24.7136 17.3301C24.7136 17.8061 24.7696 18.2728 24.8816 18.7301C25.003 19.1875 25.185 19.5981 25.4276 19.9621C25.6703 20.3168 25.983 20.6015 26.3656 20.8161C26.7576 21.0308 27.2196 21.1381 27.7516 21.1381C28.2836 21.1381 28.741 21.0308 29.1236 20.8161C29.5156 20.6015 29.833 20.3168 30.0756 19.9621C30.3183 19.5981 30.4956 19.1875 30.6076 18.7301C30.729 18.2728 30.7896 17.8061 30.7896 17.3301C30.7896 16.8541 30.729 16.3875 30.6076 15.9301C30.4956 15.4728 30.3183 15.0668 30.0756 14.7121C29.833 14.3481 29.5156 14.0588 29.1236 13.8441C28.741 13.6295 28.2836 13.5221 27.7516 13.5221ZM27.7516 12.0941C28.4983 12.0941 29.1656 12.2341 29.7536 12.5141C30.351 12.7941 30.855 13.1721 31.2656 13.6481C31.6763 14.1241 31.989 14.6795 32.2036 15.3141C32.4276 15.9488 32.5396 16.6208 32.5396 17.3301C32.5396 18.0488 32.4276 18.7255 32.2036 19.3601C31.989 19.9948 31.6763 20.5501 31.2656 21.0261C30.855 21.5021 30.351 21.8801 29.7536 22.1601C29.1656 22.4308 28.4983 22.5661 27.7516 22.5661C27.005 22.5661 26.333 22.4308 25.7356 22.1601C25.1476 21.8801 24.6483 21.5021 24.2376 21.0261C23.827 20.5501 23.5096 19.9948 23.2856 19.3601C23.071 18.7255 22.9636 18.0488 22.9636 17.3301C22.9636 16.6208 23.071 15.9488 23.2856 15.3141C23.5096 14.6795 23.827 14.1241 24.2376 13.6481C24.6483 13.1721 25.1476 12.7941 25.7356 12.5141C26.333 12.2341 27.005 12.0941 27.7516 12.0941ZM34.1324 12.3321H38.2764C39.0417 12.3321 39.7044 12.4628 40.2644 12.7241C40.8244 12.9855 41.2817 13.3448 41.6364 13.8021C41.991 14.2501 42.2524 14.7775 42.4204 15.3841C42.5977 15.9908 42.6864 16.6395 42.6864 17.3301C42.6864 18.0208 42.5977 18.6695 42.4204 19.2761C42.2524 19.8828 41.991 20.4148 41.6364 20.8721C41.2817 21.3201 40.8244 21.6748 40.2644 21.9361C39.7044 22.1975 39.0417 22.3281 38.2764 22.3281H34.1324V12.3321ZM35.8824 20.9001H37.6044C38.2857 20.9001 38.841 20.8115 39.2704 20.6341C39.709 20.4475 40.0497 20.1955 40.2924 19.8781C40.5444 19.5515 40.7124 19.1735 40.7964 18.7441C40.8897 18.3055 40.9364 17.8341 40.9364 17.3301C40.9364 16.8261 40.8897 16.3595 40.7964 15.9301C40.7124 15.4915 40.5444 15.1135 40.2924 14.7961C40.0497 14.4695 39.709 14.2175 39.2704 14.0401C38.841 13.8535 38.2857 13.7601 37.6044 13.7601H35.8824V20.9001ZM44.2359 12.3321H51.4319V13.8441H45.9859V16.4621H51.0259V17.8901H45.9859V20.8161H51.5299V22.3281H44.2359V12.3321Z" fill="#0D0D0C"/>
<mask id="path-6-inside-2_447_4947" fill="white">
<path d="M120.328 0.328125H345.668V34.3281H120.328V0.328125Z"/>
</mask>
<path d="M120.328 0.328125H345.668V34.3281H120.328V0.328125Z" fill="#378997"/>
<path d="M120.328 0.328125V-0.671875H119.328V0.328125H120.328ZM120.328 1.32812H345.668V-0.671875H120.328V1.32812ZM121.328 34.3281V0.328125H119.328V34.3281H121.328Z" fill="#0D0D0C" mask="url(#path-6-inside-2_447_4947)"/>
<path d="M134.54 18.9961C134.54 19.3788 134.605 19.7055 134.736 19.9761C134.867 20.2468 135.049 20.4708 135.282 20.6481C135.515 20.8161 135.781 20.9421 136.08 21.0261C136.388 21.1008 136.719 21.1381 137.074 21.1381C137.457 21.1381 137.783 21.0961 138.054 21.0121C138.325 20.9188 138.544 20.8021 138.712 20.6621C138.88 20.5221 139.001 20.3635 139.076 20.1861C139.151 19.9995 139.188 19.8128 139.188 19.6261C139.188 19.2435 139.099 18.9635 138.922 18.7861C138.754 18.5995 138.567 18.4688 138.362 18.3941C138.007 18.2635 137.592 18.1421 137.116 18.0301C136.649 17.9088 136.071 17.7548 135.38 17.5681C134.951 17.4561 134.591 17.3115 134.302 17.1341C134.022 16.9475 133.798 16.7421 133.63 16.5181C133.462 16.2941 133.341 16.0561 133.266 15.8041C133.201 15.5521 133.168 15.2955 133.168 15.0341C133.168 14.5301 133.271 14.0961 133.476 13.7321C133.691 13.3588 133.971 13.0508 134.316 12.8081C134.661 12.5655 135.053 12.3881 135.492 12.2761C135.931 12.1548 136.374 12.0941 136.822 12.0941C137.345 12.0941 137.835 12.1641 138.292 12.3041C138.759 12.4348 139.165 12.6355 139.51 12.9061C139.865 13.1768 140.145 13.5128 140.35 13.9141C140.555 14.3061 140.658 14.7635 140.658 15.2861H138.908C138.861 14.6421 138.642 14.1895 138.25 13.9281C137.858 13.6575 137.359 13.5221 136.752 13.5221C136.547 13.5221 136.337 13.5455 136.122 13.5921C135.907 13.6295 135.711 13.6995 135.534 13.8021C135.357 13.8955 135.207 14.0261 135.086 14.1941C134.974 14.3621 134.918 14.5721 134.918 14.8241C134.918 15.1788 135.025 15.4588 135.24 15.6641C135.464 15.8601 135.753 16.0095 136.108 16.1121C136.145 16.1215 136.29 16.1635 136.542 16.2381C136.803 16.3035 137.093 16.3781 137.41 16.4621C137.727 16.5461 138.035 16.6301 138.334 16.7141C138.642 16.7888 138.861 16.8448 138.992 16.8821C139.319 16.9848 139.603 17.1248 139.846 17.3021C140.089 17.4795 140.289 17.6848 140.448 17.9181C140.616 18.1421 140.737 18.3848 140.812 18.6461C140.896 18.9075 140.938 19.1688 140.938 19.4301C140.938 19.9901 140.821 20.4708 140.588 20.8721C140.364 21.2641 140.065 21.5861 139.692 21.8381C139.319 22.0901 138.894 22.2721 138.418 22.3841C137.942 22.5055 137.457 22.5661 136.962 22.5661C136.393 22.5661 135.856 22.4961 135.352 22.3561C134.848 22.2161 134.409 22.0015 134.036 21.7121C133.663 21.4228 133.364 21.0541 133.14 20.6061C132.916 20.1488 132.799 19.6121 132.79 18.9961H134.54ZM141.518 12.3321H149.61V13.8441H146.432V22.3281H144.682V13.8441H141.518V12.3321ZM150.769 12.3321H157.965V13.8441H152.519V16.4621H157.559V17.8901H152.519V20.8161H158.063V22.3281H150.769V12.3321ZM159.587 12.3321H163.997C164.707 12.3321 165.285 12.4348 165.733 12.6401C166.181 12.8455 166.527 13.1021 166.769 13.4101C167.012 13.7181 167.175 14.0541 167.259 14.4181C167.353 14.7821 167.399 15.1181 167.399 15.4261C167.399 15.7341 167.353 16.0701 167.259 16.4341C167.175 16.7888 167.012 17.1201 166.769 17.4281C166.527 17.7361 166.181 17.9928 165.733 18.1981C165.285 18.3941 164.707 18.4921 163.997 18.4921H161.337V22.3281H159.587V12.3321ZM161.337 17.0641H163.899C164.095 17.0641 164.296 17.0361 164.501 16.9801C164.707 16.9241 164.893 16.8355 165.061 16.7141C165.239 16.5835 165.379 16.4155 165.481 16.2101C165.593 15.9955 165.649 15.7295 165.649 15.4121C165.649 15.0855 165.603 14.8148 165.509 14.6001C165.416 14.3855 165.29 14.2175 165.131 14.0961C164.973 13.9655 164.791 13.8768 164.585 13.8301C164.38 13.7835 164.161 13.7601 163.927 13.7601H161.337V17.0641Z" fill="#0D0D0C"/>
</g>
<g clip-path="url(#clip2_447_4947)">
<mask id="path-9-inside-3_447_4947" fill="white">
<path d="M0.328125 34.3281H120.328V62.3281H0.328125V34.3281Z"/>
</mask>
<path d="M0.328125 34.3281H120.328V62.3281H0.328125V34.3281Z" fill="#4B9FAD"/>
<path d="M0.328125 34.3281V33.3281H-0.671875V34.3281H0.328125ZM0.328125 35.3281H120.328V33.3281H0.328125V35.3281ZM1.32812 62.3281V34.3281H-0.671875V62.3281H1.32812Z" fill="#0D0D0C" mask="url(#path-9-inside-3_447_4947)"/>
<circle cx="14.8281" cy="48.3281" r="2.5" fill="#0D0D0C"/>
<rect x="22.3281" y="45.8281" width="15" height="5" fill="#0D0D0C"/>
<rect x="42.3281" y="45.8281" width="15" height="5" fill="#0D0D0C"/>
<rect x="62.3281" y="45.8281" width="15" height="5" fill="#0D0D0C"/>
<rect x="82.3281" y="45.8281" width="15" height="5" fill="#0D0D0C"/>
<mask id="path-16-inside-4_447_4947" fill="white">
<path d="M120.328 34.3281H345.668V62.3281H120.328V34.3281Z"/>
</mask>
<path d="M120.328 34.3281H345.668V62.3281H120.328V34.3281Z" fill="#4B9FAD"/>
<path d="M120.328 34.3281V33.3281H119.328V34.3281H120.328ZM120.328 35.3281H345.668V33.3281H120.328V35.3281ZM121.328 62.3281V34.3281H119.328V62.3281H121.328Z" fill="#0D0D0C" mask="url(#path-16-inside-4_447_4947)"/>
<path d="M137.729 46.7731C137.67 46.2085 137.465 45.8015 137.113 45.5521C136.768 45.2955 136.325 45.1671 135.782 45.1671C135.562 45.1671 135.346 45.1891 135.133 45.2331C134.92 45.2771 134.73 45.3505 134.561 45.4531C134.4 45.5558 134.268 45.6951 134.165 45.8711C134.07 46.0398 134.022 46.2525 134.022 46.5091C134.022 46.7511 134.092 46.9491 134.231 47.1031C134.378 47.2498 134.568 47.3708 134.803 47.4661C135.045 47.5615 135.316 47.6421 135.617 47.7081C135.918 47.7668 136.222 47.8328 136.53 47.9061C136.845 47.9795 137.153 48.0675 137.454 48.1701C137.755 48.2655 138.022 48.3975 138.257 48.5661C138.499 48.7348 138.69 48.9475 138.829 49.2041C138.976 49.4608 139.049 49.7835 139.049 50.1721C139.049 50.5901 138.954 50.9495 138.763 51.2501C138.58 51.5435 138.341 51.7855 138.048 51.9761C137.755 52.1595 137.425 52.2915 137.058 52.3721C136.699 52.4601 136.339 52.5041 135.98 52.5041C135.54 52.5041 135.122 52.4491 134.726 52.3391C134.337 52.2291 133.993 52.0641 133.692 51.8441C133.399 51.6168 133.164 51.3308 132.988 50.9861C132.819 50.6341 132.735 50.2198 132.735 49.7431H133.725C133.725 50.0731 133.787 50.3591 133.912 50.6011C134.044 50.8358 134.213 51.0301 134.418 51.1841C134.631 51.3381 134.876 51.4518 135.155 51.5251C135.434 51.5985 135.72 51.6351 136.013 51.6351C136.248 51.6351 136.482 51.6131 136.717 51.5691C136.959 51.5251 137.175 51.4518 137.366 51.3491C137.557 51.2391 137.711 51.0925 137.828 50.9091C137.945 50.7258 138.004 50.4911 138.004 50.2051C138.004 49.9338 137.931 49.7138 137.784 49.5451C137.645 49.3765 137.454 49.2408 137.212 49.1381C136.977 49.0281 136.71 48.9401 136.409 48.8741C136.108 48.8081 135.8 48.7421 135.485 48.6761C135.177 48.6028 134.873 48.5221 134.572 48.4341C134.271 48.3388 134 48.2178 133.758 48.0711C133.523 47.9171 133.333 47.7228 133.186 47.4881C133.047 47.2461 132.977 46.9455 132.977 46.5861C132.977 46.1901 133.058 45.8491 133.219 45.5631C133.38 45.2698 133.593 45.0315 133.857 44.8481C134.128 44.6575 134.433 44.5181 134.77 44.4301C135.115 44.3348 135.467 44.2871 135.826 44.2871C136.229 44.2871 136.603 44.3348 136.948 44.4301C137.293 44.5255 137.593 44.6758 137.85 44.8811C138.114 45.0865 138.319 45.3468 138.466 45.6621C138.62 45.9701 138.704 46.3405 138.719 46.7731H137.729ZM140.363 44.4741H141.408V52.3281H140.363V44.4741ZM144.948 45.3541H142.33V44.4741H148.611V45.3541H145.993V52.3281H144.948V45.3541ZM149.482 44.4741H154.905V45.3541H150.527V47.8511H154.608V48.7311H150.527V51.4481H154.938V52.3281H149.482V44.4741ZM163.811 46.7731C163.752 46.2085 163.547 45.8015 163.195 45.5521C162.85 45.2955 162.407 45.1671 161.864 45.1671C161.644 45.1671 161.428 45.1891 161.215 45.2331C161.002 45.2771 160.812 45.3505 160.643 45.4531C160.482 45.5558 160.35 45.6951 160.247 45.8711C160.152 46.0398 160.104 46.2525 160.104 46.5091C160.104 46.7511 160.174 46.9491 160.313 47.1031C160.46 47.2498 160.65 47.3708 160.885 47.4661C161.127 47.5615 161.398 47.6421 161.699 47.7081C162 47.7668 162.304 47.8328 162.612 47.9061C162.927 47.9795 163.235 48.0675 163.536 48.1701C163.837 48.2655 164.104 48.3975 164.339 48.5661C164.581 48.7348 164.772 48.9475 164.911 49.2041C165.058 49.4608 165.131 49.7835 165.131 50.1721C165.131 50.5901 165.036 50.9495 164.845 51.2501C164.662 51.5435 164.423 51.7855 164.13 51.9761C163.837 52.1595 163.507 52.2915 163.14 52.3721C162.781 52.4601 162.421 52.5041 162.062 52.5041C161.622 52.5041 161.204 52.4491 160.808 52.3391C160.419 52.2291 160.075 52.0641 159.774 51.8441C159.481 51.6168 159.246 51.3308 159.07 50.9861C158.901 50.6341 158.817 50.2198 158.817 49.7431H159.807C159.807 50.0731 159.869 50.3591 159.994 50.6011C160.126 50.8358 160.295 51.0301 160.5 51.1841C160.713 51.3381 160.958 51.4518 161.237 51.5251C161.516 51.5985 161.802 51.6351 162.095 51.6351C162.33 51.6351 162.564 51.6131 162.799 51.5691C163.041 51.5251 163.257 51.4518 163.448 51.3491C163.639 51.2391 163.793 51.0925 163.91 50.9091C164.027 50.7258 164.086 50.4911 164.086 50.2051C164.086 49.9338 164.013 49.7138 163.866 49.5451C163.727 49.3765 163.536 49.2408 163.294 49.1381C163.059 49.0281 162.792 48.9401 162.491 48.8741C162.19 48.8081 161.882 48.7421 161.567 48.6761C161.259 48.6028 160.955 48.5221 160.654 48.4341C160.353 48.3388 160.082 48.2178 159.84 48.0711C159.605 47.9171 159.415 47.7228 159.268 47.4881C159.129 47.2461 159.059 46.9455 159.059 46.5861C159.059 46.1901 159.14 45.8491 159.301 45.5631C159.462 45.2698 159.675 45.0315 159.939 44.8481C160.21 44.6575 160.515 44.5181 160.852 44.4301C161.197 44.3348 161.549 44.2871 161.908 44.2871C162.311 44.2871 162.685 44.3348 163.03 44.4301C163.375 44.5255 163.675 44.6758 163.932 44.8811C164.196 45.0865 164.401 45.3468 164.548 45.6621C164.702 45.9701 164.786 46.3405 164.801 46.7731H163.811ZM166.401 44.4741H171.824V45.3541H167.446V47.8511H171.527V48.7311H167.446V51.4481H171.857V52.3281H166.401V44.4741ZM173.126 44.4741H174.171V51.4481H178.329V52.3281H173.126V44.4741ZM179.238 44.4741H184.661V45.3541H180.283V47.8511H184.364V48.7311H180.283V51.4481H184.694V52.3281H179.238V44.4741ZM191.484 46.8391C191.367 46.2818 191.107 45.8638 190.703 45.5851C190.307 45.3065 189.834 45.1671 189.284 45.1671C188.815 45.1671 188.412 45.2551 188.074 45.4311C187.744 45.6071 187.469 45.8455 187.249 46.1461C187.037 46.4395 186.879 46.7768 186.776 47.1581C186.674 47.5395 186.622 47.9355 186.622 48.3461C186.622 48.7935 186.674 49.2188 186.776 49.6221C186.879 50.0181 187.037 50.3665 187.249 50.6671C187.469 50.9605 187.748 51.1951 188.085 51.3711C188.423 51.5471 188.826 51.6351 189.295 51.6351C189.64 51.6351 189.944 51.5801 190.208 51.4701C190.48 51.3528 190.711 51.1951 190.901 50.9971C191.099 50.7918 191.253 50.5498 191.363 50.2711C191.473 49.9925 191.539 49.6918 191.561 49.3691H192.606C192.504 50.3591 192.163 51.1291 191.583 51.6791C191.004 52.2291 190.212 52.5041 189.207 52.5041C188.599 52.5041 188.067 52.4015 187.612 52.1961C187.158 51.9835 186.78 51.6938 186.479 51.3271C186.179 50.9605 185.951 50.5278 185.797 50.0291C185.651 49.5305 185.577 48.9951 185.577 48.4231C185.577 47.8511 185.658 47.3158 185.819 46.8171C185.981 46.3111 186.215 45.8711 186.523 45.4971C186.839 45.1231 187.227 44.8298 187.689 44.6171C188.159 44.3971 188.694 44.2871 189.295 44.2871C189.706 44.2871 190.095 44.3421 190.461 44.4521C190.828 44.5621 191.154 44.7235 191.44 44.9361C191.726 45.1488 191.965 45.4165 192.155 45.7391C192.346 46.0545 192.471 46.4211 192.529 46.8391H191.484ZM195.683 45.3541H193.065V44.4741H199.346V45.3541H196.728V52.3281H195.683V45.3541ZM200.261 44.4741H201.306V52.3281H200.261V44.4741ZM203.669 48.4011C203.669 48.7971 203.72 49.1895 203.823 49.5781C203.926 49.9595 204.087 50.3041 204.307 50.6121C204.527 50.9201 204.809 51.1695 205.154 51.3601C205.499 51.5435 205.909 51.6351 206.386 51.6351C206.863 51.6351 207.273 51.5435 207.618 51.3601C207.963 51.1695 208.245 50.9201 208.465 50.6121C208.685 50.3041 208.846 49.9595 208.949 49.5781C209.052 49.1895 209.103 48.7971 209.103 48.4011C209.103 48.0051 209.052 47.6165 208.949 47.2351C208.846 46.8465 208.685 46.4981 208.465 46.1901C208.245 45.8821 207.963 45.6365 207.618 45.4531C207.273 45.2625 206.863 45.1671 206.386 45.1671C205.909 45.1671 205.499 45.2625 205.154 45.4531C204.809 45.6365 204.527 45.8821 204.307 46.1901C204.087 46.4981 203.926 46.8465 203.823 47.2351C203.72 47.6165 203.669 48.0051 203.669 48.4011ZM202.624 48.4011C202.624 47.8658 202.701 47.3525 202.855 46.8611C203.016 46.3625 203.255 45.9225 203.57 45.5411C203.885 45.1598 204.278 44.8555 204.747 44.6281C205.216 44.4008 205.763 44.2871 206.386 44.2871C207.009 44.2871 207.556 44.4008 208.025 44.6281C208.494 44.8555 208.887 45.1598 209.202 45.5411C209.517 45.9225 209.752 46.3625 209.906 46.8611C210.067 47.3525 210.148 47.8658 210.148 48.4011C210.148 48.9365 210.067 49.4535 209.906 49.9521C209.752 50.4435 209.517 50.8798 209.202 51.2611C208.887 51.6425 208.494 51.9468 208.025 52.1741C207.556 52.3941 207.009 52.5041 206.386 52.5041C205.763 52.5041 205.216 52.3941 204.747 52.1741C204.278 51.9468 203.885 51.6425 203.57 51.2611C203.255 50.8798 203.016 50.4435 202.855 49.9521C202.701 49.4535 202.624 48.9365 202.624 48.4011ZM211.41 44.4741H212.521L216.657 50.8431H216.679V44.4741H217.669V52.3281H216.525L212.422 46.0251H212.4V52.3281H211.41V44.4741Z" fill="#0D0D0C"/>
</g>
<g clip-path="url(#clip3_447_4947)">
<mask id="path-19-inside-5_447_4947" fill="white">
<path d="M0.328125 62.3281H120.328V90.3281H0.328125V62.3281Z"/>
</mask>
<path d="M0.328125 62.3281H120.328V90.3281H0.328125V62.3281Z" fill="#4B9FAD"/>
<path d="M0.328125 62.3281V61.3281H-0.671875V62.3281H0.328125ZM0.328125 63.3281H120.328V61.3281H0.328125V63.3281ZM1.32812 90.3281V62.3281H-0.671875V90.3281H1.32812Z" fill="#0D0D0C" mask="url(#path-19-inside-5_447_4947)"/>
<circle cx="14.8281" cy="76.3281" r="2.5" fill="#0D0D0C"/>
<circle cx="24.8281" cy="76.3281" r="2.5" fill="#0D0D0C"/>
<rect x="32.3281" y="73.8281" width="15" height="5" fill="#0D0D0C"/>
<rect x="52.3281" y="73.8281" width="15" height="5" fill="#0D0D0C"/>
<rect x="72.3281" y="73.8281" width="15" height="5" fill="#0D0D0C"/>
<mask id="path-26-inside-6_447_4947" fill="white">
<path d="M120.328 62.3281H345.668V90.3281H120.328V62.3281Z"/>
</mask>
<path d="M120.328 62.3281H345.668V90.3281H120.328V62.3281Z" fill="#4B9FAD"/>
<path d="M120.328 62.3281V61.3281H119.328V62.3281H120.328ZM120.328 63.3281H345.668V61.3281H120.328V63.3281ZM121.328 90.3281V62.3281H119.328V90.3281H121.328Z" fill="#0D0D0C" mask="url(#path-26-inside-6_447_4947)"/>
<path d="M138.708 74.8391C138.591 74.2818 138.33 73.8638 137.927 73.5851C137.531 73.3065 137.058 73.1671 136.508 73.1671C136.039 73.1671 135.635 73.2551 135.298 73.4311C134.968 73.6071 134.693 73.8455 134.473 74.1461C134.26 74.4395 134.103 74.7768 134 75.1581C133.897 75.5395 133.846 75.9355 133.846 76.3461C133.846 76.7935 133.897 77.2188 134 77.6221C134.103 78.0181 134.26 78.3665 134.473 78.6671C134.693 78.9605 134.972 79.1951 135.309 79.3711C135.646 79.5471 136.05 79.6351 136.519 79.6351C136.864 79.6351 137.168 79.5801 137.432 79.4701C137.703 79.3528 137.934 79.1951 138.125 78.9971C138.323 78.7918 138.477 78.5498 138.587 78.2711C138.697 77.9925 138.763 77.6918 138.785 77.3691H139.83C139.727 78.3591 139.386 79.1291 138.807 79.6791C138.228 80.2291 137.436 80.5041 136.431 80.5041C135.822 80.5041 135.291 80.4015 134.836 80.1961C134.381 79.9835 134.004 79.6938 133.703 79.3271C133.402 78.9605 133.175 78.5278 133.021 78.0291C132.874 77.5305 132.801 76.9951 132.801 76.4231C132.801 75.8511 132.882 75.3158 133.043 74.8171C133.204 74.3111 133.439 73.8711 133.747 73.4971C134.062 73.1231 134.451 72.8298 134.913 72.6171C135.382 72.3971 135.918 72.2871 136.519 72.2871C136.93 72.2871 137.318 72.3421 137.685 72.4521C138.052 72.5621 138.378 72.7235 138.664 72.9361C138.95 73.1488 139.188 73.4165 139.379 73.7391C139.57 74.0545 139.694 74.4211 139.753 74.8391H138.708ZM141.73 76.4011C141.73 76.7971 141.781 77.1895 141.884 77.5781C141.986 77.9595 142.148 78.3041 142.368 78.6121C142.588 78.9201 142.87 79.1695 143.215 79.3601C143.559 79.5435 143.97 79.6351 144.447 79.6351C144.923 79.6351 145.334 79.5435 145.679 79.3601C146.023 79.1695 146.306 78.9201 146.526 78.6121C146.746 78.3041 146.907 77.9595 147.01 77.5781C147.112 77.1895 147.164 76.7971 147.164 76.4011C147.164 76.0051 147.112 75.6165 147.01 75.2351C146.907 74.8465 146.746 74.4981 146.526 74.1901C146.306 73.8821 146.023 73.6365 145.679 73.4531C145.334 73.2625 144.923 73.1671 144.447 73.1671C143.97 73.1671 143.559 73.2625 143.215 73.4531C142.87 73.6365 142.588 73.8821 142.368 74.1901C142.148 74.4981 141.986 74.8465 141.884 75.2351C141.781 75.6165 141.73 76.0051 141.73 76.4011ZM140.685 76.4011C140.685 75.8658 140.762 75.3525 140.916 74.8611C141.077 74.3625 141.315 73.9225 141.631 73.5411C141.946 73.1598 142.338 72.8555 142.808 72.6281C143.277 72.4008 143.823 72.2871 144.447 72.2871C145.07 72.2871 145.616 72.4008 146.086 72.6281C146.555 72.8555 146.947 73.1598 147.263 73.5411C147.578 73.9225 147.813 74.3625 147.967 74.8611C148.128 75.3525 148.209 75.8658 148.209 76.4011C148.209 76.9365 148.128 77.4535 147.967 77.9521C147.813 78.4435 147.578 78.8798 147.263 79.2611C146.947 79.6425 146.555 79.9468 146.086 80.1741C145.616 80.3941 145.07 80.5041 144.447 80.5041C143.823 80.5041 143.277 80.3941 142.808 80.1741C142.338 79.9468 141.946 79.6425 141.631 79.2611C141.315 78.8798 141.077 78.4435 140.916 77.9521C140.762 77.4535 140.685 76.9365 140.685 76.4011ZM149.471 72.4741H150.582L154.718 78.8431H154.74V72.4741H155.73V80.3281H154.586L150.483 74.0251H150.461V80.3281H149.471V72.4741ZM161.964 74.7731C161.905 74.2085 161.7 73.8015 161.348 73.5521C161.003 73.2955 160.559 73.1671 160.017 73.1671C159.797 73.1671 159.58 73.1891 159.368 73.2331C159.155 73.2771 158.964 73.3505 158.796 73.4531C158.634 73.5558 158.502 73.6951 158.4 73.8711C158.304 74.0398 158.257 74.2525 158.257 74.5091C158.257 74.7511 158.326 74.9491 158.466 75.1031C158.612 75.2498 158.803 75.3708 159.038 75.4661C159.28 75.5615 159.551 75.6421 159.852 75.7081C160.152 75.7668 160.457 75.8328 160.765 75.9061C161.08 75.9795 161.388 76.0675 161.689 76.1701C161.989 76.2655 162.257 76.3975 162.492 76.5661C162.734 76.7348 162.924 76.9475 163.064 77.2041C163.21 77.4608 163.284 77.7835 163.284 78.1721C163.284 78.5901 163.188 78.9495 162.998 79.2501C162.814 79.5435 162.576 79.7855 162.283 79.9761C161.989 80.1595 161.659 80.2915 161.293 80.3721C160.933 80.4601 160.574 80.5041 160.215 80.5041C159.775 80.5041 159.357 80.4491 158.961 80.3391C158.572 80.2291 158.227 80.0641 157.927 79.8441C157.633 79.6168 157.399 79.3308 157.223 78.9861C157.054 78.6341 156.97 78.2198 156.97 77.7431H157.96C157.96 78.0731 158.022 78.3591 158.147 78.6011C158.279 78.8358 158.447 79.0301 158.653 79.1841C158.865 79.3381 159.111 79.4518 159.389 79.5251C159.668 79.5985 159.954 79.6351 160.248 79.6351C160.482 79.6351 160.717 79.6131 160.952 79.5691C161.194 79.5251 161.41 79.4518 161.601 79.3491C161.791 79.2391 161.945 79.0925 162.062 78.9091C162.18 78.7258 162.239 78.4911 162.239 78.2051C162.239 77.9338 162.165 77.7138 162.019 77.5451C161.879 77.3765 161.689 77.2408 161.447 77.1381C161.212 77.0281 160.944 76.9401 160.644 76.8741C160.343 76.8081 160.035 76.7421 159.72 76.6761C159.412 76.6028 159.107 76.5221 158.807 76.4341C158.506 76.3388 158.235 76.2178 157.993 76.0711C157.758 75.9171 157.567 75.7228 157.421 75.4881C157.281 75.2461 157.212 74.9455 157.212 74.5861C157.212 74.1901 157.292 73.8491 157.454 73.5631C157.615 73.2698 157.828 73.0315 158.092 72.8481C158.363 72.6575 158.667 72.5181 159.005 72.4301C159.349 72.3348 159.701 72.2871 160.061 72.2871C160.464 72.2871 160.838 72.3348 161.183 72.4301C161.527 72.5255 161.828 72.6758 162.085 72.8811C162.349 73.0865 162.554 73.3468 162.701 73.6621C162.855 73.9701 162.939 74.3405 162.954 74.7731H161.964ZM166.335 73.3541H163.717V72.4741H169.998V73.3541H167.38V80.3281H166.335V73.3541ZM170.87 72.4741H174.566C175.314 72.4741 175.897 72.6575 176.315 73.0241C176.74 73.3908 176.953 73.8931 176.953 74.5311C176.953 75.0078 176.843 75.4258 176.623 75.7851C176.41 76.1445 176.065 76.3901 175.589 76.5221V76.5441C175.816 76.5881 175.999 76.6615 176.139 76.7641C176.285 76.8668 176.399 76.9915 176.48 77.1381C176.568 77.2775 176.63 77.4351 176.667 77.6111C176.711 77.7871 176.744 77.9705 176.766 78.1611C176.78 78.3518 176.791 78.5461 176.799 78.7441C176.806 78.9421 176.824 79.1365 176.854 79.3271C176.883 79.5178 176.923 79.7011 176.975 79.8771C177.033 80.0458 177.118 80.1961 177.228 80.3281H176.062C175.988 80.2475 175.937 80.1375 175.908 79.9981C175.886 79.8588 175.871 79.7048 175.864 79.5361C175.856 79.3601 175.849 79.1731 175.842 78.9751C175.834 78.7771 175.812 78.5828 175.776 78.3921C175.746 78.2015 175.71 78.0218 175.666 77.8531C175.622 77.6771 175.552 77.5268 175.457 77.4021C175.361 77.2701 175.237 77.1675 175.083 77.0941C174.929 77.0135 174.723 76.9731 174.467 76.9731H171.915V80.3281H170.87V72.4741ZM174.093 76.0931C174.335 76.0931 174.566 76.0748 174.786 76.0381C175.006 76.0015 175.196 75.9318 175.358 75.8291C175.526 75.7191 175.658 75.5761 175.754 75.4001C175.856 75.2168 175.908 74.9821 175.908 74.6961C175.908 74.3001 175.798 73.9775 175.578 73.7281C175.358 73.4788 175.002 73.3541 174.511 73.3541H171.915V76.0931H174.093ZM184.67 77.4901C184.67 78.4948 184.402 79.2501 183.867 79.7561C183.332 80.2548 182.569 80.5041 181.579 80.5041C180.567 80.5041 179.775 80.2658 179.203 79.7891C178.638 79.3051 178.356 78.5388 178.356 77.4901V72.4741H179.401V77.4901C179.401 78.1941 179.588 78.7295 179.962 79.0961C180.336 79.4555 180.875 79.6351 181.579 79.6351C182.246 79.6351 182.752 79.4555 183.097 79.0961C183.449 78.7295 183.625 78.1941 183.625 77.4901V72.4741H184.67V77.4901ZM191.86 74.8391C191.743 74.2818 191.483 73.8638 191.079 73.5851C190.683 73.3065 190.21 73.1671 189.66 73.1671C189.191 73.1671 188.788 73.2551 188.45 73.4311C188.12 73.6071 187.845 73.8455 187.625 74.1461C187.413 74.4395 187.255 74.7768 187.152 75.1581C187.05 75.5395 186.998 75.9355 186.998 76.3461C186.998 76.7935 187.05 77.2188 187.152 77.6221C187.255 78.0181 187.413 78.3665 187.625 78.6671C187.845 78.9605 188.124 79.1951 188.461 79.3711C188.799 79.5471 189.202 79.6351 189.671 79.6351C190.016 79.6351 190.32 79.5801 190.584 79.4701C190.856 79.3528 191.087 79.1951 191.277 78.9971C191.475 78.7918 191.629 78.5498 191.739 78.2711C191.849 77.9925 191.915 77.6918 191.937 77.3691H192.982C192.88 78.3591 192.539 79.1291 191.959 79.6791C191.38 80.2291 190.588 80.5041 189.583 80.5041C188.975 80.5041 188.443 80.4015 187.988 80.1961C187.534 79.9835 187.156 79.6938 186.855 79.3271C186.555 78.9605 186.327 78.5278 186.173 78.0291C186.027 77.5305 185.953 76.9951 185.953 76.4231C185.953 75.8511 186.034 75.3158 186.195 74.8171C186.357 74.3111 186.591 73.8711 186.899 73.4971C187.215 73.1231 187.603 72.8298 188.065 72.6171C188.535 72.3971 189.07 72.2871 189.671 72.2871C190.082 72.2871 190.471 72.3421 190.837 72.4521C191.204 72.5621 191.53 72.7235 191.816 72.9361C192.102 73.1488 192.341 73.4165 192.531 73.7391C192.722 74.0545 192.847 74.4211 192.905 74.8391H191.86ZM196.059 73.3541H193.441V72.4741H199.722V73.3541H197.104V80.3281H196.059V73.3541ZM200.637 72.4741H201.682V80.3281H200.637V72.4741ZM204.045 76.4011C204.045 76.7971 204.096 77.1895 204.199 77.5781C204.302 77.9595 204.463 78.3041 204.683 78.6121C204.903 78.9201 205.185 79.1695 205.53 79.3601C205.875 79.5435 206.285 79.6351 206.762 79.6351C207.239 79.6351 207.649 79.5435 207.994 79.3601C208.339 79.1695 208.621 78.9201 208.841 78.6121C209.061 78.3041 209.222 77.9595 209.325 77.5781C209.428 77.1895 209.479 76.7971 209.479 76.4011C209.479 76.0051 209.428 75.6165 209.325 75.2351C209.222 74.8465 209.061 74.4981 208.841 74.1901C208.621 73.8821 208.339 73.6365 207.994 73.4531C207.649 73.2625 207.239 73.1671 206.762 73.1671C206.285 73.1671 205.875 73.2625 205.53 73.4531C205.185 73.6365 204.903 73.8821 204.683 74.1901C204.463 74.4981 204.302 74.8465 204.199 75.2351C204.096 75.6165 204.045 76.0051 204.045 76.4011ZM203 76.4011C203 75.8658 203.077 75.3525 203.231 74.8611C203.392 74.3625 203.631 73.9225 203.946 73.5411C204.261 73.1598 204.654 72.8555 205.123 72.6281C205.592 72.4008 206.139 72.2871 206.762 72.2871C207.385 72.2871 207.932 72.4008 208.401 72.6281C208.87 72.8555 209.263 73.1598 209.578 73.5411C209.893 73.9225 210.128 74.3625 210.282 74.8611C210.443 75.3525 210.524 75.8658 210.524 76.4011C210.524 76.9365 210.443 77.4535 210.282 77.9521C210.128 78.4435 209.893 78.8798 209.578 79.2611C209.263 79.6425 208.87 79.9468 208.401 80.1741C207.932 80.3941 207.385 80.5041 206.762 80.5041C206.139 80.5041 205.592 80.3941 205.123 80.1741C204.654 79.9468 204.261 79.6425 203.946 79.2611C203.631 78.8798 203.392 78.4435 203.231 77.9521C203.077 77.4535 203 76.9365 203 76.4011ZM211.786 72.4741H212.897L217.033 78.8431H217.055V72.4741H218.045V80.3281H216.901L212.798 74.0251H212.776V80.3281H211.786V72.4741Z" fill="#0D0D0C"/>
</g>
<g clip-path="url(#clip4_447_4947)">
<mask id="path-29-inside-7_447_4947" fill="white">
<path d="M0.328125 90.3281H120.328V118.328H0.328125V90.3281Z"/>
</mask>
<path d="M0.328125 90.3281H120.328V118.328H0.328125V90.3281Z" fill="#4B9FAD"/>
<path d="M0.328125 90.3281V89.3281H-0.671875V90.3281H0.328125ZM0.328125 91.3281H120.328V89.3281H0.328125V91.3281ZM1.32812 118.328V90.3281H-0.671875V118.328H1.32812Z" fill="#0D0D0C" mask="url(#path-29-inside-7_447_4947)"/>
<circle cx="14.8281" cy="104.328" r="2.5" fill="#0D0D0C"/>
<circle cx="24.8281" cy="104.328" r="2.5" fill="#0D0D0C"/>
<circle cx="34.8281" cy="104.328" r="2.5" fill="#0D0D0C"/>
<rect x="42.3281" y="101.828" width="15" height="5" fill="#0D0D0C"/>
<rect x="62.3281" y="101.828" width="15" height="5" fill="#0D0D0C"/>
<mask id="path-36-inside-8_447_4947" fill="white">
<path d="M120.328 90.3281H345.668V118.328H120.328V90.3281Z"/>
</mask>
<path d="M120.328 90.3281H345.668V118.328H120.328V90.3281Z" fill="#4B9FAD"/>
<path d="M120.328 90.3281V89.3281H119.328V90.3281H120.328ZM120.328 91.3281H345.668V89.3281H120.328V91.3281ZM121.328 118.328V90.3281H119.328V118.328H121.328Z" fill="#0D0D0C" mask="url(#path-36-inside-8_447_4947)"/>
<path d="M134.968 101.354H132.35V100.474H138.631V101.354H136.013V108.328H134.968V101.354ZM139.503 100.474H144.926V101.354H140.548V103.851H144.629V104.731H140.548V107.448H144.959V108.328H139.503V100.474ZM150.77 102.773C150.711 102.208 150.506 101.801 150.154 101.552C149.809 101.295 149.366 101.167 148.823 101.167C148.603 101.167 148.387 101.189 148.174 101.233C147.961 101.277 147.771 101.35 147.602 101.453C147.441 101.556 147.309 101.695 147.206 101.871C147.111 102.04 147.063 102.252 147.063 102.509C147.063 102.751 147.133 102.949 147.272 103.103C147.419 103.25 147.609 103.371 147.844 103.466C148.086 103.561 148.357 103.642 148.658 103.708C148.959 103.767 149.263 103.833 149.571 103.906C149.886 103.979 150.194 104.067 150.495 104.17C150.796 104.265 151.063 104.397 151.298 104.566C151.54 104.735 151.731 104.947 151.87 105.204C152.017 105.461 152.09 105.783 152.09 106.172C152.09 106.59 151.995 106.949 151.804 107.25C151.621 107.543 151.382 107.785 151.089 107.976C150.796 108.159 150.466 108.291 150.099 108.372C149.74 108.46 149.38 108.504 149.021 108.504C148.581 108.504 148.163 108.449 147.767 108.339C147.378 108.229 147.034 108.064 146.733 107.844C146.44 107.617 146.205 107.331 146.029 106.986C145.86 106.634 145.776 106.22 145.776 105.743H146.766C146.766 106.073 146.828 106.359 146.953 106.601C147.085 106.836 147.254 107.03 147.459 107.184C147.672 107.338 147.917 107.452 148.196 107.525C148.475 107.598 148.761 107.635 149.054 107.635C149.289 107.635 149.523 107.613 149.758 107.569C150 107.525 150.216 107.452 150.407 107.349C150.598 107.239 150.752 107.092 150.869 106.909C150.986 106.726 151.045 106.491 151.045 106.205C151.045 105.934 150.972 105.714 150.825 105.545C150.686 105.376 150.495 105.241 150.253 105.138C150.018 105.028 149.751 104.94 149.45 104.874C149.149 104.808 148.841 104.742 148.526 104.676C148.218 104.603 147.914 104.522 147.613 104.434C147.312 104.339 147.041 104.218 146.799 104.071C146.564 103.917 146.374 103.723 146.227 103.488C146.088 103.246 146.018 102.945 146.018 102.586C146.018 102.19 146.099 101.849 146.26 101.563C146.421 101.27 146.634 101.031 146.898 100.848C147.169 100.657 147.474 100.518 147.811 100.43C148.156 100.335 148.508 100.287 148.867 100.287C149.27 100.287 149.644 100.335 149.989 100.43C150.334 100.525 150.634 100.676 150.891 100.881C151.155 101.086 151.36 101.347 151.507 101.662C151.661 101.97 151.745 102.34 151.76 102.773H150.77ZM155.142 101.354H152.524V100.474H158.805V101.354H156.187V108.328H155.142V101.354ZM159.72 100.474H160.765V108.328H159.72V100.474ZM162.512 100.474H163.623L167.759 106.843H167.781V100.474H168.771V108.328H167.627L163.524 102.025H163.502V108.328H162.512V100.474ZM176.336 107.349C176.028 107.76 175.646 108.057 175.192 108.24C174.737 108.416 174.279 108.504 173.817 108.504C173.23 108.504 172.706 108.398 172.244 108.185C171.782 107.965 171.389 107.672 171.067 107.305C170.744 106.938 170.498 106.517 170.33 106.04C170.161 105.563 170.077 105.068 170.077 104.555C170.077 103.983 170.154 103.44 170.308 102.927C170.469 102.406 170.704 101.952 171.012 101.563C171.327 101.174 171.716 100.866 172.178 100.639C172.647 100.404 173.193 100.287 173.817 100.287C174.242 100.287 174.642 100.338 175.016 100.441C175.397 100.536 175.734 100.69 176.028 100.903C176.328 101.116 176.578 101.387 176.776 101.717C176.981 102.04 177.12 102.432 177.194 102.894H176.149C176.097 102.593 176.002 102.337 175.863 102.124C175.723 101.904 175.551 101.724 175.346 101.585C175.14 101.446 174.906 101.343 174.642 101.277C174.385 101.204 174.11 101.167 173.817 101.167C173.34 101.167 172.929 101.262 172.585 101.453C172.247 101.644 171.969 101.897 171.749 102.212C171.536 102.52 171.378 102.876 171.276 103.279C171.173 103.675 171.122 104.082 171.122 104.5C171.122 104.911 171.18 105.307 171.298 105.688C171.415 106.062 171.587 106.396 171.815 106.689C172.042 106.975 172.321 107.206 172.651 107.382C172.988 107.551 173.377 107.635 173.817 107.635C174.227 107.635 174.59 107.569 174.906 107.437C175.221 107.305 175.485 107.125 175.698 106.898C175.918 106.663 176.083 106.392 176.193 106.084C176.303 105.769 176.35 105.431 176.336 105.072H173.828V104.192H177.271V108.328H176.611L176.336 107.349Z" fill="#0D0D0C"/>
</g>
<g clip-path="url(#clip5_447_4947)">
<mask id="path-39-inside-9_447_4947" fill="white">
<path d="M0.328125 118.328H120.328V146.328H0.328125V118.328Z"/>
</mask>
<path d="M0.328125 118.328H120.328V146.328H0.328125V118.328Z" fill="#4B9FAD"/>
<path d="M0.328125 118.328V117.328H-0.671875V118.328H0.328125ZM0.328125 119.328H120.328V117.328H0.328125V119.328ZM1.32812 146.328V118.328H-0.671875V146.328H1.32812Z" fill="#0D0D0C" mask="url(#path-39-inside-9_447_4947)"/>
<circle cx="14.8281" cy="132.328" r="2.5" fill="#0D0D0C"/>
<circle cx="24.8281" cy="132.328" r="2.5" fill="#0D0D0C"/>
<circle cx="34.8281" cy="132.328" r="2.5" fill="#0D0D0C"/>
<circle cx="44.8281" cy="132.328" r="2.5" fill="#0D0D0C"/>
<rect x="52.3281" y="129.828" width="15" height="5" fill="#0D0D0C"/>
<mask id="path-46-inside-10_447_4947" fill="white">
<path d="M120.328 118.328H345.668V146.328H120.328V118.328Z"/>
</mask>
<path d="M120.328 118.328H345.668V146.328H120.328V118.328Z" fill="#4B9FAD"/>
<path d="M120.328 118.328V117.328H119.328V118.328H120.328ZM120.328 119.328H345.668V117.328H120.328V119.328ZM121.328 146.328V118.328H119.328V146.328H121.328Z" fill="#0D0D0C" mask="url(#path-46-inside-10_447_4947)"/>
<path d="M134.231 132.236H136.277C136.871 132.243 137.304 132.122 137.575 131.873C137.854 131.624 137.993 131.264 137.993 130.795C137.993 130.326 137.854 129.97 137.575 129.728C137.304 129.479 136.871 129.354 136.277 129.354H134.231V132.236ZM133.186 128.474H136.629C137.421 128.474 138.019 128.679 138.422 129.09C138.833 129.493 139.038 130.062 139.038 130.795C139.038 131.528 138.833 132.1 138.422 132.511C138.019 132.922 137.421 133.123 136.629 133.116H134.231V136.328H133.186V128.474ZM140.319 128.474H144.015C144.763 128.474 145.346 128.657 145.764 129.024C146.189 129.391 146.402 129.893 146.402 130.531C146.402 131.008 146.292 131.426 146.072 131.785C145.859 132.144 145.515 132.39 145.038 132.522V132.544C145.265 132.588 145.449 132.661 145.588 132.764C145.735 132.867 145.848 132.991 145.929 133.138C146.017 133.277 146.079 133.435 146.116 133.611C146.16 133.787 146.193 133.97 146.215 134.161C146.23 134.352 146.241 134.546 146.248 134.744C146.255 134.942 146.274 135.136 146.303 135.327C146.332 135.518 146.373 135.701 146.424 135.877C146.483 136.046 146.567 136.196 146.677 136.328H145.511C145.438 136.247 145.386 136.137 145.357 135.998C145.335 135.859 145.32 135.705 145.313 135.536C145.306 135.36 145.298 135.173 145.291 134.975C145.284 134.777 145.262 134.583 145.225 134.392C145.196 134.201 145.159 134.022 145.115 133.853C145.071 133.677 145.001 133.527 144.906 133.402C144.811 133.27 144.686 133.167 144.532 133.094C144.378 133.013 144.173 132.973 143.916 132.973H141.364V136.328H140.319V128.474ZM143.542 132.093C143.784 132.093 144.015 132.075 144.235 132.038C144.455 132.001 144.646 131.932 144.807 131.829C144.976 131.719 145.108 131.576 145.203 131.4C145.306 131.217 145.357 130.982 145.357 130.696C145.357 130.3 145.247 129.977 145.027 129.728C144.807 129.479 144.451 129.354 143.96 129.354H141.364V132.093H143.542ZM147.849 128.474H153.272V129.354H148.894V131.851H152.975V132.731H148.894V135.448H153.305V136.328H147.849V128.474ZM157.665 136.328H156.477L153.716 128.474H154.838L157.082 135.283H157.104L159.37 128.474H160.459L157.665 136.328ZM161.298 128.474H166.721V129.354H162.343V131.851H166.424V132.731H162.343V135.448H166.754V136.328H161.298V128.474ZM168.012 128.474H169.123L173.259 134.843H173.281V128.474H174.271V136.328H173.127L169.024 130.025H169.002V136.328H168.012V128.474ZM177.744 129.354H175.126V128.474H181.407V129.354H178.789V136.328H177.744V129.354ZM182.322 128.474H183.367V136.328H182.322V128.474ZM188.216 136.328H187.028L184.267 128.474H185.389L187.633 135.283H187.655L189.921 128.474H191.01L188.216 136.328ZM191.849 128.474H197.272V129.354H192.894V131.851H196.975V132.731H192.894V135.448H197.305V136.328H191.849V128.474ZM201.657 128.474H203.087L205.562 135.074L208.048 128.474H209.478V136.328H208.488V129.794H208.466L206.013 136.328H205.122L202.669 129.794H202.647V136.328H201.657V128.474ZM212.57 133.083H215.232L213.923 129.42H213.901L212.57 133.083ZM213.351 128.474H214.506L217.575 136.328H216.42L215.562 133.963H212.24L211.36 136.328H210.293L213.351 128.474ZM218.394 128.474H219.439V136.328H218.394V128.474ZM221.186 128.474H222.297L226.433 134.843H226.455V128.474H227.445V136.328H226.301L222.198 130.025H222.176V136.328H221.186V128.474ZM230.917 129.354H228.299V128.474H234.58V129.354H231.962V136.328H230.917V129.354ZM235.452 128.474H240.875V129.354H236.497V131.851H240.578V132.731H236.497V135.448H240.908V136.328H235.452V128.474ZM242.165 128.474H243.276L247.412 134.843H247.434V128.474H248.424V136.328H247.28L243.177 130.025H243.155V136.328H242.165V128.474ZM251.468 133.083H254.13L252.821 129.42H252.799L251.468 133.083ZM252.249 128.474H253.404L256.473 136.328H255.318L254.46 133.963H251.138L250.258 136.328H249.191L252.249 128.474ZM257.237 128.474H258.348L262.484 134.843H262.506V128.474H263.496V136.328H262.352L258.249 130.025H258.227V136.328H257.237V128.474ZM270.708 130.839C270.591 130.282 270.33 129.864 269.927 129.585C269.531 129.306 269.058 129.167 268.508 129.167C268.039 129.167 267.635 129.255 267.298 129.431C266.968 129.607 266.693 129.845 266.473 130.146C266.26 130.439 266.103 130.777 266 131.158C265.897 131.539 265.846 131.935 265.846 132.346C265.846 132.793 265.897 133.219 266 133.622C266.103 134.018 266.26 134.366 266.473 134.667C266.693 134.96 266.972 135.195 267.309 135.371C267.646 135.547 268.05 135.635 268.519 135.635C268.864 135.635 269.168 135.58 269.432 135.47C269.703 135.353 269.934 135.195 270.125 134.997C270.323 134.792 270.477 134.55 270.587 134.271C270.697 133.992 270.763 133.692 270.785 133.369H271.83C271.727 134.359 271.386 135.129 270.807 135.679C270.228 136.229 269.436 136.504 268.431 136.504C267.822 136.504 267.291 136.401 266.836 136.196C266.381 135.983 266.004 135.694 265.703 135.327C265.402 134.96 265.175 134.528 265.021 134.029C264.874 133.53 264.801 132.995 264.801 132.423C264.801 131.851 264.882 131.316 265.043 130.817C265.204 130.311 265.439 129.871 265.747 129.497C266.062 129.123 266.451 128.83 266.913 128.617C267.382 128.397 267.918 128.287 268.519 128.287C268.93 128.287 269.318 128.342 269.685 128.452C270.052 128.562 270.378 128.723 270.664 128.936C270.95 129.149 271.188 129.416 271.379 129.739C271.57 130.054 271.694 130.421 271.753 130.839H270.708ZM273.125 128.474H278.548V129.354H274.17V131.851H278.251V132.731H274.17V135.448H278.581V136.328H273.125V128.474Z" fill="#0D0D0C"/>
</g>
<g clip-path="url(#clip6_447_4947)">
<mask id="path-49-inside-11_447_4947" fill="white">
<path d="M0.328125 146.328H120.328V174.328H0.328125V146.328Z"/>
</mask>
<path d="M0.328125 146.328H120.328V174.328H0.328125V146.328Z" fill="#4B9FAD"/>
<path d="M0.328125 146.328V145.328H-0.671875V146.328H0.328125ZM0.328125 147.328H120.328V145.328H0.328125V147.328ZM1.32812 174.328V146.328H-0.671875V174.328H1.32812Z" fill="#0D0D0C" mask="url(#path-49-inside-11_447_4947)"/>
<circle cx="14.8281" cy="160.328" r="2.5" fill="#0D0D0C"/>
<circle cx="24.8281" cy="160.328" r="2.5" fill="#0D0D0C"/>
<circle cx="34.8281" cy="160.328" r="2.5" fill="#0D0D0C"/>
<circle cx="44.8281" cy="160.328" r="2.5" fill="#0D0D0C"/>
<circle cx="54.8281" cy="160.328" r="2.5" fill="#0D0D0C"/>
<mask id="path-56-inside-12_447_4947" fill="white">
<path d="M120.328 146.328H345.668V174.328H120.328V146.328Z"/>
</mask>
<path d="M120.328 146.328H345.668V174.328H120.328V146.328Z" fill="#4B9FAD"/>
<path d="M120.328 146.328V145.328H119.328V146.328H120.328ZM120.328 147.328H345.668V145.328H120.328V147.328ZM121.328 174.328V146.328H119.328V174.328H121.328Z" fill="#0D0D0C" mask="url(#path-56-inside-12_447_4947)"/>
<path d="M140.281 164.328H139.192L137.399 157.728H137.377L135.562 164.328H134.473L132.46 156.474H133.527L135.067 163.008H135.089L136.849 156.474H137.982L139.72 163.008H139.742L141.337 156.474H142.382L140.281 164.328ZM144.454 161.083H147.116L145.807 157.42H145.785L144.454 161.083ZM145.235 156.474H146.39L149.459 164.328H148.304L147.446 161.963H144.124L143.244 164.328H142.177L145.235 156.474ZM154.777 158.773C154.718 158.208 154.513 157.801 154.161 157.552C153.816 157.295 153.373 157.167 152.83 157.167C152.61 157.167 152.394 157.189 152.181 157.233C151.968 157.277 151.778 157.35 151.609 157.453C151.448 157.556 151.316 157.695 151.213 157.871C151.118 158.04 151.07 158.252 151.07 158.509C151.07 158.751 151.14 158.949 151.279 159.103C151.426 159.25 151.616 159.371 151.851 159.466C152.093 159.561 152.364 159.642 152.665 159.708C152.966 159.767 153.27 159.833 153.578 159.906C153.893 159.979 154.201 160.067 154.502 160.17C154.803 160.265 155.07 160.397 155.305 160.566C155.547 160.735 155.738 160.947 155.877 161.204C156.024 161.461 156.097 161.783 156.097 162.172C156.097 162.59 156.002 162.949 155.811 163.25C155.628 163.543 155.389 163.785 155.096 163.976C154.803 164.159 154.473 164.291 154.106 164.372C153.747 164.46 153.387 164.504 153.028 164.504C152.588 164.504 152.17 164.449 151.774 164.339C151.385 164.229 151.041 164.064 150.74 163.844C150.447 163.617 150.212 163.331 150.036 162.986C149.867 162.634 149.783 162.22 149.783 161.743H150.773C150.773 162.073 150.835 162.359 150.96 162.601C151.092 162.836 151.261 163.03 151.466 163.184C151.679 163.338 151.924 163.452 152.203 163.525C152.482 163.598 152.768 163.635 153.061 163.635C153.296 163.635 153.53 163.613 153.765 163.569C154.007 163.525 154.223 163.452 154.414 163.349C154.605 163.239 154.759 163.092 154.876 162.909C154.993 162.726 155.052 162.491 155.052 162.205C155.052 161.934 154.979 161.714 154.832 161.545C154.693 161.376 154.502 161.241 154.26 161.138C154.025 161.028 153.758 160.94 153.457 160.874C153.156 160.808 152.848 160.742 152.533 160.676C152.225 160.603 151.921 160.522 151.62 160.434C151.319 160.339 151.048 160.218 150.806 160.071C150.571 159.917 150.381 159.723 150.234 159.488C150.095 159.246 150.025 158.945 150.025 158.586C150.025 158.19 150.106 157.849 150.267 157.563C150.428 157.27 150.641 157.031 150.905 156.848C151.176 156.657 151.481 156.518 151.818 156.43C152.163 156.335 152.515 156.287 152.874 156.287C153.277 156.287 153.651 156.335 153.996 156.43C154.341 156.525 154.641 156.676 154.898 156.881C155.162 157.086 155.367 157.347 155.514 157.662C155.668 157.97 155.752 158.34 155.767 158.773H154.777ZM159.149 157.354H156.531V156.474H162.812V157.354H160.194V164.328H159.149V157.354ZM163.683 156.474H169.106V157.354H164.728V159.851H168.809V160.731H164.728V163.448H169.139V164.328H163.683V156.474ZM173.491 156.474H174.921L177.396 163.074L179.882 156.474H181.312V164.328H180.322V157.794H180.3L177.847 164.328H176.956L174.503 157.794H174.481V164.328H173.491V156.474ZM184.404 161.083H187.066L185.757 157.42H185.735L184.404 161.083ZM185.185 156.474H186.34L189.409 164.328H188.254L187.396 161.963H184.074L183.194 164.328H182.127L185.185 156.474ZM190.173 156.474H191.284L195.42 162.843H195.442V156.474H196.432V164.328H195.288L191.185 158.025H191.163V164.328H190.173V156.474ZM199.476 161.083H202.138L200.829 157.42H200.807L199.476 161.083ZM200.257 156.474H201.412L204.481 164.328H203.326L202.468 161.963H199.146L198.266 164.328H197.199L200.257 156.474ZM211.129 163.349C210.821 163.76 210.44 164.057 209.985 164.24C209.531 164.416 209.072 164.504 208.61 164.504C208.024 164.504 207.499 164.398 207.037 164.185C206.575 163.965 206.183 163.672 205.86 163.305C205.538 162.938 205.292 162.517 205.123 162.04C204.955 161.563 204.87 161.068 204.87 160.555C204.87 159.983 204.947 159.44 205.101 158.927C205.263 158.406 205.497 157.952 205.805 157.563C206.121 157.174 206.509 156.866 206.971 156.639C207.441 156.404 207.987 156.287 208.61 156.287C209.036 156.287 209.435 156.338 209.809 156.441C210.191 156.536 210.528 156.69 210.821 156.903C211.122 157.116 211.371 157.387 211.569 157.717C211.775 158.04 211.914 158.432 211.987 158.894H210.942C210.891 158.593 210.796 158.337 210.656 158.124C210.517 157.904 210.345 157.724 210.139 157.585C209.934 157.446 209.699 157.343 209.435 157.277C209.179 157.204 208.904 157.167 208.61 157.167C208.134 157.167 207.723 157.262 207.378 157.453C207.041 157.644 206.762 157.897 206.542 158.212C206.33 158.52 206.172 158.876 206.069 159.279C205.967 159.675 205.915 160.082 205.915 160.5C205.915 160.911 205.974 161.307 206.091 161.688C206.209 162.062 206.381 162.396 206.608 162.689C206.836 162.975 207.114 163.206 207.444 163.382C207.782 163.551 208.17 163.635 208.61 163.635C209.021 163.635 209.384 163.569 209.699 163.437C210.015 163.305 210.279 163.125 210.491 162.898C210.711 162.663 210.876 162.392 210.986 162.084C211.096 161.769 211.144 161.431 211.129 161.072H208.621V160.192H212.064V164.328H211.404L211.129 163.349ZM213.602 156.474H219.025V157.354H214.647V159.851H218.728V160.731H214.647V163.448H219.058V164.328H213.602V156.474ZM220.349 156.474H221.779L224.254 163.074L226.74 156.474H228.17V164.328H227.18V157.794H227.158L224.705 164.328H223.814L221.361 157.794H221.339V164.328H220.349V156.474ZM229.909 156.474H235.332V157.354H230.954V159.851H235.035V160.731H230.954V163.448H235.365V164.328H229.909V156.474ZM236.622 156.474H237.733L241.869 162.843H241.891V156.474H242.881V164.328H241.737L237.634 158.025H237.612V164.328H236.622V156.474ZM246.354 157.354H243.736V156.474H250.017V157.354H247.399V164.328H246.354V157.354Z" fill="#0D0D0C"/>
</g>
<g clip-path="url(#clip7_447_4947)">
<mask id="path-59-inside-13_447_4947" fill="white">
<path d="M0.328125 174.328H120.328V202.328H0.328125V174.328Z"/>
</mask>
<path d="M0.328125 174.328H120.328V202.328H0.328125V174.328Z" fill="#4B9FAD"/>
<path d="M0.328125 174.328V173.328H-0.671875V174.328H0.328125ZM0.328125 175.328H120.328V173.328H0.328125V175.328ZM1.32812 202.328V174.328H-0.671875V202.328H1.32812Z" fill="#0D0D0C" mask="url(#path-59-inside-13_447_4947)"/>
<circle cx="2.5" cy="2.5" r="2.5" transform="matrix(-1 0 0 1 67.3281 185.828)" fill="#0D0D0C"/>
<circle cx="2.5" cy="2.5" r="2.5" transform="matrix(-1 0 0 1 57.3281 185.828)" fill="#0D0D0C"/>
<circle cx="2.5" cy="2.5" r="2.5" transform="matrix(-1 0 0 1 47.3281 185.828)" fill="#0D0D0C"/>
<circle cx="2.5" cy="2.5" r="2.5" transform="matrix(-1 0 0 1 37.3281 185.828)" fill="#0D0D0C"/>
<rect width="15" height="5" transform="matrix(-1 0 0 1 27.3281 185.828)" fill="#0D0D0C"/>
<mask id="path-66-inside-14_447_4947" fill="white">
<path d="M120.328 174.328H345.668V202.328H120.328V174.328Z"/>
</mask>
<path d="M120.328 174.328H345.668V202.328H120.328V174.328Z" fill="#4B9FAD"/>
<path d="M120.328 174.328V173.328H119.328V174.328H120.328ZM120.328 175.328H345.668V173.328H120.328V175.328ZM121.328 202.328V174.328H119.328V202.328H121.328Z" fill="#0D0D0C" mask="url(#path-66-inside-14_447_4947)"/>
<path d="M137.729 186.773C137.67 186.208 137.465 185.801 137.113 185.552C136.768 185.295 136.325 185.167 135.782 185.167C135.562 185.167 135.346 185.189 135.133 185.233C134.92 185.277 134.73 185.35 134.561 185.453C134.4 185.556 134.268 185.695 134.165 185.871C134.07 186.04 134.022 186.252 134.022 186.509C134.022 186.751 134.092 186.949 134.231 187.103C134.378 187.25 134.568 187.371 134.803 187.466C135.045 187.561 135.316 187.642 135.617 187.708C135.918 187.767 136.222 187.833 136.53 187.906C136.845 187.979 137.153 188.067 137.454 188.17C137.755 188.265 138.022 188.397 138.257 188.566C138.499 188.735 138.69 188.947 138.829 189.204C138.976 189.461 139.049 189.783 139.049 190.172C139.049 190.59 138.954 190.949 138.763 191.25C138.58 191.543 138.341 191.785 138.048 191.976C137.755 192.159 137.425 192.291 137.058 192.372C136.699 192.46 136.339 192.504 135.98 192.504C135.54 192.504 135.122 192.449 134.726 192.339C134.337 192.229 133.993 192.064 133.692 191.844C133.399 191.617 133.164 191.331 132.988 190.986C132.819 190.634 132.735 190.22 132.735 189.743H133.725C133.725 190.073 133.787 190.359 133.912 190.601C134.044 190.836 134.213 191.03 134.418 191.184C134.631 191.338 134.876 191.452 135.155 191.525C135.434 191.598 135.72 191.635 136.013 191.635C136.248 191.635 136.482 191.613 136.717 191.569C136.959 191.525 137.175 191.452 137.366 191.349C137.557 191.239 137.711 191.092 137.828 190.909C137.945 190.726 138.004 190.491 138.004 190.205C138.004 189.934 137.931 189.714 137.784 189.545C137.645 189.376 137.454 189.241 137.212 189.138C136.977 189.028 136.71 188.94 136.409 188.874C136.108 188.808 135.8 188.742 135.485 188.676C135.177 188.603 134.873 188.522 134.572 188.434C134.271 188.339 134 188.218 133.758 188.071C133.523 187.917 133.333 187.723 133.186 187.488C133.047 187.246 132.977 186.945 132.977 186.586C132.977 186.19 133.058 185.849 133.219 185.563C133.38 185.27 133.593 185.031 133.857 184.848C134.128 184.657 134.433 184.518 134.77 184.43C135.115 184.335 135.467 184.287 135.826 184.287C136.229 184.287 136.603 184.335 136.948 184.43C137.293 184.525 137.593 184.676 137.85 184.881C138.114 185.086 138.319 185.347 138.466 185.662C138.62 185.97 138.704 186.34 138.719 186.773H137.729ZM142.101 185.354H139.483V184.474H145.764V185.354H143.146V192.328H142.101V185.354ZM146.979 189.083H149.641L148.332 185.42H148.31L146.979 189.083ZM147.76 184.474H148.915L151.984 192.328H150.829L149.971 189.963H146.649L145.769 192.328H144.702L147.76 184.474ZM152.758 184.474H157.917V185.354H153.803V187.851H157.411V188.731H153.803V192.328H152.758V184.474ZM159.075 184.474H164.234V185.354H160.12V187.851H163.728V188.731H160.12V192.328H159.075V184.474ZM170.235 185.354H167.617V184.474H173.898V185.354H171.28V192.328H170.235V185.354ZM174.769 184.474H178.465C179.213 184.474 179.796 184.657 180.214 185.024C180.639 185.391 180.852 185.893 180.852 186.531C180.852 187.008 180.742 187.426 180.522 187.785C180.309 188.144 179.965 188.39 179.488 188.522V188.544C179.715 188.588 179.899 188.661 180.038 188.764C180.185 188.867 180.298 188.991 180.379 189.138C180.467 189.277 180.529 189.435 180.566 189.611C180.61 189.787 180.643 189.97 180.665 190.161C180.68 190.352 180.691 190.546 180.698 190.744C180.705 190.942 180.724 191.136 180.753 191.327C180.782 191.518 180.823 191.701 180.874 191.877C180.933 192.046 181.017 192.196 181.127 192.328H179.961C179.888 192.247 179.836 192.137 179.807 191.998C179.785 191.859 179.77 191.705 179.763 191.536C179.756 191.36 179.748 191.173 179.741 190.975C179.734 190.777 179.712 190.583 179.675 190.392C179.646 190.201 179.609 190.022 179.565 189.853C179.521 189.677 179.451 189.527 179.356 189.402C179.261 189.27 179.136 189.167 178.982 189.094C178.828 189.013 178.623 188.973 178.366 188.973H175.814V192.328H174.769V184.474ZM177.992 188.093C178.234 188.093 178.465 188.075 178.685 188.038C178.905 188.001 179.096 187.932 179.257 187.829C179.426 187.719 179.558 187.576 179.653 187.4C179.756 187.217 179.807 186.982 179.807 186.696C179.807 186.3 179.697 185.977 179.477 185.728C179.257 185.479 178.901 185.354 178.41 185.354H175.814V188.093H177.992ZM183.652 189.083H186.314L185.005 185.42H184.983L183.652 189.083ZM184.433 184.474H185.588L188.657 192.328H187.502L186.644 189.963H183.322L182.442 192.328H181.375L184.433 184.474ZM189.476 184.474H190.521V192.328H189.476V184.474ZM192.268 184.474H193.379L197.515 190.843H197.537V184.474H198.527V192.328H197.383L193.28 186.025H193.258V192.328H192.268V184.474ZM200.261 184.474H201.306V192.328H200.261V184.474ZM203.053 184.474H204.164L208.3 190.843H208.322V184.474H209.312V192.328H208.168L204.065 186.025H204.043V192.328H203.053V184.474ZM216.877 191.349C216.569 191.76 216.187 192.057 215.733 192.24C215.278 192.416 214.82 192.504 214.358 192.504C213.771 192.504 213.247 192.398 212.785 192.185C212.323 191.965 211.93 191.672 211.608 191.305C211.285 190.938 211.039 190.517 210.871 190.04C210.702 189.563 210.618 189.068 210.618 188.555C210.618 187.983 210.695 187.44 210.849 186.927C211.01 186.406 211.245 185.952 211.553 185.563C211.868 185.174 212.257 184.866 212.719 184.639C213.188 184.404 213.734 184.287 214.358 184.287C214.783 184.287 215.183 184.338 215.557 184.441C215.938 184.536 216.275 184.69 216.569 184.903C216.869 185.116 217.119 185.387 217.317 185.717C217.522 186.04 217.661 186.432 217.735 186.894H216.69C216.638 186.593 216.543 186.337 216.404 186.124C216.264 185.904 216.092 185.724 215.887 185.585C215.681 185.446 215.447 185.343 215.183 185.277C214.926 185.204 214.651 185.167 214.358 185.167C213.881 185.167 213.47 185.262 213.126 185.453C212.788 185.644 212.51 185.897 212.29 186.212C212.077 186.52 211.919 186.876 211.817 187.279C211.714 187.675 211.663 188.082 211.663 188.5C211.663 188.911 211.721 189.307 211.839 189.688C211.956 190.062 212.128 190.396 212.356 190.689C212.583 190.975 212.862 191.206 213.192 191.382C213.529 191.551 213.918 191.635 214.358 191.635C214.768 191.635 215.131 191.569 215.447 191.437C215.762 191.305 216.026 191.125 216.239 190.898C216.459 190.663 216.624 190.392 216.734 190.084C216.844 189.769 216.891 189.431 216.877 189.072H214.369V188.192H217.812V192.328H217.152L216.877 191.349Z" fill="#0D0D0C"/>
</g>
</g>
<rect x="0.828125" y="0.828125" width="344.34" height="201" rx="3.5" stroke="#0D0D0C"/>
<defs>
<clipPath id="clip0_447_4947">
<rect x="0.328125" y="0.328125" width="345.34" height="202" rx="4" fill="white"/>
</clipPath>
<clipPath id="clip1_447_4947">
<rect width="345.34" height="34" fill="white" transform="translate(0.328125 0.328125)"/>
</clipPath>
<clipPath id="clip2_447_4947">
<rect width="345.34" height="28" fill="white" transform="translate(0.328125 34.3281)"/>
</clipPath>
<clipPath id="clip3_447_4947">
<rect width="345.34" height="28" fill="white" transform="translate(0.328125 62.3281)"/>
</clipPath>
<clipPath id="clip4_447_4947">
<rect width="345.34" height="28" fill="white" transform="translate(0.328125 90.3281)"/>
</clipPath>
<clipPath id="clip5_447_4947">
<rect width="345.34" height="28" fill="white" transform="translate(0.328125 118.328)"/>
</clipPath>
<clipPath id="clip6_447_4947">
<rect width="345.34" height="28" fill="white" transform="translate(0.328125 146.328)"/>
</clipPath>
<clipPath id="clip7_447_4947">
<rect width="345.34" height="28" fill="white" transform="translate(0.328125 174.328)"/>
</clipPath>
</defs>
</svg>
