<svg width="351" height="287" viewBox="0 0 351 287" fill="none" xmlns="http://www.w3.org/2000/svg">
<path d="M13.4881 11.7424C13.3815 11.3291 13.2348 10.9491 13.0481 10.6024C12.8615 10.2558 12.6215 9.95575 12.3281 9.70242C12.0348 9.44909 11.6881 9.25575 11.2881 9.12242C10.9015 8.97575 10.4481 8.90242 9.92813 8.90242C9.16813 8.90242 8.50813 9.05576 7.94813 9.36242C7.40146 9.66909 6.95479 10.0824 6.60813 10.6024C6.26146 11.1091 6.00146 11.6891 5.82813 12.3424C5.66813 12.9958 5.58813 13.6624 5.58813 14.3424C5.58813 15.0224 5.66813 15.6891 5.82813 16.3424C6.00146 16.9958 6.26146 17.5824 6.60813 18.1024C6.95479 18.6091 7.40146 19.0158 7.94813 19.3224C8.50813 19.6291 9.16813 19.7824 9.92813 19.7824C10.4881 19.7824 10.9815 19.6891 11.4081 19.5024C11.8348 19.3024 12.2015 19.0358 12.5081 18.7024C12.8148 18.3558 13.0548 17.9558 13.2281 17.5024C13.4015 17.0491 13.5148 16.5624 13.5681 16.0424H16.0081C15.9548 16.8958 15.7681 17.6758 15.4481 18.3824C15.1415 19.0891 14.7215 19.7024 14.1881 20.2224C13.6548 20.7291 13.0281 21.1224 12.3081 21.4024C11.5881 21.6824 10.7948 21.8224 9.92813 21.8224C8.86146 21.8224 7.90146 21.6291 7.04813 21.2424C6.20813 20.8424 5.49479 20.3024 4.90813 19.6224C4.32146 18.9424 3.86813 18.1491 3.54813 17.2424C3.24146 16.3358 3.08813 15.3691 3.08813 14.3424C3.08813 13.3291 3.24146 12.3691 3.54813 11.4624C3.86813 10.5558 4.32146 9.76242 4.90813 9.08242C5.49479 8.40242 6.20813 7.86242 7.04813 7.46242C7.90146 7.06242 8.86146 6.86242 9.92813 6.86242C10.7281 6.86242 11.4815 6.97575 12.1881 7.20242C12.8948 7.41575 13.5148 7.73575 14.0481 8.16242C14.5948 8.57575 15.0348 9.08242 15.3681 9.68242C15.7015 10.2824 15.9081 10.9691 15.9881 11.7424H13.4881ZM26.6217 19.1824C26.6217 19.4624 26.6551 19.6624 26.7217 19.7824C26.8017 19.9024 26.9484 19.9624 27.1617 19.9624C27.2284 19.9624 27.3084 19.9624 27.4017 19.9624C27.4951 19.9624 27.6017 19.9491 27.7217 19.9224V21.5024C27.6417 21.5291 27.5351 21.5558 27.4017 21.5824C27.2817 21.6224 27.1551 21.6558 27.0217 21.6824C26.8884 21.7091 26.7551 21.7291 26.6217 21.7424C26.4884 21.7558 26.3751 21.7624 26.2817 21.7624C25.8151 21.7624 25.4284 21.6691 25.1217 21.4824C24.8151 21.2958 24.6151 20.9691 24.5217 20.5024C24.0684 20.9424 23.5084 21.2624 22.8417 21.4624C22.1884 21.6624 21.5551 21.7624 20.9417 21.7624C20.4751 21.7624 20.0284 21.6958 19.6017 21.5624C19.1751 21.4424 18.7951 21.2624 18.4617 21.0224C18.1417 20.7691 17.8817 20.4558 17.6817 20.0824C17.4951 19.6958 17.4017 19.2491 17.4017 18.7424C17.4017 18.1024 17.5151 17.5824 17.7417 17.1824C17.9817 16.7824 18.2884 16.4691 18.6617 16.2424C19.0484 16.0158 19.4751 15.8558 19.9417 15.7624C20.4217 15.6558 20.9017 15.5758 21.3817 15.5224C21.7951 15.4424 22.1884 15.3891 22.5617 15.3624C22.9351 15.3224 23.2617 15.2624 23.5417 15.1824C23.8351 15.1024 24.0617 14.9824 24.2217 14.8224C24.3951 14.6491 24.4817 14.3958 24.4817 14.0624C24.4817 13.7691 24.4084 13.5291 24.2617 13.3424C24.1284 13.1558 23.9551 13.0158 23.7417 12.9224C23.5417 12.8158 23.3151 12.7491 23.0617 12.7224C22.8084 12.6824 22.5684 12.6624 22.3417 12.6624C21.7017 12.6624 21.1751 12.7958 20.7617 13.0624C20.3484 13.3291 20.1151 13.7424 20.0617 14.3024H17.7817C17.8217 13.6358 17.9817 13.0824 18.2617 12.6424C18.5417 12.2024 18.8951 11.8491 19.3217 11.5824C19.7617 11.3158 20.2551 11.1291 20.8017 11.0224C21.3484 10.9158 21.9084 10.8624 22.4817 10.8624C22.9884 10.8624 23.4884 10.9158 23.9817 11.0224C24.4751 11.1291 24.9151 11.3024 25.3017 11.5424C25.7017 11.7824 26.0217 12.0958 26.2617 12.4824C26.5017 12.8558 26.6217 13.3158 26.6217 13.8624V19.1824ZM24.3417 16.3024C23.9951 16.5291 23.5684 16.6691 23.0617 16.7224C22.5551 16.7624 22.0484 16.8291 21.5417 16.9224C21.3017 16.9624 21.0684 17.0224 20.8417 17.1024C20.6151 17.1691 20.4151 17.2691 20.2417 17.4024C20.0684 17.5224 19.9284 17.6891 19.8217 17.9024C19.7284 18.1024 19.6817 18.3491 19.6817 18.6424C19.6817 18.8958 19.7551 19.1091 19.9017 19.2824C20.0484 19.4558 20.2217 19.5958 20.4217 19.7024C20.6351 19.7958 20.8617 19.8624 21.1017 19.9024C21.3551 19.9424 21.5817 19.9624 21.7817 19.9624C22.0351 19.9624 22.3084 19.9291 22.6017 19.8624C22.8951 19.7958 23.1684 19.6824 23.4217 19.5224C23.6884 19.3624 23.9084 19.1624 24.0817 18.9224C24.2551 18.6691 24.3417 18.3624 24.3417 18.0024V16.3024ZM29.135 7.20242H31.415V21.4824H29.135V7.20242ZM33.9592 7.20242H36.2392V12.4824H36.2792C36.4392 12.2291 36.6326 12.0024 36.8592 11.8024C37.0859 11.6024 37.3326 11.4358 37.5992 11.3024C37.8792 11.1558 38.1659 11.0491 38.4592 10.9824C38.7659 10.9024 39.0659 10.8624 39.3592 10.8624C40.1726 10.8624 40.8792 11.0091 41.4792 11.3024C42.0926 11.5824 42.5992 11.9758 42.9992 12.4824C43.3992 12.9758 43.6992 13.5558 43.8992 14.2224C44.0992 14.8891 44.1992 15.6024 44.1992 16.3624C44.1992 17.0558 44.1059 17.7291 43.9192 18.3824C43.7459 19.0358 43.4726 19.6158 43.0992 20.1224C42.7392 20.6158 42.2792 21.0158 41.7192 21.3224C41.1592 21.6158 40.4992 21.7624 39.7392 21.7624C39.3926 21.7624 39.0392 21.7358 38.6792 21.6824C38.3326 21.6424 37.9992 21.5558 37.6792 21.4224C37.3592 21.2891 37.0659 21.1158 36.7992 20.9024C36.5459 20.6891 36.3326 20.4091 36.1592 20.0624H36.1192V21.4824H33.9592V7.20242ZM41.9192 16.3224C41.9192 15.8558 41.8592 15.4024 41.7392 14.9624C41.6192 14.5224 41.4392 14.1358 41.1992 13.8024C40.9592 13.4558 40.6592 13.1824 40.2992 12.9824C39.9392 12.7691 39.5259 12.6624 39.0592 12.6624C38.0992 12.6624 37.3726 12.9958 36.8792 13.6624C36.3992 14.3291 36.1592 15.2158 36.1592 16.3224C36.1592 16.8424 36.2192 17.3291 36.3392 17.7824C36.4726 18.2224 36.6659 18.6024 36.9192 18.9224C37.1726 19.2424 37.4726 19.4958 37.8192 19.6824C38.1792 19.8691 38.5926 19.9624 39.0592 19.9624C39.5792 19.9624 40.0192 19.8558 40.3792 19.6424C40.7392 19.4291 41.0326 19.1558 41.2592 18.8224C41.4992 18.4758 41.6659 18.0891 41.7592 17.6624C41.8659 17.2224 41.9192 16.7758 41.9192 16.3224ZM46.1258 11.1424H48.2658V13.1424H48.3058C48.3724 12.8624 48.4991 12.5891 48.6858 12.3224C48.8858 12.0558 49.1191 11.8158 49.3858 11.6024C49.6658 11.3758 49.9724 11.1958 50.3058 11.0624C50.6391 10.9291 50.9791 10.8624 51.3258 10.8624C51.5924 10.8624 51.7724 10.8691 51.8658 10.8824C51.9724 10.8958 52.0791 10.9091 52.1858 10.9224V13.1224C52.0258 13.0958 51.8591 13.0758 51.6858 13.0624C51.5258 13.0358 51.3658 13.0224 51.2058 13.0224C50.8191 13.0224 50.4524 13.1024 50.1058 13.2624C49.7724 13.4091 49.4791 13.6358 49.2258 13.9424C48.9724 14.2358 48.7724 14.6024 48.6258 15.0424C48.4791 15.4824 48.4058 15.9891 48.4058 16.5624V21.4824H46.1258V11.1424ZM61.817 19.1824C61.817 19.4624 61.8504 19.6624 61.917 19.7824C61.997 19.9024 62.1437 19.9624 62.357 19.9624C62.4237 19.9624 62.5037 19.9624 62.597 19.9624C62.6904 19.9624 62.797 19.9491 62.917 19.9224V21.5024C62.837 21.5291 62.7304 21.5558 62.597 21.5824C62.477 21.6224 62.3504 21.6558 62.217 21.6824C62.0837 21.7091 61.9504 21.7291 61.817 21.7424C61.6837 21.7558 61.5704 21.7624 61.477 21.7624C61.0104 21.7624 60.6237 21.6691 60.317 21.4824C60.0104 21.2958 59.8104 20.9691 59.717 20.5024C59.2637 20.9424 58.7037 21.2624 58.037 21.4624C57.3837 21.6624 56.7504 21.7624 56.137 21.7624C55.6704 21.7624 55.2237 21.6958 54.797 21.5624C54.3704 21.4424 53.9904 21.2624 53.657 21.0224C53.337 20.7691 53.077 20.4558 52.877 20.0824C52.6904 19.6958 52.597 19.2491 52.597 18.7424C52.597 18.1024 52.7104 17.5824 52.937 17.1824C53.177 16.7824 53.4837 16.4691 53.857 16.2424C54.2437 16.0158 54.6704 15.8558 55.137 15.7624C55.617 15.6558 56.097 15.5758 56.577 15.5224C56.9904 15.4424 57.3837 15.3891 57.757 15.3624C58.1304 15.3224 58.457 15.2624 58.737 15.1824C59.0304 15.1024 59.257 14.9824 59.417 14.8224C59.5904 14.6491 59.677 14.3958 59.677 14.0624C59.677 13.7691 59.6037 13.5291 59.457 13.3424C59.3237 13.1558 59.1504 13.0158 58.937 12.9224C58.737 12.8158 58.5104 12.7491 58.257 12.7224C58.0037 12.6824 57.7637 12.6624 57.537 12.6624C56.897 12.6624 56.3704 12.7958 55.957 13.0624C55.5437 13.3291 55.3104 13.7424 55.257 14.3024H52.977C53.017 13.6358 53.177 13.0824 53.457 12.6424C53.737 12.2024 54.0904 11.8491 54.517 11.5824C54.957 11.3158 55.4504 11.1291 55.997 11.0224C56.5437 10.9158 57.1037 10.8624 57.677 10.8624C58.1837 10.8624 58.6837 10.9158 59.177 11.0224C59.6704 11.1291 60.1104 11.3024 60.497 11.5424C60.897 11.7824 61.217 12.0958 61.457 12.4824C61.697 12.8558 61.817 13.3158 61.817 13.8624V19.1824ZM59.537 16.3024C59.1904 16.5291 58.7637 16.6691 58.257 16.7224C57.7504 16.7624 57.2437 16.8291 56.737 16.9224C56.497 16.9624 56.2637 17.0224 56.037 17.1024C55.8104 17.1691 55.6104 17.2691 55.437 17.4024C55.2637 17.5224 55.1237 17.6891 55.017 17.9024C54.9237 18.1024 54.877 18.3491 54.877 18.6424C54.877 18.8958 54.9504 19.1091 55.097 19.2824C55.2437 19.4558 55.417 19.5958 55.617 19.7024C55.8304 19.7958 56.057 19.8624 56.297 19.9024C56.5504 19.9424 56.777 19.9624 56.977 19.9624C57.2304 19.9624 57.5037 19.9291 57.797 19.8624C58.0904 19.7958 58.3637 19.6824 58.617 19.5224C58.8837 19.3624 59.1037 19.1624 59.277 18.9224C59.4504 18.6691 59.537 18.3624 59.537 18.0024V16.3024ZM64.2703 11.1424H66.4303V12.6624L66.4703 12.7024C66.817 12.1291 67.2703 11.6824 67.8303 11.3624C68.3903 11.0291 69.0103 10.8624 69.6903 10.8624C70.8236 10.8624 71.717 11.1558 72.3703 11.7424C73.0236 12.3291 73.3503 13.2091 73.3503 14.3824V21.4824H71.0703V14.9824C71.0436 14.1691 70.8703 13.5824 70.5503 13.2224C70.2303 12.8491 69.7303 12.6624 69.0503 12.6624C68.6636 12.6624 68.317 12.7358 68.0103 12.8824C67.7036 13.0158 67.4436 13.2091 67.2303 13.4624C67.017 13.7024 66.8503 13.9891 66.7303 14.3224C66.6103 14.6558 66.5503 15.0091 66.5503 15.3824V21.4824H64.2703V11.1424ZM84.4147 19.1824C84.4147 19.4624 84.448 19.6624 84.5147 19.7824C84.5947 19.9024 84.7414 19.9624 84.9547 19.9624C85.0214 19.9624 85.1014 19.9624 85.1947 19.9624C85.288 19.9624 85.3947 19.9491 85.5147 19.9224V21.5024C85.4347 21.5291 85.328 21.5558 85.1947 21.5824C85.0747 21.6224 84.948 21.6558 84.8147 21.6824C84.6814 21.7091 84.548 21.7291 84.4147 21.7424C84.2814 21.7558 84.168 21.7624 84.0747 21.7624C83.608 21.7624 83.2214 21.6691 82.9147 21.4824C82.608 21.2958 82.408 20.9691 82.3147 20.5024C81.8614 20.9424 81.3014 21.2624 80.6347 21.4624C79.9814 21.6624 79.348 21.7624 78.7347 21.7624C78.268 21.7624 77.8214 21.6958 77.3947 21.5624C76.968 21.4424 76.588 21.2624 76.2547 21.0224C75.9347 20.7691 75.6747 20.4558 75.4747 20.0824C75.288 19.6958 75.1947 19.2491 75.1947 18.7424C75.1947 18.1024 75.308 17.5824 75.5347 17.1824C75.7747 16.7824 76.0814 16.4691 76.4547 16.2424C76.8414 16.0158 77.268 15.8558 77.7347 15.7624C78.2147 15.6558 78.6947 15.5758 79.1747 15.5224C79.588 15.4424 79.9814 15.3891 80.3547 15.3624C80.728 15.3224 81.0547 15.2624 81.3347 15.1824C81.628 15.1024 81.8547 14.9824 82.0147 14.8224C82.188 14.6491 82.2747 14.3958 82.2747 14.0624C82.2747 13.7691 82.2014 13.5291 82.0547 13.3424C81.9214 13.1558 81.748 13.0158 81.5347 12.9224C81.3347 12.8158 81.108 12.7491 80.8547 12.7224C80.6014 12.6824 80.3614 12.6624 80.1347 12.6624C79.4947 12.6624 78.968 12.7958 78.5547 13.0624C78.1414 13.3291 77.908 13.7424 77.8547 14.3024H75.5747C75.6147 13.6358 75.7747 13.0824 76.0547 12.6424C76.3347 12.2024 76.688 11.8491 77.1147 11.5824C77.5547 11.3158 78.048 11.1291 78.5947 11.0224C79.1414 10.9158 79.7014 10.8624 80.2747 10.8624C80.7814 10.8624 81.2814 10.9158 81.7747 11.0224C82.268 11.1291 82.708 11.3024 83.0947 11.5424C83.4947 11.7824 83.8147 12.0958 84.0547 12.4824C84.2947 12.8558 84.4147 13.3158 84.4147 13.8624V19.1824ZM82.1347 16.3024C81.788 16.5291 81.3614 16.6691 80.8547 16.7224C80.348 16.7624 79.8414 16.8291 79.3347 16.9224C79.0947 16.9624 78.8614 17.0224 78.6347 17.1024C78.408 17.1691 78.208 17.2691 78.0347 17.4024C77.8614 17.5224 77.7214 17.6891 77.6147 17.9024C77.5214 18.1024 77.4747 18.3491 77.4747 18.6424C77.4747 18.8958 77.548 19.1091 77.6947 19.2824C77.8414 19.4558 78.0147 19.5958 78.2147 19.7024C78.428 19.7958 78.6547 19.8624 78.8947 19.9024C79.148 19.9424 79.3747 19.9624 79.5747 19.9624C79.828 19.9624 80.1014 19.9291 80.3947 19.8624C80.688 19.7958 80.9614 19.6824 81.2147 19.5224C81.4814 19.3624 81.7014 19.1624 81.8747 18.9224C82.048 18.6691 82.1347 18.3624 82.1347 18.0024V16.3024ZM95.0944 25.3024C94.6944 24.6624 94.3144 24.0024 93.9544 23.3224C93.6077 22.6424 93.301 21.9291 93.0344 21.1824C92.781 20.4224 92.581 19.6224 92.4344 18.7824C92.2877 17.9424 92.2144 17.0424 92.2144 16.0824C92.2144 14.4691 92.461 12.8824 92.9544 11.3224C93.461 9.76242 94.1744 8.27576 95.0944 6.86242H96.9544C96.1544 8.30242 95.541 9.78242 95.1144 11.3024C94.701 12.8091 94.4944 14.4024 94.4944 16.0824C94.4944 17.7624 94.6944 19.3624 95.0944 20.8824C95.4944 22.4024 96.1144 23.8758 96.9544 25.3024H95.0944ZM107.961 11.7424C107.854 11.3291 107.707 10.9491 107.521 10.6024C107.334 10.2558 107.094 9.95575 106.801 9.70242C106.507 9.44909 106.161 9.25575 105.761 9.12242C105.374 8.97575 104.921 8.90242 104.401 8.90242C103.641 8.90242 102.981 9.05576 102.421 9.36242C101.874 9.66909 101.427 10.0824 101.081 10.6024C100.734 11.1091 100.474 11.6891 100.301 12.3424C100.141 12.9958 100.061 13.6624 100.061 14.3424C100.061 15.0224 100.141 15.6891 100.301 16.3424C100.474 16.9958 100.734 17.5824 101.081 18.1024C101.427 18.6091 101.874 19.0158 102.421 19.3224C102.981 19.6291 103.641 19.7824 104.401 19.7824C104.961 19.7824 105.454 19.6891 105.881 19.5024C106.307 19.3024 106.674 19.0358 106.981 18.7024C107.287 18.3558 107.527 17.9558 107.701 17.5024C107.874 17.0491 107.987 16.5624 108.041 16.0424H110.481C110.427 16.8958 110.241 17.6758 109.921 18.3824C109.614 19.0891 109.194 19.7024 108.661 20.2224C108.127 20.7291 107.501 21.1224 106.781 21.4024C106.061 21.6824 105.267 21.8224 104.401 21.8224C103.334 21.8224 102.374 21.6291 101.521 21.2424C100.681 20.8424 99.9674 20.3024 99.3808 19.6224C98.7941 18.9424 98.3408 18.1491 98.0208 17.2424C97.7141 16.3358 97.5608 15.3691 97.5608 14.3424C97.5608 13.3291 97.7141 12.3691 98.0208 11.4624C98.3408 10.5558 98.7941 9.76242 99.3808 9.08242C99.9674 8.40242 100.681 7.86242 101.521 7.46242C102.374 7.06242 103.334 6.86242 104.401 6.86242C105.201 6.86242 105.954 6.97575 106.661 7.20242C107.367 7.41575 107.987 7.73575 108.521 8.16242C109.067 8.57575 109.507 9.08242 109.841 9.68242C110.174 10.2824 110.381 10.9691 110.461 11.7424H107.961ZM116.574 7.20242H119.234L124.734 21.4824H122.054L120.714 17.7024H115.014L113.674 21.4824H111.094L116.574 7.20242ZM115.694 15.8024H120.054L117.914 9.66242H117.854L115.694 15.8024ZM126.274 6.86242C126.674 7.50242 127.048 8.16909 127.394 8.86242C127.741 9.54242 128.041 10.2624 128.294 11.0224C128.561 11.7691 128.768 12.5624 128.914 13.4024C129.074 14.2424 129.154 15.1424 129.154 16.1024C129.154 17.7158 128.901 19.3024 128.394 20.8624C127.901 22.4224 127.194 23.9024 126.274 25.3024H124.414C125.214 23.8758 125.821 22.4091 126.234 20.9024C126.661 19.3824 126.874 17.7824 126.874 16.1024C126.874 14.4224 126.674 12.8224 126.274 11.3024C125.874 9.78242 125.254 8.30242 124.414 6.86242H126.274Z" fill="black"/>
<g filter="url(#filter0_d_481_6172)">
<g clip-path="url(#clip0_481_6172)">
<rect x="163.618" y="134.693" width="161.29" height="102.937" transform="rotate(-179.903 163.618 134.693)" fill="#CC7D39"/>
<rect x="79.2517" y="167.542" width="211.388" height="8.55327" transform="rotate(-89.9028 79.2517 167.542)" fill="#974905"/>
<rect x="188.137" y="87.0811" width="211.388" height="8.55327" transform="rotate(-179.903 188.137 87.0811)" fill="#974905"/>
<rect x="188.107" y="40.2173" width="211.388" height="8.55327" transform="rotate(-179.903 188.107 40.2173)" fill="#974905"/>
<rect x="188.056" y="134.735" width="211.388" height="8.55327" transform="rotate(-179.903 188.056 134.735)" fill="#974905"/>
<circle cx="83.0605" cy="83.2371" r="18.9394" transform="rotate(-179.903 83.0605 83.2371)" fill="#CC7D39" stroke="#974905" stroke-width="8.55327"/>
</g>
<rect x="164.616" y="135.695" width="163.29" height="104.937" transform="rotate(-179.903 164.616 135.695)" stroke="black" stroke-width="2"/>
</g>
<path d="M187.901 7.33914H194.201C195.215 7.33914 196.041 7.48581 196.681 7.77914C197.321 8.07247 197.815 8.43914 198.161 8.87914C198.508 9.31914 198.741 9.79914 198.861 10.3191C198.995 10.8391 199.061 11.3191 199.061 11.7591C199.061 12.1991 198.995 12.6791 198.861 13.1991C198.741 13.7058 198.508 14.1791 198.161 14.6191C197.815 15.0591 197.321 15.4258 196.681 15.7191C196.041 15.9991 195.215 16.1391 194.201 16.1391H190.401V21.6191H187.901V7.33914ZM190.401 14.0991H194.061C194.341 14.0991 194.628 14.0591 194.921 13.9791C195.215 13.8991 195.481 13.7725 195.721 13.5991C195.975 13.4125 196.175 13.1725 196.321 12.8791C196.481 12.5725 196.561 12.1925 196.561 11.7391C196.561 11.2725 196.495 10.8858 196.361 10.5791C196.228 10.2725 196.048 10.0325 195.821 9.85914C195.595 9.67247 195.335 9.54581 195.041 9.47914C194.748 9.41247 194.435 9.37914 194.101 9.37914H190.401V14.0991ZM209.581 19.3191C209.581 19.5991 209.615 19.7991 209.681 19.9191C209.761 20.0391 209.908 20.0991 210.121 20.0991C210.188 20.0991 210.268 20.0991 210.361 20.0991C210.455 20.0991 210.561 20.0858 210.681 20.0591V21.6391C210.601 21.6658 210.495 21.6925 210.361 21.7191C210.241 21.7591 210.115 21.7925 209.981 21.8191C209.848 21.8458 209.715 21.8658 209.581 21.8791C209.448 21.8925 209.335 21.8991 209.241 21.8991C208.775 21.8991 208.388 21.8058 208.081 21.6191C207.775 21.4325 207.575 21.1058 207.481 20.6391C207.028 21.0791 206.468 21.3991 205.801 21.5991C205.148 21.7991 204.515 21.8991 203.901 21.8991C203.435 21.8991 202.988 21.8325 202.561 21.6991C202.135 21.5791 201.755 21.3991 201.421 21.1591C201.101 20.9058 200.841 20.5925 200.641 20.2191C200.455 19.8325 200.361 19.3858 200.361 18.8791C200.361 18.2391 200.475 17.7191 200.701 17.3191C200.941 16.9191 201.248 16.6058 201.621 16.3791C202.008 16.1525 202.435 15.9925 202.901 15.8991C203.381 15.7925 203.861 15.7125 204.341 15.6591C204.755 15.5791 205.148 15.5258 205.521 15.4991C205.895 15.4591 206.221 15.3991 206.501 15.3191C206.795 15.2391 207.021 15.1191 207.181 14.9591C207.355 14.7858 207.441 14.5325 207.441 14.1991C207.441 13.9058 207.368 13.6658 207.221 13.4791C207.088 13.2925 206.915 13.1525 206.701 13.0591C206.501 12.9525 206.275 12.8858 206.021 12.8591C205.768 12.8191 205.528 12.7991 205.301 12.7991C204.661 12.7991 204.135 12.9325 203.721 13.1991C203.308 13.4658 203.075 13.8791 203.021 14.4391H200.741C200.781 13.7725 200.941 13.2191 201.221 12.7791C201.501 12.3391 201.855 11.9858 202.281 11.7191C202.721 11.4525 203.215 11.2658 203.761 11.1591C204.308 11.0525 204.868 10.9991 205.441 10.9991C205.948 10.9991 206.448 11.0525 206.941 11.1591C207.435 11.2658 207.875 11.4391 208.261 11.6791C208.661 11.9191 208.981 12.2325 209.221 12.6191C209.461 12.9925 209.581 13.4525 209.581 13.9991V19.3191ZM207.301 16.4391C206.955 16.6658 206.528 16.8058 206.021 16.8591C205.515 16.8991 205.008 16.9658 204.501 17.0591C204.261 17.0991 204.028 17.1591 203.801 17.2391C203.575 17.3058 203.375 17.4058 203.201 17.5391C203.028 17.6591 202.888 17.8258 202.781 18.0391C202.688 18.2391 202.641 18.4858 202.641 18.7791C202.641 19.0325 202.715 19.2458 202.861 19.4191C203.008 19.5925 203.181 19.7325 203.381 19.8391C203.595 19.9325 203.821 19.9991 204.061 20.0391C204.315 20.0791 204.541 20.0991 204.741 20.0991C204.995 20.0991 205.268 20.0658 205.561 19.9991C205.855 19.9325 206.128 19.8191 206.381 19.6591C206.648 19.4991 206.868 19.2991 207.041 19.0591C207.215 18.8058 207.301 18.4991 207.301 18.1391V16.4391ZM212.094 7.33914H214.374V21.6191H212.094V7.33914ZM215.819 11.2791H217.539V8.17914H219.819V11.2791H221.879V12.9791H219.819V18.4991C219.819 18.7391 219.825 18.9458 219.839 19.1191C219.865 19.2925 219.912 19.4391 219.979 19.5591C220.059 19.6791 220.172 19.7725 220.319 19.8391C220.465 19.8925 220.665 19.9191 220.919 19.9191C221.079 19.9191 221.239 19.9191 221.399 19.9191C221.559 19.9058 221.719 19.8791 221.879 19.8391V21.5991C221.625 21.6258 221.379 21.6525 221.139 21.6791C220.899 21.7058 220.652 21.7191 220.399 21.7191C219.799 21.7191 219.312 21.6658 218.939 21.5591C218.579 21.4391 218.292 21.2725 218.079 21.0591C217.879 20.8325 217.739 20.5525 217.659 20.2191C217.592 19.8858 217.552 19.5058 217.539 19.0791V12.9791H215.819V11.2791ZM223.519 11.2791H225.659V13.2791H225.699C225.766 12.9991 225.892 12.7258 226.079 12.4591C226.279 12.1925 226.512 11.9525 226.779 11.7391C227.059 11.5125 227.366 11.3325 227.699 11.1991C228.032 11.0658 228.372 10.9991 228.719 10.9991C228.986 10.9991 229.166 11.0058 229.259 11.0191C229.366 11.0325 229.472 11.0458 229.579 11.0591V13.2591C229.419 13.2325 229.252 13.2125 229.079 13.1991C228.919 13.1725 228.759 13.1591 228.599 13.1591C228.212 13.1591 227.846 13.2391 227.499 13.3991C227.166 13.5458 226.872 13.7725 226.619 14.0791C226.366 14.3725 226.166 14.7391 226.019 15.1791C225.872 15.6191 225.799 16.1258 225.799 16.6991V21.6191H223.519V11.2791ZM234.939 21.8991C234.112 21.8991 233.372 21.7658 232.719 21.4991C232.079 21.2191 231.532 20.8391 231.079 20.3591C230.639 19.8791 230.299 19.3058 230.059 18.6391C229.832 17.9725 229.719 17.2391 229.719 16.4391C229.719 15.6525 229.832 14.9258 230.059 14.2591C230.299 13.5925 230.639 13.0191 231.079 12.5391C231.532 12.0591 232.079 11.6858 232.719 11.4191C233.372 11.1391 234.112 10.9991 234.939 10.9991C235.765 10.9991 236.499 11.1391 237.139 11.4191C237.792 11.6858 238.339 12.0591 238.779 12.5391C239.232 13.0191 239.572 13.5925 239.799 14.2591C240.039 14.9258 240.159 15.6525 240.159 16.4391C240.159 17.2391 240.039 17.9725 239.799 18.6391C239.572 19.3058 239.232 19.8791 238.779 20.3591C238.339 20.8391 237.792 21.2191 237.139 21.4991C236.499 21.7658 235.765 21.8991 234.939 21.8991ZM234.939 20.0991C235.445 20.0991 235.885 19.9925 236.259 19.7791C236.632 19.5658 236.939 19.2858 237.179 18.9391C237.419 18.5925 237.592 18.2058 237.699 17.7791C237.819 17.3391 237.879 16.8925 237.879 16.4391C237.879 15.9991 237.819 15.5591 237.699 15.1191C237.592 14.6791 237.419 14.2925 237.179 13.9591C236.939 13.6125 236.632 13.3325 236.259 13.1191C235.885 12.9058 235.445 12.7991 234.939 12.7991C234.432 12.7991 233.992 12.9058 233.619 13.1191C233.245 13.3325 232.939 13.6125 232.699 13.9591C232.459 14.2925 232.279 14.6791 232.159 15.1191C232.052 15.5591 231.999 15.9991 231.999 16.4391C231.999 16.8925 232.052 17.3391 232.159 17.7791C232.279 18.2058 232.459 18.5925 232.699 18.9391C232.939 19.2858 233.245 19.5658 233.619 19.7791C233.992 19.9925 234.432 20.0991 234.939 20.0991ZM243.774 18.2991C243.841 18.9658 244.094 19.4325 244.534 19.6991C244.974 19.9658 245.501 20.0991 246.114 20.0991C246.327 20.0991 246.567 20.0858 246.834 20.0591C247.114 20.0191 247.374 19.9525 247.614 19.8591C247.854 19.7658 248.047 19.6325 248.194 19.4591C248.354 19.2725 248.427 19.0325 248.414 18.7391C248.401 18.4458 248.294 18.2058 248.094 18.0191C247.894 17.8325 247.634 17.6858 247.314 17.5791C247.007 17.4591 246.654 17.3591 246.254 17.2791C245.854 17.1991 245.447 17.1125 245.034 17.0191C244.607 16.9258 244.194 16.8125 243.794 16.6791C243.407 16.5458 243.054 16.3658 242.734 16.1391C242.427 15.9125 242.181 15.6258 241.994 15.2791C241.807 14.9191 241.714 14.4791 241.714 13.9591C241.714 13.3991 241.847 12.9325 242.114 12.5591C242.394 12.1725 242.741 11.8658 243.154 11.6391C243.581 11.3991 244.047 11.2325 244.554 11.1391C245.074 11.0458 245.567 10.9991 246.034 10.9991C246.567 10.9991 247.074 11.0591 247.554 11.1791C248.047 11.2858 248.487 11.4658 248.874 11.7191C249.274 11.9725 249.601 12.3058 249.854 12.7191C250.121 13.1191 250.287 13.6058 250.354 14.1791H247.974C247.867 13.6325 247.614 13.2658 247.214 13.0791C246.827 12.8925 246.381 12.7991 245.874 12.7991C245.714 12.7991 245.521 12.8125 245.294 12.8391C245.081 12.8658 244.874 12.9191 244.674 12.9991C244.487 13.0658 244.327 13.1725 244.194 13.3191C244.061 13.4525 243.994 13.6325 243.994 13.8591C243.994 14.1391 244.087 14.3658 244.274 14.5391C244.474 14.7125 244.727 14.8591 245.034 14.9791C245.354 15.0858 245.714 15.1791 246.114 15.2591C246.514 15.3391 246.927 15.4258 247.354 15.5191C247.767 15.6125 248.174 15.7258 248.574 15.8591C248.974 15.9925 249.327 16.1725 249.634 16.3991C249.954 16.6258 250.207 16.9125 250.394 17.2591C250.594 17.6058 250.694 18.0325 250.694 18.5391C250.694 19.1525 250.554 19.6725 250.274 20.0991C249.994 20.5258 249.627 20.8725 249.174 21.1391C248.734 21.4058 248.241 21.5991 247.694 21.7191C247.147 21.8391 246.607 21.8991 246.074 21.8991C245.421 21.8991 244.814 21.8258 244.254 21.6791C243.707 21.5325 243.227 21.3125 242.814 21.0191C242.414 20.7125 242.094 20.3391 241.854 19.8991C241.627 19.4458 241.507 18.9125 241.494 18.2991H243.774ZM252.485 7.33914H254.765V9.49914H252.485V7.33914ZM252.485 11.2791H254.765V21.6191H252.485V11.2791ZM265.909 19.3191C265.909 19.5991 265.943 19.7991 266.009 19.9191C266.089 20.0391 266.236 20.0991 266.449 20.0991C266.516 20.0991 266.596 20.0991 266.689 20.0991C266.783 20.0991 266.889 20.0858 267.009 20.0591V21.6391C266.929 21.6658 266.823 21.6925 266.689 21.7191C266.569 21.7591 266.443 21.7925 266.309 21.8191C266.176 21.8458 266.043 21.8658 265.909 21.8791C265.776 21.8925 265.663 21.8991 265.569 21.8991C265.103 21.8991 264.716 21.8058 264.409 21.6191C264.103 21.4325 263.903 21.1058 263.809 20.6391C263.356 21.0791 262.796 21.3991 262.129 21.5991C261.476 21.7991 260.843 21.8991 260.229 21.8991C259.763 21.8991 259.316 21.8325 258.889 21.6991C258.463 21.5791 258.083 21.3991 257.749 21.1591C257.429 20.9058 257.169 20.5925 256.969 20.2191C256.783 19.8325 256.689 19.3858 256.689 18.8791C256.689 18.2391 256.803 17.7191 257.029 17.3191C257.269 16.9191 257.576 16.6058 257.949 16.3791C258.336 16.1525 258.763 15.9925 259.229 15.8991C259.709 15.7925 260.189 15.7125 260.669 15.6591C261.083 15.5791 261.476 15.5258 261.849 15.4991C262.223 15.4591 262.549 15.3991 262.829 15.3191C263.123 15.2391 263.349 15.1191 263.509 14.9591C263.683 14.7858 263.769 14.5325 263.769 14.1991C263.769 13.9058 263.696 13.6658 263.549 13.4791C263.416 13.2925 263.243 13.1525 263.029 13.0591C262.829 12.9525 262.603 12.8858 262.349 12.8591C262.096 12.8191 261.856 12.7991 261.629 12.7991C260.989 12.7991 260.463 12.9325 260.049 13.1991C259.636 13.4658 259.403 13.8791 259.349 14.4391H257.069C257.109 13.7725 257.269 13.2191 257.549 12.7791C257.829 12.3391 258.183 11.9858 258.609 11.7191C259.049 11.4525 259.543 11.2658 260.089 11.1591C260.636 11.0525 261.196 10.9991 261.769 10.9991C262.276 10.9991 262.776 11.0525 263.269 11.1591C263.763 11.2658 264.203 11.4391 264.589 11.6791C264.989 11.9191 265.309 12.2325 265.549 12.6191C265.789 12.9925 265.909 13.4525 265.909 13.9991V19.3191ZM263.629 16.4391C263.283 16.6658 262.856 16.8058 262.349 16.8591C261.843 16.8991 261.336 16.9658 260.829 17.0591C260.589 17.0991 260.356 17.1591 260.129 17.2391C259.903 17.3058 259.703 17.4058 259.529 17.5391C259.356 17.6591 259.216 17.8258 259.109 18.0391C259.016 18.2391 258.969 18.4858 258.969 18.7791C258.969 19.0325 259.043 19.2458 259.189 19.4191C259.336 19.5925 259.509 19.7325 259.709 19.8391C259.923 19.9325 260.149 19.9991 260.389 20.0391C260.643 20.0791 260.869 20.0991 261.069 20.0991C261.323 20.0991 261.596 20.0658 261.889 19.9991C262.183 19.9325 262.456 19.8191 262.709 19.6591C262.976 19.4991 263.196 19.2991 263.369 19.0591C263.543 18.8058 263.629 18.4991 263.629 18.1391V16.4391ZM276.589 25.4391C276.189 24.7991 275.809 24.1391 275.449 23.4591C275.102 22.7791 274.796 22.0658 274.529 21.3191C274.276 20.5591 274.076 19.7591 273.929 18.9191C273.782 18.0791 273.709 17.1791 273.709 16.2191C273.709 14.6058 273.956 13.0191 274.449 11.4591C274.956 9.89914 275.669 8.41247 276.589 6.99914H278.449C277.649 8.43914 277.036 9.91914 276.609 11.4391C276.196 12.9458 275.989 14.5391 275.989 16.2191C275.989 17.8991 276.189 19.4991 276.589 21.0191C276.989 22.5391 277.609 24.0125 278.449 25.4391H276.589ZM279.815 7.33914H286.115C287.129 7.33914 287.955 7.48581 288.595 7.77914C289.235 8.07247 289.729 8.43914 290.075 8.87914C290.422 9.31914 290.655 9.79914 290.775 10.3191C290.909 10.8391 290.975 11.3191 290.975 11.7591C290.975 12.1991 290.909 12.6791 290.775 13.1991C290.655 13.7058 290.422 14.1791 290.075 14.6191C289.729 15.0591 289.235 15.4258 288.595 15.7191C287.955 15.9991 287.129 16.1391 286.115 16.1391H282.315V21.6191H279.815V7.33914ZM282.315 14.0991H285.975C286.255 14.0991 286.542 14.0591 286.835 13.9791C287.129 13.8991 287.395 13.7725 287.635 13.5991C287.889 13.4125 288.089 13.1725 288.235 12.8791C288.395 12.5725 288.475 12.1925 288.475 11.7391C288.475 11.2725 288.409 10.8858 288.275 10.5791C288.142 10.2725 287.962 10.0325 287.735 9.85914C287.509 9.67247 287.249 9.54581 286.955 9.47914C286.662 9.41247 286.349 9.37914 286.015 9.37914H282.315V14.0991ZM295.491 7.33914H298.151L303.651 21.6191H300.971L299.631 17.8391H293.931L292.591 21.6191H290.011L295.491 7.33914ZM294.611 15.9391H298.971L296.831 9.79914H296.771L294.611 15.9391ZM305.191 6.99914C305.591 7.63914 305.964 8.30581 306.311 8.99914C306.657 9.67914 306.957 10.3991 307.211 11.1591C307.477 11.9058 307.684 12.6991 307.831 13.5391C307.991 14.3791 308.071 15.2791 308.071 16.2391C308.071 17.8525 307.817 19.4391 307.311 20.9991C306.817 22.5591 306.111 24.0391 305.191 25.4391H303.331C304.131 24.0125 304.737 22.5458 305.151 21.0391C305.577 19.5191 305.791 17.9191 305.791 16.2391C305.791 14.5591 305.591 12.9591 305.191 11.4391C304.791 9.91914 304.171 8.43914 303.331 6.99914H305.191Z" fill="black"/>
<g filter="url(#filter1_d_481_6172)">
<rect x="185.381" y="30.6191" width="163.29" height="104.937" stroke="black" stroke-width="2" shape-rendering="crispEdges"/>
<rect x="186.381" y="31.6191" width="161.29" height="102.937" fill="#CC7D39"/>
<mask id="mask0_481_6172" style="mask-type:alpha" maskUnits="userSpaceOnUse" x="186" y="31" width="162" height="104">
<rect x="186.381" y="31.6191" width="161.29" height="102.937" fill="#D9D9D9"/>
</mask>
<g mask="url(#mask0_481_6172)">
<path d="M171.302 21.7844L267.027 83.0878L362.752 144.391" stroke="#974905" stroke-width="9.17912"/>
<path d="M158.188 34.8977L253.913 96.2011L349.638 157.505" stroke="#974905" stroke-width="9.17912"/>
<path d="M145.075 48.0105L240.801 109.314L336.526 170.617" stroke="#974905" stroke-width="9.17912"/>
<path d="M131.962 61.1235L227.687 122.427L323.412 183.73" stroke="#974905" stroke-width="9.17912"/>
<path d="M118.85 74.2366L214.575 135.54L310.3 196.843" stroke="#974905" stroke-width="9.17912"/>
<path d="M184.414 8.67139L280.139 69.9748L375.865 131.278" stroke="#974905" stroke-width="9.17912"/>
<path d="M197.528 -4.44165L293.253 56.8618L388.978 118.165" stroke="#974905" stroke-width="9.17912"/>
<path d="M210.64 -17.5547L306.365 43.7487L402.091 105.052" stroke="#974905" stroke-width="9.17912"/>
<path d="M223.754 -30.6675L319.479 30.6359L415.204 91.9393" stroke="#974905" stroke-width="9.17912"/>
</g>
<mask id="path-23-inside-1_481_6172" fill="white">
<path fill-rule="evenodd" clip-rule="evenodd" d="M285.067 101.982C280.435 106.326 274.205 108.986 267.354 108.986C260.503 108.986 254.274 106.326 249.642 101.982C247.045 103.154 244.163 103.807 241.128 103.807C229.685 103.807 220.409 94.5306 220.409 83.0881C220.409 71.6455 229.685 62.3695 241.128 62.3695C244.162 62.3695 247.045 63.0218 249.642 64.1939C254.273 59.85 260.503 57.1897 267.354 57.1897C274.205 57.1897 280.435 59.8499 285.067 64.1937C287.664 63.0217 290.546 62.3695 293.58 62.3695C305.023 62.3695 314.299 71.6455 314.299 83.0881C314.299 94.5306 305.023 103.807 293.58 103.807C290.546 103.807 287.664 103.154 285.067 101.982Z"/>
</mask>
<path fill-rule="evenodd" clip-rule="evenodd" d="M285.067 101.982C280.435 106.326 274.205 108.986 267.354 108.986C260.503 108.986 254.274 106.326 249.642 101.982C247.045 103.154 244.163 103.807 241.128 103.807C229.685 103.807 220.409 94.5306 220.409 83.0881C220.409 71.6455 229.685 62.3695 241.128 62.3695C244.162 62.3695 247.045 63.0218 249.642 64.1939C254.273 59.85 260.503 57.1897 267.354 57.1897C274.205 57.1897 280.435 59.8499 285.067 64.1937C287.664 63.0217 290.546 62.3695 293.58 62.3695C305.023 62.3695 314.299 71.6455 314.299 83.0881C314.299 94.5306 305.023 103.807 293.58 103.807C290.546 103.807 287.664 103.154 285.067 101.982Z" fill="#CC7D39"/>
<path d="M285.067 101.982L289.112 93.0181L283.128 90.3175L278.339 94.8086L285.067 101.982ZM249.642 101.982L256.37 94.8085L251.581 90.3172L245.596 93.018L249.642 101.982ZM249.642 64.1939L245.596 73.1581L251.58 75.8588L256.369 71.3675L249.642 64.1939ZM285.067 64.1937L278.339 71.3674L283.128 75.8585L289.112 73.158L285.067 64.1937ZM267.354 118.821C276.802 118.821 285.412 115.141 291.794 109.156L278.339 94.8086C275.458 97.5107 271.608 99.1514 267.354 99.1514V118.821ZM242.914 109.156C249.296 115.141 257.906 118.821 267.354 118.821V99.1514C263.1 99.1514 259.251 97.5106 256.37 94.8085L242.914 109.156ZM241.128 113.641C245.585 113.641 249.844 112.681 253.687 110.946L245.596 93.018C244.245 93.6276 242.74 93.9719 241.128 93.9719V113.641ZM210.575 83.0881C210.575 99.9622 224.254 113.641 241.128 113.641V93.9719C235.117 93.9719 230.244 89.099 230.244 83.0881H210.575ZM241.128 52.5347C224.254 52.5347 210.575 66.2139 210.575 83.0881H230.244C230.244 77.0771 235.117 72.2043 241.128 72.2043V52.5347ZM253.687 55.2297C249.844 53.4952 245.585 52.5347 241.128 52.5347V72.2043C242.74 72.2043 244.245 72.5485 245.596 73.1581L253.687 55.2297ZM267.354 47.3549C257.906 47.3549 249.296 51.0347 242.914 57.0203L256.369 71.3675C259.251 68.6653 263.1 67.0245 267.354 67.0245V47.3549ZM291.794 57.0201C285.412 51.0346 276.802 47.3549 267.354 47.3549V67.0245C271.609 67.0245 275.458 68.6652 278.339 71.3674L291.794 57.0201ZM289.112 73.158C290.463 72.5484 291.968 72.2043 293.58 72.2043V52.5347C289.124 52.5347 284.865 53.4951 281.021 55.2295L289.112 73.158ZM293.58 72.2043C299.591 72.2043 304.464 77.0771 304.464 83.0881H324.133C324.133 66.2139 310.454 52.5347 293.58 52.5347V72.2043ZM304.464 83.0881C304.464 89.099 299.591 93.9719 293.58 93.9719V113.641C310.454 113.641 324.133 99.9622 324.133 83.0881H304.464ZM293.58 93.9719C291.968 93.9719 290.463 93.6277 289.112 93.0181L281.021 110.947C284.865 112.681 289.123 113.641 293.58 113.641V93.9719Z" fill="#974905" mask="url(#path-23-inside-1_481_6172)"/>
</g>
<path d="M3.84813 156.413H6.34813V162.913L12.7081 156.413H15.7881L10.0881 162.113L16.1881 170.693H13.0681L8.38813 163.873L6.34813 165.893V170.693H3.84813V156.413ZM17.2195 160.353H19.3595V162.353H19.3995C19.4662 162.073 19.5929 161.8 19.7795 161.533C19.9795 161.267 20.2129 161.027 20.4795 160.813C20.7595 160.587 21.0662 160.407 21.3995 160.273C21.7329 160.14 22.0729 160.073 22.4195 160.073C22.6862 160.073 22.8662 160.08 22.9595 160.093C23.0662 160.107 23.1729 160.12 23.2795 160.133V162.333C23.1195 162.307 22.9529 162.287 22.7795 162.273C22.6195 162.247 22.4595 162.233 22.2995 162.233C21.9129 162.233 21.5462 162.313 21.1995 162.473C20.8662 162.62 20.5729 162.847 20.3195 163.153C20.0662 163.447 19.8662 163.813 19.7195 164.253C19.5729 164.693 19.4995 165.2 19.4995 165.773V170.693H17.2195V160.353ZM23.1108 160.353H25.6108L28.3108 168.073H28.3508L30.9708 160.353H33.3508L29.3308 171.253C29.1441 171.72 28.9574 172.167 28.7708 172.593C28.5974 173.02 28.3774 173.393 28.1108 173.713C27.8574 174.047 27.5374 174.307 27.1508 174.493C26.7641 174.693 26.2708 174.793 25.6708 174.793C25.1374 174.793 24.6108 174.753 24.0908 174.673V172.753C24.2774 172.78 24.4574 172.807 24.6308 172.833C24.8041 172.873 24.9841 172.893 25.1708 172.893C25.4374 172.893 25.6574 172.86 25.8308 172.793C26.0041 172.727 26.1441 172.627 26.2508 172.493C26.3708 172.373 26.4708 172.227 26.5508 172.053C26.6308 171.88 26.7041 171.68 26.7708 171.453L27.0308 170.653L23.1108 160.353ZM33.5819 160.353H35.3019V157.253H37.5819V160.353H39.6419V162.053H37.5819V167.573C37.5819 167.813 37.5885 168.02 37.6019 168.193C37.6285 168.367 37.6752 168.513 37.7419 168.633C37.8219 168.753 37.9352 168.847 38.0819 168.913C38.2285 168.967 38.4285 168.993 38.6819 168.993C38.8419 168.993 39.0019 168.993 39.1619 168.993C39.3219 168.98 39.4819 168.953 39.6419 168.913V170.673C39.3885 170.7 39.1419 170.727 38.9019 170.753C38.6619 170.78 38.4152 170.793 38.1619 170.793C37.5619 170.793 37.0752 170.74 36.7019 170.633C36.3419 170.513 36.0552 170.347 35.8419 170.133C35.6419 169.907 35.5019 169.627 35.4219 169.293C35.3552 168.96 35.3152 168.58 35.3019 168.153V162.053H33.5819V160.353ZM41.282 156.413H43.562V161.713H43.602C43.882 161.247 44.2954 160.86 44.842 160.553C45.402 160.233 46.022 160.073 46.702 160.073C47.8354 160.073 48.7287 160.367 49.382 160.953C50.0354 161.54 50.362 162.42 50.362 163.593V170.693H48.082V164.193C48.0554 163.38 47.882 162.793 47.562 162.433C47.242 162.06 46.742 161.873 46.062 161.873C45.6754 161.873 45.3287 161.947 45.022 162.093C44.7154 162.227 44.4554 162.42 44.242 162.673C44.0287 162.913 43.862 163.2 43.742 163.533C43.622 163.867 43.562 164.22 43.562 164.593V170.693H41.282V156.413ZM61.4264 168.393C61.4264 168.673 61.4597 168.873 61.5264 168.993C61.6064 169.113 61.7531 169.173 61.9664 169.173C62.0331 169.173 62.1131 169.173 62.2064 169.173C62.2997 169.173 62.4064 169.16 62.5264 169.133V170.713C62.4464 170.74 62.3397 170.767 62.2064 170.793C62.0864 170.833 61.9597 170.867 61.8264 170.893C61.6931 170.92 61.5597 170.94 61.4264 170.953C61.2931 170.967 61.1797 170.973 61.0864 170.973C60.6197 170.973 60.2331 170.88 59.9264 170.693C59.6197 170.507 59.4197 170.18 59.3264 169.713C58.8731 170.153 58.3131 170.473 57.6464 170.673C56.9931 170.873 56.3597 170.973 55.7464 170.973C55.2797 170.973 54.8331 170.907 54.4064 170.773C53.9797 170.653 53.5997 170.473 53.2664 170.233C52.9464 169.98 52.6864 169.667 52.4864 169.293C52.2997 168.907 52.2064 168.46 52.2064 167.953C52.2064 167.313 52.3197 166.793 52.5464 166.393C52.7864 165.993 53.0931 165.68 53.4664 165.453C53.8531 165.227 54.2797 165.067 54.7464 164.973C55.2264 164.867 55.7064 164.787 56.1864 164.733C56.5997 164.653 56.9931 164.6 57.3664 164.573C57.7397 164.533 58.0664 164.473 58.3464 164.393C58.6397 164.313 58.8664 164.193 59.0264 164.033C59.1997 163.86 59.2864 163.607 59.2864 163.273C59.2864 162.98 59.2131 162.74 59.0664 162.553C58.9331 162.367 58.7597 162.227 58.5464 162.133C58.3464 162.027 58.1197 161.96 57.8664 161.933C57.6131 161.893 57.3731 161.873 57.1464 161.873C56.5064 161.873 55.9797 162.007 55.5664 162.273C55.1531 162.54 54.9197 162.953 54.8664 163.513H52.5864C52.6264 162.847 52.7864 162.293 53.0664 161.853C53.3464 161.413 53.6997 161.06 54.1264 160.793C54.5664 160.527 55.0597 160.34 55.6064 160.233C56.1531 160.127 56.7131 160.073 57.2864 160.073C57.7931 160.073 58.2931 160.127 58.7864 160.233C59.2797 160.34 59.7197 160.513 60.1064 160.753C60.5064 160.993 60.8264 161.307 61.0664 161.693C61.3064 162.067 61.4264 162.527 61.4264 163.073V168.393ZM59.1464 165.513C58.7997 165.74 58.3731 165.88 57.8664 165.933C57.3597 165.973 56.8531 166.04 56.3464 166.133C56.1064 166.173 55.8731 166.233 55.6464 166.313C55.4197 166.38 55.2197 166.48 55.0464 166.613C54.8731 166.733 54.7331 166.9 54.6264 167.113C54.5331 167.313 54.4864 167.56 54.4864 167.853C54.4864 168.107 54.5597 168.32 54.7064 168.493C54.8531 168.667 55.0264 168.807 55.2264 168.913C55.4397 169.007 55.6664 169.073 55.9064 169.113C56.1597 169.153 56.3864 169.173 56.5864 169.173C56.8397 169.173 57.1131 169.14 57.4064 169.073C57.6997 169.007 57.9731 168.893 58.2264 168.733C58.4931 168.573 58.7131 168.373 58.8864 168.133C59.0597 167.88 59.1464 167.573 59.1464 167.213V165.513ZM63.8797 160.353H66.0197V162.353H66.0597C66.1264 162.073 66.253 161.8 66.4397 161.533C66.6397 161.267 66.873 161.027 67.1397 160.813C67.4197 160.587 67.7264 160.407 68.0597 160.273C68.393 160.14 68.733 160.073 69.0797 160.073C69.3464 160.073 69.5264 160.08 69.6197 160.093C69.7264 160.107 69.833 160.12 69.9397 160.133V162.333C69.7797 162.307 69.613 162.287 69.4397 162.273C69.2797 162.247 69.1197 162.233 68.9597 162.233C68.573 162.233 68.2064 162.313 67.8597 162.473C67.5264 162.62 67.233 162.847 66.9797 163.153C66.7264 163.447 66.5264 163.813 66.3797 164.253C66.233 164.693 66.1597 165.2 66.1597 165.773V170.693H63.8797V160.353ZM79.5709 168.393C79.5709 168.673 79.6043 168.873 79.6709 168.993C79.7509 169.113 79.8976 169.173 80.1109 169.173C80.1776 169.173 80.2576 169.173 80.3509 169.173C80.4443 169.173 80.5509 169.16 80.6709 169.133V170.713C80.5909 170.74 80.4843 170.767 80.3509 170.793C80.2309 170.833 80.1043 170.867 79.9709 170.893C79.8376 170.92 79.7043 170.94 79.5709 170.953C79.4376 170.967 79.3243 170.973 79.2309 170.973C78.7643 170.973 78.3776 170.88 78.0709 170.693C77.7643 170.507 77.5643 170.18 77.4709 169.713C77.0176 170.153 76.4576 170.473 75.7909 170.673C75.1376 170.873 74.5043 170.973 73.8909 170.973C73.4243 170.973 72.9776 170.907 72.5509 170.773C72.1243 170.653 71.7443 170.473 71.4109 170.233C71.0909 169.98 70.8309 169.667 70.6309 169.293C70.4443 168.907 70.3509 168.46 70.3509 167.953C70.3509 167.313 70.4643 166.793 70.6909 166.393C70.9309 165.993 71.2376 165.68 71.6109 165.453C71.9976 165.227 72.4243 165.067 72.8909 164.973C73.3709 164.867 73.8509 164.787 74.3309 164.733C74.7443 164.653 75.1376 164.6 75.5109 164.573C75.8843 164.533 76.2109 164.473 76.4909 164.393C76.7843 164.313 77.0109 164.193 77.1709 164.033C77.3443 163.86 77.4309 163.607 77.4309 163.273C77.4309 162.98 77.3576 162.74 77.2109 162.553C77.0776 162.367 76.9043 162.227 76.6909 162.133C76.4909 162.027 76.2643 161.96 76.0109 161.933C75.7576 161.893 75.5176 161.873 75.2909 161.873C74.6509 161.873 74.1243 162.007 73.7109 162.273C73.2976 162.54 73.0643 162.953 73.0109 163.513H70.7309C70.7709 162.847 70.9309 162.293 71.2109 161.853C71.4909 161.413 71.8443 161.06 72.2709 160.793C72.7109 160.527 73.2043 160.34 73.7509 160.233C74.2976 160.127 74.8576 160.073 75.4309 160.073C75.9376 160.073 76.4376 160.127 76.9309 160.233C77.4243 160.34 77.8643 160.513 78.2509 160.753C78.6509 160.993 78.9709 161.307 79.2109 161.693C79.4509 162.067 79.5709 162.527 79.5709 163.073V168.393ZM77.2909 165.513C76.9443 165.74 76.5176 165.88 76.0109 165.933C75.5043 165.973 74.9976 166.04 74.4909 166.133C74.2509 166.173 74.0176 166.233 73.7909 166.313C73.5643 166.38 73.3643 166.48 73.1909 166.613C73.0176 166.733 72.8776 166.9 72.7709 167.113C72.6776 167.313 72.6309 167.56 72.6309 167.853C72.6309 168.107 72.7043 168.32 72.8509 168.493C72.9976 168.667 73.1709 168.807 73.3709 168.913C73.5843 169.007 73.8109 169.073 74.0509 169.113C74.3043 169.153 74.5309 169.173 74.7309 169.173C74.9843 169.173 75.2576 169.14 75.5509 169.073C75.8443 169.007 76.1176 168.893 76.3709 168.733C76.6376 168.573 76.8576 168.373 77.0309 168.133C77.2043 167.88 77.2909 167.573 77.2909 167.213V165.513ZM90.2506 174.513C89.8506 173.873 89.4706 173.213 89.1106 172.533C88.764 171.853 88.4573 171.14 88.1906 170.393C87.9373 169.633 87.7373 168.833 87.5906 167.993C87.444 167.153 87.3706 166.253 87.3706 165.293C87.3706 163.68 87.6173 162.093 88.1106 160.533C88.6173 158.973 89.3306 157.487 90.2506 156.073H92.1106C91.3106 157.513 90.6973 158.993 90.2706 160.513C89.8573 162.02 89.6506 163.613 89.6506 165.293C89.6506 166.973 89.8506 168.573 90.2506 170.093C90.6506 171.613 91.2706 173.087 92.1106 174.513H90.2506ZM93.477 156.413H95.977V162.913L102.337 156.413H105.417L99.717 162.113L105.817 170.693H102.697L98.017 163.873L95.977 165.893V170.693H93.477V156.413ZM107.168 156.413H113.988C115.562 156.413 116.742 156.753 117.528 157.433C118.315 158.113 118.708 159.06 118.708 160.273C118.708 160.953 118.608 161.52 118.408 161.973C118.208 162.413 117.975 162.773 117.708 163.053C117.442 163.32 117.175 163.513 116.908 163.633C116.655 163.753 116.468 163.833 116.348 163.873V163.913C116.562 163.94 116.788 164.007 117.028 164.113C117.282 164.22 117.515 164.393 117.728 164.633C117.942 164.86 118.115 165.16 118.248 165.533C118.395 165.907 118.468 166.373 118.468 166.933C118.468 167.773 118.528 168.54 118.648 169.233C118.782 169.913 118.982 170.4 119.248 170.693H116.568C116.382 170.387 116.268 170.047 116.228 169.673C116.202 169.3 116.188 168.94 116.188 168.593C116.188 167.94 116.148 167.38 116.068 166.913C115.988 166.433 115.842 166.04 115.628 165.733C115.415 165.413 115.122 165.18 114.748 165.033C114.388 164.887 113.922 164.813 113.348 164.813H109.668V170.693H107.168V156.413ZM109.668 162.913H113.768C114.568 162.913 115.175 162.727 115.588 162.353C116.002 161.967 116.208 161.393 116.208 160.633C116.208 160.18 116.142 159.813 116.008 159.533C115.875 159.24 115.688 159.013 115.448 158.853C115.222 158.693 114.955 158.587 114.648 158.533C114.355 158.48 114.048 158.453 113.728 158.453H109.668V162.913ZM121.43 156.073C121.83 156.713 122.204 157.38 122.55 158.073C122.897 158.753 123.197 159.473 123.45 160.233C123.717 160.98 123.924 161.773 124.07 162.613C124.23 163.453 124.31 164.353 124.31 165.313C124.31 166.927 124.057 168.513 123.55 170.073C123.057 171.633 122.35 173.113 121.43 174.513H119.57C120.37 173.087 120.977 171.62 121.39 170.113C121.817 168.593 122.03 166.993 122.03 165.313C122.03 163.633 121.83 162.033 121.43 160.513C121.03 158.993 120.41 157.513 119.57 156.073H121.43Z" fill="black"/>
<g filter="url(#filter2_d_481_6172)">
<g clip-path="url(#clip1_481_6172)">
<rect x="2.32812" y="180.693" width="161.29" height="102.937" fill="#CC7D39"/>
<rect x="-22.1101" y="228.347" width="211.388" height="8.55327" fill="#974905"/>
<rect x="107.888" y="223.31" width="18.3582" height="49.8295" transform="rotate(90 107.888 223.31)" fill="#974905"/>
<rect x="71.827" y="205.608" width="22.2921" height="53.7634" fill="#974905" stroke="#CC7D39" stroke-width="3.93391"/>
<rect width="6.55651" height="18.3582" transform="matrix(-1 0 0 1 86.2515 223.31)" fill="#CC7D39"/>
</g>
<rect x="1.32812" y="179.693" width="163.29" height="104.937" stroke="black" stroke-width="2"/>
<rect x="1.32812" y="179.693" width="163.29" height="104.937" stroke="black" stroke-opacity="0.2" stroke-width="2"/>
</g>
<path d="M187.901 156.413H190.401V168.533H197.661V170.693H187.901V156.413ZM203.806 170.973C202.979 170.973 202.239 170.84 201.586 170.573C200.946 170.293 200.399 169.913 199.946 169.433C199.506 168.953 199.166 168.38 198.926 167.713C198.699 167.047 198.586 166.313 198.586 165.513C198.586 164.727 198.699 164 198.926 163.333C199.166 162.667 199.506 162.093 199.946 161.613C200.399 161.133 200.946 160.76 201.586 160.493C202.239 160.213 202.979 160.073 203.806 160.073C204.632 160.073 205.366 160.213 206.006 160.493C206.659 160.76 207.206 161.133 207.646 161.613C208.099 162.093 208.439 162.667 208.666 163.333C208.906 164 209.026 164.727 209.026 165.513C209.026 166.313 208.906 167.047 208.666 167.713C208.439 168.38 208.099 168.953 207.646 169.433C207.206 169.913 206.659 170.293 206.006 170.573C205.366 170.84 204.632 170.973 203.806 170.973ZM203.806 169.173C204.312 169.173 204.752 169.067 205.126 168.853C205.499 168.64 205.806 168.36 206.046 168.013C206.286 167.667 206.459 167.28 206.566 166.853C206.686 166.413 206.746 165.967 206.746 165.513C206.746 165.073 206.686 164.633 206.566 164.193C206.459 163.753 206.286 163.367 206.046 163.033C205.806 162.687 205.499 162.407 205.126 162.193C204.752 161.98 204.312 161.873 203.806 161.873C203.299 161.873 202.859 161.98 202.486 162.193C202.112 162.407 201.806 162.687 201.566 163.033C201.326 163.367 201.146 163.753 201.026 164.193C200.919 164.633 200.866 165.073 200.866 165.513C200.866 165.967 200.919 166.413 201.026 166.853C201.146 167.28 201.326 167.667 201.566 168.013C201.806 168.36 202.112 168.64 202.486 168.853C202.859 169.067 203.299 169.173 203.806 169.173ZM210.921 160.353H213.061V162.353H213.101C213.168 162.073 213.295 161.8 213.481 161.533C213.681 161.267 213.915 161.027 214.181 160.813C214.461 160.587 214.768 160.407 215.101 160.273C215.435 160.14 215.775 160.073 216.121 160.073C216.388 160.073 216.568 160.08 216.661 160.093C216.768 160.107 216.875 160.12 216.981 160.133V162.333C216.821 162.307 216.655 162.287 216.481 162.273C216.321 162.247 216.161 162.233 216.001 162.233C215.615 162.233 215.248 162.313 214.901 162.473C214.568 162.62 214.275 162.847 214.021 163.153C213.768 163.447 213.568 163.813 213.421 164.253C213.275 164.693 213.201 165.2 213.201 165.773V170.693H210.921V160.353ZM224.701 164.613C224.674 164.253 224.594 163.907 224.461 163.573C224.341 163.24 224.168 162.953 223.941 162.713C223.728 162.46 223.461 162.26 223.141 162.113C222.834 161.953 222.488 161.873 222.101 161.873C221.701 161.873 221.334 161.947 221.001 162.093C220.681 162.227 220.401 162.42 220.161 162.673C219.934 162.913 219.748 163.2 219.601 163.533C219.468 163.867 219.394 164.227 219.381 164.613H224.701ZM219.381 166.113C219.381 166.513 219.434 166.9 219.541 167.273C219.661 167.647 219.834 167.973 220.061 168.253C220.288 168.533 220.574 168.76 220.921 168.933C221.268 169.093 221.681 169.173 222.161 169.173C222.828 169.173 223.361 169.033 223.761 168.753C224.174 168.46 224.481 168.027 224.681 167.453H226.841C226.721 168.013 226.514 168.513 226.221 168.953C225.928 169.393 225.574 169.767 225.161 170.073C224.748 170.367 224.281 170.587 223.761 170.733C223.254 170.893 222.721 170.973 222.161 170.973C221.348 170.973 220.628 170.84 220.001 170.573C219.374 170.307 218.841 169.933 218.401 169.453C217.974 168.973 217.648 168.4 217.421 167.733C217.208 167.067 217.101 166.333 217.101 165.533C217.101 164.8 217.214 164.107 217.441 163.453C217.681 162.787 218.014 162.207 218.441 161.713C218.881 161.207 219.408 160.807 220.021 160.513C220.634 160.22 221.328 160.073 222.101 160.073C222.914 160.073 223.641 160.247 224.281 160.593C224.934 160.927 225.474 161.373 225.901 161.933C226.328 162.493 226.634 163.14 226.821 163.873C227.021 164.593 227.074 165.34 226.981 166.113H219.381ZM238.454 170.693H236.294V169.293H236.254C235.947 169.893 235.501 170.327 234.914 170.593C234.327 170.847 233.707 170.973 233.054 170.973C232.241 170.973 231.527 170.833 230.914 170.553C230.314 170.26 229.814 169.867 229.414 169.373C229.014 168.88 228.714 168.3 228.514 167.633C228.314 166.953 228.214 166.227 228.214 165.453C228.214 164.52 228.341 163.713 228.594 163.033C228.847 162.353 229.181 161.793 229.594 161.353C230.021 160.913 230.501 160.593 231.034 160.393C231.581 160.18 232.134 160.073 232.694 160.073C233.014 160.073 233.341 160.107 233.674 160.173C234.007 160.227 234.327 160.32 234.634 160.453C234.941 160.587 235.221 160.76 235.474 160.973C235.741 161.173 235.961 161.413 236.134 161.693H236.174V156.413H238.454V170.693ZM230.494 165.633C230.494 166.073 230.547 166.507 230.654 166.933C230.774 167.36 230.947 167.74 231.174 168.073C231.414 168.407 231.714 168.673 232.074 168.873C232.434 169.073 232.861 169.173 233.354 169.173C233.861 169.173 234.294 169.067 234.654 168.853C235.027 168.64 235.327 168.36 235.554 168.013C235.794 167.667 235.967 167.28 236.074 166.853C236.194 166.413 236.254 165.967 236.254 165.513C236.254 164.367 235.994 163.473 235.474 162.833C234.967 162.193 234.274 161.873 233.394 161.873C232.861 161.873 232.407 161.987 232.034 162.213C231.674 162.427 231.374 162.713 231.134 163.073C230.907 163.42 230.741 163.82 230.634 164.273C230.541 164.713 230.494 165.167 230.494 165.633ZM249.601 168.393C249.601 168.673 249.634 168.873 249.701 168.993C249.781 169.113 249.927 169.173 250.141 169.173C250.207 169.173 250.287 169.173 250.381 169.173C250.474 169.173 250.581 169.16 250.701 169.133V170.713C250.621 170.74 250.514 170.767 250.381 170.793C250.261 170.833 250.134 170.867 250.001 170.893C249.867 170.92 249.734 170.94 249.601 170.953C249.467 170.967 249.354 170.973 249.261 170.973C248.794 170.973 248.407 170.88 248.101 170.693C247.794 170.507 247.594 170.18 247.501 169.713C247.047 170.153 246.487 170.473 245.821 170.673C245.167 170.873 244.534 170.973 243.921 170.973C243.454 170.973 243.007 170.907 242.581 170.773C242.154 170.653 241.774 170.473 241.441 170.233C241.121 169.98 240.861 169.667 240.661 169.293C240.474 168.907 240.381 168.46 240.381 167.953C240.381 167.313 240.494 166.793 240.721 166.393C240.961 165.993 241.267 165.68 241.641 165.453C242.027 165.227 242.454 165.067 242.921 164.973C243.401 164.867 243.881 164.787 244.361 164.733C244.774 164.653 245.167 164.6 245.541 164.573C245.914 164.533 246.241 164.473 246.521 164.393C246.814 164.313 247.041 164.193 247.201 164.033C247.374 163.86 247.461 163.607 247.461 163.273C247.461 162.98 247.387 162.74 247.241 162.553C247.107 162.367 246.934 162.227 246.721 162.133C246.521 162.027 246.294 161.96 246.041 161.933C245.787 161.893 245.547 161.873 245.321 161.873C244.681 161.873 244.154 162.007 243.741 162.273C243.327 162.54 243.094 162.953 243.041 163.513H240.761C240.801 162.847 240.961 162.293 241.241 161.853C241.521 161.413 241.874 161.06 242.301 160.793C242.741 160.527 243.234 160.34 243.781 160.233C244.327 160.127 244.887 160.073 245.461 160.073C245.967 160.073 246.467 160.127 246.961 160.233C247.454 160.34 247.894 160.513 248.281 160.753C248.681 160.993 249.001 161.307 249.241 161.693C249.481 162.067 249.601 162.527 249.601 163.073V168.393ZM247.321 165.513C246.974 165.74 246.547 165.88 246.041 165.933C245.534 165.973 245.027 166.04 244.521 166.133C244.281 166.173 244.047 166.233 243.821 166.313C243.594 166.38 243.394 166.48 243.221 166.613C243.047 166.733 242.907 166.9 242.801 167.113C242.707 167.313 242.661 167.56 242.661 167.853C242.661 168.107 242.734 168.32 242.881 168.493C243.027 168.667 243.201 168.807 243.401 168.913C243.614 169.007 243.841 169.073 244.081 169.113C244.334 169.153 244.561 169.173 244.761 169.173C245.014 169.173 245.287 169.14 245.581 169.073C245.874 169.007 246.147 168.893 246.401 168.733C246.667 168.573 246.887 168.373 247.061 168.133C247.234 167.88 247.321 167.573 247.321 167.213V165.513ZM252.054 160.353H254.214V161.873L254.254 161.913C254.601 161.34 255.054 160.893 255.614 160.573C256.174 160.24 256.794 160.073 257.474 160.073C258.607 160.073 259.501 160.367 260.154 160.953C260.807 161.54 261.134 162.42 261.134 163.593V170.693H258.854V164.193C258.827 163.38 258.654 162.793 258.334 162.433C258.014 162.06 257.514 161.873 256.834 161.873C256.447 161.873 256.101 161.947 255.794 162.093C255.487 162.227 255.227 162.42 255.014 162.673C254.801 162.913 254.634 163.2 254.514 163.533C254.394 163.867 254.334 164.22 254.334 164.593V170.693H252.054V160.353ZM263.598 156.413H265.878V158.573H263.598V156.413ZM263.598 160.353H265.878V170.693H263.598V160.353ZM277.023 168.393C277.023 168.673 277.056 168.873 277.123 168.993C277.203 169.113 277.349 169.173 277.563 169.173C277.629 169.173 277.709 169.173 277.803 169.173C277.896 169.173 278.003 169.16 278.123 169.133V170.713C278.043 170.74 277.936 170.767 277.803 170.793C277.683 170.833 277.556 170.867 277.423 170.893C277.289 170.92 277.156 170.94 277.023 170.953C276.889 170.967 276.776 170.973 276.683 170.973C276.216 170.973 275.829 170.88 275.523 170.693C275.216 170.507 275.016 170.18 274.923 169.713C274.469 170.153 273.909 170.473 273.243 170.673C272.589 170.873 271.956 170.973 271.343 170.973C270.876 170.973 270.429 170.907 270.003 170.773C269.576 170.653 269.196 170.473 268.863 170.233C268.543 169.98 268.283 169.667 268.083 169.293C267.896 168.907 267.803 168.46 267.803 167.953C267.803 167.313 267.916 166.793 268.143 166.393C268.383 165.993 268.689 165.68 269.063 165.453C269.449 165.227 269.876 165.067 270.343 164.973C270.823 164.867 271.303 164.787 271.783 164.733C272.196 164.653 272.589 164.6 272.963 164.573C273.336 164.533 273.663 164.473 273.943 164.393C274.236 164.313 274.463 164.193 274.623 164.033C274.796 163.86 274.883 163.607 274.883 163.273C274.883 162.98 274.809 162.74 274.663 162.553C274.529 162.367 274.356 162.227 274.143 162.133C273.943 162.027 273.716 161.96 273.463 161.933C273.209 161.893 272.969 161.873 272.743 161.873C272.103 161.873 271.576 162.007 271.163 162.273C270.749 162.54 270.516 162.953 270.463 163.513H268.183C268.223 162.847 268.383 162.293 268.663 161.853C268.943 161.413 269.296 161.06 269.723 160.793C270.163 160.527 270.656 160.34 271.203 160.233C271.749 160.127 272.309 160.073 272.883 160.073C273.389 160.073 273.889 160.127 274.383 160.233C274.876 160.34 275.316 160.513 275.703 160.753C276.103 160.993 276.423 161.307 276.663 161.693C276.903 162.067 277.023 162.527 277.023 163.073V168.393ZM274.743 165.513C274.396 165.74 273.969 165.88 273.463 165.933C272.956 165.973 272.449 166.04 271.943 166.133C271.703 166.173 271.469 166.233 271.243 166.313C271.016 166.38 270.816 166.48 270.643 166.613C270.469 166.733 270.329 166.9 270.223 167.113C270.129 167.313 270.083 167.56 270.083 167.853C270.083 168.107 270.156 168.32 270.303 168.493C270.449 168.667 270.623 168.807 270.823 168.913C271.036 169.007 271.263 169.073 271.503 169.113C271.756 169.153 271.983 169.173 272.183 169.173C272.436 169.173 272.709 169.14 273.003 169.073C273.296 169.007 273.569 168.893 273.823 168.733C274.089 168.573 274.309 168.373 274.483 168.133C274.656 167.88 274.743 167.573 274.743 167.213V165.513ZM287.702 174.513C287.302 173.873 286.922 173.213 286.562 172.533C286.216 171.853 285.909 171.14 285.642 170.393C285.389 169.633 285.189 168.833 285.042 167.993C284.896 167.153 284.822 166.253 284.822 165.293C284.822 163.68 285.069 162.093 285.562 160.533C286.069 158.973 286.782 157.487 287.702 156.073H289.562C288.762 157.513 288.149 158.993 287.722 160.513C287.309 162.02 287.102 163.613 287.102 165.293C287.102 166.973 287.302 168.573 287.702 170.093C288.102 171.613 288.722 173.087 289.562 174.513H287.702ZM290.929 156.413H293.429V168.533H300.689V170.693H290.929V156.413ZM308.493 158.113C307.733 158.113 307.073 158.267 306.513 158.573C305.966 158.88 305.52 159.293 305.173 159.813C304.826 160.32 304.566 160.9 304.393 161.553C304.233 162.207 304.153 162.873 304.153 163.553C304.153 164.233 304.233 164.9 304.393 165.553C304.566 166.207 304.826 166.793 305.173 167.313C305.52 167.82 305.966 168.227 306.513 168.533C307.073 168.84 307.733 168.993 308.493 168.993C309.253 168.993 309.906 168.84 310.453 168.533C311.013 168.227 311.466 167.82 311.813 167.313C312.16 166.793 312.413 166.207 312.573 165.553C312.746 164.9 312.833 164.233 312.833 163.553C312.833 162.873 312.746 162.207 312.573 161.553C312.413 160.9 312.16 160.32 311.813 159.813C311.466 159.293 311.013 158.88 310.453 158.573C309.906 158.267 309.253 158.113 308.493 158.113ZM308.493 156.073C309.56 156.073 310.513 156.273 311.353 156.673C312.206 157.073 312.926 157.613 313.513 158.293C314.1 158.973 314.546 159.767 314.853 160.673C315.173 161.58 315.333 162.54 315.333 163.553C315.333 164.58 315.173 165.547 314.853 166.453C314.546 167.36 314.1 168.153 313.513 168.833C312.926 169.513 312.206 170.053 311.353 170.453C310.513 170.84 309.56 171.033 308.493 171.033C307.426 171.033 306.466 170.84 305.613 170.453C304.773 170.053 304.06 169.513 303.473 168.833C302.886 168.153 302.433 167.36 302.113 166.453C301.806 165.547 301.653 164.58 301.653 163.553C301.653 162.54 301.806 161.58 302.113 160.673C302.433 159.767 302.886 158.973 303.473 158.293C304.06 157.613 304.773 157.073 305.613 156.673C306.466 156.273 307.426 156.073 308.493 156.073ZM317.788 156.073C318.188 156.713 318.562 157.38 318.908 158.073C319.255 158.753 319.555 159.473 319.808 160.233C320.075 160.98 320.282 161.773 320.428 162.613C320.588 163.453 320.668 164.353 320.668 165.313C320.668 166.927 320.415 168.513 319.908 170.073C319.415 171.633 318.708 173.113 317.788 174.513H315.928C316.728 173.087 317.335 171.62 317.748 170.113C318.175 168.593 318.388 166.993 318.388 165.313C318.388 163.633 318.188 162.033 317.788 160.513C317.388 158.993 316.768 157.513 315.928 156.073H317.788Z" fill="black"/>
<g filter="url(#filter3_d_481_6172)">
<rect x="-1" y="1" width="163.29" height="104.937" transform="matrix(1 0 0 -1 186.381 285.631)" stroke="black" stroke-width="2" shape-rendering="crispEdges"/>
<rect width="161.29" height="102.937" transform="matrix(1 0 0 -1 186.381 283.631)" fill="#CC7D39"/>
<mask id="mask1_481_6172" style="mask-type:alpha" maskUnits="userSpaceOnUse" x="186" y="180" width="162" height="104">
<rect width="161.29" height="102.937" transform="matrix(1 0 0 -1 186.381 283.631)" fill="#D9D9D9"/>
</mask>
<g mask="url(#mask1_481_6172)">
<path d="M171.302 293.465L267.027 232.162L362.752 170.859" stroke="#974905" stroke-width="9.17912"/>
<path d="M145.075 267.239L240.801 205.936L336.526 144.632" stroke="#974905" stroke-width="9.17912"/>
<path d="M118.85 241.013L214.575 179.71L310.3 118.406" stroke="#974905" stroke-width="9.17912"/>
<path d="M197.528 319.691L293.253 258.388L388.978 197.085" stroke="#974905" stroke-width="9.17912"/>
<path d="M223.754 345.917L319.479 284.614L415.204 223.311" stroke="#974905" stroke-width="9.17912"/>
</g>
<path d="M285.117 255.45C295.061 255.45 303.072 247.339 303.072 237.399C303.072 230.581 299.308 224.628 293.733 221.562C291.825 213.675 284.763 207.796 276.292 207.796C272.33 207.796 268.674 209.091 265.712 211.264C264.035 210.742 262.254 210.462 260.408 210.462C253.594 210.462 247.681 214.274 244.644 219.872C236.779 221.807 230.98 228.934 230.98 237.399C230.98 247.339 238.992 255.45 248.936 255.45H285.117Z" fill="#974905" stroke="#CC7D39" stroke-width="8.55327"/>
</g>
<defs>
<filter id="filter0_d_481_6172" x="0.324707" y="29.4792" width="166.693" height="108.439" filterUnits="userSpaceOnUse" color-interpolation-filters="sRGB">
<feFlood flood-opacity="0" result="BackgroundImageFix"/>
<feColorMatrix in="SourceAlpha" type="matrix" values="0 0 0 0 0 0 0 0 0 0 0 0 0 0 0 0 0 0 127 0" result="hardAlpha"/>
<feOffset dx="1.2219" dy="1.2219"/>
<feComposite in2="hardAlpha" operator="out"/>
<feColorMatrix type="matrix" values="0 0 0 0 0 0 0 0 0 0 0 0 0 0 0 0 0 0 1 0"/>
<feBlend mode="normal" in2="BackgroundImageFix" result="effect1_dropShadow_481_6172"/>
<feBlend mode="normal" in="SourceGraphic" in2="effect1_dropShadow_481_6172" result="shape"/>
</filter>
<filter id="filter1_d_481_6172" x="184.381" y="29.6191" width="166.512" height="108.159" filterUnits="userSpaceOnUse" color-interpolation-filters="sRGB">
<feFlood flood-opacity="0" result="BackgroundImageFix"/>
<feColorMatrix in="SourceAlpha" type="matrix" values="0 0 0 0 0 0 0 0 0 0 0 0 0 0 0 0 0 0 127 0" result="hardAlpha"/>
<feOffset dx="1.2219" dy="1.2219"/>
<feComposite in2="hardAlpha" operator="out"/>
<feColorMatrix type="matrix" values="0 0 0 0 0 0 0 0 0 0 0 0 0 0 0 0 0 0 1 0"/>
<feBlend mode="normal" in2="BackgroundImageFix" result="effect1_dropShadow_481_6172"/>
<feBlend mode="normal" in="SourceGraphic" in2="effect1_dropShadow_481_6172" result="shape"/>
</filter>
<filter id="filter2_d_481_6172" x="0.328125" y="178.693" width="166.512" height="108.159" filterUnits="userSpaceOnUse" color-interpolation-filters="sRGB">
<feFlood flood-opacity="0" result="BackgroundImageFix"/>
<feColorMatrix in="SourceAlpha" type="matrix" values="0 0 0 0 0 0 0 0 0 0 0 0 0 0 0 0 0 0 127 0" result="hardAlpha"/>
<feOffset dx="1.2219" dy="1.2219"/>
<feComposite in2="hardAlpha" operator="out"/>
<feColorMatrix type="matrix" values="0 0 0 0 0 0 0 0 0 0 0 0 0 0 0 0 0 0 1 0"/>
<feBlend mode="normal" in2="BackgroundImageFix" result="effect1_dropShadow_481_6172"/>
<feBlend mode="normal" in="SourceGraphic" in2="effect1_dropShadow_481_6172" result="shape"/>
</filter>
<filter id="filter3_d_481_6172" x="184.381" y="178.694" width="166.512" height="108.159" filterUnits="userSpaceOnUse" color-interpolation-filters="sRGB">
<feFlood flood-opacity="0" result="BackgroundImageFix"/>
<feColorMatrix in="SourceAlpha" type="matrix" values="0 0 0 0 0 0 0 0 0 0 0 0 0 0 0 0 0 0 127 0" result="hardAlpha"/>
<feOffset dx="1.2219" dy="1.2219"/>
<feComposite in2="hardAlpha" operator="out"/>
<feColorMatrix type="matrix" values="0 0 0 0 0 0 0 0 0 0 0 0 0 0 0 0 0 0 1 0"/>
<feBlend mode="normal" in2="BackgroundImageFix" result="effect1_dropShadow_481_6172"/>
<feBlend mode="normal" in="SourceGraphic" in2="effect1_dropShadow_481_6172" result="shape"/>
</filter>
<clipPath id="clip0_481_6172">
<rect x="163.618" y="134.693" width="161.29" height="102.937" transform="rotate(-179.903 163.618 134.693)" fill="white"/>
</clipPath>
<clipPath id="clip1_481_6172">
<rect x="2.32812" y="180.693" width="161.29" height="102.937" fill="white"/>
</clipPath>
</defs>
</svg>
