<svg width="347" height="154" viewBox="0 0 347 154" fill="none" xmlns="http://www.w3.org/2000/svg">
<path d="M1.74813 7.36062H4.38813L10.9081 17.8806H10.9481V7.36062H13.3281V21.6406H10.6881L4.18813 11.1406H4.12813V21.6406H1.74813V7.36062ZM24.6217 19.3406C24.6217 19.6206 24.6551 19.8206 24.7217 19.9406C24.8017 20.0606 24.9484 20.1206 25.1617 20.1206C25.2284 20.1206 25.3084 20.1206 25.4017 20.1206C25.4951 20.1206 25.6017 20.1073 25.7217 20.0806V21.6606C25.6417 21.6873 25.5351 21.714 25.4017 21.7406C25.2817 21.7806 25.1551 21.814 25.0217 21.8406C24.8884 21.8673 24.7551 21.8873 24.6217 21.9006C24.4884 21.914 24.3751 21.9206 24.2817 21.9206C23.8151 21.9206 23.4284 21.8273 23.1217 21.6406C22.8151 21.454 22.6151 21.1273 22.5217 20.6606C22.0684 21.1006 21.5084 21.4206 20.8417 21.6206C20.1884 21.8206 19.5551 21.9206 18.9417 21.9206C18.4751 21.9206 18.0284 21.854 17.6017 21.7206C17.1751 21.6006 16.7951 21.4206 16.4617 21.1806C16.1417 20.9273 15.8817 20.614 15.6817 20.2406C15.4951 19.854 15.4017 19.4073 15.4017 18.9006C15.4017 18.2606 15.5151 17.7406 15.7417 17.3406C15.9817 16.9406 16.2884 16.6273 16.6617 16.4006C17.0484 16.174 17.4751 16.014 17.9417 15.9206C18.4217 15.814 18.9017 15.734 19.3817 15.6806C19.7951 15.6006 20.1884 15.5473 20.5617 15.5206C20.9351 15.4806 21.2617 15.4206 21.5417 15.3406C21.8351 15.2606 22.0617 15.1406 22.2217 14.9806C22.3951 14.8073 22.4817 14.554 22.4817 14.2206C22.4817 13.9273 22.4084 13.6873 22.2617 13.5006C22.1284 13.314 21.9551 13.174 21.7417 13.0806C21.5417 12.974 21.3151 12.9073 21.0617 12.8806C20.8084 12.8406 20.5684 12.8206 20.3417 12.8206C19.7017 12.8206 19.1751 12.954 18.7617 13.2206C18.3484 13.4873 18.1151 13.9006 18.0617 14.4606H15.7817C15.8217 13.794 15.9817 13.2406 16.2617 12.8006C16.5417 12.3606 16.8951 12.0073 17.3217 11.7406C17.7617 11.474 18.2551 11.2873 18.8017 11.1806C19.3484 11.074 19.9084 11.0206 20.4817 11.0206C20.9884 11.0206 21.4884 11.074 21.9817 11.1806C22.4751 11.2873 22.9151 11.4606 23.3017 11.7006C23.7017 11.9406 24.0217 12.254 24.2617 12.6406C24.5017 13.014 24.6217 13.474 24.6217 14.0206V19.3406ZM22.3417 16.4606C21.9951 16.6873 21.5684 16.8273 21.0617 16.8806C20.5551 16.9206 20.0484 16.9873 19.5417 17.0806C19.3017 17.1206 19.0684 17.1806 18.8417 17.2606C18.6151 17.3273 18.4151 17.4273 18.2417 17.5606C18.0684 17.6806 17.9284 17.8473 17.8217 18.0606C17.7284 18.2606 17.6817 18.5073 17.6817 18.8006C17.6817 19.054 17.7551 19.2673 17.9017 19.4406C18.0484 19.614 18.2217 19.754 18.4217 19.8606C18.6351 19.954 18.8617 20.0206 19.1017 20.0606C19.3551 20.1006 19.5817 20.1206 19.7817 20.1206C20.0351 20.1206 20.3084 20.0873 20.6017 20.0206C20.8951 19.954 21.1684 19.8406 21.4217 19.6806C21.6884 19.5206 21.9084 19.3206 22.0817 19.0806C22.2551 18.8273 22.3417 18.5206 22.3417 18.1606V16.4606ZM26.035 11.3006H27.755V8.20062H30.035V11.3006H32.095V13.0006H30.035V18.5206C30.035 18.7606 30.0417 18.9673 30.055 19.1406C30.0817 19.314 30.1283 19.4606 30.195 19.5806C30.275 19.7006 30.3883 19.794 30.535 19.8606C30.6817 19.914 30.8817 19.9406 31.135 19.9406C31.295 19.9406 31.455 19.9406 31.615 19.9406C31.775 19.9273 31.935 19.9006 32.095 19.8606V21.6206C31.8417 21.6473 31.595 21.674 31.355 21.7006C31.115 21.7273 30.8683 21.7406 30.615 21.7406C30.015 21.7406 29.5283 21.6873 29.155 21.5806C28.795 21.4606 28.5083 21.294 28.295 21.0806C28.095 20.854 27.955 20.574 27.875 20.2406C27.8083 19.9073 27.7683 19.5273 27.755 19.1006V13.0006H26.035V11.3006ZM42.8152 21.6406H40.5752V20.2006H40.5352C40.2552 20.7206 39.8352 21.1406 39.2752 21.4606C38.7285 21.7673 38.1685 21.9206 37.5952 21.9206C36.2352 21.9206 35.2485 21.5873 34.6352 20.9206C34.0352 20.2406 33.7352 19.2206 33.7352 17.8606V11.3006H36.0152V17.6406C36.0152 18.5473 36.1885 19.1873 36.5352 19.5606C36.8818 19.934 37.3685 20.1206 37.9952 20.1206C38.4752 20.1206 38.8752 20.0473 39.1952 19.9006C39.5152 19.754 39.7752 19.5606 39.9752 19.3206C40.1752 19.0673 40.3152 18.7673 40.3952 18.4206C40.4885 18.074 40.5352 17.7006 40.5352 17.3006V11.3006H42.8152V21.6406ZM45.2195 11.3006H47.3595V13.3006H47.3995C47.4662 13.0206 47.5929 12.7473 47.7795 12.4806C47.9795 12.214 48.2129 11.974 48.4795 11.7606C48.7595 11.534 49.0662 11.354 49.3995 11.2206C49.7329 11.0873 50.0729 11.0206 50.4195 11.0206C50.6862 11.0206 50.8662 11.0273 50.9595 11.0406C51.0662 11.054 51.1729 11.0673 51.2795 11.0806V13.2806C51.1195 13.254 50.9529 13.234 50.7795 13.2206C50.6195 13.194 50.4595 13.1806 50.2995 13.1806C49.9129 13.1806 49.5462 13.2606 49.1995 13.4206C48.8662 13.5673 48.5729 13.794 48.3195 14.1006C48.0662 14.394 47.8662 14.7606 47.7195 15.2006C47.5729 15.6406 47.4995 16.1473 47.4995 16.7206V21.6406H45.2195V11.3006ZM60.9108 19.3406C60.9108 19.6206 60.9441 19.8206 61.0108 19.9406C61.0908 20.0606 61.2374 20.1206 61.4508 20.1206C61.5174 20.1206 61.5974 20.1206 61.6908 20.1206C61.7841 20.1206 61.8908 20.1073 62.0108 20.0806V21.6606C61.9308 21.6873 61.8241 21.714 61.6908 21.7406C61.5708 21.7806 61.4441 21.814 61.3108 21.8406C61.1774 21.8673 61.0441 21.8873 60.9108 21.9006C60.7774 21.914 60.6641 21.9206 60.5708 21.9206C60.1041 21.9206 59.7174 21.8273 59.4108 21.6406C59.1041 21.454 58.9041 21.1273 58.8108 20.6606C58.3574 21.1006 57.7974 21.4206 57.1308 21.6206C56.4774 21.8206 55.8441 21.9206 55.2308 21.9206C54.7641 21.9206 54.3174 21.854 53.8908 21.7206C53.4641 21.6006 53.0841 21.4206 52.7508 21.1806C52.4308 20.9273 52.1708 20.614 51.9708 20.2406C51.7841 19.854 51.6908 19.4073 51.6908 18.9006C51.6908 18.2606 51.8041 17.7406 52.0308 17.3406C52.2708 16.9406 52.5774 16.6273 52.9508 16.4006C53.3374 16.174 53.7641 16.014 54.2308 15.9206C54.7108 15.814 55.1908 15.734 55.6708 15.6806C56.0841 15.6006 56.4774 15.5473 56.8508 15.5206C57.2241 15.4806 57.5508 15.4206 57.8308 15.3406C58.1241 15.2606 58.3508 15.1406 58.5108 14.9806C58.6841 14.8073 58.7708 14.554 58.7708 14.2206C58.7708 13.9273 58.6974 13.6873 58.5508 13.5006C58.4174 13.314 58.2441 13.174 58.0308 13.0806C57.8308 12.974 57.6041 12.9073 57.3508 12.8806C57.0974 12.8406 56.8574 12.8206 56.6308 12.8206C55.9908 12.8206 55.4641 12.954 55.0508 13.2206C54.6374 13.4873 54.4041 13.9006 54.3508 14.4606H52.0708C52.1108 13.794 52.2708 13.2406 52.5508 12.8006C52.8308 12.3606 53.1841 12.0073 53.6108 11.7406C54.0508 11.474 54.5441 11.2873 55.0908 11.1806C55.6374 11.074 56.1974 11.0206 56.7708 11.0206C57.2774 11.0206 57.7774 11.074 58.2708 11.1806C58.7641 11.2873 59.2041 11.4606 59.5908 11.7006C59.9908 11.9406 60.3108 12.254 60.5508 12.6406C60.7908 13.014 60.9108 13.474 60.9108 14.0206V19.3406ZM58.6308 16.4606C58.2841 16.6873 57.8574 16.8273 57.3508 16.8806C56.8441 16.9206 56.3374 16.9873 55.8308 17.0806C55.5908 17.1206 55.3574 17.1806 55.1308 17.2606C54.9041 17.3273 54.7041 17.4273 54.5308 17.5606C54.3574 17.6806 54.2174 17.8473 54.1108 18.0606C54.0174 18.2606 53.9708 18.5073 53.9708 18.8006C53.9708 19.054 54.0441 19.2673 54.1908 19.4406C54.3374 19.614 54.5108 19.754 54.7108 19.8606C54.9241 19.954 55.1508 20.0206 55.3908 20.0606C55.6441 20.1006 55.8708 20.1206 56.0708 20.1206C56.3241 20.1206 56.5974 20.0873 56.8908 20.0206C57.1841 19.954 57.4574 19.8406 57.7108 19.6806C57.9774 19.5206 58.1974 19.3206 58.3708 19.0806C58.5441 18.8273 58.6308 18.5206 58.6308 18.1606V16.4606ZM63.4241 7.36062H65.7041V21.6406H63.4241V7.36062ZM83.3147 21.1006C83.3147 22.6606 82.8747 23.8206 81.9947 24.5806C81.128 25.354 79.8747 25.7406 78.2347 25.7406C77.7147 25.7406 77.188 25.6873 76.6547 25.5806C76.1347 25.474 75.6547 25.294 75.2147 25.0406C74.788 24.7873 74.428 24.454 74.1347 24.0406C73.8414 23.6273 73.668 23.1206 73.6147 22.5206H75.8947C75.9614 22.8406 76.0747 23.1006 76.2347 23.3006C76.3947 23.5006 76.5814 23.654 76.7947 23.7606C77.0214 23.8806 77.268 23.954 77.5347 23.9806C77.8014 24.0206 78.0814 24.0406 78.3747 24.0406C79.2947 24.0406 79.968 23.814 80.3947 23.3606C80.8214 22.9073 81.0347 22.254 81.0347 21.4006V19.8206H80.9947C80.6747 20.394 80.2347 20.8406 79.6747 21.1606C79.128 21.4806 78.5347 21.6406 77.8947 21.6406C77.068 21.6406 76.3614 21.5006 75.7747 21.2206C75.2014 20.9273 74.7214 20.534 74.3347 20.0406C73.9614 19.534 73.688 18.954 73.5147 18.3006C73.3414 17.6473 73.2547 16.9473 73.2547 16.2006C73.2547 15.5073 73.3614 14.8473 73.5747 14.2206C73.788 13.594 74.0947 13.0473 74.4947 12.5806C74.8947 12.1006 75.3814 11.7206 75.9547 11.4406C76.5414 11.1606 77.2014 11.0206 77.9347 11.0206C78.588 11.0206 79.188 11.1606 79.7347 11.4406C80.2814 11.7073 80.7014 12.134 80.9947 12.7206H81.0347V11.3006H83.3147V21.1006ZM78.2547 19.8406C78.7614 19.8406 79.188 19.7406 79.5347 19.5406C79.8947 19.3273 80.1814 19.054 80.3947 18.7206C80.6214 18.374 80.7814 17.9873 80.8747 17.5606C80.9814 17.1206 81.0347 16.6806 81.0347 16.2406C81.0347 15.8006 80.9814 15.374 80.8747 14.9606C80.768 14.5473 80.6014 14.1806 80.3747 13.8606C80.1614 13.5406 79.8747 13.2873 79.5147 13.1006C79.168 12.914 78.748 12.8206 78.2547 12.8206C77.748 12.8206 77.3214 12.9273 76.9747 13.1406C76.628 13.354 76.348 13.634 76.1347 13.9806C75.9214 14.314 75.768 14.7006 75.6747 15.1406C75.5814 15.5673 75.5347 15.994 75.5347 16.4206C75.5347 16.8473 75.588 17.2673 75.6947 17.6806C75.8014 18.0806 75.9614 18.4406 76.1747 18.7606C76.4014 19.0806 76.6814 19.3406 77.0147 19.5406C77.3614 19.7406 77.7747 19.8406 78.2547 19.8406ZM94.2702 19.3406C94.2702 19.6206 94.3035 19.8206 94.3702 19.9406C94.4502 20.0606 94.5968 20.1206 94.8102 20.1206C94.8768 20.1206 94.9568 20.1206 95.0502 20.1206C95.1435 20.1206 95.2502 20.1073 95.3702 20.0806V21.6606C95.2902 21.6873 95.1835 21.714 95.0502 21.7406C94.9302 21.7806 94.8035 21.814 94.6702 21.8406C94.5368 21.8673 94.4035 21.8873 94.2702 21.9006C94.1368 21.914 94.0235 21.9206 93.9302 21.9206C93.4635 21.9206 93.0768 21.8273 92.7702 21.6406C92.4635 21.454 92.2635 21.1273 92.1702 20.6606C91.7168 21.1006 91.1568 21.4206 90.4902 21.6206C89.8368 21.8206 89.2035 21.9206 88.5902 21.9206C88.1235 21.9206 87.6768 21.854 87.2502 21.7206C86.8235 21.6006 86.4435 21.4206 86.1102 21.1806C85.7902 20.9273 85.5302 20.614 85.3302 20.2406C85.1435 19.854 85.0502 19.4073 85.0502 18.9006C85.0502 18.2606 85.1635 17.7406 85.3902 17.3406C85.6302 16.9406 85.9368 16.6273 86.3102 16.4006C86.6968 16.174 87.1235 16.014 87.5902 15.9206C88.0702 15.814 88.5502 15.734 89.0302 15.6806C89.4435 15.6006 89.8368 15.5473 90.2102 15.5206C90.5835 15.4806 90.9102 15.4206 91.1902 15.3406C91.4835 15.2606 91.7102 15.1406 91.8702 14.9806C92.0435 14.8073 92.1302 14.554 92.1302 14.2206C92.1302 13.9273 92.0568 13.6873 91.9102 13.5006C91.7768 13.314 91.6035 13.174 91.3902 13.0806C91.1902 12.974 90.9635 12.9073 90.7102 12.8806C90.4568 12.8406 90.2168 12.8206 89.9902 12.8206C89.3502 12.8206 88.8235 12.954 88.4102 13.2206C87.9968 13.4873 87.7635 13.9006 87.7102 14.4606H85.4302C85.4702 13.794 85.6302 13.2406 85.9102 12.8006C86.1902 12.3606 86.5435 12.0073 86.9702 11.7406C87.4102 11.474 87.9035 11.2873 88.4502 11.1806C88.9968 11.074 89.5568 11.0206 90.1302 11.0206C90.6368 11.0206 91.1368 11.074 91.6302 11.1806C92.1235 11.2873 92.5635 11.4606 92.9502 11.7006C93.3502 11.9406 93.6702 12.254 93.9102 12.6406C94.1502 13.014 94.2702 13.474 94.2702 14.0206V19.3406ZM91.9902 16.4606C91.6435 16.6873 91.2168 16.8273 90.7102 16.8806C90.2035 16.9206 89.6968 16.9873 89.1902 17.0806C88.9502 17.1206 88.7168 17.1806 88.4902 17.2606C88.2635 17.3273 88.0635 17.4273 87.8902 17.5606C87.7168 17.6806 87.5768 17.8473 87.4702 18.0606C87.3768 18.2606 87.3302 18.5073 87.3302 18.8006C87.3302 19.054 87.4035 19.2673 87.5502 19.4406C87.6968 19.614 87.8702 19.754 88.0702 19.8606C88.2835 19.954 88.5102 20.0206 88.7502 20.0606C89.0035 20.1006 89.2302 20.1206 89.4302 20.1206C89.6835 20.1206 89.9568 20.0873 90.2502 20.0206C90.5435 19.954 90.8168 19.8406 91.0702 19.6806C91.3368 19.5206 91.5568 19.3206 91.7302 19.0806C91.9035 18.8273 91.9902 18.5206 91.9902 18.1606V16.4606ZM98.4434 18.3206C98.5101 18.9873 98.7634 19.454 99.2034 19.7206C99.6434 19.9873 100.17 20.1206 100.783 20.1206C100.997 20.1206 101.237 20.1073 101.503 20.0806C101.783 20.0406 102.043 19.974 102.283 19.8806C102.523 19.7873 102.717 19.654 102.863 19.4806C103.023 19.294 103.097 19.054 103.083 18.7606C103.07 18.4673 102.963 18.2273 102.763 18.0406C102.563 17.854 102.303 17.7073 101.983 17.6006C101.677 17.4806 101.323 17.3806 100.923 17.3006C100.523 17.2206 100.117 17.134 99.7034 17.0406C99.2768 16.9473 98.8634 16.834 98.4634 16.7006C98.0768 16.5673 97.7234 16.3873 97.4034 16.1606C97.0968 15.934 96.8501 15.6473 96.6634 15.3006C96.4768 14.9406 96.3834 14.5006 96.3834 13.9806C96.3834 13.4206 96.5168 12.954 96.7834 12.5806C97.0634 12.194 97.4101 11.8873 97.8234 11.6606C98.2501 11.4206 98.7168 11.254 99.2234 11.1606C99.7434 11.0673 100.237 11.0206 100.703 11.0206C101.237 11.0206 101.743 11.0806 102.223 11.2006C102.717 11.3073 103.157 11.4873 103.543 11.7406C103.943 11.994 104.27 12.3273 104.523 12.7406C104.79 13.1406 104.957 13.6273 105.023 14.2006H102.643C102.537 13.654 102.283 13.2873 101.883 13.1006C101.497 12.914 101.05 12.8206 100.543 12.8206C100.383 12.8206 100.19 12.834 99.9634 12.8606C99.7501 12.8873 99.5434 12.9406 99.3434 13.0206C99.1568 13.0873 98.9968 13.194 98.8634 13.3406C98.7301 13.474 98.6634 13.654 98.6634 13.8806C98.6634 14.1606 98.7568 14.3873 98.9434 14.5606C99.1434 14.734 99.3968 14.8806 99.7034 15.0006C100.023 15.1073 100.383 15.2006 100.783 15.2806C101.183 15.3606 101.597 15.4473 102.023 15.5406C102.437 15.634 102.843 15.7473 103.243 15.8806C103.643 16.014 103.997 16.194 104.303 16.4206C104.623 16.6473 104.877 16.934 105.063 17.2806C105.263 17.6273 105.363 18.054 105.363 18.5606C105.363 19.174 105.223 19.694 104.943 20.1206C104.663 20.5473 104.297 20.894 103.843 21.1606C103.403 21.4273 102.91 21.6206 102.363 21.7406C101.817 21.8606 101.277 21.9206 100.743 21.9206C100.09 21.9206 99.4834 21.8473 98.9234 21.7006C98.3768 21.554 97.8968 21.334 97.4834 21.0406C97.0834 20.734 96.7634 20.3606 96.5234 19.9206C96.2968 19.4673 96.1768 18.934 96.1634 18.3206H98.4434Z" fill="black"/>
<g clip-path="url(#clip0_481_6293)">
<g clip-path="url(#clip1_481_6293)">
<rect width="346" height="23" transform="translate(0.328125 36.6406)" fill="#C36A1D"/>
<mask id="path-4-inside-1_481_6293" fill="white">
<path d="M0.328125 36.6406H104.328V59.6406H0.328125V36.6406Z"/>
</mask>
<path d="M0.328125 36.6406H104.328V59.6406H0.328125V36.6406Z" fill="#C36A1D"/>
<path d="M0.328125 36.6406V35.7738H-0.538709V36.6406H0.328125ZM0.328125 37.5075H104.328V35.7738H0.328125V37.5075ZM1.19496 59.6406V36.6406H-0.538709V59.6406H1.19496Z" fill="#0D0D0C" mask="url(#path-4-inside-1_481_6293)"/>
<mask id="path-6-inside-2_481_6293" fill="white">
<path d="M104.328 36.6406H165.328V59.6406H104.328V36.6406Z"/>
</mask>
<path d="M104.328 36.6406H165.328V59.6406H104.328V36.6406Z" fill="#C36A1D"/>
<path d="M104.328 36.6406V35.7738H103.461V36.6406H104.328ZM104.328 37.5075H165.328V35.7738H104.328V37.5075ZM105.195 59.6406V36.6406H103.461V59.6406H105.195Z" fill="#0D0D0C" mask="url(#path-6-inside-2_481_6293)"/>
<g clip-path="url(#clip2_481_6293)">
<path d="M125.951 54.2416C125.731 53.8896 125.522 53.5266 125.324 53.1526C125.133 52.7786 124.965 52.3863 124.818 51.9756C124.679 51.5576 124.569 51.1176 124.488 50.6556C124.407 50.1936 124.367 49.6986 124.367 49.1706C124.367 48.2833 124.503 47.4106 124.774 46.5526C125.053 45.6946 125.445 44.877 125.951 44.0996H126.974C126.534 44.8916 126.197 45.7056 125.962 46.5416C125.735 47.3703 125.621 48.2466 125.621 49.1706C125.621 50.0946 125.731 50.9746 125.951 51.8106C126.171 52.6466 126.512 53.457 126.974 54.2416H125.951ZM133.028 46.7836C132.969 46.5563 132.888 46.3473 132.786 46.1566C132.683 45.966 132.551 45.801 132.39 45.6616C132.228 45.5223 132.038 45.416 131.818 45.3426C131.605 45.262 131.356 45.2216 131.07 45.2216C130.652 45.2216 130.289 45.306 129.981 45.4746C129.68 45.6433 129.434 45.8706 129.244 46.1566C129.053 46.4353 128.91 46.7543 128.815 47.1136C128.727 47.473 128.683 47.8396 128.683 48.2136C128.683 48.5876 128.727 48.9543 128.815 49.3136C128.91 49.673 129.053 49.9956 129.244 50.2816C129.434 50.5603 129.68 50.784 129.981 50.9526C130.289 51.1213 130.652 51.2056 131.07 51.2056C131.378 51.2056 131.649 51.1543 131.884 51.0516C132.118 50.9416 132.32 50.795 132.489 50.6116C132.657 50.421 132.789 50.201 132.885 49.9516C132.98 49.7023 133.042 49.4346 133.072 49.1486H134.414C134.384 49.618 134.282 50.047 134.106 50.4356C133.937 50.8243 133.706 51.1616 133.413 51.4476C133.119 51.7263 132.775 51.9426 132.379 52.0966C131.983 52.2506 131.546 52.3276 131.07 52.3276C130.483 52.3276 129.955 52.2213 129.486 52.0086C129.024 51.7886 128.631 51.4916 128.309 51.1176C127.986 50.7436 127.737 50.3073 127.561 49.8086C127.392 49.31 127.308 48.7783 127.308 48.2136C127.308 47.6563 127.392 47.1283 127.561 46.6296C127.737 46.131 127.986 45.6946 128.309 45.3206C128.631 44.9466 129.024 44.6496 129.486 44.4296C129.955 44.2096 130.483 44.0996 131.07 44.0996C131.51 44.0996 131.924 44.162 132.313 44.2866C132.701 44.404 133.042 44.58 133.336 44.8146C133.636 45.042 133.878 45.3206 134.062 45.6506C134.245 45.9806 134.359 46.3583 134.403 46.7836H133.028ZM137.765 44.2866H139.228L142.253 52.1406H140.779L140.042 50.0616H136.907L136.17 52.1406H134.751L137.765 44.2866ZM137.281 49.0166H139.679L138.502 45.6396H138.469L137.281 49.0166ZM143.1 44.0996C143.32 44.4516 143.525 44.8183 143.716 45.1996C143.907 45.5736 144.072 45.9696 144.211 46.3876C144.358 46.7983 144.471 47.2346 144.552 47.6966C144.64 48.1586 144.684 48.6536 144.684 49.1816C144.684 50.069 144.545 50.9416 144.266 51.7996C143.995 52.6576 143.606 53.4716 143.1 54.2416H142.077C142.517 53.457 142.851 52.6503 143.078 51.8216C143.313 50.9856 143.43 50.1056 143.43 49.1816C143.43 48.2576 143.32 47.3776 143.1 46.5416C142.88 45.7056 142.539 44.8916 142.077 44.0996H143.1Z" fill="black"/>
</g>
<mask id="path-9-inside-3_481_6293" fill="white">
<path d="M165.328 36.6406H224.328V59.6406H165.328V36.6406Z"/>
</mask>
<path d="M165.328 36.6406H224.328V59.6406H165.328V36.6406Z" fill="#C36A1D"/>
<path d="M165.328 36.6406V35.7738H164.461V36.6406H165.328ZM165.328 37.5075H224.328V35.7738H165.328V37.5075ZM166.195 59.6406V36.6406H164.461V59.6406H166.195Z" fill="#0D0D0C" mask="url(#path-9-inside-3_481_6293)"/>
<g clip-path="url(#clip3_481_6293)">
<path d="M186.951 54.2416C186.731 53.8896 186.522 53.5266 186.324 53.1526C186.133 52.7786 185.965 52.3863 185.818 51.9756C185.679 51.5576 185.569 51.1176 185.488 50.6556C185.407 50.1936 185.367 49.6986 185.367 49.1706C185.367 48.2833 185.503 47.4106 185.774 46.5526C186.053 45.6946 186.445 44.877 186.951 44.0996H187.974C187.534 44.8916 187.197 45.7056 186.962 46.5416C186.735 47.3703 186.621 48.2466 186.621 49.1706C186.621 50.0946 186.731 50.9746 186.951 51.8106C187.171 52.6466 187.512 53.457 187.974 54.2416H186.951ZM188.726 44.2866H192.191C192.748 44.2866 193.203 44.3673 193.555 44.5286C193.907 44.69 194.178 44.8916 194.369 45.1336C194.559 45.3756 194.688 45.6396 194.754 45.9256C194.827 46.2116 194.864 46.4756 194.864 46.7176C194.864 46.9596 194.827 47.2236 194.754 47.5096C194.688 47.7883 194.559 48.0486 194.369 48.2906C194.178 48.5326 193.907 48.7343 193.555 48.8956C193.203 49.0496 192.748 49.1266 192.191 49.1266H190.101V52.1406H188.726V44.2866ZM190.101 48.0046H192.114C192.268 48.0046 192.425 47.9826 192.587 47.9386C192.748 47.8946 192.895 47.825 193.027 47.7296C193.166 47.627 193.276 47.495 193.357 47.3336C193.445 47.165 193.489 46.956 193.489 46.7066C193.489 46.45 193.452 46.2373 193.379 46.0686C193.305 45.9 193.206 45.768 193.082 45.6726C192.957 45.57 192.814 45.5003 192.653 45.4636C192.491 45.427 192.319 45.4086 192.136 45.4086H190.101V48.0046ZM197.347 44.2866H198.81L201.835 52.1406H200.361L199.624 50.0616H196.489L195.752 52.1406H194.333L197.347 44.2866ZM196.863 49.0166H199.261L198.084 45.6396H198.051L196.863 49.0166ZM202.682 44.0996C202.902 44.4516 203.107 44.8183 203.298 45.1996C203.489 45.5736 203.654 45.9696 203.793 46.3876C203.94 46.7983 204.053 47.2346 204.134 47.6966C204.222 48.1586 204.266 48.6536 204.266 49.1816C204.266 50.069 204.127 50.9416 203.848 51.7996C203.577 52.6576 203.188 53.4716 202.682 54.2416H201.659C202.099 53.457 202.433 52.6503 202.66 51.8216C202.895 50.9856 203.012 50.1056 203.012 49.1816C203.012 48.2576 202.902 47.3776 202.682 46.5416C202.462 45.7056 202.121 44.8916 201.659 44.0996H202.682Z" fill="black"/>
</g>
<mask id="path-12-inside-4_481_6293" fill="white">
<path d="M224.328 36.6406H285.328V59.6406H224.328V36.6406Z"/>
</mask>
<path d="M224.328 36.6406H285.328V59.6406H224.328V36.6406Z" fill="#C36A1D"/>
<path d="M224.328 36.6406V35.7738H223.461V36.6406H224.328ZM224.328 37.5075H285.328V35.7738H224.328V37.5075ZM225.195 59.6406V36.6406H223.461V59.6406H225.195Z" fill="#0D0D0C" mask="url(#path-12-inside-4_481_6293)"/>
<g clip-path="url(#clip4_481_6293)">
<path d="M245.951 54.2416C245.731 53.8896 245.522 53.5266 245.324 53.1526C245.133 52.7786 244.965 52.3863 244.818 51.9756C244.679 51.5576 244.569 51.1176 244.488 50.6556C244.407 50.1936 244.367 49.6986 244.367 49.1706C244.367 48.2833 244.503 47.4106 244.774 46.5526C245.053 45.6946 245.445 44.877 245.951 44.0996H246.974C246.534 44.8916 246.197 45.7056 245.962 46.5416C245.735 47.3703 245.621 48.2466 245.621 49.1706C245.621 50.0946 245.731 50.9746 245.951 51.8106C246.171 52.6466 246.512 53.457 246.974 54.2416H245.951ZM247.726 44.2866H249.101V47.8616L252.599 44.2866H254.293L251.158 47.4216L254.513 52.1406H252.797L250.223 48.3896L249.101 49.5006V52.1406H247.726V44.2866ZM255.256 44.2866H259.007C259.872 44.2866 260.521 44.4736 260.954 44.8476C261.387 45.2216 261.603 45.7423 261.603 46.4096C261.603 46.7836 261.548 47.0953 261.438 47.3446C261.328 47.5866 261.2 47.7846 261.053 47.9386C260.906 48.0853 260.76 48.1916 260.613 48.2576C260.474 48.3236 260.371 48.3676 260.305 48.3896V48.4116C260.422 48.4263 260.547 48.463 260.679 48.5216C260.818 48.5803 260.947 48.6756 261.064 48.8076C261.181 48.9323 261.277 49.0973 261.35 49.3026C261.431 49.508 261.471 49.7646 261.471 50.0726C261.471 50.5346 261.504 50.9563 261.57 51.3376C261.643 51.7116 261.753 51.9793 261.9 52.1406H260.426C260.323 51.972 260.261 51.785 260.239 51.5796C260.224 51.3743 260.217 51.1763 260.217 50.9856C260.217 50.6263 260.195 50.3183 260.151 50.0616C260.107 49.7976 260.026 49.5813 259.909 49.4126C259.792 49.2366 259.63 49.1083 259.425 49.0276C259.227 48.947 258.97 48.9066 258.655 48.9066H256.631V52.1406H255.256V44.2866ZM256.631 47.8616H258.886C259.326 47.8616 259.66 47.759 259.887 47.5536C260.114 47.341 260.228 47.0256 260.228 46.6076C260.228 46.3583 260.191 46.1566 260.118 46.0026C260.045 45.8413 259.942 45.7166 259.81 45.6286C259.685 45.5406 259.539 45.482 259.37 45.4526C259.209 45.4233 259.04 45.4086 258.864 45.4086H256.631V47.8616ZM263.1 44.0996C263.32 44.4516 263.525 44.8183 263.716 45.1996C263.907 45.5736 264.072 45.9696 264.211 46.3876C264.358 46.7983 264.471 47.2346 264.552 47.6966C264.64 48.1586 264.684 48.6536 264.684 49.1816C264.684 50.069 264.545 50.9416 264.266 51.7996C263.995 52.6576 263.606 53.4716 263.1 54.2416H262.077C262.517 53.457 262.851 52.6503 263.078 51.8216C263.313 50.9856 263.43 50.1056 263.43 49.1816C263.43 48.2576 263.32 47.3776 263.1 46.5416C262.88 45.7056 262.539 44.8916 262.077 44.0996H263.1Z" fill="black"/>
</g>
<mask id="path-15-inside-5_481_6293" fill="white">
<path d="M285.328 36.6406H345.328V59.6406H285.328V36.6406Z"/>
</mask>
<path d="M285.328 36.6406H345.328V59.6406H285.328V36.6406Z" fill="#C36A1D"/>
<path d="M285.328 36.6406V35.7738H284.461V36.6406H285.328ZM285.328 37.5075H345.328V35.7738H285.328V37.5075ZM286.195 59.6406V36.6406H284.461V59.6406H286.195Z" fill="#0D0D0C" mask="url(#path-15-inside-5_481_6293)"/>
<g clip-path="url(#clip5_481_6293)">
<path d="M306.951 54.2416C306.731 53.8896 306.522 53.5266 306.324 53.1526C306.133 52.7786 305.965 52.3863 305.818 51.9756C305.679 51.5576 305.569 51.1176 305.488 50.6556C305.407 50.1936 305.367 49.6986 305.367 49.1706C305.367 48.2833 305.503 47.4106 305.774 46.5526C306.053 45.6946 306.445 44.877 306.951 44.0996H307.974C307.534 44.8916 307.197 45.7056 306.962 46.5416C306.735 47.3703 306.621 48.2466 306.621 49.1706C306.621 50.0946 306.731 50.9746 306.951 51.8106C307.171 52.6466 307.512 53.457 307.974 54.2416H306.951ZM308.726 44.2866H310.101V50.9526H314.094V52.1406H308.726V44.2866ZM318.386 45.2216C317.968 45.2216 317.605 45.306 317.297 45.4746C316.996 45.6433 316.751 45.8706 316.56 46.1566C316.369 46.4353 316.226 46.7543 316.131 47.1136C316.043 47.473 315.999 47.8396 315.999 48.2136C315.999 48.5876 316.043 48.9543 316.131 49.3136C316.226 49.673 316.369 49.9956 316.56 50.2816C316.751 50.5603 316.996 50.784 317.297 50.9526C317.605 51.1213 317.968 51.2056 318.386 51.2056C318.804 51.2056 319.163 51.1213 319.464 50.9526C319.772 50.784 320.021 50.5603 320.212 50.2816C320.403 49.9956 320.542 49.673 320.63 49.3136C320.725 48.9543 320.773 48.5876 320.773 48.2136C320.773 47.8396 320.725 47.473 320.63 47.1136C320.542 46.7543 320.403 46.4353 320.212 46.1566C320.021 45.8706 319.772 45.6433 319.464 45.4746C319.163 45.306 318.804 45.2216 318.386 45.2216ZM318.386 44.0996C318.973 44.0996 319.497 44.2096 319.959 44.4296C320.428 44.6496 320.824 44.9466 321.147 45.3206C321.47 45.6946 321.715 46.131 321.884 46.6296C322.06 47.1283 322.148 47.6563 322.148 48.2136C322.148 48.7783 322.06 49.31 321.884 49.8086C321.715 50.3073 321.47 50.7436 321.147 51.1176C320.824 51.4916 320.428 51.7886 319.959 52.0086C319.497 52.2213 318.973 52.3276 318.386 52.3276C317.799 52.3276 317.271 52.2213 316.802 52.0086C316.34 51.7886 315.948 51.4916 315.625 51.1176C315.302 50.7436 315.053 50.3073 314.877 49.8086C314.708 49.31 314.624 48.7783 314.624 48.2136C314.624 47.6563 314.708 47.1283 314.877 46.6296C315.053 46.131 315.302 45.6946 315.625 45.3206C315.948 44.9466 316.34 44.6496 316.802 44.4296C317.271 44.2096 317.799 44.0996 318.386 44.0996ZM323.498 44.0996C323.718 44.4516 323.924 44.8183 324.114 45.1996C324.305 45.5736 324.47 45.9696 324.609 46.3876C324.756 46.7983 324.87 47.2346 324.95 47.6966C325.038 48.1586 325.082 48.6536 325.082 49.1816C325.082 50.069 324.943 50.9416 324.664 51.7996C324.393 52.6576 324.004 53.4716 323.498 54.2416H322.475C322.915 53.457 323.249 52.6503 323.476 51.8216C323.711 50.9856 323.828 50.1056 323.828 49.1816C323.828 48.2576 323.718 47.3776 323.498 46.5416C323.278 45.7056 322.937 44.8916 322.475 44.0996H323.498Z" fill="black"/>
</g>
</g>
<g clip-path="url(#clip6_481_6293)">
<mask id="path-18-inside-6_481_6293" fill="white">
<path d="M0.328125 59.6406H104.328V90.9773H0.328125V59.6406Z"/>
</mask>
<path d="M0.328125 59.6406H104.328V90.9773H0.328125V59.6406Z" fill="#C36A1D"/>
<path d="M0.328125 59.6406V58.7738H-0.538709V59.6406H0.328125ZM0.328125 60.5075H104.328V58.7738H0.328125V60.5075ZM1.19496 90.9773V59.6406H-0.538709V90.9773H1.19496Z" fill="#0D0D0C" mask="url(#path-18-inside-6_481_6293)"/>
<path d="M24.5661 76.6911C24.5661 76.9917 24.6175 77.2484 24.7201 77.4611C24.8228 77.6737 24.9658 77.8497 25.1491 77.9891C25.3325 78.1211 25.5415 78.2201 25.7761 78.2861C26.0181 78.3447 26.2785 78.3741 26.5571 78.3741C26.8578 78.3741 27.1145 78.3411 27.3271 78.2751C27.5398 78.2017 27.7121 78.1101 27.8441 78.0001C27.9761 77.8901 28.0715 77.7654 28.1301 77.6261C28.1888 77.4794 28.2181 77.3327 28.2181 77.1861C28.2181 76.8854 28.1485 76.6654 28.0091 76.5261C27.8771 76.3794 27.7305 76.2767 27.5691 76.2181C27.2905 76.1154 26.9641 76.0201 26.5901 75.9321C26.2235 75.8367 25.7688 75.7157 25.2261 75.5691C24.8888 75.4811 24.6065 75.3674 24.3791 75.2281C24.1591 75.0814 23.9831 74.9201 23.8511 74.7441C23.7191 74.5681 23.6238 74.3811 23.5651 74.1831C23.5138 73.9851 23.4881 73.7834 23.4881 73.5781C23.4881 73.1821 23.5688 72.8411 23.7301 72.5551C23.8988 72.2617 24.1188 72.0197 24.3901 71.8291C24.6615 71.6384 24.9695 71.4991 25.3141 71.4111C25.6588 71.3157 26.0071 71.2681 26.3591 71.2681C26.7698 71.2681 27.1548 71.3231 27.5141 71.4331C27.8808 71.5357 28.1998 71.6934 28.4711 71.9061C28.7498 72.1187 28.9698 72.3827 29.1311 72.6981C29.2925 73.0061 29.3731 73.3654 29.3731 73.7761H27.9981C27.9615 73.2701 27.7891 72.9144 27.4811 72.7091C27.1731 72.4964 26.7808 72.3901 26.3041 72.3901C26.1428 72.3901 25.9778 72.4084 25.8091 72.4451C25.6405 72.4744 25.4865 72.5294 25.3471 72.6101C25.2078 72.6834 25.0905 72.7861 24.9951 72.9181C24.9071 73.0501 24.8631 73.2151 24.8631 73.4131C24.8631 73.6917 24.9475 73.9117 25.1161 74.0731C25.2921 74.2271 25.5195 74.3444 25.7981 74.4251C25.8275 74.4324 25.9411 74.4654 26.1391 74.5241C26.3445 74.5754 26.5718 74.6341 26.8211 74.7001C27.0705 74.7661 27.3125 74.8321 27.5471 74.8981C27.7891 74.9567 27.9615 75.0007 28.0641 75.0301C28.3208 75.1107 28.5445 75.2207 28.7351 75.3601C28.9258 75.4994 29.0835 75.6607 29.2081 75.8441C29.3401 76.0201 29.4355 76.2107 29.4941 76.4161C29.5601 76.6214 29.5931 76.8267 29.5931 77.0321C29.5931 77.4721 29.5015 77.8497 29.3181 78.1651C29.1421 78.4731 28.9075 78.7261 28.6141 78.9241C28.3208 79.1221 27.9871 79.2651 27.6131 79.3531C27.2391 79.4484 26.8578 79.4961 26.4691 79.4961C26.0218 79.4961 25.6001 79.4411 25.2041 79.3311C24.8081 79.2211 24.4635 79.0524 24.1701 78.8251C23.8768 78.5977 23.6421 78.3081 23.4661 77.9561C23.2901 77.5967 23.1985 77.1751 23.1911 76.6911H24.5661ZM30.0489 71.4551H36.4069V72.6431H33.9099V79.3091H32.5349V72.6431H30.0489V71.4551ZM38.4087 71.4551H39.8717L42.8967 79.3091H41.4227L40.6857 77.2301H37.5507L36.8137 79.3091H35.3947L38.4087 71.4551ZM37.9247 76.1851H40.3227L39.1457 72.8081H39.1127L37.9247 76.1851ZM43.5896 71.4551H45.0416L48.6276 77.2411H48.6496V71.4551H49.9586V79.3091H48.5066L44.9316 73.5341H44.8986V79.3091H43.5896V71.4551ZM51.5831 71.4551H54.8391C55.4404 71.4551 55.9611 71.5577 56.4011 71.7631C56.8411 71.9684 57.2004 72.2507 57.4791 72.6101C57.7577 72.9621 57.9631 73.3764 58.0951 73.8531C58.2344 74.3297 58.3041 74.8394 58.3041 75.3821C58.3041 75.9247 58.2344 76.4344 58.0951 76.9111C57.9631 77.3877 57.7577 77.8057 57.4791 78.1651C57.2004 78.5171 56.8411 78.7957 56.4011 79.0011C55.9611 79.2064 55.4404 79.3091 54.8391 79.3091H51.5831V71.4551ZM52.9581 78.1871H54.3111C54.8464 78.1871 55.2827 78.1174 55.6201 77.9781C55.9647 77.8314 56.2324 77.6334 56.4231 77.3841C56.6211 77.1274 56.7531 76.8304 56.8191 76.4931C56.8924 76.1484 56.9291 75.7781 56.9291 75.3821C56.9291 74.9861 56.8924 74.6194 56.8191 74.2821C56.7531 73.9374 56.6211 73.6404 56.4231 73.3911C56.2324 73.1344 55.9647 72.9364 55.6201 72.7971C55.2827 72.6504 54.8464 72.5771 54.3111 72.5771H52.9581V78.1871ZM61.6225 71.4551H63.0855L66.1105 79.3091H64.6365L63.8995 77.2301H60.7645L60.0275 79.3091H58.6085L61.6225 71.4551ZM61.1385 76.1851H63.5365L62.3595 72.8081H62.3265L61.1385 76.1851ZM66.8585 71.4551H70.6095C71.4748 71.4551 72.1238 71.6421 72.5565 72.0161C72.9891 72.3901 73.2055 72.9107 73.2055 73.5781C73.2055 73.9521 73.1505 74.2637 73.0405 74.5131C72.9305 74.7551 72.8021 74.9531 72.6555 75.1071C72.5088 75.2537 72.3621 75.3601 72.2155 75.4261C72.0761 75.4921 71.9735 75.5361 71.9075 75.5581V75.5801C72.0248 75.5947 72.1495 75.6314 72.2815 75.6901C72.4208 75.7487 72.5491 75.8441 72.6665 75.9761C72.7838 76.1007 72.8791 76.2657 72.9525 76.4711C73.0331 76.6764 73.0735 76.9331 73.0735 77.2411C73.0735 77.7031 73.1065 78.1247 73.1725 78.5061C73.2458 78.8801 73.3558 79.1477 73.5025 79.3091H72.0285C71.9258 79.1404 71.8635 78.9534 71.8415 78.7481C71.8268 78.5427 71.8195 78.3447 71.8195 78.1541C71.8195 77.7947 71.7975 77.4867 71.7535 77.2301C71.7095 76.9661 71.6288 76.7497 71.5115 76.5811C71.3941 76.4051 71.2328 76.2767 71.0275 76.1961C70.8295 76.1154 70.5728 76.0751 70.2575 76.0751H68.2335V79.3091H66.8585V71.4551ZM68.2335 75.0301H70.4885C70.9285 75.0301 71.2621 74.9274 71.4895 74.7221C71.7168 74.5094 71.8305 74.1941 71.8305 73.7761C71.8305 73.5267 71.7938 73.3251 71.7205 73.1711C71.6471 73.0097 71.5445 72.8851 71.4125 72.7971C71.2878 72.7091 71.1411 72.6504 70.9725 72.6211C70.8111 72.5917 70.6425 72.5771 70.4665 72.5771H68.2335V75.0301ZM74.6036 71.4551H77.8596C78.4609 71.4551 78.9816 71.5577 79.4216 71.7631C79.8616 71.9684 80.2209 72.2507 80.4996 72.6101C80.7782 72.9621 80.9836 73.3764 81.1156 73.8531C81.2549 74.3297 81.3246 74.8394 81.3246 75.3821C81.3246 75.9247 81.2549 76.4344 81.1156 76.9111C80.9836 77.3877 80.7782 77.8057 80.4996 78.1651C80.2209 78.5171 79.8616 78.7957 79.4216 79.0011C78.9816 79.2064 78.4609 79.3091 77.8596 79.3091H74.6036V71.4551ZM75.9786 78.1871H77.3316C77.8669 78.1871 78.3032 78.1174 78.6406 77.9781C78.9852 77.8314 79.2529 77.6334 79.4436 77.3841C79.6416 77.1274 79.7736 76.8304 79.8396 76.4931C79.9129 76.1484 79.9496 75.7781 79.9496 75.3821C79.9496 74.9861 79.9129 74.6194 79.8396 74.2821C79.7736 73.9374 79.6416 73.6404 79.4436 73.3911C79.2529 73.1344 78.9852 72.9364 78.6406 72.7971C78.3032 72.6504 77.8669 72.5771 77.3316 72.5771H75.9786V78.1871Z" fill="black"/>
<mask id="path-21-inside-7_481_6293" fill="white">
<path d="M104.328 59.6406H165.328V90.9773H104.328V59.6406Z"/>
</mask>
<path d="M104.328 59.6406H165.328V90.9773H104.328V59.6406Z" fill="#CC7D39"/>
<path d="M104.328 59.6406V58.7738H103.461V59.6406H104.328ZM104.328 60.5075H165.328V58.7738H104.328V60.5075ZM105.195 90.9773V59.6406H103.461V90.9773H105.195Z" fill="#0D0D0C" mask="url(#path-21-inside-7_481_6293)"/>
<path d="M125.434 77.7576V77.0041L128.758 71.744H129.305V72.9113H128.936L126.424 76.8859V76.945H130.901V77.7576H125.434ZM128.995 79.3091V77.5286V77.1777V71.744H129.867V79.3091H128.995ZM132.522 79.3091L135.905 72.6157V72.5566H132.004V71.744H136.851V72.601L133.482 79.3091H132.522ZM140.459 80.2547V70.7983H141.065V80.2547H140.459ZM142.498 73.6353C142.454 73.2609 142.274 72.9704 141.959 72.7635C141.643 72.5566 141.257 72.4532 140.799 72.4532C140.464 72.4532 140.171 72.5074 139.92 72.6157C139.671 72.7241 139.476 72.8731 139.336 73.0627C139.198 73.2523 139.129 73.4678 139.129 73.7091C139.129 73.9111 139.177 74.0847 139.273 74.23C139.372 74.3728 139.497 74.4922 139.65 74.5883C139.803 74.6819 139.963 74.7594 140.13 74.821C140.298 74.8801 140.451 74.9281 140.592 74.9651L141.36 75.1719C141.557 75.2236 141.776 75.295 142.018 75.3862C142.261 75.4773 142.494 75.6016 142.716 75.7592C142.94 75.9144 143.125 76.1139 143.27 76.3577C143.415 76.6015 143.488 76.9007 143.488 77.2553C143.488 77.6641 143.381 78.0335 143.166 78.3634C142.955 78.6934 142.644 78.9557 142.236 79.1502C141.829 79.3448 141.336 79.4421 140.754 79.4421C140.213 79.4421 139.743 79.3546 139.347 79.1798C138.953 79.005 138.643 78.7612 138.416 78.4484C138.192 78.1357 138.065 77.7724 138.036 77.3587H138.981C139.006 77.6444 139.102 77.8808 139.269 78.0679C139.439 78.2526 139.654 78.3905 139.912 78.4816C140.173 78.5703 140.454 78.6146 140.754 78.6146C141.104 78.6146 141.418 78.558 141.696 78.4447C141.975 78.329 142.195 78.1689 142.358 77.9645C142.52 77.7576 142.601 77.5163 142.601 77.2405C142.601 76.9893 142.531 76.7849 142.391 76.6273C142.25 76.4697 142.066 76.3417 141.837 76.2431C141.608 76.1446 141.36 76.0585 141.094 75.9846L140.163 75.7186C139.572 75.5487 139.104 75.3061 138.76 74.9909C138.415 74.6757 138.243 74.2632 138.243 73.7535C138.243 73.3299 138.357 72.9605 138.586 72.6453C138.818 72.3276 139.128 72.0814 139.517 71.9065C139.908 71.7292 140.346 71.6406 140.828 71.6406C141.316 71.6406 141.749 71.728 142.128 71.9028C142.508 72.0752 142.808 72.3116 143.03 72.612C143.254 72.9125 143.372 73.2536 143.384 73.6353H142.498Z" fill="black"/>
<mask id="path-24-inside-8_481_6293" fill="white">
<path d="M165.328 59.6406H224.328V90.9773H165.328V59.6406Z"/>
</mask>
<path d="M165.328 59.6406H224.328V90.9773H165.328V59.6406Z" fill="#CC7D39"/>
<path d="M165.328 59.6406V58.7738H164.461V59.6406H165.328ZM165.328 60.5075H224.328V58.7738H165.328V60.5075ZM166.195 90.9773V59.6406H164.461V90.9773H166.195Z" fill="#0D0D0C" mask="url(#path-24-inside-8_481_6293)"/>
<path d="M185.434 77.7576V77.0041L188.758 71.744H189.305V72.9113H188.936L186.424 76.8859V76.945H190.901V77.7576H185.434ZM188.995 79.3091V77.5286V77.1777V71.744H189.867V79.3091H188.995ZM194.708 79.4125C194.201 79.4125 193.753 79.3226 193.364 79.1429C192.977 78.9606 192.675 78.7107 192.459 78.393C192.242 78.0729 192.135 77.7084 192.137 77.2996C192.135 76.9795 192.198 76.684 192.326 76.4131C192.454 76.1397 192.629 75.9119 192.85 75.7297C193.074 75.545 193.324 75.428 193.6 75.3788V75.3345C193.238 75.2409 192.95 75.0377 192.736 74.725C192.522 74.4097 192.416 74.0514 192.418 73.65C192.416 73.2659 192.513 72.9223 192.71 72.6194C192.907 72.3165 193.178 72.0777 193.523 71.9028C193.87 71.728 194.265 71.6406 194.708 71.6406C195.147 71.6406 195.538 71.728 195.883 71.9028C196.228 72.0777 196.499 72.3165 196.696 72.6194C196.895 72.9223 196.996 73.2659 196.999 73.65C196.996 74.0514 196.887 74.4097 196.67 74.725C196.456 75.0377 196.171 75.2409 195.817 75.3345V75.3788C196.09 75.428 196.336 75.545 196.555 75.7297C196.774 75.9119 196.949 76.1397 197.08 76.4131C197.21 76.684 197.277 76.9795 197.279 77.2996C197.277 77.7084 197.166 78.0729 196.947 78.393C196.73 78.7107 196.428 78.9606 196.042 79.1429C195.658 79.3226 195.213 79.4125 194.708 79.4125ZM194.708 78.5999C195.051 78.5999 195.346 78.5444 195.595 78.4336C195.844 78.3228 196.036 78.1664 196.171 77.9645C196.307 77.7626 196.376 77.5262 196.378 77.2553C196.376 76.9696 196.302 76.7172 196.156 76.498C196.011 76.2789 195.813 76.1065 195.562 75.9809C195.313 75.8553 195.029 75.7925 194.708 75.7925C194.386 75.7925 194.098 75.8553 193.844 75.9809C193.593 76.1065 193.395 76.2789 193.249 76.498C193.106 76.7172 193.036 76.9696 193.039 77.2553C193.036 77.5262 193.102 77.7626 193.235 77.9645C193.37 78.1664 193.563 78.3228 193.814 78.4336C194.066 78.5444 194.364 78.5999 194.708 78.5999ZM194.708 75.0094C194.979 75.0094 195.219 74.9552 195.429 74.8469C195.64 74.7385 195.807 74.5871 195.927 74.3925C196.048 74.198 196.11 73.9702 196.112 73.7091C196.11 73.453 196.049 73.2302 195.931 73.0405C195.813 72.8485 195.649 72.7007 195.44 72.5973C195.23 72.4914 194.987 72.4384 194.708 72.4384C194.425 72.4384 194.178 72.4914 193.966 72.5973C193.754 72.7007 193.59 72.8485 193.475 73.0405C193.359 73.2302 193.302 73.453 193.305 73.7091C193.302 73.9702 193.36 74.198 193.478 74.3925C193.599 74.5871 193.765 74.7385 193.977 74.8469C194.189 74.9552 194.433 75.0094 194.708 75.0094ZM200.926 80.2547V70.7983H201.532V80.2547H200.926ZM202.965 73.6353C202.921 73.2609 202.741 72.9704 202.426 72.7635C202.111 72.5566 201.724 72.4532 201.266 72.4532C200.931 72.4532 200.638 72.5074 200.387 72.6157C200.138 72.7241 199.944 72.8731 199.803 73.0627C199.665 73.2523 199.596 73.4678 199.596 73.7091C199.596 73.9111 199.644 74.0847 199.74 74.23C199.839 74.3728 199.964 74.4922 200.117 74.5883C200.27 74.6819 200.43 74.7594 200.597 74.821C200.765 74.8801 200.919 74.9281 201.059 74.9651L201.827 75.1719C202.024 75.2236 202.244 75.295 202.485 75.3862C202.729 75.4773 202.961 75.6016 203.183 75.7592C203.407 75.9144 203.592 76.1139 203.737 76.3577C203.882 76.6015 203.955 76.9007 203.955 77.2553C203.955 77.6641 203.848 78.0335 203.634 78.3634C203.422 78.6934 203.112 78.9557 202.703 79.1502C202.297 79.3448 201.803 79.4421 201.222 79.4421C200.68 79.4421 200.211 79.3546 199.814 79.1798C199.42 79.005 199.11 78.7612 198.883 78.4484C198.659 78.1357 198.532 77.7724 198.503 77.3587H199.449C199.473 77.6444 199.569 77.8808 199.737 78.0679C199.907 78.2526 200.121 78.3905 200.379 78.4816C200.64 78.5703 200.921 78.6146 201.222 78.6146C201.571 78.6146 201.885 78.558 202.164 78.4447C202.442 78.329 202.662 78.1689 202.825 77.9645C202.987 77.7576 203.069 77.5163 203.069 77.2405C203.069 76.9893 202.998 76.7849 202.858 76.6273C202.718 76.4697 202.533 76.3417 202.304 76.2431C202.075 76.1446 201.827 76.0585 201.561 75.9846L200.631 75.7186C200.04 75.5487 199.572 75.3061 199.227 74.9909C198.882 74.6757 198.71 74.2632 198.71 73.7535C198.71 73.3299 198.824 72.9605 199.053 72.6453C199.285 72.3276 199.595 72.0814 199.984 71.9065C200.376 71.7292 200.813 71.6406 201.296 71.6406C201.783 71.6406 202.217 71.728 202.596 71.9028C202.975 72.0752 203.275 72.3116 203.497 72.612C203.721 72.9125 203.839 73.2536 203.852 73.6353H202.965Z" fill="black"/>
<mask id="path-27-inside-9_481_6293" fill="white">
<path d="M224.328 59.6406H285.328V90.9773H224.328V59.6406Z"/>
</mask>
<path d="M224.328 59.6406H285.328V90.9773H224.328V59.6406Z" fill="#CC7D39"/>
<path d="M224.328 59.6406V58.7738H223.461V59.6406H224.328ZM224.328 60.5075H285.328V58.7738H224.328V60.5075ZM225.195 90.9773V59.6406H223.461V90.9773H225.195Z" fill="#0D0D0C" mask="url(#path-27-inside-9_481_6293)"/>
<path d="M245.434 77.7576V77.0041L248.758 71.744H249.305V72.9113H248.936L246.424 76.8859V76.945H250.901V77.7576H245.434ZM248.995 79.3091V77.5286V77.1777V71.744H249.867V79.3091H248.995ZM254.797 79.4125C254.487 79.4076 254.176 79.3485 253.866 79.2352C253.556 79.1219 253.273 78.9311 253.017 78.6627C252.76 78.3918 252.555 78.0261 252.4 77.5656C252.245 77.1026 252.167 76.5214 252.167 75.822C252.167 75.1522 252.23 74.5587 252.355 74.0416C252.481 73.522 252.663 73.0849 252.902 72.7303C253.141 72.3732 253.429 72.1023 253.766 71.9176C254.106 71.7329 254.489 71.6406 254.915 71.6406C255.339 71.6406 255.716 71.7255 256.046 71.8954C256.378 72.0629 256.649 72.2968 256.858 72.5973C257.068 72.8977 257.203 73.2437 257.265 73.6353H256.363C256.28 73.2954 256.117 73.0135 255.876 72.7894C255.634 72.5653 255.314 72.4532 254.915 72.4532C254.329 72.4532 253.867 72.7081 253.53 73.2178C253.195 73.7276 253.026 74.443 253.024 75.364H253.083C253.221 75.1547 253.385 74.9761 253.574 74.8284C253.766 74.6782 253.978 74.5624 254.21 74.4812C254.441 74.3999 254.686 74.3593 254.945 74.3593C255.378 74.3593 255.775 74.4676 256.134 74.6843C256.494 74.8986 256.782 75.1953 256.999 75.5746C257.215 75.9513 257.324 76.3835 257.324 76.8711C257.324 77.339 257.219 77.7675 257.01 78.1566C256.8 78.5432 256.506 78.851 256.127 79.0801C255.75 79.3066 255.307 79.4174 254.797 79.4125ZM254.797 78.5999C255.107 78.5999 255.386 78.5223 255.632 78.3671C255.881 78.212 256.076 78.0039 256.219 77.7429C256.364 77.4818 256.437 77.1912 256.437 76.8711C256.437 76.5584 256.367 76.2739 256.227 76.0178C256.089 75.7592 255.898 75.5536 255.654 75.4009C255.413 75.2483 255.137 75.1719 254.827 75.1719C254.593 75.1719 254.375 75.2187 254.173 75.3123C253.971 75.4034 253.794 75.529 253.641 75.6891C253.491 75.8491 253.372 76.0326 253.286 76.2395C253.2 76.4439 253.157 76.6593 253.157 76.8859C253.157 77.1863 253.227 77.4671 253.367 77.7281C253.51 77.9891 253.705 78.1997 253.951 78.3598C254.2 78.5198 254.482 78.5999 254.797 78.5999ZM261.007 80.2547V70.7983H261.613V80.2547H261.007ZM263.046 73.6353C263.002 73.2609 262.822 72.9704 262.507 72.7635C262.192 72.5566 261.805 72.4532 261.347 72.4532C261.012 72.4532 260.719 72.5074 260.468 72.6157C260.219 72.7241 260.025 72.8731 259.884 73.0627C259.747 73.2523 259.678 73.4678 259.678 73.7091C259.678 73.9111 259.726 74.0847 259.822 74.23C259.92 74.3728 260.046 74.4922 260.198 74.5883C260.351 74.6819 260.511 74.7594 260.679 74.821C260.846 74.8801 261 74.9281 261.14 74.9651L261.909 75.1719C262.106 75.2236 262.325 75.295 262.566 75.3862C262.81 75.4773 263.043 75.6016 263.264 75.7592C263.488 75.9144 263.673 76.1139 263.818 76.3577C263.964 76.6015 264.036 76.9007 264.036 77.2553C264.036 77.6641 263.929 78.0335 263.715 78.3634C263.503 78.6934 263.193 78.9557 262.784 79.1502C262.378 79.3448 261.884 79.4421 261.303 79.4421C260.761 79.4421 260.292 79.3546 259.896 79.1798C259.502 79.005 259.191 78.7612 258.965 78.4484C258.741 78.1357 258.614 77.7724 258.584 77.3587H259.53C259.554 77.6444 259.65 77.8808 259.818 78.0679C259.988 78.2526 260.202 78.3905 260.461 78.4816C260.722 78.5703 261.002 78.6146 261.303 78.6146C261.653 78.6146 261.967 78.558 262.245 78.4447C262.523 78.329 262.744 78.1689 262.906 77.9645C263.069 77.7576 263.15 77.5163 263.15 77.2405C263.15 76.9893 263.08 76.7849 262.939 76.6273C262.799 76.4697 262.614 76.3417 262.385 76.2431C262.156 76.1446 261.909 76.0585 261.643 75.9846L260.712 75.7186C260.121 75.5487 259.653 75.3061 259.308 74.9909C258.963 74.6757 258.791 74.2632 258.791 73.7535C258.791 73.3299 258.906 72.9605 259.135 72.6453C259.366 72.3276 259.676 72.0814 260.065 71.9065C260.457 71.7292 260.894 71.6406 261.377 71.6406C261.864 71.6406 262.298 71.728 262.677 71.9028C263.056 72.0752 263.357 72.3116 263.578 72.612C263.802 72.9125 263.921 73.2536 263.933 73.6353H263.046Z" fill="black"/>
<mask id="path-30-inside-10_481_6293" fill="white">
<path d="M285.328 59.6406H345.328V90.9773H285.328V59.6406Z"/>
</mask>
<path d="M285.328 59.6406H345.328V90.9773H285.328V59.6406Z" fill="#CC7D39"/>
<path d="M285.328 59.6406V58.7738H284.461V59.6406H285.328ZM285.328 60.5075H345.328V58.7738H285.328V60.5075ZM286.195 90.9773V59.6406H284.461V90.9773H286.195Z" fill="#0D0D0C" mask="url(#path-30-inside-10_481_6293)"/>
<path d="M305.934 77.7576V77.0041L309.258 71.744H309.805V72.9113H309.436L306.924 76.8859V76.945H311.401V77.7576H305.934ZM309.495 79.3091V77.5286V77.1777V71.744H310.367V79.3091H309.495ZM315.341 79.4125C314.854 79.4125 314.419 79.3288 314.037 79.1613C313.658 78.9939 313.356 78.7612 313.132 78.4632C312.911 78.1627 312.79 77.8143 312.77 77.4178H313.701C313.721 77.6616 313.805 77.8722 313.952 78.0495C314.1 78.2243 314.294 78.3598 314.532 78.4558C314.771 78.5518 315.036 78.5999 315.327 78.5999C315.652 78.5999 315.94 78.5432 316.191 78.4299C316.442 78.3167 316.639 78.159 316.782 77.9571C316.925 77.7552 316.996 77.5212 316.996 77.2553C316.996 76.977 316.927 76.732 316.789 76.5202C316.651 76.3059 316.45 76.1385 316.184 76.0178C315.918 75.8972 315.593 75.8368 315.208 75.8368H314.603V75.0242H315.208C315.509 75.0242 315.772 74.97 315.999 74.8616C316.228 74.7533 316.406 74.6006 316.534 74.4036C316.665 74.2066 316.73 73.9751 316.73 73.7091C316.73 73.453 316.674 73.2302 316.56 73.0405C316.447 72.8509 316.287 72.7032 316.08 72.5973C315.876 72.4914 315.634 72.4384 315.356 72.4384C315.095 72.4384 314.849 72.4865 314.617 72.5825C314.388 72.6761 314.201 72.8128 314.056 72.9925C313.911 73.1698 313.832 73.3841 313.819 73.6353H312.933C312.948 73.2388 313.067 72.8916 313.291 72.5936C313.515 72.2931 313.808 72.0592 314.17 71.8917C314.535 71.7243 314.935 71.6406 315.371 71.6406C315.839 71.6406 316.24 71.7354 316.575 71.925C316.91 72.1121 317.167 72.3596 317.347 72.6675C317.527 72.9753 317.617 73.3077 317.617 73.6648C317.617 74.0908 317.505 74.4541 317.281 74.7545C317.059 75.0549 316.757 75.263 316.376 75.3788V75.4379C316.853 75.5167 317.226 75.7198 317.495 76.0474C317.763 76.3724 317.898 76.7751 317.898 77.2553C317.898 77.6665 317.785 78.0359 317.561 78.3634C317.34 78.6885 317.037 78.9446 316.653 79.1318C316.269 79.3189 315.831 79.4125 315.341 79.4125ZM321.639 80.2547V70.7983H322.245V80.2547H321.639ZM323.678 73.6353C323.634 73.2609 323.454 72.9704 323.139 72.7635C322.824 72.5566 322.437 72.4532 321.979 72.4532C321.644 72.4532 321.351 72.5074 321.1 72.6157C320.851 72.7241 320.657 72.8731 320.516 73.0627C320.379 73.2523 320.31 73.4678 320.31 73.7091C320.31 73.9111 320.358 74.0847 320.454 74.23C320.552 74.3728 320.678 74.4922 320.83 74.5883C320.983 74.6819 321.143 74.7594 321.311 74.821C321.478 74.8801 321.632 74.9281 321.772 74.9651L322.541 75.1719C322.738 75.2236 322.957 75.295 323.198 75.3862C323.442 75.4773 323.675 75.6016 323.896 75.7592C324.121 75.9144 324.305 76.1139 324.45 76.3577C324.596 76.6015 324.668 76.9007 324.668 77.2553C324.668 77.6641 324.561 78.0335 324.347 78.3634C324.135 78.6934 323.825 78.9557 323.416 79.1502C323.01 79.3448 322.516 79.4421 321.935 79.4421C321.393 79.4421 320.924 79.3546 320.528 79.1798C320.134 79.005 319.823 78.7612 319.597 78.4484C319.373 78.1357 319.246 77.7724 319.216 77.3587H320.162C320.187 77.6444 320.283 77.8808 320.45 78.0679C320.62 78.2526 320.834 78.3905 321.093 78.4816C321.354 78.5703 321.635 78.6146 321.935 78.6146C322.285 78.6146 322.599 78.558 322.877 78.4447C323.155 78.329 323.376 78.1689 323.538 77.9645C323.701 77.7576 323.782 77.5163 323.782 77.2405C323.782 76.9893 323.712 76.7849 323.571 76.6273C323.431 76.4697 323.246 76.3417 323.017 76.2431C322.788 76.1446 322.541 76.0585 322.275 75.9846L321.344 75.7186C320.753 75.5487 320.285 75.3061 319.94 74.9909C319.595 74.6757 319.423 74.2632 319.423 73.7535C319.423 73.3299 319.538 72.9605 319.767 72.6453C319.998 72.3276 320.308 72.0814 320.698 71.9065C321.089 71.7292 321.526 71.6406 322.009 71.6406C322.496 71.6406 322.93 71.728 323.309 71.9028C323.688 72.0752 323.989 72.3116 324.21 72.612C324.434 72.9125 324.553 73.2536 324.565 73.6353H323.678Z" fill="black"/>
</g>
<g clip-path="url(#clip7_481_6293)">
<mask id="path-33-inside-11_481_6293" fill="white">
<path d="M0.328125 90.9775H104.328V122.314H0.328125V90.9775Z"/>
</mask>
<path d="M0.328125 90.9775H104.328V122.314H0.328125V90.9775Z" fill="#C36A1D"/>
<path d="M0.328125 90.9775V90.1107H-0.538709V90.9775H0.328125ZM0.328125 91.8444H104.328V90.1107H0.328125V91.8444ZM1.19496 122.314V90.9775H-0.538709V122.314H1.19496Z" fill="#0D0D0C" mask="url(#path-33-inside-11_481_6293)"/>
<path d="M30.1641 102.792H33.9151C34.7805 102.792 35.4295 102.979 35.8621 103.353C36.2948 103.727 36.5111 104.248 36.5111 104.915C36.5111 105.289 36.4561 105.601 36.3461 105.85C36.2361 106.092 36.1078 106.29 35.9611 106.444C35.8145 106.591 35.6678 106.697 35.5211 106.763C35.3818 106.829 35.2791 106.873 35.2131 106.895V106.917C35.3305 106.932 35.4551 106.968 35.5871 107.027C35.7265 107.086 35.8548 107.181 35.9721 107.313C36.0895 107.438 36.1848 107.603 36.2581 107.808C36.3388 108.013 36.3791 108.27 36.3791 108.578C36.3791 109.04 36.4121 109.462 36.4781 109.843C36.5515 110.217 36.6615 110.485 36.8081 110.646H35.3341C35.2315 110.477 35.1691 110.29 35.1471 110.085C35.1325 109.88 35.1251 109.682 35.1251 109.491C35.1251 109.132 35.1031 108.824 35.0591 108.567C35.0151 108.303 34.9345 108.087 34.8171 107.918C34.6998 107.742 34.5385 107.614 34.3331 107.533C34.1351 107.452 33.8785 107.412 33.5631 107.412H31.5391V110.646H30.1641V102.792ZM31.5391 106.367H33.7941C34.2341 106.367 34.5678 106.264 34.7951 106.059C35.0225 105.846 35.1361 105.531 35.1361 105.113C35.1361 104.864 35.0995 104.662 35.0261 104.508C34.9528 104.347 34.8501 104.222 34.7181 104.134C34.5935 104.046 34.4468 103.987 34.2781 103.958C34.1168 103.929 33.9481 103.914 33.7721 103.914H31.5391V106.367ZM37.9092 102.792H39.2842V110.646H37.9092V102.792ZM40.0798 102.792H41.5098L43.4788 109.007H43.5008L45.5138 102.792H46.9108L44.2268 110.646H42.6978L40.0798 102.792ZM49.1948 102.792H50.6578L53.6828 110.646H52.2088L51.4718 108.567H48.3368L47.5998 110.646H46.1808L49.1948 102.792ZM48.7108 107.522H51.1088L49.9318 104.145H49.8988L48.7108 107.522ZM54.4307 102.792H55.8057V109.458H59.7987V110.646H54.4307V102.792ZM60.7471 102.792H64.4981C65.3635 102.792 66.0125 102.979 66.4451 103.353C66.8778 103.727 67.0941 104.248 67.0941 104.915C67.0941 105.289 67.0391 105.601 66.9291 105.85C66.8191 106.092 66.6908 106.29 66.5441 106.444C66.3975 106.591 66.2508 106.697 66.1041 106.763C65.9648 106.829 65.8621 106.873 65.7961 106.895V106.917C65.9135 106.932 66.0381 106.968 66.1701 107.027C66.3095 107.086 66.4378 107.181 66.5551 107.313C66.6725 107.438 66.7678 107.603 66.8411 107.808C66.9218 108.013 66.9621 108.27 66.9621 108.578C66.9621 109.04 66.9951 109.462 67.0611 109.843C67.1345 110.217 67.2445 110.485 67.3911 110.646H65.9171C65.8145 110.477 65.7521 110.29 65.7301 110.085C65.7155 109.88 65.7081 109.682 65.7081 109.491C65.7081 109.132 65.6861 108.824 65.6421 108.567C65.5981 108.303 65.5175 108.087 65.4001 107.918C65.2828 107.742 65.1215 107.614 64.9161 107.533C64.7181 107.452 64.4615 107.412 64.1461 107.412H62.1221V110.646H60.7471V102.792ZM62.1221 106.367H64.3771C64.8171 106.367 65.1508 106.264 65.3781 106.059C65.6055 105.846 65.7191 105.531 65.7191 105.113C65.7191 104.864 65.6825 104.662 65.6091 104.508C65.5358 104.347 65.4331 104.222 65.3011 104.134C65.1765 104.046 65.0298 103.987 64.8611 103.958C64.6998 103.929 64.5311 103.914 64.3551 103.914H62.1221V106.367ZM70.13 107.566L67.182 102.792H68.777L70.856 106.312L72.902 102.792H74.442L71.505 107.566V110.646H70.13V107.566Z" fill="black"/>
<mask id="path-36-inside-12_481_6293" fill="white">
<path d="M104.328 90.9775H165.328V122.314H104.328V90.9775Z"/>
</mask>
<path d="M104.328 90.9775H165.328V122.314H104.328V90.9775Z" fill="#CC7D39"/>
<path d="M104.328 90.9775V90.1107H103.461V90.9775H104.328ZM104.328 91.8444H165.328V90.1107H104.328V91.8444ZM105.195 122.314V90.9775H103.461V122.314H105.195Z" fill="#0D0D0C" mask="url(#path-36-inside-12_481_6293)"/>
<path d="M127.975 110.749C127.542 110.749 127.152 110.663 126.804 110.491C126.457 110.318 126.179 110.082 125.97 109.782C125.76 109.481 125.646 109.139 125.626 108.755H126.513C126.547 109.097 126.702 109.38 126.978 109.604C127.256 109.826 127.589 109.937 127.975 109.937C128.286 109.937 128.561 109.864 128.803 109.719C129.047 109.574 129.237 109.374 129.375 109.12C129.516 108.864 129.586 108.575 129.586 108.252C129.586 107.922 129.513 107.628 129.368 107.37C129.225 107.108 129.028 106.903 128.777 106.753C128.526 106.602 128.239 106.526 127.916 106.524C127.685 106.521 127.447 106.557 127.203 106.631C126.96 106.702 126.759 106.794 126.601 106.908L125.744 106.804L126.202 103.081H130.133V103.894H126.971L126.705 106.125H126.749C126.904 106.002 127.099 105.899 127.333 105.818C127.567 105.737 127.81 105.696 128.064 105.696C128.527 105.696 128.939 105.807 129.301 106.029C129.666 106.248 129.952 106.548 130.158 106.93C130.368 107.312 130.472 107.748 130.472 108.238C130.472 108.72 130.364 109.151 130.147 109.53C129.933 109.907 129.638 110.205 129.261 110.424C128.884 110.641 128.456 110.749 127.975 110.749ZM134.496 110.749C134.008 110.749 133.574 110.666 133.192 110.498C132.813 110.331 132.511 110.098 132.287 109.8C132.065 109.5 131.945 109.151 131.925 108.755H132.856C132.876 108.999 132.959 109.209 133.107 109.386C133.255 109.561 133.448 109.697 133.687 109.793C133.926 109.889 134.191 109.937 134.481 109.937C134.806 109.937 135.094 109.88 135.346 109.767C135.597 109.654 135.794 109.496 135.937 109.294C136.079 109.092 136.151 108.858 136.151 108.592C136.151 108.314 136.082 108.069 135.944 107.857C135.806 107.643 135.604 107.475 135.338 107.355C135.072 107.234 134.747 107.174 134.363 107.174H133.757V106.361H134.363C134.663 106.361 134.927 106.307 135.153 106.199C135.383 106.09 135.561 105.938 135.689 105.741C135.82 105.543 135.885 105.312 135.885 105.046C135.885 104.79 135.828 104.567 135.715 104.377C135.602 104.188 135.442 104.04 135.235 103.934C135.03 103.828 134.789 103.775 134.511 103.775C134.25 103.775 134.003 103.823 133.772 103.919C133.543 104.013 133.356 104.15 133.21 104.329C133.065 104.507 132.986 104.721 132.974 104.972H132.088C132.102 104.576 132.222 104.228 132.446 103.93C132.67 103.63 132.963 103.396 133.325 103.229C133.689 103.061 134.09 102.977 134.526 102.977C134.993 102.977 135.395 103.072 135.73 103.262C136.065 103.449 136.322 103.697 136.502 104.004C136.682 104.312 136.771 104.645 136.771 105.002C136.771 105.428 136.659 105.791 136.435 106.091C136.214 106.392 135.912 106.6 135.53 106.716V106.775C136.008 106.854 136.381 107.057 136.65 107.384C136.918 107.709 137.052 108.112 137.052 108.592C137.052 109.003 136.94 109.373 136.716 109.7C136.494 110.025 136.191 110.282 135.807 110.469C135.423 110.656 134.986 110.749 134.496 110.749ZM140.794 111.592V102.135H141.4V111.592H140.794ZM142.833 104.972C142.789 104.598 142.609 104.307 142.294 104.1C141.979 103.894 141.592 103.79 141.134 103.79C140.799 103.79 140.506 103.844 140.255 103.953C140.006 104.061 139.811 104.21 139.671 104.4C139.533 104.589 139.464 104.805 139.464 105.046C139.464 105.248 139.512 105.422 139.608 105.567C139.707 105.71 139.832 105.829 139.985 105.925C140.138 106.019 140.298 106.096 140.465 106.158C140.633 106.217 140.787 106.265 140.927 106.302L141.695 106.509C141.892 106.561 142.112 106.632 142.353 106.723C142.597 106.814 142.829 106.939 143.051 107.096C143.275 107.251 143.46 107.451 143.605 107.695C143.75 107.938 143.823 108.238 143.823 108.592C143.823 109.001 143.716 109.37 143.502 109.7C143.29 110.03 142.98 110.293 142.571 110.487C142.165 110.682 141.671 110.779 141.09 110.779C140.548 110.779 140.079 110.692 139.682 110.517C139.288 110.342 138.978 110.098 138.751 109.785C138.527 109.473 138.4 109.109 138.371 108.696H139.317C139.341 108.981 139.437 109.218 139.605 109.405C139.775 109.59 139.989 109.727 140.247 109.819C140.508 109.907 140.789 109.952 141.09 109.952C141.439 109.952 141.753 109.895 142.032 109.782C142.31 109.666 142.53 109.506 142.693 109.301C142.855 109.095 142.937 108.853 142.937 108.577C142.937 108.326 142.866 108.122 142.726 107.964C142.586 107.807 142.401 107.679 142.172 107.58C141.943 107.482 141.695 107.395 141.429 107.321L140.499 107.056C139.908 106.886 139.44 106.643 139.095 106.328C138.75 106.013 138.578 105.6 138.578 105.09C138.578 104.667 138.692 104.297 138.921 103.982C139.153 103.665 139.463 103.418 139.852 103.243C140.244 103.066 140.681 102.977 141.163 102.977C141.651 102.977 142.084 103.065 142.464 103.24C142.843 103.412 143.143 103.649 143.365 103.949C143.589 104.249 143.707 104.59 143.72 104.972H142.833Z" fill="black"/>
<mask id="path-39-inside-13_481_6293" fill="white">
<path d="M165.328 90.9775H224.328V122.314H165.328V90.9775Z"/>
</mask>
<path d="M165.328 90.9775H224.328V122.314H165.328V90.9775Z" fill="#CC7D39"/>
<path d="M165.328 90.9775V90.1107H164.461V90.9775H165.328ZM165.328 91.8444H224.328V90.1107H165.328V91.8444ZM166.195 122.314V90.9775H164.461V122.314H166.195Z" fill="#0D0D0C" mask="url(#path-39-inside-13_481_6293)"/>
<path d="M187.975 110.749C187.542 110.749 187.152 110.663 186.804 110.491C186.457 110.318 186.179 110.082 185.97 109.782C185.76 109.481 185.646 109.139 185.626 108.755H186.513C186.547 109.097 186.702 109.38 186.978 109.604C187.256 109.826 187.589 109.937 187.975 109.937C188.286 109.937 188.561 109.864 188.803 109.719C189.047 109.574 189.237 109.374 189.375 109.12C189.516 108.864 189.586 108.575 189.586 108.252C189.586 107.922 189.513 107.628 189.368 107.37C189.225 107.108 189.028 106.903 188.777 106.753C188.526 106.602 188.239 106.526 187.916 106.524C187.685 106.521 187.447 106.557 187.203 106.631C186.96 106.702 186.759 106.794 186.601 106.908L185.744 106.804L186.202 103.081H190.133V103.894H186.971L186.705 106.125H186.749C186.904 106.002 187.099 105.899 187.333 105.818C187.567 105.737 187.81 105.696 188.064 105.696C188.527 105.696 188.939 105.807 189.301 106.029C189.666 106.248 189.952 106.548 190.158 106.93C190.368 107.312 190.472 107.748 190.472 108.238C190.472 108.72 190.364 109.151 190.147 109.53C189.933 109.907 189.638 110.205 189.261 110.424C188.884 110.641 188.456 110.749 187.975 110.749ZM194.452 110.749C194.141 110.744 193.831 110.685 193.521 110.572C193.21 110.459 192.927 110.268 192.671 110C192.415 109.729 192.209 109.363 192.054 108.902C191.899 108.44 191.822 107.858 191.822 107.159C191.822 106.489 191.884 105.896 192.01 105.379C192.136 104.859 192.318 104.422 192.557 104.067C192.796 103.71 193.084 103.439 193.421 103.255C193.761 103.07 194.144 102.977 194.57 102.977C194.993 102.977 195.37 103.062 195.7 103.232C196.033 103.4 196.304 103.634 196.513 103.934C196.722 104.235 196.858 104.581 196.919 104.972H196.018C195.934 104.632 195.772 104.35 195.53 104.126C195.289 103.902 194.969 103.79 194.57 103.79C193.984 103.79 193.522 104.045 193.185 104.555C192.85 105.065 192.681 105.78 192.679 106.701H192.738C192.876 106.492 193.039 106.313 193.229 106.165C193.421 106.015 193.633 105.899 193.864 105.818C194.096 105.737 194.341 105.696 194.599 105.696C195.033 105.696 195.429 105.805 195.789 106.021C196.148 106.235 196.436 106.532 196.653 106.911C196.87 107.288 196.978 107.72 196.978 108.208C196.978 108.676 196.874 109.104 196.664 109.494C196.455 109.88 196.161 110.188 195.781 110.417C195.405 110.644 194.961 110.754 194.452 110.749ZM194.452 109.937C194.762 109.937 195.04 109.859 195.286 109.704C195.535 109.549 195.731 109.341 195.874 109.08C196.019 108.819 196.092 108.528 196.092 108.208C196.092 107.895 196.022 107.611 195.881 107.355C195.743 107.096 195.552 106.891 195.309 106.738C195.067 106.585 194.791 106.509 194.481 106.509C194.247 106.509 194.029 106.556 193.827 106.649C193.625 106.74 193.448 106.866 193.295 107.026C193.145 107.186 193.027 107.37 192.941 107.576C192.855 107.781 192.812 107.996 192.812 108.223C192.812 108.523 192.882 108.804 193.022 109.065C193.165 109.326 193.359 109.537 193.606 109.697C193.854 109.857 194.136 109.937 194.452 109.937ZM200.662 111.592V102.135H201.268V111.592H200.662ZM202.701 104.972C202.657 104.598 202.477 104.307 202.162 104.1C201.847 103.894 201.46 103.79 201.002 103.79C200.667 103.79 200.374 103.844 200.123 103.953C199.874 104.061 199.679 104.21 199.539 104.4C199.401 104.589 199.332 104.805 199.332 105.046C199.332 105.248 199.38 105.422 199.476 105.567C199.575 105.71 199.7 105.829 199.853 105.925C200.006 106.019 200.166 106.096 200.333 106.158C200.501 106.217 200.655 106.265 200.795 106.302L201.563 106.509C201.76 106.561 201.979 106.632 202.221 106.723C202.465 106.814 202.697 106.939 202.919 107.096C203.143 107.251 203.328 107.451 203.473 107.695C203.618 107.938 203.691 108.238 203.691 108.592C203.691 109.001 203.584 109.37 203.37 109.7C203.158 110.03 202.848 110.293 202.439 110.487C202.032 110.682 201.539 110.779 200.958 110.779C200.416 110.779 199.947 110.692 199.55 110.517C199.156 110.342 198.846 110.098 198.619 109.785C198.395 109.473 198.268 109.109 198.239 108.696H199.184C199.209 108.981 199.305 109.218 199.473 109.405C199.642 109.59 199.857 109.727 200.115 109.819C200.376 109.907 200.657 109.952 200.958 109.952C201.307 109.952 201.621 109.895 201.899 109.782C202.178 109.666 202.398 109.506 202.561 109.301C202.723 109.095 202.804 108.853 202.804 108.577C202.804 108.326 202.734 108.122 202.594 107.964C202.454 107.807 202.269 107.679 202.04 107.58C201.811 107.482 201.563 107.395 201.297 107.321L200.366 107.056C199.775 106.886 199.308 106.643 198.963 106.328C198.618 106.013 198.446 105.6 198.446 105.09C198.446 104.667 198.56 104.297 198.789 103.982C199.021 103.665 199.331 103.418 199.72 103.243C200.112 103.066 200.549 102.977 201.031 102.977C201.519 102.977 201.952 103.065 202.332 103.24C202.711 103.412 203.011 103.649 203.233 103.949C203.457 104.249 203.575 104.59 203.588 104.972H202.701Z" fill="black"/>
<mask id="path-42-inside-14_481_6293" fill="white">
<path d="M224.328 90.9775H285.328V122.314H224.328V90.9775Z"/>
</mask>
<path d="M224.328 90.9775H285.328V122.314H224.328V90.9775Z" fill="#CC7D39"/>
<path d="M224.328 90.9775V90.1107H223.461V90.9775H224.328ZM224.328 91.8444H285.328V90.1107H224.328V91.8444ZM225.195 122.314V90.9775H223.461V122.314H225.195Z" fill="#0D0D0C" mask="url(#path-42-inside-14_481_6293)"/>
<path d="M247.975 110.749C247.542 110.749 247.152 110.663 246.804 110.491C246.457 110.318 246.179 110.082 245.97 109.782C245.76 109.481 245.646 109.139 245.626 108.755H246.513C246.547 109.097 246.702 109.38 246.978 109.604C247.256 109.826 247.589 109.937 247.975 109.937C248.286 109.937 248.561 109.864 248.803 109.719C249.047 109.574 249.237 109.374 249.375 109.12C249.516 108.864 249.586 108.575 249.586 108.252C249.586 107.922 249.513 107.628 249.368 107.37C249.225 107.108 249.028 106.903 248.777 106.753C248.526 106.602 248.239 106.526 247.916 106.524C247.685 106.521 247.447 106.557 247.203 106.631C246.96 106.702 246.759 106.794 246.601 106.908L245.744 106.804L246.202 103.081H250.133V103.894H246.971L246.705 106.125H246.749C246.904 106.002 247.099 105.899 247.333 105.818C247.567 105.737 247.81 105.696 248.064 105.696C248.527 105.696 248.939 105.807 249.301 106.029C249.666 106.248 249.952 106.548 250.158 106.93C250.368 107.312 250.472 107.748 250.472 108.238C250.472 108.72 250.364 109.151 250.147 109.53C249.933 109.907 249.638 110.205 249.261 110.424C248.884 110.641 248.456 110.749 247.975 110.749ZM254.363 110.749C253.856 110.749 253.408 110.66 253.018 110.48C252.632 110.298 252.33 110.048 252.113 109.73C251.897 109.41 251.79 109.045 251.792 108.637C251.79 108.316 251.852 108.021 251.98 107.75C252.108 107.477 252.283 107.249 252.505 107.067C252.729 106.882 252.979 106.765 253.255 106.716V106.671C252.893 106.578 252.605 106.375 252.39 106.062C252.176 105.747 252.07 105.388 252.073 104.987C252.07 104.603 252.168 104.259 252.365 103.956C252.562 103.653 252.832 103.415 253.177 103.24C253.524 103.065 253.92 102.977 254.363 102.977C254.801 102.977 255.193 103.065 255.538 103.24C255.882 103.415 256.153 103.653 256.35 103.956C256.55 104.259 256.651 104.603 256.653 104.987C256.651 105.388 256.541 105.747 256.324 106.062C256.11 106.375 255.826 106.578 255.471 106.671V106.716C255.745 106.765 255.991 106.882 256.21 107.067C256.429 107.249 256.604 107.477 256.734 107.75C256.865 108.021 256.931 108.316 256.934 108.637C256.931 109.045 256.821 109.41 256.601 109.73C256.385 110.048 256.083 110.298 255.696 110.48C255.312 110.66 254.868 110.749 254.363 110.749ZM254.363 109.937C254.705 109.937 255.001 109.881 255.25 109.771C255.498 109.66 255.69 109.503 255.826 109.301C255.961 109.099 256.03 108.863 256.033 108.592C256.03 108.307 255.956 108.054 255.811 107.835C255.666 107.616 255.467 107.443 255.216 107.318C254.968 107.192 254.683 107.129 254.363 107.129C254.04 107.129 253.752 107.192 253.499 107.318C253.247 107.443 253.049 107.616 252.904 107.835C252.761 108.054 252.691 108.307 252.693 108.592C252.691 108.863 252.756 109.099 252.889 109.301C253.025 109.503 253.218 109.66 253.469 109.771C253.72 109.881 254.018 109.937 254.363 109.937ZM254.363 106.346C254.634 106.346 254.874 106.292 255.083 106.184C255.295 106.075 255.461 105.924 255.582 105.729C255.703 105.535 255.764 105.307 255.767 105.046C255.764 104.79 255.704 104.567 255.586 104.377C255.467 104.185 255.304 104.038 255.094 103.934C254.885 103.828 254.641 103.775 254.363 103.775C254.08 103.775 253.832 103.828 253.621 103.934C253.409 104.038 253.245 104.185 253.129 104.377C253.013 104.567 252.957 104.79 252.959 105.046C252.957 105.307 253.015 105.535 253.133 105.729C253.254 105.924 253.42 106.075 253.632 106.184C253.843 106.292 254.087 106.346 254.363 106.346ZM260.581 111.592V102.135H261.187V111.592H260.581ZM262.62 104.972C262.575 104.598 262.396 104.307 262.08 104.1C261.765 103.894 261.379 103.79 260.921 103.79C260.586 103.79 260.293 103.844 260.041 103.953C259.793 104.061 259.598 104.21 259.458 104.4C259.32 104.589 259.251 104.805 259.251 105.046C259.251 105.248 259.299 105.422 259.395 105.567C259.494 105.71 259.619 105.829 259.772 105.925C259.924 106.019 260.085 106.096 260.252 106.158C260.419 106.217 260.573 106.265 260.714 106.302L261.482 106.509C261.679 106.561 261.898 106.632 262.14 106.723C262.383 106.814 262.616 106.939 262.838 107.096C263.062 107.251 263.247 107.451 263.392 107.695C263.537 107.938 263.61 108.238 263.61 108.592C263.61 109.001 263.503 109.37 263.288 109.7C263.077 110.03 262.766 110.293 262.358 110.487C261.951 110.682 261.457 110.779 260.876 110.779C260.334 110.779 259.865 110.692 259.469 110.517C259.075 110.342 258.765 110.098 258.538 109.785C258.314 109.473 258.187 109.109 258.158 108.696H259.103C259.128 108.981 259.224 109.218 259.391 109.405C259.561 109.59 259.775 109.727 260.034 109.819C260.295 109.907 260.576 109.952 260.876 109.952C261.226 109.952 261.54 109.895 261.818 109.782C262.096 109.666 262.317 109.506 262.479 109.301C262.642 109.095 262.723 108.853 262.723 108.577C262.723 108.326 262.653 108.122 262.513 107.964C262.372 107.807 262.188 107.679 261.959 107.58C261.73 107.482 261.482 107.395 261.216 107.321L260.285 107.056C259.694 106.886 259.226 106.643 258.882 106.328C258.537 106.013 258.364 105.6 258.364 105.09C258.364 104.667 258.479 104.297 258.708 103.982C258.939 103.665 259.25 103.418 259.639 103.243C260.03 103.066 260.467 102.977 260.95 102.977C261.438 102.977 261.871 103.065 262.25 103.24C262.63 103.412 262.93 103.649 263.152 103.949C263.376 104.249 263.494 104.59 263.506 104.972H262.62Z" fill="black"/>
<mask id="path-45-inside-15_481_6293" fill="white">
<path d="M285.328 90.9775H345.328V122.314H285.328V90.9775Z"/>
</mask>
<path d="M285.328 90.9775H345.328V122.314H285.328V90.9775Z" fill="#CC7D39"/>
<path d="M285.328 90.9775V90.1107H284.461V90.9775H285.328ZM285.328 91.8444H345.328V90.1107H285.328V91.8444ZM286.195 122.314V90.9775H284.461V122.314H286.195Z" fill="#0D0D0C" mask="url(#path-45-inside-15_481_6293)"/>
<path d="M308.475 110.749C308.042 110.749 307.652 110.663 307.304 110.491C306.957 110.318 306.679 110.082 306.47 109.782C306.26 109.481 306.146 109.139 306.126 108.755H307.013C307.047 109.097 307.202 109.38 307.478 109.604C307.756 109.826 308.089 109.937 308.475 109.937C308.786 109.937 309.061 109.864 309.303 109.719C309.547 109.574 309.737 109.374 309.875 109.12C310.016 108.864 310.086 108.575 310.086 108.252C310.086 107.922 310.013 107.628 309.868 107.37C309.725 107.108 309.528 106.903 309.277 106.753C309.026 106.602 308.739 106.526 308.416 106.524C308.185 106.521 307.947 106.557 307.703 106.631C307.46 106.702 307.259 106.794 307.101 106.908L306.244 106.804L306.702 103.081H310.633V103.894H307.471L307.205 106.125H307.249C307.404 106.002 307.599 105.899 307.833 105.818C308.067 105.737 308.31 105.696 308.564 105.696C309.027 105.696 309.439 105.807 309.801 106.029C310.166 106.248 310.452 106.548 310.658 106.93C310.868 107.312 310.972 107.748 310.972 108.238C310.972 108.72 310.864 109.151 310.647 109.53C310.433 109.907 310.138 110.205 309.761 110.424C309.384 110.641 308.956 110.749 308.475 110.749ZM314.804 110.749C314.37 110.749 313.98 110.663 313.633 110.491C313.286 110.318 313.007 110.082 312.798 109.782C312.589 109.481 312.474 109.139 312.455 108.755H313.341C313.376 109.097 313.531 109.38 313.807 109.604C314.085 109.826 314.417 109.937 314.804 109.937C315.114 109.937 315.39 109.864 315.631 109.719C315.875 109.574 316.066 109.374 316.204 109.12C316.344 108.864 316.414 108.575 316.414 108.252C316.414 107.922 316.342 107.628 316.196 107.37C316.054 107.108 315.857 106.903 315.605 106.753C315.354 106.602 315.067 106.526 314.745 106.524C314.513 106.521 314.276 106.557 314.032 106.631C313.788 106.702 313.587 106.794 313.43 106.908L312.573 106.804L313.031 103.081H316.961V103.894H313.799L313.533 106.125H313.578C313.733 106.002 313.927 105.899 314.161 105.818C314.395 105.737 314.639 105.696 314.893 105.696C315.356 105.696 315.768 105.807 316.13 106.029C316.494 106.248 316.78 106.548 316.987 106.93C317.196 107.312 317.301 107.748 317.301 108.238C317.301 108.72 317.193 109.151 316.976 109.53C316.762 109.907 316.466 110.205 316.089 110.424C315.713 110.641 315.284 110.749 314.804 110.749ZM320.999 111.592V102.135H321.605V111.592H320.999ZM323.039 104.972C322.994 104.598 322.814 104.307 322.499 104.1C322.184 103.894 321.797 103.79 321.339 103.79C321.004 103.79 320.711 103.844 320.46 103.953C320.211 104.061 320.017 104.21 319.877 104.4C319.739 104.589 319.67 104.805 319.67 105.046C319.67 105.248 319.718 105.422 319.814 105.567C319.912 105.71 320.038 105.829 320.191 105.925C320.343 106.019 320.503 106.096 320.671 106.158C320.838 106.217 320.992 106.265 321.132 106.302L321.901 106.509C322.098 106.561 322.317 106.632 322.558 106.723C322.802 106.814 323.035 106.939 323.256 107.096C323.481 107.251 323.665 107.451 323.811 107.695C323.956 107.938 324.028 108.238 324.028 108.592C324.028 109.001 323.921 109.37 323.707 109.7C323.495 110.03 323.185 110.293 322.776 110.487C322.37 110.682 321.876 110.779 321.295 110.779C320.753 110.779 320.284 110.692 319.888 110.517C319.494 110.342 319.183 110.098 318.957 109.785C318.733 109.473 318.606 109.109 318.576 108.696H319.522C319.547 108.981 319.643 109.218 319.81 109.405C319.98 109.59 320.194 109.727 320.453 109.819C320.714 109.907 320.995 109.952 321.295 109.952C321.645 109.952 321.959 109.895 322.237 109.782C322.515 109.666 322.736 109.506 322.898 109.301C323.061 109.095 323.142 108.853 323.142 108.577C323.142 108.326 323.072 108.122 322.931 107.964C322.791 107.807 322.606 107.679 322.377 107.58C322.148 107.482 321.901 107.395 321.635 107.321L320.704 107.056C320.113 106.886 319.645 106.643 319.3 106.328C318.956 106.013 318.783 105.6 318.783 105.09C318.783 104.667 318.898 104.297 319.127 103.982C319.358 103.665 319.668 103.418 320.058 103.243C320.449 103.066 320.886 102.977 321.369 102.977C321.856 102.977 322.29 103.065 322.669 103.24C323.048 103.412 323.349 103.649 323.57 103.949C323.795 104.249 323.913 104.59 323.925 104.972H323.039Z" fill="black"/>
</g>
<g clip-path="url(#clip8_481_6293)">
<mask id="path-48-inside-16_481_6293" fill="white">
<path d="M0.328125 122.314H104.328V153.651H0.328125V122.314Z"/>
</mask>
<path d="M0.328125 122.314H104.328V153.651H0.328125V122.314Z" fill="#C36A1D"/>
<path d="M0.328125 122.314V121.447H-0.538709V122.314H0.328125ZM0.328125 123.181H104.328V121.447H0.328125V123.181ZM1.19496 153.651V122.314H-0.538709V153.651H1.19496Z" fill="#0D0D0C" mask="url(#path-48-inside-16_481_6293)"/>
<path d="M15.1741 134.128H16.5491V140.794H20.5421V141.982H15.1741V134.128ZM24.8345 135.063C24.4165 135.063 24.0535 135.148 23.7455 135.316C23.4449 135.485 23.1992 135.712 23.0085 135.998C22.8179 136.277 22.6749 136.596 22.5795 136.955C22.4915 137.315 22.4475 137.681 22.4475 138.055C22.4475 138.429 22.4915 138.796 22.5795 139.155C22.6749 139.515 22.8179 139.837 23.0085 140.123C23.1992 140.402 23.4449 140.626 23.7455 140.794C24.0535 140.963 24.4165 141.047 24.8345 141.047C25.2525 141.047 25.6119 140.963 25.9125 140.794C26.2205 140.626 26.4699 140.402 26.6605 140.123C26.8512 139.837 26.9905 139.515 27.0785 139.155C27.1739 138.796 27.2215 138.429 27.2215 138.055C27.2215 137.681 27.1739 137.315 27.0785 136.955C26.9905 136.596 26.8512 136.277 26.6605 135.998C26.4699 135.712 26.2205 135.485 25.9125 135.316C25.6119 135.148 25.2525 135.063 24.8345 135.063ZM24.8345 133.941C25.4212 133.941 25.9455 134.051 26.4075 134.271C26.8769 134.491 27.2729 134.788 27.5955 135.162C27.9182 135.536 28.1639 135.973 28.3325 136.471C28.5085 136.97 28.5965 137.498 28.5965 138.055C28.5965 138.62 28.5085 139.152 28.3325 139.65C28.1639 140.149 27.9182 140.585 27.5955 140.959C27.2729 141.333 26.8769 141.63 26.4075 141.85C25.9455 142.063 25.4212 142.169 24.8345 142.169C24.2479 142.169 23.7199 142.063 23.2505 141.85C22.7885 141.63 22.3962 141.333 22.0735 140.959C21.7509 140.585 21.5015 140.149 21.3255 139.65C21.1569 139.152 21.0725 138.62 21.0725 138.055C21.0725 137.498 21.1569 136.97 21.3255 136.471C21.5015 135.973 21.7509 135.536 22.0735 135.162C22.3962 134.788 22.7885 134.491 23.2505 134.271C23.7199 134.051 24.2479 133.941 24.8345 133.941ZM29.078 134.128H30.475L31.894 140.134H31.916L33.5 134.128H34.908L36.448 140.134H36.47L37.933 134.128H39.33L37.163 141.982H35.766L34.193 135.976H34.171L32.565 141.982H31.146L29.078 134.128ZM43.2972 134.128H46.5532C47.1545 134.128 47.6752 134.231 48.1152 134.436C48.5552 134.642 48.9145 134.924 49.1932 135.283C49.4718 135.635 49.6772 136.05 49.8092 136.526C49.9485 137.003 50.0182 137.513 50.0182 138.055C50.0182 138.598 49.9485 139.108 49.8092 139.584C49.6772 140.061 49.4718 140.479 49.1932 140.838C48.9145 141.19 48.5552 141.469 48.1152 141.674C47.6752 141.88 47.1545 141.982 46.5532 141.982H43.2972V134.128ZM44.6722 140.86H46.0252C46.5605 140.86 46.9968 140.791 47.3342 140.651C47.6788 140.505 47.9465 140.307 48.1372 140.057C48.3352 139.801 48.4672 139.504 48.5332 139.166C48.6065 138.822 48.6432 138.451 48.6432 138.055C48.6432 137.659 48.6065 137.293 48.5332 136.955C48.4672 136.611 48.3352 136.314 48.1372 136.064C47.9465 135.808 47.6788 135.61 47.3342 135.47C46.9968 135.324 46.5605 135.25 46.0252 135.25H44.6722V140.86ZM51.2357 134.128H56.8897V135.316H52.6107V137.373H56.5707V138.495H52.6107V140.794H56.9667V141.982H51.2357V134.128ZM58.1424 134.128H60.0784L62.2454 140.277H62.2674L64.3794 134.128H66.2934V141.982H64.9844V135.921H64.9624L62.7844 141.982H61.6514L59.4734 135.921H59.4514V141.982H58.1424V134.128ZM70.0408 134.128H71.5038L74.5288 141.982H73.0548L72.3178 139.903H69.1828L68.4458 141.982H67.0268L70.0408 134.128ZM69.5568 138.858H71.9548L70.7778 135.481H70.7448L69.5568 138.858ZM75.2217 134.128H76.6737L80.2597 139.914H80.2817V134.128H81.5907V141.982H80.1387L76.5637 136.207H76.5307V141.982H75.2217V134.128ZM83.2152 134.128H86.4712C87.0725 134.128 87.5932 134.231 88.0332 134.436C88.4732 134.642 88.8325 134.924 89.1112 135.283C89.3898 135.635 89.5952 136.05 89.7272 136.526C89.8665 137.003 89.9362 137.513 89.9362 138.055C89.9362 138.598 89.8665 139.108 89.7272 139.584C89.5952 140.061 89.3898 140.479 89.1112 140.838C88.8325 141.19 88.4732 141.469 88.0332 141.674C87.5932 141.88 87.0725 141.982 86.4712 141.982H83.2152V134.128ZM84.5902 140.86H85.9432C86.4785 140.86 86.9148 140.791 87.2522 140.651C87.5968 140.505 87.8645 140.307 88.0552 140.057C88.2532 139.801 88.3852 139.504 88.4512 139.166C88.5245 138.822 88.5612 138.451 88.5612 138.055C88.5612 137.659 88.5245 137.293 88.4512 136.955C88.3852 136.611 88.2532 136.314 88.0552 136.064C87.8645 135.808 87.5968 135.61 87.2522 135.47C86.9148 135.324 86.4785 135.25 85.9432 135.25H84.5902V140.86Z" fill="black"/>
<mask id="path-51-inside-17_481_6293" fill="white">
<path d="M104.328 122.314H165.328V153.651H104.328V122.314Z"/>
</mask>
<path d="M104.328 122.314H165.328V153.651H104.328V122.314Z" fill="#CC7D39"/>
<path d="M104.328 122.314V121.447H103.461V122.314H104.328ZM104.328 123.181H165.328V121.447H104.328V123.181ZM105.195 153.651V122.314H103.461V153.651H105.195Z" fill="#0D0D0C" mask="url(#path-51-inside-17_481_6293)"/>
<path d="M125.934 140.431V139.677L129.258 134.417H129.805V135.585H129.436L126.924 139.559V139.618H131.401V140.431H125.934ZM129.495 141.982V140.202V139.851V134.417H130.367V141.982H129.495ZM135.343 134.417V141.982H134.427V135.378H134.383L132.536 136.604V135.673L134.427 134.417H135.343ZM139.75 142.928V133.472H140.356V142.928H139.75ZM141.789 136.309C141.745 135.934 141.565 135.644 141.25 135.437C140.935 135.23 140.548 135.127 140.09 135.127C139.755 135.127 139.462 135.181 139.211 135.289C138.962 135.397 138.767 135.546 138.627 135.736C138.489 135.926 138.42 136.141 138.42 136.382C138.42 136.584 138.468 136.758 138.564 136.903C138.663 137.046 138.788 137.166 138.941 137.262C139.094 137.355 139.254 137.433 139.421 137.494C139.589 137.553 139.743 137.601 139.883 137.638L140.651 137.845C140.848 137.897 141.068 137.968 141.309 138.06C141.553 138.151 141.785 138.275 142.007 138.433C142.231 138.588 142.416 138.787 142.561 139.031C142.706 139.275 142.779 139.574 142.779 139.929C142.779 140.337 142.672 140.707 142.458 141.037C142.246 141.367 141.936 141.629 141.527 141.824C141.12 142.018 140.627 142.115 140.046 142.115C139.504 142.115 139.035 142.028 138.638 141.853C138.244 141.678 137.934 141.434 137.707 141.122C137.483 140.809 137.356 140.446 137.327 140.032H138.272C138.297 140.318 138.393 140.554 138.561 140.741C138.731 140.926 138.945 141.064 139.203 141.155C139.464 141.244 139.745 141.288 140.046 141.288C140.395 141.288 140.709 141.231 140.987 141.118C141.266 141.002 141.486 140.842 141.649 140.638C141.811 140.431 141.892 140.19 141.892 139.914C141.892 139.663 141.822 139.458 141.682 139.301C141.542 139.143 141.357 139.015 141.128 138.916C140.899 138.818 140.651 138.732 140.385 138.658L139.455 138.392C138.863 138.222 138.396 137.979 138.051 137.664C137.706 137.349 137.534 136.937 137.534 136.427C137.534 136.003 137.648 135.634 137.877 135.319C138.109 135.001 138.419 134.755 138.808 134.58C139.2 134.403 139.637 134.314 140.119 134.314C140.607 134.314 141.04 134.401 141.42 134.576C141.799 134.749 142.099 134.985 142.321 135.285C142.545 135.586 142.663 135.927 142.676 136.309H141.789Z" fill="black"/>
<mask id="path-54-inside-18_481_6293" fill="white">
<path d="M165.328 122.314H224.328V153.651H165.328V122.314Z"/>
</mask>
<path d="M165.328 122.314H224.328V153.651H165.328V122.314Z" fill="#CC7D39"/>
<path d="M165.328 122.314V121.447H164.461V122.314H165.328ZM165.328 123.181H224.328V121.447H165.328V123.181ZM166.195 153.651V122.314H164.461V153.651H166.195Z" fill="#0D0D0C" mask="url(#path-54-inside-18_481_6293)"/>
<path d="M185.434 140.431V139.677L188.758 134.417H189.305V135.585H188.936L186.424 139.559V139.618H190.901V140.431H185.434ZM188.995 141.982V140.202V139.851V134.417H189.867V141.982H188.995ZM194.841 142.086C194.354 142.086 193.919 142.002 193.537 141.835C193.158 141.667 192.856 141.434 192.632 141.137C192.411 140.836 192.29 140.488 192.27 140.091H193.201C193.221 140.335 193.305 140.545 193.452 140.723C193.6 140.898 193.794 141.033 194.032 141.129C194.271 141.225 194.536 141.273 194.827 141.273C195.152 141.273 195.44 141.217 195.691 141.103C195.942 140.99 196.139 140.832 196.282 140.63C196.425 140.429 196.496 140.195 196.496 139.929C196.496 139.65 196.427 139.405 196.289 139.194C196.151 138.979 195.95 138.812 195.684 138.691C195.418 138.57 195.093 138.51 194.708 138.51H194.103V137.698H194.708C195.009 137.698 195.272 137.643 195.499 137.535C195.728 137.427 195.906 137.274 196.034 137.077C196.165 136.88 196.23 136.648 196.23 136.382C196.23 136.126 196.174 135.904 196.06 135.714C195.947 135.524 195.787 135.377 195.58 135.271C195.376 135.165 195.134 135.112 194.856 135.112C194.595 135.112 194.349 135.16 194.117 135.256C193.888 135.349 193.701 135.486 193.556 135.666C193.411 135.843 193.332 136.057 193.319 136.309H192.433C192.448 135.912 192.567 135.565 192.791 135.267C193.015 134.966 193.308 134.733 193.67 134.565C194.035 134.398 194.435 134.314 194.871 134.314C195.339 134.314 195.74 134.409 196.075 134.598C196.41 134.785 196.667 135.033 196.847 135.341C197.027 135.649 197.117 135.981 197.117 136.338C197.117 136.764 197.005 137.127 196.781 137.428C196.559 137.728 196.257 137.936 195.876 138.052V138.111C196.353 138.19 196.726 138.393 196.995 138.721C197.263 139.046 197.398 139.448 197.398 139.929C197.398 140.34 197.285 140.709 197.061 141.037C196.84 141.362 196.537 141.618 196.153 141.805C195.769 141.992 195.331 142.086 194.841 142.086ZM201.139 142.928V133.472H201.745V142.928H201.139ZM203.178 136.309C203.134 135.934 202.954 135.644 202.639 135.437C202.324 135.23 201.937 135.127 201.479 135.127C201.144 135.127 200.851 135.181 200.6 135.289C200.351 135.397 200.157 135.546 200.016 135.736C199.879 135.926 199.81 136.141 199.81 136.382C199.81 136.584 199.858 136.758 199.954 136.903C200.052 137.046 200.178 137.166 200.33 137.262C200.483 137.355 200.643 137.433 200.811 137.494C200.978 137.553 201.132 137.601 201.272 137.638L202.041 137.845C202.238 137.897 202.457 137.968 202.698 138.06C202.942 138.151 203.175 138.275 203.396 138.433C203.621 138.588 203.805 138.787 203.95 139.031C204.096 139.275 204.168 139.574 204.168 139.929C204.168 140.337 204.061 140.707 203.847 141.037C203.635 141.367 203.325 141.629 202.916 141.824C202.51 142.018 202.016 142.115 201.435 142.115C200.893 142.115 200.424 142.028 200.028 141.853C199.634 141.678 199.323 141.434 199.097 141.122C198.873 140.809 198.746 140.446 198.716 140.032H199.662C199.687 140.318 199.783 140.554 199.95 140.741C200.12 140.926 200.334 141.064 200.593 141.155C200.854 141.244 201.135 141.288 201.435 141.288C201.785 141.288 202.099 141.231 202.377 141.118C202.655 141.002 202.876 140.842 203.038 140.638C203.201 140.431 203.282 140.19 203.282 139.914C203.282 139.663 203.212 139.458 203.071 139.301C202.931 139.143 202.746 139.015 202.517 138.916C202.288 138.818 202.041 138.732 201.775 138.658L200.844 138.392C200.253 138.222 199.785 137.979 199.44 137.664C199.095 137.349 198.923 136.937 198.923 136.427C198.923 136.003 199.038 135.634 199.267 135.319C199.498 135.001 199.808 134.755 200.198 134.58C200.589 134.403 201.026 134.314 201.509 134.314C201.996 134.314 202.43 134.401 202.809 134.576C203.188 134.749 203.489 134.985 203.71 135.285C203.934 135.586 204.053 135.927 204.065 136.309H203.178Z" fill="black"/>
<mask id="path-57-inside-19_481_6293" fill="white">
<path d="M224.328 122.314H285.328V153.651H224.328V122.314Z"/>
</mask>
<path d="M224.328 122.314H285.328V153.651H224.328V122.314Z" fill="#CC7D39"/>
<path d="M224.328 122.314V121.447H223.461V122.314H224.328ZM224.328 123.181H285.328V121.447H224.328V123.181ZM225.195 153.651V122.314H223.461V153.651H225.195Z" fill="#0D0D0C" mask="url(#path-57-inside-19_481_6293)"/>
<path d="M245.434 140.431V139.677L248.758 134.417H249.305V135.585H248.936L246.424 139.559V139.618H250.901V140.431H245.434ZM248.995 141.982V140.202V139.851V134.417H249.867V141.982H248.995ZM252.108 140.431V139.677L255.432 134.417H255.979V135.585H255.61L253.098 139.559V139.618H257.575V140.431H252.108ZM255.669 141.982V140.202V139.851V134.417H256.541V141.982H255.669ZM261.19 142.928V133.472H261.796V142.928H261.19ZM263.229 136.309C263.185 135.934 263.005 135.644 262.69 135.437C262.375 135.23 261.988 135.127 261.53 135.127C261.195 135.127 260.902 135.181 260.651 135.289C260.402 135.397 260.208 135.546 260.067 135.736C259.929 135.926 259.86 136.141 259.86 136.382C259.86 136.584 259.908 136.758 260.004 136.903C260.103 137.046 260.229 137.166 260.381 137.262C260.534 137.355 260.694 137.433 260.861 137.494C261.029 137.553 261.183 137.601 261.323 137.638L262.092 137.845C262.289 137.897 262.508 137.968 262.749 138.06C262.993 138.151 263.226 138.275 263.447 138.433C263.671 138.588 263.856 138.787 264.001 139.031C264.147 139.275 264.219 139.574 264.219 139.929C264.219 140.337 264.112 140.707 263.898 141.037C263.686 141.367 263.376 141.629 262.967 141.824C262.561 142.018 262.067 142.115 261.486 142.115C260.944 142.115 260.475 142.028 260.078 141.853C259.684 141.678 259.374 141.434 259.148 141.122C258.923 140.809 258.797 140.446 258.767 140.032H259.713C259.737 140.318 259.833 140.554 260.001 140.741C260.171 140.926 260.385 141.064 260.644 141.155C260.905 141.244 261.185 141.288 261.486 141.288C261.835 141.288 262.149 141.231 262.428 141.118C262.706 141.002 262.926 140.842 263.089 140.638C263.251 140.431 263.333 140.19 263.333 139.914C263.333 139.663 263.263 139.458 263.122 139.301C262.982 139.143 262.797 139.015 262.568 138.916C262.339 138.818 262.092 138.732 261.826 138.658L260.895 138.392C260.304 138.222 259.836 137.979 259.491 137.664C259.146 137.349 258.974 136.937 258.974 136.427C258.974 136.003 259.088 135.634 259.317 135.319C259.549 135.001 259.859 134.755 260.248 134.58C260.64 134.403 261.077 134.314 261.56 134.314C262.047 134.314 262.481 134.401 262.86 134.576C263.239 134.749 263.54 134.985 263.761 135.285C263.985 135.586 264.103 135.927 264.116 136.309H263.229Z" fill="black"/>
<mask id="path-60-inside-20_481_6293" fill="white">
<path d="M285.328 122.314H345.328V153.651H285.328V122.314Z"/>
</mask>
<path d="M285.328 122.314H345.328V153.651H285.328V122.314Z" fill="#CC7D39"/>
<path d="M285.328 122.314V121.447H284.461V122.314H285.328ZM285.328 123.181H345.328V121.447H285.328V123.181ZM286.195 153.651V122.314H284.461V153.651H286.195Z" fill="#0D0D0C" mask="url(#path-60-inside-20_481_6293)"/>
<path d="M305.934 140.431V139.677L309.258 134.417H309.805V135.585H309.436L306.924 139.559V139.618H311.401V140.431H305.934ZM309.495 141.982V140.202V139.851V134.417H310.367V141.982H309.495ZM315.253 142.086C314.696 142.086 314.222 141.934 313.831 141.632C313.439 141.326 313.14 140.884 312.933 140.305C312.726 139.724 312.623 139.022 312.623 138.2C312.623 137.382 312.726 136.684 312.933 136.105C313.142 135.524 313.443 135.081 313.834 134.776C314.228 134.468 314.701 134.314 315.253 134.314C315.804 134.314 316.276 134.468 316.667 134.776C317.061 135.081 317.362 135.524 317.569 136.105C317.778 136.684 317.883 137.382 317.883 138.2C317.883 139.022 317.779 139.724 317.572 140.305C317.366 140.884 317.066 141.326 316.675 141.632C316.283 141.934 315.809 142.086 315.253 142.086ZM315.253 141.273C315.804 141.273 316.233 141.007 316.538 140.475C316.844 139.943 316.996 139.185 316.996 138.2C316.996 137.545 316.926 136.987 316.786 136.527C316.648 136.066 316.448 135.715 316.187 135.474C315.929 135.232 315.617 135.112 315.253 135.112C314.706 135.112 314.279 135.381 313.971 135.921C313.663 136.458 313.509 137.217 313.509 138.2C313.509 138.855 313.578 139.411 313.716 139.87C313.854 140.328 314.052 140.676 314.311 140.915C314.572 141.154 314.886 141.273 315.253 141.273ZM321.518 142.928V133.472H322.123V142.928H321.518ZM323.557 136.309C323.512 135.934 323.332 135.644 323.017 135.437C322.702 135.23 322.315 135.127 321.857 135.127C321.522 135.127 321.229 135.181 320.978 135.289C320.73 135.397 320.535 135.546 320.395 135.736C320.257 135.926 320.188 136.141 320.188 136.382C320.188 136.584 320.236 136.758 320.332 136.903C320.43 137.046 320.556 137.166 320.709 137.262C320.861 137.355 321.021 137.433 321.189 137.494C321.356 137.553 321.51 137.601 321.651 137.638L322.419 137.845C322.616 137.897 322.835 137.968 323.076 138.06C323.32 138.151 323.553 138.275 323.775 138.433C323.999 138.588 324.183 138.787 324.329 139.031C324.474 139.275 324.547 139.574 324.547 139.929C324.547 140.337 324.439 140.707 324.225 141.037C324.013 141.367 323.703 141.629 323.294 141.824C322.888 142.018 322.394 142.115 321.813 142.115C321.271 142.115 320.802 142.028 320.406 141.853C320.012 141.678 319.701 141.434 319.475 141.122C319.251 140.809 319.124 140.446 319.094 140.032H320.04C320.065 140.318 320.161 140.554 320.328 140.741C320.498 140.926 320.712 141.064 320.971 141.155C321.232 141.244 321.513 141.288 321.813 141.288C322.163 141.288 322.477 141.231 322.755 141.118C323.033 141.002 323.254 140.842 323.416 140.638C323.579 140.431 323.66 140.19 323.66 139.914C323.66 139.663 323.59 139.458 323.449 139.301C323.309 139.143 323.124 139.015 322.895 138.916C322.666 138.818 322.419 138.732 322.153 138.658L321.222 138.392C320.631 138.222 320.163 137.979 319.818 137.664C319.474 137.349 319.301 136.937 319.301 136.427C319.301 136.003 319.416 135.634 319.645 135.319C319.876 135.001 320.187 134.755 320.576 134.58C320.967 134.403 321.404 134.314 321.887 134.314C322.375 134.314 322.808 134.401 323.187 134.576C323.566 134.749 323.867 134.985 324.088 135.285C324.313 135.586 324.431 135.927 324.443 136.309H323.557Z" fill="black"/>
</g>
</g>
<rect x="0.761542" y="37.074" width="345.133" height="116.143" rx="3.03392" stroke="#0D0D0C" stroke-width="0.866834"/>
<defs>
<clipPath id="clip0_481_6293">
<rect x="0.328125" y="36.6406" width="346" height="117.01" rx="3.46734" fill="white"/>
</clipPath>
<clipPath id="clip1_481_6293">
<rect width="346" height="23" fill="white" transform="translate(0.328125 36.6406)"/>
</clipPath>
<clipPath id="clip2_481_6293">
<rect width="23" height="61" fill="white" transform="translate(104.328 59.6406) rotate(-90)"/>
</clipPath>
<clipPath id="clip3_481_6293">
<rect width="23" height="59" fill="white" transform="translate(165.328 59.6406) rotate(-90)"/>
</clipPath>
<clipPath id="clip4_481_6293">
<rect width="23" height="61" fill="white" transform="translate(224.328 59.6406) rotate(-90)"/>
</clipPath>
<clipPath id="clip5_481_6293">
<rect width="23" height="60" fill="white" transform="translate(285.328 59.6406) rotate(-90)"/>
</clipPath>
<clipPath id="clip6_481_6293">
<rect width="346" height="31.3367" fill="white" transform="translate(0.328125 59.6406)"/>
</clipPath>
<clipPath id="clip7_481_6293">
<rect width="346" height="31.3367" fill="white" transform="translate(0.328125 90.9775)"/>
</clipPath>
<clipPath id="clip8_481_6293">
<rect width="346" height="31.3367" fill="white" transform="translate(0.328125 122.314)"/>
</clipPath>
</defs>
</svg>
