<svg width="347" height="99" viewBox="0 0 347 99" fill="none" xmlns="http://www.w3.org/2000/svg">
<path d="M8.92813 8.74812C8.16813 8.74812 7.50813 8.90146 6.94813 9.20812C6.40146 9.51479 5.95479 9.92812 5.60813 10.4481C5.26146 10.9548 5.00146 11.5348 4.82813 12.1881C4.66813 12.8415 4.58813 13.5081 4.58813 14.1881C4.58813 14.8681 4.66813 15.5348 4.82813 16.1881C5.00146 16.8415 5.26146 17.4281 5.60813 17.9481C5.95479 18.4548 6.40146 18.8615 6.94813 19.1681C7.50813 19.4748 8.16813 19.6281 8.92813 19.6281C9.68813 19.6281 10.3415 19.4748 10.8881 19.1681C11.4481 18.8615 11.9015 18.4548 12.2481 17.9481C12.5948 17.4281 12.8481 16.8415 13.0081 16.1881C13.1815 15.5348 13.2681 14.8681 13.2681 14.1881C13.2681 13.5081 13.1815 12.8415 13.0081 12.1881C12.8481 11.5348 12.5948 10.9548 12.2481 10.4481C11.9015 9.92812 11.4481 9.51479 10.8881 9.20812C10.3415 8.90146 9.68813 8.74812 8.92813 8.74812ZM8.92813 6.70812C9.99479 6.70812 10.9481 6.90812 11.7881 7.30812C12.6415 7.70812 13.3615 8.24812 13.9481 8.92812C14.5348 9.60812 14.9815 10.4015 15.2881 11.3081C15.6081 12.2148 15.7681 13.1748 15.7681 14.1881C15.7681 15.2148 15.6081 16.1815 15.2881 17.0881C14.9815 17.9948 14.5348 18.7881 13.9481 19.4681C13.3615 20.1481 12.6415 20.6881 11.7881 21.0881C10.9481 21.4748 9.99479 21.6681 8.92813 21.6681C7.86146 21.6681 6.90146 21.4748 6.04813 21.0881C5.20813 20.6881 4.49479 20.1481 3.90813 19.4681C3.32146 18.7881 2.86813 17.9948 2.54813 17.0881C2.24146 16.1815 2.08813 15.2148 2.08813 14.1881C2.08813 13.1748 2.24146 12.2148 2.54813 11.3081C2.86813 10.4015 3.32146 9.60812 3.90813 8.92812C4.49479 8.24812 5.20813 7.70812 6.04813 7.30812C6.90146 6.90812 7.86146 6.70812 8.92813 6.70812ZM17.7834 7.04812H20.0634V9.20812H17.7834V7.04812ZM17.7834 10.9881H20.0634V21.3281H17.7834V10.9881ZM22.6077 7.04812H24.8877V21.3281H22.6077V7.04812Z" fill="black"/>
<g filter="url(#filter0_d_481_6129)">
<path d="M52.4167 87.8525C52.9277 88.3763 53.1832 89.0406 53.1832 89.7944C53.1832 90.5481 52.9213 91.1677 52.4231 91.7043C51.9121 92.2536 51.2733 92.5283 50.526 92.5283H4.68165C3.96623 92.5283 3.33385 92.2473 2.82284 91.7107C2.29905 91.1741 2.03077 90.5098 2.03077 89.7561C2.03077 89.0023 2.30544 88.3444 2.83562 87.827C3.3594 87.3224 3.97901 87.0541 4.68804 87.0541H7.05148V68.1721H3.97901C3.26359 68.1721 2.63121 67.8911 2.11381 67.3545C1.59002 66.8179 1.32812 66.1536 1.32812 65.3999C1.32812 64.6461 1.59641 63.9882 2.12658 63.4708C2.65037 62.9662 3.27636 62.6979 3.97901 62.6979H7.05148V43.8287H4.68804C3.97262 43.8287 3.34024 43.5477 2.82923 43.0111C2.30544 42.4745 2.03716 41.8102 2.03716 41.0565C2.03716 40.3027 2.31183 39.6448 2.842 39.1274C3.36579 38.6228 3.9854 38.3545 4.69443 38.3545H50.5387C51.2733 38.3545 51.9121 38.6228 52.4231 39.1466C52.9341 39.6704 53.1896 40.3347 53.1896 41.0884C53.1896 41.8422 52.9277 42.4618 52.4295 42.9983C51.9185 43.5477 51.2797 43.8223 50.5323 43.8223H48.1689V62.7043H51.2478C51.9823 62.7043 52.6211 62.9726 53.1321 63.4964C53.6431 64.0201 53.8986 64.6845 53.8986 65.4382C53.8986 66.192 53.6368 66.8116 53.1385 67.3481C52.6275 67.8975 51.9887 68.1721 51.2414 68.1721H48.1625V87.0541H50.526C51.2605 87.0541 51.8993 87.3224 52.4103 87.8462L52.4167 87.8525Z" fill="#CC7C37"/>
<path d="M52.4167 87.8525C52.9277 88.3763 53.1832 89.0406 53.1832 89.7944C53.1832 90.5481 52.9213 91.1677 52.4231 91.7043C51.9121 92.2536 51.2733 92.5283 50.526 92.5283H4.68165C3.96623 92.5283 3.33385 92.2473 2.82284 91.7107C2.29905 91.1741 2.03077 90.5098 2.03077 89.7561C2.03077 89.0023 2.30544 88.3444 2.83562 87.827C3.3594 87.3224 3.97901 87.0541 4.68804 87.0541H7.05148V68.1721H3.97901C3.26359 68.1721 2.63121 67.8911 2.11381 67.3545C1.59002 66.8179 1.32812 66.1536 1.32812 65.3999C1.32812 64.6461 1.59641 63.9882 2.12658 63.4708C2.65037 62.9662 3.27636 62.6979 3.97901 62.6979H7.05148V43.8287H4.68804C3.97262 43.8287 3.34024 43.5477 2.82923 43.0111C2.30544 42.4745 2.03716 41.8102 2.03716 41.0565C2.03716 40.3027 2.31183 39.6448 2.842 39.1274C3.36579 38.6228 3.9854 38.3545 4.69443 38.3545H50.5387C51.2733 38.3545 51.9121 38.6228 52.4231 39.1466C52.9341 39.6704 53.1896 40.3347 53.1896 41.0884C53.1896 41.8422 52.9277 42.4618 52.4295 42.9983C51.9185 43.5477 51.2797 43.8223 50.5323 43.8223H48.1689V62.7043H51.2478C51.9823 62.7043 52.6211 62.9726 53.1321 63.4964C53.6431 64.0201 53.8986 64.6845 53.8986 65.4382C53.8986 66.192 53.6368 66.8116 53.1385 67.3481C52.6275 67.8975 51.9887 68.1721 51.2414 68.1721H48.1625V87.0541H50.526C51.2605 87.0541 51.8993 87.3224 52.4103 87.8462L52.4167 87.8525Z" stroke="black" stroke-width="2"/>
</g>
<g filter="url(#filter1_d_481_6129)">
<path d="M103.518 87.8525C104.029 88.3763 104.285 89.0406 104.285 89.7944C104.285 90.5481 104.023 91.1677 103.524 91.7043C103.013 92.2536 102.375 92.5283 101.627 92.5283H55.783C55.0676 92.5283 54.4352 92.2473 53.9242 91.7107C53.4004 91.1741 53.1321 90.5098 53.1321 89.7561C53.1321 89.0023 53.4068 88.3444 53.9369 87.827C54.4607 87.3224 55.0803 87.0541 55.7894 87.0541H58.1528V68.1721H55.0803C54.3649 68.1721 53.7325 67.8911 53.2151 67.3545C52.6913 66.8179 52.4294 66.1536 52.4294 65.3999C52.4294 64.6461 52.6977 63.9882 53.2279 63.4708C53.7517 62.9662 54.3777 62.6979 55.0803 62.6979H58.1528V43.8287H55.7894C55.0739 43.8287 54.4416 43.5477 53.9305 43.0111C53.4068 42.4745 53.1385 41.8102 53.1385 41.0565C53.1385 40.3027 53.4131 39.6448 53.9433 39.1274C54.4671 38.6228 55.0867 38.3545 55.7957 38.3545H101.64C102.375 38.3545 103.013 38.6228 103.524 39.1466C104.035 39.6704 104.291 40.3347 104.291 41.0884C104.291 41.8422 104.029 42.4618 103.531 42.9983C103.02 43.5477 102.381 43.8223 101.634 43.8223H99.2702V62.7043H102.349C103.084 62.7043 103.722 62.9726 104.233 63.4964C104.744 64.0201 105 64.6845 105 65.4382C105 66.192 104.738 66.8116 104.24 67.3481C103.729 67.8975 103.09 68.1721 102.343 68.1721H99.2638V87.0541H101.627C102.362 87.0541 103.001 87.3224 103.512 87.8462L103.518 87.8525Z" fill="#CC7C37"/>
<path d="M103.518 87.8525C104.029 88.3763 104.285 89.0406 104.285 89.7944C104.285 90.5481 104.023 91.1677 103.524 91.7043C103.013 92.2536 102.375 92.5283 101.627 92.5283H55.783C55.0676 92.5283 54.4352 92.2473 53.9242 91.7107C53.4004 91.1741 53.1321 90.5098 53.1321 89.7561C53.1321 89.0023 53.4068 88.3444 53.9369 87.827C54.4607 87.3224 55.0803 87.0541 55.7894 87.0541H58.1528V68.1721H55.0803C54.3649 68.1721 53.7325 67.8911 53.2151 67.3545C52.6913 66.8179 52.4294 66.1536 52.4294 65.3999C52.4294 64.6461 52.6977 63.9882 53.2279 63.4708C53.7517 62.9662 54.3777 62.6979 55.0803 62.6979H58.1528V43.8287H55.7894C55.0739 43.8287 54.4416 43.5477 53.9305 43.0111C53.4068 42.4745 53.1385 41.8102 53.1385 41.0565C53.1385 40.3027 53.4131 39.6448 53.9433 39.1274C54.4671 38.6228 55.0867 38.3545 55.7957 38.3545H101.64C102.375 38.3545 103.013 38.6228 103.524 39.1466C104.035 39.6704 104.291 40.3347 104.291 41.0884C104.291 41.8422 104.029 42.4618 103.531 42.9983C103.02 43.5477 102.381 43.8223 101.634 43.8223H99.2702V62.7043H102.349C103.084 62.7043 103.722 62.9726 104.233 63.4964C104.744 64.0201 105 64.6845 105 65.4382C105 66.192 104.738 66.8116 104.24 67.3481C103.729 67.8975 103.09 68.1721 102.343 68.1721H99.2638V87.0541H101.627C102.362 87.0541 103.001 87.3224 103.512 87.8462L103.518 87.8525Z" stroke="black" stroke-width="2"/>
</g>
<g filter="url(#filter2_d_481_6129)">
<path d="M82.9279 90.7258C83.5411 91.3543 83.8477 92.1515 83.8477 93.056C83.8477 93.9605 83.5334 94.704 82.9355 95.3479C82.3223 96.0071 81.5558 96.3367 80.659 96.3367H25.6458C24.7873 96.3367 24.0285 95.9994 23.4152 95.3556C22.7867 94.7117 22.4648 93.9145 22.4648 93.01C22.4648 92.1055 22.7944 91.316 23.4306 90.6951C24.0591 90.0896 24.8026 89.7676 25.6535 89.7676H28.4896V67.1093H24.8026C23.9441 67.1093 23.1853 66.772 22.5644 66.1281C21.9359 65.4843 21.6216 64.6871 21.6216 63.7826C21.6216 62.8781 21.9435 62.0886 22.5797 61.4677C23.2083 60.8622 23.9595 60.5402 24.8026 60.5402H28.4896V37.8972H25.6535C24.795 37.8972 24.0361 37.5599 23.4229 36.9161C22.7944 36.2722 22.4724 35.475 22.4724 34.5705C22.4724 33.666 22.802 32.8765 23.4382 32.2556C24.0668 31.6501 24.8103 31.3281 25.6611 31.3281H80.6743C81.5558 31.3281 82.3223 31.6501 82.9355 32.2786C83.5488 32.9072 83.8554 33.7043 83.8554 34.6088C83.8554 35.5133 83.5411 36.2569 82.9432 36.9007C82.33 37.5599 81.5635 37.8895 80.6666 37.8895H77.8305V60.5479H81.5252C82.4066 60.5479 83.1732 60.8698 83.7864 61.4984C84.3996 62.1269 84.7062 62.9241 84.7062 63.8286C84.7062 64.7331 84.3919 65.4766 83.7941 66.1205C83.1808 66.7797 82.4143 67.1093 81.5175 67.1093H77.8229V89.7676H80.659C81.5405 89.7676 82.307 90.0896 82.9202 90.7181L82.9279 90.7258Z" fill="#CC7C37"/>
<path d="M82.9279 90.7258C83.5411 91.3543 83.8477 92.1515 83.8477 93.056C83.8477 93.9605 83.5334 94.704 82.9355 95.3479C82.3223 96.0071 81.5558 96.3367 80.659 96.3367H25.6458C24.7873 96.3367 24.0285 95.9994 23.4152 95.3556C22.7867 94.7117 22.4648 93.9145 22.4648 93.01C22.4648 92.1055 22.7944 91.316 23.4306 90.6951C24.0591 90.0896 24.8026 89.7676 25.6535 89.7676H28.4896V67.1093H24.8026C23.9441 67.1093 23.1853 66.772 22.5644 66.1281C21.9359 65.4843 21.6216 64.6871 21.6216 63.7826C21.6216 62.8781 21.9435 62.0886 22.5797 61.4677C23.2083 60.8622 23.9595 60.5402 24.8026 60.5402H28.4896V37.8972H25.6535C24.795 37.8972 24.0361 37.5599 23.4229 36.9161C22.7944 36.2722 22.4724 35.475 22.4724 34.5705C22.4724 33.666 22.802 32.8765 23.4382 32.2556C24.0668 31.6501 24.8103 31.3281 25.6611 31.3281H80.6743C81.5558 31.3281 82.3223 31.6501 82.9355 32.2786C83.5488 32.9072 83.8554 33.7043 83.8554 34.6088C83.8554 35.5133 83.5411 36.2569 82.9432 36.9007C82.33 37.5599 81.5635 37.8895 80.6666 37.8895H77.8305V60.5479H81.5252C82.4066 60.5479 83.1732 60.8698 83.7864 61.4984C84.3996 62.1269 84.7062 62.9241 84.7062 63.8286C84.7062 64.7331 84.3919 65.4766 83.7941 66.1205C83.1808 66.7797 82.4143 67.1093 81.5175 67.1093H77.8229V89.7676H80.659C81.5405 89.7676 82.307 90.0896 82.9202 90.7181L82.9279 90.7258Z" stroke="black" stroke-width="2"/>
</g>
<g filter="url(#filter3_d_481_6129)">
<path d="M62.2625 66.2278C62.2625 68.719 61.3887 70.8039 59.618 72.5593C57.8474 74.3069 55.7088 75.1808 53.1639 75.1808C50.6191 75.1808 48.4728 74.3069 46.6945 72.5593C44.9162 70.8116 44.0347 68.7113 44.0347 66.2201C44.0347 64.2425 44.6019 62.5792 45.7133 61.1918C46.8631 59.7584 49.339 56.8686 53.1409 52.5071C56.9505 56.9222 59.4264 59.835 60.5838 61.2454C61.6876 62.5945 62.2625 64.2425 62.2625 66.2278Z" fill="#CC7C37"/>
<path d="M62.2625 66.2278C62.2625 68.719 61.3887 70.8039 59.618 72.5593C57.8474 74.3069 55.7088 75.1808 53.1639 75.1808C50.6191 75.1808 48.4728 74.3069 46.6945 72.5593C44.9162 70.8116 44.0347 68.7113 44.0347 66.2201C44.0347 64.2425 44.6019 62.5792 45.7133 61.1918C46.8631 59.7584 49.339 56.8686 53.1409 52.5071C56.9505 56.9222 59.4264 59.835 60.5838 61.2454C61.6876 62.5945 62.2625 64.2425 62.2625 66.2278Z" stroke="black" stroke-width="2"/>
</g>
<path d="M235.092 7.04812H237.732L244.252 17.5681H244.292V7.04812H246.672V21.3281H244.032L237.532 10.8281H237.472V21.3281H235.092V7.04812ZM257.965 19.0281C257.965 19.3081 257.999 19.5081 258.065 19.6281C258.145 19.7481 258.292 19.8081 258.505 19.8081C258.572 19.8081 258.652 19.8081 258.745 19.8081C258.839 19.8081 258.945 19.7948 259.065 19.7681V21.3481C258.985 21.3748 258.879 21.4015 258.745 21.4281C258.625 21.4681 258.499 21.5015 258.365 21.5281C258.232 21.5548 258.099 21.5748 257.965 21.5881C257.832 21.6015 257.719 21.6081 257.625 21.6081C257.159 21.6081 256.772 21.5148 256.465 21.3281C256.159 21.1415 255.959 20.8148 255.865 20.3481C255.412 20.7881 254.852 21.1081 254.185 21.3081C253.532 21.5081 252.899 21.6081 252.285 21.6081C251.819 21.6081 251.372 21.5415 250.945 21.4081C250.519 21.2881 250.139 21.1081 249.805 20.8681C249.485 20.6148 249.225 20.3015 249.025 19.9281C248.839 19.5415 248.745 19.0948 248.745 18.5881C248.745 17.9481 248.859 17.4281 249.085 17.0281C249.325 16.6281 249.632 16.3148 250.005 16.0881C250.392 15.8615 250.819 15.7015 251.285 15.6081C251.765 15.5015 252.245 15.4215 252.725 15.3681C253.139 15.2881 253.532 15.2348 253.905 15.2081C254.279 15.1681 254.605 15.1081 254.885 15.0281C255.179 14.9481 255.405 14.8281 255.565 14.6681C255.739 14.4948 255.825 14.2415 255.825 13.9081C255.825 13.6148 255.752 13.3748 255.605 13.1881C255.472 13.0015 255.299 12.8615 255.085 12.7681C254.885 12.6615 254.659 12.5948 254.405 12.5681C254.152 12.5281 253.912 12.5081 253.685 12.5081C253.045 12.5081 252.519 12.6415 252.105 12.9081C251.692 13.1748 251.459 13.5881 251.405 14.1481H249.125C249.165 13.4815 249.325 12.9281 249.605 12.4881C249.885 12.0481 250.239 11.6948 250.665 11.4281C251.105 11.1615 251.599 10.9748 252.145 10.8681C252.692 10.7615 253.252 10.7081 253.825 10.7081C254.332 10.7081 254.832 10.7615 255.325 10.8681C255.819 10.9748 256.259 11.1481 256.645 11.3881C257.045 11.6281 257.365 11.9415 257.605 12.3281C257.845 12.7015 257.965 13.1615 257.965 13.7081V19.0281ZM255.685 16.1481C255.339 16.3748 254.912 16.5148 254.405 16.5681C253.899 16.6081 253.392 16.6748 252.885 16.7681C252.645 16.8081 252.412 16.8681 252.185 16.9481C251.959 17.0148 251.759 17.1148 251.585 17.2481C251.412 17.3681 251.272 17.5348 251.165 17.7481C251.072 17.9481 251.025 18.1948 251.025 18.4881C251.025 18.7415 251.099 18.9548 251.245 19.1281C251.392 19.3015 251.565 19.4415 251.765 19.5481C251.979 19.6415 252.205 19.7081 252.445 19.7481C252.699 19.7881 252.925 19.8081 253.125 19.8081C253.379 19.8081 253.652 19.7748 253.945 19.7081C254.239 19.6415 254.512 19.5281 254.765 19.3681C255.032 19.2081 255.252 19.0081 255.425 18.7681C255.599 18.5148 255.685 18.2081 255.685 17.8481V16.1481ZM259.379 10.9881H261.099V7.88812H263.379V10.9881H265.439V12.6881H263.379V18.2081C263.379 18.4481 263.385 18.6548 263.399 18.8281C263.425 19.0015 263.472 19.1481 263.539 19.2681C263.619 19.3881 263.732 19.4815 263.879 19.5481C264.025 19.6015 264.225 19.6281 264.479 19.6281C264.639 19.6281 264.799 19.6281 264.959 19.6281C265.119 19.6148 265.279 19.5881 265.439 19.5481V21.3081C265.185 21.3348 264.939 21.3615 264.699 21.3881C264.459 21.4148 264.212 21.4281 263.959 21.4281C263.359 21.4281 262.872 21.3748 262.499 21.2681C262.139 21.1481 261.852 20.9815 261.639 20.7681C261.439 20.5415 261.299 20.2615 261.219 19.9281C261.152 19.5948 261.112 19.2148 261.099 18.7881V12.6881H259.379V10.9881ZM267.079 10.9881H269.219V12.9881H269.259C269.325 12.7081 269.452 12.4348 269.639 12.1681C269.839 11.9015 270.072 11.6615 270.339 11.4481C270.619 11.2215 270.925 11.0415 271.259 10.9081C271.592 10.7748 271.932 10.7081 272.279 10.7081C272.545 10.7081 272.725 10.7148 272.819 10.7281C272.925 10.7415 273.032 10.7548 273.139 10.7681V12.9681C272.979 12.9415 272.812 12.9215 272.639 12.9081C272.479 12.8815 272.319 12.8681 272.159 12.8681C271.772 12.8681 271.405 12.9481 271.059 13.1081C270.725 13.2548 270.432 13.4815 270.179 13.7881C269.925 14.0815 269.725 14.4481 269.579 14.8881C269.432 15.3281 269.359 15.8348 269.359 16.4081V21.3281H267.079V10.9881ZM283.19 21.3281H280.95V19.8881H280.91C280.63 20.4081 280.21 20.8281 279.65 21.1481C279.103 21.4548 278.543 21.6081 277.97 21.6081C276.61 21.6081 275.623 21.2748 275.01 20.6081C274.41 19.9281 274.11 18.9081 274.11 17.5481V10.9881H276.39V17.3281C276.39 18.2348 276.563 18.8748 276.91 19.2481C277.257 19.6215 277.743 19.8081 278.37 19.8081C278.85 19.8081 279.25 19.7348 279.57 19.5881C279.89 19.4415 280.15 19.2481 280.35 19.0081C280.55 18.7548 280.69 18.4548 280.77 18.1081C280.863 17.7615 280.91 17.3881 280.91 16.9881V10.9881H283.19V21.3281ZM285.594 10.9881H287.734V12.9881H287.774C287.841 12.7081 287.968 12.4348 288.154 12.1681C288.354 11.9015 288.588 11.6615 288.854 11.4481C289.134 11.2215 289.441 11.0415 289.774 10.9081C290.108 10.7748 290.448 10.7081 290.794 10.7081C291.061 10.7081 291.241 10.7148 291.334 10.7281C291.441 10.7415 291.548 10.7548 291.654 10.7681V12.9681C291.494 12.9415 291.328 12.9215 291.154 12.9081C290.994 12.8815 290.834 12.8681 290.674 12.8681C290.288 12.8681 289.921 12.9481 289.574 13.1081C289.241 13.2548 288.948 13.4815 288.694 13.7881C288.441 14.0815 288.241 14.4481 288.094 14.8881C287.948 15.3281 287.874 15.8348 287.874 16.4081V21.3281H285.594V10.9881ZM301.286 19.0281C301.286 19.3081 301.319 19.5081 301.386 19.6281C301.466 19.7481 301.612 19.8081 301.826 19.8081C301.892 19.8081 301.972 19.8081 302.066 19.8081C302.159 19.8081 302.266 19.7948 302.386 19.7681V21.3481C302.306 21.3748 302.199 21.4015 302.066 21.4281C301.946 21.4681 301.819 21.5015 301.686 21.5281C301.552 21.5548 301.419 21.5748 301.286 21.5881C301.152 21.6015 301.039 21.6081 300.946 21.6081C300.479 21.6081 300.092 21.5148 299.786 21.3281C299.479 21.1415 299.279 20.8148 299.186 20.3481C298.732 20.7881 298.172 21.1081 297.506 21.3081C296.852 21.5081 296.219 21.6081 295.606 21.6081C295.139 21.6081 294.692 21.5415 294.266 21.4081C293.839 21.2881 293.459 21.1081 293.126 20.8681C292.806 20.6148 292.546 20.3015 292.346 19.9281C292.159 19.5415 292.066 19.0948 292.066 18.5881C292.066 17.9481 292.179 17.4281 292.406 17.0281C292.646 16.6281 292.952 16.3148 293.326 16.0881C293.712 15.8615 294.139 15.7015 294.606 15.6081C295.086 15.5015 295.566 15.4215 296.046 15.3681C296.459 15.2881 296.852 15.2348 297.226 15.2081C297.599 15.1681 297.926 15.1081 298.206 15.0281C298.499 14.9481 298.726 14.8281 298.886 14.6681C299.059 14.4948 299.146 14.2415 299.146 13.9081C299.146 13.6148 299.072 13.3748 298.926 13.1881C298.792 13.0015 298.619 12.8615 298.406 12.7681C298.206 12.6615 297.979 12.5948 297.726 12.5681C297.472 12.5281 297.232 12.5081 297.006 12.5081C296.366 12.5081 295.839 12.6415 295.426 12.9081C295.012 13.1748 294.779 13.5881 294.726 14.1481H292.446C292.486 13.4815 292.646 12.9281 292.926 12.4881C293.206 12.0481 293.559 11.6948 293.986 11.4281C294.426 11.1615 294.919 10.9748 295.466 10.8681C296.012 10.7615 296.572 10.7081 297.146 10.7081C297.652 10.7081 298.152 10.7615 298.646 10.8681C299.139 10.9748 299.579 11.1481 299.966 11.3881C300.366 11.6281 300.686 11.9415 300.926 12.3281C301.166 12.7015 301.286 13.1615 301.286 13.7081V19.0281ZM299.006 16.1481C298.659 16.3748 298.232 16.5148 297.726 16.5681C297.219 16.6081 296.712 16.6748 296.206 16.7681C295.966 16.8081 295.732 16.8681 295.506 16.9481C295.279 17.0148 295.079 17.1148 294.906 17.2481C294.732 17.3681 294.592 17.5348 294.486 17.7481C294.392 17.9481 294.346 18.1948 294.346 18.4881C294.346 18.7415 294.419 18.9548 294.566 19.1281C294.712 19.3015 294.886 19.4415 295.086 19.5481C295.299 19.6415 295.526 19.7081 295.766 19.7481C296.019 19.7881 296.246 19.8081 296.446 19.8081C296.699 19.8081 296.972 19.7748 297.266 19.7081C297.559 19.6415 297.832 19.5281 298.086 19.3681C298.352 19.2081 298.572 19.0081 298.746 18.7681C298.919 18.5148 299.006 18.2081 299.006 17.8481V16.1481ZM303.799 7.04812H306.079V21.3281H303.799V7.04812ZM323.689 20.7881C323.689 22.3481 323.249 23.5081 322.369 24.2681C321.503 25.0415 320.249 25.4281 318.609 25.4281C318.089 25.4281 317.563 25.3748 317.029 25.2681C316.509 25.1615 316.029 24.9815 315.589 24.7281C315.163 24.4748 314.803 24.1415 314.509 23.7281C314.216 23.3148 314.043 22.8081 313.989 22.2081H316.269C316.336 22.5281 316.449 22.7881 316.609 22.9881C316.769 23.1881 316.956 23.3415 317.169 23.4481C317.396 23.5681 317.643 23.6415 317.909 23.6681C318.176 23.7081 318.456 23.7281 318.749 23.7281C319.669 23.7281 320.343 23.5015 320.769 23.0481C321.196 22.5948 321.409 21.9415 321.409 21.0881V19.5081H321.369C321.049 20.0815 320.609 20.5281 320.049 20.8481C319.503 21.1681 318.909 21.3281 318.269 21.3281C317.443 21.3281 316.736 21.1881 316.149 20.9081C315.576 20.6148 315.096 20.2215 314.709 19.7281C314.336 19.2215 314.063 18.6415 313.889 17.9881C313.716 17.3348 313.629 16.6348 313.629 15.8881C313.629 15.1948 313.736 14.5348 313.949 13.9081C314.163 13.2815 314.469 12.7348 314.869 12.2681C315.269 11.7881 315.756 11.4081 316.329 11.1281C316.916 10.8481 317.576 10.7081 318.309 10.7081C318.963 10.7081 319.563 10.8481 320.109 11.1281C320.656 11.3948 321.076 11.8215 321.369 12.4081H321.409V10.9881H323.689V20.7881ZM318.629 19.5281C319.136 19.5281 319.563 19.4281 319.909 19.2281C320.269 19.0148 320.556 18.7415 320.769 18.4081C320.996 18.0615 321.156 17.6748 321.249 17.2481C321.356 16.8081 321.409 16.3681 321.409 15.9281C321.409 15.4881 321.356 15.0615 321.249 14.6481C321.143 14.2348 320.976 13.8681 320.749 13.5481C320.536 13.2281 320.249 12.9748 319.889 12.7881C319.543 12.6015 319.123 12.5081 318.629 12.5081C318.123 12.5081 317.696 12.6148 317.349 12.8281C317.003 13.0415 316.723 13.3215 316.509 13.6681C316.296 14.0015 316.143 14.3881 316.049 14.8281C315.956 15.2548 315.909 15.6815 315.909 16.1081C315.909 16.5348 315.963 16.9548 316.069 17.3681C316.176 17.7681 316.336 18.1281 316.549 18.4481C316.776 18.7681 317.056 19.0281 317.389 19.2281C317.736 19.4281 318.149 19.5281 318.629 19.5281ZM334.645 19.0281C334.645 19.3081 334.678 19.5081 334.745 19.6281C334.825 19.7481 334.972 19.8081 335.185 19.8081C335.252 19.8081 335.332 19.8081 335.425 19.8081C335.518 19.8081 335.625 19.7948 335.745 19.7681V21.3481C335.665 21.3748 335.558 21.4015 335.425 21.4281C335.305 21.4681 335.178 21.5015 335.045 21.5281C334.912 21.5548 334.778 21.5748 334.645 21.5881C334.512 21.6015 334.398 21.6081 334.305 21.6081C333.838 21.6081 333.452 21.5148 333.145 21.3281C332.838 21.1415 332.638 20.8148 332.545 20.3481C332.092 20.7881 331.532 21.1081 330.865 21.3081C330.212 21.5081 329.578 21.6081 328.965 21.6081C328.498 21.6081 328.052 21.5415 327.625 21.4081C327.198 21.2881 326.818 21.1081 326.485 20.8681C326.165 20.6148 325.905 20.3015 325.705 19.9281C325.518 19.5415 325.425 19.0948 325.425 18.5881C325.425 17.9481 325.538 17.4281 325.765 17.0281C326.005 16.6281 326.312 16.3148 326.685 16.0881C327.072 15.8615 327.498 15.7015 327.965 15.6081C328.445 15.5015 328.925 15.4215 329.405 15.3681C329.818 15.2881 330.212 15.2348 330.585 15.2081C330.958 15.1681 331.285 15.1081 331.565 15.0281C331.858 14.9481 332.085 14.8281 332.245 14.6681C332.418 14.4948 332.505 14.2415 332.505 13.9081C332.505 13.6148 332.432 13.3748 332.285 13.1881C332.152 13.0015 331.978 12.8615 331.765 12.7681C331.565 12.6615 331.338 12.5948 331.085 12.5681C330.832 12.5281 330.592 12.5081 330.365 12.5081C329.725 12.5081 329.198 12.6415 328.785 12.9081C328.372 13.1748 328.138 13.5881 328.085 14.1481H325.805C325.845 13.4815 326.005 12.9281 326.285 12.4881C326.565 12.0481 326.918 11.6948 327.345 11.4281C327.785 11.1615 328.278 10.9748 328.825 10.8681C329.372 10.7615 329.932 10.7081 330.505 10.7081C331.012 10.7081 331.512 10.7615 332.005 10.8681C332.498 10.9748 332.938 11.1481 333.325 11.3881C333.725 11.6281 334.045 11.9415 334.285 12.3281C334.525 12.7015 334.645 13.1615 334.645 13.7081V19.0281ZM332.365 16.1481C332.018 16.3748 331.592 16.5148 331.085 16.5681C330.578 16.6081 330.072 16.6748 329.565 16.7681C329.325 16.8081 329.092 16.8681 328.865 16.9481C328.638 17.0148 328.438 17.1148 328.265 17.2481C328.092 17.3681 327.952 17.5348 327.845 17.7481C327.752 17.9481 327.705 18.1948 327.705 18.4881C327.705 18.7415 327.778 18.9548 327.925 19.1281C328.072 19.3015 328.245 19.4415 328.445 19.5481C328.658 19.6415 328.885 19.7081 329.125 19.7481C329.378 19.7881 329.605 19.8081 329.805 19.8081C330.058 19.8081 330.332 19.7748 330.625 19.7081C330.918 19.6415 331.192 19.5281 331.445 19.3681C331.712 19.2081 331.932 19.0081 332.105 18.7681C332.278 18.5148 332.365 18.2081 332.365 17.8481V16.1481ZM338.818 18.0081C338.885 18.6748 339.138 19.1415 339.578 19.4081C340.018 19.6748 340.545 19.8081 341.158 19.8081C341.372 19.8081 341.612 19.7948 341.878 19.7681C342.158 19.7281 342.418 19.6615 342.658 19.5681C342.898 19.4748 343.092 19.3415 343.238 19.1681C343.398 18.9815 343.472 18.7415 343.458 18.4481C343.445 18.1548 343.338 17.9148 343.138 17.7281C342.938 17.5415 342.678 17.3948 342.358 17.2881C342.052 17.1681 341.698 17.0681 341.298 16.9881C340.898 16.9081 340.492 16.8215 340.078 16.7281C339.652 16.6348 339.238 16.5215 338.838 16.3881C338.452 16.2548 338.098 16.0748 337.778 15.8481C337.472 15.6215 337.225 15.3348 337.038 14.9881C336.852 14.6281 336.758 14.1881 336.758 13.6681C336.758 13.1081 336.892 12.6415 337.158 12.2681C337.438 11.8815 337.785 11.5748 338.198 11.3481C338.625 11.1081 339.092 10.9415 339.598 10.8481C340.118 10.7548 340.612 10.7081 341.078 10.7081C341.612 10.7081 342.118 10.7681 342.598 10.8881C343.092 10.9948 343.532 11.1748 343.918 11.4281C344.318 11.6815 344.645 12.0148 344.898 12.4281C345.165 12.8281 345.332 13.3148 345.398 13.8881H343.018C342.912 13.3415 342.658 12.9748 342.258 12.7881C341.872 12.6015 341.425 12.5081 340.918 12.5081C340.758 12.5081 340.565 12.5215 340.338 12.5481C340.125 12.5748 339.918 12.6281 339.718 12.7081C339.532 12.7748 339.372 12.8815 339.238 13.0281C339.105 13.1615 339.038 13.3415 339.038 13.5681C339.038 13.8481 339.132 14.0748 339.318 14.2481C339.518 14.4215 339.772 14.5681 340.078 14.6881C340.398 14.7948 340.758 14.8881 341.158 14.9681C341.558 15.0481 341.972 15.1348 342.398 15.2281C342.812 15.3215 343.218 15.4348 343.618 15.5681C344.018 15.7015 344.372 15.8815 344.678 16.1081C344.998 16.3348 345.252 16.6215 345.438 16.9681C345.638 17.3148 345.738 17.7415 345.738 18.2481C345.738 18.8615 345.598 19.3815 345.318 19.8081C345.038 20.2348 344.672 20.5815 344.218 20.8481C343.778 21.1148 343.285 21.3081 342.738 21.4281C342.192 21.5481 341.652 21.6081 341.118 21.6081C340.465 21.6081 339.858 21.5348 339.298 21.3881C338.752 21.2415 338.272 21.0215 337.858 20.7281C337.458 20.4215 337.138 20.0481 336.898 19.6081C336.672 19.1548 336.552 18.6215 336.538 18.0081H338.818Z" fill="black"/>
<g filter="url(#filter4_d_481_6129)">
<path d="M274.802 55.9546V79.6897C274.802 83.4524 272.067 86.6039 268.387 87.4252V90.6786C268.387 92.3276 266.99 93.6646 265.273 93.6646H243.201C241.484 93.6646 240.086 92.3276 240.086 90.6786V87.4252C236.413 86.6103 233.672 83.4587 233.672 79.6897V55.9546C233.672 51.568 237.385 48.0154 241.97 48.0154H266.504C271.089 48.0154 274.802 51.568 274.802 55.9546Z" fill="#CC7D39"/>
<path d="M274.802 55.9546V79.6897C274.802 83.4524 272.067 86.6039 268.387 87.4252V90.6786C268.387 92.3276 266.99 93.6646 265.273 93.6646H243.201C241.484 93.6646 240.086 92.3276 240.086 90.6786V87.4252C236.413 86.6103 233.672 83.4587 233.672 79.6897V55.9546C233.672 51.568 237.385 48.0154 241.97 48.0154H266.504C271.089 48.0154 274.802 51.568 274.802 55.9546Z" stroke="#1D1D1B" stroke-width="2" stroke-miterlimit="10" stroke-linecap="round"/>
</g>
<path d="M274.802 55.9481V79.6831C274.802 83.4458 272.067 86.5973 268.387 87.4186C267.782 87.5523 267.149 87.6223 266.504 87.6223H241.97C241.324 87.6223 240.692 87.5523 240.086 87.4186C236.413 86.6037 233.672 83.4522 233.672 79.6831V55.9481C233.672 51.5614 237.385 48.0088 241.97 48.0088H266.504C271.089 48.0088 274.802 51.5614 274.802 55.9481Z" stroke="#1D1D1B" stroke-width="2" stroke-miterlimit="10" stroke-linecap="round"/>
<path d="M268.387 87.4187V90.6784C268.387 92.3274 266.99 93.6644 265.273 93.6644H243.201C241.484 93.6644 240.086 92.3274 240.086 90.6784V87.4187C240.692 87.5524 241.324 87.6224 241.97 87.6224H266.504C267.149 87.6224 267.782 87.5524 268.387 87.4187Z" stroke="#1D1D1B" stroke-width="2" stroke-miterlimit="10" stroke-linecap="round"/>
<path d="M266.497 39.3694H241.969V48.009H266.497V39.3694Z" stroke="#1D1D1B" stroke-width="2" stroke-miterlimit="10" stroke-linecap="round"/>
<path d="M271.348 39.3694H237.125" stroke="#1D1D1B" stroke-width="2" stroke-miterlimit="10" stroke-linecap="round"/>
<path d="M233.672 63.8618H274.802" stroke="#1D1D1B" stroke-width="2" stroke-miterlimit="10" stroke-linecap="round"/>
<g filter="url(#filter5_d_481_6129)">
<path d="M317.988 55.9546V79.6897C317.988 83.4524 315.253 86.6039 311.574 87.4252V90.6786C311.574 92.3276 310.176 93.6646 308.459 93.6646H286.387C284.67 93.6646 283.273 92.3276 283.273 90.6786V87.4252C279.6 86.6103 276.858 83.4587 276.858 79.6897V55.9546C276.858 51.568 280.571 48.0154 285.156 48.0154H309.69C314.275 48.0154 317.988 51.568 317.988 55.9546Z" fill="#CC7D39"/>
<path d="M317.988 55.9546V79.6897C317.988 83.4524 315.253 86.6039 311.574 87.4252V90.6786C311.574 92.3276 310.176 93.6646 308.459 93.6646H286.387C284.67 93.6646 283.273 92.3276 283.273 90.6786V87.4252C279.6 86.6103 276.858 83.4587 276.858 79.6897V55.9546C276.858 51.568 280.571 48.0154 285.156 48.0154H309.69C314.275 48.0154 317.988 51.568 317.988 55.9546Z" stroke="#1D1D1B" stroke-width="2" stroke-miterlimit="10" stroke-linecap="round"/>
</g>
<path d="M317.988 55.9481V79.6831C317.988 83.4458 315.253 86.5973 311.574 87.4186C310.968 87.5523 310.336 87.6223 309.69 87.6223H285.156C284.511 87.6223 283.878 87.5523 283.273 87.4186C279.6 86.6037 276.858 83.4522 276.858 79.6831V55.9481C276.858 51.5614 280.571 48.0088 285.156 48.0088H309.69C314.275 48.0088 317.988 51.5614 317.988 55.9481Z" stroke="#1D1D1B" stroke-width="2" stroke-miterlimit="10" stroke-linecap="round"/>
<path d="M311.574 87.4187V90.6784C311.574 92.3274 310.176 93.6644 308.459 93.6644H286.387C284.67 93.6644 283.273 92.3274 283.273 90.6784V87.4187C283.878 87.5524 284.511 87.6224 285.156 87.6224H309.691C310.336 87.6224 310.968 87.5524 311.574 87.4187Z" stroke="#1D1D1B" stroke-width="2" stroke-miterlimit="10" stroke-linecap="round"/>
<path d="M309.684 39.3694H285.156V48.009H309.684V39.3694Z" stroke="#1D1D1B" stroke-width="2" stroke-miterlimit="10" stroke-linecap="round"/>
<path d="M314.535 39.3694H280.312" stroke="#1D1D1B" stroke-width="2" stroke-miterlimit="10" stroke-linecap="round"/>
<path d="M276.858 63.8618H317.988" stroke="#1D1D1B" stroke-width="2" stroke-miterlimit="10" stroke-linecap="round"/>
<g filter="url(#filter6_d_481_6129)">
<path d="M300.508 51.2305V79.7125C300.508 84.2278 297.226 88.0096 292.81 88.9951V92.8992C292.81 94.878 291.134 96.4824 289.073 96.4824H262.587C260.526 96.4824 258.85 94.878 258.85 92.8992V88.9951C254.442 88.0172 251.152 84.2354 251.152 79.7125V51.2305C251.152 45.9665 255.608 41.7034 261.109 41.7034H290.551C296.052 41.7034 300.508 45.9665 300.508 51.2305Z" fill="#CC7D39"/>
<path d="M300.508 51.2305V79.7125C300.508 84.2278 297.226 88.0096 292.81 88.9951V92.8992C292.81 94.878 291.134 96.4824 289.073 96.4824H262.587C260.526 96.4824 258.85 94.878 258.85 92.8992V88.9951C254.442 88.0172 251.152 84.2354 251.152 79.7125V51.2305C251.152 45.9665 255.608 41.7034 261.109 41.7034H290.551C296.052 41.7034 300.508 45.9665 300.508 51.2305Z" stroke="#1D1D1B" stroke-width="2" stroke-miterlimit="10" stroke-linecap="round"/>
</g>
<path d="M300.508 51.2227V79.7047C300.508 84.22 297.226 88.0018 292.811 88.9873C292.084 89.1478 291.325 89.2318 290.551 89.2318H261.11C260.335 89.2318 259.576 89.1478 258.85 88.9873C254.442 88.0094 251.152 84.2276 251.152 79.7047V51.2227C251.152 45.9587 255.608 41.6956 261.11 41.6956H290.551C296.053 41.6956 300.508 45.9587 300.508 51.2227Z" stroke="#1D1D1B" stroke-width="2" stroke-miterlimit="10" stroke-linecap="round"/>
<path d="M292.81 88.9873V92.899C292.81 94.8778 291.134 96.4822 289.073 96.4822H262.587C260.526 96.4822 258.85 94.8778 258.85 92.899V88.9873C259.576 89.1477 260.335 89.2318 261.109 89.2318H290.551C291.325 89.2318 292.084 89.1477 292.81 88.9873Z" stroke="#1D1D1B" stroke-width="2" stroke-miterlimit="10" stroke-linecap="round"/>
<path d="M290.543 31.3281H261.11V41.6956H290.543V31.3281Z" fill="#CC7D39" stroke="#1D1D1B" stroke-width="2" stroke-miterlimit="10" stroke-linecap="round"/>
<path d="M296.364 31.3281H255.296" stroke="#1D1D1B" stroke-width="2" stroke-miterlimit="10" stroke-linecap="round"/>
<path d="M275.834 41.6956V36.5081" stroke="#1D1D1B" stroke-width="2" stroke-miterlimit="10" stroke-linecap="round"/>
<path d="M279.14 36.5081H272.52" stroke="#1D1D1B" stroke-width="2" stroke-miterlimit="10" stroke-linecap="round"/>
<path d="M251.152 60.7192H300.508" stroke="#1D1D1B" stroke-width="2" stroke-miterlimit="10" stroke-linecap="round"/>
<defs>
<filter id="filter0_d_481_6129" x="0.328125" y="37.3545" width="55.5706" height="57.1738" filterUnits="userSpaceOnUse" color-interpolation-filters="sRGB">
<feFlood flood-opacity="0" result="BackgroundImageFix"/>
<feColorMatrix in="SourceAlpha" type="matrix" values="0 0 0 0 0 0 0 0 0 0 0 0 0 0 0 0 0 0 127 0" result="hardAlpha"/>
<feOffset dx="1" dy="1"/>
<feComposite in2="hardAlpha" operator="out"/>
<feColorMatrix type="matrix" values="0 0 0 0 0 0 0 0 0 0 0 0 0 0 0 0 0 0 1 0"/>
<feBlend mode="normal" in2="BackgroundImageFix" result="effect1_dropShadow_481_6129"/>
<feBlend mode="normal" in="SourceGraphic" in2="effect1_dropShadow_481_6129" result="shape"/>
</filter>
<filter id="filter1_d_481_6129" x="51.4294" y="37.3545" width="55.5706" height="57.1738" filterUnits="userSpaceOnUse" color-interpolation-filters="sRGB">
<feFlood flood-opacity="0" result="BackgroundImageFix"/>
<feColorMatrix in="SourceAlpha" type="matrix" values="0 0 0 0 0 0 0 0 0 0 0 0 0 0 0 0 0 0 127 0" result="hardAlpha"/>
<feOffset dx="1" dy="1"/>
<feComposite in2="hardAlpha" operator="out"/>
<feColorMatrix type="matrix" values="0 0 0 0 0 0 0 0 0 0 0 0 0 0 0 0 0 0 1 0"/>
<feBlend mode="normal" in2="BackgroundImageFix" result="effect1_dropShadow_481_6129"/>
<feBlend mode="normal" in="SourceGraphic" in2="effect1_dropShadow_481_6129" result="shape"/>
</filter>
<filter id="filter2_d_481_6129" x="20.6216" y="30.3281" width="66.2847" height="68.2085" filterUnits="userSpaceOnUse" color-interpolation-filters="sRGB">
<feFlood flood-opacity="0" result="BackgroundImageFix"/>
<feColorMatrix in="SourceAlpha" type="matrix" values="0 0 0 0 0 0 0 0 0 0 0 0 0 0 0 0 0 0 127 0" result="hardAlpha"/>
<feOffset dx="1.2" dy="1.2"/>
<feComposite in2="hardAlpha" operator="out"/>
<feColorMatrix type="matrix" values="0 0 0 0 0 0 0 0 0 0 0 0 0 0 0 0 0 0 1 0"/>
<feBlend mode="normal" in2="BackgroundImageFix" result="effect1_dropShadow_481_6129"/>
<feBlend mode="normal" in="SourceGraphic" in2="effect1_dropShadow_481_6129" result="shape"/>
</filter>
<filter id="filter3_d_481_6129" x="43.0347" y="50.9807" width="21.4278" height="26.4" filterUnits="userSpaceOnUse" color-interpolation-filters="sRGB">
<feFlood flood-opacity="0" result="BackgroundImageFix"/>
<feColorMatrix in="SourceAlpha" type="matrix" values="0 0 0 0 0 0 0 0 0 0 0 0 0 0 0 0 0 0 127 0" result="hardAlpha"/>
<feOffset dx="1.2" dy="1.2"/>
<feComposite in2="hardAlpha" operator="out"/>
<feColorMatrix type="matrix" values="0 0 0 0 0 0 0 0 0 0 0 0 0 0 0 0 0 0 1 0"/>
<feBlend mode="normal" in2="BackgroundImageFix" result="effect1_dropShadow_481_6129"/>
<feBlend mode="normal" in="SourceGraphic" in2="effect1_dropShadow_481_6129" result="shape"/>
</filter>
<filter id="filter4_d_481_6129" x="232.672" y="47.0154" width="44.1301" height="48.6492" filterUnits="userSpaceOnUse" color-interpolation-filters="sRGB">
<feFlood flood-opacity="0" result="BackgroundImageFix"/>
<feColorMatrix in="SourceAlpha" type="matrix" values="0 0 0 0 0 0 0 0 0 0 0 0 0 0 0 0 0 0 127 0" result="hardAlpha"/>
<feOffset dx="1" dy="1"/>
<feComposite in2="hardAlpha" operator="out"/>
<feColorMatrix type="matrix" values="0 0 0 0 0 0 0 0 0 0 0 0 0 0 0 0 0 0 1 0"/>
<feBlend mode="normal" in2="BackgroundImageFix" result="effect1_dropShadow_481_6129"/>
<feBlend mode="normal" in="SourceGraphic" in2="effect1_dropShadow_481_6129" result="shape"/>
</filter>
<filter id="filter5_d_481_6129" x="275.858" y="47.0154" width="44.1301" height="48.6492" filterUnits="userSpaceOnUse" color-interpolation-filters="sRGB">
<feFlood flood-opacity="0" result="BackgroundImageFix"/>
<feColorMatrix in="SourceAlpha" type="matrix" values="0 0 0 0 0 0 0 0 0 0 0 0 0 0 0 0 0 0 127 0" result="hardAlpha"/>
<feOffset dx="1" dy="1"/>
<feComposite in2="hardAlpha" operator="out"/>
<feColorMatrix type="matrix" values="0 0 0 0 0 0 0 0 0 0 0 0 0 0 0 0 0 0 1 0"/>
<feBlend mode="normal" in2="BackgroundImageFix" result="effect1_dropShadow_481_6129"/>
<feBlend mode="normal" in="SourceGraphic" in2="effect1_dropShadow_481_6129" result="shape"/>
</filter>
<filter id="filter6_d_481_6129" x="250.152" y="40.7034" width="52.5562" height="57.9791" filterUnits="userSpaceOnUse" color-interpolation-filters="sRGB">
<feFlood flood-opacity="0" result="BackgroundImageFix"/>
<feColorMatrix in="SourceAlpha" type="matrix" values="0 0 0 0 0 0 0 0 0 0 0 0 0 0 0 0 0 0 127 0" result="hardAlpha"/>
<feOffset dx="1.2" dy="1.2"/>
<feComposite in2="hardAlpha" operator="out"/>
<feColorMatrix type="matrix" values="0 0 0 0 0 0 0 0 0 0 0 0 0 0 0 0 0 0 1 0"/>
<feBlend mode="normal" in2="BackgroundImageFix" result="effect1_dropShadow_481_6129"/>
<feBlend mode="normal" in="SourceGraphic" in2="effect1_dropShadow_481_6129" result="shape"/>
</filter>
</defs>
</svg>
