<svg width="347" height="154" viewBox="0 0 347 154" fill="none" xmlns="http://www.w3.org/2000/svg">
<path d="M7.92813 9.05086C7.16813 9.05086 6.50813 9.20419 5.94813 9.51086C5.40146 9.81753 4.95479 10.2309 4.60813 10.7509C4.26146 11.2575 4.00146 11.8375 3.82813 12.4909C3.66813 13.1442 3.58813 13.8109 3.58813 14.4909C3.58813 15.1709 3.66813 15.8375 3.82813 16.4909C4.00146 17.1442 4.26146 17.7309 4.60813 18.2509C4.95479 18.7575 5.40146 19.1642 5.94813 19.4709C6.50813 19.7775 7.16813 19.9309 7.92813 19.9309C8.68813 19.9309 9.34146 19.7775 9.88813 19.4709C10.4481 19.1642 10.9015 18.7575 11.2481 18.2509C11.5948 17.7309 11.8481 17.1442 12.0081 16.4909C12.1815 15.8375 12.2681 15.1709 12.2681 14.4909C12.2681 13.8109 12.1815 13.1442 12.0081 12.4909C11.8481 11.8375 11.5948 11.2575 11.2481 10.7509C10.9015 10.2309 10.4481 9.81753 9.88813 9.51086C9.34146 9.20419 8.68813 9.05086 7.92813 9.05086ZM7.92813 7.01086C8.99479 7.01086 9.94813 7.21086 10.7881 7.61086C11.6415 8.01086 12.3615 8.55086 12.9481 9.23086C13.5348 9.91086 13.9815 10.7042 14.2881 11.6109C14.6081 12.5175 14.7681 13.4775 14.7681 14.4909C14.7681 15.5175 14.6081 16.4842 14.2881 17.3909C13.9815 18.2975 13.5348 19.0909 12.9481 19.7709C12.3615 20.4509 11.6415 20.9909 10.7881 21.3909C9.94813 21.7775 8.99479 21.9709 7.92813 21.9709C6.86146 21.9709 5.90146 21.7775 5.04813 21.3909C4.20813 20.9909 3.49479 20.4509 2.90813 19.7709C2.32146 19.0909 1.86813 18.2975 1.54813 17.3909C1.24146 16.4842 1.08813 15.5175 1.08813 14.4909C1.08813 13.4775 1.24146 12.5175 1.54813 11.6109C1.86813 10.7042 2.32146 9.91086 2.90813 9.23086C3.49479 8.55086 4.20813 8.01086 5.04813 7.61086C5.90146 7.21086 6.86146 7.01086 7.92813 7.01086ZM16.7834 7.35086H19.0634V9.51086H16.7834V7.35086ZM16.7834 11.2909H19.0634V21.6309H16.7834V11.2909ZM21.6077 7.35086H23.8877V21.6309H21.6077V7.35086Z" fill="black"/>
<g clip-path="url(#clip0_481_6226)">
<g clip-path="url(#clip1_481_6226)">
<rect width="346" height="23" transform="translate(0.328125 36.6309)" fill="#C36A1D"/>
<mask id="path-4-inside-1_481_6226" fill="white">
<path d="M0.328125 36.6309H104.328V59.6309H0.328125V36.6309Z"/>
</mask>
<path d="M0.328125 36.6309H104.328V59.6309H0.328125V36.6309Z" fill="#C36A1D"/>
<path d="M0.328125 36.6309V35.764H-0.538709V36.6309H0.328125ZM0.328125 37.4977H104.328V35.764H0.328125V37.4977ZM1.19496 59.6309V36.6309H-0.538709V59.6309H1.19496Z" fill="#0D0D0C" mask="url(#path-4-inside-1_481_6226)"/>
<mask id="path-6-inside-2_481_6226" fill="white">
<path d="M104.328 36.6309H165.328V59.6309H104.328V36.6309Z"/>
</mask>
<path d="M104.328 36.6309H165.328V59.6309H104.328V36.6309Z" fill="#C36A1D"/>
<path d="M104.328 36.6309V35.764H103.461V36.6309H104.328ZM104.328 37.4977H165.328V35.764H104.328V37.4977ZM105.195 59.6309V36.6309H103.461V59.6309H105.195Z" fill="#0D0D0C" mask="url(#path-6-inside-2_481_6226)"/>
<g clip-path="url(#clip2_481_6226)">
<path d="M125.951 54.2319C125.731 53.8799 125.522 53.5169 125.324 53.1429C125.133 52.7689 124.965 52.3765 124.818 51.9659C124.679 51.5479 124.569 51.1079 124.488 50.6459C124.407 50.1839 124.367 49.6889 124.367 49.1609C124.367 48.2735 124.503 47.4009 124.774 46.5429C125.053 45.6849 125.445 44.8672 125.951 44.0899H126.974C126.534 44.8819 126.197 45.6959 125.962 46.5319C125.735 47.3605 125.621 48.2369 125.621 49.1609C125.621 50.0849 125.731 50.9649 125.951 51.8009C126.171 52.6369 126.512 53.4472 126.974 54.2319H125.951ZM133.028 46.7739C132.969 46.5465 132.888 46.3375 132.786 46.1469C132.683 45.9562 132.551 45.7912 132.39 45.6519C132.228 45.5125 132.038 45.4062 131.818 45.3329C131.605 45.2522 131.356 45.2119 131.07 45.2119C130.652 45.2119 130.289 45.2962 129.981 45.4649C129.68 45.6335 129.434 45.8609 129.244 46.1469C129.053 46.4255 128.91 46.7445 128.815 47.1039C128.727 47.4632 128.683 47.8299 128.683 48.2039C128.683 48.5779 128.727 48.9445 128.815 49.3039C128.91 49.6632 129.053 49.9859 129.244 50.2719C129.434 50.5505 129.68 50.7742 129.981 50.9429C130.289 51.1115 130.652 51.1959 131.07 51.1959C131.378 51.1959 131.649 51.1445 131.884 51.0419C132.118 50.9319 132.32 50.7852 132.489 50.6019C132.657 50.4112 132.789 50.1912 132.885 49.9419C132.98 49.6925 133.042 49.4249 133.072 49.1389H134.414C134.384 49.6082 134.282 50.0372 134.106 50.4259C133.937 50.8145 133.706 51.1519 133.413 51.4379C133.119 51.7165 132.775 51.9329 132.379 52.0869C131.983 52.2409 131.546 52.3179 131.07 52.3179C130.483 52.3179 129.955 52.2115 129.486 51.9989C129.024 51.7789 128.631 51.4819 128.309 51.1079C127.986 50.7339 127.737 50.2975 127.561 49.7989C127.392 49.3002 127.308 48.7685 127.308 48.2039C127.308 47.6465 127.392 47.1185 127.561 46.6199C127.737 46.1212 127.986 45.6849 128.309 45.3109C128.631 44.9369 129.024 44.6399 129.486 44.4199C129.955 44.1999 130.483 44.0899 131.07 44.0899C131.51 44.0899 131.924 44.1522 132.313 44.2769C132.701 44.3942 133.042 44.5702 133.336 44.8049C133.636 45.0322 133.878 45.3109 134.062 45.6409C134.245 45.9709 134.359 46.3485 134.403 46.7739H133.028ZM137.765 44.2769H139.228L142.253 52.1309H140.779L140.042 50.0519H136.907L136.17 52.1309H134.751L137.765 44.2769ZM137.281 49.0069H139.679L138.502 45.6299H138.469L137.281 49.0069ZM143.1 44.0899C143.32 44.4419 143.525 44.8085 143.716 45.1899C143.907 45.5639 144.072 45.9599 144.211 46.3779C144.358 46.7885 144.471 47.2249 144.552 47.6869C144.64 48.1489 144.684 48.6439 144.684 49.1719C144.684 50.0592 144.545 50.9319 144.266 51.7899C143.995 52.6479 143.606 53.4619 143.1 54.2319H142.077C142.517 53.4472 142.851 52.6405 143.078 51.8119C143.313 50.9759 143.43 50.0959 143.43 49.1719C143.43 48.2479 143.32 47.3679 143.1 46.5319C142.88 45.6959 142.539 44.8819 142.077 44.0899H143.1Z" fill="black"/>
</g>
<mask id="path-9-inside-3_481_6226" fill="white">
<path d="M165.328 36.6309H224.328V59.6309H165.328V36.6309Z"/>
</mask>
<path d="M165.328 36.6309H224.328V59.6309H165.328V36.6309Z" fill="#C36A1D"/>
<path d="M165.328 36.6309V35.764H164.461V36.6309H165.328ZM165.328 37.4977H224.328V35.764H165.328V37.4977ZM166.195 59.6309V36.6309H164.461V59.6309H166.195Z" fill="#0D0D0C" mask="url(#path-9-inside-3_481_6226)"/>
<g clip-path="url(#clip3_481_6226)">
<path d="M186.951 54.2319C186.731 53.8799 186.522 53.5169 186.324 53.1429C186.133 52.7689 185.965 52.3765 185.818 51.9659C185.679 51.5479 185.569 51.1079 185.488 50.6459C185.407 50.1839 185.367 49.6889 185.367 49.1609C185.367 48.2735 185.503 47.4009 185.774 46.5429C186.053 45.6849 186.445 44.8672 186.951 44.0899H187.974C187.534 44.8819 187.197 45.6959 186.962 46.5319C186.735 47.3605 186.621 48.2369 186.621 49.1609C186.621 50.0849 186.731 50.9649 186.951 51.8009C187.171 52.6369 187.512 53.4472 187.974 54.2319H186.951ZM188.726 44.2769H192.191C192.748 44.2769 193.203 44.3575 193.555 44.5189C193.907 44.6802 194.178 44.8819 194.369 45.1239C194.559 45.3659 194.688 45.6299 194.754 45.9159C194.827 46.2019 194.864 46.4659 194.864 46.7079C194.864 46.9499 194.827 47.2139 194.754 47.4999C194.688 47.7785 194.559 48.0389 194.369 48.2809C194.178 48.5229 193.907 48.7245 193.555 48.8859C193.203 49.0399 192.748 49.1169 192.191 49.1169H190.101V52.1309H188.726V44.2769ZM190.101 47.9949H192.114C192.268 47.9949 192.425 47.9729 192.587 47.9289C192.748 47.8849 192.895 47.8152 193.027 47.7199C193.166 47.6172 193.276 47.4852 193.357 47.3239C193.445 47.1552 193.489 46.9462 193.489 46.6969C193.489 46.4402 193.452 46.2275 193.379 46.0589C193.305 45.8902 193.206 45.7582 193.082 45.6629C192.957 45.5602 192.814 45.4905 192.653 45.4539C192.491 45.4172 192.319 45.3989 192.136 45.3989H190.101V47.9949ZM197.347 44.2769H198.81L201.835 52.1309H200.361L199.624 50.0519H196.489L195.752 52.1309H194.333L197.347 44.2769ZM196.863 49.0069H199.261L198.084 45.6299H198.051L196.863 49.0069ZM202.682 44.0899C202.902 44.4419 203.107 44.8085 203.298 45.1899C203.489 45.5639 203.654 45.9599 203.793 46.3779C203.94 46.7885 204.053 47.2249 204.134 47.6869C204.222 48.1489 204.266 48.6439 204.266 49.1719C204.266 50.0592 204.127 50.9319 203.848 51.7899C203.577 52.6479 203.188 53.4619 202.682 54.2319H201.659C202.099 53.4472 202.433 52.6405 202.66 51.8119C202.895 50.9759 203.012 50.0959 203.012 49.1719C203.012 48.2479 202.902 47.3679 202.682 46.5319C202.462 45.6959 202.121 44.8819 201.659 44.0899H202.682Z" fill="black"/>
</g>
<mask id="path-12-inside-4_481_6226" fill="white">
<path d="M224.328 36.6309H285.328V59.6309H224.328V36.6309Z"/>
</mask>
<path d="M224.328 36.6309H285.328V59.6309H224.328V36.6309Z" fill="#C36A1D"/>
<path d="M224.328 36.6309V35.764H223.461V36.6309H224.328ZM224.328 37.4977H285.328V35.764H224.328V37.4977ZM225.195 59.6309V36.6309H223.461V59.6309H225.195Z" fill="#0D0D0C" mask="url(#path-12-inside-4_481_6226)"/>
<g clip-path="url(#clip4_481_6226)">
<path d="M245.951 54.2319C245.731 53.8799 245.522 53.5169 245.324 53.1429C245.133 52.7689 244.965 52.3765 244.818 51.9659C244.679 51.5479 244.569 51.1079 244.488 50.6459C244.407 50.1839 244.367 49.6889 244.367 49.1609C244.367 48.2735 244.503 47.4009 244.774 46.5429C245.053 45.6849 245.445 44.8672 245.951 44.0899H246.974C246.534 44.8819 246.197 45.6959 245.962 46.5319C245.735 47.3605 245.621 48.2369 245.621 49.1609C245.621 50.0849 245.731 50.9649 245.951 51.8009C246.171 52.6369 246.512 53.4472 246.974 54.2319H245.951ZM247.726 44.2769H249.101V47.8519L252.599 44.2769H254.293L251.158 47.4119L254.513 52.1309H252.797L250.223 48.3799L249.101 49.4909V52.1309H247.726V44.2769ZM255.256 44.2769H259.007C259.872 44.2769 260.521 44.4639 260.954 44.8379C261.387 45.2119 261.603 45.7325 261.603 46.3999C261.603 46.7739 261.548 47.0855 261.438 47.3349C261.328 47.5769 261.2 47.7749 261.053 47.9289C260.906 48.0755 260.76 48.1819 260.613 48.2479C260.474 48.3139 260.371 48.3579 260.305 48.3799V48.4019C260.422 48.4165 260.547 48.4532 260.679 48.5119C260.818 48.5705 260.947 48.6659 261.064 48.7979C261.181 48.9225 261.277 49.0875 261.35 49.2929C261.431 49.4982 261.471 49.7549 261.471 50.0629C261.471 50.5249 261.504 50.9465 261.57 51.3279C261.643 51.7019 261.753 51.9695 261.9 52.1309H260.426C260.323 51.9622 260.261 51.7752 260.239 51.5699C260.224 51.3645 260.217 51.1665 260.217 50.9759C260.217 50.6165 260.195 50.3085 260.151 50.0519C260.107 49.7879 260.026 49.5715 259.909 49.4029C259.792 49.2269 259.63 49.0985 259.425 49.0179C259.227 48.9372 258.97 48.8969 258.655 48.8969H256.631V52.1309H255.256V44.2769ZM256.631 47.8519H258.886C259.326 47.8519 259.66 47.7492 259.887 47.5439C260.114 47.3312 260.228 47.0159 260.228 46.5979C260.228 46.3485 260.191 46.1469 260.118 45.9929C260.045 45.8315 259.942 45.7069 259.81 45.6189C259.685 45.5309 259.539 45.4722 259.37 45.4429C259.209 45.4135 259.04 45.3989 258.864 45.3989H256.631V47.8519ZM263.1 44.0899C263.32 44.4419 263.525 44.8085 263.716 45.1899C263.907 45.5639 264.072 45.9599 264.211 46.3779C264.358 46.7885 264.471 47.2249 264.552 47.6869C264.64 48.1489 264.684 48.6439 264.684 49.1719C264.684 50.0592 264.545 50.9319 264.266 51.7899C263.995 52.6479 263.606 53.4619 263.1 54.2319H262.077C262.517 53.4472 262.851 52.6405 263.078 51.8119C263.313 50.9759 263.43 50.0959 263.43 49.1719C263.43 48.2479 263.32 47.3679 263.1 46.5319C262.88 45.6959 262.539 44.8819 262.077 44.0899H263.1Z" fill="black"/>
</g>
<mask id="path-15-inside-5_481_6226" fill="white">
<path d="M285.328 36.6309H345.328V59.6309H285.328V36.6309Z"/>
</mask>
<path d="M285.328 36.6309H345.328V59.6309H285.328V36.6309Z" fill="#C36A1D"/>
<path d="M285.328 36.6309V35.764H284.461V36.6309H285.328ZM285.328 37.4977H345.328V35.764H285.328V37.4977ZM286.195 59.6309V36.6309H284.461V59.6309H286.195Z" fill="#0D0D0C" mask="url(#path-15-inside-5_481_6226)"/>
<g clip-path="url(#clip5_481_6226)">
<path d="M306.951 54.2319C306.731 53.8799 306.522 53.5169 306.324 53.1429C306.133 52.7689 305.965 52.3765 305.818 51.9659C305.679 51.5479 305.569 51.1079 305.488 50.6459C305.407 50.1839 305.367 49.6889 305.367 49.1609C305.367 48.2735 305.503 47.4009 305.774 46.5429C306.053 45.6849 306.445 44.8672 306.951 44.0899H307.974C307.534 44.8819 307.197 45.6959 306.962 46.5319C306.735 47.3605 306.621 48.2369 306.621 49.1609C306.621 50.0849 306.731 50.9649 306.951 51.8009C307.171 52.6369 307.512 53.4472 307.974 54.2319H306.951ZM308.726 44.2769H310.101V50.9429H314.094V52.1309H308.726V44.2769ZM318.386 45.2119C317.968 45.2119 317.605 45.2962 317.297 45.4649C316.996 45.6335 316.751 45.8609 316.56 46.1469C316.369 46.4255 316.226 46.7445 316.131 47.1039C316.043 47.4632 315.999 47.8299 315.999 48.2039C315.999 48.5779 316.043 48.9445 316.131 49.3039C316.226 49.6632 316.369 49.9859 316.56 50.2719C316.751 50.5505 316.996 50.7742 317.297 50.9429C317.605 51.1115 317.968 51.1959 318.386 51.1959C318.804 51.1959 319.163 51.1115 319.464 50.9429C319.772 50.7742 320.021 50.5505 320.212 50.2719C320.403 49.9859 320.542 49.6632 320.63 49.3039C320.725 48.9445 320.773 48.5779 320.773 48.2039C320.773 47.8299 320.725 47.4632 320.63 47.1039C320.542 46.7445 320.403 46.4255 320.212 46.1469C320.021 45.8609 319.772 45.6335 319.464 45.4649C319.163 45.2962 318.804 45.2119 318.386 45.2119ZM318.386 44.0899C318.973 44.0899 319.497 44.1999 319.959 44.4199C320.428 44.6399 320.824 44.9369 321.147 45.3109C321.47 45.6849 321.715 46.1212 321.884 46.6199C322.06 47.1185 322.148 47.6465 322.148 48.2039C322.148 48.7685 322.06 49.3002 321.884 49.7989C321.715 50.2975 321.47 50.7339 321.147 51.1079C320.824 51.4819 320.428 51.7789 319.959 51.9989C319.497 52.2115 318.973 52.3179 318.386 52.3179C317.799 52.3179 317.271 52.2115 316.802 51.9989C316.34 51.7789 315.948 51.4819 315.625 51.1079C315.302 50.7339 315.053 50.2975 314.877 49.7989C314.708 49.3002 314.624 48.7685 314.624 48.2039C314.624 47.6465 314.708 47.1185 314.877 46.6199C315.053 46.1212 315.302 45.6849 315.625 45.3109C315.948 44.9369 316.34 44.6399 316.802 44.4199C317.271 44.1999 317.799 44.0899 318.386 44.0899ZM323.498 44.0899C323.718 44.4419 323.924 44.8085 324.114 45.1899C324.305 45.5639 324.47 45.9599 324.609 46.3779C324.756 46.7885 324.87 47.2249 324.95 47.6869C325.038 48.1489 325.082 48.6439 325.082 49.1719C325.082 50.0592 324.943 50.9319 324.664 51.7899C324.393 52.6479 324.004 53.4619 323.498 54.2319H322.475C322.915 53.4472 323.249 52.6405 323.476 51.8119C323.711 50.9759 323.828 50.0959 323.828 49.1719C323.828 48.2479 323.718 47.3679 323.498 46.5319C323.278 45.6959 322.937 44.8819 322.475 44.0899H323.498Z" fill="black"/>
</g>
</g>
<g clip-path="url(#clip6_481_6226)">
<mask id="path-18-inside-6_481_6226" fill="white">
<path d="M0.328125 59.6309H104.328V90.9675H0.328125V59.6309Z"/>
</mask>
<path d="M0.328125 59.6309H104.328V90.9675H0.328125V59.6309Z" fill="#C36A1D"/>
<path d="M0.328125 59.6309V58.764H-0.538709V59.6309H0.328125ZM0.328125 60.4977H104.328V58.764H0.328125V60.4977ZM1.19496 90.9675V59.6309H-0.538709V90.9675H1.19496Z" fill="#0D0D0C" mask="url(#path-18-inside-6_481_6226)"/>
<path d="M24.5661 76.6813C24.5661 76.982 24.6175 77.2386 24.7201 77.4513C24.8228 77.664 24.9658 77.84 25.1491 77.9793C25.3325 78.1113 25.5415 78.2103 25.7761 78.2763C26.0181 78.335 26.2785 78.3643 26.5571 78.3643C26.8578 78.3643 27.1145 78.3313 27.3271 78.2653C27.5398 78.192 27.7121 78.1003 27.8441 77.9903C27.9761 77.8803 28.0715 77.7556 28.1301 77.6163C28.1888 77.4696 28.2181 77.323 28.2181 77.1763C28.2181 76.8756 28.1485 76.6556 28.0091 76.5163C27.8771 76.3696 27.7305 76.267 27.5691 76.2083C27.2905 76.1056 26.9641 76.0103 26.5901 75.9223C26.2235 75.827 25.7688 75.706 25.2261 75.5593C24.8888 75.4713 24.6065 75.3576 24.3791 75.2183C24.1591 75.0716 23.9831 74.9103 23.8511 74.7343C23.7191 74.5583 23.6238 74.3713 23.5651 74.1733C23.5138 73.9753 23.4881 73.7736 23.4881 73.5683C23.4881 73.1723 23.5688 72.8313 23.7301 72.5453C23.8988 72.252 24.1188 72.01 24.3901 71.8193C24.6615 71.6286 24.9695 71.4893 25.3141 71.4013C25.6588 71.306 26.0071 71.2583 26.3591 71.2583C26.7698 71.2583 27.1548 71.3133 27.5141 71.4233C27.8808 71.526 28.1998 71.6836 28.4711 71.8963C28.7498 72.109 28.9698 72.373 29.1311 72.6883C29.2925 72.9963 29.3731 73.3556 29.3731 73.7663H27.9981C27.9615 73.2603 27.7891 72.9046 27.4811 72.6993C27.1731 72.4866 26.7808 72.3803 26.3041 72.3803C26.1428 72.3803 25.9778 72.3986 25.8091 72.4353C25.6405 72.4646 25.4865 72.5196 25.3471 72.6003C25.2078 72.6736 25.0905 72.7763 24.9951 72.9083C24.9071 73.0403 24.8631 73.2053 24.8631 73.4033C24.8631 73.682 24.9475 73.902 25.1161 74.0633C25.2921 74.2173 25.5195 74.3346 25.7981 74.4153C25.8275 74.4226 25.9411 74.4556 26.1391 74.5143C26.3445 74.5656 26.5718 74.6243 26.8211 74.6903C27.0705 74.7563 27.3125 74.8223 27.5471 74.8883C27.7891 74.947 27.9615 74.991 28.0641 75.0203C28.3208 75.101 28.5445 75.211 28.7351 75.3503C28.9258 75.4896 29.0835 75.651 29.2081 75.8343C29.3401 76.0103 29.4355 76.201 29.4941 76.4063C29.5601 76.6116 29.5931 76.817 29.5931 77.0223C29.5931 77.4623 29.5015 77.84 29.3181 78.1553C29.1421 78.4633 28.9075 78.7163 28.6141 78.9143C28.3208 79.1123 27.9871 79.2553 27.6131 79.3433C27.2391 79.4386 26.8578 79.4863 26.4691 79.4863C26.0218 79.4863 25.6001 79.4313 25.2041 79.3213C24.8081 79.2113 24.4635 79.0426 24.1701 78.8153C23.8768 78.588 23.6421 78.2983 23.4661 77.9463C23.2901 77.587 23.1985 77.1653 23.1911 76.6813H24.5661ZM30.0489 71.4453H36.4069V72.6333H33.9099V79.2993H32.5349V72.6333H30.0489V71.4453ZM38.4087 71.4453H39.8717L42.8967 79.2993H41.4227L40.6857 77.2203H37.5507L36.8137 79.2993H35.3947L38.4087 71.4453ZM37.9247 76.1753H40.3227L39.1457 72.7983H39.1127L37.9247 76.1753ZM43.5896 71.4453H45.0416L48.6276 77.2313H48.6496V71.4453H49.9586V79.2993H48.5066L44.9316 73.5243H44.8986V79.2993H43.5896V71.4453ZM51.5831 71.4453H54.8391C55.4404 71.4453 55.9611 71.548 56.4011 71.7533C56.8411 71.9586 57.2004 72.241 57.4791 72.6003C57.7577 72.9523 57.9631 73.3666 58.0951 73.8433C58.2344 74.32 58.3041 74.8296 58.3041 75.3723C58.3041 75.915 58.2344 76.4246 58.0951 76.9013C57.9631 77.378 57.7577 77.796 57.4791 78.1553C57.2004 78.5073 56.8411 78.786 56.4011 78.9913C55.9611 79.1966 55.4404 79.2993 54.8391 79.2993H51.5831V71.4453ZM52.9581 78.1773H54.3111C54.8464 78.1773 55.2827 78.1076 55.6201 77.9683C55.9647 77.8216 56.2324 77.6236 56.4231 77.3743C56.6211 77.1176 56.7531 76.8206 56.8191 76.4833C56.8924 76.1386 56.9291 75.7683 56.9291 75.3723C56.9291 74.9763 56.8924 74.6096 56.8191 74.2723C56.7531 73.9276 56.6211 73.6306 56.4231 73.3813C56.2324 73.1246 55.9647 72.9266 55.6201 72.7873C55.2827 72.6406 54.8464 72.5673 54.3111 72.5673H52.9581V78.1773ZM61.6225 71.4453H63.0855L66.1105 79.2993H64.6365L63.8995 77.2203H60.7645L60.0275 79.2993H58.6085L61.6225 71.4453ZM61.1385 76.1753H63.5365L62.3595 72.7983H62.3265L61.1385 76.1753ZM66.8585 71.4453H70.6095C71.4748 71.4453 72.1238 71.6323 72.5565 72.0063C72.9891 72.3803 73.2055 72.901 73.2055 73.5683C73.2055 73.9423 73.1505 74.254 73.0405 74.5033C72.9305 74.7453 72.8021 74.9433 72.6555 75.0973C72.5088 75.244 72.3621 75.3503 72.2155 75.4163C72.0761 75.4823 71.9735 75.5263 71.9075 75.5483V75.5703C72.0248 75.585 72.1495 75.6216 72.2815 75.6803C72.4208 75.739 72.5491 75.8343 72.6665 75.9663C72.7838 76.091 72.8791 76.256 72.9525 76.4613C73.0331 76.6666 73.0735 76.9233 73.0735 77.2313C73.0735 77.6933 73.1065 78.115 73.1725 78.4963C73.2458 78.8703 73.3558 79.138 73.5025 79.2993H72.0285C71.9258 79.1306 71.8635 78.9436 71.8415 78.7383C71.8268 78.533 71.8195 78.335 71.8195 78.1443C71.8195 77.785 71.7975 77.477 71.7535 77.2203C71.7095 76.9563 71.6288 76.74 71.5115 76.5713C71.3941 76.3953 71.2328 76.267 71.0275 76.1863C70.8295 76.1056 70.5728 76.0653 70.2575 76.0653H68.2335V79.2993H66.8585V71.4453ZM68.2335 75.0203H70.4885C70.9285 75.0203 71.2621 74.9176 71.4895 74.7123C71.7168 74.4996 71.8305 74.1843 71.8305 73.7663C71.8305 73.517 71.7938 73.3153 71.7205 73.1613C71.6471 73 71.5445 72.8753 71.4125 72.7873C71.2878 72.6993 71.1411 72.6406 70.9725 72.6113C70.8111 72.582 70.6425 72.5673 70.4665 72.5673H68.2335V75.0203ZM74.6036 71.4453H77.8596C78.4609 71.4453 78.9816 71.548 79.4216 71.7533C79.8616 71.9586 80.2209 72.241 80.4996 72.6003C80.7782 72.9523 80.9836 73.3666 81.1156 73.8433C81.2549 74.32 81.3246 74.8296 81.3246 75.3723C81.3246 75.915 81.2549 76.4246 81.1156 76.9013C80.9836 77.378 80.7782 77.796 80.4996 78.1553C80.2209 78.5073 79.8616 78.786 79.4216 78.9913C78.9816 79.1966 78.4609 79.2993 77.8596 79.2993H74.6036V71.4453ZM75.9786 78.1773H77.3316C77.8669 78.1773 78.3032 78.1076 78.6406 77.9683C78.9852 77.8216 79.2529 77.6236 79.4436 77.3743C79.6416 77.1176 79.7736 76.8206 79.8396 76.4833C79.9129 76.1386 79.9496 75.7683 79.9496 75.3723C79.9496 74.9763 79.9129 74.6096 79.8396 74.2723C79.7736 73.9276 79.6416 73.6306 79.4436 73.3813C79.2529 73.1246 78.9852 72.9266 78.6406 72.7873C78.3032 72.6406 77.8669 72.5673 77.3316 72.5673H75.9786V78.1773Z" fill="black"/>
<mask id="path-21-inside-7_481_6226" fill="white">
<path d="M104.328 59.6309H165.328V90.9675H104.328V59.6309Z"/>
</mask>
<path d="M104.328 59.6309H165.328V90.9675H104.328V59.6309Z" fill="#CC7D39"/>
<path d="M104.328 59.6309V58.764H103.461V59.6309H104.328ZM104.328 60.4977H165.328V58.764H104.328V60.4977ZM105.195 90.9675V59.6309H103.461V90.9675H105.195Z" fill="#0D0D0C" mask="url(#path-21-inside-7_481_6226)"/>
<path d="M126.348 79.2993L129.731 72.606V72.5469H125.83V71.7342H130.677V72.5912L127.308 79.2993H126.348ZM134.361 71.6308C134.671 71.6333 134.981 71.6924 135.291 71.8081C135.602 71.9238 135.885 72.1159 136.141 72.3843C136.397 72.6503 136.603 73.0135 136.758 73.474C136.913 73.9345 136.991 74.512 136.991 75.2065C136.991 75.8788 136.927 76.4759 136.799 76.998C136.673 77.5176 136.491 77.956 136.252 78.313C136.015 78.6701 135.727 78.941 135.388 79.1257C135.05 79.3104 134.668 79.4027 134.242 79.4027C133.819 79.4027 133.441 79.319 133.108 79.1516C132.778 78.9816 132.508 78.7465 132.296 78.446C132.086 78.1431 131.952 77.7922 131.893 77.3933H132.794C132.876 77.7405 133.037 78.0274 133.278 78.2539C133.522 78.478 133.843 78.5901 134.242 78.5901C134.826 78.5901 135.287 78.3352 135.624 77.8255C135.964 77.3157 136.134 76.5954 136.134 75.6645H136.075C135.937 75.8714 135.773 76.0499 135.583 76.2001C135.394 76.3504 135.183 76.4661 134.952 76.5474C134.72 76.6286 134.474 76.6693 134.213 76.6693C133.779 76.6693 133.382 76.5621 133.02 76.3479C132.66 76.1312 132.372 75.8344 132.155 75.4577C131.941 75.0784 131.834 74.645 131.834 74.1574C131.834 73.6944 131.937 73.2709 132.144 72.8867C132.354 72.5001 132.647 72.1923 133.023 71.9632C133.403 71.7342 133.848 71.6234 134.361 71.6308ZM134.361 72.4434C134.05 72.4434 133.771 72.521 133.522 72.6762C133.276 72.8288 133.08 73.0357 132.935 73.2967C132.792 73.5553 132.721 73.8422 132.721 74.1574C132.721 74.4726 132.789 74.7595 132.927 75.0181C133.068 75.2742 133.259 75.4786 133.5 75.6313C133.744 75.7815 134.021 75.8566 134.331 75.8566C134.565 75.8566 134.783 75.811 134.985 75.7199C135.187 75.6264 135.363 75.4995 135.513 75.3395C135.666 75.1769 135.785 74.9935 135.871 74.7891C135.958 74.5822 136.001 74.3667 136.001 74.1426C136.001 73.8471 135.929 73.5701 135.786 73.3115C135.646 73.0529 135.452 72.8436 135.203 72.6835C134.957 72.5235 134.676 72.4434 134.361 72.4434ZM140.674 80.245V70.7886H141.28V80.245H140.674ZM142.713 73.6255C142.669 73.2512 142.489 72.9606 142.174 72.7537C141.859 72.5469 141.472 72.4434 141.014 72.4434C140.679 72.4434 140.386 72.4976 140.135 72.606C139.886 72.7143 139.692 72.8633 139.551 73.0529C139.414 73.2426 139.345 73.458 139.345 73.6994C139.345 73.9013 139.393 74.0749 139.489 74.2202C139.587 74.363 139.713 74.4825 139.865 74.5785C140.018 74.6721 140.178 74.7497 140.346 74.8112C140.513 74.8703 140.667 74.9184 140.807 74.9553L141.576 75.1622C141.773 75.2139 141.992 75.2853 142.233 75.3764C142.477 75.4675 142.71 75.5919 142.931 75.7495C143.155 75.9046 143.34 76.1041 143.485 76.3479C143.631 76.5917 143.703 76.8909 143.703 77.2455C143.703 77.6543 143.596 78.0237 143.382 78.3537C143.17 78.6837 142.86 78.9459 142.451 79.1405C142.045 79.335 141.551 79.4323 140.97 79.4323C140.428 79.4323 139.959 79.3449 139.563 79.17C139.169 78.9952 138.858 78.7514 138.632 78.4386C138.408 78.1259 138.281 77.7627 138.251 77.3489H139.197C139.221 77.6346 139.318 77.871 139.485 78.0582C139.655 78.2429 139.869 78.3808 140.128 78.4719C140.389 78.5605 140.669 78.6049 140.97 78.6049C141.32 78.6049 141.634 78.5482 141.912 78.4349C142.19 78.3192 142.411 78.1591 142.573 77.9547C142.736 77.7479 142.817 77.5065 142.817 77.2307C142.817 76.9795 142.747 76.7752 142.606 76.6175C142.466 76.4599 142.281 76.3319 142.052 76.2334C141.823 76.1349 141.576 76.0487 141.31 75.9748L140.379 75.7088C139.788 75.5389 139.32 75.2964 138.975 74.9812C138.63 74.6659 138.458 74.2535 138.458 73.7437C138.458 73.3201 138.573 72.9507 138.802 72.6355C139.033 72.3179 139.343 72.0716 139.732 71.8967C140.124 71.7194 140.561 71.6308 141.044 71.6308C141.531 71.6308 141.965 71.7182 142.344 71.8931C142.723 72.0654 143.024 72.3018 143.245 72.6023C143.469 72.9027 143.588 73.2438 143.6 73.6255H142.713Z" fill="black"/>
<mask id="path-24-inside-8_481_6226" fill="white">
<path d="M165.328 59.6309H224.328V90.9675H165.328V59.6309Z"/>
</mask>
<path d="M165.328 59.6309H224.328V90.9675H165.328V59.6309Z" fill="#CC7D39"/>
<path d="M165.328 59.6309V58.764H164.461V59.6309H165.328ZM165.328 60.4977H224.328V58.764H165.328V60.4977ZM166.195 90.9675V59.6309H164.461V90.9675H166.195Z" fill="#0D0D0C" mask="url(#path-24-inside-8_481_6226)"/>
<path d="M186.348 79.2993L189.731 72.606V72.5469H185.83V71.7342H190.677V72.5912L187.308 79.2993H186.348ZM192.054 79.2993V78.6344L194.551 75.9009C194.844 75.5808 195.085 75.3025 195.275 75.0661C195.464 74.8272 195.605 74.6031 195.696 74.3938C195.79 74.182 195.836 73.9604 195.836 73.7289C195.836 73.463 195.772 73.2327 195.644 73.0382C195.519 72.8436 195.346 72.6934 195.127 72.5875C194.908 72.4816 194.662 72.4287 194.388 72.4287C194.098 72.4287 193.844 72.489 193.627 72.6097C193.413 72.7279 193.247 72.8941 193.129 73.1083C193.013 73.3226 192.955 73.5738 192.955 73.8619H192.083C192.083 73.4186 192.186 73.0295 192.39 72.6946C192.594 72.3597 192.873 72.0987 193.225 71.9115C193.579 71.7244 193.977 71.6308 194.418 71.6308C194.861 71.6308 195.254 71.7244 195.596 71.9115C195.939 72.0987 196.207 72.3511 196.402 72.6688C196.596 72.9864 196.693 73.3398 196.693 73.7289C196.693 74.0072 196.643 74.2793 196.542 74.5453C196.443 74.8088 196.271 75.1031 196.025 75.4281C195.781 75.7507 195.442 76.1447 195.009 76.6102L193.31 78.4276V78.4867H196.826V79.2993H192.054ZM200.583 80.245V70.7886H201.189V80.245H200.583ZM202.622 73.6255C202.578 73.2512 202.398 72.9606 202.083 72.7537C201.767 72.5469 201.381 72.4434 200.923 72.4434C200.588 72.4434 200.295 72.4976 200.044 72.606C199.795 72.7143 199.6 72.8633 199.46 73.0529C199.322 73.2426 199.253 73.458 199.253 73.6994C199.253 73.9013 199.301 74.0749 199.397 74.2202C199.496 74.363 199.621 74.4825 199.774 74.5785C199.927 74.6721 200.087 74.7497 200.254 74.8112C200.422 74.8703 200.576 74.9184 200.716 74.9553L201.484 75.1622C201.681 75.2139 201.9 75.2853 202.142 75.3764C202.386 75.4675 202.618 75.5919 202.84 75.7495C203.064 75.9046 203.249 76.1041 203.394 76.3479C203.539 76.5917 203.612 76.8909 203.612 77.2455C203.612 77.6543 203.505 78.0237 203.291 78.3537C203.079 78.6837 202.769 78.9459 202.36 79.1405C201.953 79.335 201.46 79.4323 200.879 79.4323C200.337 79.4323 199.868 79.3449 199.471 79.17C199.077 78.9952 198.767 78.7514 198.54 78.4386C198.316 78.1259 198.189 77.7627 198.16 77.3489H199.105C199.13 77.6346 199.226 77.871 199.394 78.0582C199.563 78.2429 199.778 78.3808 200.036 78.4719C200.297 78.5605 200.578 78.6049 200.879 78.6049C201.228 78.6049 201.542 78.5482 201.82 78.4349C202.099 78.3192 202.319 78.1591 202.482 77.9547C202.644 77.7479 202.725 77.5065 202.725 77.2307C202.725 76.9795 202.655 76.7752 202.515 76.6175C202.375 76.4599 202.19 76.3319 201.961 76.2334C201.732 76.1349 201.484 76.0487 201.218 75.9748L200.287 75.7088C199.696 75.5389 199.229 75.2964 198.884 74.9812C198.539 74.6659 198.367 74.2535 198.367 73.7437C198.367 73.3201 198.481 72.9507 198.71 72.6355C198.942 72.3179 199.252 72.0716 199.641 71.8967C200.033 71.7194 200.47 71.6308 200.952 71.6308C201.44 71.6308 201.873 71.7182 202.253 71.8931C202.632 72.0654 202.932 72.3018 203.154 72.6023C203.378 72.9027 203.496 73.2438 203.509 73.6255H202.622Z" fill="black"/>
<mask id="path-27-inside-9_481_6226" fill="white">
<path d="M224.328 59.6309H285.328V90.9675H224.328V59.6309Z"/>
</mask>
<path d="M224.328 59.6309H285.328V90.9675H224.328V59.6309Z" fill="#CC7D39"/>
<path d="M224.328 59.6309V58.764H223.461V59.6309H224.328ZM224.328 60.4977H285.328V58.764H224.328V60.4977ZM225.195 90.9675V59.6309H223.461V90.9675H225.195Z" fill="#0D0D0C" mask="url(#path-27-inside-9_481_6226)"/>
<path d="M248.034 79.4027C247.527 79.4027 247.079 79.3129 246.69 79.1331C246.303 78.9509 246.002 78.7009 245.785 78.3832C245.568 78.0631 245.461 77.6986 245.463 77.2898C245.461 76.9697 245.524 76.6742 245.652 76.4033C245.78 76.13 245.955 75.9022 246.176 75.7199C246.4 75.5352 246.65 75.4183 246.926 75.369V75.3247C246.564 75.2311 246.276 75.0279 246.062 74.7152C245.848 74.4 245.742 74.0417 245.744 73.6403C245.742 73.2561 245.839 72.9126 246.036 72.6097C246.233 72.3068 246.504 72.0679 246.849 71.8931C247.196 71.7182 247.591 71.6308 248.034 71.6308C248.473 71.6308 248.864 71.7182 249.209 71.8931C249.554 72.0679 249.825 72.3068 250.022 72.6097C250.221 72.9126 250.322 73.2561 250.325 73.6403C250.322 74.0417 250.213 74.4 249.996 74.7152C249.782 75.0279 249.497 75.2311 249.143 75.3247V75.369C249.416 75.4183 249.662 75.5352 249.881 75.7199C250.101 75.9022 250.275 76.13 250.406 76.4033C250.536 76.6742 250.603 76.9697 250.605 77.2898C250.603 77.6986 250.492 78.0631 250.273 78.3832C250.056 78.7009 249.755 78.9509 249.368 79.1331C248.984 79.3129 248.539 79.4027 248.034 79.4027ZM248.034 78.5901C248.377 78.5901 248.672 78.5347 248.921 78.4239C249.17 78.313 249.362 78.1567 249.497 77.9547C249.633 77.7528 249.702 77.5164 249.704 77.2455C249.702 76.9598 249.628 76.7074 249.482 76.4883C249.337 76.2691 249.139 76.0967 248.888 75.9711C248.639 75.8455 248.355 75.7827 248.034 75.7827C247.712 75.7827 247.424 75.8455 247.17 75.9711C246.919 76.0967 246.721 76.2691 246.575 76.4883C246.433 76.7074 246.362 76.9598 246.365 77.2455C246.362 77.5164 246.428 77.7528 246.561 77.9547C246.696 78.1567 246.889 78.313 247.141 78.4239C247.392 78.5347 247.69 78.5901 248.034 78.5901ZM248.034 74.9996C248.305 74.9996 248.545 74.9454 248.755 74.8371C248.967 74.7287 249.133 74.5773 249.253 74.3827C249.374 74.1882 249.436 73.9604 249.438 73.6994C249.436 73.4433 249.375 73.2204 249.257 73.0308C249.139 72.8387 248.975 72.6909 248.766 72.5875C248.556 72.4816 248.313 72.4287 248.034 72.4287C247.751 72.4287 247.504 72.4816 247.292 72.5875C247.08 72.6909 246.916 72.8387 246.801 73.0308C246.685 73.2204 246.628 73.4433 246.631 73.6994C246.628 73.9604 246.686 74.1882 246.804 74.3827C246.925 74.5773 247.091 74.7287 247.303 74.8371C247.515 74.9454 247.759 74.9996 248.034 74.9996ZM254.489 79.4027C253.932 79.4027 253.458 79.2513 253.066 78.9484C252.675 78.643 252.376 78.201 252.169 77.6223C251.962 77.0411 251.859 76.3393 251.859 75.5168C251.859 74.6992 251.962 74.001 252.169 73.4223C252.378 72.8412 252.679 72.3979 253.07 72.0925C253.464 71.7847 253.937 71.6308 254.489 71.6308C255.04 71.6308 255.512 71.7847 255.903 72.0925C256.297 72.3979 256.598 72.8412 256.805 73.4223C257.014 74.001 257.119 74.6992 257.119 75.5168C257.119 76.3393 257.015 77.0411 256.808 77.6223C256.601 78.201 256.302 78.643 255.911 78.9484C255.519 79.2513 255.045 79.4027 254.489 79.4027ZM254.489 78.5901C255.04 78.5901 255.469 78.3241 255.774 77.7922C256.079 77.2603 256.232 76.5018 256.232 75.5168C256.232 74.8617 256.162 74.3039 256.022 73.8434C255.884 73.3829 255.684 73.032 255.423 72.7907C255.165 72.5493 254.853 72.4287 254.489 72.4287C253.942 72.4287 253.515 72.6983 253.207 73.2376C252.899 73.7745 252.745 74.5342 252.745 75.5168C252.745 76.1718 252.814 76.7284 252.952 77.1864C253.09 77.6445 253.288 77.9929 253.547 78.2318C253.808 78.4707 254.122 78.5901 254.489 78.5901ZM260.753 80.245V70.7886H261.359V80.245H260.753ZM262.792 73.6255C262.748 73.2512 262.568 72.9606 262.253 72.7537C261.938 72.5469 261.551 72.4434 261.093 72.4434C260.758 72.4434 260.465 72.4976 260.214 72.606C259.965 72.7143 259.771 72.8633 259.63 73.0529C259.493 73.2426 259.424 73.458 259.424 73.6994C259.424 73.9013 259.472 74.0749 259.568 74.2202C259.666 74.363 259.792 74.4825 259.944 74.5785C260.097 74.6721 260.257 74.7497 260.425 74.8112C260.592 74.8703 260.746 74.9184 260.886 74.9553L261.655 75.1622C261.852 75.2139 262.071 75.2853 262.312 75.3764C262.556 75.4675 262.789 75.5919 263.01 75.7495C263.234 75.9046 263.419 76.1041 263.564 76.3479C263.71 76.5917 263.782 76.8909 263.782 77.2455C263.782 77.6543 263.675 78.0237 263.461 78.3537C263.249 78.6837 262.939 78.9459 262.53 79.1405C262.124 79.335 261.63 79.4323 261.049 79.4323C260.507 79.4323 260.038 79.3449 259.642 79.17C259.248 78.9952 258.937 78.7514 258.711 78.4386C258.487 78.1259 258.36 77.7627 258.33 77.3489H259.276C259.301 77.6346 259.397 77.871 259.564 78.0582C259.734 78.2429 259.948 78.3808 260.207 78.4719C260.468 78.5605 260.749 78.6049 261.049 78.6049C261.399 78.6049 261.713 78.5482 261.991 78.4349C262.269 78.3192 262.49 78.1591 262.652 77.9547C262.815 77.7479 262.896 77.5065 262.896 77.2307C262.896 76.9795 262.826 76.7752 262.685 76.6175C262.545 76.4599 262.36 76.3319 262.131 76.2334C261.902 76.1349 261.655 76.0487 261.389 75.9748L260.458 75.7088C259.867 75.5389 259.399 75.2964 259.054 74.9812C258.709 74.6659 258.537 74.2535 258.537 73.7437C258.537 73.3201 258.652 72.9507 258.881 72.6355C259.112 72.3179 259.422 72.0716 259.811 71.8967C260.203 71.7194 260.64 71.6308 261.123 71.6308C261.61 71.6308 262.044 71.7182 262.423 71.8931C262.802 72.0654 263.103 72.3018 263.324 72.6023C263.548 72.9027 263.667 73.2438 263.679 73.6255H262.792Z" fill="black"/>
<mask id="path-30-inside-10_481_6226" fill="white">
<path d="M285.328 59.6309H345.328V90.9675H285.328V59.6309Z"/>
</mask>
<path d="M285.328 59.6309H345.328V90.9675H285.328V59.6309Z" fill="#CC7D39"/>
<path d="M285.328 59.6309V58.764H284.461V59.6309H285.328ZM285.328 60.4977H345.328V58.764H285.328V60.4977ZM286.195 90.9675V59.6309H284.461V90.9675H286.195Z" fill="#0D0D0C" mask="url(#path-30-inside-10_481_6226)"/>
<path d="M306.848 79.2993L310.231 72.606V72.5469H306.33V71.7342H311.177V72.5912L307.808 79.2993H306.848ZM314.816 79.4027C314.383 79.4027 313.993 79.3166 313.645 79.1442C313.298 78.9718 313.02 78.7354 312.811 78.4349C312.601 78.1345 312.487 77.7922 312.467 77.408H313.354C313.388 77.7503 313.543 78.0335 313.819 78.2576C314.097 78.4793 314.43 78.5901 314.816 78.5901C315.127 78.5901 315.402 78.5174 315.644 78.3721C315.888 78.2269 316.078 78.0274 316.216 77.7737C316.357 77.5176 316.427 77.2283 316.427 76.9057C316.427 76.5757 316.354 76.2814 316.209 76.0228C316.066 75.7618 315.869 75.5562 315.618 75.406C315.367 75.2557 315.08 75.1794 314.757 75.1769C314.526 75.1745 314.288 75.2102 314.044 75.2841C313.8 75.3555 313.6 75.4478 313.442 75.5611L312.585 75.4577L313.043 71.7342H316.974V72.5469H313.812L313.546 74.778H313.59C313.745 74.6549 313.94 74.5527 314.174 74.4714C314.408 74.3901 314.651 74.3495 314.905 74.3495C315.368 74.3495 315.78 74.4603 316.142 74.6819C316.507 74.9011 316.793 75.2016 316.999 75.5833C317.209 75.965 317.313 76.4008 317.313 76.8909C317.313 77.3736 317.205 77.8045 316.988 78.1838C316.774 78.5605 316.479 78.8585 316.102 79.0777C315.725 79.2944 315.297 79.4027 314.816 79.4027ZM321.012 80.245V70.7886H321.618V80.245H321.012ZM323.051 73.6255C323.007 73.2512 322.827 72.9606 322.512 72.7537C322.196 72.5469 321.81 72.4434 321.352 72.4434C321.017 72.4434 320.724 72.4976 320.473 72.606C320.224 72.7143 320.029 72.8633 319.889 73.0529C319.751 73.2426 319.682 73.458 319.682 73.6994C319.682 73.9013 319.73 74.0749 319.826 74.2202C319.925 74.363 320.05 74.4825 320.203 74.5785C320.356 74.6721 320.516 74.7497 320.683 74.8112C320.851 74.8703 321.004 74.9184 321.145 74.9553L321.913 75.1622C322.11 75.2139 322.329 75.2853 322.571 75.3764C322.815 75.4675 323.047 75.5919 323.269 75.7495C323.493 75.9046 323.678 76.1041 323.823 76.3479C323.968 76.5917 324.041 76.8909 324.041 77.2455C324.041 77.6543 323.934 78.0237 323.72 78.3537C323.508 78.6837 323.197 78.9459 322.789 79.1405C322.382 79.335 321.889 79.4323 321.307 79.4323C320.766 79.4323 320.296 79.3449 319.9 79.17C319.506 78.9952 319.196 78.7514 318.969 78.4386C318.745 78.1259 318.618 77.7627 318.589 77.3489H319.534C319.559 77.6346 319.655 77.871 319.822 78.0582C319.992 78.2429 320.207 78.3808 320.465 78.4719C320.726 78.5605 321.007 78.6049 321.307 78.6049C321.657 78.6049 321.971 78.5482 322.249 78.4349C322.528 78.3192 322.748 78.1591 322.911 77.9547C323.073 77.7479 323.154 77.5065 323.154 77.2307C323.154 76.9795 323.084 76.7752 322.944 76.6175C322.803 76.4599 322.619 76.3319 322.39 76.2334C322.161 76.1349 321.913 76.0487 321.647 75.9748L320.716 75.7088C320.125 75.5389 319.657 75.2964 319.313 74.9812C318.968 74.6659 318.796 74.2535 318.796 73.7437C318.796 73.3201 318.91 72.9507 319.139 72.6355C319.371 72.3179 319.681 72.0716 320.07 71.8967C320.461 71.7194 320.899 71.6308 321.381 71.6308C321.869 71.6308 322.302 71.7182 322.682 71.8931C323.061 72.0654 323.361 72.3018 323.583 72.6023C323.807 72.9027 323.925 73.2438 323.937 73.6255H323.051Z" fill="black"/>
</g>
<g clip-path="url(#clip7_481_6226)">
<mask id="path-33-inside-11_481_6226" fill="white">
<path d="M0.328125 90.9678H104.328V122.304H0.328125V90.9678Z"/>
</mask>
<path d="M0.328125 90.9678H104.328V122.304H0.328125V90.9678Z" fill="#C36A1D"/>
<path d="M0.328125 90.9678V90.1009H-0.538709V90.9678H0.328125ZM0.328125 91.8346H104.328V90.1009H0.328125V91.8346ZM1.19496 122.304V90.9678H-0.538709V122.304H1.19496Z" fill="#0D0D0C" mask="url(#path-33-inside-11_481_6226)"/>
<path d="M30.1641 102.782H33.9151C34.7805 102.782 35.4295 102.969 35.8621 103.343C36.2948 103.717 36.5111 104.238 36.5111 104.905C36.5111 105.279 36.4561 105.591 36.3461 105.84C36.2361 106.082 36.1078 106.28 35.9611 106.434C35.8145 106.581 35.6678 106.687 35.5211 106.753C35.3818 106.819 35.2791 106.863 35.2131 106.885V106.907C35.3305 106.922 35.4551 106.959 35.5871 107.017C35.7265 107.076 35.8548 107.171 35.9721 107.303C36.0895 107.428 36.1848 107.593 36.2581 107.798C36.3388 108.004 36.3791 108.26 36.3791 108.568C36.3791 109.03 36.4121 109.452 36.4781 109.833C36.5515 110.207 36.6615 110.475 36.8081 110.636H35.3341C35.2315 110.468 35.1691 110.281 35.1471 110.075C35.1325 109.87 35.1251 109.672 35.1251 109.481C35.1251 109.122 35.1031 108.814 35.0591 108.557C35.0151 108.293 34.9345 108.077 34.8171 107.908C34.6998 107.732 34.5385 107.604 34.3331 107.523C34.1351 107.443 33.8785 107.402 33.5631 107.402H31.5391V110.636H30.1641V102.782ZM31.5391 106.357H33.7941C34.2341 106.357 34.5678 106.255 34.7951 106.049C35.0225 105.837 35.1361 105.521 35.1361 105.103C35.1361 104.854 35.0995 104.652 35.0261 104.498C34.9528 104.337 34.8501 104.212 34.7181 104.124C34.5935 104.036 34.4468 103.978 34.2781 103.948C34.1168 103.919 33.9481 103.904 33.7721 103.904H31.5391V106.357ZM37.9092 102.782H39.2842V110.636H37.9092V102.782ZM40.0798 102.782H41.5098L43.4788 108.997H43.5008L45.5138 102.782H46.9108L44.2268 110.636H42.6978L40.0798 102.782ZM49.1948 102.782H50.6578L53.6828 110.636H52.2088L51.4718 108.557H48.3368L47.5998 110.636H46.1808L49.1948 102.782ZM48.7108 107.512H51.1088L49.9318 104.135H49.8988L48.7108 107.512ZM54.4307 102.782H55.8057V109.448H59.7987V110.636H54.4307V102.782ZM60.7471 102.782H64.4981C65.3635 102.782 66.0125 102.969 66.4451 103.343C66.8778 103.717 67.0941 104.238 67.0941 104.905C67.0941 105.279 67.0391 105.591 66.9291 105.84C66.8191 106.082 66.6908 106.28 66.5441 106.434C66.3975 106.581 66.2508 106.687 66.1041 106.753C65.9648 106.819 65.8621 106.863 65.7961 106.885V106.907C65.9135 106.922 66.0381 106.959 66.1701 107.017C66.3095 107.076 66.4378 107.171 66.5551 107.303C66.6725 107.428 66.7678 107.593 66.8411 107.798C66.9218 108.004 66.9621 108.26 66.9621 108.568C66.9621 109.03 66.9951 109.452 67.0611 109.833C67.1345 110.207 67.2445 110.475 67.3911 110.636H65.9171C65.8145 110.468 65.7521 110.281 65.7301 110.075C65.7155 109.87 65.7081 109.672 65.7081 109.481C65.7081 109.122 65.6861 108.814 65.6421 108.557C65.5981 108.293 65.5175 108.077 65.4001 107.908C65.2828 107.732 65.1215 107.604 64.9161 107.523C64.7181 107.443 64.4615 107.402 64.1461 107.402H62.1221V110.636H60.7471V102.782ZM62.1221 106.357H64.3771C64.8171 106.357 65.1508 106.255 65.3781 106.049C65.6055 105.837 65.7191 105.521 65.7191 105.103C65.7191 104.854 65.6825 104.652 65.6091 104.498C65.5358 104.337 65.4331 104.212 65.3011 104.124C65.1765 104.036 65.0298 103.978 64.8611 103.948C64.6998 103.919 64.5311 103.904 64.3551 103.904H62.1221V106.357ZM70.13 107.556L67.182 102.782H68.777L70.856 106.302L72.902 102.782H74.442L71.505 107.556V110.636H70.13V107.556Z" fill="black"/>
<mask id="path-36-inside-12_481_6226" fill="white">
<path d="M104.328 90.9678H165.328V122.304H104.328V90.9678Z"/>
</mask>
<path d="M104.328 90.9678H165.328V122.304H104.328V90.9678Z" fill="#CC7D39"/>
<path d="M104.328 90.9678V90.1009H103.461V90.9678H104.328ZM104.328 91.8346H165.328V90.1009H104.328V91.8346ZM105.195 122.304V90.9678H103.461V122.304H105.195Z" fill="#0D0D0C" mask="url(#path-36-inside-12_481_6226)"/>
<path d="M128.034 110.74C127.527 110.74 127.079 110.65 126.69 110.47C126.303 110.288 126.002 110.038 125.785 109.72C125.568 109.4 125.461 109.036 125.463 108.627C125.461 108.307 125.524 108.011 125.652 107.74C125.78 107.467 125.955 107.239 126.176 107.057C126.4 106.872 126.65 106.755 126.926 106.706V106.662C126.564 106.568 126.276 106.365 126.062 106.052C125.848 105.737 125.742 105.379 125.744 104.977C125.742 104.593 125.839 104.249 126.036 103.947C126.233 103.644 126.504 103.405 126.849 103.23C127.196 103.055 127.591 102.968 128.034 102.968C128.473 102.968 128.864 103.055 129.209 103.23C129.554 103.405 129.825 103.644 130.022 103.947C130.221 104.249 130.322 104.593 130.325 104.977C130.322 105.379 130.213 105.737 129.996 106.052C129.782 106.365 129.497 106.568 129.143 106.662V106.706C129.416 106.755 129.662 106.872 129.881 107.057C130.101 107.239 130.275 107.467 130.406 107.74C130.536 108.011 130.603 108.307 130.605 108.627C130.603 109.036 130.492 109.4 130.273 109.72C130.056 110.038 129.755 110.288 129.368 110.47C128.984 110.65 128.539 110.74 128.034 110.74ZM128.034 109.927C128.377 109.927 128.672 109.872 128.921 109.761C129.17 109.65 129.362 109.494 129.497 109.292C129.633 109.09 129.702 108.853 129.704 108.582C129.702 108.297 129.628 108.044 129.482 107.825C129.337 107.606 129.139 107.434 128.888 107.308C128.639 107.182 128.355 107.12 128.034 107.12C127.712 107.12 127.424 107.182 127.17 107.308C126.919 107.434 126.721 107.606 126.575 107.825C126.433 108.044 126.362 108.297 126.365 108.582C126.362 108.853 126.428 109.09 126.561 109.292C126.696 109.494 126.889 109.65 127.141 109.761C127.392 109.872 127.69 109.927 128.034 109.927ZM128.034 106.337C128.305 106.337 128.545 106.282 128.755 106.174C128.967 106.066 129.133 105.914 129.253 105.72C129.374 105.525 129.436 105.297 129.438 105.036C129.436 104.78 129.375 104.557 129.257 104.368C129.139 104.176 128.975 104.028 128.766 103.924C128.556 103.819 128.313 103.766 128.034 103.766C127.751 103.766 127.504 103.819 127.292 103.924C127.08 104.028 126.916 104.176 126.801 104.368C126.685 104.557 126.628 104.78 126.631 105.036C126.628 105.297 126.686 105.525 126.804 105.72C126.925 105.914 127.091 106.066 127.303 106.174C127.515 106.282 127.759 106.337 128.034 106.337ZM134.533 110.74C134.223 110.735 133.912 110.676 133.602 110.562C133.292 110.449 133.009 110.258 132.752 109.99C132.496 109.719 132.291 109.353 132.136 108.893C131.98 108.43 131.903 107.849 131.903 107.149C131.903 106.479 131.966 105.886 132.091 105.369C132.217 104.849 132.399 104.412 132.638 104.057C132.877 103.7 133.165 103.429 133.502 103.245C133.842 103.06 134.225 102.968 134.651 102.968C135.075 102.968 135.451 103.053 135.781 103.223C136.114 103.39 136.385 103.624 136.594 103.924C136.803 104.225 136.939 104.571 137 104.962H136.099C136.015 104.623 135.853 104.341 135.612 104.117C135.37 103.892 135.05 103.78 134.651 103.78C134.065 103.78 133.603 104.035 133.266 104.545C132.931 105.055 132.762 105.77 132.76 106.691H132.819C132.957 106.482 133.121 106.303 133.31 106.156C133.502 106.005 133.714 105.89 133.946 105.808C134.177 105.727 134.422 105.686 134.681 105.686C135.114 105.686 135.511 105.795 135.87 106.011C136.23 106.226 136.518 106.522 136.734 106.902C136.951 107.278 137.06 107.711 137.06 108.198C137.06 108.666 136.955 109.095 136.746 109.484C136.536 109.87 136.242 110.178 135.863 110.407C135.486 110.634 135.043 110.745 134.533 110.74ZM134.533 109.927C134.843 109.927 135.121 109.849 135.368 109.694C135.616 109.539 135.812 109.331 135.955 109.07C136.1 108.809 136.173 108.518 136.173 108.198C136.173 107.886 136.103 107.601 135.962 107.345C135.825 107.086 135.634 106.881 135.39 106.728C135.149 106.575 134.873 106.499 134.562 106.499C134.329 106.499 134.111 106.546 133.909 106.639C133.707 106.731 133.529 106.856 133.377 107.016C133.227 107.176 133.108 107.36 133.022 107.567C132.936 107.771 132.893 107.986 132.893 108.213C132.893 108.513 132.963 108.794 133.103 109.055C133.246 109.316 133.441 109.527 133.687 109.687C133.936 109.847 134.218 109.927 134.533 109.927ZM140.743 111.582V102.125H141.349V111.582H140.743ZM142.782 104.962C142.738 104.588 142.558 104.298 142.243 104.091C141.928 103.884 141.541 103.78 141.083 103.78C140.748 103.78 140.455 103.835 140.204 103.943C139.955 104.051 139.761 104.2 139.62 104.39C139.482 104.579 139.413 104.795 139.413 105.036C139.413 105.238 139.461 105.412 139.558 105.557C139.656 105.7 139.782 105.819 139.934 105.915C140.087 106.009 140.247 106.087 140.415 106.148C140.582 106.207 140.736 106.255 140.876 106.292L141.645 106.499C141.842 106.551 142.061 106.622 142.302 106.713C142.546 106.804 142.779 106.929 143 107.086C143.224 107.242 143.409 107.441 143.554 107.685C143.7 107.929 143.772 108.228 143.772 108.582C143.772 108.991 143.665 109.361 143.451 109.691C143.239 110.021 142.929 110.283 142.52 110.477C142.114 110.672 141.62 110.769 141.039 110.769C140.497 110.769 140.028 110.682 139.631 110.507C139.237 110.332 138.927 110.088 138.701 109.776C138.476 109.463 138.35 109.1 138.32 108.686H139.266C139.29 108.972 139.386 109.208 139.554 109.395C139.724 109.58 139.938 109.718 140.197 109.809C140.458 109.897 140.738 109.942 141.039 109.942C141.388 109.942 141.702 109.885 141.981 109.772C142.259 109.656 142.479 109.496 142.642 109.292C142.804 109.085 142.886 108.843 142.886 108.568C142.886 108.316 142.816 108.112 142.675 107.954C142.535 107.797 142.35 107.669 142.121 107.57C141.892 107.472 141.645 107.386 141.379 107.312L140.448 107.046C139.857 106.876 139.389 106.633 139.044 106.318C138.699 106.003 138.527 105.59 138.527 105.081C138.527 104.657 138.641 104.288 138.87 103.972C139.102 103.655 139.412 103.409 139.801 103.234C140.193 103.056 140.63 102.968 141.113 102.968C141.6 102.968 142.034 103.055 142.413 103.23C142.792 103.402 143.093 103.639 143.314 103.939C143.538 104.24 143.657 104.581 143.669 104.962H142.782Z" fill="black"/>
<mask id="path-39-inside-13_481_6226" fill="white">
<path d="M165.328 90.9678H224.328V122.304H165.328V90.9678Z"/>
</mask>
<path d="M165.328 90.9678H224.328V122.304H165.328V90.9678Z" fill="#CC7D39"/>
<path d="M165.328 90.9678V90.1009H164.461V90.9678H165.328ZM165.328 91.8346H224.328V90.1009H165.328V91.8346ZM166.195 122.304V90.9678H164.461V122.304H166.195Z" fill="#0D0D0C" mask="url(#path-39-inside-13_481_6226)"/>
<path d="M185.848 110.636L189.231 103.943V103.884H185.33V103.071H190.177V103.928L186.808 110.636H185.848ZM193.937 110.74C193.45 110.74 193.015 110.656 192.633 110.488C192.254 110.321 191.952 110.088 191.728 109.79C191.507 109.49 191.386 109.141 191.366 108.745H192.297C192.317 108.989 192.401 109.199 192.548 109.377C192.696 109.551 192.889 109.687 193.128 109.783C193.367 109.879 193.632 109.927 193.922 109.927C194.248 109.927 194.536 109.87 194.787 109.757C195.038 109.644 195.235 109.486 195.378 109.284C195.521 109.082 195.592 108.848 195.592 108.582C195.592 108.304 195.523 108.059 195.385 107.847C195.247 107.633 195.045 107.466 194.779 107.345C194.514 107.224 194.188 107.164 193.804 107.164H193.198V106.351H193.804C194.105 106.351 194.368 106.297 194.595 106.189C194.824 106.08 195.002 105.928 195.13 105.731C195.261 105.534 195.326 105.302 195.326 105.036C195.326 104.78 195.27 104.557 195.156 104.368C195.043 104.178 194.883 104.03 194.676 103.924C194.472 103.819 194.23 103.766 193.952 103.766C193.691 103.766 193.445 103.814 193.213 103.91C192.984 104.003 192.797 104.14 192.652 104.32C192.507 104.497 192.428 104.711 192.415 104.962H191.529C191.544 104.566 191.663 104.219 191.887 103.921C192.111 103.62 192.404 103.386 192.766 103.219C193.131 103.051 193.531 102.968 193.967 102.968C194.435 102.968 194.836 103.063 195.171 103.252C195.506 103.439 195.763 103.687 195.943 103.995C196.123 104.302 196.213 104.635 196.213 104.992C196.213 105.418 196.101 105.781 195.877 106.082C195.655 106.382 195.353 106.59 194.972 106.706V106.765C195.449 106.844 195.822 107.047 196.091 107.375C196.359 107.7 196.493 108.102 196.493 108.582C196.493 108.994 196.381 109.363 196.157 109.691C195.936 110.016 195.633 110.272 195.249 110.459C194.864 110.646 194.427 110.74 193.937 110.74ZM200.235 111.582V102.125H200.841V111.582H200.235ZM202.274 104.962C202.23 104.588 202.05 104.298 201.735 104.091C201.42 103.884 201.033 103.78 200.575 103.78C200.24 103.78 199.947 103.835 199.696 103.943C199.447 104.051 199.253 104.2 199.112 104.39C198.975 104.579 198.906 104.795 198.906 105.036C198.906 105.238 198.954 105.412 199.05 105.557C199.148 105.7 199.274 105.819 199.426 105.915C199.579 106.009 199.739 106.087 199.907 106.148C200.074 106.207 200.228 106.255 200.368 106.292L201.137 106.499C201.334 106.551 201.553 106.622 201.794 106.713C202.038 106.804 202.271 106.929 202.492 107.086C202.716 107.242 202.901 107.441 203.046 107.685C203.192 107.929 203.264 108.228 203.264 108.582C203.264 108.991 203.157 109.361 202.943 109.691C202.731 110.021 202.421 110.283 202.012 110.477C201.606 110.672 201.112 110.769 200.531 110.769C199.989 110.769 199.52 110.682 199.124 110.507C198.729 110.332 198.419 110.088 198.193 109.776C197.969 109.463 197.842 109.1 197.812 108.686H198.758C198.782 108.972 198.878 109.208 199.046 109.395C199.216 109.58 199.43 109.718 199.689 109.809C199.95 109.897 200.23 109.942 200.531 109.942C200.881 109.942 201.195 109.885 201.473 109.772C201.751 109.656 201.971 109.496 202.134 109.292C202.297 109.085 202.378 108.843 202.378 108.568C202.378 108.316 202.308 108.112 202.167 107.954C202.027 107.797 201.842 107.669 201.613 107.57C201.384 107.472 201.137 107.386 200.871 107.312L199.94 107.046C199.349 106.876 198.881 106.633 198.536 106.318C198.191 106.003 198.019 105.59 198.019 105.081C198.019 104.657 198.134 104.288 198.363 103.972C198.594 103.655 198.904 103.409 199.293 103.234C199.685 103.056 200.122 102.968 200.605 102.968C201.092 102.968 201.526 103.055 201.905 103.23C202.284 103.402 202.585 103.639 202.806 103.939C203.03 104.24 203.149 104.581 203.161 104.962H202.274Z" fill="black"/>
<mask id="path-42-inside-14_481_6226" fill="white">
<path d="M224.328 90.9678H285.328V122.304H224.328V90.9678Z"/>
</mask>
<path d="M224.328 90.9678H285.328V122.304H224.328V90.9678Z" fill="#CC7D39"/>
<path d="M224.328 90.9678V90.1009H223.461V90.9678H224.328ZM224.328 91.8346H285.328V90.1009H224.328V91.8346ZM225.195 122.304V90.9678H223.461V122.304H225.195Z" fill="#0D0D0C" mask="url(#path-42-inside-14_481_6226)"/>
<path d="M248.02 102.968C248.33 102.97 248.64 103.029 248.951 103.145C249.261 103.261 249.544 103.453 249.8 103.721C250.056 103.987 250.262 104.35 250.417 104.811C250.572 105.271 250.65 105.849 250.65 106.543C250.65 107.216 250.586 107.813 250.458 108.335C250.332 108.855 250.15 109.293 249.911 109.65C249.675 110.007 249.386 110.278 249.047 110.463C248.709 110.647 248.327 110.74 247.901 110.74C247.478 110.74 247.1 110.656 246.767 110.488C246.437 110.319 246.167 110.083 245.955 109.783C245.745 109.48 245.611 109.129 245.552 108.73H246.453C246.535 109.077 246.696 109.364 246.937 109.591C247.181 109.815 247.503 109.927 247.901 109.927C248.485 109.927 248.946 109.672 249.283 109.162C249.623 108.653 249.793 107.932 249.793 107.001H249.734C249.596 107.208 249.432 107.387 249.242 107.537C249.053 107.687 248.842 107.803 248.611 107.884C248.379 107.966 248.133 108.006 247.872 108.006C247.438 108.006 247.041 107.899 246.679 107.685C246.319 107.468 246.031 107.171 245.814 106.795C245.6 106.415 245.493 105.982 245.493 105.494C245.493 105.031 245.596 104.608 245.803 104.224C246.013 103.837 246.306 103.529 246.682 103.3C247.062 103.071 247.507 102.96 248.02 102.968ZM248.02 103.78C247.709 103.78 247.43 103.858 247.181 104.013C246.935 104.166 246.739 104.373 246.594 104.634C246.451 104.892 246.38 105.179 246.38 105.494C246.38 105.81 246.449 106.096 246.586 106.355C246.727 106.611 246.918 106.816 247.159 106.968C247.403 107.118 247.68 107.194 247.99 107.194C248.224 107.194 248.442 107.148 248.644 107.057C248.846 106.963 249.022 106.836 249.172 106.676C249.325 106.514 249.444 106.33 249.53 106.126C249.617 105.919 249.66 105.704 249.66 105.48C249.66 105.184 249.588 104.907 249.445 104.648C249.305 104.39 249.111 104.181 248.862 104.02C248.616 103.86 248.335 103.78 248.02 103.78ZM254.57 110.74C254.013 110.74 253.539 110.588 253.148 110.285C252.756 109.98 252.457 109.538 252.25 108.959C252.043 108.378 251.94 107.676 251.94 106.854C251.94 106.036 252.043 105.338 252.25 104.759C252.459 104.178 252.76 103.735 253.151 103.429C253.545 103.122 254.018 102.968 254.57 102.968C255.121 102.968 255.593 103.122 255.985 103.429C256.379 103.735 256.679 104.178 256.886 104.759C257.095 105.338 257.2 106.036 257.2 106.854C257.2 107.676 257.096 108.378 256.89 108.959C256.683 109.538 256.384 109.98 255.992 110.285C255.6 110.588 255.126 110.74 254.57 110.74ZM254.57 109.927C255.121 109.927 255.55 109.661 255.855 109.129C256.161 108.597 256.313 107.839 256.313 106.854C256.313 106.199 256.243 105.641 256.103 105.18C255.965 104.72 255.765 104.369 255.504 104.128C255.246 103.886 254.934 103.766 254.57 103.766C254.023 103.766 253.596 104.035 253.288 104.575C252.98 105.111 252.826 105.871 252.826 106.854C252.826 107.509 252.895 108.065 253.033 108.523C253.171 108.981 253.369 109.33 253.628 109.569C253.889 109.808 254.203 109.927 254.57 109.927ZM260.835 111.582V102.125H261.44V111.582H260.835ZM262.874 104.962C262.829 104.588 262.65 104.298 262.334 104.091C262.019 103.884 261.633 103.78 261.175 103.78C260.84 103.78 260.547 103.835 260.295 103.943C260.047 104.051 259.852 104.2 259.712 104.39C259.574 104.579 259.505 104.795 259.505 105.036C259.505 105.238 259.553 105.412 259.649 105.557C259.747 105.7 259.873 105.819 260.026 105.915C260.178 106.009 260.338 106.087 260.506 106.148C260.673 106.207 260.827 106.255 260.968 106.292L261.736 106.499C261.933 106.551 262.152 106.622 262.394 106.713C262.637 106.804 262.87 106.929 263.092 107.086C263.316 107.242 263.5 107.441 263.646 107.685C263.791 107.929 263.864 108.228 263.864 108.582C263.864 108.991 263.757 109.361 263.542 109.691C263.331 110.021 263.02 110.283 262.611 110.477C262.205 110.672 261.711 110.769 261.13 110.769C260.588 110.769 260.119 110.682 259.723 110.507C259.329 110.332 259.019 110.088 258.792 109.776C258.568 109.463 258.441 109.1 258.412 108.686H259.357C259.382 108.972 259.478 109.208 259.645 109.395C259.815 109.58 260.029 109.718 260.288 109.809C260.549 109.897 260.83 109.942 261.13 109.942C261.48 109.942 261.794 109.885 262.072 109.772C262.35 109.656 262.571 109.496 262.733 109.292C262.896 109.085 262.977 108.843 262.977 108.568C262.977 108.316 262.907 108.112 262.767 107.954C262.626 107.797 262.442 107.669 262.213 107.57C261.983 107.472 261.736 107.386 261.47 107.312L260.539 107.046C259.948 106.876 259.48 106.633 259.136 106.318C258.791 106.003 258.618 105.59 258.618 105.081C258.618 104.657 258.733 104.288 258.962 103.972C259.193 103.655 259.504 103.409 259.893 103.234C260.284 103.056 260.721 102.968 261.204 102.968C261.692 102.968 262.125 103.055 262.504 103.23C262.884 103.402 263.184 103.639 263.406 103.939C263.63 104.24 263.748 104.581 263.76 104.962H262.874Z" fill="black"/>
<mask id="path-45-inside-15_481_6226" fill="white">
<path d="M285.328 90.9678H345.328V122.304H285.328V90.9678Z"/>
</mask>
<path d="M285.328 90.9678H345.328V122.304H285.328V90.9678Z" fill="#CC7D39"/>
<path d="M285.328 90.9678V90.1009H284.461V90.9678H285.328ZM285.328 91.8346H345.328V90.1009H285.328V91.8346ZM286.195 122.304V90.9678H284.461V122.304H286.195Z" fill="#0D0D0C" mask="url(#path-45-inside-15_481_6226)"/>
<path d="M306.848 110.636L310.231 103.943V103.884H306.33V103.071H311.177V103.928L307.808 110.636H306.848ZM314.825 110.74C314.317 110.74 313.869 110.65 313.48 110.47C313.093 110.288 312.792 110.038 312.575 109.72C312.358 109.4 312.251 109.036 312.254 108.627C312.251 108.307 312.314 108.011 312.442 107.74C312.57 107.467 312.745 107.239 312.967 107.057C313.191 106.872 313.441 106.755 313.716 106.706V106.662C313.354 106.568 313.066 106.365 312.852 106.052C312.638 105.737 312.532 105.379 312.534 104.977C312.532 104.593 312.629 104.249 312.826 103.947C313.023 103.644 313.294 103.405 313.639 103.23C313.986 103.055 314.381 102.968 314.825 102.968C315.263 102.968 315.655 103.055 315.999 103.23C316.344 103.405 316.615 103.644 316.812 103.947C317.011 104.249 317.112 104.593 317.115 104.977C317.112 105.379 317.003 105.737 316.786 106.052C316.572 106.365 316.287 106.568 315.933 106.662V106.706C316.206 106.755 316.452 106.872 316.672 107.057C316.891 107.239 317.066 107.467 317.196 107.74C317.327 108.011 317.393 108.307 317.396 108.627C317.393 109.036 317.282 109.4 317.063 109.72C316.846 110.038 316.545 110.288 316.158 110.47C315.774 110.65 315.329 110.74 314.825 110.74ZM314.825 109.927C315.167 109.927 315.462 109.872 315.711 109.761C315.96 109.65 316.152 109.494 316.287 109.292C316.423 109.09 316.492 108.853 316.494 108.582C316.492 108.297 316.418 108.044 316.273 107.825C316.127 107.606 315.929 107.434 315.678 107.308C315.429 107.182 315.145 107.12 314.825 107.12C314.502 107.12 314.214 107.182 313.96 107.308C313.709 107.434 313.511 107.606 313.366 107.825C313.223 108.044 313.153 108.297 313.155 108.582C313.153 108.853 313.218 109.09 313.351 109.292C313.486 109.494 313.679 109.65 313.931 109.761C314.182 109.872 314.48 109.927 314.825 109.927ZM314.825 106.337C315.095 106.337 315.336 106.282 315.545 106.174C315.757 106.066 315.923 105.914 316.044 105.72C316.164 105.525 316.226 105.297 316.228 105.036C316.226 104.78 316.165 104.557 316.047 104.368C315.929 104.176 315.765 104.028 315.556 103.924C315.347 103.819 315.103 103.766 314.825 103.766C314.541 103.766 314.294 103.819 314.082 103.924C313.87 104.028 313.707 104.176 313.591 104.368C313.475 104.557 313.418 104.78 313.421 105.036C313.418 105.297 313.476 105.525 313.595 105.72C313.715 105.914 313.881 106.066 314.093 106.174C314.305 106.282 314.549 106.337 314.825 106.337ZM321.042 111.582V102.125H321.648V111.582H321.042ZM323.081 104.962C323.037 104.588 322.857 104.298 322.542 104.091C322.227 103.884 321.84 103.78 321.382 103.78C321.047 103.78 320.754 103.835 320.503 103.943C320.254 104.051 320.06 104.2 319.919 104.39C319.782 104.579 319.713 104.795 319.713 105.036C319.713 105.238 319.761 105.412 319.857 105.557C319.955 105.7 320.081 105.819 320.233 105.915C320.386 106.009 320.546 106.087 320.714 106.148C320.881 106.207 321.035 106.255 321.175 106.292L321.944 106.499C322.141 106.551 322.36 106.622 322.601 106.713C322.845 106.804 323.078 106.929 323.299 107.086C323.523 107.242 323.708 107.441 323.853 107.685C323.999 107.929 324.071 108.228 324.071 108.582C324.071 108.991 323.964 109.361 323.75 109.691C323.538 110.021 323.228 110.283 322.819 110.477C322.413 110.672 321.919 110.769 321.338 110.769C320.796 110.769 320.327 110.682 319.93 110.507C319.536 110.332 319.226 110.088 319 109.776C318.776 109.463 318.649 109.1 318.619 108.686H319.565C319.589 108.972 319.685 109.208 319.853 109.395C320.023 109.58 320.237 109.718 320.496 109.809C320.757 109.897 321.037 109.942 321.338 109.942C321.688 109.942 322.002 109.885 322.28 109.772C322.558 109.656 322.778 109.496 322.941 109.292C323.104 109.085 323.185 108.843 323.185 108.568C323.185 108.316 323.115 108.112 322.974 107.954C322.834 107.797 322.649 107.669 322.42 107.57C322.191 107.472 321.944 107.386 321.678 107.312L320.747 107.046C320.156 106.876 319.688 106.633 319.343 106.318C318.998 106.003 318.826 105.59 318.826 105.081C318.826 104.657 318.941 104.288 319.17 103.972C319.401 103.655 319.711 103.409 320.1 103.234C320.492 103.056 320.929 102.968 321.412 102.968C321.899 102.968 322.333 103.055 322.712 103.23C323.091 103.402 323.392 103.639 323.613 103.939C323.837 104.24 323.956 104.581 323.968 104.962H323.081Z" fill="black"/>
</g>
<g clip-path="url(#clip8_481_6226)">
<mask id="path-48-inside-16_481_6226" fill="white">
<path d="M0.328125 122.304H104.328V153.641H0.328125V122.304Z"/>
</mask>
<path d="M0.328125 122.304H104.328V153.641H0.328125V122.304Z" fill="#C36A1D"/>
<path d="M0.328125 122.304V121.437H-0.538709V122.304H0.328125ZM0.328125 123.171H104.328V121.437H0.328125V123.171ZM1.19496 153.641V122.304H-0.538709V153.641H1.19496Z" fill="#0D0D0C" mask="url(#path-48-inside-16_481_6226)"/>
<path d="M15.1744 134.119H16.5494V140.785H20.5424V141.973H15.1744V134.119ZM24.8348 135.054C24.4168 135.054 24.0538 135.138 23.7458 135.307C23.4451 135.475 23.1995 135.703 23.0088 135.989C22.8181 136.267 22.6751 136.586 22.5798 136.946C22.4918 137.305 22.4478 137.672 22.4478 138.046C22.4478 138.42 22.4918 138.786 22.5798 139.146C22.6751 139.505 22.8181 139.828 23.0088 140.114C23.1995 140.392 23.4451 140.616 23.7458 140.785C24.0538 140.953 24.4168 141.038 24.8348 141.038C25.2528 141.038 25.6121 140.953 25.9128 140.785C26.2208 140.616 26.4701 140.392 26.6608 140.114C26.8515 139.828 26.9908 139.505 27.0788 139.146C27.1741 138.786 27.2218 138.42 27.2218 138.046C27.2218 137.672 27.1741 137.305 27.0788 136.946C26.9908 136.586 26.8515 136.267 26.6608 135.989C26.4701 135.703 26.2208 135.475 25.9128 135.307C25.6121 135.138 25.2528 135.054 24.8348 135.054ZM24.8348 133.932C25.4215 133.932 25.9458 134.042 26.4078 134.262C26.8771 134.482 27.2731 134.779 27.5958 135.153C27.9185 135.527 28.1641 135.963 28.3328 136.462C28.5088 136.96 28.5968 137.488 28.5968 138.046C28.5968 138.61 28.5088 139.142 28.3328 139.641C28.1641 140.139 27.9185 140.576 27.5958 140.95C27.2731 141.324 26.8771 141.621 26.4078 141.841C25.9458 142.053 25.4215 142.16 24.8348 142.16C24.2481 142.16 23.7201 142.053 23.2508 141.841C22.7888 141.621 22.3965 141.324 22.0738 140.95C21.7511 140.576 21.5018 140.139 21.3258 139.641C21.1571 139.142 21.0728 138.61 21.0728 138.046C21.0728 137.488 21.1571 136.96 21.3258 136.462C21.5018 135.963 21.7511 135.527 22.0738 135.153C22.3965 134.779 22.7888 134.482 23.2508 134.262C23.7201 134.042 24.2481 133.932 24.8348 133.932ZM29.0782 134.119H30.4752L31.8942 140.125H31.9162L33.5002 134.119H34.9082L36.4482 140.125H36.4702L37.9332 134.119H39.3302L37.1632 141.973H35.7662L34.1932 135.967H34.1712L32.5652 141.973H31.1462L29.0782 134.119ZM43.2974 134.119H46.5534C47.1548 134.119 47.6754 134.221 48.1154 134.427C48.5554 134.632 48.9148 134.914 49.1934 135.274C49.4721 135.626 49.6774 136.04 49.8094 136.517C49.9488 136.993 50.0184 137.503 50.0184 138.046C50.0184 138.588 49.9488 139.098 49.8094 139.575C49.6774 140.051 49.4721 140.469 49.1934 140.829C48.9148 141.181 48.5554 141.459 48.1154 141.665C47.6754 141.87 47.1548 141.973 46.5534 141.973H43.2974V134.119ZM44.6724 140.851H46.0254C46.5608 140.851 46.9971 140.781 47.3344 140.642C47.6791 140.495 47.9468 140.297 48.1374 140.048C48.3354 139.791 48.4674 139.494 48.5334 139.157C48.6068 138.812 48.6434 138.442 48.6434 138.046C48.6434 137.65 48.6068 137.283 48.5334 136.946C48.4674 136.601 48.3354 136.304 48.1374 136.055C47.9468 135.798 47.6791 135.6 47.3344 135.461C46.9971 135.314 46.5608 135.241 46.0254 135.241H44.6724V140.851ZM51.2359 134.119H56.8899V135.307H52.6109V137.364H56.5709V138.486H52.6109V140.785H56.9669V141.973H51.2359V134.119ZM58.1426 134.119H60.0786L62.2456 140.268H62.2676L64.3796 134.119H66.2936V141.973H64.9846V135.912H64.9626L62.7846 141.973H61.6516L59.4736 135.912H59.4516V141.973H58.1426V134.119ZM70.041 134.119H71.504L74.529 141.973H73.055L72.318 139.894H69.183L68.446 141.973H67.027L70.041 134.119ZM69.557 138.849H71.955L70.778 135.472H70.745L69.557 138.849ZM75.2219 134.119H76.6739L80.2599 139.905H80.2819V134.119H81.5909V141.973H80.1389L76.5639 136.198H76.5309V141.973H75.2219V134.119ZM83.2154 134.119H86.4714C87.0727 134.119 87.5934 134.221 88.0334 134.427C88.4734 134.632 88.8327 134.914 89.1114 135.274C89.3901 135.626 89.5954 136.04 89.7274 136.517C89.8667 136.993 89.9364 137.503 89.9364 138.046C89.9364 138.588 89.8667 139.098 89.7274 139.575C89.5954 140.051 89.3901 140.469 89.1114 140.829C88.8327 141.181 88.4734 141.459 88.0334 141.665C87.5934 141.87 87.0727 141.973 86.4714 141.973H83.2154V134.119ZM84.5904 140.851H85.9434C86.4787 140.851 86.9151 140.781 87.2524 140.642C87.5971 140.495 87.8647 140.297 88.0554 140.048C88.2534 139.791 88.3854 139.494 88.4514 139.157C88.5247 138.812 88.5614 138.442 88.5614 138.046C88.5614 137.65 88.5247 137.283 88.4514 136.946C88.3854 136.601 88.2534 136.304 88.0554 136.055C87.8647 135.798 87.5971 135.6 87.2524 135.461C86.9151 135.314 86.4787 135.241 85.9434 135.241H84.5904V140.851Z" fill="black"/>
<mask id="path-51-inside-17_481_6226" fill="white">
<path d="M104.328 122.304H165.328V153.641H104.328V122.304Z"/>
</mask>
<path d="M104.328 122.304H165.328V153.641H104.328V122.304Z" fill="#CC7D39"/>
<path d="M104.328 122.304V121.437H103.461V122.304H104.328ZM104.328 123.171H165.328V121.437H104.328V123.171ZM105.195 153.641V122.304H103.461V153.641H105.195Z" fill="#0D0D0C" mask="url(#path-51-inside-17_481_6226)"/>
<path d="M125.848 141.973L129.231 135.279V135.22H125.33V134.408H130.177V135.265L126.808 141.973H125.848ZM133.937 142.076C133.45 142.076 133.015 141.992 132.633 141.825C132.254 141.657 131.952 141.425 131.728 141.127C131.507 140.826 131.386 140.478 131.366 140.081H132.297C132.317 140.325 132.401 140.536 132.548 140.713C132.696 140.888 132.889 141.023 133.128 141.119C133.367 141.215 133.632 141.263 133.922 141.263C134.248 141.263 134.536 141.207 134.787 141.094C135.038 140.98 135.235 140.823 135.378 140.621C135.521 140.419 135.592 140.185 135.592 139.919C135.592 139.641 135.523 139.396 135.385 139.184C135.247 138.97 135.045 138.802 134.779 138.681C134.514 138.561 134.188 138.5 133.804 138.5H133.198V137.688H133.804C134.105 137.688 134.368 137.634 134.595 137.525C134.824 137.417 135.002 137.264 135.13 137.067C135.261 136.87 135.326 136.639 135.326 136.373C135.326 136.117 135.27 135.894 135.156 135.704C135.043 135.514 134.883 135.367 134.676 135.261C134.472 135.155 134.23 135.102 133.952 135.102C133.691 135.102 133.445 135.15 133.213 135.246C132.984 135.34 132.797 135.476 132.652 135.656C132.507 135.833 132.428 136.048 132.415 136.299H131.529C131.544 135.902 131.663 135.555 131.887 135.257C132.111 134.957 132.404 134.723 132.766 134.555C133.131 134.388 133.531 134.304 133.967 134.304C134.435 134.304 134.836 134.399 135.171 134.589C135.506 134.776 135.763 135.023 135.943 135.331C136.123 135.639 136.213 135.971 136.213 136.328C136.213 136.754 136.101 137.118 135.877 137.418C135.655 137.719 135.353 137.927 134.972 138.042V138.101C135.449 138.18 135.822 138.383 136.091 138.711C136.359 139.036 136.493 139.439 136.493 139.919C136.493 140.33 136.381 140.699 136.157 141.027C135.936 141.352 135.633 141.608 135.249 141.795C134.864 141.983 134.427 142.076 133.937 142.076ZM140.235 142.918V133.462H140.841V142.918H140.235ZM142.274 136.299C142.23 135.925 142.05 135.634 141.735 135.427C141.42 135.22 141.033 135.117 140.575 135.117C140.24 135.117 139.947 135.171 139.696 135.279C139.447 135.388 139.253 135.537 139.112 135.726C138.975 135.916 138.906 136.131 138.906 136.373C138.906 136.575 138.954 136.748 139.05 136.894C139.148 137.036 139.274 137.156 139.426 137.252C139.579 137.345 139.739 137.423 139.907 137.485C140.074 137.544 140.228 137.592 140.368 137.629L141.137 137.835C141.334 137.887 141.553 137.959 141.794 138.05C142.038 138.141 142.271 138.265 142.492 138.423C142.716 138.578 142.901 138.777 143.046 139.021C143.192 139.265 143.264 139.564 143.264 139.919C143.264 140.328 143.157 140.697 142.943 141.027C142.731 141.357 142.421 141.619 142.012 141.814C141.606 142.008 141.112 142.106 140.531 142.106C139.989 142.106 139.52 142.018 139.124 141.843C138.729 141.669 138.419 141.425 138.193 141.112C137.969 140.799 137.842 140.436 137.812 140.022H138.758C138.782 140.308 138.878 140.544 139.046 140.732C139.216 140.916 139.43 141.054 139.689 141.145C139.95 141.234 140.23 141.278 140.531 141.278C140.881 141.278 141.195 141.222 141.473 141.108C141.751 140.993 141.971 140.832 142.134 140.628C142.297 140.421 142.378 140.18 142.378 139.904C142.378 139.653 142.308 139.448 142.167 139.291C142.027 139.133 141.842 139.005 141.613 138.907C141.384 138.808 141.137 138.722 140.871 138.648L139.94 138.382C139.349 138.212 138.881 137.97 138.536 137.654C138.191 137.339 138.019 136.927 138.019 136.417C138.019 135.993 138.134 135.624 138.363 135.309C138.594 134.991 138.904 134.745 139.293 134.57C139.685 134.393 140.122 134.304 140.605 134.304C141.092 134.304 141.526 134.392 141.905 134.566C142.284 134.739 142.585 134.975 142.806 135.276C143.03 135.576 143.149 135.917 143.161 136.299H142.274Z" fill="black"/>
<mask id="path-54-inside-18_481_6226" fill="white">
<path d="M165.328 122.304H224.328V153.641H165.328V122.304Z"/>
</mask>
<path d="M165.328 122.304H224.328V153.641H165.328V122.304Z" fill="#CC7D39"/>
<path d="M165.328 122.304V121.437H164.461V122.304H165.328ZM165.328 123.171H224.328V121.437H165.328V123.171ZM166.195 153.641V122.304H164.461V153.641H166.195Z" fill="#0D0D0C" mask="url(#path-54-inside-18_481_6226)"/>
<path d="M188.123 142.076C187.813 142.071 187.503 142.012 187.192 141.899C186.882 141.785 186.599 141.595 186.343 141.326C186.087 141.055 185.881 140.69 185.726 140.229C185.571 139.766 185.493 139.185 185.493 138.486C185.493 137.816 185.556 137.222 185.681 136.705C185.807 136.186 185.989 135.748 186.228 135.394C186.467 135.037 186.755 134.766 187.092 134.581C187.432 134.396 187.815 134.304 188.241 134.304C188.665 134.304 189.042 134.389 189.372 134.559C189.704 134.726 189.975 134.96 190.184 135.261C190.394 135.561 190.529 135.907 190.591 136.299H189.689C189.606 135.959 189.443 135.677 189.202 135.453C188.96 135.229 188.64 135.117 188.241 135.117C187.655 135.117 187.193 135.372 186.856 135.881C186.521 136.391 186.352 137.107 186.35 138.028H186.409C186.547 137.818 186.711 137.64 186.9 137.492C187.092 137.342 187.304 137.226 187.536 137.145C187.767 137.063 188.012 137.023 188.271 137.023C188.704 137.023 189.101 137.131 189.46 137.348C189.82 137.562 190.108 137.859 190.325 138.238C190.541 138.615 190.65 139.047 190.65 139.535C190.65 140.003 190.545 140.431 190.336 140.82C190.126 141.207 189.832 141.515 189.453 141.744C189.076 141.97 188.633 142.081 188.123 142.076ZM188.123 141.263C188.433 141.263 188.712 141.186 188.958 141.031C189.207 140.876 189.402 140.667 189.545 140.406C189.691 140.145 189.763 139.855 189.763 139.535C189.763 139.222 189.693 138.938 189.553 138.681C189.415 138.423 189.224 138.217 188.98 138.065C188.739 137.912 188.463 137.835 188.153 137.835C187.919 137.835 187.701 137.882 187.499 137.976C187.297 138.067 187.12 138.193 186.967 138.353C186.817 138.513 186.698 138.696 186.612 138.903C186.526 139.107 186.483 139.323 186.483 139.549C186.483 139.85 186.553 140.131 186.694 140.392C186.836 140.653 187.031 140.863 187.277 141.023C187.526 141.183 187.808 141.263 188.123 141.263ZM194.511 134.304C194.821 134.307 195.131 134.366 195.442 134.481C195.752 134.597 196.035 134.789 196.291 135.058C196.547 135.324 196.753 135.687 196.908 136.147C197.063 136.608 197.141 137.185 197.141 137.88C197.141 138.552 197.077 139.149 196.949 139.671C196.823 140.191 196.641 140.629 196.402 140.986C196.166 141.343 195.877 141.614 195.538 141.799C195.2 141.984 194.819 142.076 194.393 142.076C193.969 142.076 193.591 141.992 193.259 141.825C192.929 141.655 192.658 141.42 192.446 141.119C192.237 140.816 192.102 140.466 192.043 140.067H192.945C193.026 140.414 193.187 140.701 193.428 140.927C193.672 141.151 193.994 141.263 194.393 141.263C194.976 141.263 195.437 141.009 195.774 140.499C196.114 139.989 196.284 139.269 196.284 138.338H196.225C196.087 138.545 195.923 138.723 195.733 138.873C195.544 139.024 195.333 139.139 195.102 139.221C194.87 139.302 194.624 139.343 194.363 139.343C193.93 139.343 193.532 139.235 193.17 139.021C192.81 138.805 192.522 138.508 192.305 138.131C192.091 137.752 191.984 137.318 191.984 136.831C191.984 136.368 192.088 135.944 192.294 135.56C192.504 135.173 192.797 134.866 193.174 134.637C193.553 134.408 193.999 134.297 194.511 134.304ZM194.511 135.117C194.2 135.117 193.921 135.194 193.672 135.35C193.426 135.502 193.23 135.709 193.085 135.97C192.942 136.229 192.871 136.516 192.871 136.831C192.871 137.146 192.94 137.433 193.078 137.691C193.218 137.948 193.409 138.152 193.65 138.305C193.894 138.455 194.171 138.53 194.481 138.53C194.715 138.53 194.933 138.484 195.135 138.393C195.337 138.3 195.513 138.173 195.663 138.013C195.816 137.85 195.935 137.667 196.022 137.462C196.108 137.256 196.151 137.04 196.151 136.816C196.151 136.52 196.079 136.243 195.937 135.985C195.796 135.726 195.602 135.517 195.353 135.357C195.107 135.197 194.826 135.117 194.511 135.117ZM200.825 142.918V133.462H201.43V142.918H200.825ZM202.864 136.299C202.819 135.925 202.639 135.634 202.324 135.427C202.009 135.22 201.622 135.117 201.164 135.117C200.829 135.117 200.536 135.171 200.285 135.279C200.037 135.388 199.842 135.537 199.702 135.726C199.564 135.916 199.495 136.131 199.495 136.373C199.495 136.575 199.543 136.748 199.639 136.894C199.737 137.036 199.863 137.156 200.016 137.252C200.168 137.345 200.328 137.423 200.496 137.485C200.663 137.544 200.817 137.592 200.958 137.629L201.726 137.835C201.923 137.887 202.142 137.959 202.383 138.05C202.627 138.141 202.86 138.265 203.082 138.423C203.306 138.578 203.49 138.777 203.636 139.021C203.781 139.265 203.854 139.564 203.854 139.919C203.854 140.328 203.746 140.697 203.532 141.027C203.32 141.357 203.01 141.619 202.601 141.814C202.195 142.008 201.701 142.106 201.12 142.106C200.578 142.106 200.109 142.018 199.713 141.843C199.319 141.669 199.008 141.425 198.782 141.112C198.558 140.799 198.431 140.436 198.401 140.022H199.347C199.372 140.308 199.468 140.544 199.635 140.732C199.805 140.916 200.019 141.054 200.278 141.145C200.539 141.234 200.82 141.278 201.12 141.278C201.47 141.278 201.784 141.222 202.062 141.108C202.34 140.993 202.561 140.832 202.723 140.628C202.886 140.421 202.967 140.18 202.967 139.904C202.967 139.653 202.897 139.448 202.756 139.291C202.616 139.133 202.431 139.005 202.202 138.907C201.973 138.808 201.726 138.722 201.46 138.648L200.529 138.382C199.938 138.212 199.47 137.97 199.125 137.654C198.781 137.339 198.608 136.927 198.608 136.417C198.608 135.993 198.723 135.624 198.952 135.309C199.183 134.991 199.494 134.745 199.883 134.57C200.274 134.393 200.711 134.304 201.194 134.304C201.682 134.304 202.115 134.392 202.494 134.566C202.873 134.739 203.174 134.975 203.395 135.276C203.62 135.576 203.738 135.917 203.75 136.299H202.864Z" fill="black"/>
<mask id="path-57-inside-19_481_6226" fill="white">
<path d="M224.328 122.304H285.328V153.641H224.328V122.304Z"/>
</mask>
<path d="M224.328 122.304H285.328V153.641H224.328V122.304Z" fill="#CC7D39"/>
<path d="M224.328 122.304V121.437H223.461V122.304H224.328ZM224.328 123.171H285.328V121.437H224.328V123.171ZM225.195 153.641V122.304H223.461V153.641H225.195Z" fill="#0D0D0C" mask="url(#path-57-inside-19_481_6226)"/>
<path d="M246.348 141.973L249.731 135.279V135.22H245.83V134.408H250.677V135.265L247.308 141.973H246.348ZM254.359 142.076C253.802 142.076 253.328 141.925 252.937 141.622C252.545 141.316 252.246 140.874 252.039 140.296C251.832 139.714 251.729 139.013 251.729 138.19C251.729 137.373 251.832 136.674 252.039 136.096C252.248 135.514 252.549 135.071 252.94 134.766C253.334 134.458 253.807 134.304 254.359 134.304C254.91 134.304 255.382 134.458 255.774 134.766C256.168 135.071 256.468 135.514 256.675 136.096C256.884 136.674 256.989 137.373 256.989 138.19C256.989 139.013 256.885 139.714 256.679 140.296C256.472 140.874 256.172 141.316 255.781 141.622C255.389 141.925 254.915 142.076 254.359 142.076ZM254.359 141.263C254.91 141.263 255.339 140.997 255.644 140.466C255.95 139.934 256.102 139.175 256.102 138.19C256.102 137.535 256.032 136.977 255.892 136.517C255.754 136.056 255.554 135.705 255.293 135.464C255.035 135.223 254.723 135.102 254.359 135.102C253.812 135.102 253.385 135.372 253.077 135.911C252.769 136.448 252.615 137.208 252.615 138.19C252.615 138.845 252.684 139.402 252.822 139.86C252.96 140.318 253.158 140.666 253.417 140.905C253.678 141.144 253.992 141.263 254.359 141.263ZM260.624 142.918V133.462H261.229V142.918H260.624ZM262.663 136.299C262.618 135.925 262.439 135.634 262.123 135.427C261.808 135.22 261.422 135.117 260.963 135.117C260.629 135.117 260.335 135.171 260.084 135.279C259.836 135.388 259.641 135.537 259.501 135.726C259.363 135.916 259.294 136.131 259.294 136.373C259.294 136.575 259.342 136.748 259.438 136.894C259.536 137.036 259.662 137.156 259.815 137.252C259.967 137.345 260.127 137.423 260.295 137.485C260.462 137.544 260.616 137.592 260.757 137.629L261.525 137.835C261.722 137.887 261.941 137.959 262.182 138.05C262.426 138.141 262.659 138.265 262.881 138.423C263.105 138.578 263.289 138.777 263.435 139.021C263.58 139.265 263.653 139.564 263.653 139.919C263.653 140.328 263.545 140.697 263.331 141.027C263.119 141.357 262.809 141.619 262.4 141.814C261.994 142.008 261.5 142.106 260.919 142.106C260.377 142.106 259.908 142.018 259.512 141.843C259.118 141.669 258.807 141.425 258.581 141.112C258.357 140.799 258.23 140.436 258.2 140.022H259.146C259.171 140.308 259.267 140.544 259.434 140.732C259.604 140.916 259.818 141.054 260.077 141.145C260.338 141.234 260.619 141.278 260.919 141.278C261.269 141.278 261.583 141.222 261.861 141.108C262.139 140.993 262.36 140.832 262.522 140.628C262.685 140.421 262.766 140.18 262.766 139.904C262.766 139.653 262.696 139.448 262.556 139.291C262.415 139.133 262.23 139.005 262.001 138.907C261.772 138.808 261.525 138.722 261.259 138.648L260.328 138.382C259.737 138.212 259.269 137.97 258.924 137.654C258.58 137.339 258.407 136.927 258.407 136.417C258.407 135.993 258.522 135.624 258.751 135.309C258.982 134.991 259.293 134.745 259.682 134.57C260.073 134.393 260.51 134.304 260.993 134.304C261.481 134.304 261.914 134.392 262.293 134.566C262.673 134.739 262.973 134.975 263.195 135.276C263.419 135.576 263.537 135.917 263.549 136.299H262.663Z" fill="black"/>
<mask id="path-60-inside-20_481_6226" fill="white">
<path d="M285.328 122.304H345.328V153.641H285.328V122.304Z"/>
</mask>
<path d="M285.328 122.304H345.328V153.641H285.328V122.304Z" fill="#CC7D39"/>
<path d="M285.328 122.304V121.437H284.461V122.304H285.328ZM285.328 123.171H345.328V121.437H285.328V123.171ZM286.195 153.641V122.304H284.461V153.641H286.195Z" fill="#0D0D0C" mask="url(#path-60-inside-20_481_6226)"/>
<path d="M306.848 141.973L310.231 135.279V135.22H306.33V134.408H311.177V135.265L307.808 141.973H306.848ZM311.767 140.421V139.668L315.091 134.408H315.638V135.575H315.269L312.757 139.549V139.609H317.234V140.421H311.767ZM315.328 141.973V140.192V139.841V134.408H316.2V141.973H315.328ZM320.849 142.918V133.462H321.455V142.918H320.849ZM322.888 136.299C322.844 135.925 322.664 135.634 322.349 135.427C322.034 135.22 321.647 135.117 321.189 135.117C320.854 135.117 320.561 135.171 320.31 135.279C320.061 135.388 319.867 135.537 319.726 135.726C319.589 135.916 319.52 136.131 319.52 136.373C319.52 136.575 319.568 136.748 319.664 136.894C319.762 137.036 319.888 137.156 320.04 137.252C320.193 137.345 320.353 137.423 320.521 137.485C320.688 137.544 320.842 137.592 320.982 137.629L321.751 137.835C321.948 137.887 322.167 137.959 322.408 138.05C322.652 138.141 322.885 138.265 323.106 138.423C323.33 138.578 323.515 138.777 323.66 139.021C323.806 139.265 323.878 139.564 323.878 139.919C323.878 140.328 323.771 140.697 323.557 141.027C323.345 141.357 323.035 141.619 322.626 141.814C322.22 142.008 321.726 142.106 321.145 142.106C320.603 142.106 320.134 142.018 319.737 141.843C319.343 141.669 319.033 141.425 318.807 141.112C318.583 140.799 318.456 140.436 318.426 140.022H319.372C319.396 140.308 319.492 140.544 319.66 140.732C319.83 140.916 320.044 141.054 320.303 141.145C320.564 141.234 320.844 141.278 321.145 141.278C321.495 141.278 321.809 141.222 322.087 141.108C322.365 140.993 322.585 140.832 322.748 140.628C322.911 140.421 322.992 140.18 322.992 139.904C322.992 139.653 322.922 139.448 322.781 139.291C322.641 139.133 322.456 139.005 322.227 138.907C321.998 138.808 321.751 138.722 321.485 138.648L320.554 138.382C319.963 138.212 319.495 137.97 319.15 137.654C318.805 137.339 318.633 136.927 318.633 136.417C318.633 135.993 318.748 135.624 318.977 135.309C319.208 134.991 319.518 134.745 319.907 134.57C320.299 134.393 320.736 134.304 321.219 134.304C321.706 134.304 322.14 134.392 322.519 134.566C322.898 134.739 323.199 134.975 323.42 135.276C323.644 135.576 323.763 135.917 323.775 136.299H322.888Z" fill="black"/>
</g>
</g>
<rect x="0.761542" y="37.0643" width="345.133" height="116.143" rx="3.03392" stroke="#0D0D0C" stroke-width="0.866834"/>
<defs>
<clipPath id="clip0_481_6226">
<rect x="0.328125" y="36.6309" width="346" height="117.01" rx="3.46734" fill="white"/>
</clipPath>
<clipPath id="clip1_481_6226">
<rect width="346" height="23" fill="white" transform="translate(0.328125 36.6309)"/>
</clipPath>
<clipPath id="clip2_481_6226">
<rect width="23" height="61" fill="white" transform="translate(104.328 59.6309) rotate(-90)"/>
</clipPath>
<clipPath id="clip3_481_6226">
<rect width="23" height="59" fill="white" transform="translate(165.328 59.6309) rotate(-90)"/>
</clipPath>
<clipPath id="clip4_481_6226">
<rect width="23" height="61" fill="white" transform="translate(224.328 59.6309) rotate(-90)"/>
</clipPath>
<clipPath id="clip5_481_6226">
<rect width="23" height="60" fill="white" transform="translate(285.328 59.6309) rotate(-90)"/>
</clipPath>
<clipPath id="clip6_481_6226">
<rect width="346" height="31.3367" fill="white" transform="translate(0.328125 59.6309)"/>
</clipPath>
<clipPath id="clip7_481_6226">
<rect width="346" height="31.3367" fill="white" transform="translate(0.328125 90.9678)"/>
</clipPath>
<clipPath id="clip8_481_6226">
<rect width="346" height="31.3367" fill="white" transform="translate(0.328125 122.304)"/>
</clipPath>
</defs>
</svg>
