<svg width="274" height="277" viewBox="0 0 274 277" fill="none" xmlns="http://www.w3.org/2000/svg">
<g filter="url(#filter0_d_481_5946)">
<mask id="path-1-outside-1_481_5946" maskUnits="userSpaceOnUse" x="107.43" y="147.953" width="164" height="127" fill="black">
<rect fill="white" x="107.43" y="147.953" width="164" height="127"/>
<path d="M268.586 174.297L266.416 171.366L265.111 165.723L264.466 160.843L260.551 158.454L256.431 156.167L251.007 153.778C251.007 153.778 251.226 152.928 251.476 152.034H249.584V154.32L248.279 154.643H242.415L241.227 154.746L238.397 155.933L235.143 158.102C235.143 158.102 233.398 160.168 232.973 160.271C232.533 160.374 231.125 159.509 231.125 159.509L228.735 156.578L224.278 156.475L222.431 157.237L218.311 161.912V173.418L216.141 173.96L214.513 172.978L212.989 170.692H207.666L206.684 173.623L198.752 173.945L192.785 173.081L187.785 169.71L185.615 168.625L181.598 169.27L180.073 170.897L175.513 171.117L172.801 171.337V170.472L173.021 168.303C173.021 168.303 173.123 166.559 173.123 166.236C173.123 165.914 173.123 163.407 173.021 162.44C172.918 161.458 171.496 156.797 171.496 156.797L168.021 154.848L166.496 152.782L162.699 151.477L160.749 152.342L159.444 151.037L157.054 149.953L153.037 150.598V151.462L150.104 151.785L146.952 152.767L142.832 155.258L135.663 154.936L135.223 157.428L129.461 159.172L126.631 159.494L123.596 160.256L121.851 163.95L121.749 166.778L120.766 170.032C120.766 170.032 120.546 172.099 120.664 172.524C120.766 172.963 121.103 177.082 121.103 177.082L120.341 179.691L120.781 182.08L122.188 187.297L122.834 192.94L123.479 196.311L125.971 197.835L129.666 198.7L134.226 199.887L138.566 201.192L139.651 201.954L140.413 204.123L142.583 206.292L145.735 207.274L148.125 209.223L148.448 211.715L145.515 214.426L141.718 215.188L138.888 215.731L137.803 217.9L136.176 219.307L134.548 219.527L132.158 220.289L129.446 221.271L128.141 223.66L127.819 228.54L130.106 231.574C130.106 231.574 131.293 232.659 131.191 232.981C131.088 233.304 130.546 235.268 130.546 235.268L126.968 236.895H124.138L122.614 237.877L122.511 240.91L119.681 241.673C119.241 241.775 116.852 243.739 116.852 243.739L110.884 244.824L110.987 246.67L111.749 248.957L110.43 253.647C111.221 253.955 112.189 254.409 112.556 254.863C113.201 255.684 114.506 257.472 114.667 258.278C114.828 259.099 116.294 260.726 116.294 260.726L120.854 261.21L121.793 262.543L123.024 261.429L124.006 261.107L126.939 263.173L128.244 266.427L128.464 268.816L128.361 270.34L131.293 272.627L131.938 269.915L135.193 263.511L136.601 259.597L137.583 257.531L139.108 255.039L145.955 253.192L150.837 253.632L152.025 251.566L157.025 248.957L160.397 249.602L163.109 251.888L166.482 251.126L167.786 248.297C167.786 248.297 168.871 244.384 169.194 244.281C169.517 244.179 173.314 244.721 173.314 244.721L176.789 242.332C176.789 242.332 177.654 240.925 177.771 240.266C177.874 239.621 178.211 239.078 178.211 239.078L179.296 238.316L181.246 237.671L183.196 237.232L183.841 237.129C183.841 237.129 184.384 236.147 184.706 235.825C185.029 235.502 185.791 234.3 186.553 233.333L191.553 234.095L192.418 232.248L193.181 229.42L193.62 226.386C193.62 226.386 201.113 224.539 202.315 224.539C203.517 224.539 207.197 223.675 207.197 223.675L210.775 222.912L211.097 219.761L215.217 216.727L219.894 216.405L226.624 212.712L228.911 208.798L235.421 208.901L238.031 205.867V204.24L236.946 202.496L234.659 201.411L230.744 199.565L230.304 197.938L231.169 194.567L236.814 195.007L240.509 196.311L245.069 197.176L247.019 199.887L246.373 202.174L246.051 203.8L247.576 205.325L248.763 205.105L250.831 206.087L250.728 208.696L250.405 210.542L253.66 210.982L257.458 212.389L258.983 212.067L260.61 210.323L261.798 206.204C261.798 206.204 262.78 202.833 263.322 201.104C263.865 199.36 265.17 195.461 265.17 195.461L267.457 187.972L268.542 184.278C268.542 184.278 269.407 180.482 269.407 179.72C269.407 178.958 268.542 174.297 268.542 174.297H268.586Z"/>
</mask>
<path d="M268.586 174.297L266.416 171.366L265.111 165.723L264.466 160.843L260.551 158.454L256.431 156.167L251.007 153.778C251.007 153.778 251.226 152.928 251.476 152.034H249.584V154.32L248.279 154.643H242.415L241.227 154.746L238.397 155.933L235.143 158.102C235.143 158.102 233.398 160.168 232.973 160.271C232.533 160.374 231.125 159.509 231.125 159.509L228.735 156.578L224.278 156.475L222.431 157.237L218.311 161.912V173.418L216.141 173.96L214.513 172.978L212.989 170.692H207.666L206.684 173.623L198.752 173.945L192.785 173.081L187.785 169.71L185.615 168.625L181.598 169.27L180.073 170.897L175.513 171.117L172.801 171.337V170.472L173.021 168.303C173.021 168.303 173.123 166.559 173.123 166.236C173.123 165.914 173.123 163.407 173.021 162.44C172.918 161.458 171.496 156.797 171.496 156.797L168.021 154.848L166.496 152.782L162.699 151.477L160.749 152.342L159.444 151.037L157.054 149.953L153.037 150.598V151.462L150.104 151.785L146.952 152.767L142.832 155.258L135.663 154.936L135.223 157.428L129.461 159.172L126.631 159.494L123.596 160.256L121.851 163.95L121.749 166.778L120.766 170.032C120.766 170.032 120.546 172.099 120.664 172.524C120.766 172.963 121.103 177.082 121.103 177.082L120.341 179.691L120.781 182.08L122.188 187.297L122.834 192.94L123.479 196.311L125.971 197.835L129.666 198.7L134.226 199.887L138.566 201.192L139.651 201.954L140.413 204.123L142.583 206.292L145.735 207.274L148.125 209.223L148.448 211.715L145.515 214.426L141.718 215.188L138.888 215.731L137.803 217.9L136.176 219.307L134.548 219.527L132.158 220.289L129.446 221.271L128.141 223.66L127.819 228.54L130.106 231.574C130.106 231.574 131.293 232.659 131.191 232.981C131.088 233.304 130.546 235.268 130.546 235.268L126.968 236.895H124.138L122.614 237.877L122.511 240.91L119.681 241.673C119.241 241.775 116.852 243.739 116.852 243.739L110.884 244.824L110.987 246.67L111.749 248.957L110.43 253.647C111.221 253.955 112.189 254.409 112.556 254.863C113.201 255.684 114.506 257.472 114.667 258.278C114.828 259.099 116.294 260.726 116.294 260.726L120.854 261.21L121.793 262.543L123.024 261.429L124.006 261.107L126.939 263.173L128.244 266.427L128.464 268.816L128.361 270.34L131.293 272.627L131.938 269.915L135.193 263.511L136.601 259.597L137.583 257.531L139.108 255.039L145.955 253.192L150.837 253.632L152.025 251.566L157.025 248.957L160.397 249.602L163.109 251.888L166.482 251.126L167.786 248.297C167.786 248.297 168.871 244.384 169.194 244.281C169.517 244.179 173.314 244.721 173.314 244.721L176.789 242.332C176.789 242.332 177.654 240.925 177.771 240.266C177.874 239.621 178.211 239.078 178.211 239.078L179.296 238.316L181.246 237.671L183.196 237.232L183.841 237.129C183.841 237.129 184.384 236.147 184.706 235.825C185.029 235.502 185.791 234.3 186.553 233.333L191.553 234.095L192.418 232.248L193.181 229.42L193.62 226.386C193.62 226.386 201.113 224.539 202.315 224.539C203.517 224.539 207.197 223.675 207.197 223.675L210.775 222.912L211.097 219.761L215.217 216.727L219.894 216.405L226.624 212.712L228.911 208.798L235.421 208.901L238.031 205.867V204.24L236.946 202.496L234.659 201.411L230.744 199.565L230.304 197.938L231.169 194.567L236.814 195.007L240.509 196.311L245.069 197.176L247.019 199.887L246.373 202.174L246.051 203.8L247.576 205.325L248.763 205.105L250.831 206.087L250.728 208.696L250.405 210.542L253.66 210.982L257.458 212.389L258.983 212.067L260.61 210.323L261.798 206.204C261.798 206.204 262.78 202.833 263.322 201.104C263.865 199.36 265.17 195.461 265.17 195.461L267.457 187.972L268.542 184.278C268.542 184.278 269.407 180.482 269.407 179.72C269.407 178.958 268.542 174.297 268.542 174.297H268.586Z" fill="#95AB4D"/>
<path d="M268.586 174.297L266.416 171.366L265.111 165.723L264.466 160.843L260.551 158.454L256.431 156.167L251.007 153.778C251.007 153.778 251.226 152.928 251.476 152.034H249.584V154.32L248.279 154.643H242.415L241.227 154.746L238.397 155.933L235.143 158.102C235.143 158.102 233.398 160.168 232.973 160.271C232.533 160.374 231.125 159.509 231.125 159.509L228.735 156.578L224.278 156.475L222.431 157.237L218.311 161.912V173.418L216.141 173.96L214.513 172.978L212.989 170.692H207.666L206.684 173.623L198.752 173.945L192.785 173.081L187.785 169.71L185.615 168.625L181.598 169.27L180.073 170.897L175.513 171.117L172.801 171.337V170.472L173.021 168.303C173.021 168.303 173.123 166.559 173.123 166.236C173.123 165.914 173.123 163.407 173.021 162.44C172.918 161.458 171.496 156.797 171.496 156.797L168.021 154.848L166.496 152.782L162.699 151.477L160.749 152.342L159.444 151.037L157.054 149.953L153.037 150.598V151.462L150.104 151.785L146.952 152.767L142.832 155.258L135.663 154.936L135.223 157.428L129.461 159.172L126.631 159.494L123.596 160.256L121.851 163.95L121.749 166.778L120.766 170.032C120.766 170.032 120.546 172.099 120.664 172.524C120.766 172.963 121.103 177.082 121.103 177.082L120.341 179.691L120.781 182.08L122.188 187.297L122.834 192.94L123.479 196.311L125.971 197.835L129.666 198.7L134.226 199.887L138.566 201.192L139.651 201.954L140.413 204.123L142.583 206.292L145.735 207.274L148.125 209.223L148.448 211.715L145.515 214.426L141.718 215.188L138.888 215.731L137.803 217.9L136.176 219.307L134.548 219.527L132.158 220.289L129.446 221.271L128.141 223.66L127.819 228.54L130.106 231.574C130.106 231.574 131.293 232.659 131.191 232.981C131.088 233.304 130.546 235.268 130.546 235.268L126.968 236.895H124.138L122.614 237.877L122.511 240.91L119.681 241.673C119.241 241.775 116.852 243.739 116.852 243.739L110.884 244.824L110.987 246.67L111.749 248.957L110.43 253.647C111.221 253.955 112.189 254.409 112.556 254.863C113.201 255.684 114.506 257.472 114.667 258.278C114.828 259.099 116.294 260.726 116.294 260.726L120.854 261.21L121.793 262.543L123.024 261.429L124.006 261.107L126.939 263.173L128.244 266.427L128.464 268.816L128.361 270.34L131.293 272.627L131.938 269.915L135.193 263.511L136.601 259.597L137.583 257.531L139.108 255.039L145.955 253.192L150.837 253.632L152.025 251.566L157.025 248.957L160.397 249.602L163.109 251.888L166.482 251.126L167.786 248.297C167.786 248.297 168.871 244.384 169.194 244.281C169.517 244.179 173.314 244.721 173.314 244.721L176.789 242.332C176.789 242.332 177.654 240.925 177.771 240.266C177.874 239.621 178.211 239.078 178.211 239.078L179.296 238.316L181.246 237.671L183.196 237.232L183.841 237.129C183.841 237.129 184.384 236.147 184.706 235.825C185.029 235.502 185.791 234.3 186.553 233.333L191.553 234.095L192.418 232.248L193.181 229.42L193.62 226.386C193.62 226.386 201.113 224.539 202.315 224.539C203.517 224.539 207.197 223.675 207.197 223.675L210.775 222.912L211.097 219.761L215.217 216.727L219.894 216.405L226.624 212.712L228.911 208.798L235.421 208.901L238.031 205.867V204.24L236.946 202.496L234.659 201.411L230.744 199.565L230.304 197.938L231.169 194.567L236.814 195.007L240.509 196.311L245.069 197.176L247.019 199.887L246.373 202.174L246.051 203.8L247.576 205.325L248.763 205.105L250.831 206.087L250.728 208.696L250.405 210.542L253.66 210.982L257.458 212.389L258.983 212.067L260.61 210.323L261.798 206.204C261.798 206.204 262.78 202.833 263.322 201.104C263.865 199.36 265.17 195.461 265.17 195.461L267.457 187.972L268.542 184.278C268.542 184.278 269.407 180.482 269.407 179.72C269.407 178.958 268.542 174.297 268.542 174.297H268.586Z" stroke="#0D0D0C" stroke-width="4" stroke-linejoin="round" mask="url(#path-1-outside-1_481_5946)"/>
<mask id="path-2-outside-2_481_5946" maskUnits="userSpaceOnUse" x="0.53418" y="152.203" width="150" height="122" fill="black">
<rect fill="white" x="0.53418" y="152.203" width="150" height="122"/>
<path d="M126.103 202.804L125.62 206.556C125.62 206.556 124.564 208.344 124.403 208.666C124.241 208.989 120.737 209.311 120.737 209.311L116.339 208.666L111.046 206.79L109.169 204.68L106.647 203.698L102.733 203.537L98.6566 202.232L96.5453 197.352H83.9948L82.6166 191.328L79.7723 190.917L78.3941 189.041L81.4877 186.594L81.8982 184.234L82.2208 181.303L79.8602 176.495L76.6053 175.118L71.723 174.634H67.8083L62.4274 173.652L60.3894 172.274L59.4951 170.164L59.7443 166.822L59.0992 164.946L57.633 162.425L57.7943 160.711L58.0436 159.084C58.0436 159.084 57.633 156.797 57.5597 156.402C57.4717 155.991 56.5041 155.83 56.5041 155.83L53.5717 154.936L45.3465 154.203L44.1296 154.687L42.0183 157.706L40.2295 159.743L37.9423 161.209L34.922 158.439L30.5235 158.351L28.808 159.333L27.6644 161.854L25.7144 164.873L23.4272 166.339L17.3132 167.643L16.3309 169.841L12.5042 171.219L9.32257 171.952L8.50151 173.579L6.053 174.561L5.73044 178.958L8.57482 181.889L11.991 187.019L14.029 188.968L18.105 188.558L20.4655 190.595C20.4655 190.595 20.7147 192.471 20.6268 192.793C20.5388 193.116 20.2162 195.637 20.2162 195.637L17.3719 197.102L17.2106 198.246L18.5155 202.071L19.9817 203.947V205.735L15.9057 205.413L11.9177 205.325L11.3459 206.702L11.2579 209.062L10.1143 209.795L8.56016 211.011L9.13197 212.799L11.4192 214.91L11.7418 216.625L10.3636 217.768L9.38122 220.128L8.64813 220.772L6.77142 221.666L5.95037 224.598L5.70112 228.262L5.37856 229.083L3.7511 230.299L2.53418 232.585L2.69546 235.429L2.85674 236.894L6.61015 238.038L7.34323 237.466L8.48685 235.018L9.38122 233.553L10.1143 233.392L11.3312 233.304L12.7974 234.857C12.7974 234.857 12.7094 237.305 12.5482 237.876C12.3869 238.448 11.9763 240.397 11.9763 240.397L10.9207 242.684L12.079 245.483L12.7094 244.955H19.7177L22.9727 246.744L25.5824 248.209C25.5824 248.209 25.905 248.532 25.905 249.03C25.905 249.528 26.2276 252.606 26.2276 253.104C26.2276 253.603 27.5325 256.036 27.5325 256.036L30.7874 257.663L34.2036 258.967L39.5844 261.253L39.4231 262.074C39.4231 262.074 39.1006 265.005 39.1006 265.489C39.1006 265.973 40.0829 268.743 40.4055 269.241C40.728 269.725 42.6927 271.85 42.6927 271.85L44.804 272.011L47.7363 271.366L48.0589 269.901H51.9736L54.2608 265.826L51.3285 263.877L48.0736 262.895L47.4285 261.752L48.4108 259.143L50.1995 257.516L52.648 257.194L55.9029 257.032L57.5304 258.982L62.2515 260.286L65.1838 259.964L67.7936 259.319L67.9549 260.301C67.9549 260.301 68.6 262.748 68.6 263.232C68.6 263.716 69.0838 265.181 69.0838 265.181L70.7113 265.343L74.4647 265.504L75.1098 264.522V252.797L77.5583 249.382L78.8632 246.45C78.8632 246.45 79.5083 244.501 80.4907 244.501C81.473 244.501 83.9069 245.967 83.9069 245.967L84.552 247.594V250.041C84.552 250.041 85.5343 251.829 86.0182 251.991C86.502 252.152 87.6456 254.761 87.6456 254.761L87.9682 256.71C87.9682 256.71 89.7569 257.355 90.2554 257.531C90.7393 257.692 97.1024 257.853 97.1024 257.853L99.551 256.71L101.662 255.405C103.29 256.05 105.577 256.226 105.577 256.226L109.33 253.295C109.33 253.295 109.844 253.456 110.459 253.705L111.779 249.015L111.016 246.729L110.914 244.882L116.881 243.798C116.881 243.798 119.271 241.848 119.711 241.731L122.541 240.969L122.643 237.935L124.168 236.953H126.998L130.575 235.326C130.575 235.326 131.118 233.377 131.22 233.04C131.323 232.717 130.135 231.633 130.135 231.633L127.848 228.599L128.171 223.718L129.476 221.329L132.188 220.347L134.578 219.585L136.205 219.365L137.833 217.958L138.918 215.789L141.747 215.247L145.545 214.485L148.477 211.773L148.155 209.282L145.765 207.333L142.613 206.351L140.443 204.181L139.68 202.012L138.595 201.25L134.255 199.946L129.696 198.759L126.778 198.07L126.191 199.33L126.103 202.833V202.804Z"/>
</mask>
<path d="M126.103 202.804L125.62 206.556C125.62 206.556 124.564 208.344 124.403 208.666C124.241 208.989 120.737 209.311 120.737 209.311L116.339 208.666L111.046 206.79L109.169 204.68L106.647 203.698L102.733 203.537L98.6566 202.232L96.5453 197.352H83.9948L82.6166 191.328L79.7723 190.917L78.3941 189.041L81.4877 186.594L81.8982 184.234L82.2208 181.303L79.8602 176.495L76.6053 175.118L71.723 174.634H67.8083L62.4274 173.652L60.3894 172.274L59.4951 170.164L59.7443 166.822L59.0992 164.946L57.633 162.425L57.7943 160.711L58.0436 159.084C58.0436 159.084 57.633 156.797 57.5597 156.402C57.4717 155.991 56.5041 155.83 56.5041 155.83L53.5717 154.936L45.3465 154.203L44.1296 154.687L42.0183 157.706L40.2295 159.743L37.9423 161.209L34.922 158.439L30.5235 158.351L28.808 159.333L27.6644 161.854L25.7144 164.873L23.4272 166.339L17.3132 167.643L16.3309 169.841L12.5042 171.219L9.32257 171.952L8.50151 173.579L6.053 174.561L5.73044 178.958L8.57482 181.889L11.991 187.019L14.029 188.968L18.105 188.558L20.4655 190.595C20.4655 190.595 20.7147 192.471 20.6268 192.793C20.5388 193.116 20.2162 195.637 20.2162 195.637L17.3719 197.102L17.2106 198.246L18.5155 202.071L19.9817 203.947V205.735L15.9057 205.413L11.9177 205.325L11.3459 206.702L11.2579 209.062L10.1143 209.795L8.56016 211.011L9.13197 212.799L11.4192 214.91L11.7418 216.625L10.3636 217.768L9.38122 220.128L8.64813 220.772L6.77142 221.666L5.95037 224.598L5.70112 228.262L5.37856 229.083L3.7511 230.299L2.53418 232.585L2.69546 235.429L2.85674 236.894L6.61015 238.038L7.34323 237.466L8.48685 235.018L9.38122 233.553L10.1143 233.392L11.3312 233.304L12.7974 234.857C12.7974 234.857 12.7094 237.305 12.5482 237.876C12.3869 238.448 11.9763 240.397 11.9763 240.397L10.9207 242.684L12.079 245.483L12.7094 244.955H19.7177L22.9727 246.744L25.5824 248.209C25.5824 248.209 25.905 248.532 25.905 249.03C25.905 249.528 26.2276 252.606 26.2276 253.104C26.2276 253.603 27.5325 256.036 27.5325 256.036L30.7874 257.663L34.2036 258.967L39.5844 261.253L39.4231 262.074C39.4231 262.074 39.1006 265.005 39.1006 265.489C39.1006 265.973 40.0829 268.743 40.4055 269.241C40.728 269.725 42.6927 271.85 42.6927 271.85L44.804 272.011L47.7363 271.366L48.0589 269.901H51.9736L54.2608 265.826L51.3285 263.877L48.0736 262.895L47.4285 261.752L48.4108 259.143L50.1995 257.516L52.648 257.194L55.9029 257.032L57.5304 258.982L62.2515 260.286L65.1838 259.964L67.7936 259.319L67.9549 260.301C67.9549 260.301 68.6 262.748 68.6 263.232C68.6 263.716 69.0838 265.181 69.0838 265.181L70.7113 265.343L74.4647 265.504L75.1098 264.522V252.797L77.5583 249.382L78.8632 246.45C78.8632 246.45 79.5083 244.501 80.4907 244.501C81.473 244.501 83.9069 245.967 83.9069 245.967L84.552 247.594V250.041C84.552 250.041 85.5343 251.829 86.0182 251.991C86.502 252.152 87.6456 254.761 87.6456 254.761L87.9682 256.71C87.9682 256.71 89.7569 257.355 90.2554 257.531C90.7393 257.692 97.1024 257.853 97.1024 257.853L99.551 256.71L101.662 255.405C103.29 256.05 105.577 256.226 105.577 256.226L109.33 253.295C109.33 253.295 109.844 253.456 110.459 253.705L111.779 249.015L111.016 246.729L110.914 244.882L116.881 243.798C116.881 243.798 119.271 241.848 119.711 241.731L122.541 240.969L122.643 237.935L124.168 236.953H126.998L130.575 235.326C130.575 235.326 131.118 233.377 131.22 233.04C131.323 232.717 130.135 231.633 130.135 231.633L127.848 228.599L128.171 223.718L129.476 221.329L132.188 220.347L134.578 219.585L136.205 219.365L137.833 217.958L138.918 215.789L141.747 215.247L145.545 214.485L148.477 211.773L148.155 209.282L145.765 207.333L142.613 206.351L140.443 204.181L139.68 202.012L138.595 201.25L134.255 199.946L129.696 198.759L126.778 198.07L126.191 199.33L126.103 202.833V202.804Z" fill="#95AB4D"/>
<path d="M126.103 202.804L125.62 206.556C125.62 206.556 124.564 208.344 124.403 208.666C124.241 208.989 120.737 209.311 120.737 209.311L116.339 208.666L111.046 206.79L109.169 204.68L106.647 203.698L102.733 203.537L98.6566 202.232L96.5453 197.352H83.9948L82.6166 191.328L79.7723 190.917L78.3941 189.041L81.4877 186.594L81.8982 184.234L82.2208 181.303L79.8602 176.495L76.6053 175.118L71.723 174.634H67.8083L62.4274 173.652L60.3894 172.274L59.4951 170.164L59.7443 166.822L59.0992 164.946L57.633 162.425L57.7943 160.711L58.0436 159.084C58.0436 159.084 57.633 156.797 57.5597 156.402C57.4717 155.991 56.5041 155.83 56.5041 155.83L53.5717 154.936L45.3465 154.203L44.1296 154.687L42.0183 157.706L40.2295 159.743L37.9423 161.209L34.922 158.439L30.5235 158.351L28.808 159.333L27.6644 161.854L25.7144 164.873L23.4272 166.339L17.3132 167.643L16.3309 169.841L12.5042 171.219L9.32257 171.952L8.50151 173.579L6.053 174.561L5.73044 178.958L8.57482 181.889L11.991 187.019L14.029 188.968L18.105 188.558L20.4655 190.595C20.4655 190.595 20.7147 192.471 20.6268 192.793C20.5388 193.116 20.2162 195.637 20.2162 195.637L17.3719 197.102L17.2106 198.246L18.5155 202.071L19.9817 203.947V205.735L15.9057 205.413L11.9177 205.325L11.3459 206.702L11.2579 209.062L10.1143 209.795L8.56016 211.011L9.13197 212.799L11.4192 214.91L11.7418 216.625L10.3636 217.768L9.38122 220.128L8.64813 220.772L6.77142 221.666L5.95037 224.598L5.70112 228.262L5.37856 229.083L3.7511 230.299L2.53418 232.585L2.69546 235.429L2.85674 236.894L6.61015 238.038L7.34323 237.466L8.48685 235.018L9.38122 233.553L10.1143 233.392L11.3312 233.304L12.7974 234.857C12.7974 234.857 12.7094 237.305 12.5482 237.876C12.3869 238.448 11.9763 240.397 11.9763 240.397L10.9207 242.684L12.079 245.483L12.7094 244.955H19.7177L22.9727 246.744L25.5824 248.209C25.5824 248.209 25.905 248.532 25.905 249.03C25.905 249.528 26.2276 252.606 26.2276 253.104C26.2276 253.603 27.5325 256.036 27.5325 256.036L30.7874 257.663L34.2036 258.967L39.5844 261.253L39.4231 262.074C39.4231 262.074 39.1006 265.005 39.1006 265.489C39.1006 265.973 40.0829 268.743 40.4055 269.241C40.728 269.725 42.6927 271.85 42.6927 271.85L44.804 272.011L47.7363 271.366L48.0589 269.901H51.9736L54.2608 265.826L51.3285 263.877L48.0736 262.895L47.4285 261.752L48.4108 259.143L50.1995 257.516L52.648 257.194L55.9029 257.032L57.5304 258.982L62.2515 260.286L65.1838 259.964L67.7936 259.319L67.9549 260.301C67.9549 260.301 68.6 262.748 68.6 263.232C68.6 263.716 69.0838 265.181 69.0838 265.181L70.7113 265.343L74.4647 265.504L75.1098 264.522V252.797L77.5583 249.382L78.8632 246.45C78.8632 246.45 79.5083 244.501 80.4907 244.501C81.473 244.501 83.9069 245.967 83.9069 245.967L84.552 247.594V250.041C84.552 250.041 85.5343 251.829 86.0182 251.991C86.502 252.152 87.6456 254.761 87.6456 254.761L87.9682 256.71C87.9682 256.71 89.7569 257.355 90.2554 257.531C90.7393 257.692 97.1024 257.853 97.1024 257.853L99.551 256.71L101.662 255.405C103.29 256.05 105.577 256.226 105.577 256.226L109.33 253.295C109.33 253.295 109.844 253.456 110.459 253.705L111.779 249.015L111.016 246.729L110.914 244.882L116.881 243.798C116.881 243.798 119.271 241.848 119.711 241.731L122.541 240.969L122.643 237.935L124.168 236.953H126.998L130.575 235.326C130.575 235.326 131.118 233.377 131.22 233.04C131.323 232.717 130.135 231.633 130.135 231.633L127.848 228.599L128.171 223.718L129.476 221.329L132.188 220.347L134.578 219.585L136.205 219.365L137.833 217.958L138.918 215.789L141.747 215.247L145.545 214.485L148.477 211.773L148.155 209.282L145.765 207.333L142.613 206.351L140.443 204.181L139.68 202.012L138.595 201.25L134.255 199.946L129.696 198.759L126.778 198.07L126.191 199.33L126.103 202.833V202.804Z" stroke="#0D0D0C" stroke-width="4" stroke-linejoin="round" mask="url(#path-2-outside-2_481_5946)"/>
<mask id="path-3-outside-3_481_5946" maskUnits="userSpaceOnUse" x="82.7573" y="0.65625" width="172" height="176" fill="black">
<rect fill="white" x="82.7573" y="0.65625" width="172" height="176"/>
<path d="M252.517 144.794L251.535 143.05L249.248 141.1L246.315 138.609L245.01 135.458L244.365 135.018L243.603 132.629L244.145 130.885L245.67 128.716L247.737 125.785L248.177 123.498L247.195 118.94L250.025 110.688L249.042 108.739L247.517 107.332L245.567 104.401L245.787 101.03L247.092 96.1493L243.72 95.0648L239.805 93.7604L238.178 86.5934L237.196 83.0172L240.45 78.6789L241.433 76.7296L241.873 71.512C241.873 71.512 241.228 69.123 241.008 68.0384C240.788 66.9538 237.635 66.1917 237.635 66.1917L232.856 63.9053L228.941 61.5163L225.906 57.5005L223.516 54.8916L222.329 54.0269L217.446 51.9603L215.379 50.8758L215.159 48.4868L216.141 45.8779C216.141 45.8779 216.361 44.6908 216.361 44.0312C216.361 43.3717 216.039 43.1665 215.819 41.4224C215.599 39.6783 216.581 40.0154 216.581 40.0154L220.818 36.8643L224.073 32.4087L223.853 27.0884L225.041 24.5969V21.6656L228.618 13.8537L227.636 11.9044L226.654 9.51544L226.404 8.37224L225.129 8.10843L222.094 9.73528L219.807 13.3114L217.197 14.7185L214.265 15.5832L212.197 13.1942L208.283 5.70478L206.215 3.09594L203.18 2.65625L200.351 4.28311L199.163 5.80737L195.908 4.28311L188.738 3.84342L187.756 4.4883L184.281 6.335L184.824 9.80857L185.146 12.4174L181.349 15.0262L179.062 18.4998L178.417 19.8042C177.977 19.2619 176.467 16.4333 176.467 16.4333L173.534 15.6711L171.364 15.891L170.382 19.1447L169.194 20.9914L167.889 20.2293L166.907 19.3645L164.84 19.2619L163.975 20.1267L158.755 25.6668L154.958 26.1065L152.671 24.6995L146.366 23.395L145.061 21.4457L141.806 19.9215L133.332 19.0567L128.112 17.6497L122.145 13.5313L118.23 11.0397L112.043 10.9371L108.671 12.7838L108.231 15.1728L103.774 18.5438L100.299 20.8302L99.3164 19.5258L99.0965 16.9169V15.9349H97.0292L95.1818 17.342L93.0119 20.4931L91.9269 22.0173L86.6047 22.7795L85.0799 25.6082L84.7573 28.9791L86.6047 31.2655L91.4871 33.6545L93.3344 35.0615L93.657 36.5858L92.1322 37.3479L91.2671 39.4145L92.6747 41.8035L94.8446 43.2105L99.1845 43.6502L101.252 44.0899L101.472 46.1564L104.184 48.8678L107.219 50.3921L110.591 51.037L112.116 49.1903L115.811 50.8171L118.201 53.426L119.726 52.9863L122.658 57.1047L121.133 65.0338L123.303 68.0677L122.658 69.4747L119.946 72.406L118.538 73.813L116.471 76.202V79.6756L117.453 80.4377L119.623 80.6575L121.03 78.9134L122.335 78.8108L122.981 81.0972L126.235 82.2844L125.253 86.3002L123.083 90.6385L121.676 97.8055L121.778 102.364L121.456 106.819L121.998 110.293L129.813 120.171L132.965 122.78L138.39 125.814L139.915 125.169C139.915 125.169 144.255 122.135 145.677 122.883C147.084 123.645 150.354 125.052 150.354 125.052L153.066 127.763L156.101 130.797C156.101 130.797 158.169 130.577 159.254 130.9C160.339 131.222 164.473 132.204 164.473 132.204L167.948 133.728L169.253 136.44L170.778 143.167L172.303 145.116L172.523 147.608C172.523 147.608 172.2 148.795 171.76 149.352C171.496 149.674 168.974 151.902 167.024 153.617L167.963 154.892L171.438 156.841C171.438 156.841 172.845 161.517 172.962 162.484C173.065 163.466 173.065 165.958 173.065 166.28C173.065 166.603 172.962 168.347 172.962 168.347L172.742 170.516V171.381L175.455 171.161L180.015 170.941L181.54 169.314L185.557 168.669L187.727 169.754L192.726 173.125L198.694 173.989L206.626 173.667L207.608 170.736H212.93L214.455 173.022L216.083 174.004L218.253 173.462V161.957L222.373 157.281L224.22 156.519L228.677 156.622L231.067 159.553C231.067 159.553 232.474 160.418 232.914 160.315C233.354 160.212 235.084 158.146 235.084 158.146L238.339 155.977L241.169 154.79L242.356 154.687H248.221L249.526 154.365V152.078H251.417C251.623 151.404 251.843 150.715 252.033 150.334C252.473 149.469 252.136 149.249 252.356 147.842C252.576 146.435 252.458 144.809 252.458 144.809L252.517 144.794Z"/>
</mask>
<path d="M252.517 144.794L251.535 143.05L249.248 141.1L246.315 138.609L245.01 135.458L244.365 135.018L243.603 132.629L244.145 130.885L245.67 128.716L247.737 125.785L248.177 123.498L247.195 118.94L250.025 110.688L249.042 108.739L247.517 107.332L245.567 104.401L245.787 101.03L247.092 96.1493L243.72 95.0648L239.805 93.7604L238.178 86.5934L237.196 83.0172L240.45 78.6789L241.433 76.7296L241.873 71.512C241.873 71.512 241.228 69.123 241.008 68.0384C240.788 66.9538 237.635 66.1917 237.635 66.1917L232.856 63.9053L228.941 61.5163L225.906 57.5005L223.516 54.8916L222.329 54.0269L217.446 51.9603L215.379 50.8758L215.159 48.4868L216.141 45.8779C216.141 45.8779 216.361 44.6908 216.361 44.0312C216.361 43.3717 216.039 43.1665 215.819 41.4224C215.599 39.6783 216.581 40.0154 216.581 40.0154L220.818 36.8643L224.073 32.4087L223.853 27.0884L225.041 24.5969V21.6656L228.618 13.8537L227.636 11.9044L226.654 9.51544L226.404 8.37224L225.129 8.10843L222.094 9.73528L219.807 13.3114L217.197 14.7185L214.265 15.5832L212.197 13.1942L208.283 5.70478L206.215 3.09594L203.18 2.65625L200.351 4.28311L199.163 5.80737L195.908 4.28311L188.738 3.84342L187.756 4.4883L184.281 6.335L184.824 9.80857L185.146 12.4174L181.349 15.0262L179.062 18.4998L178.417 19.8042C177.977 19.2619 176.467 16.4333 176.467 16.4333L173.534 15.6711L171.364 15.891L170.382 19.1447L169.194 20.9914L167.889 20.2293L166.907 19.3645L164.84 19.2619L163.975 20.1267L158.755 25.6668L154.958 26.1065L152.671 24.6995L146.366 23.395L145.061 21.4457L141.806 19.9215L133.332 19.0567L128.112 17.6497L122.145 13.5313L118.23 11.0397L112.043 10.9371L108.671 12.7838L108.231 15.1728L103.774 18.5438L100.299 20.8302L99.3164 19.5258L99.0965 16.9169V15.9349H97.0292L95.1818 17.342L93.0119 20.4931L91.9269 22.0173L86.6047 22.7795L85.0799 25.6082L84.7573 28.9791L86.6047 31.2655L91.4871 33.6545L93.3344 35.0615L93.657 36.5858L92.1322 37.3479L91.2671 39.4145L92.6747 41.8035L94.8446 43.2105L99.1845 43.6502L101.252 44.0899L101.472 46.1564L104.184 48.8678L107.219 50.3921L110.591 51.037L112.116 49.1903L115.811 50.8171L118.201 53.426L119.726 52.9863L122.658 57.1047L121.133 65.0338L123.303 68.0677L122.658 69.4747L119.946 72.406L118.538 73.813L116.471 76.202V79.6756L117.453 80.4377L119.623 80.6575L121.03 78.9134L122.335 78.8108L122.981 81.0972L126.235 82.2844L125.253 86.3002L123.083 90.6385L121.676 97.8055L121.778 102.364L121.456 106.819L121.998 110.293L129.813 120.171L132.965 122.78L138.39 125.814L139.915 125.169C139.915 125.169 144.255 122.135 145.677 122.883C147.084 123.645 150.354 125.052 150.354 125.052L153.066 127.763L156.101 130.797C156.101 130.797 158.169 130.577 159.254 130.9C160.339 131.222 164.473 132.204 164.473 132.204L167.948 133.728L169.253 136.44L170.778 143.167L172.303 145.116L172.523 147.608C172.523 147.608 172.2 148.795 171.76 149.352C171.496 149.674 168.974 151.902 167.024 153.617L167.963 154.892L171.438 156.841C171.438 156.841 172.845 161.517 172.962 162.484C173.065 163.466 173.065 165.958 173.065 166.28C173.065 166.603 172.962 168.347 172.962 168.347L172.742 170.516V171.381L175.455 171.161L180.015 170.941L181.54 169.314L185.557 168.669L187.727 169.754L192.726 173.125L198.694 173.989L206.626 173.667L207.608 170.736H212.93L214.455 173.022L216.083 174.004L218.253 173.462V161.957L222.373 157.281L224.22 156.519L228.677 156.622L231.067 159.553C231.067 159.553 232.474 160.418 232.914 160.315C233.354 160.212 235.084 158.146 235.084 158.146L238.339 155.977L241.169 154.79L242.356 154.687H248.221L249.526 154.365V152.078H251.417C251.623 151.404 251.843 150.715 252.033 150.334C252.473 149.469 252.136 149.249 252.356 147.842C252.576 146.435 252.458 144.809 252.458 144.809L252.517 144.794Z" fill="#95AB4D"/>
<path d="M252.517 144.794L251.535 143.05L249.248 141.1L246.315 138.609L245.01 135.458L244.365 135.018L243.603 132.629L244.145 130.885L245.67 128.716L247.737 125.785L248.177 123.498L247.195 118.94L250.025 110.688L249.042 108.739L247.517 107.332L245.567 104.401L245.787 101.03L247.092 96.1493L243.72 95.0648L239.805 93.7604L238.178 86.5934L237.196 83.0172L240.45 78.6789L241.433 76.7296L241.873 71.512C241.873 71.512 241.228 69.123 241.008 68.0384C240.788 66.9538 237.635 66.1917 237.635 66.1917L232.856 63.9053L228.941 61.5163L225.906 57.5005L223.516 54.8916L222.329 54.0269L217.446 51.9603L215.379 50.8758L215.159 48.4868L216.141 45.8779C216.141 45.8779 216.361 44.6908 216.361 44.0312C216.361 43.3717 216.039 43.1665 215.819 41.4224C215.599 39.6783 216.581 40.0154 216.581 40.0154L220.818 36.8643L224.073 32.4087L223.853 27.0884L225.041 24.5969V21.6656L228.618 13.8537L227.636 11.9044L226.654 9.51544L226.404 8.37224L225.129 8.10843L222.094 9.73528L219.807 13.3114L217.197 14.7185L214.265 15.5832L212.197 13.1942L208.283 5.70478L206.215 3.09594L203.18 2.65625L200.351 4.28311L199.163 5.80737L195.908 4.28311L188.738 3.84342L187.756 4.4883L184.281 6.335L184.824 9.80857L185.146 12.4174L181.349 15.0262L179.062 18.4998L178.417 19.8042C177.977 19.2619 176.467 16.4333 176.467 16.4333L173.534 15.6711L171.364 15.891L170.382 19.1447L169.194 20.9914L167.889 20.2293L166.907 19.3645L164.84 19.2619L163.975 20.1267L158.755 25.6668L154.958 26.1065L152.671 24.6995L146.366 23.395L145.061 21.4457L141.806 19.9215L133.332 19.0567L128.112 17.6497L122.145 13.5313L118.23 11.0397L112.043 10.9371L108.671 12.7838L108.231 15.1728L103.774 18.5438L100.299 20.8302L99.3164 19.5258L99.0965 16.9169V15.9349H97.0292L95.1818 17.342L93.0119 20.4931L91.9269 22.0173L86.6047 22.7795L85.0799 25.6082L84.7573 28.9791L86.6047 31.2655L91.4871 33.6545L93.3344 35.0615L93.657 36.5858L92.1322 37.3479L91.2671 39.4145L92.6747 41.8035L94.8446 43.2105L99.1845 43.6502L101.252 44.0899L101.472 46.1564L104.184 48.8678L107.219 50.3921L110.591 51.037L112.116 49.1903L115.811 50.8171L118.201 53.426L119.726 52.9863L122.658 57.1047L121.133 65.0338L123.303 68.0677L122.658 69.4747L119.946 72.406L118.538 73.813L116.471 76.202V79.6756L117.453 80.4377L119.623 80.6575L121.03 78.9134L122.335 78.8108L122.981 81.0972L126.235 82.2844L125.253 86.3002L123.083 90.6385L121.676 97.8055L121.778 102.364L121.456 106.819L121.998 110.293L129.813 120.171L132.965 122.78L138.39 125.814L139.915 125.169C139.915 125.169 144.255 122.135 145.677 122.883C147.084 123.645 150.354 125.052 150.354 125.052L153.066 127.763L156.101 130.797C156.101 130.797 158.169 130.577 159.254 130.9C160.339 131.222 164.473 132.204 164.473 132.204L167.948 133.728L169.253 136.44L170.778 143.167L172.303 145.116L172.523 147.608C172.523 147.608 172.2 148.795 171.76 149.352C171.496 149.674 168.974 151.902 167.024 153.617L167.963 154.892L171.438 156.841C171.438 156.841 172.845 161.517 172.962 162.484C173.065 163.466 173.065 165.958 173.065 166.28C173.065 166.603 172.962 168.347 172.962 168.347L172.742 170.516V171.381L175.455 171.161L180.015 170.941L181.54 169.314L185.557 168.669L187.727 169.754L192.726 173.125L198.694 173.989L206.626 173.667L207.608 170.736H212.93L214.455 173.022L216.083 174.004L218.253 173.462V161.957L222.373 157.281L224.22 156.519L228.677 156.622L231.067 159.553C231.067 159.553 232.474 160.418 232.914 160.315C233.354 160.212 235.084 158.146 235.084 158.146L238.339 155.977L241.169 154.79L242.356 154.687H248.221L249.526 154.365V152.078H251.417C251.623 151.404 251.843 150.715 252.033 150.334C252.473 149.469 252.136 149.249 252.356 147.842C252.576 146.435 252.458 144.809 252.458 144.809L252.517 144.794Z" stroke="#0D0D0C" stroke-width="4" stroke-linejoin="round" mask="url(#path-3-outside-3_481_5946)"/>
<mask id="path-4-outside-4_481_5946" maskUnits="userSpaceOnUse" x="36.7046" y="35.7292" width="138" height="176" fill="black">
<rect fill="white" x="36.7046" y="35.7292" width="138" height="176"/>
<path d="M86.7805 40.1182L86.8831 42.6098L84.4932 47.3878L81.8834 48.7948C81.8834 48.7948 79.0537 50.3191 78.7312 50.5389C78.4086 50.7588 75.4763 52.3856 75.4763 52.3856L71.8988 50.2165L64.0841 48.6922L59.9641 48.3698L57.5743 52.3856L56.8118 53.7926L52.0321 53.1478L47.9122 55.0971L48.4547 59.1129L50.302 62.0442C50.302 62.0442 51.8269 64.8729 52.0468 65.7376C52.2667 66.6023 53.9968 69.431 53.9968 69.431L58.234 74.1064L56.4893 75.8505L58.5566 78.8844L60.404 82.5778L57.9115 84.7469L57.8088 87.1359L62.3687 90.7121L62.9111 93.6434L62.266 95.7099L59.8762 96.6919L61.2837 99.0809L63.9961 103.961V105.149L62.3687 108.08L63.1311 110.029L63.4536 113.942L58.8938 116.331L58.0288 119.805H44.5546L42.3847 121.329L40.9772 123.279L39.7896 124.905L41.0945 127.294L41.6369 129.244L42.6193 131.735C42.6193 131.735 42.5166 134.564 42.3994 134.886C42.2967 135.209 41.6369 135.751 41.6369 135.751L39.467 137.818L38.7046 141.071L39.3497 143.783L42.2821 146.274L42.8245 148.341L44.3494 152.137L45.1851 154.233L45.3317 154.174L53.5569 154.907L56.4893 155.801C56.4893 155.801 57.4716 155.962 57.5449 156.373C57.6329 156.783 58.0288 159.055 58.0288 159.055L57.7795 160.682L57.6182 162.396L59.0844 164.917L59.7295 166.793L59.4803 170.135L60.3747 172.246L62.4126 173.623L67.7935 174.605H71.7082L76.5905 175.089L79.8455 176.467L82.206 181.274L81.8834 184.205L81.4729 186.565L78.3793 189.012L79.7575 190.888L82.6019 191.299L83.9801 197.323H96.5305L98.6418 202.203L102.718 203.508L106.632 203.669L109.154 204.651L111.031 206.761L116.324 208.637L120.722 209.282C120.722 209.282 124.227 208.96 124.388 208.637C124.549 208.315 125.605 206.527 125.605 206.527L126.089 202.775L126.177 199.272L126.763 198.011L125.986 197.836L123.493 196.311L122.848 192.94L122.203 187.298L120.796 182.08L120.356 179.691L121.118 177.082C121.118 177.082 120.796 172.964 120.678 172.524C120.576 172.084 120.781 170.032 120.781 170.032L121.763 166.779L121.866 163.95L123.611 160.257L126.646 159.495L129.475 159.172L135.238 157.428L135.677 154.936L142.847 155.259L146.967 152.767L150.119 151.785L153.052 151.463V150.598L157.069 149.953L159.459 151.038L160.764 152.342L162.714 151.477L166.511 152.782L167.098 153.573C169.048 151.859 171.569 149.631 171.833 149.308C172.273 148.766 172.596 147.564 172.596 147.564L172.376 145.073L170.851 143.123L169.326 136.396L168.021 133.685L164.546 132.16C164.546 132.16 160.426 131.178 159.327 130.856C158.242 130.533 156.175 130.753 156.175 130.753L153.14 127.719L150.427 125.008C150.427 125.008 147.172 123.601 145.75 122.839C144.342 122.077 139.988 125.125 139.988 125.125L138.463 125.77L133.038 122.736L129.886 120.127L122.071 110.249L121.529 106.775L121.851 102.32L121.749 97.7618L123.156 90.5948L125.326 86.2565L126.309 82.2407L123.054 81.0535L122.409 78.7671L121.104 78.8697L119.696 80.6138L117.526 80.394L116.544 79.6319V76.1583L118.611 73.7693L120.019 72.3623L122.731 69.431L123.376 68.024L121.206 64.9901L122.731 57.061L119.799 52.9426L118.274 53.3823L115.884 50.7734L112.189 49.1466L110.664 50.9933L107.292 50.3484L104.257 48.8241L101.545 46.1127L101.325 44.0462L99.2576 43.6065L94.9177 43.1668L92.7478 41.7598L91.3403 39.3708L92 37.8025L87.103 37.7292L86.7805 40.1182Z"/>
</mask>
<path d="M86.7805 40.1182L86.8831 42.6098L84.4932 47.3878L81.8834 48.7948C81.8834 48.7948 79.0537 50.3191 78.7312 50.5389C78.4086 50.7588 75.4763 52.3856 75.4763 52.3856L71.8988 50.2165L64.0841 48.6922L59.9641 48.3698L57.5743 52.3856L56.8118 53.7926L52.0321 53.1478L47.9122 55.0971L48.4547 59.1129L50.302 62.0442C50.302 62.0442 51.8269 64.8729 52.0468 65.7376C52.2667 66.6023 53.9968 69.431 53.9968 69.431L58.234 74.1064L56.4893 75.8505L58.5566 78.8844L60.404 82.5778L57.9115 84.7469L57.8088 87.1359L62.3687 90.7121L62.9111 93.6434L62.266 95.7099L59.8762 96.6919L61.2837 99.0809L63.9961 103.961V105.149L62.3687 108.08L63.1311 110.029L63.4536 113.942L58.8938 116.331L58.0288 119.805H44.5546L42.3847 121.329L40.9772 123.279L39.7896 124.905L41.0945 127.294L41.6369 129.244L42.6193 131.735C42.6193 131.735 42.5166 134.564 42.3994 134.886C42.2967 135.209 41.6369 135.751 41.6369 135.751L39.467 137.818L38.7046 141.071L39.3497 143.783L42.2821 146.274L42.8245 148.341L44.3494 152.137L45.1851 154.233L45.3317 154.174L53.5569 154.907L56.4893 155.801C56.4893 155.801 57.4716 155.962 57.5449 156.373C57.6329 156.783 58.0288 159.055 58.0288 159.055L57.7795 160.682L57.6182 162.396L59.0844 164.917L59.7295 166.793L59.4803 170.135L60.3747 172.246L62.4126 173.623L67.7935 174.605H71.7082L76.5905 175.089L79.8455 176.467L82.206 181.274L81.8834 184.205L81.4729 186.565L78.3793 189.012L79.7575 190.888L82.6019 191.299L83.9801 197.323H96.5305L98.6418 202.203L102.718 203.508L106.632 203.669L109.154 204.651L111.031 206.761L116.324 208.637L120.722 209.282C120.722 209.282 124.227 208.96 124.388 208.637C124.549 208.315 125.605 206.527 125.605 206.527L126.089 202.775L126.177 199.272L126.763 198.011L125.986 197.836L123.493 196.311L122.848 192.94L122.203 187.298L120.796 182.08L120.356 179.691L121.118 177.082C121.118 177.082 120.796 172.964 120.678 172.524C120.576 172.084 120.781 170.032 120.781 170.032L121.763 166.779L121.866 163.95L123.611 160.257L126.646 159.495L129.475 159.172L135.238 157.428L135.677 154.936L142.847 155.259L146.967 152.767L150.119 151.785L153.052 151.463V150.598L157.069 149.953L159.459 151.038L160.764 152.342L162.714 151.477L166.511 152.782L167.098 153.573C169.048 151.859 171.569 149.631 171.833 149.308C172.273 148.766 172.596 147.564 172.596 147.564L172.376 145.073L170.851 143.123L169.326 136.396L168.021 133.685L164.546 132.16C164.546 132.16 160.426 131.178 159.327 130.856C158.242 130.533 156.175 130.753 156.175 130.753L153.14 127.719L150.427 125.008C150.427 125.008 147.172 123.601 145.75 122.839C144.342 122.077 139.988 125.125 139.988 125.125L138.463 125.77L133.038 122.736L129.886 120.127L122.071 110.249L121.529 106.775L121.851 102.32L121.749 97.7618L123.156 90.5948L125.326 86.2565L126.309 82.2407L123.054 81.0535L122.409 78.7671L121.104 78.8697L119.696 80.6138L117.526 80.394L116.544 79.6319V76.1583L118.611 73.7693L120.019 72.3623L122.731 69.431L123.376 68.024L121.206 64.9901L122.731 57.061L119.799 52.9426L118.274 53.3823L115.884 50.7734L112.189 49.1466L110.664 50.9933L107.292 50.3484L104.257 48.8241L101.545 46.1127L101.325 44.0462L99.2576 43.6065L94.9177 43.1668L92.7478 41.7598L91.3403 39.3708L92 37.8025L87.103 37.7292L86.7805 40.1182Z" fill="#95AB4D"/>
<path d="M86.7805 40.1182L86.8831 42.6098L84.4932 47.3878L81.8834 48.7948C81.8834 48.7948 79.0537 50.3191 78.7312 50.5389C78.4086 50.7588 75.4763 52.3856 75.4763 52.3856L71.8988 50.2165L64.0841 48.6922L59.9641 48.3698L57.5743 52.3856L56.8118 53.7926L52.0321 53.1478L47.9122 55.0971L48.4547 59.1129L50.302 62.0442C50.302 62.0442 51.8269 64.8729 52.0468 65.7376C52.2667 66.6023 53.9968 69.431 53.9968 69.431L58.234 74.1064L56.4893 75.8505L58.5566 78.8844L60.404 82.5778L57.9115 84.7469L57.8088 87.1359L62.3687 90.7121L62.9111 93.6434L62.266 95.7099L59.8762 96.6919L61.2837 99.0809L63.9961 103.961V105.149L62.3687 108.08L63.1311 110.029L63.4536 113.942L58.8938 116.331L58.0288 119.805H44.5546L42.3847 121.329L40.9772 123.279L39.7896 124.905L41.0945 127.294L41.6369 129.244L42.6193 131.735C42.6193 131.735 42.5166 134.564 42.3994 134.886C42.2967 135.209 41.6369 135.751 41.6369 135.751L39.467 137.818L38.7046 141.071L39.3497 143.783L42.2821 146.274L42.8245 148.341L44.3494 152.137L45.1851 154.233L45.3317 154.174L53.5569 154.907L56.4893 155.801C56.4893 155.801 57.4716 155.962 57.5449 156.373C57.6329 156.783 58.0288 159.055 58.0288 159.055L57.7795 160.682L57.6182 162.396L59.0844 164.917L59.7295 166.793L59.4803 170.135L60.3747 172.246L62.4126 173.623L67.7935 174.605H71.7082L76.5905 175.089L79.8455 176.467L82.206 181.274L81.8834 184.205L81.4729 186.565L78.3793 189.012L79.7575 190.888L82.6019 191.299L83.9801 197.323H96.5305L98.6418 202.203L102.718 203.508L106.632 203.669L109.154 204.651L111.031 206.761L116.324 208.637L120.722 209.282C120.722 209.282 124.227 208.96 124.388 208.637C124.549 208.315 125.605 206.527 125.605 206.527L126.089 202.775L126.177 199.272L126.763 198.011L125.986 197.836L123.493 196.311L122.848 192.94L122.203 187.298L120.796 182.08L120.356 179.691L121.118 177.082C121.118 177.082 120.796 172.964 120.678 172.524C120.576 172.084 120.781 170.032 120.781 170.032L121.763 166.779L121.866 163.95L123.611 160.257L126.646 159.495L129.475 159.172L135.238 157.428L135.677 154.936L142.847 155.259L146.967 152.767L150.119 151.785L153.052 151.463V150.598L157.069 149.953L159.459 151.038L160.764 152.342L162.714 151.477L166.511 152.782L167.098 153.573C169.048 151.859 171.569 149.631 171.833 149.308C172.273 148.766 172.596 147.564 172.596 147.564L172.376 145.073L170.851 143.123L169.326 136.396L168.021 133.685L164.546 132.16C164.546 132.16 160.426 131.178 159.327 130.856C158.242 130.533 156.175 130.753 156.175 130.753L153.14 127.719L150.427 125.008C150.427 125.008 147.172 123.601 145.75 122.839C144.342 122.077 139.988 125.125 139.988 125.125L138.463 125.77L133.038 122.736L129.886 120.127L122.071 110.249L121.529 106.775L121.851 102.32L121.749 97.7618L123.156 90.5948L125.326 86.2565L126.309 82.2407L123.054 81.0535L122.409 78.7671L121.104 78.8697L119.696 80.6138L117.526 80.394L116.544 79.6319V76.1583L118.611 73.7693L120.019 72.3623L122.731 69.431L123.376 68.024L121.206 64.9901L122.731 57.061L119.799 52.9426L118.274 53.3823L115.884 50.7734L112.189 49.1466L110.664 50.9933L107.292 50.3484L104.257 48.8241L101.545 46.1127L101.325 44.0462L99.2576 43.6065L94.9177 43.1668L92.7478 41.7598L91.3403 39.3708L92 37.8025L87.103 37.7292L86.7805 40.1182Z" stroke="#0D0D0C" stroke-width="4" stroke-linejoin="round" mask="url(#path-4-outside-4_481_5946)"/>
<path d="M106.882 127.268C106.586 126.158 106.029 125.134 105.259 124.281C104.489 123.428 103.527 122.771 102.452 122.362C101.378 121.954 100.222 121.808 99.0796 121.934C97.9373 122.061 96.8415 122.457 95.8825 123.091C95.7962 123.039 95.7062 122.991 95.615 122.947L97.7225 114.532C97.7607 114.38 97.7501 114.219 97.6923 114.073C97.6344 113.927 97.5322 113.803 97.4 113.718C96.5709 113.189 95.6428 112.835 94.6722 112.676C93.7016 112.517 92.7089 112.557 91.7544 112.794C90.7998 113.031 89.9035 113.459 89.1198 114.054C88.3362 114.648 87.6817 115.395 87.196 116.251C86.7104 117.106 86.4039 118.051 86.2951 119.028C86.1863 120.006 86.2776 120.995 86.5633 121.936C86.8489 122.877 87.3231 123.75 87.9569 124.503C88.5907 125.255 89.3709 125.87 90.25 126.311V126.328C90.25 126.424 90.25 126.521 90.2625 126.616L81.9212 128.998C81.7697 129.041 81.6354 129.13 81.5373 129.253C81.4393 129.376 81.3825 129.527 81.375 129.684C81.3382 130.663 81.5001 131.639 81.851 132.554C82.2019 133.468 82.7344 134.302 83.4165 135.005C84.0985 135.708 84.9159 136.266 85.8194 136.644C86.7228 137.022 87.6936 137.214 88.6731 137.207C89.6525 137.199 90.6203 136.994 91.5182 136.602C92.416 136.211 93.2251 135.641 93.8968 134.928C94.5684 134.215 95.0887 133.374 95.4261 132.454C95.7635 131.535 95.9111 130.556 95.86 129.578C95.9475 129.528 96.0337 129.474 96.1175 129.417L102.351 135.453C102.464 135.562 102.609 135.633 102.765 135.656C102.921 135.678 103.079 135.651 103.219 135.578C104.685 134.817 105.848 133.578 106.514 132.066C107.181 130.554 107.311 128.86 106.882 127.264V127.268ZM91.75 126.328C91.75 125.883 91.8819 125.448 92.1292 125.078C92.3764 124.708 92.7278 124.42 93.1389 124.25C93.5501 124.079 94.0025 124.035 94.4389 124.121C94.8754 124.208 95.2763 124.423 95.591 124.737C95.9056 125.052 96.1199 125.453 96.2068 125.889C96.2936 126.326 96.249 126.778 96.0787 127.189C95.9084 127.6 95.62 127.952 95.25 128.199C94.88 128.446 94.445 128.578 94 128.578C93.4032 128.578 92.831 128.341 92.409 127.919C91.987 127.497 91.75 126.925 91.75 126.328ZM87.75 119.828C87.7497 118.842 88.0031 117.872 88.4858 117.012C88.9686 116.152 89.6645 115.43 90.5066 114.917C91.3487 114.404 92.3088 114.115 93.2945 114.08C94.2802 114.045 95.2583 114.264 96.135 114.716L94.165 122.578C94.11 122.578 94.055 122.578 94 122.578C93.2785 122.579 92.5725 122.787 91.9666 123.179C91.3606 123.57 90.8805 124.128 90.5837 124.786C89.7192 124.279 89.0026 123.555 88.5053 122.685C88.0081 121.815 87.7477 120.83 87.75 119.828ZM91.5 134.991C90.6459 135.485 89.6788 135.752 88.6919 135.764C87.705 135.777 86.7314 135.535 85.865 135.063C84.9985 134.59 84.2683 133.902 83.7447 133.066C83.221 132.229 82.9215 131.272 82.875 130.286L90.6737 128.058C90.9903 128.667 91.4678 129.177 92.0543 129.533C92.6408 129.89 93.3138 130.078 94 130.078C94.1252 130.078 94.2504 130.072 94.375 130.059C94.3684 131.061 94.0995 132.043 93.5951 132.908C93.0906 133.774 92.3683 134.492 91.5 134.991ZM104.862 132.021C104.403 132.815 103.76 133.488 102.987 133.983L97.1587 128.343C97.5629 127.712 97.768 126.974 97.7472 126.224C97.7265 125.475 97.481 124.749 97.0425 124.141C98.14 123.519 99.4115 123.276 100.661 123.448C101.911 123.62 103.069 124.199 103.957 125.094C104.846 125.989 105.415 127.152 105.578 128.403C105.741 129.653 105.487 130.923 104.857 132.016L104.862 132.021Z" fill="#0D0D0C"/>
<path d="M193.194 86.9731L194.875 75.1869C194.909 74.9481 195.028 74.7297 195.211 74.5719C195.393 74.4141 195.626 74.3275 195.867 74.3281H198.132C198.374 74.3275 198.607 74.4141 198.789 74.5719C198.972 74.7297 199.091 74.9481 199.125 75.1869L201 88.3281V98.3281" stroke="#0D0D0C" stroke-width="1.5" stroke-linecap="round" stroke-linejoin="round"/>
<path d="M179 99.3281V89.3281L180.875 76.1869C180.909 75.9481 181.028 75.7297 181.211 75.5719C181.393 75.4141 181.626 75.3275 181.868 75.3281H184.133C184.374 75.3275 184.607 75.4141 184.789 75.5719C184.972 75.7297 185.091 75.9481 185.125 76.1869L186.806 87.9731L190 83.3281L193.175 87.9731" stroke="#0D0D0C" stroke-width="1.5" stroke-linecap="round" stroke-linejoin="round"/>
<path d="M184 94.3281H187.5" stroke="#0D0D0C" stroke-width="1.5" stroke-linecap="round" stroke-linejoin="round"/>
<path d="M192.5 94.3281H196" stroke="#0D0D0C" stroke-width="1.5" stroke-linecap="round" stroke-linejoin="round"/>
<path d="M177 99.3281H203" stroke="#0D0D0C" stroke-width="1.5" stroke-linecap="round" stroke-linejoin="round"/>
<path d="M63.1937 217.973L64.875 206.187C64.909 205.948 65.0283 205.73 65.2106 205.572C65.393 205.414 65.6263 205.328 65.8675 205.328H68.1325C68.3737 205.328 68.6069 205.414 68.7893 205.572C68.9717 205.73 69.0909 205.948 69.125 206.187L71 219.328V229.328" stroke="#0D0D0C" stroke-width="1.5" stroke-linecap="round" stroke-linejoin="round"/>
<path d="M49.0001 229.328V219.328L50.8751 206.187C50.9091 205.948 51.0283 205.73 51.2107 205.572C51.3931 205.414 51.6264 205.328 51.8676 205.328H54.1326C54.3737 205.328 54.607 205.414 54.7894 205.572C54.9718 205.73 55.091 205.948 55.1251 206.187L56.8063 217.973L60 213.328L63.1754 217.973" stroke="#0D0D0C" stroke-width="1.5" stroke-linecap="round" stroke-linejoin="round"/>
<path d="M54 224.328H57.5" stroke="#0D0D0C" stroke-width="1.5" stroke-linecap="round" stroke-linejoin="round"/>
<path d="M62.5 224.328H66" stroke="#0D0D0C" stroke-width="1.5" stroke-linecap="round" stroke-linejoin="round"/>
<path d="M47 229.328H73" stroke="#0D0D0C" stroke-width="1.5" stroke-linecap="round" stroke-linejoin="round"/>
<path d="M169.25 201.328C169.25 201.129 169.329 200.938 169.47 200.798C169.61 200.657 169.801 200.578 170 200.578H172C172.199 200.578 172.39 200.657 172.53 200.798C172.671 200.938 172.75 201.129 172.75 201.328C172.75 201.527 172.671 201.718 172.53 201.858C172.39 201.999 172.199 202.078 172 202.078H170C169.801 202.078 169.61 201.999 169.47 201.858C169.329 201.718 169.25 201.527 169.25 201.328ZM174.105 195.494C174.174 195.565 174.257 195.621 174.348 195.66C174.44 195.698 174.537 195.718 174.636 195.719C174.735 195.719 174.834 195.7 174.925 195.662C175.017 195.625 175.1 195.569 175.17 195.499C175.24 195.429 175.296 195.346 175.333 195.255C175.371 195.163 175.39 195.065 175.39 194.966C175.39 194.867 175.37 194.769 175.331 194.678C175.293 194.587 175.237 194.504 175.166 194.434L173.75 193.019C173.607 192.893 173.421 192.825 173.23 192.831C173.039 192.837 172.857 192.915 172.722 193.05C172.587 193.185 172.509 193.367 172.503 193.558C172.497 193.749 172.564 193.935 172.691 194.078L174.105 195.494ZM181 193.078C181.199 193.078 181.39 192.999 181.53 192.858C181.671 192.718 181.75 192.527 181.75 192.328V190.328C181.75 190.129 181.671 189.938 181.53 189.798C181.39 189.657 181.199 189.578 181 189.578C180.801 189.578 180.61 189.657 180.47 189.798C180.329 189.938 180.25 190.129 180.25 190.328V192.328C180.25 192.527 180.329 192.718 180.47 192.858C180.61 192.999 180.801 193.078 181 193.078ZM187.364 195.714C187.462 195.714 187.56 195.695 187.651 195.657C187.742 195.62 187.825 195.564 187.895 195.494L189.309 194.078C189.436 193.935 189.503 193.749 189.497 193.558C189.492 193.367 189.413 193.185 189.278 193.05C189.143 192.915 188.961 192.837 188.77 192.831C188.579 192.825 188.393 192.893 188.25 193.019L186.834 194.434C186.729 194.539 186.658 194.673 186.629 194.818C186.6 194.964 186.615 195.114 186.671 195.251C186.728 195.388 186.824 195.505 186.947 195.588C187.071 195.67 187.216 195.714 187.364 195.714ZM189.25 201.328C189.25 201.527 189.329 201.718 189.47 201.858C189.61 201.999 189.801 202.078 190 202.078H192C192.199 202.078 192.39 201.999 192.53 201.858C192.671 201.718 192.75 201.527 192.75 201.328C192.75 201.129 192.671 200.938 192.53 200.798C192.39 200.657 192.199 200.578 192 200.578H190C189.801 200.578 189.61 200.657 189.47 200.798C189.329 200.938 189.25 201.129 189.25 201.328ZM176 202.078C176.199 202.078 176.39 201.999 176.53 201.858C176.671 201.718 176.75 201.527 176.75 201.328C176.75 200.201 177.198 199.12 177.995 198.323C178.792 197.526 179.873 197.078 181 197.078C182.127 197.078 183.208 197.526 184.005 198.323C184.802 199.12 185.25 200.201 185.25 201.328C185.25 201.527 185.329 201.718 185.47 201.858C185.61 201.999 185.801 202.078 186 202.078C186.199 202.078 186.39 201.999 186.53 201.858C186.671 201.718 186.75 201.527 186.75 201.328C186.75 199.803 186.144 198.341 185.066 197.262C183.988 196.184 182.525 195.578 181 195.578C179.475 195.578 178.012 196.184 176.934 197.262C175.856 198.341 175.25 199.803 175.25 201.328C175.25 201.527 175.329 201.718 175.47 201.858C175.61 201.999 175.801 202.078 176 202.078ZM194.648 215.703C194.582 215.817 194.488 215.911 194.374 215.977C194.26 216.043 194.131 216.078 194 216.078H168C167.869 216.078 167.74 216.044 167.627 215.978C167.513 215.913 167.419 215.819 167.353 215.706C167.287 215.593 167.252 215.464 167.251 215.333C167.25 215.202 167.283 215.073 167.348 214.959L172.434 205.959C172.499 205.844 172.594 205.747 172.709 205.68C172.824 205.613 172.955 205.578 173.088 205.578H188.913C189.046 205.578 189.176 205.613 189.291 205.68C189.406 205.747 189.501 205.844 189.566 205.959L194.653 214.959C194.716 215.073 194.75 215.201 194.749 215.332C194.748 215.462 194.713 215.59 194.648 215.703ZM188.475 207.078H184.975L185.519 209.578H189.894L188.475 207.078ZM183.983 209.578L183.439 207.078H178.564L178.02 209.578H183.983ZM177.691 211.078L176.93 214.578H185.07L184.309 211.078H177.691ZM172.111 209.578H176.486L177.03 207.078H173.53L172.111 209.578ZM169.285 214.578H175.395L176.156 211.078H171.264L169.285 214.578ZM192.715 214.578L190.736 211.078H185.844L186.605 214.578H192.715Z" fill="#0D0D0C"/>
</g>
<defs>
<filter id="filter0_d_481_5946" x="0" y="0.328125" width="274" height="277" filterUnits="userSpaceOnUse" color-interpolation-filters="sRGB">
<feFlood flood-opacity="0" result="BackgroundImageFix"/>
<feColorMatrix in="SourceAlpha" type="matrix" values="0 0 0 0 0 0 0 0 0 0 0 0 0 0 0 0 0 0 127 0" result="hardAlpha"/>
<feOffset dx="2" dy="2"/>
<feComposite in2="hardAlpha" operator="out"/>
<feColorMatrix type="matrix" values="0 0 0 0 0 0 0 0 0 0 0 0 0 0 0 0 0 0 1 0"/>
<feBlend mode="normal" in2="BackgroundImageFix" result="effect1_dropShadow_481_5946"/>
<feBlend mode="normal" in="SourceGraphic" in2="effect1_dropShadow_481_5946" result="shape"/>
</filter>
</defs>
</svg>
