<svg width="346" height="196" viewBox="0 0 346 196" fill="none" xmlns="http://www.w3.org/2000/svg">
<path d="M22.8282 27.0469C25.1582 27.0469 27.047 25.1581 27.047 22.8281C27.047 20.4982 25.1582 18.6094 22.8282 18.6094C20.4983 18.6094 18.6095 20.4982 18.6095 22.8281C18.6095 25.1581 20.4983 27.0469 22.8282 27.0469Z" stroke="#0D0D0C" stroke-width="2" stroke-linecap="round" stroke-linejoin="round"/>
<path d="M18.664 22.1497C17.495 21.6645 16.4396 20.9419 15.5644 20.0275C14.6893 19.1132 14.0136 18.0271 13.5801 16.838C13.1466 15.6489 12.9648 14.3827 13.0461 13.1197C13.1275 11.8567 13.4703 10.6243 14.0527 9.50064C14.6352 8.37699 15.4447 7.38654 16.4299 6.59204C17.4151 5.79753 18.5545 5.21629 19.7761 4.88511C20.9976 4.55394 22.2747 4.48006 23.5263 4.66815C24.7779 4.85625 25.9768 5.30221 27.047 5.9778L23.8531 18.729" stroke="#0D0D0C" stroke-width="2" stroke-linecap="round" stroke-linejoin="round"/>
<path d="M24.3224 26.7745C24.4895 28.0308 24.3936 29.3081 24.0407 30.5254C23.6878 31.7427 23.0856 32.8732 22.2724 33.8453C21.4591 34.8174 20.4526 35.6097 19.3168 36.172C18.1809 36.7342 16.9406 37.0542 15.6745 37.1114C14.4084 37.1687 13.1442 36.962 11.9623 36.5045C10.7803 36.0471 9.70643 35.3488 8.80879 34.4541C7.91114 33.5594 7.20937 32.4878 6.74803 31.3073C6.2867 30.1269 6.07589 28.8634 6.129 27.5971L18.7694 23.9866" stroke="#0D0D0C" stroke-width="2" stroke-linecap="round" stroke-linejoin="round"/>
<path d="M25.4984 19.5604C26.5028 18.7875 27.6569 18.2319 28.8875 17.9289C30.118 17.6259 31.3982 17.5821 32.6466 17.8003C33.895 18.0185 35.0844 18.4939 36.1392 19.1963C37.1941 19.8988 38.0913 20.8129 38.774 21.8806C39.4567 22.9484 39.9099 24.1464 40.1048 25.3987C40.2997 26.6509 40.2321 27.93 39.9062 29.1547C39.5803 30.3795 39.0034 31.523 38.2119 32.5128C37.4204 33.5026 36.4318 34.3171 35.3088 34.9044L25.8623 25.7637" stroke="#0D0D0C" stroke-width="2" stroke-linecap="round" stroke-linejoin="round"/>
<path d="M60.4602 15.1201H63.2542L66.0922 27.1321H66.1362L69.3042 15.1201H72.1202L75.2002 27.1321H75.2442L78.1702 15.1201H80.9642L76.6302 30.8281H73.8362L70.6902 18.8161H70.6462L67.4342 30.8281H64.5962L60.4602 15.1201ZM82.4896 15.1201H84.9976V17.4961H82.4896V15.1201ZM82.4896 19.4541H84.9976V30.8281H82.4896V19.4541ZM87.7303 19.4541H90.1063V21.1261L90.1503 21.1701C90.5316 20.5395 91.0303 20.0481 91.6463 19.6961C92.2623 19.3295 92.9443 19.1461 93.6923 19.1461C94.9389 19.1461 95.9216 19.4688 96.6403 20.1141C97.3589 20.7595 97.7183 21.7275 97.7183 23.0181V30.8281H95.2103V23.6781C95.1809 22.7835 94.9903 22.1381 94.6383 21.7421C94.2863 21.3315 93.7363 21.1261 92.9883 21.1261C92.5629 21.1261 92.1816 21.2068 91.8443 21.3681C91.5069 21.5148 91.2209 21.7275 90.9863 22.0061C90.7516 22.2701 90.5683 22.5855 90.4363 22.9521C90.3043 23.3188 90.2383 23.7075 90.2383 24.1181V30.8281H87.7303V19.4541ZM111.077 30.8281H108.701V29.2881H108.657C108.32 29.9481 107.828 30.4248 107.183 30.7181C106.538 30.9968 105.856 31.1361 105.137 31.1361C104.242 31.1361 103.458 30.9821 102.783 30.6741C102.123 30.3515 101.573 29.9188 101.133 29.3761C100.693 28.8335 100.363 28.1955 100.143 27.4621C99.9231 26.7141 99.8131 25.9148 99.8131 25.0641C99.8131 24.0375 99.9524 23.1501 100.231 22.4021C100.51 21.6541 100.876 21.0381 101.331 20.5541C101.8 20.0701 102.328 19.7181 102.915 19.4981C103.516 19.2635 104.125 19.1461 104.741 19.1461C105.093 19.1461 105.452 19.1828 105.819 19.2561C106.186 19.3148 106.538 19.4175 106.875 19.5641C107.212 19.7108 107.52 19.9015 107.799 20.1361C108.092 20.3561 108.334 20.6201 108.525 20.9281H108.569V15.1201H111.077V30.8281ZM102.321 25.2621C102.321 25.7461 102.38 26.2228 102.497 26.6921C102.629 27.1615 102.82 27.5795 103.069 27.9461C103.333 28.3128 103.663 28.6061 104.059 28.8261C104.455 29.0461 104.924 29.1561 105.467 29.1561C106.024 29.1561 106.501 29.0388 106.897 28.8041C107.308 28.5695 107.638 28.2615 107.887 27.8801C108.151 27.4988 108.342 27.0735 108.459 26.6041C108.591 26.1201 108.657 25.6288 108.657 25.1301C108.657 23.8688 108.371 22.8861 107.799 22.1821C107.242 21.4781 106.479 21.1261 105.511 21.1261C104.924 21.1261 104.426 21.2508 104.015 21.5001C103.619 21.7348 103.289 22.0501 103.025 22.4461C102.776 22.8275 102.592 23.2675 102.475 23.7661C102.372 24.2501 102.321 24.7488 102.321 25.2621ZM120.001 19.4541H122.377V20.9941H122.421C122.773 20.3341 123.265 19.8648 123.895 19.5861C124.526 19.2928 125.208 19.1461 125.941 19.1461C126.836 19.1461 127.613 19.3075 128.273 19.6301C128.948 19.9381 129.505 20.3708 129.945 20.9281C130.385 21.4708 130.715 22.1088 130.935 22.8421C131.155 23.5755 131.265 24.3601 131.265 25.1961C131.265 25.9588 131.163 26.6995 130.957 27.4181C130.767 28.1368 130.466 28.7748 130.055 29.3321C129.659 29.8748 129.153 30.3148 128.537 30.6521C127.921 30.9748 127.195 31.1361 126.359 31.1361C125.993 31.1361 125.626 31.0995 125.259 31.0261C124.893 30.9675 124.541 30.8648 124.203 30.7181C123.866 30.5715 123.551 30.3881 123.257 30.1681C122.979 29.9335 122.744 29.6621 122.553 29.3541H122.509V35.0301H120.001V19.4541ZM128.757 25.1521C128.757 24.6388 128.691 24.1401 128.559 23.6561C128.427 23.1721 128.229 22.7468 127.965 22.3801C127.701 21.9988 127.371 21.6981 126.975 21.4781C126.579 21.2435 126.125 21.1261 125.611 21.1261C124.555 21.1261 123.756 21.4928 123.213 22.2261C122.685 22.9595 122.421 23.9348 122.421 25.1521C122.421 25.7241 122.487 26.2595 122.619 26.7581C122.766 27.2421 122.979 27.6601 123.257 28.0121C123.536 28.3641 123.866 28.6428 124.247 28.8481C124.643 29.0535 125.098 29.1561 125.611 29.1561C126.183 29.1561 126.667 29.0388 127.063 28.8041C127.459 28.5695 127.782 28.2688 128.031 27.9021C128.295 27.5208 128.479 27.0955 128.581 26.6261C128.699 26.1421 128.757 25.6508 128.757 25.1521ZM138.599 31.1361C137.689 31.1361 136.875 30.9895 136.157 30.6961C135.453 30.3881 134.851 29.9701 134.353 29.4421C133.869 28.9141 133.495 28.2835 133.231 27.5501C132.981 26.8168 132.857 26.0101 132.857 25.1301C132.857 24.2648 132.981 23.4655 133.231 22.7321C133.495 21.9988 133.869 21.3681 134.353 20.8401C134.851 20.3121 135.453 19.9015 136.157 19.6081C136.875 19.3001 137.689 19.1461 138.599 19.1461C139.508 19.1461 140.315 19.3001 141.019 19.6081C141.737 19.9015 142.339 20.3121 142.823 20.8401C143.321 21.3681 143.695 21.9988 143.945 22.7321C144.209 23.4655 144.341 24.2648 144.341 25.1301C144.341 26.0101 144.209 26.8168 143.945 27.5501C143.695 28.2835 143.321 28.9141 142.823 29.4421C142.339 29.9701 141.737 30.3881 141.019 30.6961C140.315 30.9895 139.508 31.1361 138.599 31.1361ZM138.599 29.1561C139.156 29.1561 139.64 29.0388 140.051 28.8041C140.461 28.5695 140.799 28.2615 141.063 27.8801C141.327 27.4988 141.517 27.0735 141.635 26.6041C141.767 26.1201 141.833 25.6288 141.833 25.1301C141.833 24.6461 141.767 24.1621 141.635 23.6781C141.517 23.1941 141.327 22.7688 141.063 22.4021C140.799 22.0208 140.461 21.7128 140.051 21.4781C139.64 21.2435 139.156 21.1261 138.599 21.1261C138.041 21.1261 137.557 21.2435 137.147 21.4781C136.736 21.7128 136.399 22.0208 136.135 22.4021C135.871 22.7688 135.673 23.1941 135.541 23.6781C135.423 24.1621 135.365 24.6461 135.365 25.1301C135.365 25.6288 135.423 26.1201 135.541 26.6041C135.673 27.0735 135.871 27.4988 136.135 27.8801C136.399 28.2615 136.736 28.5695 137.147 28.8041C137.557 29.0388 138.041 29.1561 138.599 29.1561ZM145.392 19.4541H148.054L150.276 27.9461H150.32L152.454 19.4541H154.984L157.03 27.9461H157.074L159.384 19.4541H161.936L158.372 30.8281H155.798L153.686 22.3801H153.642L151.552 30.8281H148.912L145.392 19.4541ZM171.359 24.1401C171.329 23.7441 171.241 23.3628 171.095 22.9961C170.963 22.6295 170.772 22.3141 170.523 22.0501C170.288 21.7715 169.995 21.5515 169.643 21.3901C169.305 21.2141 168.924 21.1261 168.499 21.1261C168.059 21.1261 167.655 21.2068 167.289 21.3681C166.937 21.5148 166.629 21.7275 166.365 22.0061C166.115 22.2701 165.91 22.5855 165.749 22.9521C165.602 23.3188 165.521 23.7148 165.507 24.1401H171.359ZM165.507 25.7901C165.507 26.2301 165.565 26.6555 165.683 27.0661C165.815 27.4768 166.005 27.8361 166.255 28.1441C166.504 28.4521 166.819 28.7015 167.201 28.8921C167.582 29.0681 168.037 29.1561 168.565 29.1561C169.298 29.1561 169.885 29.0021 170.325 28.6941C170.779 28.3715 171.117 27.8948 171.337 27.2641H173.713C173.581 27.8801 173.353 28.4301 173.031 28.9141C172.708 29.3981 172.319 29.8088 171.865 30.1461C171.41 30.4688 170.897 30.7108 170.325 30.8721C169.767 31.0481 169.181 31.1361 168.565 31.1361C167.67 31.1361 166.878 30.9895 166.189 30.6961C165.499 30.4028 164.913 29.9921 164.429 29.4641C163.959 28.9361 163.6 28.3055 163.351 27.5721C163.116 26.8388 162.999 26.0321 162.999 25.1521C162.999 24.3455 163.123 23.5828 163.373 22.8641C163.637 22.1308 164.003 21.4928 164.473 20.9501C164.957 20.3928 165.536 19.9528 166.211 19.6301C166.885 19.3075 167.648 19.1461 168.499 19.1461C169.393 19.1461 170.193 19.3368 170.897 19.7181C171.615 20.0848 172.209 20.5761 172.679 21.1921C173.148 21.8081 173.485 22.5195 173.691 23.3261C173.911 24.1181 173.969 24.9395 173.867 25.7901H165.507ZM175.773 19.4541H178.127V21.6541H178.171C178.245 21.3461 178.384 21.0455 178.589 20.7521C178.809 20.4588 179.066 20.1948 179.359 19.9601C179.667 19.7108 180.005 19.5128 180.371 19.3661C180.738 19.2195 181.112 19.1461 181.493 19.1461C181.787 19.1461 181.985 19.1535 182.087 19.1681C182.205 19.1828 182.322 19.1975 182.439 19.2121V21.6321C182.263 21.6028 182.08 21.5808 181.889 21.5661C181.713 21.5368 181.537 21.5221 181.361 21.5221C180.936 21.5221 180.533 21.6101 180.151 21.7861C179.785 21.9475 179.462 22.1968 179.183 22.5341C178.905 22.8568 178.685 23.2601 178.523 23.7441C178.362 24.2281 178.281 24.7855 178.281 25.4161V30.8281H175.773V19.4541Z" fill="#1A0803"/>
<path d="M7.3595 82.9549C20.0157 72.4625 25.6407 92.8813 38.297 82.3889" stroke="#0D0D0C" stroke-width="2.5" stroke-linecap="round" stroke-linejoin="round"/>
<path d="M7.3595 73.1112C20.0157 62.6188 25.6407 83.0375 38.297 72.5452" stroke="#0D0D0C" stroke-width="2.5" stroke-linecap="round" stroke-linejoin="round"/>
<path d="M7.3595 63.2674C20.0157 52.775 25.6407 73.1938 38.297 62.7014" stroke="#0D0D0C" stroke-width="2.5" stroke-linecap="round" stroke-linejoin="round"/>
<path d="M61.9342 65.1201H64.6842V71.3681H71.8342V65.1201H74.5842V80.8281H71.8342V73.7441H64.6842V80.8281H61.9342V65.1201ZM76.2712 69.4541H79.0212L81.9912 77.9461H82.0352L84.9172 69.4541H87.5352L83.1132 81.4441C82.9079 81.9575 82.7025 82.4488 82.4972 82.9181C82.3065 83.3875 82.0645 83.7981 81.7712 84.1501C81.4925 84.5168 81.1405 84.8028 80.7152 85.0081C80.2899 85.2281 79.7472 85.3381 79.0872 85.3381C78.5005 85.3381 77.9212 85.2941 77.3492 85.2061V83.0941C77.5545 83.1235 77.7525 83.1528 77.9432 83.1821C78.1339 83.2261 78.3319 83.2481 78.5372 83.2481C78.8305 83.2481 79.0725 83.2115 79.2632 83.1381C79.4539 83.0648 79.6079 82.9548 79.7252 82.8081C79.8572 82.6761 79.9672 82.5148 80.0552 82.3241C80.1432 82.1335 80.2239 81.9135 80.2972 81.6641L80.5832 80.7841L76.2712 69.4541ZM99.6474 80.8281H97.2714V79.2881H97.2274C96.8901 79.9481 96.3987 80.4248 95.7534 80.7181C95.1081 80.9968 94.4261 81.1361 93.7074 81.1361C92.8127 81.1361 92.0281 80.9821 91.3534 80.6741C90.6934 80.3515 90.1434 79.9188 89.7034 79.3761C89.2634 78.8335 88.9334 78.1955 88.7134 77.4621C88.4934 76.7141 88.3834 75.9148 88.3834 75.0641C88.3834 74.0375 88.5227 73.1501 88.8014 72.4021C89.0801 71.6541 89.4467 71.0381 89.9014 70.5541C90.3707 70.0701 90.8987 69.7181 91.4854 69.4981C92.0867 69.2635 92.6954 69.1461 93.3114 69.1461C93.6634 69.1461 94.0227 69.1828 94.3894 69.2561C94.7561 69.3148 95.1081 69.4175 95.4454 69.5641C95.7827 69.7108 96.0907 69.9015 96.3694 70.1361C96.6627 70.3561 96.9047 70.6201 97.0954 70.9281H97.1394V65.1201H99.6474V80.8281ZM90.8914 75.2621C90.8914 75.7461 90.9501 76.2228 91.0674 76.6921C91.1994 77.1615 91.3901 77.5795 91.6394 77.9461C91.9034 78.3128 92.2334 78.6061 92.6294 78.8261C93.0254 79.0461 93.4947 79.1561 94.0374 79.1561C94.5947 79.1561 95.0714 79.0388 95.4674 78.8041C95.8781 78.5695 96.2081 78.2615 96.4574 77.8801C96.7214 77.4988 96.9121 77.0735 97.0294 76.6041C97.1614 76.1201 97.2274 75.6288 97.2274 75.1301C97.2274 73.8688 96.9414 72.8861 96.3694 72.1821C95.8121 71.4781 95.0494 71.1261 94.0814 71.1261C93.4947 71.1261 92.9961 71.2508 92.5854 71.5001C92.1894 71.7348 91.8594 72.0501 91.5954 72.4461C91.3461 72.8275 91.1627 73.2675 91.0454 73.7661C90.9427 74.2501 90.8914 74.7488 90.8914 75.2621ZM102.383 69.4541H104.737V71.6541H104.781C104.854 71.3461 104.993 71.0455 105.199 70.7521C105.419 70.4588 105.675 70.1948 105.969 69.9601C106.277 69.7108 106.614 69.5128 106.981 69.3661C107.347 69.2195 107.721 69.1461 108.103 69.1461C108.396 69.1461 108.594 69.1535 108.697 69.1681C108.814 69.1828 108.931 69.1975 109.049 69.2121V71.6321C108.873 71.6028 108.689 71.5808 108.499 71.5661C108.323 71.5368 108.147 71.5221 107.971 71.5221C107.545 71.5221 107.142 71.6101 106.761 71.7861C106.394 71.9475 106.071 72.1968 105.793 72.5341C105.514 72.8568 105.294 73.2601 105.133 73.7441C104.971 74.2281 104.891 74.7855 104.891 75.4161V80.8281H102.383V69.4541ZM114.944 81.1361C114.035 81.1361 113.221 80.9895 112.502 80.6961C111.798 80.3881 111.197 79.9701 110.698 79.4421C110.214 78.9141 109.84 78.2835 109.576 77.5501C109.327 76.8168 109.202 76.0101 109.202 75.1301C109.202 74.2648 109.327 73.4655 109.576 72.7321C109.84 71.9988 110.214 71.3681 110.698 70.8401C111.197 70.3121 111.798 69.9015 112.502 69.6081C113.221 69.3001 114.035 69.1461 114.944 69.1461C115.854 69.1461 116.66 69.3001 117.364 69.6081C118.083 69.9015 118.684 70.3121 119.168 70.8401C119.667 71.3681 120.041 71.9988 120.29 72.7321C120.554 73.4655 120.686 74.2648 120.686 75.1301C120.686 76.0101 120.554 76.8168 120.29 77.5501C120.041 78.2835 119.667 78.9141 119.168 79.4421C118.684 79.9701 118.083 80.3881 117.364 80.6961C116.66 80.9895 115.854 81.1361 114.944 81.1361ZM114.944 79.1561C115.502 79.1561 115.986 79.0388 116.396 78.8041C116.807 78.5695 117.144 78.2615 117.408 77.8801C117.672 77.4988 117.863 77.0735 117.98 76.6041C118.112 76.1201 118.178 75.6288 118.178 75.1301C118.178 74.6461 118.112 74.1621 117.98 73.6781C117.863 73.1941 117.672 72.7688 117.408 72.4021C117.144 72.0208 116.807 71.7128 116.396 71.4781C115.986 71.2435 115.502 71.1261 114.944 71.1261C114.387 71.1261 113.903 71.2435 113.492 71.4781C113.082 71.7128 112.744 72.0208 112.48 72.4021C112.216 72.7688 112.018 73.1941 111.886 73.6781C111.769 74.1621 111.71 74.6461 111.71 75.1301C111.71 75.6288 111.769 76.1201 111.886 76.6041C112.018 77.0735 112.216 77.4988 112.48 77.8801C112.744 78.2615 113.082 78.5695 113.492 78.8041C113.903 79.0388 114.387 79.1561 114.944 79.1561ZM130.581 74.1401C130.552 73.7441 130.464 73.3628 130.317 72.9961C130.185 72.6295 129.995 72.3141 129.745 72.0501C129.511 71.7715 129.217 71.5515 128.865 71.3901C128.528 71.2141 128.147 71.1261 127.721 71.1261C127.281 71.1261 126.878 71.2068 126.511 71.3681C126.159 71.5148 125.851 71.7275 125.587 72.0061C125.338 72.2701 125.133 72.5855 124.971 72.9521C124.825 73.3188 124.744 73.7148 124.729 74.1401H130.581ZM124.729 75.7901C124.729 76.2301 124.788 76.6555 124.905 77.0661C125.037 77.4768 125.228 77.8361 125.477 78.1441C125.727 78.4521 126.042 78.7015 126.423 78.8921C126.805 79.0681 127.259 79.1561 127.787 79.1561C128.521 79.1561 129.107 79.0021 129.547 78.6941C130.002 78.3715 130.339 77.8948 130.559 77.2641H132.935C132.803 77.8801 132.576 78.4301 132.253 78.9141C131.931 79.3981 131.542 79.8088 131.087 80.1461C130.633 80.4688 130.119 80.7108 129.547 80.8721C128.99 81.0481 128.403 81.1361 127.787 81.1361C126.893 81.1361 126.101 80.9895 125.411 80.6961C124.722 80.4028 124.135 79.9921 123.651 79.4641C123.182 78.9361 122.823 78.3055 122.573 77.5721C122.339 76.8388 122.221 76.0321 122.221 75.1521C122.221 74.3455 122.346 73.5828 122.595 72.8641C122.859 72.1308 123.226 71.4928 123.695 70.9501C124.179 70.3928 124.759 69.9528 125.433 69.6301C126.108 69.3075 126.871 69.1461 127.721 69.1461C128.616 69.1461 129.415 69.3368 130.119 69.7181C130.838 70.0848 131.432 70.5761 131.901 71.1921C132.371 71.8081 132.708 72.5195 132.913 73.3261C133.133 74.1181 133.192 74.9395 133.089 75.7901H124.729ZM135.062 65.1201H137.57V80.8281H135.062V65.1201ZM148.113 74.1401C148.083 73.7441 147.995 73.3628 147.849 72.9961C147.717 72.6295 147.526 72.3141 147.277 72.0501C147.042 71.7715 146.749 71.5515 146.397 71.3901C146.059 71.2141 145.678 71.1261 145.253 71.1261C144.813 71.1261 144.409 71.2068 144.043 71.3681C143.691 71.5148 143.383 71.7275 143.119 72.0061C142.869 72.2701 142.664 72.5855 142.503 72.9521C142.356 73.3188 142.275 73.7148 142.261 74.1401H148.113ZM142.261 75.7901C142.261 76.2301 142.319 76.6555 142.437 77.0661C142.569 77.4768 142.759 77.8361 143.009 78.1441C143.258 78.4521 143.573 78.7015 143.955 78.8921C144.336 79.0681 144.791 79.1561 145.319 79.1561C146.052 79.1561 146.639 79.0021 147.079 78.6941C147.533 78.3715 147.871 77.8948 148.091 77.2641H150.467C150.335 77.8801 150.107 78.4301 149.785 78.9141C149.462 79.3981 149.073 79.8088 148.619 80.1461C148.164 80.4688 147.651 80.7108 147.079 80.8721C146.521 81.0481 145.935 81.1361 145.319 81.1361C144.424 81.1361 143.632 80.9895 142.943 80.6961C142.253 80.4028 141.667 79.9921 141.183 79.4641C140.713 78.9361 140.354 78.3055 140.105 77.5721C139.87 76.8388 139.753 76.0321 139.753 75.1521C139.753 74.3455 139.877 73.5828 140.127 72.8641C140.391 72.1308 140.757 71.4928 141.227 70.9501C141.711 70.3928 142.29 69.9528 142.965 69.6301C143.639 69.3075 144.402 69.1461 145.253 69.1461C146.147 69.1461 146.947 69.3368 147.651 69.7181C148.369 70.0848 148.963 70.5761 149.433 71.1921C149.902 71.8081 150.239 72.5195 150.445 73.3261C150.665 74.1181 150.723 74.9395 150.621 75.7901H142.261ZM160.205 73.2601C160.102 72.5561 159.816 72.0281 159.347 71.6761C158.892 71.3095 158.313 71.1261 157.609 71.1261C157.286 71.1261 156.942 71.1848 156.575 71.3021C156.208 71.4048 155.871 71.6101 155.563 71.9181C155.255 72.2115 154.998 72.6295 154.793 73.1721C154.588 73.7001 154.485 74.3968 154.485 75.2621C154.485 75.7315 154.536 76.2008 154.639 76.6701C154.756 77.1395 154.932 77.5575 155.167 77.9241C155.416 78.2908 155.732 78.5915 156.113 78.8261C156.494 79.0461 156.956 79.1561 157.499 79.1561C158.232 79.1561 158.834 78.9288 159.303 78.4741C159.787 78.0195 160.088 77.3815 160.205 76.5601H162.713C162.478 78.0415 161.914 79.1781 161.019 79.9701C160.139 80.7475 158.966 81.1361 157.499 81.1361C156.604 81.1361 155.812 80.9895 155.123 80.6961C154.448 80.3881 153.876 79.9775 153.407 79.4641C152.938 78.9361 152.578 78.3128 152.329 77.5941C152.094 76.8755 151.977 76.0981 151.977 75.2621C151.977 74.4115 152.094 73.6121 152.329 72.8641C152.564 72.1161 152.916 71.4708 153.385 70.9281C153.854 70.3708 154.434 69.9381 155.123 69.6301C155.827 69.3075 156.648 69.1461 157.587 69.1461C158.247 69.1461 158.87 69.2341 159.457 69.4101C160.058 69.5715 160.586 69.8208 161.041 70.1581C161.51 70.4955 161.892 70.9208 162.185 71.4341C162.478 71.9475 162.654 72.5561 162.713 73.2601H160.205ZM163.608 69.4541H165.5V66.0441H168.008V69.4541H170.274V71.3241H168.008V77.3961C168.008 77.6601 168.015 77.8875 168.03 78.0781C168.059 78.2688 168.11 78.4301 168.184 78.5621C168.272 78.6941 168.396 78.7968 168.558 78.8701C168.719 78.9288 168.939 78.9581 169.218 78.9581C169.394 78.9581 169.57 78.9581 169.746 78.9581C169.922 78.9435 170.098 78.9141 170.274 78.8701V80.8061C169.995 80.8355 169.724 80.8648 169.46 80.8941C169.196 80.9235 168.924 80.9381 168.646 80.9381C167.986 80.9381 167.45 80.8795 167.04 80.7621C166.644 80.6301 166.328 80.4468 166.094 80.2121C165.874 79.9628 165.72 79.6548 165.632 79.2881C165.558 78.9215 165.514 78.5035 165.5 78.0341V71.3241H163.608V69.4541ZM172.078 69.4541H174.432V71.6541H174.476C174.549 71.3461 174.689 71.0455 174.894 70.7521C175.114 70.4588 175.371 70.1948 175.664 69.9601C175.972 69.7108 176.309 69.5128 176.676 69.3661C177.043 69.2195 177.417 69.1461 177.798 69.1461C178.091 69.1461 178.289 69.1535 178.392 69.1681C178.509 69.1828 178.627 69.1975 178.744 69.2121V71.6321C178.568 71.6028 178.385 71.5808 178.194 71.5661C178.018 71.5368 177.842 71.5221 177.666 71.5221C177.241 71.5221 176.837 71.6101 176.456 71.7861C176.089 71.9475 175.767 72.1968 175.488 72.5341C175.209 72.8568 174.989 73.2601 174.828 73.7441C174.667 74.2281 174.586 74.7855 174.586 75.4161V80.8281H172.078V69.4541ZM179.878 65.1201H182.386V67.4961H179.878V65.1201ZM179.878 69.4541H182.386V80.8281H179.878V69.4541ZM192.797 73.2601C192.694 72.5561 192.408 72.0281 191.939 71.6761C191.484 71.3095 190.905 71.1261 190.201 71.1261C189.878 71.1261 189.534 71.1848 189.167 71.3021C188.8 71.4048 188.463 71.6101 188.155 71.9181C187.847 72.2115 187.59 72.6295 187.385 73.1721C187.18 73.7001 187.077 74.3968 187.077 75.2621C187.077 75.7315 187.128 76.2008 187.231 76.6701C187.348 77.1395 187.524 77.5575 187.759 77.9241C188.008 78.2908 188.324 78.5915 188.705 78.8261C189.086 79.0461 189.548 79.1561 190.091 79.1561C190.824 79.1561 191.426 78.9288 191.895 78.4741C192.379 78.0195 192.68 77.3815 192.797 76.5601H195.305C195.07 78.0415 194.506 79.1781 193.611 79.9701C192.731 80.7475 191.558 81.1361 190.091 81.1361C189.196 81.1361 188.404 80.9895 187.715 80.6961C187.04 80.3881 186.468 79.9775 185.999 79.4641C185.53 78.9361 185.17 78.3128 184.921 77.5941C184.686 76.8755 184.569 76.0981 184.569 75.2621C184.569 74.4115 184.686 73.6121 184.921 72.8641C185.156 72.1161 185.508 71.4708 185.977 70.9281C186.446 70.3708 187.026 69.9381 187.715 69.6301C188.419 69.3075 189.24 69.1461 190.179 69.1461C190.839 69.1461 191.462 69.2341 192.049 69.4101C192.65 69.5715 193.178 69.8208 193.633 70.1581C194.102 70.4955 194.484 70.9208 194.777 71.4341C195.07 71.9475 195.246 72.5561 195.305 73.2601H192.797ZM203.533 69.4541H205.909V70.9941H205.953C206.305 70.3341 206.796 69.8648 207.427 69.5861C208.057 69.2928 208.739 69.1461 209.473 69.1461C210.367 69.1461 211.145 69.3075 211.805 69.6301C212.479 69.9381 213.037 70.3708 213.477 70.9281C213.917 71.4708 214.247 72.1088 214.467 72.8421C214.687 73.5755 214.797 74.3601 214.797 75.1961C214.797 75.9588 214.694 76.6995 214.489 77.4181C214.298 78.1368 213.997 78.7748 213.587 79.3321C213.191 79.8748 212.685 80.3148 212.069 80.6521C211.453 80.9748 210.727 81.1361 209.891 81.1361C209.524 81.1361 209.157 81.0995 208.791 81.0261C208.424 80.9675 208.072 80.8648 207.735 80.7181C207.397 80.5715 207.082 80.3881 206.789 80.1681C206.51 79.9335 206.275 79.6621 206.085 79.3541H206.041V85.0301H203.533V69.4541ZM212.289 75.1521C212.289 74.6388 212.223 74.1401 212.091 73.6561C211.959 73.1721 211.761 72.7468 211.497 72.3801C211.233 71.9988 210.903 71.6981 210.507 71.4781C210.111 71.2435 209.656 71.1261 209.143 71.1261C208.087 71.1261 207.287 71.4928 206.745 72.2261C206.217 72.9595 205.953 73.9348 205.953 75.1521C205.953 75.7241 206.019 76.2595 206.151 76.7581C206.297 77.2421 206.51 77.6601 206.789 78.0121C207.067 78.3641 207.397 78.6428 207.779 78.8481C208.175 79.0535 208.629 79.1561 209.143 79.1561C209.715 79.1561 210.199 79.0388 210.595 78.8041C210.991 78.5695 211.313 78.2688 211.563 77.9021C211.827 77.5208 212.01 77.0955 212.113 76.6261C212.23 76.1421 212.289 75.6508 212.289 75.1521ZM222.13 81.1361C221.22 81.1361 220.406 80.9895 219.688 80.6961C218.984 80.3881 218.382 79.9701 217.884 79.4421C217.4 78.9141 217.026 78.2835 216.762 77.5501C216.512 76.8168 216.388 76.0101 216.388 75.1301C216.388 74.2648 216.512 73.4655 216.762 72.7321C217.026 71.9988 217.4 71.3681 217.884 70.8401C218.382 70.3121 218.984 69.9015 219.688 69.6081C220.406 69.3001 221.22 69.1461 222.13 69.1461C223.039 69.1461 223.846 69.3001 224.55 69.6081C225.268 69.9015 225.87 70.3121 226.354 70.8401C226.852 71.3681 227.226 71.9988 227.476 72.7321C227.74 73.4655 227.872 74.2648 227.872 75.1301C227.872 76.0101 227.74 76.8168 227.476 77.5501C227.226 78.2835 226.852 78.9141 226.354 79.4421C225.87 79.9701 225.268 80.3881 224.55 80.6961C223.846 80.9895 223.039 81.1361 222.13 81.1361ZM222.13 79.1561C222.687 79.1561 223.171 79.0388 223.582 78.8041C223.992 78.5695 224.33 78.2615 224.594 77.8801C224.858 77.4988 225.048 77.0735 225.166 76.6041C225.298 76.1201 225.364 75.6288 225.364 75.1301C225.364 74.6461 225.298 74.1621 225.166 73.6781C225.048 73.1941 224.858 72.7688 224.594 72.4021C224.33 72.0208 223.992 71.7128 223.582 71.4781C223.171 71.2435 222.687 71.1261 222.13 71.1261C221.572 71.1261 221.088 71.2435 220.678 71.4781C220.267 71.7128 219.93 72.0208 219.666 72.4021C219.402 72.7688 219.204 73.1941 219.072 73.6781C218.954 74.1621 218.896 74.6461 218.896 75.1301C218.896 75.6288 218.954 76.1201 219.072 76.6041C219.204 77.0735 219.402 77.4988 219.666 77.8801C219.93 78.2615 220.267 78.5695 220.678 78.8041C221.088 79.0388 221.572 79.1561 222.13 79.1561ZM228.923 69.4541H231.585L233.807 77.9461H233.851L235.985 69.4541H238.515L240.561 77.9461H240.605L242.915 69.4541H245.467L241.903 80.8281H239.329L237.217 72.3801H237.173L235.083 80.8281H232.443L228.923 69.4541ZM254.89 74.1401C254.861 73.7441 254.773 73.3628 254.626 72.9961C254.494 72.6295 254.303 72.3141 254.054 72.0501C253.819 71.7715 253.526 71.5515 253.174 71.3901C252.837 71.2141 252.455 71.1261 252.03 71.1261C251.59 71.1261 251.187 71.2068 250.82 71.3681C250.468 71.5148 250.16 71.7275 249.896 72.0061C249.647 72.2701 249.441 72.5855 249.28 72.9521C249.133 73.3188 249.053 73.7148 249.038 74.1401H254.89ZM249.038 75.7901C249.038 76.2301 249.097 76.6555 249.214 77.0661C249.346 77.4768 249.537 77.8361 249.786 78.1441C250.035 78.4521 250.351 78.7015 250.732 78.8921C251.113 79.0681 251.568 79.1561 252.096 79.1561C252.829 79.1561 253.416 79.0021 253.856 78.6941C254.311 78.3715 254.648 77.8948 254.868 77.2641H257.244C257.112 77.8801 256.885 78.4301 256.562 78.9141C256.239 79.3981 255.851 79.8088 255.396 80.1461C254.941 80.4688 254.428 80.7108 253.856 80.8721C253.299 81.0481 252.712 81.1361 252.096 81.1361C251.201 81.1361 250.409 80.9895 249.72 80.6961C249.031 80.4028 248.444 79.9921 247.96 79.4641C247.491 78.9361 247.131 78.3055 246.882 77.5721C246.647 76.8388 246.53 76.0321 246.53 75.1521C246.53 74.3455 246.655 73.5828 246.904 72.8641C247.168 72.1308 247.535 71.4928 248.004 70.9501C248.488 70.3928 249.067 69.9528 249.742 69.6301C250.417 69.3075 251.179 69.1461 252.03 69.1461C252.925 69.1461 253.724 69.3368 254.428 69.7181C255.147 70.0848 255.741 70.5761 256.21 71.1921C256.679 71.8081 257.017 72.5195 257.222 73.3261C257.442 74.1181 257.501 74.9395 257.398 75.7901H249.038ZM259.304 69.4541H261.658V71.6541H261.702C261.776 71.3461 261.915 71.0455 262.12 70.7521C262.34 70.4588 262.597 70.1948 262.89 69.9601C263.198 69.7108 263.536 69.5128 263.902 69.3661C264.269 69.2195 264.643 69.1461 265.024 69.1461C265.318 69.1461 265.516 69.1535 265.618 69.1681C265.736 69.1828 265.853 69.1975 265.97 69.2121V71.6321C265.794 71.6028 265.611 71.5808 265.42 71.5661C265.244 71.5368 265.068 71.5221 264.892 71.5221C264.467 71.5221 264.064 71.6101 263.682 71.7861C263.316 71.9475 262.993 72.1968 262.714 72.5341C262.436 72.8568 262.216 73.2601 262.054 73.7441C261.893 74.2281 261.812 74.7855 261.812 75.4161V80.8281H259.304V69.4541Z" fill="#1A0803"/>
<path d="M6.30484 118.609C6.30484 118.33 6.41596 118.061 6.61375 117.864C6.81154 117.666 7.0798 117.555 7.35953 117.555H10.172C10.4517 117.555 10.72 117.666 10.9178 117.864C11.1156 118.061 11.2267 118.33 11.2267 118.609C11.2267 118.889 11.1156 119.157 10.9178 119.355C10.72 119.553 10.4517 119.664 10.172 119.664H7.35953C7.0798 119.664 6.81154 119.553 6.61375 119.355C6.41596 119.157 6.30484 118.889 6.30484 118.609ZM13.1322 110.406C13.2298 110.505 13.346 110.584 13.4743 110.638C13.6026 110.692 13.7403 110.72 13.8795 110.721C14.0187 110.722 14.1567 110.695 14.2855 110.642C14.4142 110.589 14.5313 110.511 14.6298 110.413C14.7283 110.314 14.8063 110.197 14.8594 110.069C14.9125 109.94 14.9396 109.802 14.9391 109.663C14.9386 109.524 14.9106 109.386 14.8566 109.257C14.8026 109.129 14.7237 109.013 14.6246 108.915L12.633 106.925C12.4319 106.747 12.1703 106.652 11.9016 106.66C11.633 106.668 11.3775 106.779 11.1875 106.969C10.9974 107.159 10.8871 107.414 10.8791 107.683C10.871 107.951 10.9658 108.213 11.1441 108.414L13.1322 110.406ZM22.8283 107.008C23.108 107.008 23.3763 106.897 23.5741 106.699C23.7718 106.501 23.883 106.233 23.883 105.953V103.141C23.883 102.861 23.7718 102.593 23.5741 102.395C23.3763 102.197 23.108 102.086 22.8283 102.086C22.5486 102.086 22.2803 102.197 22.0825 102.395C21.8847 102.593 21.7736 102.861 21.7736 103.141V105.953C21.7736 106.233 21.8847 106.501 22.0825 106.699C22.2803 106.897 22.5486 107.008 22.8283 107.008ZM31.7773 110.715C31.9161 110.715 32.0535 110.688 32.1817 110.635C32.3099 110.582 32.4263 110.504 32.5244 110.406L34.5125 108.414C34.6908 108.213 34.7856 107.951 34.7775 107.683C34.7694 107.414 34.6591 107.159 34.4691 106.969C34.279 106.779 34.0236 106.668 33.7549 106.66C33.4863 106.652 33.2247 106.747 33.0236 106.925L31.032 108.915C30.8847 109.063 30.7844 109.25 30.7438 109.455C30.7031 109.659 30.724 109.871 30.8038 110.064C30.8835 110.256 31.0186 110.421 31.1918 110.537C31.3651 110.653 31.5688 110.715 31.7773 110.715ZM34.4298 118.609C34.4298 118.889 34.541 119.157 34.7387 119.355C34.9365 119.553 35.2048 119.664 35.4845 119.664H38.297C38.5767 119.664 38.845 119.553 39.0428 119.355C39.2406 119.157 39.3517 118.889 39.3517 118.609C39.3517 118.33 39.2406 118.061 39.0428 117.864C38.845 117.666 38.5767 117.555 38.297 117.555H35.4845C35.2048 117.555 34.9365 117.666 34.7387 117.864C34.541 118.061 34.4298 118.33 34.4298 118.609ZM15.797 119.664C16.0767 119.664 16.345 119.553 16.5428 119.355C16.7406 119.157 16.8517 118.889 16.8517 118.609C16.8517 117.024 17.4814 115.504 18.6022 114.383C19.723 113.262 21.2432 112.633 22.8283 112.633C24.4134 112.633 25.9335 113.262 27.0543 114.383C28.1752 115.504 28.8048 117.024 28.8048 118.609C28.8048 118.889 28.916 119.157 29.1137 119.355C29.3115 119.553 29.5798 119.664 29.8595 119.664C30.1392 119.664 30.4075 119.553 30.6053 119.355C30.8031 119.157 30.9142 118.889 30.9142 118.609C30.9142 116.465 30.0623 114.408 28.5459 112.892C27.0295 111.375 24.9728 110.523 22.8283 110.523C20.6837 110.523 18.6271 111.375 17.1107 112.892C15.5942 114.408 14.7423 116.465 14.7423 118.609C14.7423 118.889 14.8535 119.157 15.0512 119.355C15.249 119.553 15.5173 119.664 15.797 119.664ZM42.0201 138.824C41.9277 138.984 41.795 139.117 41.6353 139.21C41.4755 139.302 41.2942 139.351 41.1095 139.352H4.54703C4.36282 139.351 4.18186 139.303 4.02216 139.211C3.86247 139.119 3.7296 138.987 3.6368 138.828C3.54399 138.669 3.49448 138.488 3.49319 138.304C3.4919 138.12 3.53888 137.939 3.62945 137.778L10.782 125.122C10.8739 124.959 11.0075 124.824 11.1691 124.73C11.3306 124.635 11.5143 124.586 11.7013 124.586H33.9552C34.1422 124.586 34.3259 124.635 34.4875 124.73C34.649 124.824 34.7826 124.959 34.8746 125.122L42.0271 137.778C42.117 137.938 42.1636 138.119 42.1624 138.302C42.1611 138.486 42.1121 138.666 42.0201 138.824ZM33.34 126.695H28.4181L29.1828 130.211H35.3351L33.34 126.695ZM27.0224 130.211L26.2578 126.695H19.4023L18.6376 130.211H27.0224ZM18.1753 132.32L17.1048 137.242H28.5517L27.4812 132.32H18.1753ZM10.3285 130.211H16.4808L17.2455 126.695H12.3236L10.3285 130.211ZM6.35406 137.242H14.9462L16.0168 132.32H9.13667L6.35406 137.242ZM39.3025 137.242L36.5199 132.32H29.6398L30.7103 137.242H39.3025Z" fill="#0D0D0C"/>
<path d="M63.8042 125.592C63.8042 126.193 63.9069 126.707 64.1122 127.132C64.3176 127.557 64.6036 127.909 64.9702 128.188C65.3369 128.452 65.7549 128.65 66.2242 128.782C66.7082 128.899 67.2289 128.958 67.7862 128.958C68.3876 128.958 68.9009 128.892 69.3262 128.76C69.7516 128.613 70.0962 128.43 70.3602 128.21C70.6242 127.99 70.8149 127.741 70.9322 127.462C71.0496 127.169 71.1082 126.875 71.1082 126.582C71.1082 125.981 70.9689 125.541 70.6902 125.262C70.4262 124.969 70.1329 124.763 69.8102 124.646C69.2529 124.441 68.6002 124.25 67.8522 124.074C67.1189 123.883 66.2096 123.641 65.1242 123.348C64.4496 123.172 63.8849 122.945 63.4302 122.666C62.9902 122.373 62.6382 122.05 62.3742 121.698C62.1102 121.346 61.9196 120.972 61.8022 120.576C61.6996 120.18 61.6482 119.777 61.6482 119.366C61.6482 118.574 61.8096 117.892 62.1322 117.32C62.4696 116.733 62.9096 116.249 63.4522 115.868C63.9949 115.487 64.6109 115.208 65.3002 115.032C65.9896 114.841 66.6862 114.746 67.3902 114.746C68.2116 114.746 68.9816 114.856 69.7002 115.076C70.4336 115.281 71.0716 115.597 71.6142 116.022C72.1716 116.447 72.6116 116.975 72.9342 117.606C73.2569 118.222 73.4182 118.941 73.4182 119.762H70.6682C70.5949 118.75 70.2502 118.039 69.6342 117.628C69.0182 117.203 68.2336 116.99 67.2802 116.99C66.9576 116.99 66.6276 117.027 66.2902 117.1C65.9529 117.159 65.6449 117.269 65.3662 117.43C65.0876 117.577 64.8529 117.782 64.6622 118.046C64.4862 118.31 64.3982 118.64 64.3982 119.036C64.3982 119.593 64.5669 120.033 64.9042 120.356C65.2562 120.664 65.7109 120.899 66.2682 121.06C66.3269 121.075 66.5542 121.141 66.9502 121.258C67.3609 121.361 67.8156 121.478 68.3142 121.61C68.8129 121.742 69.2969 121.874 69.7662 122.006C70.2502 122.123 70.5949 122.211 70.8002 122.27C71.3136 122.431 71.7609 122.651 72.1422 122.93C72.5236 123.209 72.8389 123.531 73.0882 123.898C73.3522 124.25 73.5429 124.631 73.6602 125.042C73.7922 125.453 73.8582 125.863 73.8582 126.274C73.8582 127.154 73.6749 127.909 73.3082 128.54C72.9562 129.156 72.4869 129.662 71.9002 130.058C71.3136 130.454 70.6462 130.74 69.8982 130.916C69.1502 131.107 68.3876 131.202 67.6102 131.202C66.7156 131.202 65.8722 131.092 65.0802 130.872C64.2882 130.652 63.5989 130.315 63.0122 129.86C62.4256 129.405 61.9562 128.826 61.6042 128.122C61.2522 127.403 61.0689 126.56 61.0542 125.592H63.8042ZM81.1279 131.136C80.2185 131.136 79.4045 130.989 78.6859 130.696C77.9819 130.388 77.3805 129.97 76.8819 129.442C76.3979 128.914 76.0239 128.283 75.7599 127.55C75.5105 126.817 75.3859 126.01 75.3859 125.13C75.3859 124.265 75.5105 123.465 75.7599 122.732C76.0239 121.999 76.3979 121.368 76.8819 120.84C77.3805 120.312 77.9819 119.901 78.6859 119.608C79.4045 119.3 80.2185 119.146 81.1279 119.146C82.0372 119.146 82.8439 119.3 83.5479 119.608C84.2665 119.901 84.8679 120.312 85.3519 120.84C85.8505 121.368 86.2245 121.999 86.4739 122.732C86.7379 123.465 86.8699 124.265 86.8699 125.13C86.8699 126.01 86.7379 126.817 86.4739 127.55C86.2245 128.283 85.8505 128.914 85.3519 129.442C84.8679 129.97 84.2665 130.388 83.5479 130.696C82.8439 130.989 82.0372 131.136 81.1279 131.136ZM81.1279 129.156C81.6852 129.156 82.1692 129.039 82.5799 128.804C82.9905 128.569 83.3279 128.261 83.5919 127.88C83.8559 127.499 84.0465 127.073 84.1639 126.604C84.2959 126.12 84.3619 125.629 84.3619 125.13C84.3619 124.646 84.2959 124.162 84.1639 123.678C84.0465 123.194 83.8559 122.769 83.5919 122.402C83.3279 122.021 82.9905 121.713 82.5799 121.478C82.1692 121.243 81.6852 121.126 81.1279 121.126C80.5705 121.126 80.0865 121.243 79.6759 121.478C79.2652 121.713 78.9279 122.021 78.6639 122.402C78.3999 122.769 78.2019 123.194 78.0699 123.678C77.9525 124.162 77.8939 124.646 77.8939 125.13C77.8939 125.629 77.9525 126.12 78.0699 126.604C78.2019 127.073 78.3999 127.499 78.6639 127.88C78.9279 128.261 79.2652 128.569 79.6759 128.804C80.0865 129.039 80.5705 129.156 81.1279 129.156ZM89.0209 115.12H91.5289V130.828H89.0209V115.12ZM103.788 128.298C103.788 128.606 103.824 128.826 103.898 128.958C103.986 129.09 104.147 129.156 104.382 129.156C104.455 129.156 104.543 129.156 104.646 129.156C104.748 129.156 104.866 129.141 104.998 129.112V130.85C104.91 130.879 104.792 130.909 104.646 130.938C104.514 130.982 104.374 131.019 104.228 131.048C104.081 131.077 103.934 131.099 103.788 131.114C103.641 131.129 103.516 131.136 103.414 131.136C102.9 131.136 102.475 131.033 102.138 130.828C101.8 130.623 101.58 130.263 101.478 129.75C100.979 130.234 100.363 130.586 99.6295 130.806C98.9109 131.026 98.2142 131.136 97.5395 131.136C97.0262 131.136 96.5349 131.063 96.0655 130.916C95.5962 130.784 95.1782 130.586 94.8115 130.322C94.4595 130.043 94.1735 129.699 93.9535 129.288C93.7482 128.863 93.6455 128.371 93.6455 127.814C93.6455 127.11 93.7702 126.538 94.0195 126.098C94.2835 125.658 94.6209 125.313 95.0315 125.064C95.4569 124.815 95.9262 124.639 96.4395 124.536C96.9675 124.419 97.4955 124.331 98.0235 124.272C98.4782 124.184 98.9109 124.125 99.3215 124.096C99.7322 124.052 100.092 123.986 100.4 123.898C100.722 123.81 100.972 123.678 101.148 123.502C101.338 123.311 101.434 123.033 101.434 122.666C101.434 122.343 101.353 122.079 101.192 121.874C101.045 121.669 100.854 121.515 100.62 121.412C100.4 121.295 100.15 121.221 99.8715 121.192C99.5929 121.148 99.3289 121.126 99.0795 121.126C98.3755 121.126 97.7962 121.273 97.3415 121.566C96.8869 121.859 96.6302 122.314 96.5715 122.93H94.0635C94.1075 122.197 94.2835 121.588 94.5915 121.104C94.8995 120.62 95.2882 120.231 95.7575 119.938C96.2415 119.645 96.7842 119.439 97.3855 119.322C97.9869 119.205 98.6029 119.146 99.2335 119.146C99.7909 119.146 100.341 119.205 100.884 119.322C101.426 119.439 101.91 119.63 102.336 119.894C102.776 120.158 103.128 120.503 103.392 120.928C103.656 121.339 103.788 121.845 103.788 122.446V128.298ZM101.28 125.13C100.898 125.379 100.429 125.533 99.8715 125.592C99.3142 125.636 98.7569 125.709 98.1995 125.812C97.9355 125.856 97.6789 125.922 97.4295 126.01C97.1802 126.083 96.9602 126.193 96.7695 126.34C96.5789 126.472 96.4249 126.655 96.3075 126.89C96.2049 127.11 96.1535 127.381 96.1535 127.704C96.1535 127.983 96.2342 128.217 96.3955 128.408C96.5569 128.599 96.7475 128.753 96.9675 128.87C97.2022 128.973 97.4515 129.046 97.7155 129.09C97.9942 129.134 98.2435 129.156 98.4635 129.156C98.7422 129.156 99.0429 129.119 99.3655 129.046C99.6882 128.973 99.9889 128.848 100.268 128.672C100.561 128.496 100.803 128.276 100.994 128.012C101.184 127.733 101.28 127.396 101.28 127V125.13ZM106.486 119.454H108.84V121.654H108.884C108.957 121.346 109.097 121.045 109.302 120.752C109.522 120.459 109.779 120.195 110.072 119.96C110.38 119.711 110.717 119.513 111.084 119.366C111.451 119.219 111.825 119.146 112.206 119.146C112.499 119.146 112.697 119.153 112.8 119.168C112.917 119.183 113.035 119.197 113.152 119.212V121.632C112.976 121.603 112.793 121.581 112.602 121.566C112.426 121.537 112.25 121.522 112.074 121.522C111.649 121.522 111.245 121.61 110.864 121.786C110.497 121.947 110.175 122.197 109.896 122.534C109.617 122.857 109.397 123.26 109.236 123.744C109.075 124.228 108.994 124.785 108.994 125.416V130.828H106.486V119.454ZM120.41 119.454H122.786V120.994H122.83C123.182 120.334 123.673 119.865 124.304 119.586C124.934 119.293 125.616 119.146 126.35 119.146C127.244 119.146 128.022 119.307 128.682 119.63C129.356 119.938 129.914 120.371 130.354 120.928C130.794 121.471 131.124 122.109 131.344 122.842C131.564 123.575 131.674 124.36 131.674 125.196C131.674 125.959 131.571 126.699 131.366 127.418C131.175 128.137 130.874 128.775 130.464 129.332C130.068 129.875 129.562 130.315 128.946 130.652C128.33 130.975 127.604 131.136 126.768 131.136C126.401 131.136 126.034 131.099 125.668 131.026C125.301 130.967 124.949 130.865 124.612 130.718C124.274 130.571 123.959 130.388 123.666 130.168C123.387 129.933 123.152 129.662 122.962 129.354H122.918V135.03H120.41V119.454ZM129.166 125.152C129.166 124.639 129.1 124.14 128.968 123.656C128.836 123.172 128.638 122.747 128.374 122.38C128.11 121.999 127.78 121.698 127.384 121.478C126.988 121.243 126.533 121.126 126.02 121.126C124.964 121.126 124.164 121.493 123.622 122.226C123.094 122.959 122.83 123.935 122.83 125.152C122.83 125.724 122.896 126.259 123.028 126.758C123.174 127.242 123.387 127.66 123.666 128.012C123.944 128.364 124.274 128.643 124.656 128.848C125.052 129.053 125.506 129.156 126.02 129.156C126.592 129.156 127.076 129.039 127.472 128.804C127.868 128.569 128.19 128.269 128.44 127.902C128.704 127.521 128.887 127.095 128.99 126.626C129.107 126.142 129.166 125.651 129.166 125.152ZM139.007 131.136C138.097 131.136 137.283 130.989 136.565 130.696C135.861 130.388 135.259 129.97 134.761 129.442C134.277 128.914 133.903 128.283 133.639 127.55C133.389 126.817 133.265 126.01 133.265 125.13C133.265 124.265 133.389 123.465 133.639 122.732C133.903 121.999 134.277 121.368 134.761 120.84C135.259 120.312 135.861 119.901 136.565 119.608C137.283 119.3 138.097 119.146 139.007 119.146C139.916 119.146 140.723 119.3 141.427 119.608C142.145 119.901 142.747 120.312 143.231 120.84C143.729 121.368 144.103 121.999 144.353 122.732C144.617 123.465 144.749 124.265 144.749 125.13C144.749 126.01 144.617 126.817 144.353 127.55C144.103 128.283 143.729 128.914 143.231 129.442C142.747 129.97 142.145 130.388 141.427 130.696C140.723 130.989 139.916 131.136 139.007 131.136ZM139.007 129.156C139.564 129.156 140.048 129.039 140.459 128.804C140.869 128.569 141.207 128.261 141.471 127.88C141.735 127.499 141.925 127.073 142.043 126.604C142.175 126.12 142.241 125.629 142.241 125.13C142.241 124.646 142.175 124.162 142.043 123.678C141.925 123.194 141.735 122.769 141.471 122.402C141.207 122.021 140.869 121.713 140.459 121.478C140.048 121.243 139.564 121.126 139.007 121.126C138.449 121.126 137.965 121.243 137.555 121.478C137.144 121.713 136.807 122.021 136.543 122.402C136.279 122.769 136.081 123.194 135.949 123.678C135.831 124.162 135.773 124.646 135.773 125.13C135.773 125.629 135.831 126.12 135.949 126.604C136.081 127.073 136.279 127.499 136.543 127.88C136.807 128.261 137.144 128.569 137.555 128.804C137.965 129.039 138.449 129.156 139.007 129.156ZM145.8 119.454H148.462L150.684 127.946H150.728L152.862 119.454H155.392L157.438 127.946H157.482L159.792 119.454H162.344L158.78 130.828H156.206L154.094 122.38H154.05L151.96 130.828H149.32L145.8 119.454ZM171.767 124.14C171.738 123.744 171.65 123.363 171.503 122.996C171.371 122.629 171.18 122.314 170.931 122.05C170.696 121.771 170.403 121.551 170.051 121.39C169.714 121.214 169.332 121.126 168.907 121.126C168.467 121.126 168.064 121.207 167.697 121.368C167.345 121.515 167.037 121.727 166.773 122.006C166.524 122.27 166.318 122.585 166.157 122.952C166.01 123.319 165.93 123.715 165.915 124.14H171.767ZM165.915 125.79C165.915 126.23 165.974 126.655 166.091 127.066C166.223 127.477 166.414 127.836 166.663 128.144C166.912 128.452 167.228 128.701 167.609 128.892C167.99 129.068 168.445 129.156 168.973 129.156C169.706 129.156 170.293 129.002 170.733 128.694C171.188 128.371 171.525 127.895 171.745 127.264H174.121C173.989 127.88 173.762 128.43 173.439 128.914C173.116 129.398 172.728 129.809 172.273 130.146C171.818 130.469 171.305 130.711 170.733 130.872C170.176 131.048 169.589 131.136 168.973 131.136C168.078 131.136 167.286 130.989 166.597 130.696C165.908 130.403 165.321 129.992 164.837 129.464C164.368 128.936 164.008 128.305 163.759 127.572C163.524 126.839 163.407 126.032 163.407 125.152C163.407 124.345 163.532 123.583 163.781 122.864C164.045 122.131 164.412 121.493 164.881 120.95C165.365 120.393 165.944 119.953 166.619 119.63C167.294 119.307 168.056 119.146 168.907 119.146C169.802 119.146 170.601 119.337 171.305 119.718C172.024 120.085 172.618 120.576 173.087 121.192C173.556 121.808 173.894 122.519 174.099 123.326C174.319 124.118 174.378 124.939 174.275 125.79H165.915ZM176.181 119.454H178.535V121.654H178.579C178.653 121.346 178.792 121.045 178.997 120.752C179.217 120.459 179.474 120.195 179.767 119.96C180.075 119.711 180.413 119.513 180.779 119.366C181.146 119.219 181.52 119.146 181.901 119.146C182.195 119.146 182.393 119.153 182.495 119.168C182.613 119.183 182.73 119.197 182.847 119.212V121.632C182.671 121.603 182.488 121.581 182.297 121.566C182.121 121.537 181.945 121.522 181.769 121.522C181.344 121.522 180.941 121.61 180.559 121.786C180.193 121.947 179.87 122.197 179.591 122.534C179.313 122.857 179.093 123.26 178.931 123.744C178.77 124.228 178.689 124.785 178.689 125.416V130.828H176.181V119.454Z" fill="#1A0803"/>
<path d="M27.3195 172.329L29.6837 155.754C29.7316 155.419 29.8993 155.112 30.1557 154.89C30.4122 154.668 30.7403 154.546 31.0794 154.547H34.2646C34.6037 154.546 34.9318 154.668 35.1883 154.89C35.4447 155.112 35.6124 155.419 35.6603 155.754L38.297 174.234V188.297" stroke="#0D0D0C" stroke-width="2" stroke-linecap="round" stroke-linejoin="round"/>
<path d="M7.35955 188.297V174.234L9.99627 155.754C10.0442 155.419 10.2118 155.112 10.4683 154.89C10.7248 154.668 11.0528 154.546 11.392 154.547H14.5771C14.9163 154.546 15.2443 154.668 15.5008 154.89C15.7573 155.112 15.9249 155.419 15.9728 155.754L18.3371 172.329L22.8283 165.797L27.2937 172.329" stroke="#0D0D0C" stroke-width="2" stroke-linecap="round" stroke-linejoin="round"/>
<path d="M14.3907 181.266H19.3126" stroke="#0D0D0C" stroke-width="2" stroke-linecap="round" stroke-linejoin="round"/>
<path d="M26.3439 181.266H31.2657" stroke="#0D0D0C" stroke-width="2" stroke-linecap="round" stroke-linejoin="round"/>
<path d="M4.547 188.297H41.1095" stroke="#0D0D0C" stroke-width="2" stroke-linecap="round" stroke-linejoin="round"/>
<path d="M75.7062 180.828H73.9462L73.5282 178.98C72.7949 179.816 72.0616 180.395 71.3282 180.718C70.5949 181.041 69.7516 181.202 68.7982 181.202C67.6249 181.202 66.5689 180.989 65.6302 180.564C64.7062 180.124 63.9216 179.53 63.2762 178.782C62.6309 178.034 62.1322 177.161 61.7802 176.164C61.4429 175.167 61.2742 174.103 61.2742 172.974C61.2742 171.859 61.4429 170.803 61.7802 169.806C62.1322 168.809 62.6309 167.936 63.2762 167.188C63.9216 166.44 64.7062 165.846 65.6302 165.406C66.5689 164.966 67.6249 164.746 68.7982 164.746C69.6489 164.746 70.4556 164.863 71.2182 165.098C71.9956 165.318 72.6849 165.655 73.2862 166.11C73.8876 166.55 74.3862 167.107 74.7822 167.782C75.1782 168.457 75.4276 169.234 75.5302 170.114H72.8462C72.7729 169.601 72.6116 169.153 72.3622 168.772C72.1276 168.376 71.8269 168.046 71.4602 167.782C71.0936 167.518 70.6829 167.32 70.2282 167.188C69.7736 167.056 69.2969 166.99 68.7982 166.99C67.9622 166.99 67.2362 167.159 66.6202 167.496C66.0189 167.833 65.5276 168.288 65.1462 168.86C64.7649 169.417 64.4789 170.055 64.2882 170.774C64.1122 171.493 64.0242 172.226 64.0242 172.974C64.0242 173.722 64.1122 174.455 64.2882 175.174C64.4789 175.893 64.7649 176.538 65.1462 177.11C65.5276 177.667 66.0189 178.115 66.6202 178.452C67.2362 178.789 67.9622 178.958 68.7982 178.958C69.5022 178.973 70.1256 178.885 70.6682 178.694C71.2109 178.489 71.6656 178.203 72.0322 177.836C72.4136 177.455 72.6996 176.993 72.8902 176.45C73.0809 175.907 73.1836 175.306 73.1982 174.646H69.0182V172.556H75.7062V180.828ZM86.1516 174.14C86.1223 173.744 86.0343 173.363 85.8876 172.996C85.7556 172.629 85.5649 172.314 85.3156 172.05C85.0809 171.771 84.7876 171.551 84.4356 171.39C84.0983 171.214 83.7169 171.126 83.2916 171.126C82.8516 171.126 82.4483 171.207 82.0816 171.368C81.7296 171.515 81.4216 171.727 81.1576 172.006C80.9083 172.27 80.7029 172.585 80.5416 172.952C80.3949 173.319 80.3143 173.715 80.2996 174.14H86.1516ZM80.2996 175.79C80.2996 176.23 80.3583 176.655 80.4756 177.066C80.6076 177.477 80.7983 177.836 81.0476 178.144C81.2969 178.452 81.6123 178.701 81.9936 178.892C82.3749 179.068 82.8296 179.156 83.3576 179.156C84.0909 179.156 84.6776 179.002 85.1176 178.694C85.5723 178.371 85.9096 177.895 86.1296 177.264H88.5056C88.3736 177.88 88.1463 178.43 87.8236 178.914C87.5009 179.398 87.1123 179.809 86.6576 180.146C86.2029 180.469 85.6896 180.711 85.1176 180.872C84.5603 181.048 83.9736 181.136 83.3576 181.136C82.4629 181.136 81.6709 180.989 80.9816 180.696C80.2923 180.403 79.7056 179.992 79.2216 179.464C78.7523 178.936 78.3929 178.305 78.1436 177.572C77.9089 176.839 77.7916 176.032 77.7916 175.152C77.7916 174.345 77.9163 173.583 78.1656 172.864C78.4296 172.131 78.7963 171.493 79.2656 170.95C79.7496 170.393 80.3289 169.953 81.0036 169.63C81.6783 169.307 82.4409 169.146 83.2916 169.146C84.1863 169.146 84.9856 169.337 85.6896 169.718C86.4083 170.085 87.0023 170.576 87.4716 171.192C87.9409 171.808 88.2783 172.519 88.4836 173.326C88.7036 174.118 88.7623 174.939 88.6596 175.79H80.2996ZM95.7802 181.136C94.8709 181.136 94.0569 180.989 93.3382 180.696C92.6342 180.388 92.0329 179.97 91.5342 179.442C91.0502 178.914 90.6762 178.283 90.4122 177.55C90.1629 176.817 90.0382 176.01 90.0382 175.13C90.0382 174.265 90.1629 173.465 90.4122 172.732C90.6762 171.999 91.0502 171.368 91.5342 170.84C92.0329 170.312 92.6342 169.901 93.3382 169.608C94.0569 169.3 94.8709 169.146 95.7802 169.146C96.6895 169.146 97.4962 169.3 98.2002 169.608C98.9189 169.901 99.5202 170.312 100.004 170.84C100.503 171.368 100.877 171.999 101.126 172.732C101.39 173.465 101.522 174.265 101.522 175.13C101.522 176.01 101.39 176.817 101.126 177.55C100.877 178.283 100.503 178.914 100.004 179.442C99.5202 179.97 98.9189 180.388 98.2002 180.696C97.4962 180.989 96.6895 181.136 95.7802 181.136ZM95.7802 179.156C96.3375 179.156 96.8215 179.039 97.2322 178.804C97.6429 178.569 97.9802 178.261 98.2442 177.88C98.5082 177.499 98.6989 177.073 98.8162 176.604C98.9482 176.12 99.0142 175.629 99.0142 175.13C99.0142 174.646 98.9482 174.162 98.8162 173.678C98.6989 173.194 98.5082 172.769 98.2442 172.402C97.9802 172.021 97.6429 171.713 97.2322 171.478C96.8215 171.243 96.3375 171.126 95.7802 171.126C95.2229 171.126 94.7389 171.243 94.3282 171.478C93.9175 171.713 93.5802 172.021 93.3162 172.402C93.0522 172.769 92.8542 173.194 92.7222 173.678C92.6049 174.162 92.5462 174.646 92.5462 175.13C92.5462 175.629 92.6049 176.12 92.7222 176.604C92.8542 177.073 93.0522 177.499 93.3162 177.88C93.5802 178.261 93.9175 178.569 94.3282 178.804C94.7389 179.039 95.2229 179.156 95.7802 179.156ZM102.463 169.454H104.355V166.044H106.863V169.454H109.129V171.324H106.863V177.396C106.863 177.66 106.871 177.887 106.885 178.078C106.915 178.269 106.966 178.43 107.039 178.562C107.127 178.694 107.252 178.797 107.413 178.87C107.575 178.929 107.795 178.958 108.073 178.958C108.249 178.958 108.425 178.958 108.601 178.958C108.777 178.943 108.953 178.914 109.129 178.87V180.806C108.851 180.835 108.579 180.865 108.315 180.894C108.051 180.923 107.78 180.938 107.501 180.938C106.841 180.938 106.306 180.879 105.895 180.762C105.499 180.63 105.184 180.447 104.949 180.212C104.729 179.963 104.575 179.655 104.487 179.288C104.414 178.921 104.37 178.503 104.355 178.034V171.324H102.463V169.454ZM110.933 165.12H113.441V170.95H113.485C113.793 170.437 114.248 170.011 114.849 169.674C115.465 169.322 116.147 169.146 116.895 169.146C118.142 169.146 119.125 169.469 119.843 170.114C120.562 170.759 120.921 171.727 120.921 173.018V180.828H118.413V173.678C118.384 172.783 118.193 172.138 117.841 171.742C117.489 171.331 116.939 171.126 116.191 171.126C115.766 171.126 115.385 171.207 115.047 171.368C114.71 171.515 114.424 171.727 114.189 172.006C113.955 172.27 113.771 172.585 113.639 172.952C113.507 173.319 113.441 173.707 113.441 174.118V180.828H110.933V165.12ZM131.376 174.14C131.347 173.744 131.259 173.363 131.112 172.996C130.98 172.629 130.79 172.314 130.54 172.05C130.306 171.771 130.012 171.551 129.66 171.39C129.323 171.214 128.942 171.126 128.516 171.126C128.076 171.126 127.673 171.207 127.306 171.368C126.954 171.515 126.646 171.727 126.382 172.006C126.133 172.27 125.928 172.585 125.766 172.952C125.62 173.319 125.539 173.715 125.524 174.14H131.376ZM125.524 175.79C125.524 176.23 125.583 176.655 125.7 177.066C125.832 177.477 126.023 177.836 126.272 178.144C126.522 178.452 126.837 178.701 127.218 178.892C127.6 179.068 128.054 179.156 128.582 179.156C129.316 179.156 129.902 179.002 130.342 178.694C130.797 178.371 131.134 177.895 131.354 177.264H133.73C133.598 177.88 133.371 178.43 133.048 178.914C132.726 179.398 132.337 179.809 131.882 180.146C131.428 180.469 130.914 180.711 130.342 180.872C129.785 181.048 129.198 181.136 128.582 181.136C127.688 181.136 126.896 180.989 126.206 180.696C125.517 180.403 124.93 179.992 124.446 179.464C123.977 178.936 123.618 178.305 123.368 177.572C123.134 176.839 123.016 176.032 123.016 175.152C123.016 174.345 123.141 173.583 123.39 172.864C123.654 172.131 124.021 171.493 124.49 170.95C124.974 170.393 125.554 169.953 126.228 169.63C126.903 169.307 127.666 169.146 128.516 169.146C129.411 169.146 130.21 169.337 130.914 169.718C131.633 170.085 132.227 170.576 132.696 171.192C133.166 171.808 133.503 172.519 133.708 173.326C133.928 174.118 133.987 174.939 133.884 175.79H125.524ZM135.791 169.454H138.145V171.654H138.189C138.262 171.346 138.401 171.045 138.607 170.752C138.827 170.459 139.083 170.195 139.377 169.96C139.685 169.711 140.022 169.513 140.389 169.366C140.755 169.219 141.129 169.146 141.511 169.146C141.804 169.146 142.002 169.153 142.105 169.168C142.222 169.183 142.339 169.197 142.457 169.212V171.632C142.281 171.603 142.097 171.581 141.907 171.566C141.731 171.537 141.555 171.522 141.379 171.522C140.953 171.522 140.55 171.61 140.169 171.786C139.802 171.947 139.479 172.197 139.201 172.534C138.922 172.857 138.702 173.26 138.541 173.744C138.379 174.228 138.299 174.785 138.299 175.416V180.828H135.791V169.454ZM143.525 169.454H145.901V171.038H145.967C146.158 170.759 146.363 170.503 146.583 170.268C146.803 170.033 147.045 169.835 147.309 169.674C147.588 169.513 147.903 169.388 148.255 169.3C148.607 169.197 149.011 169.146 149.465 169.146C150.155 169.146 150.793 169.3 151.379 169.608C151.981 169.916 152.406 170.393 152.655 171.038C153.081 170.451 153.572 169.989 154.129 169.652C154.687 169.315 155.383 169.146 156.219 169.146C157.422 169.146 158.353 169.439 159.013 170.026C159.688 170.613 160.025 171.595 160.025 172.974V180.828H157.517V174.184C157.517 173.729 157.503 173.319 157.473 172.952C157.444 172.571 157.356 172.248 157.209 171.984C157.077 171.705 156.872 171.493 156.593 171.346C156.315 171.199 155.933 171.126 155.449 171.126C154.599 171.126 153.983 171.39 153.601 171.918C153.22 172.446 153.029 173.194 153.029 174.162V180.828H150.521V173.524C150.521 172.732 150.375 172.138 150.081 171.742C149.803 171.331 149.282 171.126 148.519 171.126C148.197 171.126 147.881 171.192 147.573 171.324C147.28 171.456 147.016 171.647 146.781 171.896C146.561 172.145 146.378 172.453 146.231 172.82C146.099 173.187 146.033 173.605 146.033 174.074V180.828H143.525V169.454ZM172.194 178.298C172.194 178.606 172.23 178.826 172.304 178.958C172.392 179.09 172.553 179.156 172.788 179.156C172.861 179.156 172.949 179.156 173.052 179.156C173.154 179.156 173.272 179.141 173.404 179.112V180.85C173.316 180.879 173.198 180.909 173.052 180.938C172.92 180.982 172.78 181.019 172.634 181.048C172.487 181.077 172.34 181.099 172.194 181.114C172.047 181.129 171.922 181.136 171.82 181.136C171.306 181.136 170.881 181.033 170.544 180.828C170.206 180.623 169.986 180.263 169.884 179.75C169.385 180.234 168.769 180.586 168.036 180.806C167.317 181.026 166.62 181.136 165.946 181.136C165.432 181.136 164.941 181.063 164.472 180.916C164.002 180.784 163.584 180.586 163.218 180.322C162.866 180.043 162.58 179.699 162.36 179.288C162.154 178.863 162.052 178.371 162.052 177.814C162.052 177.11 162.176 176.538 162.426 176.098C162.69 175.658 163.027 175.313 163.438 175.064C163.863 174.815 164.332 174.639 164.846 174.536C165.374 174.419 165.902 174.331 166.43 174.272C166.884 174.184 167.317 174.125 167.728 174.096C168.138 174.052 168.498 173.986 168.806 173.898C169.128 173.81 169.378 173.678 169.554 173.502C169.744 173.311 169.84 173.033 169.84 172.666C169.84 172.343 169.759 172.079 169.598 171.874C169.451 171.669 169.26 171.515 169.026 171.412C168.806 171.295 168.556 171.221 168.278 171.192C167.999 171.148 167.735 171.126 167.486 171.126C166.782 171.126 166.202 171.273 165.748 171.566C165.293 171.859 165.036 172.314 164.978 172.93H162.47C162.514 172.197 162.69 171.588 162.998 171.104C163.306 170.62 163.694 170.231 164.164 169.938C164.648 169.645 165.19 169.439 165.792 169.322C166.393 169.205 167.009 169.146 167.64 169.146C168.197 169.146 168.747 169.205 169.29 169.322C169.832 169.439 170.316 169.63 170.742 169.894C171.182 170.158 171.534 170.503 171.798 170.928C172.062 171.339 172.194 171.845 172.194 172.446V178.298ZM169.686 175.13C169.304 175.379 168.835 175.533 168.278 175.592C167.72 175.636 167.163 175.709 166.606 175.812C166.342 175.856 166.085 175.922 165.836 176.01C165.586 176.083 165.366 176.193 165.176 176.34C164.985 176.472 164.831 176.655 164.714 176.89C164.611 177.11 164.56 177.381 164.56 177.704C164.56 177.983 164.64 178.217 164.802 178.408C164.963 178.599 165.154 178.753 165.374 178.87C165.608 178.973 165.858 179.046 166.122 179.09C166.4 179.134 166.65 179.156 166.87 179.156C167.148 179.156 167.449 179.119 167.772 179.046C168.094 178.973 168.395 178.848 168.674 178.672C168.967 178.496 169.209 178.276 169.4 178.012C169.59 177.733 169.686 177.396 169.686 177V175.13ZM174.958 165.12H177.466V180.828H174.958V165.12Z" fill="#1A0803"/>
</svg>
