<svg width="356" height="276" viewBox="0 0 356 276" fill="none" xmlns="http://www.w3.org/2000/svg">
<g clip-path="url(#clip0_481_5992)" filter="url(#filter0_d_481_5992)">
<g filter="url(#filter1_d_481_5992)">
<mask id="path-1-outside-1_481_5992" maskUnits="userSpaceOnUse" x="1.60021" y="12.6445" width="197" height="151" fill="black">
<rect fill="white" x="1.60021" y="12.6445" width="197" height="151"/>
<path d="M71.0137 152.153L73.9623 152.795C73.9623 152.795 76.7895 157.287 77.1711 157.929C77.5526 158.57 78.3332 159.091 78.3332 159.091L80.64 159.212L82.0449 155.622L86.5372 152.031L91.1682 152.292L98.8692 149.985L102.598 148.059L105.304 146.655C105.304 146.655 106.327 142.544 106.327 141.781C106.327 141.017 105.044 137.028 105.044 137.028L102.477 129.83L101.454 125.841L101.072 120.967C101.072 120.967 102.234 118.782 103.136 118.14C104.038 117.498 105.842 117.238 107.368 117.377C108.894 117.516 110.837 117.637 111.479 117.758C112.121 117.88 113.543 119.944 113.543 119.944L114.705 123.153L118.295 124.956L122.406 124.956L123.048 125.217L124.453 129.327L126.118 133.819L127.921 134.583L129.587 137.791L134.339 137.791C134.721 137.791 138.068 136.248 138.45 135.988C138.831 135.727 140.756 132.397 140.756 132.397L144.225 131.877L154.372 131.357C154.372 131.357 156.176 133.663 156.297 134.565C156.419 135.467 156.176 136.109 156.176 136.109L156.054 139.578L157.459 140.74L160.668 141.642L164.657 141.26L166.062 140.497L169.653 140.116L171.578 139.474L173.122 135.242C173.122 135.242 184.933 127.662 187.119 125.737C189.304 123.812 190.588 124.974 190.588 124.974L194.577 124.211L195.479 122.927L195.6 119.718L192.773 118.313L188.784 118.313L185.835 117.29L183.91 114.584L179.158 113.682L178.256 109.953L174.405 103.657L173.382 94.9155L167.849 94.0136L165.924 92.6086L166.045 87.4746L166.166 84.526L163.721 81.959L163.721 76.9464L163.2 73.5989L162.038 72.194L161.136 69.3668L160.113 65.2562L156.904 64.6144L154.077 64.0941L152.013 62.6892L154.077 59.9834L154.979 57.2776L152.412 54.9708L148.18 55.231L143.809 56.3931L141.884 56.6532L139.698 51.3805L141.502 48.5533L143.688 45.6047L144.59 42.1358L143.046 40.3319L142.023 37.1232L143.827 35.4581L146.012 33.6542L145.908 31.2433L145.596 31.2954L143.185 31.5902L140.774 30.4281L139.23 28.1213L139.126 25.138L137.877 24.08L135.172 22.4496L135.067 21.964L133.628 19.4663L131.217 16.8646L127.557 19.4663L123.516 15.8066L120.429 14.6445L118.313 14.6445L112.537 15.4077L111.375 15.4077L108.478 14.8353L103.275 19.0674L100.777 19.449L96.9266 23.4903L94.6198 25.7971L92.5037 30.0292L89.4164 37.5394L87.3003 37.3486L81.9062 35.805L78.8188 34.6429L76.512 32.336L73.2339 32.1453L65.7236 25.9706L62.5496 26.5429L61.9945 40.939L63.9198 50.3224L70.4761 60.6078L71.2392 66.2621L66.7469 73.0786L64.18 78.6115L63.5382 83.1038L59.8091 84.7689L53.7732 85.029C53.7732 85.029 52.7498 83.3639 52.3683 82.965C51.9867 82.5834 47.2343 83.2252 46.8353 83.6068C46.4537 83.9884 45.0315 86.1738 45.0315 86.1738L44.1296 89.3825L42.846 89.7641L40.2791 89.3825L36.5499 86.4339C36.5499 86.4339 33.3412 83.9884 32.5607 83.6068C31.7975 83.2252 29.7335 82.5834 29.7335 82.5834L26.9063 83.4854L21.9284 86.0524L22.5355 86.5033L24.6515 89.001L23.6802 92.8515L17.9044 97.0835L15.5976 99.1996L14.054 103.831L13.4816 109.416L13.6724 113.266L14.054 115.001L11.7471 119.441L12.5103 121.175L12.1287 126.188L10.5851 128.304L7.11613 131.582L5.00008 136.022L4.04609 140.619L5.97137 143.931L7.8966 147.4L12.9092 147.782L15.8058 151.06L20.246 151.442L26.2125 151.442L30.8436 152.205L33.1504 157.599L34.1217 157.981L39.1343 158.171L42.2216 160.669L47.8066 160.097L53.01 158.934L58.2134 155.847L62.7924 155.847L65.7236 153.35L70.9964 152.187L71.0137 152.153Z"/>
</mask>
<path d="M71.0137 152.153L73.9623 152.795C73.9623 152.795 76.7895 157.287 77.1711 157.929C77.5526 158.57 78.3332 159.091 78.3332 159.091L80.64 159.212L82.0449 155.622L86.5372 152.031L91.1682 152.292L98.8692 149.985L102.598 148.059L105.304 146.655C105.304 146.655 106.327 142.544 106.327 141.781C106.327 141.017 105.044 137.028 105.044 137.028L102.477 129.83L101.454 125.841L101.072 120.967C101.072 120.967 102.234 118.782 103.136 118.14C104.038 117.498 105.842 117.238 107.368 117.377C108.894 117.516 110.837 117.637 111.479 117.758C112.121 117.88 113.543 119.944 113.543 119.944L114.705 123.153L118.295 124.956L122.406 124.956L123.048 125.217L124.453 129.327L126.118 133.819L127.921 134.583L129.587 137.791L134.339 137.791C134.721 137.791 138.068 136.248 138.45 135.988C138.831 135.727 140.756 132.397 140.756 132.397L144.225 131.877L154.372 131.357C154.372 131.357 156.176 133.663 156.297 134.565C156.419 135.467 156.176 136.109 156.176 136.109L156.054 139.578L157.459 140.74L160.668 141.642L164.657 141.26L166.062 140.497L169.653 140.116L171.578 139.474L173.122 135.242C173.122 135.242 184.933 127.662 187.119 125.737C189.304 123.812 190.588 124.974 190.588 124.974L194.577 124.211L195.479 122.927L195.6 119.718L192.773 118.313L188.784 118.313L185.835 117.29L183.91 114.584L179.158 113.682L178.256 109.953L174.405 103.657L173.382 94.9155L167.849 94.0136L165.924 92.6086L166.045 87.4746L166.166 84.526L163.721 81.959L163.721 76.9464L163.2 73.5989L162.038 72.194L161.136 69.3668L160.113 65.2562L156.904 64.6144L154.077 64.0941L152.013 62.6892L154.077 59.9834L154.979 57.2776L152.412 54.9708L148.18 55.231L143.809 56.3931L141.884 56.6532L139.698 51.3805L141.502 48.5533L143.688 45.6047L144.59 42.1358L143.046 40.3319L142.023 37.1232L143.827 35.4581L146.012 33.6542L145.908 31.2433L145.596 31.2954L143.185 31.5902L140.774 30.4281L139.23 28.1213L139.126 25.138L137.877 24.08L135.172 22.4496L135.067 21.964L133.628 19.4663L131.217 16.8646L127.557 19.4663L123.516 15.8066L120.429 14.6445L118.313 14.6445L112.537 15.4077L111.375 15.4077L108.478 14.8353L103.275 19.0674L100.777 19.449L96.9266 23.4903L94.6198 25.7971L92.5037 30.0292L89.4164 37.5394L87.3003 37.3486L81.9062 35.805L78.8188 34.6429L76.512 32.336L73.2339 32.1453L65.7236 25.9706L62.5496 26.5429L61.9945 40.939L63.9198 50.3224L70.4761 60.6078L71.2392 66.2621L66.7469 73.0786L64.18 78.6115L63.5382 83.1038L59.8091 84.7689L53.7732 85.029C53.7732 85.029 52.7498 83.3639 52.3683 82.965C51.9867 82.5834 47.2343 83.2252 46.8353 83.6068C46.4537 83.9884 45.0315 86.1738 45.0315 86.1738L44.1296 89.3825L42.846 89.7641L40.2791 89.3825L36.5499 86.4339C36.5499 86.4339 33.3412 83.9884 32.5607 83.6068C31.7975 83.2252 29.7335 82.5834 29.7335 82.5834L26.9063 83.4854L21.9284 86.0524L22.5355 86.5033L24.6515 89.001L23.6802 92.8515L17.9044 97.0835L15.5976 99.1996L14.054 103.831L13.4816 109.416L13.6724 113.266L14.054 115.001L11.7471 119.441L12.5103 121.175L12.1287 126.188L10.5851 128.304L7.11613 131.582L5.00008 136.022L4.04609 140.619L5.97137 143.931L7.8966 147.4L12.9092 147.782L15.8058 151.06L20.246 151.442L26.2125 151.442L30.8436 152.205L33.1504 157.599L34.1217 157.981L39.1343 158.171L42.2216 160.669L47.8066 160.097L53.01 158.934L58.2134 155.847L62.7924 155.847L65.7236 153.35L70.9964 152.187L71.0137 152.153Z" fill="#95AB4D"/>
<path d="M71.0137 152.153L73.9623 152.795C73.9623 152.795 76.7895 157.287 77.1711 157.929C77.5526 158.57 78.3332 159.091 78.3332 159.091L80.64 159.212L82.0449 155.622L86.5372 152.031L91.1682 152.292L98.8692 149.985L102.598 148.059L105.304 146.655C105.304 146.655 106.327 142.544 106.327 141.781C106.327 141.017 105.044 137.028 105.044 137.028L102.477 129.83L101.454 125.841L101.072 120.967C101.072 120.967 102.234 118.782 103.136 118.14C104.038 117.498 105.842 117.238 107.368 117.377C108.894 117.516 110.837 117.637 111.479 117.758C112.121 117.88 113.543 119.944 113.543 119.944L114.705 123.153L118.295 124.956L122.406 124.956L123.048 125.217L124.453 129.327L126.118 133.819L127.921 134.583L129.587 137.791L134.339 137.791C134.721 137.791 138.068 136.248 138.45 135.988C138.831 135.727 140.756 132.397 140.756 132.397L144.225 131.877L154.372 131.357C154.372 131.357 156.176 133.663 156.297 134.565C156.419 135.467 156.176 136.109 156.176 136.109L156.054 139.578L157.459 140.74L160.668 141.642L164.657 141.26L166.062 140.497L169.653 140.116L171.578 139.474L173.122 135.242C173.122 135.242 184.933 127.662 187.119 125.737C189.304 123.812 190.588 124.974 190.588 124.974L194.577 124.211L195.479 122.927L195.6 119.718L192.773 118.313L188.784 118.313L185.835 117.29L183.91 114.584L179.158 113.682L178.256 109.953L174.405 103.657L173.382 94.9155L167.849 94.0136L165.924 92.6086L166.045 87.4746L166.166 84.526L163.721 81.959L163.721 76.9464L163.2 73.5989L162.038 72.194L161.136 69.3668L160.113 65.2562L156.904 64.6144L154.077 64.0941L152.013 62.6892L154.077 59.9834L154.979 57.2776L152.412 54.9708L148.18 55.231L143.809 56.3931L141.884 56.6532L139.698 51.3805L141.502 48.5533L143.688 45.6047L144.59 42.1358L143.046 40.3319L142.023 37.1232L143.827 35.4581L146.012 33.6542L145.908 31.2433L145.596 31.2954L143.185 31.5902L140.774 30.4281L139.23 28.1213L139.126 25.138L137.877 24.08L135.172 22.4496L135.067 21.964L133.628 19.4663L131.217 16.8646L127.557 19.4663L123.516 15.8066L120.429 14.6445L118.313 14.6445L112.537 15.4077L111.375 15.4077L108.478 14.8353L103.275 19.0674L100.777 19.449L96.9266 23.4903L94.6198 25.7971L92.5037 30.0292L89.4164 37.5394L87.3003 37.3486L81.9062 35.805L78.8188 34.6429L76.512 32.336L73.2339 32.1453L65.7236 25.9706L62.5496 26.5429L61.9945 40.939L63.9198 50.3224L70.4761 60.6078L71.2392 66.2621L66.7469 73.0786L64.18 78.6115L63.5382 83.1038L59.8091 84.7689L53.7732 85.029C53.7732 85.029 52.7498 83.3639 52.3683 82.965C51.9867 82.5834 47.2343 83.2252 46.8353 83.6068C46.4537 83.9884 45.0315 86.1738 45.0315 86.1738L44.1296 89.3825L42.846 89.7641L40.2791 89.3825L36.5499 86.4339C36.5499 86.4339 33.3412 83.9884 32.5607 83.6068C31.7975 83.2252 29.7335 82.5834 29.7335 82.5834L26.9063 83.4854L21.9284 86.0524L22.5355 86.5033L24.6515 89.001L23.6802 92.8515L17.9044 97.0835L15.5976 99.1996L14.054 103.831L13.4816 109.416L13.6724 113.266L14.054 115.001L11.7471 119.441L12.5103 121.175L12.1287 126.188L10.5851 128.304L7.11613 131.582L5.00008 136.022L4.04609 140.619L5.97137 143.931L7.8966 147.4L12.9092 147.782L15.8058 151.06L20.246 151.442L26.2125 151.442L30.8436 152.205L33.1504 157.599L34.1217 157.981L39.1343 158.171L42.2216 160.669L47.8066 160.097L53.01 158.934L58.2134 155.847L62.7924 155.847L65.7236 153.35L70.9964 152.187L71.0137 152.153Z" stroke="#0D0D0C" stroke-width="4" mask="url(#path-1-outside-1_481_5992)"/>
<mask id="path-2-outside-2_481_5992" maskUnits="userSpaceOnUse" x="44.3834" y="115.347" width="222" height="156" fill="black">
<rect fill="white" x="44.3834" y="115.347" width="222" height="156"/>
<path d="M239.587 243.698L236.881 240.125L235.146 239.743L233.03 241.374L229.752 241.946L228.313 240.975L228.313 238.373L229.371 235.667L232.076 231.227L234.678 230.169L236.707 230.273L238.633 231.245C238.633 231.245 239.118 231.73 239.309 232.112C239.5 232.493 240.558 233.465 240.558 233.465C240.558 233.465 242.396 233.656 242.674 233.656C242.951 233.656 244.79 232.788 244.79 232.788C244.79 232.788 249.803 232.493 250.184 232.493C250.566 232.493 252.109 233.656 252.109 233.656L254.711 236.361L256.827 237.124L259.724 236.361L260.296 229.042L260.296 226.145L263.279 224.602L263.383 222.763L261.077 221.323L259.446 217.75L256.55 217.75L252.595 217.855L249.317 212.166L245.744 208.697L244.495 208.02L242.188 204.17L243.732 201.377L247.496 200.128L250.288 198.29L251.26 195.497L251.641 194.144L250.479 190.676L247.201 188.837L244.027 189.028L241.425 191.629L238.927 192.601L237.297 191.629L237.002 182.281L236.898 176.592L234.401 172.828L231.504 169.654L228.711 168.683L225.919 168.787L224.375 172.36L226.11 175.152L226.006 177.858L222.346 179.02L216.171 178.448L214.246 175.95L209.233 176.054L209.233 167.867L207.881 166.029L202.382 166.324L199.781 164.971L196.017 163.34L192.062 162.473L192.062 159.976L190.137 156.801L187.83 155.362L187.449 153.437L189.374 152.275L186.287 146.69L182.141 143.793L177.996 143.307L173.764 142.735L171.838 142.163L170.78 139.752L169.688 140.116L166.097 140.498L164.692 141.261L160.703 141.642L157.494 140.74L156.09 139.578L156.211 136.109C156.211 136.109 156.471 135.468 156.332 134.566C156.211 133.664 154.407 131.357 154.407 131.357L144.261 131.877L140.792 132.398C140.792 132.398 138.866 135.745 138.485 135.988C138.103 136.248 134.756 137.792 134.374 137.792L129.622 137.792L127.957 134.583L126.153 133.82L124.488 129.328L123.083 125.217L122.441 124.957L118.33 124.957L114.74 123.153L113.578 119.944C113.578 119.944 112.173 117.88 111.514 117.759C110.872 117.637 108.947 117.499 107.403 117.377C105.859 117.256 104.056 117.499 103.171 118.14C102.269 118.782 101.107 120.967 101.107 120.967L101.489 125.841L102.512 129.831L105.079 137.029C105.079 137.029 106.362 141.018 106.362 141.781C106.362 142.544 105.339 146.655 105.339 146.655L102.633 148.06L98.9043 149.985L91.2033 152.292L86.5723 152.032L82.08 155.622L80.6751 159.212L78.3683 159.091C78.3683 159.091 77.6051 158.571 77.2061 157.929C76.8246 157.287 73.9974 152.795 73.9974 152.795L71.0488 152.153L65.776 153.315L62.8448 155.813L63.2784 155.813L64.2497 157.738L62.7061 160.635L60.59 162.751L59.4279 164.485L59.4279 166.41L60.0003 167.174L65.2037 168.526L66.5566 169.879L66.175 171.614L64.4405 173.73L61.3532 174.493L58.6474 176.227L58.075 177.962L56.3406 182.593L56.1498 183.356L53.444 183.547L49.5935 179.506L46.8878 179.696L46.5062 181.812L47.4775 185.663L49.0211 187.588L53.0624 188.161L55.3693 189.895L55.7508 193.364L55.1785 198.186L56.1498 199.729L58.6474 197.804L61.3532 198.671L61.3532 198.585L63.8508 197.822L67.1289 198.793C67.1289 198.793 68.4818 199.365 69.4358 199.365L73.4771 199.365L74.8299 201.1L80.0333 201.672L83.6931 201.1L86.3988 198.984L90.0585 196.087L91.9838 195.324L96.8056 194.561L101.818 196.104L103.553 196.104L109.519 192.063L114.15 193.988C114.15 193.988 115.885 197.076 115.885 197.839C115.885 198.602 115.312 200.336 115.312 200.336L113.196 202.643L113.196 203.996L114.168 205.731L116.284 207.847L116.284 214.594L114.358 217.872L112.433 219.225L112.433 222.503L114.549 225.972L116.093 225.59L121.487 224.428L126.5 226.353L126.5 235.407L129.205 235.217L134.79 239.848L142.301 239.848L143.064 243.316L143.064 244.479L142.682 247.184L143.844 252.197L145.579 253.359L151.354 256.446L153.436 258.979L156.749 257.608L159.454 258.857C159.454 258.857 161.761 259.343 162.438 259.534C163.114 259.725 166.011 259.829 166.011 259.829L167.849 258.094L167.745 256.655L167.554 255.787L165.82 254.729L162.923 253.376L162.247 252.509L163.6 248.069L165.334 247.878L168.699 247.687L171.405 249.127L172.844 251.052L173.816 251.434L178.152 251.729L181.621 252.7L182.679 254.92L183.442 255.787L186.235 256.949L187.587 258.58L189.617 258.198L192.114 255.492L194.23 254.816L195.67 256.655L196.537 258.007L199.33 258.111L200.96 258.788L200.856 263.506L200.474 268.327L202.59 268.327L204.811 266.593L209.338 265.049L210.69 265.24L212.425 268.605C212.425 268.605 215.408 268.987 215.79 269.091C216.171 269.195 218.391 268.9 218.391 268.9L220.802 266.107L220.317 261.286L222.624 258.875L228.694 254.833L232.163 251.468L237.366 251.85L237.713 252.7L239.014 250.792L239.587 243.75L239.587 243.698Z"/>
</mask>
<path d="M239.587 243.698L236.881 240.125L235.146 239.743L233.03 241.374L229.752 241.946L228.313 240.975L228.313 238.373L229.371 235.667L232.076 231.227L234.678 230.169L236.707 230.273L238.633 231.245C238.633 231.245 239.118 231.73 239.309 232.112C239.5 232.493 240.558 233.465 240.558 233.465C240.558 233.465 242.396 233.656 242.674 233.656C242.951 233.656 244.79 232.788 244.79 232.788C244.79 232.788 249.803 232.493 250.184 232.493C250.566 232.493 252.109 233.656 252.109 233.656L254.711 236.361L256.827 237.124L259.724 236.361L260.296 229.042L260.296 226.145L263.279 224.602L263.383 222.763L261.077 221.323L259.446 217.75L256.55 217.75L252.595 217.855L249.317 212.166L245.744 208.697L244.495 208.02L242.188 204.17L243.732 201.377L247.496 200.128L250.288 198.29L251.26 195.497L251.641 194.144L250.479 190.676L247.201 188.837L244.027 189.028L241.425 191.629L238.927 192.601L237.297 191.629L237.002 182.281L236.898 176.592L234.401 172.828L231.504 169.654L228.711 168.683L225.919 168.787L224.375 172.36L226.11 175.152L226.006 177.858L222.346 179.02L216.171 178.448L214.246 175.95L209.233 176.054L209.233 167.867L207.881 166.029L202.382 166.324L199.781 164.971L196.017 163.34L192.062 162.473L192.062 159.976L190.137 156.801L187.83 155.362L187.449 153.437L189.374 152.275L186.287 146.69L182.141 143.793L177.996 143.307L173.764 142.735L171.838 142.163L170.78 139.752L169.688 140.116L166.097 140.498L164.692 141.261L160.703 141.642L157.494 140.74L156.09 139.578L156.211 136.109C156.211 136.109 156.471 135.468 156.332 134.566C156.211 133.664 154.407 131.357 154.407 131.357L144.261 131.877L140.792 132.398C140.792 132.398 138.866 135.745 138.485 135.988C138.103 136.248 134.756 137.792 134.374 137.792L129.622 137.792L127.957 134.583L126.153 133.82L124.488 129.328L123.083 125.217L122.441 124.957L118.33 124.957L114.74 123.153L113.578 119.944C113.578 119.944 112.173 117.88 111.514 117.759C110.872 117.637 108.947 117.499 107.403 117.377C105.859 117.256 104.056 117.499 103.171 118.14C102.269 118.782 101.107 120.967 101.107 120.967L101.489 125.841L102.512 129.831L105.079 137.029C105.079 137.029 106.362 141.018 106.362 141.781C106.362 142.544 105.339 146.655 105.339 146.655L102.633 148.06L98.9043 149.985L91.2033 152.292L86.5723 152.032L82.08 155.622L80.6751 159.212L78.3683 159.091C78.3683 159.091 77.6051 158.571 77.2061 157.929C76.8246 157.287 73.9974 152.795 73.9974 152.795L71.0488 152.153L65.776 153.315L62.8448 155.813L63.2784 155.813L64.2497 157.738L62.7061 160.635L60.59 162.751L59.4279 164.485L59.4279 166.41L60.0003 167.174L65.2037 168.526L66.5566 169.879L66.175 171.614L64.4405 173.73L61.3532 174.493L58.6474 176.227L58.075 177.962L56.3406 182.593L56.1498 183.356L53.444 183.547L49.5935 179.506L46.8878 179.696L46.5062 181.812L47.4775 185.663L49.0211 187.588L53.0624 188.161L55.3693 189.895L55.7508 193.364L55.1785 198.186L56.1498 199.729L58.6474 197.804L61.3532 198.671L61.3532 198.585L63.8508 197.822L67.1289 198.793C67.1289 198.793 68.4818 199.365 69.4358 199.365L73.4771 199.365L74.8299 201.1L80.0333 201.672L83.6931 201.1L86.3988 198.984L90.0585 196.087L91.9838 195.324L96.8056 194.561L101.818 196.104L103.553 196.104L109.519 192.063L114.15 193.988C114.15 193.988 115.885 197.076 115.885 197.839C115.885 198.602 115.312 200.336 115.312 200.336L113.196 202.643L113.196 203.996L114.168 205.731L116.284 207.847L116.284 214.594L114.358 217.872L112.433 219.225L112.433 222.503L114.549 225.972L116.093 225.59L121.487 224.428L126.5 226.353L126.5 235.407L129.205 235.217L134.79 239.848L142.301 239.848L143.064 243.316L143.064 244.479L142.682 247.184L143.844 252.197L145.579 253.359L151.354 256.446L153.436 258.979L156.749 257.608L159.454 258.857C159.454 258.857 161.761 259.343 162.438 259.534C163.114 259.725 166.011 259.829 166.011 259.829L167.849 258.094L167.745 256.655L167.554 255.787L165.82 254.729L162.923 253.376L162.247 252.509L163.6 248.069L165.334 247.878L168.699 247.687L171.405 249.127L172.844 251.052L173.816 251.434L178.152 251.729L181.621 252.7L182.679 254.92L183.442 255.787L186.235 256.949L187.587 258.58L189.617 258.198L192.114 255.492L194.23 254.816L195.67 256.655L196.537 258.007L199.33 258.111L200.96 258.788L200.856 263.506L200.474 268.327L202.59 268.327L204.811 266.593L209.338 265.049L210.69 265.24L212.425 268.605C212.425 268.605 215.408 268.987 215.79 269.091C216.171 269.195 218.391 268.9 218.391 268.9L220.802 266.107L220.317 261.286L222.624 258.875L228.694 254.833L232.163 251.468L237.366 251.85L237.713 252.7L239.014 250.792L239.587 243.75L239.587 243.698Z" fill="#95AB4D"/>
<path d="M239.587 243.698L236.881 240.125L235.146 239.743L233.03 241.374L229.752 241.946L228.313 240.975L228.313 238.373L229.371 235.667L232.076 231.227L234.678 230.169L236.707 230.273L238.633 231.245C238.633 231.245 239.118 231.73 239.309 232.112C239.5 232.493 240.558 233.465 240.558 233.465C240.558 233.465 242.396 233.656 242.674 233.656C242.951 233.656 244.79 232.788 244.79 232.788C244.79 232.788 249.803 232.493 250.184 232.493C250.566 232.493 252.109 233.656 252.109 233.656L254.711 236.361L256.827 237.124L259.724 236.361L260.296 229.042L260.296 226.145L263.279 224.602L263.383 222.763L261.077 221.323L259.446 217.75L256.55 217.75L252.595 217.855L249.317 212.166L245.744 208.697L244.495 208.02L242.188 204.17L243.732 201.377L247.496 200.128L250.288 198.29L251.26 195.497L251.641 194.144L250.479 190.676L247.201 188.837L244.027 189.028L241.425 191.629L238.927 192.601L237.297 191.629L237.002 182.281L236.898 176.592L234.401 172.828L231.504 169.654L228.711 168.683L225.919 168.787L224.375 172.36L226.11 175.152L226.006 177.858L222.346 179.02L216.171 178.448L214.246 175.95L209.233 176.054L209.233 167.867L207.881 166.029L202.382 166.324L199.781 164.971L196.017 163.34L192.062 162.473L192.062 159.976L190.137 156.801L187.83 155.362L187.449 153.437L189.374 152.275L186.287 146.69L182.141 143.793L177.996 143.307L173.764 142.735L171.838 142.163L170.78 139.752L169.688 140.116L166.097 140.498L164.692 141.261L160.703 141.642L157.494 140.74L156.09 139.578L156.211 136.109C156.211 136.109 156.471 135.468 156.332 134.566C156.211 133.664 154.407 131.357 154.407 131.357L144.261 131.877L140.792 132.398C140.792 132.398 138.866 135.745 138.485 135.988C138.103 136.248 134.756 137.792 134.374 137.792L129.622 137.792L127.957 134.583L126.153 133.82L124.488 129.328L123.083 125.217L122.441 124.957L118.33 124.957L114.74 123.153L113.578 119.944C113.578 119.944 112.173 117.88 111.514 117.759C110.872 117.637 108.947 117.499 107.403 117.377C105.859 117.256 104.056 117.499 103.171 118.14C102.269 118.782 101.107 120.967 101.107 120.967L101.489 125.841L102.512 129.831L105.079 137.029C105.079 137.029 106.362 141.018 106.362 141.781C106.362 142.544 105.339 146.655 105.339 146.655L102.633 148.06L98.9043 149.985L91.2033 152.292L86.5723 152.032L82.08 155.622L80.6751 159.212L78.3683 159.091C78.3683 159.091 77.6051 158.571 77.2061 157.929C76.8246 157.287 73.9974 152.795 73.9974 152.795L71.0488 152.153L65.776 153.315L62.8448 155.813L63.2784 155.813L64.2497 157.738L62.7061 160.635L60.59 162.751L59.4279 164.485L59.4279 166.41L60.0003 167.174L65.2037 168.526L66.5566 169.879L66.175 171.614L64.4405 173.73L61.3532 174.493L58.6474 176.227L58.075 177.962L56.3406 182.593L56.1498 183.356L53.444 183.547L49.5935 179.506L46.8878 179.696L46.5062 181.812L47.4775 185.663L49.0211 187.588L53.0624 188.161L55.3693 189.895L55.7508 193.364L55.1785 198.186L56.1498 199.729L58.6474 197.804L61.3532 198.671L61.3532 198.585L63.8508 197.822L67.1289 198.793C67.1289 198.793 68.4818 199.365 69.4358 199.365L73.4771 199.365L74.8299 201.1L80.0333 201.672L83.6931 201.1L86.3988 198.984L90.0585 196.087L91.9838 195.324L96.8056 194.561L101.818 196.104L103.553 196.104L109.519 192.063L114.15 193.988C114.15 193.988 115.885 197.076 115.885 197.839C115.885 198.602 115.312 200.336 115.312 200.336L113.196 202.643L113.196 203.996L114.168 205.731L116.284 207.847L116.284 214.594L114.358 217.872L112.433 219.225L112.433 222.503L114.549 225.972L116.093 225.59L121.487 224.428L126.5 226.353L126.5 235.407L129.205 235.217L134.79 239.848L142.301 239.848L143.064 243.316L143.064 244.479L142.682 247.184L143.844 252.197L145.579 253.359L151.354 256.446L153.436 258.979L156.749 257.608L159.454 258.857C159.454 258.857 161.761 259.343 162.438 259.534C163.114 259.725 166.011 259.829 166.011 259.829L167.849 258.094L167.745 256.655L167.554 255.787L165.82 254.729L162.923 253.376L162.247 252.509L163.6 248.069L165.334 247.878L168.699 247.687L171.405 249.127L172.844 251.052L173.816 251.434L178.152 251.729L181.621 252.7L182.679 254.92L183.442 255.787L186.235 256.949L187.587 258.58L189.617 258.198L192.114 255.492L194.23 254.816L195.67 256.655L196.537 258.007L199.33 258.111L200.96 258.788L200.856 263.506L200.474 268.327L202.59 268.327L204.811 266.593L209.338 265.049L210.69 265.24L212.425 268.605C212.425 268.605 215.408 268.987 215.79 269.091C216.171 269.195 218.391 268.9 218.391 268.9L220.802 266.107L220.317 261.286L222.624 258.875L228.694 254.833L232.163 251.468L237.366 251.85L237.713 252.7L239.014 250.792L239.587 243.75L239.587 243.698Z" stroke="#0D0D0C" stroke-width="4" mask="url(#path-2-outside-2_481_5992)"/>
<mask id="path-3-outside-3_481_5992" maskUnits="userSpaceOnUse" x="137.395" y="1.58495" width="215" height="224" fill="black">
<rect fill="white" x="137.395" y="1.58495" width="215" height="224"/>
<path d="M265.655 217.542L267.581 216.779L271.57 218.965L277.103 222.954L280.953 223.075L282.237 221.41L283.26 219.867L283.52 218.063L283.52 215.877C283.52 215.877 284.804 215.357 285.446 215.357C286.087 215.357 286.469 214.195 286.469 214.195C286.469 214.195 288.533 212.79 289.556 212.79C290.58 212.79 292.383 211.888 292.383 211.888L293.927 208.298L296.234 208.939L300.466 206.234L303.935 207.777L305.218 208.159L308.687 205.592L309.329 202.383L309.451 197.11L310.994 195.705L315.365 196.087C315.365 196.087 316.267 196.729 316.649 197.249C317.03 197.769 318.314 199.435 318.314 199.435L321.661 199.053L323.586 197.388L325.512 195.463L329.744 195.081L331.149 195.601L332.311 202.158C332.311 202.158 334.115 204.083 334.878 204.725C335.641 205.366 340.411 205.887 340.411 205.887C340.411 205.887 344.14 204.603 344.782 204.343C345.423 204.083 345.684 201.897 345.684 201.897L343.758 196.885L339.387 195.081L336.3 190.71L335.78 185.576L336.942 179.54C336.942 179.54 342.336 179.922 342.718 179.922C343.099 179.922 346.308 179.8 346.308 179.8L348.875 177.355L349.395 175.43L346.689 172.984L347.453 167.069L345.649 165.786L342.44 164.121L342.561 162.456L342.44 158.085L341.538 155.778L336.404 156.801L332.554 164.641L324.714 164.26L319.84 163.358L317.655 164.26L313.925 164.52L309.433 160.791L309.312 157.842L310.977 152.83L310.717 150.766L306.346 147.678L306.467 140.862L304.924 139.197L302.738 137.792L301.715 135.988L302.096 132.259C302.096 132.259 303.259 130.195 303.38 129.813C303.501 129.432 305.565 128.53 305.565 128.53L309.294 129.692L310.196 130.334C310.196 130.334 310.318 132.901 310.457 133.542C310.578 134.184 311.861 136.109 311.861 136.109L314.168 137.133C314.168 137.133 315.972 136.369 316.094 135.849C316.215 135.329 316.354 134.687 316.354 134.687L319.823 131.86L321.488 131.478L326.5 134.305L329.848 134.305L333.837 132.38L335.901 130.715L335.52 128.148L335.398 123.396L337.584 120.048L341.434 119.146L343.741 117.603L345.285 115.036L344.383 112.59L339.752 112.59L337.306 111.306L325.997 93.9619L326.258 83.4337L325.234 80.7279L325.893 79.4617L324.54 79.6178C324.54 79.6178 323.777 77.3977 324.055 76.9121C324.35 76.4264 322.129 75.3684 322.129 75.3684L319.424 72.5759L317.204 70.165L313.735 69.2978L313.162 64.58L312.59 61.2152L309.797 60.5387L306.71 58.5094L303.727 61.3019L299.581 66.1237L296.494 65.3606C296.494 65.3606 294.187 63.8169 293.511 63.3312C292.834 62.8456 290.909 59.8623 290.909 59.8623L294.274 54.8497L292.245 51.2767L288.88 45.9692L287.631 43.8532L289.851 41.5464C289.851 41.5464 286.191 39.0487 286.191 38.7539L289.47 33.4464L289.47 31.1396L291.586 27.6707L294.482 25.6413L293.615 24.0109C293.615 24.0109 291.013 24.4966 290.718 24.4966C290.424 24.4966 287.735 23.7334 287.735 23.7334L287.44 22.8662L289.747 17.9577L289.556 17.2812L288.117 13.8123L286.087 12.9451L282.618 12.841L281.942 12.1646L279.826 11.4014L278.282 15.0611L275.975 17.2812L274.813 17.2812L272.212 18.3393L270.581 21.4266L267.98 20.6634L263.539 20.8542L259.776 24.1324L253.028 27.1156L244.165 26.3525L238.858 24.9996L232.787 18.6341L229.7 17.0904L226.04 17.1945L225.277 21.8255L222.381 21.4439L221.409 20.3859L220.056 15.4774L214.177 10.8464L212.824 8.53953L213.5 6.51021L212.251 4.58495L208.21 6.51021C208.21 6.51021 205.99 9.1119 205.799 9.49349C205.608 9.87507 204.255 12.7716 204.255 12.7716L200.301 14.3153L195.774 14.6969C195.774 14.6969 192.114 12.7716 191.542 12.5808C190.969 12.39 189.131 11.4187 189.131 11.4187L186.234 11.3147L183.737 11.887L179.21 15.8416L175.359 19.6054L172.758 22.502L170.052 25.2944L167.259 25.2944L164.172 20.8542L161.57 20.4726L158.483 21.9122L157.321 24.2191L155.482 29.5265L153.071 30.6886L149.221 30.5846L145.873 31.209L145.977 33.6199L143.792 35.4237L141.988 37.0888L143.012 40.2975L144.555 42.1014L143.653 45.5703L141.468 48.5189L139.664 51.3461L141.849 56.6188L143.775 56.3587L148.146 55.1966L152.378 54.9364L154.945 57.2433L154.043 59.949L151.979 62.6548L154.043 64.0597L156.87 64.58L160.079 65.2218L161.102 69.3325L162.004 72.1596L163.166 73.5646L163.686 76.9121L163.686 81.9247L166.132 84.4917L166.01 87.4403L165.889 92.5743L167.814 93.9792L173.347 94.8811L174.371 103.623L178.221 109.919L179.123 113.648L183.875 114.55L185.801 117.256L188.749 118.279L192.739 118.279L195.566 119.684L195.444 122.893L194.542 124.176L190.553 124.939C190.553 124.939 189.27 123.777 187.084 125.703C184.899 127.628 173.087 135.207 173.087 135.207L171.543 139.439L170.711 139.717L171.769 142.128L173.694 142.7L177.926 143.273L182.072 143.758L186.217 146.655L189.304 152.24L187.379 153.402L187.761 155.327L190.067 156.767L191.993 159.941L191.993 162.438L195.947 163.306L199.711 164.936L202.313 166.289L207.811 165.994L209.164 167.833L209.164 176.019L214.177 175.915L216.102 178.413L222.276 178.985L225.936 177.823L226.04 175.117L224.306 172.325L225.849 168.752L228.642 168.648L231.434 169.619L234.331 172.793L236.829 176.557L236.933 182.246L237.228 191.595L238.858 192.566L241.356 191.595L243.957 188.993L247.131 188.802L250.409 190.641L251.572 194.11L251.19 195.463L250.219 198.255L247.426 200.094L243.662 201.342L242.119 204.135L244.426 207.985L245.674 208.662L249.247 212.131L252.526 217.82L256.48 217.716L259.377 217.716L260.608 220.387L263.175 219.034L265.621 217.49L265.655 217.542Z"/>
</mask>
<path d="M265.655 217.542L267.581 216.779L271.57 218.965L277.103 222.954L280.953 223.075L282.237 221.41L283.26 219.867L283.52 218.063L283.52 215.877C283.52 215.877 284.804 215.357 285.446 215.357C286.087 215.357 286.469 214.195 286.469 214.195C286.469 214.195 288.533 212.79 289.556 212.79C290.58 212.79 292.383 211.888 292.383 211.888L293.927 208.298L296.234 208.939L300.466 206.234L303.935 207.777L305.218 208.159L308.687 205.592L309.329 202.383L309.451 197.11L310.994 195.705L315.365 196.087C315.365 196.087 316.267 196.729 316.649 197.249C317.03 197.769 318.314 199.435 318.314 199.435L321.661 199.053L323.586 197.388L325.512 195.463L329.744 195.081L331.149 195.601L332.311 202.158C332.311 202.158 334.115 204.083 334.878 204.725C335.641 205.366 340.411 205.887 340.411 205.887C340.411 205.887 344.14 204.603 344.782 204.343C345.423 204.083 345.684 201.897 345.684 201.897L343.758 196.885L339.387 195.081L336.3 190.71L335.78 185.576L336.942 179.54C336.942 179.54 342.336 179.922 342.718 179.922C343.099 179.922 346.308 179.8 346.308 179.8L348.875 177.355L349.395 175.43L346.689 172.984L347.453 167.069L345.649 165.786L342.44 164.121L342.561 162.456L342.44 158.085L341.538 155.778L336.404 156.801L332.554 164.641L324.714 164.26L319.84 163.358L317.655 164.26L313.925 164.52L309.433 160.791L309.312 157.842L310.977 152.83L310.717 150.766L306.346 147.678L306.467 140.862L304.924 139.197L302.738 137.792L301.715 135.988L302.096 132.259C302.096 132.259 303.259 130.195 303.38 129.813C303.501 129.432 305.565 128.53 305.565 128.53L309.294 129.692L310.196 130.334C310.196 130.334 310.318 132.901 310.457 133.542C310.578 134.184 311.861 136.109 311.861 136.109L314.168 137.133C314.168 137.133 315.972 136.369 316.094 135.849C316.215 135.329 316.354 134.687 316.354 134.687L319.823 131.86L321.488 131.478L326.5 134.305L329.848 134.305L333.837 132.38L335.901 130.715L335.52 128.148L335.398 123.396L337.584 120.048L341.434 119.146L343.741 117.603L345.285 115.036L344.383 112.59L339.752 112.59L337.306 111.306L325.997 93.9619L326.258 83.4337L325.234 80.7279L325.893 79.4617L324.54 79.6178C324.54 79.6178 323.777 77.3977 324.055 76.9121C324.35 76.4264 322.129 75.3684 322.129 75.3684L319.424 72.5759L317.204 70.165L313.735 69.2978L313.162 64.58L312.59 61.2152L309.797 60.5387L306.71 58.5094L303.727 61.3019L299.581 66.1237L296.494 65.3606C296.494 65.3606 294.187 63.8169 293.511 63.3312C292.834 62.8456 290.909 59.8623 290.909 59.8623L294.274 54.8497L292.245 51.2767L288.88 45.9692L287.631 43.8532L289.851 41.5464C289.851 41.5464 286.191 39.0487 286.191 38.7539L289.47 33.4464L289.47 31.1396L291.586 27.6707L294.482 25.6413L293.615 24.0109C293.615 24.0109 291.013 24.4966 290.718 24.4966C290.424 24.4966 287.735 23.7334 287.735 23.7334L287.44 22.8662L289.747 17.9577L289.556 17.2812L288.117 13.8123L286.087 12.9451L282.618 12.841L281.942 12.1646L279.826 11.4014L278.282 15.0611L275.975 17.2812L274.813 17.2812L272.212 18.3393L270.581 21.4266L267.98 20.6634L263.539 20.8542L259.776 24.1324L253.028 27.1156L244.165 26.3525L238.858 24.9996L232.787 18.6341L229.7 17.0904L226.04 17.1945L225.277 21.8255L222.381 21.4439L221.409 20.3859L220.056 15.4774L214.177 10.8464L212.824 8.53953L213.5 6.51021L212.251 4.58495L208.21 6.51021C208.21 6.51021 205.99 9.1119 205.799 9.49349C205.608 9.87507 204.255 12.7716 204.255 12.7716L200.301 14.3153L195.774 14.6969C195.774 14.6969 192.114 12.7716 191.542 12.5808C190.969 12.39 189.131 11.4187 189.131 11.4187L186.234 11.3147L183.737 11.887L179.21 15.8416L175.359 19.6054L172.758 22.502L170.052 25.2944L167.259 25.2944L164.172 20.8542L161.57 20.4726L158.483 21.9122L157.321 24.2191L155.482 29.5265L153.071 30.6886L149.221 30.5846L145.873 31.209L145.977 33.6199L143.792 35.4237L141.988 37.0888L143.012 40.2975L144.555 42.1014L143.653 45.5703L141.468 48.5189L139.664 51.3461L141.849 56.6188L143.775 56.3587L148.146 55.1966L152.378 54.9364L154.945 57.2433L154.043 59.949L151.979 62.6548L154.043 64.0597L156.87 64.58L160.079 65.2218L161.102 69.3325L162.004 72.1596L163.166 73.5646L163.686 76.9121L163.686 81.9247L166.132 84.4917L166.01 87.4403L165.889 92.5743L167.814 93.9792L173.347 94.8811L174.371 103.623L178.221 109.919L179.123 113.648L183.875 114.55L185.801 117.256L188.749 118.279L192.739 118.279L195.566 119.684L195.444 122.893L194.542 124.176L190.553 124.939C190.553 124.939 189.27 123.777 187.084 125.703C184.899 127.628 173.087 135.207 173.087 135.207L171.543 139.439L170.711 139.717L171.769 142.128L173.694 142.7L177.926 143.273L182.072 143.758L186.217 146.655L189.304 152.24L187.379 153.402L187.761 155.327L190.067 156.767L191.993 159.941L191.993 162.438L195.947 163.306L199.711 164.936L202.313 166.289L207.811 165.994L209.164 167.833L209.164 176.019L214.177 175.915L216.102 178.413L222.276 178.985L225.936 177.823L226.04 175.117L224.306 172.325L225.849 168.752L228.642 168.648L231.434 169.619L234.331 172.793L236.829 176.557L236.933 182.246L237.228 191.595L238.858 192.566L241.356 191.595L243.957 188.993L247.131 188.802L250.409 190.641L251.572 194.11L251.19 195.463L250.219 198.255L247.426 200.094L243.662 201.342L242.119 204.135L244.426 207.985L245.674 208.662L249.247 212.131L252.526 217.82L256.48 217.716L259.377 217.716L260.608 220.387L263.175 219.034L265.621 217.49L265.655 217.542Z" fill="#95AB4D"/>
<path d="M265.655 217.542L267.581 216.779L271.57 218.965L277.103 222.954L280.953 223.075L282.237 221.41L283.26 219.867L283.52 218.063L283.52 215.877C283.52 215.877 284.804 215.357 285.446 215.357C286.087 215.357 286.469 214.195 286.469 214.195C286.469 214.195 288.533 212.79 289.556 212.79C290.58 212.79 292.383 211.888 292.383 211.888L293.927 208.298L296.234 208.939L300.466 206.234L303.935 207.777L305.218 208.159L308.687 205.592L309.329 202.383L309.451 197.11L310.994 195.705L315.365 196.087C315.365 196.087 316.267 196.729 316.649 197.249C317.03 197.769 318.314 199.435 318.314 199.435L321.661 199.053L323.586 197.388L325.512 195.463L329.744 195.081L331.149 195.601L332.311 202.158C332.311 202.158 334.115 204.083 334.878 204.725C335.641 205.366 340.411 205.887 340.411 205.887C340.411 205.887 344.14 204.603 344.782 204.343C345.423 204.083 345.684 201.897 345.684 201.897L343.758 196.885L339.387 195.081L336.3 190.71L335.78 185.576L336.942 179.54C336.942 179.54 342.336 179.922 342.718 179.922C343.099 179.922 346.308 179.8 346.308 179.8L348.875 177.355L349.395 175.43L346.689 172.984L347.453 167.069L345.649 165.786L342.44 164.121L342.561 162.456L342.44 158.085L341.538 155.778L336.404 156.801L332.554 164.641L324.714 164.26L319.84 163.358L317.655 164.26L313.925 164.52L309.433 160.791L309.312 157.842L310.977 152.83L310.717 150.766L306.346 147.678L306.467 140.862L304.924 139.197L302.738 137.792L301.715 135.988L302.096 132.259C302.096 132.259 303.259 130.195 303.38 129.813C303.501 129.432 305.565 128.53 305.565 128.53L309.294 129.692L310.196 130.334C310.196 130.334 310.318 132.901 310.457 133.542C310.578 134.184 311.861 136.109 311.861 136.109L314.168 137.133C314.168 137.133 315.972 136.369 316.094 135.849C316.215 135.329 316.354 134.687 316.354 134.687L319.823 131.86L321.488 131.478L326.5 134.305L329.848 134.305L333.837 132.38L335.901 130.715L335.52 128.148L335.398 123.396L337.584 120.048L341.434 119.146L343.741 117.603L345.285 115.036L344.383 112.59L339.752 112.59L337.306 111.306L325.997 93.9619L326.258 83.4337L325.234 80.7279L325.893 79.4617L324.54 79.6178C324.54 79.6178 323.777 77.3977 324.055 76.9121C324.35 76.4264 322.129 75.3684 322.129 75.3684L319.424 72.5759L317.204 70.165L313.735 69.2978L313.162 64.58L312.59 61.2152L309.797 60.5387L306.71 58.5094L303.727 61.3019L299.581 66.1237L296.494 65.3606C296.494 65.3606 294.187 63.8169 293.511 63.3312C292.834 62.8456 290.909 59.8623 290.909 59.8623L294.274 54.8497L292.245 51.2767L288.88 45.9692L287.631 43.8532L289.851 41.5464C289.851 41.5464 286.191 39.0487 286.191 38.7539L289.47 33.4464L289.47 31.1396L291.586 27.6707L294.482 25.6413L293.615 24.0109C293.615 24.0109 291.013 24.4966 290.718 24.4966C290.424 24.4966 287.735 23.7334 287.735 23.7334L287.44 22.8662L289.747 17.9577L289.556 17.2812L288.117 13.8123L286.087 12.9451L282.618 12.841L281.942 12.1646L279.826 11.4014L278.282 15.0611L275.975 17.2812L274.813 17.2812L272.212 18.3393L270.581 21.4266L267.98 20.6634L263.539 20.8542L259.776 24.1324L253.028 27.1156L244.165 26.3525L238.858 24.9996L232.787 18.6341L229.7 17.0904L226.04 17.1945L225.277 21.8255L222.381 21.4439L221.409 20.3859L220.056 15.4774L214.177 10.8464L212.824 8.53953L213.5 6.51021L212.251 4.58495L208.21 6.51021C208.21 6.51021 205.99 9.1119 205.799 9.49349C205.608 9.87507 204.255 12.7716 204.255 12.7716L200.301 14.3153L195.774 14.6969C195.774 14.6969 192.114 12.7716 191.542 12.5808C190.969 12.39 189.131 11.4187 189.131 11.4187L186.234 11.3147L183.737 11.887L179.21 15.8416L175.359 19.6054L172.758 22.502L170.052 25.2944L167.259 25.2944L164.172 20.8542L161.57 20.4726L158.483 21.9122L157.321 24.2191L155.482 29.5265L153.071 30.6886L149.221 30.5846L145.873 31.209L145.977 33.6199L143.792 35.4237L141.988 37.0888L143.012 40.2975L144.555 42.1014L143.653 45.5703L141.468 48.5189L139.664 51.3461L141.849 56.6188L143.775 56.3587L148.146 55.1966L152.378 54.9364L154.945 57.2433L154.043 59.949L151.979 62.6548L154.043 64.0597L156.87 64.58L160.079 65.2218L161.102 69.3325L162.004 72.1596L163.166 73.5646L163.686 76.9121L163.686 81.9247L166.132 84.4917L166.01 87.4403L165.889 92.5743L167.814 93.9792L173.347 94.8811L174.371 103.623L178.221 109.919L179.123 113.648L183.875 114.55L185.801 117.256L188.749 118.279L192.739 118.279L195.566 119.684L195.444 122.893L194.542 124.176L190.553 124.939C190.553 124.939 189.27 123.777 187.084 125.703C184.899 127.628 173.087 135.207 173.087 135.207L171.543 139.439L170.711 139.717L171.769 142.128L173.694 142.7L177.926 143.273L182.072 143.758L186.217 146.655L189.304 152.24L187.379 153.402L187.761 155.327L190.067 156.767L191.993 159.941L191.993 162.438L195.947 163.306L199.711 164.936L202.313 166.289L207.811 165.994L209.164 167.833L209.164 176.019L214.177 175.915L216.102 178.413L222.276 178.985L225.936 177.823L226.04 175.117L224.306 172.325L225.849 168.752L228.642 168.648L231.434 169.619L234.331 172.793L236.829 176.557L236.933 182.246L237.228 191.595L238.858 192.566L241.356 191.595L243.957 188.993L247.131 188.802L250.409 190.641L251.572 194.11L251.19 195.463L250.219 198.255L247.426 200.094L243.662 201.342L242.119 204.135L244.426 207.985L245.674 208.662L249.247 212.131L252.526 217.82L256.48 217.716L259.377 217.716L260.608 220.387L263.175 219.034L265.621 217.49L265.655 217.542Z" stroke="#0D0D0C" stroke-width="4" mask="url(#path-3-outside-3_481_5992)"/>
</g>
<path d="M88.0989 84.3281C88.0989 84.1292 88.1779 83.9384 88.3186 83.7978C88.4592 83.6571 88.65 83.5781 88.8489 83.5781H90.8489C91.0478 83.5781 91.2386 83.6571 91.3792 83.7978C91.5199 83.9384 91.5989 84.1292 91.5989 84.3281C91.5989 84.527 91.5199 84.7178 91.3792 84.8585C91.2386 84.9991 91.0478 85.0781 90.8489 85.0781H88.8489C88.65 85.0781 88.4592 84.9991 88.3186 84.8585C88.1779 84.7178 88.0989 84.527 88.0989 84.3281ZM92.9539 78.4944C93.0233 78.565 93.106 78.6212 93.1972 78.6597C93.2884 78.6982 93.3863 78.7182 93.4853 78.7187C93.5843 78.7191 93.6825 78.7 93.774 78.6623C93.8656 78.6247 93.9488 78.5693 94.0188 78.4993C94.0889 78.4294 94.1444 78.3462 94.1822 78.2547C94.2199 78.1632 94.2392 78.0651 94.2388 77.9661C94.2385 77.8671 94.2185 77.7691 94.1802 77.6779C94.1418 77.5866 94.0857 77.5039 94.0152 77.4344L92.5989 76.0194C92.4559 75.8926 92.2699 75.8252 92.0788 75.8309C91.8878 75.8366 91.7062 75.9151 91.571 76.0502C91.4359 76.1854 91.3574 76.367 91.3517 76.5581C91.3459 76.7491 91.4134 76.9351 91.5401 77.0781L92.9539 78.4944ZM99.8489 76.0781C100.048 76.0781 100.239 75.9991 100.379 75.8585C100.52 75.7178 100.599 75.527 100.599 75.3281V73.3281C100.599 73.1292 100.52 72.9384 100.379 72.7978C100.239 72.6571 100.048 72.5781 99.8489 72.5781C99.65 72.5781 99.4592 72.6571 99.3186 72.7978C99.1779 72.9384 99.0989 73.1292 99.0989 73.3281V75.3281C99.0989 75.527 99.1779 75.7178 99.3186 75.8585C99.4592 75.9991 99.65 76.0781 99.8489 76.0781ZM106.213 78.7144C106.311 78.7145 106.409 78.6951 106.5 78.6573C106.591 78.6196 106.674 78.5642 106.744 78.4944L108.158 77.0781C108.284 76.9351 108.352 76.7491 108.346 76.5581C108.34 76.367 108.262 76.1854 108.127 76.0502C107.992 75.9151 107.81 75.8366 107.619 75.8309C107.428 75.8252 107.242 75.8926 107.099 76.0194L105.683 77.4344C105.578 77.5393 105.507 77.6728 105.478 77.8182C105.449 77.9636 105.464 78.1143 105.52 78.2513C105.577 78.3883 105.673 78.5053 105.796 78.5878C105.92 78.6702 106.064 78.7142 106.213 78.7144ZM108.099 84.3281C108.099 84.527 108.178 84.7178 108.319 84.8585C108.459 84.9991 108.65 85.0781 108.849 85.0781H110.849C111.048 85.0781 111.239 84.9991 111.379 84.8585C111.52 84.7178 111.599 84.527 111.599 84.3281C111.599 84.1292 111.52 83.9384 111.379 83.7978C111.239 83.6571 111.048 83.5781 110.849 83.5781H108.849C108.65 83.5781 108.459 83.6571 108.319 83.7978C108.178 83.9384 108.099 84.1292 108.099 84.3281ZM94.8489 85.0781C95.0478 85.0781 95.2386 84.9991 95.3792 84.8585C95.5199 84.7178 95.5989 84.527 95.5989 84.3281C95.5989 83.201 96.0467 82.12 96.8437 81.3229C97.6407 80.5259 98.7217 80.0781 99.8489 80.0781C100.976 80.0781 102.057 80.5259 102.854 81.3229C103.651 82.12 104.099 83.201 104.099 84.3281C104.099 84.527 104.178 84.7178 104.319 84.8585C104.459 84.9991 104.65 85.0781 104.849 85.0781C105.048 85.0781 105.239 84.9991 105.379 84.8585C105.52 84.7178 105.599 84.527 105.599 84.3281C105.599 82.8031 104.993 81.3406 103.915 80.2623C102.836 79.1839 101.374 78.5781 99.8489 78.5781C98.3239 78.5781 96.8614 79.1839 95.783 80.2623C94.7047 81.3406 94.0989 82.8031 94.0989 84.3281C94.0989 84.527 94.1779 84.7178 94.3186 84.8585C94.4592 84.9991 94.65 85.0781 94.8489 85.0781ZM113.496 98.7031C113.431 98.8168 113.336 98.9113 113.223 98.9771C113.109 99.0429 112.98 99.0778 112.849 99.0781H86.8489C86.7179 99.078 86.5892 99.0436 86.4757 98.9783C86.3621 98.913 86.2676 98.8191 86.2016 98.706C86.1356 98.5928 86.1004 98.4644 86.0995 98.3334C86.0986 98.2024 86.132 98.0734 86.1964 97.9594L91.2826 88.9594C91.348 88.8436 91.443 88.7472 91.5579 88.6802C91.6728 88.6133 91.8034 88.578 91.9364 88.5781H107.761C107.894 88.578 108.025 88.6133 108.14 88.6802C108.255 88.7472 108.35 88.8436 108.415 88.9594L113.501 97.9594C113.565 98.0731 113.598 98.2015 113.598 98.3319C113.597 98.4623 113.562 98.5903 113.496 98.7031ZM107.324 90.0781H103.824L104.368 92.5781H108.743L107.324 90.0781ZM102.831 92.5781L102.288 90.0781H97.4127L96.8689 92.5781H102.831ZM96.5401 94.0781L95.7789 97.5781H103.919L103.158 94.0781H96.5401ZM90.9601 92.5781H95.3351L95.8789 90.0781H92.3789L90.9601 92.5781ZM88.1339 97.5781H94.2439L95.0051 94.0781H90.1126L88.1339 97.5781ZM111.564 97.5781L109.585 94.0781H104.693L105.454 97.5781H111.564Z" fill="#0D0D0C"/>
<path d="M259.619 120.484C259.788 120.688 259.87 120.95 259.847 121.213C259.824 121.477 259.697 121.72 259.494 121.891C257.324 123.689 255.386 124.328 253.619 124.328C251.296 124.328 249.266 123.226 247.378 122.203C244.209 120.483 241.473 118.998 237.494 122.296C237.393 122.381 237.276 122.445 237.15 122.485C237.025 122.525 236.892 122.539 236.761 122.527C236.629 122.516 236.501 122.478 236.385 122.417C236.268 122.355 236.164 122.272 236.08 122.17C235.995 122.068 235.932 121.951 235.893 121.825C235.855 121.699 235.841 121.566 235.854 121.435C235.867 121.304 235.905 121.176 235.967 121.06C236.03 120.943 236.114 120.84 236.216 120.757C241.238 116.597 245.006 118.642 248.333 120.447C251.501 122.166 254.238 123.651 258.216 120.354C258.42 120.187 258.682 120.106 258.944 120.131C259.207 120.155 259.45 120.282 259.619 120.484ZM258.21 113.359C254.231 116.657 251.495 115.172 248.326 113.452C245 111.648 241.231 109.603 236.21 113.763C236.008 113.933 235.882 114.176 235.859 114.439C235.835 114.702 235.917 114.963 236.086 115.166C236.254 115.369 236.496 115.498 236.759 115.523C237.021 115.548 237.283 115.469 237.488 115.302C241.466 112.004 244.203 113.489 247.371 115.209C249.26 116.233 251.29 117.334 253.613 117.334C255.38 117.334 257.318 116.696 259.488 114.897C259.59 114.813 259.675 114.71 259.737 114.594C259.799 114.478 259.838 114.35 259.85 114.219C259.863 114.087 259.85 113.955 259.811 113.829C259.772 113.703 259.709 113.585 259.624 113.484C259.54 113.382 259.436 113.298 259.32 113.237C259.203 113.176 259.075 113.138 258.943 113.126C258.812 113.115 258.679 113.129 258.554 113.169C258.428 113.209 258.311 113.273 258.21 113.358V113.359ZM237.488 108.303C241.466 105.007 244.203 106.492 247.371 108.211C249.26 109.236 251.29 110.336 253.613 110.336C255.38 110.336 257.318 109.696 259.488 107.898C259.59 107.815 259.675 107.712 259.737 107.595C259.799 107.479 259.838 107.351 259.85 107.22C259.863 107.089 259.85 106.956 259.811 106.83C259.772 106.704 259.709 106.587 259.624 106.485C259.54 106.383 259.436 106.3 259.32 106.238C259.203 106.177 259.075 106.139 258.943 106.128C258.812 106.116 258.679 106.13 258.554 106.17C258.428 106.21 258.311 106.274 258.21 106.359C254.231 109.657 251.495 108.172 248.326 106.452C245 104.651 241.231 102.606 236.21 106.766C236.104 106.848 236.016 106.951 235.951 107.068C235.886 107.185 235.845 107.314 235.83 107.447C235.816 107.58 235.828 107.715 235.867 107.843C235.906 107.972 235.97 108.091 236.055 108.194C236.141 108.297 236.246 108.382 236.365 108.443C236.484 108.505 236.615 108.542 236.748 108.552C236.882 108.562 237.016 108.545 237.143 108.503C237.27 108.46 237.387 108.392 237.488 108.303Z" fill="#0D0D0C"/>
<path d="M178.731 197.268C178.435 196.158 177.878 195.134 177.108 194.281C176.338 193.428 175.376 192.771 174.301 192.362C173.227 191.954 172.071 191.808 170.928 191.934C169.786 192.061 168.69 192.457 167.731 193.091C167.645 193.039 167.555 192.991 167.464 192.947L169.571 184.532C169.61 184.38 169.599 184.219 169.541 184.073C169.483 183.927 169.381 183.803 169.249 183.718C168.42 183.189 167.492 182.835 166.521 182.676C165.551 182.517 164.558 182.557 163.603 182.794C162.649 183.031 161.752 183.459 160.969 184.054C160.185 184.648 159.531 185.395 159.045 186.251C158.559 187.106 158.253 188.051 158.144 189.028C158.035 190.006 158.126 190.995 158.412 191.936C158.698 192.877 159.172 193.75 159.806 194.503C160.44 195.255 161.22 195.87 162.099 196.311V196.328C162.099 196.424 162.099 196.521 162.111 196.616L153.77 198.998C153.619 199.041 153.484 199.13 153.386 199.253C153.288 199.376 153.231 199.527 153.224 199.684C153.187 200.663 153.349 201.639 153.7 202.554C154.051 203.468 154.583 204.302 155.265 205.005C155.947 205.708 156.765 206.266 157.668 206.644C158.572 207.022 159.542 207.214 160.522 207.207C161.501 207.199 162.469 206.994 163.367 206.602C164.265 206.211 165.074 205.641 165.746 204.928C166.417 204.215 166.938 203.374 167.275 202.454C167.612 201.535 167.76 200.556 167.709 199.578C167.796 199.528 167.883 199.474 167.966 199.417L174.2 205.453C174.313 205.562 174.458 205.633 174.614 205.656C174.769 205.678 174.928 205.651 175.068 205.578C176.534 204.817 177.697 203.578 178.363 202.066C179.03 200.554 179.159 198.86 178.731 197.264V197.268ZM163.599 196.328C163.599 195.883 163.731 195.448 163.978 195.078C164.225 194.708 164.577 194.42 164.988 194.25C165.399 194.079 165.851 194.035 166.288 194.121C166.724 194.208 167.125 194.423 167.44 194.737C167.755 195.052 167.969 195.453 168.056 195.889C168.142 196.326 168.098 196.778 167.928 197.189C167.757 197.6 167.469 197.952 167.099 198.199C166.729 198.446 166.294 198.578 165.849 198.578C165.252 198.578 164.68 198.341 164.258 197.919C163.836 197.497 163.599 196.925 163.599 196.328ZM159.599 189.828C159.599 188.842 159.852 187.872 160.335 187.012C160.817 186.152 161.513 185.43 162.356 184.917C163.198 184.404 164.158 184.115 165.143 184.08C166.129 184.045 167.107 184.264 167.984 184.716L166.014 192.578C165.959 192.578 165.904 192.578 165.849 192.578C165.127 192.579 164.421 192.787 163.815 193.179C163.21 193.57 162.729 194.128 162.433 194.786C161.568 194.279 160.851 193.555 160.354 192.685C159.857 191.815 159.597 190.83 159.599 189.828ZM163.349 204.991C162.495 205.485 161.528 205.752 160.541 205.764C159.554 205.777 158.58 205.535 157.714 205.063C156.847 204.59 156.117 203.902 155.594 203.066C155.07 202.229 154.77 201.272 154.724 200.286L162.523 198.058C162.839 198.667 163.317 199.177 163.903 199.533C164.49 199.89 165.163 200.078 165.849 200.078C165.974 200.078 166.099 200.072 166.224 200.059C166.217 201.061 165.948 202.043 165.444 202.908C164.94 203.774 164.217 204.492 163.349 204.991ZM176.711 202.021C176.252 202.815 175.609 203.488 174.836 203.983L169.008 198.343C169.412 197.712 169.617 196.974 169.596 196.224C169.575 195.475 169.33 194.749 168.891 194.141C169.989 193.519 171.26 193.276 172.51 193.448C173.759 193.62 174.918 194.199 175.806 195.094C176.695 195.989 177.264 197.152 177.427 198.403C177.589 199.653 177.336 200.923 176.706 202.016L176.711 202.021Z" fill="#0D0D0C"/>
</g>
<defs>
<filter id="filter0_d_481_5992" x="0.848755" y="0.328125" width="356.302" height="277" filterUnits="userSpaceOnUse" color-interpolation-filters="sRGB">
<feFlood flood-opacity="0" result="BackgroundImageFix"/>
<feColorMatrix in="SourceAlpha" type="matrix" values="0 0 0 0 0 0 0 0 0 0 0 0 0 0 0 0 0 0 127 0" result="hardAlpha"/>
<feOffset dx="2" dy="2"/>
<feComposite in2="hardAlpha" operator="out"/>
<feColorMatrix type="matrix" values="0 0 0 0 0 0 0 0 0 0 0 0 0 0 0 0 0 0 1 0"/>
<feBlend mode="normal" in2="BackgroundImageFix" result="effect1_dropShadow_481_5992"/>
<feBlend mode="normal" in="SourceGraphic" in2="effect1_dropShadow_481_5992" result="shape"/>
</filter>
<filter id="filter1_d_481_5992" x="1.93225" y="2.0249" width="351.714" height="271.088" filterUnits="userSpaceOnUse" color-interpolation-filters="sRGB">
<feFlood flood-opacity="0" result="BackgroundImageFix"/>
<feColorMatrix in="SourceAlpha" type="matrix" values="0 0 0 0 0 0 0 0 0 0 0 0 0 0 0 0 0 0 127 0" result="hardAlpha"/>
<feOffset dx="2" dy="2"/>
<feComposite in2="hardAlpha" operator="out"/>
<feColorMatrix type="matrix" values="0 0 0 0 0 0 0 0 0 0 0 0 0 0 0 0 0 0 1 0"/>
<feBlend mode="normal" in2="BackgroundImageFix" result="effect1_dropShadow_481_5992"/>
<feBlend mode="normal" in="SourceGraphic" in2="effect1_dropShadow_481_5992" result="shape"/>
</filter>
<clipPath id="clip0_481_5992">
<rect width="275" height="354.302" fill="white" transform="translate(355.151 0.328125) rotate(90)"/>
</clipPath>
</defs>
</svg>
